<?xml version="1.0" standalone="no"?>
<!DOCTYPE svg PUBLIC "-//W3C//DTD SVG 1.1//EN" "http://www.w3.org/Graphics/SVG/1.1/DTD/svg11.dtd" >
<svg xmlns="http://www.w3.org/2000/svg" xmlns:xlink="http://www.w3.org/1999/xlink" version="1.1">
<metadata>
Created by FontForge 20170731 at Mon May 27 07:48:38 2013
 By Aleksey,,,
2009 Albert-Jan Pool published by FSI FontShop International GmbH
</metadata>
<defs>
<font id="AdihausDIN-CnMediumItalic" horiz-adv-x="353" >
  <font-face 
    font-family="AdihausDIN Cn Medium"
    font-weight="500"
    font-style="italic"
    font-stretch="condensed"
    units-per-em="1000"
    panose-1="2 11 6 6 2 1 1 9 1 2"
    ascent="764"
    descent="-236"
    x-height="518"
    cap-height="712"
    bbox="-142 -205 965 1091"
    underline-thickness="60"
    underline-position="-173"
    slope="-11"
    unicode-range="U+0020-FEFF"
  />
<missing-glyph horiz-adv-x="374" 
d="M145 712h266l-142 -712h-266zM223 61l118 590h-150l-118 -590h150z" />
    <glyph glyph-name=".notdef" horiz-adv-x="374" 
d="M145 712h266l-142 -712h-266zM223 61l118 590h-150l-118 -590h150z" />
    <glyph glyph-name=".null" horiz-adv-x="0" 
 />
    <glyph glyph-name="nonmarkingreturn" horiz-adv-x="176" 
 />
    <glyph glyph-name="space" unicode=" " horiz-adv-x="176" 
 />
    <glyph glyph-name="exclam" unicode="!" horiz-adv-x="228" 
d="M175 712h84l-106 -522h-76zM49 98h92l-20 -98h-92z" />
    <glyph glyph-name="quotedbl" unicode="&#x22;" horiz-adv-x="370" 
d="M154 712h78l-38 -191h-78zM321 712h78l-38 -191h-78z" />
    <glyph glyph-name="numbersign" unicode="#" horiz-adv-x="525" 
d="M106 217h-66l15 73h77l51 147h-72l14 73h84l70 202h79l-71 -202h99l71 202h79l-71 -202h61l-14 -73h-73l-51 -147h68l-14 -73h-80l-75 -217h-79l75 217h-98l-76 -217h-79zM309 290l51 147h-98l-51 -147h98z" />
    <glyph glyph-name="dollar" unicode="$" horiz-adv-x="396" 
d="M103 187q-4 -18 -5 -32t-1 -26q0 -28 12 -43q9 -12 26 -17l51 270l-29 14q-38 18 -54 43.5t-16 65.5q0 33 8 71q11 52 25.5 85.5t38.5 56.5q36 36 90 43l18 88h74l-19 -91q21 -5 36 -14t26 -23q12 -15 18.5 -34t6.5 -46q0 -15 -1.5 -32.5t-6.5 -39.5h-81q4 20 5 33.5
t1 25.5q0 27 -11 42q-6 7 -16 13l-45 -240l17 -8q47 -23 65.5 -49t18.5 -65q0 -38 -11 -93q-12 -62 -26.5 -94.5t-38.5 -54.5q-36 -35 -96 -42l-21 -108h-74l21 110q-23 4 -39 13.5t-29 23.5q-27 30 -27 82q0 16 1.5 32.5t6.5 39.5h81zM270 257q0 34 -32 56l-46 -242
q16 6 28 18q17 17 25.5 37.5t16.5 59.5q5 23 6.5 38.5t1.5 32.5zM171 483q0 -23 8.5 -36.5t22.5 -22.5l42 218q-17 -7 -28 -18q-16 -14 -24.5 -35.5t-15.5 -55.5q-5 -25 -5 -50z" />
    <glyph glyph-name="percent" unicode="%" horiz-adv-x="639" 
d="M150 458q-2 -7 -2.5 -14.5t-0.5 -11.5q0 -15 8.5 -24.5t28.5 -9.5q40 0 51 54l32 156q3 15 3 25q0 15 -8.5 25t-28.5 10q-39 0 -51 -53zM118 611q12 59 42.5 84t79.5 25q46 0 69.5 -24t23.5 -58q0 -6 -0.5 -14t-2.5 -16l-31 -152q-12 -58 -41 -84t-80 -26q-47 0 -70.5 24
t-23.5 59q0 5 1 13t3 16zM498 712h60l-378 -712h-60zM411 104q-2 -7 -2.5 -14.5t-0.5 -11.5q0 -15 8.5 -24.5t28.5 -9.5q40 0 51 54l32 156q3 15 3 25q0 15 -8.5 25t-28.5 10q-39 0 -51 -53zM379 257q12 59 42.5 84t79.5 25q46 0 69.5 -24t23.5 -58q0 -6 -0.5 -14t-2.5 -16
l-31 -152q-12 -58 -41 -84t-80 -26q-47 0 -70.5 24t-23.5 59q0 5 1 13t3 16z" />
    <glyph glyph-name="ampersand" unicode="&#x26;" horiz-adv-x="464" 
d="M11 133q0 39 11.5 73.5t32.5 66t49.5 60.5t62.5 56q-24 56 -36 93.5t-12 69.5q0 34 9.5 64.5t29 53t47.5 36t66 13.5q59 0 89 -34.5t30 -89.5q0 -31 -8 -58t-22.5 -51t-35.5 -46.5t-47 -45.5l-23 -19l70 -165q20 29 37 71t27 81h68q-14 -61 -41.5 -122.5t-60.5 -104.5
l56 -135h-81l-31 71q-36 -38 -73.5 -58.5t-81.5 -20.5q-66 0 -99 39t-33 102zM88 147q0 -38 17.5 -60t50.5 -22q27 0 54 17.5t61 55.5l-78 185q-20 -18 -39 -37.5t-33.5 -41.5t-23.5 -46t-9 -51zM247 457q32 27 51 59t19 72q0 31 -14 45t-37 14q-31 0 -50.5 -27t-19.5 -65
q0 -27 9 -55t23 -60z" />
    <glyph glyph-name="quotesingle" unicode="'" horiz-adv-x="203" 
d="M154 712h78l-38 -191h-78z" />
    <glyph glyph-name="parenleft" unicode="(" horiz-adv-x="229" 
d="M12 41q0 10 1 24.5t6 37.5l102 508q7 35 14.5 60.5t26.5 52.5q13 19 32.5 39t48.5 43l44 -56q-24 -20 -37.5 -33t-24.5 -29q-10 -15 -16.5 -34t-12.5 -49l-101 -504q-4 -18 -5.5 -31t-1.5 -21q0 -25 10.5 -46t31.5 -47l-59 -50q-32 42 -45.5 72.5t-13.5 62.5z" />
    <glyph glyph-name="parenright" unicode=")" horiz-adv-x="229" 
d="M256 671q0 -10 -1 -24.5t-6 -37.5l-102 -508q-7 -35 -14.5 -60.5t-26.5 -52.5q-13 -19 -32.5 -39t-48.5 -43l-44 56q24 20 37.5 33t24.5 29q10 15 16.5 34t12.5 49l101 504q4 18 5.5 31t1.5 21q0 25 -10.5 46t-31.5 47l59 50q32 -42 45.5 -72.5t13.5 -62.5z" />
    <glyph glyph-name="asterisk" unicode="*" horiz-adv-x="369" 
d="M209 505l-114 -45l-19 51l119 40l-95 82l37 41l88 -85l22 122l52 -9l-26 -122l114 45l19 -50l-118 -40l94 -82l-36 -40l-88 83l-22 -121l-52 10z" />
    <glyph glyph-name="plus" unicode="+" horiz-adv-x="420" 
d="M171 247h-129l15 73h129l27 139h74l-27 -139h129l-15 -73h-129l-28 -139h-74z" />
    <glyph glyph-name="comma" unicode="," horiz-adv-x="193" 
d="M22 99h87l-32 -155l-100 -67z" />
    <glyph glyph-name="hyphen" unicode="-" horiz-adv-x="273" 
d="M57 319h185l-15 -73h-185z" />
    <glyph glyph-name="period" unicode="." horiz-adv-x="204" 
d="M24 98h92l-19 -98h-92z" />
    <glyph glyph-name="slash" unicode="/" horiz-adv-x="260" 
d="M286 786h73l-348 -860h-73z" />
    <glyph glyph-name="zero" unicode="0" horiz-adv-x="383" 
d="M120 573q15 79 58 115q39 32 97 32q35 0 57.5 -11t35.5 -26q14 -16 18.5 -34t4.5 -40q0 -10 -1 -21.5t-3 -24.5l-85 -424q-15 -79 -58 -115q-39 -32 -97 -32q-35 0 -57.5 11t-35.5 26q-14 16 -18.5 34t-4.5 40q0 10 1 21.5t3 24.5zM311 569q4 20 4 33q0 24 -12.5 37
t-35.5 13q-21 0 -41 -16.5t-29 -60.5l-86 -432q-4 -20 -4 -33q0 -24 12.5 -37t35.5 -13q21 0 41 16.5t29 60.5z" />
    <glyph glyph-name="one" unicode="1" horiz-adv-x="383" 
d="M243 616l-116 -86l20 96l115 86h76l-142 -712h-76z" />
    <glyph glyph-name="two" unicode="2" horiz-adv-x="383" 
d="M19 63l235 372q32 51 46.5 92.5t14.5 70.5q0 26 -11 40t-33 14q-23 0 -40.5 -16.5t-26.5 -59.5l-10 -46h-76l9 44q9 44 23 71.5t36 44.5q19 15 42 22.5t49 7.5q34 0 56 -10.5t34 -26.5t18.5 -35.5t6.5 -45.5q0 -40 -18 -85.5t-59 -110.5l-213 -338h189l-13 -68h-271z" />
    <glyph glyph-name="three" unicode="3" horiz-adv-x="383" 
d="M120 575q8 40 20.5 67.5t38.5 48.5q35 29 91 29q63 0 89 -36q10 -13 15.5 -29t5.5 -38q0 -14 -2.5 -36.5t-7.5 -47.5q-10 -48 -18 -73.5t-22 -43.5q-9 -12 -20 -20.5t-23 -16.5q22 -14 32 -35t10 -45q0 -17 -4 -42t-10 -57q-8 -37 -14.5 -63.5t-14 -46.5t-17 -34.5
t-22.5 -26.5q-37 -37 -104 -37q-30 0 -54.5 10t-38.5 28q-10 13 -16.5 30t-6.5 41q0 11 1 20.5t4 25.5l7 37h76l-8 -39q-2 -8 -2.5 -16.5t-0.5 -15.5q0 -26 13 -39.5t33 -13.5q27 0 45 18q7 7 12 15.5t10 22t10.5 34t11.5 50.5q8 38 11 61t3 35q0 21 -12 35.5t-35 14.5h-35
l13 66h31q23 0 40 17q7 8 12 16.5t9.5 20t8 27.5t8.5 39q6 29 8.5 45t2.5 31q0 20 -9 32t-32 12t-40.5 -16.5t-25.5 -57.5l-10 -49h-76z" />
    <glyph glyph-name="four" unicode="4" horiz-adv-x="383" 
d="M23 185l276 527h77l-272 -527h103l33 167h76l-34 -167h47l-14 -67h-47l-22 -118h-76l23 118h-184z" />
    <glyph glyph-name="five" unicode="5" horiz-adv-x="383" 
d="M116 179l-7 -32q-2 -9 -3 -18.5t-1 -17.5q0 -21 11.5 -36t34.5 -15q29 0 47 21q7 7 12.5 17t11 26.5t11.5 41.5t14 62q8 44 12 71t4 41q0 23 -9.5 40t-35.5 17q-25 0 -45.5 -20t-28.5 -56l-5 -24h-71l83 415h259l-13 -68h-190l-45 -220q17 18 36 28q24 12 52 12
q26 0 42.5 -8t27.5 -22q21 -27 21 -69q0 -21 -3.5 -52t-14.5 -85q-10 -47 -17.5 -79t-15.5 -53.5t-18 -36.5t-23 -28q-38 -39 -104 -39q-30 0 -54.5 9.5t-38.5 28.5q-11 13 -17 30t-6 40q0 9 1 21.5t3 25.5l7 32h76z" />
    <glyph glyph-name="six" unicode="6" horiz-adv-x="383" 
d="M31 108q0 34 13 105q11 57 28 103t34 77l175 319h82l-167 -295q8 7 22 10.5t26 3.5q46 0 68.5 -29.5t22.5 -73.5q0 -17 -4 -45t-12 -70t-15 -70.5t-15 -48.5t-16.5 -33t-19.5 -24q-21 -22 -47.5 -33.5t-61.5 -11.5q-32 0 -55 11t-36 28q-11 15 -16.5 34.5t-5.5 42.5z
M106 114q0 -23 10 -38.5t35 -15.5q27 0 46 19q15 16 24.5 45t21.5 90q7 32 11 57.5t4 43.5q0 20 -10.5 35t-34.5 15q-27 0 -46 -19q-16 -16 -25.5 -47t-20.5 -85q-7 -33 -11 -59.5t-4 -40.5z" />
    <glyph glyph-name="seven" unicode="7" horiz-adv-x="383" 
d="M335 644h-134l-21 -107h-72l35 175h283l-12 -63l-296 -649h-79z" />
    <glyph glyph-name="eight" unicode="8" horiz-adv-x="383" 
d="M114 533q7 35 13.5 59t14 41t16 29t19.5 23q35 35 97 35q30 0 54 -9t38 -28q11 -13 16.5 -29.5t5.5 -39.5q0 -30 -11 -85q-9 -48 -18 -73t-21 -42q-11 -14 -22.5 -24.5t-25.5 -18.5q17 -11 26 -27q7 -11 9.5 -23.5t2.5 -27.5q0 -32 -12 -95q-8 -40 -15 -67t-14.5 -46
t-16 -31.5t-20.5 -23.5q-39 -38 -104 -38q-31 0 -55.5 10.5t-38.5 28.5q-11 14 -16.5 31t-5.5 40q0 18 2.5 41.5t8.5 54.5q7 34 13 57.5t11.5 39t11 26.5t13.5 20q11 14 22.5 23.5t26.5 17.5q-17 12 -25 30q-9 18 -9 45q0 18 2 35t7 41zM189 531q-10 -49 -10 -71
q0 -23 10 -36q11 -14 32 -14q25 0 41 17q12 12 21 34.5t18 69.5q5 25 8 41t3 28q0 24 -10 38q-11 14 -34 14q-24 0 -40 -17q-12 -12 -20.5 -34.5t-18.5 -69.5zM118 201q-7 -34 -9.5 -54t-2.5 -32q0 -11 2.5 -21.5t8.5 -17.5q8 -9 16 -12.5t20 -3.5q26 0 44 18q7 7 12.5 15.5
t10 22t9.5 34t11 51.5q8 36 11 55.5t3 33.5q0 23 -11 37q-13 16 -36 16q-27 0 -45 -18q-6 -6 -11.5 -14.5t-10.5 -22t-10.5 -34.5t-11.5 -53z" />
    <glyph glyph-name="nine" unicode="9" horiz-adv-x="383" 
d="M390 604q0 -34 -13 -105q-11 -57 -28 -103t-34 -77l-175 -319h-82l167 295q-8 -7 -22 -10.5t-26 -3.5q-46 0 -68.5 29.5t-22.5 73.5q0 17 4 45t12 70t15 70.5t15 48.5t16.5 33t19.5 24q21 22 47.5 33.5t61.5 11.5q32 0 55 -11t36 -28q11 -15 16.5 -34.5t5.5 -42.5z
M315 598q0 23 -10 38.5t-35 15.5q-27 0 -46 -19q-15 -16 -24.5 -45t-21.5 -90q-7 -32 -11 -57.5t-4 -43.5q0 -20 10.5 -35t34.5 -15q27 0 46 19q16 16 25.5 47t20.5 85q7 33 11 59.5t4 40.5z" />
    <glyph glyph-name="colon" unicode=":" horiz-adv-x="228" 
d="M48 98h92l-19 -98h-92zM113 425h92l-19 -98h-92z" />
    <glyph glyph-name="semicolon" unicode=";" horiz-adv-x="228" 
d="M51 99h87l-32 -155l-100 -67zM113 424h92l-19 -98h-92z" />
    <glyph glyph-name="less" unicode="&#x3c;" horiz-adv-x="360" 
d="M45 321l332 183l-19 -97l-229 -123l179 -126l-17 -84l-259 183z" />
    <glyph glyph-name="equal" unicode="=" horiz-adv-x="420" 
d="M39 234h333l-15 -73h-332zM72 395h332l-15 -73h-332z" />
    <glyph glyph-name="greater" unicode="&#x3e;" horiz-adv-x="360" 
d="M328 253l-332 -183l19 97l229 123l-179 126l17 84l259 -183z" />
    <glyph glyph-name="question" unicode="?" horiz-adv-x="377" 
d="M162 270q5 24 14 44.5t35 49.5l70 83q16 18 25.5 39t16.5 52q3 14 4 27.5t1 25.5q0 27 -12 42q-12 17 -42 17q-28 0 -50 -19q-14 -12 -22.5 -33t-14.5 -51h-76q11 52 25 83t38 51q20 17 46.5 27t60.5 10q38 0 62 -11t39 -31q12 -16 17 -33.5t5 -40.5q0 -28 -7 -66
q-8 -42 -21 -69.5t-36 -54.5l-68 -82q-16 -18 -24 -34t-12 -35l-14 -70h-76zM122 98h92l-19 -98h-93z" />
    <glyph glyph-name="at" unicode="@" horiz-adv-x="702" 
d="M230 259q10 49 18 82t15.5 55t16 35.5t19.5 24.5q15 15 33.5 23.5t46.5 8.5q34 0 49 -14q13 -12 20 -25l6 33h68l-78 -389q36 5 65.5 31t51 67t33.5 94t12 112q0 115 -47 175.5t-145 60.5q-50 0 -92 -19t-75.5 -52t-58.5 -78t-41.5 -97t-25 -109t-8.5 -114q0 -77 18 -131
t51.5 -88.5t80.5 -50t105 -15.5h23l-12 -59h-22q-72 0 -129 21t-97.5 64t-62 108.5t-21.5 153.5q0 97 23.5 191t69.5 168.5t115 120.5t159 46q121 0 189.5 -73.5t68.5 -222.5q0 -74 -18 -140t-52 -115t-83 -77.5t-111 -28.5h-42l6 31q-6 -8 -14 -14t-16 -11q-21 -13 -48 -13
q-42 0 -64 27q-10 11 -15 26.5t-5 38.5q0 25 5.5 57.5t14.5 80.5zM300 259q-11 -53 -15.5 -80t-4.5 -41q0 -21 8 -32q5 -7 13.5 -11.5t20.5 -4.5q21 0 37 14q11 9 17 21.5t11 33.5l41 200q1 6 1.5 13.5t0.5 12.5q0 9 -3 18t-9 15q-10 10 -30 10q-24 0 -40 -18
q-13 -14 -23.5 -46.5t-24.5 -104.5z" />
    <glyph glyph-name="A" unicode="A" horiz-adv-x="402" 
d="M265 0l1 169h-158l-68 -169h-86l299 712h80l14 -712h-82zM268 579l-130 -336h127z" />
    <glyph glyph-name="B" unicode="B" horiz-adv-x="420" 
d="M151 712h136q38 0 64.5 -8.5t43.5 -30.5q26 -33 26 -81q0 -14 -1.5 -31t-5.5 -37q-8 -39 -21 -72.5t-39 -56.5q-11 -9 -21 -14.5t-21 -10.5q10 -3 20 -10.5t16 -15.5q21 -28 21 -71q0 -16 -1.5 -34t-6.5 -39q-7 -34 -14 -59t-15.5 -43.5t-19 -32.5t-22.5 -25
q-26 -24 -56.5 -32t-78.5 -8h-146zM164 73q47 0 74 28t42 102q3 17 5 31t2 27q0 74 -74 74h-55l-53 -262h59zM223 405q44 0 70 27t38 89q3 15 5 28t2 26q0 32 -15 48t-51 16h-54l-46 -234h51z" />
    <glyph glyph-name="C" unicode="C" horiz-adv-x="400" 
d="M30 133q0 32 8.5 85.5t25.5 137.5q17 85 30 140t25 89.5t24.5 54.5t29.5 36q23 22 52 33t68 11q72 0 106 -43q13 -17 19.5 -41.5t6.5 -50.5q0 -11 -1 -22t-3 -25h-81q4 23 4 43q0 29 -12.5 47.5t-44.5 18.5q-35 0 -58 -23q-11 -11 -20 -26.5t-18 -44.5t-19.5 -76
t-25.5 -121q-17 -81 -25.5 -136t-8.5 -87q0 -68 59 -68q19 0 33 7t25 19q28 30 39 84h83q-11 -51 -27.5 -85.5t-47.5 -60.5q-21 -18 -48 -27.5t-65 -9.5q-39 0 -65 12t-42 35q-14 20 -20 41.5t-6 52.5z" />
    <glyph glyph-name="D" unicode="D" horiz-adv-x="424" 
d="M174 73q23 0 38.5 7t26.5 20q11 12 20 30.5t18 48t18.5 73t21.5 104.5q16 78 25 132t9 84q0 29 -14 48q-16 19 -48 19h-71l-113 -566h69zM151 712h152q42 0 66 -13t40 -37q24 -34 24 -89q0 -26 -8.5 -80.5t-25.5 -136.5q-16 -79 -28 -131.5t-23.5 -87t-24.5 -55.5
t-30 -37q-48 -45 -124 -45h-160z" />
    <glyph glyph-name="E" unicode="E" horiz-adv-x="359" 
d="M151 712h260l-15 -73h-178l-48 -243h153l-15 -74h-153l-49 -249h177l-14 -73h-260z" />
    <glyph glyph-name="F" unicode="F" 
d="M151 712h260l-15 -73h-178l-49 -245h153l-15 -73h-153l-63 -321h-82z" />
    <glyph glyph-name="G" unicode="G" horiz-adv-x="410" 
d="M348 171q-17 -91 -65 -135t-123 -44q-71 0 -104 47q-14 20 -20 41.5t-6 52.5q0 32 8.5 85.5t25.5 137.5q17 85 30 140t25 89.5t24.5 54.5t29.5 36q23 22 52 33t68 11q72 0 106 -43q13 -17 19.5 -41.5t6.5 -50.5q0 -11 -1 -22t-3 -25h-81q4 23 4 43q0 29 -12.5 47.5
t-44.5 18.5q-34 0 -57 -23q-12 -12 -21 -27.5t-18 -44t-19.5 -75.5t-25.5 -121q-17 -81 -25.5 -136t-8.5 -87q0 -68 57 -68q37 0 62 27t35 75l29 148h-74l13 67h155z" />
    <glyph glyph-name="H" unicode="H" horiz-adv-x="433" 
d="M151 712h82l-63 -313h149l63 313h82l-142 -712h-82l65 325h-149l-65 -325h-82z" />
    <glyph glyph-name="I" unicode="I" horiz-adv-x="202" 
d="M151 712h82l-142 -712h-82z" />
    <glyph glyph-name="J" unicode="J" horiz-adv-x="343" 
d="M34 98q23 -33 60 -33q73 0 96 111l107 536h82l-108 -541q-10 -51 -24.5 -81t-36.5 -52q-26 -26 -55 -36t-64 -10q-47 0 -75.5 16.5t-44.5 42.5z" />
    <glyph glyph-name="K" unicode="K" horiz-adv-x="415" 
d="M151 712h82l-69 -345l225 345h90l-194 -294l72 -418h-82l-57 328l-88 -129l-39 -199h-82z" />
    <glyph glyph-name="L" unicode="L" horiz-adv-x="341" 
d="M151 712h82l-128 -639h178l-14 -73h-260z" />
    <glyph glyph-name="M" unicode="M" horiz-adv-x="544" 
d="M151 712h77l57 -388l213 388h77l-142 -712h-82l99 500l-168 -319h-51l-39 322l-101 -503h-82z" />
    <glyph glyph-name="N" unicode="N" horiz-adv-x="439" 
d="M151 712h71l72 -492l94 492h82l-142 -712h-68l-71 491l-98 -491h-82z" />
    <glyph glyph-name="O" unicode="O" horiz-adv-x="417" 
d="M64 356q17 86 30 140.5t25 89.5t25 55t31 37q45 42 117 42q42 0 68.5 -13t42.5 -38q12 -19 17.5 -38.5t5.5 -48.5q0 -34 -8 -88t-25 -138q-18 -86 -31 -140.5t-25 -89.5t-24.5 -55t-30.5 -37q-45 -42 -117 -42q-42 0 -68.5 13t-42.5 38q-12 19 -18 38.5t-6 48.5
q0 34 8.5 88t25.5 138zM146 356q-17 -81 -25.5 -135.5t-8.5 -85.5q0 -29 13 -49.5t48 -20.5q32 0 55 23q11 10 20 26t18 45t19.5 76t25.5 121q16 81 24.5 135.5t8.5 85.5q0 29 -12.5 49.5t-47.5 20.5q-32 0 -55 -23q-11 -11 -20 -26.5t-18 -44.5t-19.5 -76.5t-25.5 -120.5z
" />
    <glyph glyph-name="P" unicode="P" horiz-adv-x="411" 
d="M151 712h143q38 0 62.5 -8.5t41.5 -25.5t24.5 -41t7.5 -53q0 -17 -1.5 -38t-6.5 -42q-13 -64 -31.5 -104.5t-42.5 -63.5t-54.5 -31.5t-66.5 -8.5h-77l-59 -296h-82zM229 369q21 0 37.5 6t30 21.5t24.5 41.5t19 66q8 37 8 67q0 34 -15 51t-52 17h-63l-54 -270h65z" />
    <glyph glyph-name="Q" unicode="Q" horiz-adv-x="417" 
d="M64 356q17 86 30 140.5t25 89.5t25 55t31 37q45 42 117 42q42 0 68.5 -13t42.5 -38q12 -19 17.5 -38.5t5.5 -48.5q0 -34 -8 -88t-25 -138q-14 -69 -25 -117.5t-20.5 -81.5t-19 -54.5t-21.5 -37.5l41 -44l-45 -45l-40 43q-20 -14 -44.5 -20.5t-53.5 -6.5q-42 0 -68.5 13
t-42.5 38q-12 19 -18 38.5t-6 48.5q0 34 8.5 88t25.5 138zM146 356q-17 -81 -25.5 -135.5t-8.5 -85.5q0 -29 13 -49.5t48 -20.5q20 0 39 11l-39 43l42 43l34 -38q7 12 13.5 29.5t13.5 44.5t15.5 65.5t19.5 92.5q16 81 24.5 135.5t8.5 85.5q0 29 -12.5 49.5t-47.5 20.5
q-32 0 -55 -23q-11 -11 -20 -26.5t-18 -44.5t-19.5 -76.5t-25.5 -120.5z" />
    <glyph glyph-name="R" unicode="R" horiz-adv-x="430" 
d="M151 712h148q71 0 101.5 -33.5t30.5 -90.5q0 -17 -1.5 -36.5t-6.5 -42.5q-10 -47 -21.5 -79.5t-26 -54t-32.5 -34t-39 -20.5l38 -321h-82l-33 306h-75l-61 -306h-82zM235 378q40 0 65.5 29.5t40.5 101.5q7 34 7 63q0 32 -14 49.5t-50 17.5h-66l-52 -261h69z" />
    <glyph glyph-name="S" unicode="S" horiz-adv-x="396" 
d="M103 187q-4 -18 -5 -32t-1 -26q0 -28 12 -43q8 -9 20.5 -15t29.5 -6q37 0 61 24q17 17 25.5 37.5t16.5 59.5q5 23 6.5 38.5t1.5 32.5q0 21 -11 37t-37 28l-65 31q-38 18 -54 43.5t-16 65.5q0 33 8 71q11 52 25.5 85.5t38.5 56.5q22 22 50.5 33.5t66.5 11.5q42 0 66.5 -11
t41.5 -31q12 -15 18.5 -34t6.5 -46q0 -15 -1.5 -32.5t-6.5 -39.5h-81q4 20 5 33.5t1 25.5q0 27 -11 42q-7 8 -17 14t-27 6q-30 0 -55 -23q-16 -14 -24.5 -35.5t-15.5 -55.5q-5 -25 -5 -50q0 -26 11 -40t30 -23l59 -28q47 -23 65.5 -49t18.5 -65q0 -38 -11 -93
q-12 -62 -26.5 -94.5t-38.5 -54.5q-23 -22 -53 -33t-73 -11t-68.5 10.5t-43.5 30.5q-27 30 -27 82q0 16 1.5 32.5t6.5 39.5h81z" />
    <glyph glyph-name="T" unicode="T" horiz-adv-x="347" 
d="M209 639h-113l15 73h307l-15 -73h-112l-128 -639h-82z" />
    <glyph glyph-name="U" unicode="U" horiz-adv-x="421" 
d="M145 712h82l-110 -548q-3 -17 -3 -34q0 -30 15 -47t45 -17q31 0 56 22.5t34 67.5l112 556h82l-112 -557q-9 -46 -24.5 -73.5t-39.5 -48.5q-22 -20 -50.5 -30.5t-69.5 -10.5q-63 0 -101 41q-14 17 -21.5 37.5t-7.5 50.5q0 14 1.5 28t3.5 23z" />
    <glyph glyph-name="V" unicode="V" horiz-adv-x="382" 
d="M95 712h88l-16 -573l214 573h88l-286 -712h-85z" />
    <glyph glyph-name="W" unicode="W" horiz-adv-x="628" 
d="M100 712h87l-41 -575l214 575h89l-9 -575l183 575h86l-249 -712h-90l7 572l-216 -572h-90z" />
    <glyph glyph-name="X" unicode="X" horiz-adv-x="379" 
d="M162 374l-49 338h88l25 -256l127 256h92l-189 -345l58 -367h-88l-34 280l-135 -280h-92z" />
    <glyph glyph-name="Y" unicode="Y" horiz-adv-x="334" 
d="M133 293l-38 419h85l15 -308l135 308h90l-207 -429l-56 -283h-82z" />
    <glyph glyph-name="Z" unicode="Z" horiz-adv-x="330" 
d="M-11 61l301 578h-177l15 73h264l-12 -61l-301 -578h188l-14 -73h-276z" />
    <glyph glyph-name="bracketleft" unicode="[" horiz-adv-x="243" 
d="M160 786h162l-14 -68h-84l-145 -724h84l-13 -68h-162z" />
    <glyph glyph-name="backslash" unicode="\" horiz-adv-x="264" 
d="M106 786h75l17 -860h-75z" />
    <glyph glyph-name="bracketright" unicode="]" horiz-adv-x="243" 
d="M122 -74h-162l14 68h84l145 724h-84l13 68h162z" />
    <glyph glyph-name="asciicircum" unicode="^" horiz-adv-x="419" 
d="M268 717h68l69 -280h-69l-46 202l-126 -202h-78z" />
    <glyph glyph-name="underscore" unicode="_" horiz-adv-x="418" 
d="M350 -83l-12 -60h-417l12 60h417z" />
    <glyph glyph-name="grave" unicode="`" horiz-adv-x="352" 
d="M168 718h66l39 -134h-57z" />
    <glyph glyph-name="a" unicode="a" 
d="M18 32q-16 25 -16 68q0 24 6 50q7 35 23.5 66t41.5 51q20 17 45 24t63 7h54l16 80q4 17 4 31q0 23 -11.5 36t-34.5 13q-25 0 -42 -16q-13 -11 -19 -26.5t-11 -36.5h-76q7 31 19 60.5t38 52.5q39 34 100 34q65 0 92 -36q11 -14 16 -31t5 -43q0 -10 -1.5 -22.5t-3.5 -21.5
l-74 -372h-72l8 43q-7 -9 -15 -17.5t-19 -16.5q-14 -10 -27.5 -13.5t-30.5 -3.5q-27 0 -45.5 9.5t-32.5 30.5zM81 115q0 -26 10.5 -40.5t33.5 -14.5q32 0 52.5 26t27.5 58l19 98h-40q-23 0 -35.5 -4t-26.5 -15q-20 -17 -30.5 -48t-10.5 -60z" />
    <glyph glyph-name="b" unicode="b" horiz-adv-x="364" 
d="M327 259q-11 -56 -20 -94.5t-18 -64.5t-18.5 -42.5t-21.5 -28.5q-19 -18 -40 -27.5t-49 -9.5q-32 0 -52 17q-17 13 -24 30l-8 -39h-73l142 712h76l-46 -228q15 18 30 27q23 15 54 15q50 0 75 -39q16 -26 16 -67q0 -29 -6 -68.5t-17 -92.5zM251 259q11 55 16 89.5t5 54.5
q0 25 -9 39q-13 16 -35 16q-23 0 -43 -17q-22 -19 -31 -63l-47 -238q-3 -18 -3 -29q0 -26 11 -38q12 -13 34 -13q25 0 44 19q18 17 31 62.5t27 117.5z" />
    <glyph glyph-name="c" unicode="c" horiz-adv-x="340" 
d="M38 259q10 49 18.5 85t18 62.5t19.5 44.5t23 32q19 20 44.5 31.5t63.5 11.5q36 0 59 -11.5t36 -32.5q17 -28 17 -67q0 -8 -1 -18.5t-3 -22.5h-75q4 19 4 35q0 11 -2.5 20t-8.5 16q-6 6 -14 9.5t-20 3.5q-27 0 -48 -22q-17 -19 -29 -62t-26 -115q-10 -50 -16.5 -87.5
t-6.5 -58.5q0 -31 16 -44q12 -9 31 -9q11 0 22 3.5t20 11.5q14 13 21 29t12 40h76q-10 -42 -22 -67.5t-29 -42.5q-20 -20 -45.5 -31t-62.5 -11q-60 0 -90 38q-23 27 -23 80q0 44 21 149z" />
    <glyph glyph-name="d" unicode="d" horiz-adv-x="364" 
d="M37 259q11 55 20.5 93.5t18.5 65t18.5 43t21.5 28.5q18 17 39 27t50 10q18 0 31 -5t21 -12q15 -14 22 -27l46 230h76l-142 -712h-73l7 37q-6 -8 -16 -16.5t-18 -13.5q-23 -15 -53 -15q-24 0 -43.5 9t-32.5 29q-8 14 -12 30t-4 38q0 28 6 67.5t17 93.5zM113 259
q-11 -55 -16 -89.5t-5 -54.5q0 -26 10 -39q11 -16 34 -16q26 0 43 16q11 11 19 26t13 38l47 238q3 16 3 29q0 24 -12 38q-12 13 -33 13q-23 0 -45 -19q-17 -17 -30 -62.5t-28 -117.5z" />
    <glyph glyph-name="e" unicode="e" horiz-adv-x="349" 
d="M32 40q-15 28 -15 70q0 24 6.5 65.5t14.5 83.5q18 92 36 145t43 79q20 21 46 32t63 11q35 0 57 -12t34 -30q18 -27 18 -75q0 -32 -6.5 -73t-17.5 -95h-201q-8 -45 -13 -77t-5 -50q0 -26 12 -41q11 -13 33 -13q12 0 24 4t21 12q22 20 32 68h76q-9 -41 -20.5 -65.5
t-32.5 -45.5q-41 -41 -107 -41q-70 0 -98 48zM247 300q8 35 11 61t3 43q0 25 -10.5 39.5t-34.5 14.5q-12 0 -24 -5t-22 -17q-15 -17 -25 -47t-22 -89h124z" />
    <glyph glyph-name="f" unicode="f" horiz-adv-x="238" 
d="M111 459h-54l11 59h55l10 50q8 42 22.5 70t40.5 47q22 16 47.5 23t70.5 7l-14 -67q-39 0 -61.5 -21t-30.5 -62l-9 -47h75l-11 -59h-76l-91 -459h-76z" />
    <glyph glyph-name="g" unicode="g" horiz-adv-x="364" 
d="M39 267q11 54 20 90.5t17.5 62t18 41.5t21.5 28q18 17 39 27t50 10q32 0 52 -17q8 -7 13.5 -14.5t10.5 -16.5l8 40h73l-107 -536q-11 -57 -24 -90t-38 -55q-17 -15 -41.5 -25t-61.5 -10q-51 0 -82.5 29t-31.5 79q0 10 1 18t3 22h75q-2 -12 -2.5 -18.5t-0.5 -13.5
q0 -22 12 -35t35 -13q12 0 23.5 3.5t21.5 13.5q7 7 11 13.5t8 17t7.5 26.5t8.5 40l14 65q-14 -17 -31 -27q-11 -6 -24 -10t-29 -4q-24 0 -43.5 9t-32.5 29q-8 14 -12 30t-4 38q0 28 5.5 64.5t16.5 88.5zM115 267q-11 -52 -15.5 -84t-4.5 -53q0 -14 2.5 -22.5t7.5 -15.5
q6 -8 15 -12.5t21 -4.5q22 0 42 17q22 21 31 64l44 222q3 16 3 29q0 23 -12 37q-11 14 -33 14q-23 0 -45 -19q-17 -17 -29 -57.5t-27 -114.5z" />
    <glyph glyph-name="h" unicode="h" horiz-adv-x="372" 
d="M145 712h76l-46 -230q14 18 31 29q11 7 24 11t31 4q32 0 49 -12t27 -28q8 -13 11.5 -27.5t3.5 -32.5t-7 -52l-74 -374h-76l74 374q2 11 3 20.5t1 15.5q0 19 -11 33.5t-35 14.5q-23 0 -44 -18t-30 -66l-74 -374h-76z" />
    <glyph glyph-name="i" unicode="i" horiz-adv-x="183" 
d="M106 518h76l-103 -518h-76zM137 696h85l-18 -87h-85z" />
    <glyph glyph-name="j" unicode="j" horiz-adv-x="183" 
d="M106 518h76l-113 -565q-9 -45 -23 -71t-40 -46q-13 -10 -25.5 -16t-26 -9t-29.5 -4t-35 -1l14 67q38 1 59.5 21.5t30.5 64.5zM137 696h85l-18 -87h-85z" />
    <glyph glyph-name="k" unicode="k" horiz-adv-x="374" 
d="M145 712h76l-87 -434l183 240h85l-159 -206l66 -312h-76l-52 246l-72 -93l-30 -153h-76z" />
    <glyph glyph-name="l" unicode="l" horiz-adv-x="214" 
d="M49 34q-25 28 -25 72q0 17 4 40l113 566h76l-112 -561q-3 -18 -3 -32q0 -24 14.5 -37.5t44.5 -13.5l-13 -68q-38 0 -62 10t-37 24z" />
    <glyph glyph-name="m" unicode="m" horiz-adv-x="565" 
d="M106 518h74l-8 -39q16 20 35 32q11 7 24 11t30 4q30 0 51.5 -13.5t32.5 -42.5q21 25 49 41q27 15 60 15q32 0 49 -12t27 -28q8 -13 11.5 -27.5t3.5 -32.5q0 -14 -8 -52l-74 -374h-76l74 374l3 21q2 9 2 15q0 19 -11 33.5t-35 14.5q-23 0 -44 -17.5t-31 -66.5l-74 -374
h-76l74 374q2 10 3 20t1 16q0 19 -10.5 33.5t-34.5 14.5q-23 0 -44 -18t-31 -66l-74 -374h-76z" />
    <glyph glyph-name="n" unicode="n" horiz-adv-x="372" 
d="M106 518h73l-8 -39q16 20 35 32q11 7 24 11t31 4q32 0 49 -12t27 -28q8 -13 11.5 -27.5t3.5 -32.5t-7 -52l-74 -374h-76l74 374q2 11 3 20.5t1 15.5q0 19 -11 33.5t-35 14.5q-23 0 -44 -18t-30 -66l-74 -374h-76z" />
    <glyph glyph-name="o" unicode="o" 
d="M239 259q10 50 16 87.5t6 57.5q0 25 -10 39q-12 15 -34 15q-29 0 -47 -21q-17 -19 -29 -60.5t-27 -117.5q-10 -50 -16 -87.5t-6 -57.5q0 -25 10 -39q12 -15 34 -15q29 0 47 21q17 19 29 60.5t27 117.5zM38 259q10 53 19.5 90t18.5 62.5t19 42t23 30.5q18 20 44 31t62 11
q69 0 96 -47q8 -14 11.5 -31t3.5 -42q0 -23 -4.5 -58.5t-15.5 -88.5t-20 -89.5t-18 -62t-19 -43t-23 -30.5q-18 -20 -44 -31t-62 -11q-69 0 -96 47q-8 14 -11.5 31t-3.5 42q0 23 4.5 58.5t15.5 88.5z" />
    <glyph glyph-name="p" unicode="p" horiz-adv-x="364" 
d="M327 259q-11 -56 -20 -94.5t-18 -65t-18.5 -42.5t-21.5 -28q-19 -18 -40 -27.5t-50 -9.5q-34 0 -51 17q-14 11 -22 27l-46 -230h-76l142 712h73l-7 -37q6 8 15.5 16.5t17.5 13.5q23 15 54 15q50 0 75 -39q16 -26 16 -67q0 -29 -6 -68t-17 -93zM251 259q11 55 16 89.5
t5 54.5q0 25 -9 39q-13 16 -35 16q-23 0 -43 -17q-22 -19 -31 -63l-47 -238q-3 -18 -3 -29q0 -26 11 -38q12 -13 34 -13q25 0 44 19q18 17 31 62.5t27 117.5z" />
    <glyph glyph-name="q" unicode="q" horiz-adv-x="364" 
d="M37 259q11 56 20.5 94.5t18.5 64.5t18.5 42.5t21.5 28.5q18 17 39 27t50 10q32 0 52 -17q8 -7 13.5 -14.5t10.5 -16.5l8 40h73l-142 -712h-76l45 227q-13 -16 -30 -26q-23 -15 -53 -15q-24 0 -43.5 9t-32.5 29q-8 14 -12 30t-4 38q0 28 6 67.5t17 93.5zM113 259
q-11 -55 -16 -89.5t-5 -54.5q0 -26 10 -39q11 -16 34 -16q26 0 43 16q11 11 19 26t13 38l47 238q3 16 3 29q0 24 -12 38q-12 13 -33 13q-23 0 -45 -19q-17 -17 -30 -62.5t-28 -117.5z" />
    <glyph glyph-name="r" unicode="r" horiz-adv-x="256" 
d="M106 518h73l-11 -55q16 26 45 44q32 19 81 19l-14 -73h-23q-39 0 -69 -26.5t-39 -72.5l-70 -354h-76z" />
    <glyph glyph-name="s" unicode="s" horiz-adv-x="336" 
d="M26 31q-14 14 -19.5 33t-5.5 42q0 19 4 39h75q-3 -17 -3 -29q0 -25 12 -38q15 -18 43 -18q31 0 51 20q14 14 20.5 33t6.5 41q0 20 -9 37t-35 34l-47 30q-35 23 -49.5 47.5t-14.5 57.5q0 37 13 71.5t42 60.5q40 34 101 34q34 0 58 -10.5t38 -29.5q22 -28 22 -69
q0 -10 -1.5 -20t-3.5 -21h-73q4 17 4 30q0 21 -12 36q-13 16 -40 16t-45 -17q-27 -24 -27 -68q0 -38 37 -60l48 -29q38 -23 54 -51.5t16 -66.5q0 -45 -15.5 -80.5t-40.5 -56.5q-22 -20 -48 -28.5t-58 -8.5q-64 0 -98 39z" />
    <glyph glyph-name="t" unicode="t" horiz-adv-x="244" 
d="M45 107q0 20 5 45l62 307h-55l11 59h55l28 141h76l-28 -141h76l-12 -59h-75l-61 -304q-2 -10 -3 -18.5t-1 -16.5q0 -52 64 -52l-13 -68q-38 0 -63.5 8.5t-40.5 25.5q-13 15 -19 31.5t-6 41.5z" />
    <glyph glyph-name="u" unicode="u" horiz-adv-x="371" 
d="M267 0h-73l8 39q-16 -20 -35 -32q-11 -7 -24 -11t-31 -4q-32 0 -49 12t-27 28q-8 13 -11.5 27.5t-3.5 32.5t7 52l74 374h76l-74 -374q-2 -11 -3 -20.5t-1 -15.5q0 -19 11 -33.5t35 -14.5q23 0 44 18t30 66l74 374h76z" />
    <glyph glyph-name="v" unicode="v" horiz-adv-x="323" 
d="M56 518h80l-2 -393l157 393h80l-221 -518h-79z" />
    <glyph glyph-name="w" unicode="w" horiz-adv-x="509" 
d="M62 518h78l-20 -391l154 391h64l-3 -391l136 391h80l-203 -518h-71l3 383l-151 -383h-73z" />
    <glyph glyph-name="x" unicode="x" horiz-adv-x="335" 
d="M124 266l-54 252h80l32 -184l104 184h83l-159 -259l62 -259h-80l-37 189l-106 -189h-83z" />
    <glyph glyph-name="y" unicode="y" horiz-adv-x="324" 
d="M-57 -127q34 1 57 15.5t36 40.5l35 72l-15 517h79l-1 -396l155 396h86l-259 -601q-15 -36 -34 -57.5t-41.5 -33.5t-50.5 -16t-61 -4z" />
    <glyph glyph-name="z" unicode="z" horiz-adv-x="287" 
d="M-19 56l229 394h-145l14 68h232l-11 -56l-232 -394h158l-13 -68h-243z" />
    <glyph glyph-name="braceleft" unicode="{" horiz-adv-x="292" 
d="M64 28q0 8 1 16t4 23l34 171q2 11 4 21.5t2 18.5q0 22 -12 34.5t-35 12.5h-21l13 67h22q29 0 47 20t29 73l34 166q8 40 19 64.5t31 41.5q19 17 43 23t55 6h37l-14 -68h-18q-31 0 -51 -19t-30 -68l-33 -169q-8 -39 -18.5 -57t-24.5 -31q-13 -12 -37 -18q18 -8 27 -20
q8 -10 11 -22.5t3 -25.5q0 -8 -1 -18t-4 -26l-33 -166q-2 -7 -3.5 -17.5t-1.5 -18.5q0 -26 12.5 -37t35.5 -11h21l-13 -68h-29q-30 0 -51.5 10t-33.5 26q-11 13 -16 28t-5 38z" />
    <glyph glyph-name="bar" unicode="|" horiz-adv-x="272" 
d="M204 786h76l-172 -860h-76z" />
    <glyph glyph-name="braceright" unicode="}" horiz-adv-x="292" 
d="M268 684q0 -8 -1 -16t-4 -23l-34 -171q-2 -11 -4 -21.5t-2 -18.5q0 -22 12 -34.5t35 -12.5h21l-13 -67h-22q-29 0 -47 -20t-29 -73l-34 -166q-8 -40 -19 -64.5t-31 -41.5q-19 -17 -43 -23t-55 -6h-37l14 68h18q31 0 51 19t30 68l33 169q8 39 18.5 57t24.5 31q13 12 37 18
q-18 8 -27 20q-8 10 -11 22.5t-3 25.5q0 8 1 18t4 26l33 166q2 7 3.5 17.5t1.5 18.5q0 26 -12.5 37t-35.5 11h-21l13 68h29q30 0 51.5 -10t33.5 -26q11 -13 16 -28t5 -38z" />
    <glyph glyph-name="asciitilde" unicode="~" horiz-adv-x="418" 
d="M34 282q39 35 64.5 47.5t53.5 12.5q22 0 38.5 -6.5t37.5 -18.5q14 -8 26 -14t29 -6t32.5 7.5t39.5 30.5l41 -52q-36 -32 -62.5 -45.5t-55.5 -13.5q-22 0 -38.5 7.5t-36.5 18.5q-17 11 -28.5 15.5t-26.5 4.5q-17 0 -34 -8.5t-40 -31.5z" />
    <glyph glyph-name="uni00A0" unicode="&#xa0;" horiz-adv-x="176" 
 />
    <glyph glyph-name="exclamdown" unicode="&#xa1;" horiz-adv-x="228" 
d="M53 -195h-84l106 522h76zM179 419h-92l20 98h92z" />
    <glyph glyph-name="cent" unicode="&#xa2;" horiz-adv-x="345" 
d="M62 360q9 45 17 79.5t17 60t19 43t22 30.5q17 17 36.5 26.5t47.5 12.5l19 100h61l-20 -100q19 -3 33 -12t22 -20q22 -29 22 -74q0 -17 -3 -36h-75q3 12 3 27q0 21 -9 34q-3 4 -6.5 7t-8.5 5l-71 -365q12 5 20 13q13 12 19 26t10 33h75q-11 -42 -23.5 -67.5t-32.5 -42.5
q-30 -27 -76 -33l-21 -107h-61l21 108q-37 7 -59 40q-8 14 -13 31t-5 40q0 27 5.5 61.5t14.5 79.5zM126 190q6 -10 18 -14l71 367q-15 -7 -25 -18q-17 -20 -28 -59t-25 -106q-9 -44 -14.5 -78t-5.5 -55q0 -24 9 -37z" />
    <glyph glyph-name="sterling" unicode="&#xa3;" horiz-adv-x="404" 
d="M147 539q10 50 25.5 82t38.5 54q26 25 56 35t65 10q47 0 74.5 -16t45.5 -43l-65 -48q-12 17 -26 25.5t-34 8.5q-77 0 -99 -114l-27 -134h80l-12 -60h-80l-52 -266h200l-15 -73h-282l67 339h-60l12 60h60z" />
    <glyph glyph-name="currency" unicode="&#xa4;" horiz-adv-x="462" 
d="M341 278q0 45 -30.5 75.5t-75.5 30.5t-75.5 -30.5t-30.5 -75.5t30.5 -75.5t75.5 -30.5t75.5 30.5t30.5 75.5zM62 278q0 26 8 51t22 45l-57 56l48 48l57 -56q20 14 44.5 21.5t50.5 7.5t50.5 -7.5t44.5 -21.5l57 56l48 -48l-57 -56q14 -20 22 -45t8 -51t-8 -51t-22 -45
l57 -56l-48 -48l-57 56q-20 -14 -44.5 -21.5t-50.5 -7.5t-50.5 7.5t-44.5 21.5l-57 -56l-48 48l57 56q-14 20 -22 45t-8 51z" />
    <glyph glyph-name="yen" unicode="&#xa5;" horiz-adv-x="331" 
d="M113 192h-84l11 59h84l9 42l-5 48h-70l12 59h53l-28 312h85l15 -308l135 308h90l-151 -312h48l-12 -59h-64l-28 -58l-7 -32h81l-12 -59h-80l-38 -192h-82z" />
    <glyph glyph-name="brokenbar" unicode="&#xa6;" horiz-adv-x="272" 
d="M102 275h76l-70 -349h-76zM204 786h76l-70 -349h-76z" />
    <glyph glyph-name="section" unicode="&#xa7;" horiz-adv-x="385" 
d="M52 271q12 62 25 93t33 51t58 31q-25 19 -38 41.5t-13 54.5q0 39 12.5 73.5t41.5 60.5q23 20 47.5 28t54.5 8q37 0 60 -10.5t35 -26.5q23 -30 23 -71q0 -16 -4 -32h-73q1 5 1.5 10.5t0.5 10.5q0 22 -11 36q-5 7 -14 11t-23 4q-12 0 -23 -3.5t-21 -12.5q-15 -14 -21 -32
t-6 -39q0 -20 9.5 -36t33.5 -30l47 -27q27 -16 42 -36q11 -17 16.5 -33t5.5 -36q0 -17 -3.5 -37t-9.5 -51q-6 -30 -12 -52.5t-12.5 -39.5t-14.5 -29t-17 -22q-11 -13 -26 -21t-33 -14q24 -18 37 -39.5t13 -59.5q0 -42 -13 -77.5t-40 -58.5q-22 -19 -47.5 -28.5t-60.5 -9.5
q-37 0 -60 10.5t-37 25.5q-13 14 -19 33.5t-6 40.5q0 13 3 33h76q-2 -7 -2 -12v-12q0 -10 2.5 -19t8.5 -16q13 -16 41 -16t49 18q14 13 19.5 32.5t5.5 41.5t-10.5 37.5t-28.5 26.5l-53 32q-11 6 -23 16.5t-20 20.5q-8 12 -13.5 29.5t-5.5 37.5q0 17 3.5 39.5t9.5 51.5z
M128 271q-5 -26 -8 -44.5t-3 -31.5q0 -23 11 -39q15 -18 41 -18q29 0 50 21q17 17 26 42t17 70q5 26 8 44.5t3 31.5q0 23 -11 37q-13 19 -41 19q-27 0 -49 -20q-17 -15 -26 -39.5t-18 -72.5z" />
    <glyph glyph-name="dieresis" unicode="&#xa8;" 
d="M149 678h76l-16 -80h-76zM296 678h76l-16 -80h-76z" />
    <glyph glyph-name="copyright" unicode="&#xa9;" horiz-adv-x="802" 
d="M318 356q0 35 1 61.5t4 47t9 35.5t15 26q27 32 72 32q42 0 67 -26q14 -14 21 -36.5t9 -48.5h-51q-1 14 -3.5 28.5t-9.5 22.5q-12 14 -33 14q-13 0 -21 -5t-13 -12q-11 -15 -13.5 -49t-2.5 -90t2.5 -90t13.5 -49q5 -7 13 -12t21 -5q21 0 33 14q7 8 9.5 22.5t3.5 28.5h51
q-2 -26 -9 -48.5t-21 -36.5q-25 -26 -67 -26q-45 0 -72 32q-19 22 -24 61t-5 109zM715 356q0 63 -23 118t-63 95.5t-94 63.5t-116 23t-116 -23t-94 -63.5t-63 -95.5t-23 -118t23 -118t63 -95.5t94 -63.5t116 -23t116 23t94 63.5t63 95.5t23 118zM69 356q0 72 27.5 136
t75 112t111.5 75.5t136 27.5t136 -27.5t111.5 -75.5t75 -112t27.5 -136t-27.5 -136t-75 -112t-111.5 -75.5t-136 -27.5t-136 27.5t-111.5 75.5t-75 112t-27.5 136z" />
    <glyph glyph-name="ordfeminine" unicode="&#xaa;" horiz-adv-x="295" 
d="M56 390q0 39 13.5 72.5t40.5 54.5q17 14 38 19.5t53 5.5h44l10 52q2 6 3 15t1 16q0 16 -8.5 26.5t-28.5 10.5q-21 0 -34 -13q-11 -9 -15.5 -21.5t-7.5 -28.5h-64q5 24 14.5 49t31.5 43q18 16 38 21.5t44 5.5q50 0 73 -26q10 -11 15.5 -25t5.5 -37q0 -10 -1.5 -22
t-3.5 -20l-56 -279h-60l7 33q-17 -18 -29 -25q-18 -12 -44 -12q-45 0 -66 32q-14 20 -14 53zM122 406q0 -20 8.5 -32.5t30.5 -12.5q23 0 39.5 19.5t22.5 48.5l13 67h-30q-19 0 -30.5 -3t-22.5 -11q-16 -12 -23.5 -33t-7.5 -43z" />
    <glyph glyph-name="guillemotleft" unicode="&#xab;" horiz-adv-x="371" 
d="M28 272l186 230l-26 -128l-89 -108l46 -107l-24 -117zM186 272l186 230l-26 -128l-89 -108l46 -107l-24 -117z" />
    <glyph glyph-name="logicalnot" unicode="&#xac;" horiz-adv-x="420" 
d="M63 331h326l-37 -185h-74l23 112h-253z" />
    <glyph glyph-name="uni00AD" unicode="&#xad;" horiz-adv-x="273" 
d="M57 319h185l-15 -73h-185z" />
    <glyph glyph-name="registered" unicode="&#xae;" horiz-adv-x="802" 
d="M521 441q0 -32 -5 -51.5t-21 -36.5q-8 -8 -20 -14l58 -179h-53l-52 167h-50v-167h-51v395h100q42 0 68 -24q16 -16 21 -37.5t5 -52.5zM470 441q0 20 -2.5 33t-10.5 22q-11 11 -29 11h-50v-133h50q18 0 29 12q8 8 10.5 21.5t2.5 33.5zM715 356q0 63 -23 118t-63 95.5
t-94 63.5t-116 23t-116 -23t-94 -63.5t-63 -95.5t-23 -118t23 -118t63 -95.5t94 -63.5t116 -23t116 23t94 63.5t63 95.5t23 118zM69 356q0 72 27.5 136t75 112t111.5 75.5t136 27.5t136 -27.5t111.5 -75.5t75 -112t27.5 -136t-27.5 -136t-75 -112t-111.5 -75.5t-136 -27.5
t-136 27.5t-111.5 75.5t-75 112t-27.5 136z" />
    <glyph glyph-name="macron" unicode="&#xaf;" 
d="M147 662h214l-11 -54h-214z" />
    <glyph glyph-name="degree" unicode="&#xb0;" horiz-adv-x="373" 
d="M396 575q0 -30 -11.5 -57t-31 -46.5t-46.5 -31t-57 -11.5t-57 11.5t-46.5 31t-31 46.5t-11.5 57t11.5 57t31 46.5t46.5 31t57 11.5t57 -11.5t46.5 -31t31 -46.5t11.5 -57zM328 575q0 34 -22 57.5t-56 23.5t-56 -23.5t-22 -57.5t22 -57t56 -23t56 23t22 57z" />
    <glyph glyph-name="plusminus" unicode="&#xb1;" horiz-adv-x="420" 
d="M181 302h-129l15 73h129l27 139h74l-27 -139h129l-15 -73h-129l-28 -139h-74zM12 97h332l-14 -74h-333z" />
    <glyph glyph-name="twosuperior" unicode="&#xb2;" horiz-adv-x="298" 
d="M72 327l151 217q20 29 30 51t10 41q0 34 -32 34q-17 0 -28.5 -10.5t-16.5 -33.5l-6 -31h-53l6 29q10 54 40 75q24 18 62 18q23 0 37 -6t24 -16q10 -11 15 -23.5t5 -30.5v-10q0 -4 -1 -9q-5 -25 -15 -45.5t-32 -51.5l-136 -193h129l-9 -47h-188z" />
    <glyph glyph-name="threesuperior" unicode="&#xb3;" horiz-adv-x="298" 
d="M131 625q5 25 14 43t26 31q22 18 63 18q42 0 62 -23q8 -8 11.5 -20t3.5 -32q0 -16 -6 -43q-5 -25 -10 -38t-14 -25q-5 -8 -13 -13.5t-16 -10.5q14 -8 22 -20.5t8 -33.5q0 -11 -2 -22t-6 -30q-9 -44 -17.5 -66.5t-25.5 -36.5q-13 -11 -30 -17t-41 -6q-20 0 -37.5 6
t-28.5 19q-16 19 -16 46q0 14 3 29l5 25h53l-5 -27q-1 -5 -1.5 -10.5t-0.5 -9.5q0 -16 9 -23.5t23 -7.5q18 0 31 11q8 8 13.5 21t13.5 47q5 22 6 34.5t1 18.5q0 14 -8.5 22.5t-24.5 8.5h-25l10 43h21q8 0 15 3t12 8q9 8 13.5 18t9.5 36q6 27 6 39q0 17 -6 25t-23 8
q-35 0 -44 -43l-6 -32h-53z" />
    <glyph glyph-name="acute" unicode="&#xb4;" horiz-adv-x="352" 
d="M299 717h72l-102 -134h-63z" />
    <glyph glyph-name="mu" unicode="&#xb5;" horiz-adv-x="371" 
d="M102 518h76l-74 -374q-3 -15 -4 -23t-1 -13q0 -26 14.5 -37.5t29.5 -11.5q24 0 45 18t31 67l75 374h76l-103 -518h-73l7 39q-8 -11 -16.5 -18.5t-18.5 -14.5q-9 -6 -20.5 -9.5t-28.5 -3.5q-25 0 -44 14l-40 -202h-74z" />
    <glyph glyph-name="paragraph" unicode="&#xb6;" horiz-adv-x="535" 
d="M232 297h-40q-58 0 -92 32t-34 98q0 17 3 37t8 43q12 61 28 100.5t38 63t50.5 32.5t64.5 9h314l-181 -907h-76l167 834h-104l-168 -834h-76z" />
    <glyph glyph-name="periodcentered" unicode="&#xb7;" horiz-adv-x="250" 
d="M81 369h132l-26 -131h-132z" />
    <glyph glyph-name="cedilla" unicode="&#xb8;" 
d="M100 -38h55l-73 -142h-65z" />
    <glyph glyph-name="onesuperior" unicode="&#xb9;" horiz-adv-x="298" 
d="M211 648l-71 -50l12 63l74 51h51l-85 -427h-53z" />
    <glyph glyph-name="ordmasculine" unicode="&#xba;" horiz-adv-x="295" 
d="M85 509q8 38 15 66t14.5 48t15 34t16.5 24q17 18 36.5 26.5t51.5 8.5q29 0 46 -8.5t26 -19.5q11 -12 15.5 -29t4.5 -36q0 -22 -4 -49t-12 -65t-15 -66.5t-14.5 -48.5t-15 -34t-16.5 -24q-17 -18 -36.5 -26.5t-51.5 -8.5q-29 0 -45.5 8.5t-26.5 19.5q-11 12 -15.5 29
t-4.5 37q0 21 4 48.5t12 65.5zM149 509q-8 -36 -12 -63t-4 -45q0 -20 8 -31.5t27 -11.5q22 0 36 18q13 14 22 45t20 88q8 35 12 62t4 45q0 20 -8 31.5t-26 11.5q-23 0 -37 -17q-12 -14 -21.5 -45.5t-20.5 -87.5z" />
    <glyph glyph-name="guillemotright" unicode="&#xbb;" horiz-adv-x="371" 
d="M349 272l-187 -230l26 128l90 108l-47 107l24 117zM190 272l-186 -230l26 128l89 108l-46 107l23 117z" />
    <glyph glyph-name="onequarter" unicode="&#xbc;" horiz-adv-x="705" 
d="M211 648l-71 -50l12 63l74 51h51l-85 -427h-53zM533 712h57l-377 -712h-57zM422 115l175 312h54l-172 -311h69l18 90h53l-18 -90h32l-10 -47h-31l-14 -69h-53l14 69h-127z" />
    <glyph glyph-name="onehalf" unicode="&#xbd;" horiz-adv-x="705" 
d="M211 648l-71 -50l12 63l74 51h51l-85 -427h-53zM533 712h57l-377 -712h-57zM422 42l151 217q20 29 30 51t10 41q0 34 -32 34q-17 0 -28.5 -10.5t-16.5 -33.5l-6 -31h-53l6 29q10 54 40 75q24 18 62 18q23 0 37 -6t24 -16q10 -11 15 -23.5t5 -30.5v-10q0 -4 -1 -9
q-5 -25 -15 -45.5t-32 -51.5l-136 -193h129l-9 -47h-188z" />
    <glyph glyph-name="threequarters" unicode="&#xbe;" horiz-adv-x="705" 
d="M131 625q5 25 14 43t26 31q22 18 63 18q42 0 62 -23q8 -8 11.5 -20t3.5 -32q0 -16 -6 -43q-5 -25 -10 -38t-14 -25q-5 -8 -13 -13.5t-16 -10.5q14 -8 22 -20.5t8 -33.5q0 -11 -2 -22t-6 -30q-9 -44 -17.5 -66.5t-25.5 -36.5q-13 -11 -30 -17t-41 -6q-20 0 -37.5 6
t-28.5 19q-16 19 -16 46q0 14 3 29l5 25h53l-5 -27q-1 -5 -1.5 -10.5t-0.5 -9.5q0 -16 9 -23.5t23 -7.5q18 0 31 11q8 8 13.5 21t13.5 47q5 22 6 34.5t1 18.5q0 14 -8.5 22.5t-24.5 8.5h-25l10 43h21q8 0 15 3t12 8q9 8 13.5 18t9.5 36q6 27 6 39q0 17 -6 25t-23 8
q-35 0 -44 -43l-6 -32h-53zM533 712h57l-377 -712h-57zM422 115l175 312h54l-172 -311h69l18 90h53l-18 -90h32l-10 -47h-31l-14 -69h-53l14 69h-127z" />
    <glyph glyph-name="questiondown" unicode="&#xbf;" horiz-adv-x="377" 
d="M213 247q-5 -24 -14 -44.5t-35 -49.5l-70 -83q-16 -18 -25.5 -39t-16.5 -52q-3 -14 -4 -27.5t-1 -25.5q0 -27 12 -42q12 -17 42 -17q28 0 50 19q14 12 22.5 33t14.5 51h76q-11 -52 -25 -83t-38 -51q-20 -17 -46.5 -27t-60.5 -10q-38 0 -62 11t-39 31q-12 16 -17 33.5
t-5 40.5q0 28 7 66q8 42 21 69.5t36 54.5l68 82q16 18 24 34t12 35l14 70h76zM253 419h-92l19 98h93z" />
    <glyph glyph-name="Agrave" unicode="&#xc0;" horiz-adv-x="402" 
d="M265 0l1 169h-158l-68 -169h-86l299 712h80l14 -712h-82zM268 579l-130 -336h127zM228 894h66l39 -134h-57z" />
    <glyph glyph-name="Aacute" unicode="&#xc1;" horiz-adv-x="402" 
d="M265 0l1 169h-158l-68 -169h-86l299 712h80l14 -712h-82zM268 579l-130 -336h127zM359 892h72l-102 -134h-63z" />
    <glyph glyph-name="Acircumflex" unicode="&#xc2;" horiz-adv-x="402" 
d="M265 0l1 169h-158l-68 -169h-86l299 712h80l14 -712h-82zM268 579l-130 -336h127zM418 758h-58l-39 88l-74 -88h-64l114 134h61z" />
    <glyph glyph-name="Atilde" unicode="&#xc3;" horiz-adv-x="402" 
d="M265 0l1 169h-158l-68 -169h-86l299 712h80l14 -712h-82zM268 579l-130 -336h127zM186 817q24 21 41.5 29.5t36.5 8.5q18 0 29 -4t25 -13q11 -8 20 -11.5t21 -3.5q14 0 24 5.5t23 18.5l30 -38q-25 -22 -42 -30.5t-37 -8.5q-17 0 -28 4t-25 13q-11 8 -20 11.5t-22 3.5
q-14 0 -23.5 -5.5t-23.5 -18.5z" />
    <glyph glyph-name="Adieresis" unicode="&#xc4;" horiz-adv-x="402" 
d="M265 0l1 169h-158l-68 -169h-86l299 712h80l14 -712h-82zM268 579l-130 -336h127zM207 853h76l-16 -80h-76zM354 853h76l-16 -80h-76z" />
    <glyph glyph-name="Aring" unicode="&#xc5;" horiz-adv-x="402" 
d="M265 0l1 169h-158l-68 -169h-86l299 712h80l14 -712h-82zM268 579l-130 -336h127zM214 848q0 20 7.5 37.5t20.5 31t30.5 21t37.5 7.5t37.5 -7.5t31 -21t21 -31t7.5 -37.5t-7.5 -37.5t-21 -30.5t-31 -20.5t-37.5 -7.5q-40 0 -68 28t-28 68zM260 848q0 -22 14 -37t36 -15
t36 15t14 37t-14 37t-36 15t-36 -15t-14 -37z" />
    <glyph glyph-name="AE" unicode="&#xc6;" horiz-adv-x="605" 
d="M343 712h314l-15 -73h-178l-48 -243h153l-15 -74h-153l-49 -249h177l-14 -73h-260l35 174h-154l-93 -174h-90zM304 247l79 394l-208 -394h129z" />
    <glyph glyph-name="Ccedilla" unicode="&#xc7;" horiz-adv-x="400" 
d="M30 133q0 32 8.5 85.5t25.5 137.5q17 85 30 140t25 89.5t24.5 54.5t29.5 36q23 22 52 33t68 11q72 0 106 -43q13 -17 19.5 -41.5t6.5 -50.5q0 -11 -1 -22t-3 -25h-81q4 23 4 43q0 29 -12.5 47.5t-44.5 18.5q-35 0 -58 -23q-11 -11 -20 -26.5t-18 -44.5t-19.5 -76
t-25.5 -121q-17 -81 -25.5 -136t-8.5 -87q0 -68 59 -68q19 0 33 7t25 19q28 30 39 84h83q-11 -51 -27.5 -85.5t-47.5 -60.5q-21 -18 -48 -27.5t-65 -9.5q-39 0 -65 12t-42 35q-14 20 -20 41.5t-6 52.5zM126 -38h55l-73 -142h-65z" />
    <glyph glyph-name="Egrave" unicode="&#xc8;" horiz-adv-x="359" 
d="M151 712h260l-15 -73h-178l-48 -243h153l-15 -74h-153l-49 -249h177l-14 -73h-260zM220 894h66l39 -134h-57z" />
    <glyph glyph-name="Eacute" unicode="&#xc9;" horiz-adv-x="359" 
d="M151 712h260l-15 -73h-178l-48 -243h153l-15 -74h-153l-49 -249h177l-14 -73h-260zM351 892h72l-102 -134h-63z" />
    <glyph glyph-name="Ecircumflex" unicode="&#xca;" horiz-adv-x="359" 
d="M151 712h260l-15 -73h-178l-48 -243h153l-15 -74h-153l-49 -249h177l-14 -73h-260zM410 758h-58l-39 88l-74 -88h-64l114 134h61z" />
    <glyph glyph-name="Edieresis" unicode="&#xcb;" horiz-adv-x="359" 
d="M151 712h260l-15 -73h-178l-48 -243h153l-15 -74h-153l-49 -249h177l-14 -73h-260zM199 853h76l-16 -80h-76zM346 853h76l-16 -80h-76z" />
    <glyph glyph-name="Igrave" unicode="&#xcc;" horiz-adv-x="202" 
d="M151 712h82l-142 -712h-82zM128 894h66l39 -134h-57z" />
    <glyph glyph-name="Iacute" unicode="&#xcd;" horiz-adv-x="202" 
d="M151 712h82l-142 -712h-82zM259 892h72l-102 -134h-63z" />
    <glyph glyph-name="Icircumflex" unicode="&#xce;" horiz-adv-x="202" 
d="M151 712h82l-142 -712h-82zM318 758h-58l-39 88l-74 -88h-64l114 134h61z" />
    <glyph glyph-name="Idieresis" unicode="&#xcf;" horiz-adv-x="202" 
d="M151 712h82l-142 -712h-82zM107 853h76l-16 -80h-76zM254 853h76l-16 -80h-76z" />
    <glyph glyph-name="Eth" unicode="&#xd0;" horiz-adv-x="456" 
d="M71 391h49l64 321h152q42 0 66 -13t40 -37q24 -34 24 -89q0 -26 -8.5 -80.5t-25.5 -136.5q-16 -79 -28 -131.5t-23.5 -87t-24.5 -55.5t-30 -37q-48 -45 -124 -45h-160l65 326h-49zM207 73q23 0 38.5 7t26.5 20q11 12 20 30.5t18 48t18.5 73t21.5 104.5q16 78 25 132t9 84
q0 29 -14 48q-16 19 -48 19h-71l-50 -248h76l-13 -65h-76l-50 -253h69z" />
    <glyph glyph-name="Ntilde" unicode="&#xd1;" horiz-adv-x="439" 
d="M151 712h71l72 -492l94 492h82l-142 -712h-68l-71 491l-98 -491h-82zM205 817q24 21 41.5 29.5t36.5 8.5q18 0 29 -4t25 -13q11 -8 20 -11.5t21 -3.5q14 0 24 5.5t23 18.5l30 -38q-25 -22 -42 -30.5t-37 -8.5q-17 0 -28 4t-25 13q-11 8 -20 11.5t-22 3.5
q-14 0 -23.5 -5.5t-23.5 -18.5z" />
    <glyph glyph-name="Ograve" unicode="&#xd2;" horiz-adv-x="417" 
d="M64 356q17 86 30 140.5t25 89.5t25 55t31 37q45 42 117 42q42 0 68.5 -13t42.5 -38q12 -19 17.5 -38.5t5.5 -48.5q0 -34 -8 -88t-25 -138q-18 -86 -31 -140.5t-25 -89.5t-24.5 -55t-30.5 -37q-45 -42 -117 -42q-42 0 -68.5 13t-42.5 38q-12 19 -18 38.5t-6 48.5
q0 34 8.5 88t25.5 138zM146 356q-17 -81 -25.5 -135.5t-8.5 -85.5q0 -29 13 -49.5t48 -20.5q32 0 55 23q11 10 20 26t18 45t19.5 76t25.5 121q16 81 24.5 135.5t8.5 85.5q0 29 -12.5 49.5t-47.5 20.5q-32 0 -55 -23q-11 -11 -20 -26.5t-18 -44.5t-19.5 -76.5t-25.5 -120.5z
M233 894h66l39 -134h-57z" />
    <glyph glyph-name="Oacute" unicode="&#xd3;" horiz-adv-x="417" 
d="M64 356q17 86 30 140.5t25 89.5t25 55t31 37q45 42 117 42q42 0 68.5 -13t42.5 -38q12 -19 17.5 -38.5t5.5 -48.5q0 -34 -8 -88t-25 -138q-18 -86 -31 -140.5t-25 -89.5t-24.5 -55t-30.5 -37q-45 -42 -117 -42q-42 0 -68.5 13t-42.5 38q-12 19 -18 38.5t-6 48.5
q0 34 8.5 88t25.5 138zM146 356q-17 -81 -25.5 -135.5t-8.5 -85.5q0 -29 13 -49.5t48 -20.5q32 0 55 23q11 10 20 26t18 45t19.5 76t25.5 121q16 81 24.5 135.5t8.5 85.5q0 29 -12.5 49.5t-47.5 20.5q-32 0 -55 -23q-11 -11 -20 -26.5t-18 -44.5t-19.5 -76.5t-25.5 -120.5z
M364 892h72l-102 -134h-63z" />
    <glyph glyph-name="Ocircumflex" unicode="&#xd4;" horiz-adv-x="417" 
d="M64 356q17 86 30 140.5t25 89.5t25 55t31 37q45 42 117 42q42 0 68.5 -13t42.5 -38q12 -19 17.5 -38.5t5.5 -48.5q0 -34 -8 -88t-25 -138q-18 -86 -31 -140.5t-25 -89.5t-24.5 -55t-30.5 -37q-45 -42 -117 -42q-42 0 -68.5 13t-42.5 38q-12 19 -18 38.5t-6 48.5
q0 34 8.5 88t25.5 138zM146 356q-17 -81 -25.5 -135.5t-8.5 -85.5q0 -29 13 -49.5t48 -20.5q32 0 55 23q11 10 20 26t18 45t19.5 76t25.5 121q16 81 24.5 135.5t8.5 85.5q0 29 -12.5 49.5t-47.5 20.5q-32 0 -55 -23q-11 -11 -20 -26.5t-18 -44.5t-19.5 -76.5t-25.5 -120.5z
M423 758h-58l-39 88l-74 -88h-64l114 134h61z" />
    <glyph glyph-name="Otilde" unicode="&#xd5;" horiz-adv-x="417" 
d="M64 356q17 86 30 140.5t25 89.5t25 55t31 37q45 42 117 42q42 0 68.5 -13t42.5 -38q12 -19 17.5 -38.5t5.5 -48.5q0 -34 -8 -88t-25 -138q-18 -86 -31 -140.5t-25 -89.5t-24.5 -55t-30.5 -37q-45 -42 -117 -42q-42 0 -68.5 13t-42.5 38q-12 19 -18 38.5t-6 48.5
q0 34 8.5 88t25.5 138zM146 356q-17 -81 -25.5 -135.5t-8.5 -85.5q0 -29 13 -49.5t48 -20.5q32 0 55 23q11 10 20 26t18 45t19.5 76t25.5 121q16 81 24.5 135.5t8.5 85.5q0 29 -12.5 49.5t-47.5 20.5q-32 0 -55 -23q-11 -11 -20 -26.5t-18 -44.5t-19.5 -76.5t-25.5 -120.5z
M191 817q24 21 41.5 29.5t36.5 8.5q18 0 29 -4t25 -13q11 -8 20 -11.5t21 -3.5q14 0 24 5.5t23 18.5l30 -38q-25 -22 -42 -30.5t-37 -8.5q-17 0 -28 4t-25 13q-11 8 -20 11.5t-22 3.5q-14 0 -23.5 -5.5t-23.5 -18.5z" />
    <glyph glyph-name="Odieresis" unicode="&#xd6;" horiz-adv-x="417" 
d="M64 356q17 86 30 140.5t25 89.5t25 55t31 37q45 42 117 42q42 0 68.5 -13t42.5 -38q12 -19 17.5 -38.5t5.5 -48.5q0 -34 -8 -88t-25 -138q-18 -86 -31 -140.5t-25 -89.5t-24.5 -55t-30.5 -37q-45 -42 -117 -42q-42 0 -68.5 13t-42.5 38q-12 19 -18 38.5t-6 48.5
q0 34 8.5 88t25.5 138zM146 356q-17 -81 -25.5 -135.5t-8.5 -85.5q0 -29 13 -49.5t48 -20.5q32 0 55 23q11 10 20 26t18 45t19.5 76t25.5 121q16 81 24.5 135.5t8.5 85.5q0 29 -12.5 49.5t-47.5 20.5q-32 0 -55 -23q-11 -11 -20 -26.5t-18 -44.5t-19.5 -76.5t-25.5 -120.5z
M212 853h76l-16 -80h-76zM359 853h76l-16 -80h-76z" />
    <glyph glyph-name="multiply" unicode="&#xd7;" horiz-adv-x="420" 
d="M347 160l-56 -49l-84 114l-131 -115l-43 58l131 114l-84 114l56 49l84 -114l131 115l43 -58l-131 -114z" />
    <glyph glyph-name="Oslash" unicode="&#xd8;" horiz-adv-x="417" 
d="M64 356q17 86 30 140.5t25 89.5t25 55t31 37q45 42 117 42q50 0 83 -22l30 58h58l-53 -100q8 -16 12 -33t4 -41q0 -34 -8 -88t-25 -138q-18 -86 -31 -140.5t-25 -89.5t-24.5 -55t-30.5 -37q-45 -42 -117 -42q-27 0 -47.5 5.5t-35.5 15.5l-30 -57h-58l53 99
q-8 16 -12.5 33t-4.5 42q0 34 8.5 88t25.5 138zM311 356q11 57 18.5 100.5t11.5 75.5l-220 -441q7 -12 19.5 -19t32.5 -7q32 0 55 23q11 10 20 26t18 45t19.5 76t25.5 121zM146 356q-12 -57 -19.5 -100.5t-11.5 -75.5l220 441q-7 12 -19 19t-32 7q-32 0 -55 -23
q-11 -11 -19.5 -26.5t-17.5 -44.5t-20 -76.5t-26 -120.5z" />
    <glyph glyph-name="Ugrave" unicode="&#xd9;" horiz-adv-x="421" 
d="M145 712h82l-110 -548q-3 -17 -3 -34q0 -30 15 -47t45 -17q31 0 56 22.5t34 67.5l112 556h82l-112 -557q-9 -46 -24.5 -73.5t-39.5 -48.5q-22 -20 -50.5 -30.5t-69.5 -10.5q-63 0 -101 41q-14 17 -21.5 37.5t-7.5 50.5q0 14 1.5 28t3.5 23zM234 894h66l39 -134h-57z" />
    <glyph glyph-name="Uacute" unicode="&#xda;" horiz-adv-x="421" 
d="M145 712h82l-110 -548q-3 -17 -3 -34q0 -30 15 -47t45 -17q31 0 56 22.5t34 67.5l112 556h82l-112 -557q-9 -46 -24.5 -73.5t-39.5 -48.5q-22 -20 -50.5 -30.5t-69.5 -10.5q-63 0 -101 41q-14 17 -21.5 37.5t-7.5 50.5q0 14 1.5 28t3.5 23zM365 892h72l-102 -134h-63z
" />
    <glyph glyph-name="Ucircumflex" unicode="&#xdb;" horiz-adv-x="421" 
d="M145 712h82l-110 -548q-3 -17 -3 -34q0 -30 15 -47t45 -17q31 0 56 22.5t34 67.5l112 556h82l-112 -557q-9 -46 -24.5 -73.5t-39.5 -48.5q-22 -20 -50.5 -30.5t-69.5 -10.5q-63 0 -101 41q-14 17 -21.5 37.5t-7.5 50.5q0 14 1.5 28t3.5 23zM424 758h-58l-39 88l-74 -88
h-64l114 134h61z" />
    <glyph glyph-name="Udieresis" unicode="&#xdc;" horiz-adv-x="421" 
d="M145 712h82l-110 -548q-3 -17 -3 -34q0 -30 15 -47t45 -17q31 0 56 22.5t34 67.5l112 556h82l-112 -557q-9 -46 -24.5 -73.5t-39.5 -48.5q-22 -20 -50.5 -30.5t-69.5 -10.5q-63 0 -101 41q-14 17 -21.5 37.5t-7.5 50.5q0 14 1.5 28t3.5 23zM213 853h76l-16 -80h-76z
M360 853h76l-16 -80h-76z" />
    <glyph glyph-name="Yacute" unicode="&#xdd;" horiz-adv-x="334" 
d="M133 293l-38 419h85l15 -308l135 308h90l-207 -429l-56 -283h-82zM323 892h72l-102 -134h-63z" />
    <glyph glyph-name="Thorn" unicode="&#xde;" horiz-adv-x="410" 
d="M91 0h-82l142 712h82l-29 -144h61q38 0 63 -8.5t42 -25.5t24 -41t7 -53q0 -17 -1.5 -38t-6.5 -42q-13 -64 -31.5 -104.5t-42.5 -63.5t-54.5 -31.5t-66.5 -8.5h-77zM200 225q21 0 37.5 6t30 21.5t24 41.5t19.5 66q8 37 8 67q0 34 -14.5 51t-52.5 17h-63l-54 -270h65z" />
    <glyph glyph-name="germandbls" unicode="&#xdf;" horiz-adv-x="371" 
d="M117 574q9 44 23 70t35 43q20 17 43 25t56 8q34 0 57 -10t37 -29q14 -18 18 -37.5t4 -40.5q0 -17 -3 -37.5t-8.5 -41t-13 -40t-17.5 -33.5q-11 -15 -20 -24t-23 -18q37 -25 37 -83q0 -17 -4.5 -43t-12.5 -66q-9 -45 -16.5 -75t-15.5 -50t-18 -33t-23 -25
q-21 -19 -48.5 -26.5t-66.5 -7.5l13 68q16 0 29.5 4t24.5 15q7 7 13 16.5t11.5 25.5t11 39t11.5 57q7 34 11 59t4 42q0 21 -9.5 37t-35.5 16h-8l12 64h8q17 0 28 11.5t21 30.5q15 29 23.5 56.5t8.5 56.5q0 54 -47 54q-29 0 -47.5 -20.5t-26.5 -57.5l-114 -574h-76z" />
    <glyph glyph-name="agrave" unicode="&#xe0;" 
d="M18 32q-16 25 -16 68q0 24 6 50q7 35 23.5 66t41.5 51q20 17 45 24t63 7h54l16 80q4 17 4 31q0 23 -11.5 36t-34.5 13q-25 0 -42 -16q-13 -11 -19 -26.5t-11 -36.5h-76q7 31 19 60.5t38 52.5q39 34 100 34q65 0 92 -36q11 -14 16 -31t5 -43q0 -10 -1.5 -22.5t-3.5 -21.5
l-74 -372h-72l8 43q-7 -9 -15 -17.5t-19 -16.5q-14 -10 -27.5 -13.5t-30.5 -3.5q-27 0 -45.5 9.5t-32.5 30.5zM81 115q0 -26 10.5 -40.5t33.5 -14.5q32 0 52.5 26t27.5 58l19 98h-40q-23 0 -35.5 -4t-26.5 -15q-20 -17 -30.5 -48t-10.5 -60zM165 718h66l39 -134h-57z" />
    <glyph glyph-name="aacute" unicode="&#xe1;" 
d="M18 32q-16 25 -16 68q0 24 6 50q7 35 23.5 66t41.5 51q20 17 45 24t63 7h54l16 80q4 17 4 31q0 23 -11.5 36t-34.5 13q-25 0 -42 -16q-13 -11 -19 -26.5t-11 -36.5h-76q7 31 19 60.5t38 52.5q39 34 100 34q65 0 92 -36q11 -14 16 -31t5 -43q0 -10 -1.5 -22.5t-3.5 -21.5
l-74 -372h-72l8 43q-7 -9 -15 -17.5t-19 -16.5q-14 -10 -27.5 -13.5t-30.5 -3.5q-27 0 -45.5 9.5t-32.5 30.5zM81 115q0 -26 10.5 -40.5t33.5 -14.5q32 0 52.5 26t27.5 58l19 98h-40q-23 0 -35.5 -4t-26.5 -15q-20 -17 -30.5 -48t-10.5 -60zM296 717h72l-102 -134h-63z" />
    <glyph glyph-name="acircumflex" unicode="&#xe2;" 
d="M18 32q-16 25 -16 68q0 24 6 50q7 35 23.5 66t41.5 51q20 17 45 24t63 7h54l16 80q4 17 4 31q0 23 -11.5 36t-34.5 13q-25 0 -42 -16q-13 -11 -19 -26.5t-11 -36.5h-76q7 31 19 60.5t38 52.5q39 34 100 34q65 0 92 -36q11 -14 16 -31t5 -43q0 -10 -1.5 -22.5t-3.5 -21.5
l-74 -372h-72l8 43q-7 -9 -15 -17.5t-19 -16.5q-14 -10 -27.5 -13.5t-30.5 -3.5q-27 0 -45.5 9.5t-32.5 30.5zM81 115q0 -26 10.5 -40.5t33.5 -14.5q32 0 52.5 26t27.5 58l19 98h-40q-23 0 -35.5 -4t-26.5 -15q-20 -17 -30.5 -48t-10.5 -60zM354 583h-58l-39 88l-74 -88h-64
l114 134h61z" />
    <glyph glyph-name="atilde" unicode="&#xe3;" 
d="M18 32q-16 25 -16 68q0 24 6 50q7 35 23.5 66t41.5 51q20 17 45 24t63 7h54l16 80q4 17 4 31q0 23 -11.5 36t-34.5 13q-25 0 -42 -16q-13 -11 -19 -26.5t-11 -36.5h-76q7 31 19 60.5t38 52.5q39 34 100 34q65 0 92 -36q11 -14 16 -31t5 -43q0 -10 -1.5 -22.5t-3.5 -21.5
l-74 -372h-72l8 43q-7 -9 -15 -17.5t-19 -16.5q-14 -10 -27.5 -13.5t-30.5 -3.5q-27 0 -45.5 9.5t-32.5 30.5zM81 115q0 -26 10.5 -40.5t33.5 -14.5q32 0 52.5 26t27.5 58l19 98h-40q-23 0 -35.5 -4t-26.5 -15q-20 -17 -30.5 -48t-10.5 -60zM123 642q24 21 41.5 29.5
t36.5 8.5q18 0 29 -4t25 -13q11 -8 20 -11.5t21 -3.5q14 0 24 5.5t23 18.5l30 -38q-25 -22 -42 -30.5t-37 -8.5q-17 0 -28 4t-25 13q-11 8 -20 11.5t-22 3.5q-14 0 -23.5 -5.5t-23.5 -18.5z" />
    <glyph glyph-name="adieresis" unicode="&#xe4;" 
d="M18 32q-16 25 -16 68q0 24 6 50q7 35 23.5 66t41.5 51q20 17 45 24t63 7h54l16 80q4 17 4 31q0 23 -11.5 36t-34.5 13q-25 0 -42 -16q-13 -11 -19 -26.5t-11 -36.5h-76q7 31 19 60.5t38 52.5q39 34 100 34q65 0 92 -36q11 -14 16 -31t5 -43q0 -10 -1.5 -22.5t-3.5 -21.5
l-74 -372h-72l8 43q-7 -9 -15 -17.5t-19 -16.5q-14 -10 -27.5 -13.5t-30.5 -3.5q-27 0 -45.5 9.5t-32.5 30.5zM81 115q0 -26 10.5 -40.5t33.5 -14.5q32 0 52.5 26t27.5 58l19 98h-40q-23 0 -35.5 -4t-26.5 -15q-20 -17 -30.5 -48t-10.5 -60zM144 678h76l-16 -80h-76z
M291 678h76l-16 -80h-76z" />
    <glyph glyph-name="aring" unicode="&#xe5;" 
d="M18 32q-16 25 -16 68q0 24 6 50q7 35 23.5 66t41.5 51q20 17 45 24t63 7h54l16 80q4 17 4 31q0 23 -11.5 36t-34.5 13q-25 0 -42 -16q-13 -11 -19 -26.5t-11 -36.5h-76q7 31 19 60.5t38 52.5q39 34 100 34q65 0 92 -36q11 -14 16 -31t5 -43q0 -10 -1.5 -22.5t-3.5 -21.5
l-74 -372h-72l8 43q-7 -9 -15 -17.5t-19 -16.5q-14 -10 -27.5 -13.5t-30.5 -3.5q-27 0 -45.5 9.5t-32.5 30.5zM81 115q0 -26 10.5 -40.5t33.5 -14.5q32 0 52.5 26t27.5 58l19 98h-40q-23 0 -35.5 -4t-26.5 -15q-20 -17 -30.5 -48t-10.5 -60zM154 680q0 20 7.5 37.5t20.5 31
t30.5 21t37.5 7.5t37.5 -7.5t31 -21t21 -31t7.5 -37.5t-7.5 -37.5t-21 -30.5t-31 -20.5t-37.5 -7.5q-40 0 -68 28t-28 68zM200 680q0 -22 14 -37t36 -15t36 15t14 37t-14 37t-36 15t-36 -15t-14 -37z" />
    <glyph glyph-name="ae" unicode="&#xe6;" horiz-adv-x="538" 
d="M319 -8q-33 0 -52 8t-30 19q-10 10 -15 19.5t-10 21.5q-11 -15 -20 -26t-20 -19q-16 -11 -34.5 -17t-41.5 -6q-27 0 -45.5 9.5t-32.5 30.5q-16 25 -16 68q0 24 6 50q7 35 23.5 66t41.5 51q20 17 45 24t63 7h54l16 80q4 17 4 31q0 23 -11.5 36t-34.5 13q-25 0 -42 -16
q-13 -11 -19 -26.5t-11 -36.5h-76q7 31 19 60.5t38 52.5q39 34 100 34q31 0 54 -10.5t37 -33.5q39 44 106 44q35 0 57 -12t34 -30q18 -27 18 -75q0 -32 -6.5 -73t-17.5 -95h-201q-8 -45 -13 -77t-5 -50q0 -26 12 -41q11 -13 33 -13q12 0 24 4t21 12q22 20 32 68h76
q-9 -41 -20.5 -65.5t-32.5 -45.5q-41 -41 -107 -41zM81 115q0 -26 10.5 -40.5t33.5 -14.5q32 0 52.5 26t27.5 58l19 98h-40q-23 0 -35.5 -4t-26.5 -15q-20 -17 -30.5 -48t-10.5 -60zM436 300q8 35 11 61t3 43q0 25 -10.5 39.5t-34.5 14.5q-12 0 -24 -5t-22 -17
q-15 -17 -25 -47t-22 -89h124z" />
    <glyph glyph-name="ccedilla" unicode="&#xe7;" horiz-adv-x="340" 
d="M38 259q10 49 18.5 85t18 62.5t19.5 44.5t23 32q19 20 44.5 31.5t63.5 11.5q36 0 59 -11.5t36 -32.5q17 -28 17 -67q0 -8 -1 -18.5t-3 -22.5h-75q4 19 4 35q0 11 -2.5 20t-8.5 16q-6 6 -14 9.5t-20 3.5q-27 0 -48 -22q-17 -19 -29 -62t-26 -115q-10 -50 -16.5 -87.5
t-6.5 -58.5q0 -31 16 -44q12 -9 31 -9q11 0 22 3.5t20 11.5q14 13 21 29t12 40h76q-10 -42 -22 -67.5t-29 -42.5q-20 -20 -45.5 -31t-62.5 -11q-60 0 -90 38q-23 27 -23 80q0 44 21 149zM100 -38h55l-73 -142h-65z" />
    <glyph glyph-name="egrave" unicode="&#xe8;" horiz-adv-x="349" 
d="M32 40q-15 28 -15 70q0 24 6.5 65.5t14.5 83.5q18 92 36 145t43 79q20 21 46 32t63 11q35 0 57 -12t34 -30q18 -27 18 -75q0 -32 -6.5 -73t-17.5 -95h-201q-8 -45 -13 -77t-5 -50q0 -26 12 -41q11 -13 33 -13q12 0 24 4t21 12q22 20 32 68h76q-9 -41 -20.5 -65.5
t-32.5 -45.5q-41 -41 -107 -41q-70 0 -98 48zM247 300q8 35 11 61t3 43q0 25 -10.5 39.5t-34.5 14.5q-12 0 -24 -5t-22 -17q-15 -17 -25 -47t-22 -89h124zM168 718h66l39 -134h-57z" />
    <glyph glyph-name="eacute" unicode="&#xe9;" horiz-adv-x="349" 
d="M32 40q-15 28 -15 70q0 24 6.5 65.5t14.5 83.5q18 92 36 145t43 79q20 21 46 32t63 11q35 0 57 -12t34 -30q18 -27 18 -75q0 -32 -6.5 -73t-17.5 -95h-201q-8 -45 -13 -77t-5 -50q0 -26 12 -41q11 -13 33 -13q12 0 24 4t21 12q22 20 32 68h76q-9 -41 -20.5 -65.5
t-32.5 -45.5q-41 -41 -107 -41q-70 0 -98 48zM247 300q8 35 11 61t3 43q0 25 -10.5 39.5t-34.5 14.5q-12 0 -24 -5t-22 -17q-15 -17 -25 -47t-22 -89h124zM299 717h72l-102 -134h-63z" />
    <glyph glyph-name="ecircumflex" unicode="&#xea;" horiz-adv-x="349" 
d="M32 40q-15 28 -15 70q0 24 6.5 65.5t14.5 83.5q18 92 36 145t43 79q20 21 46 32t63 11q35 0 57 -12t34 -30q18 -27 18 -75q0 -32 -6.5 -73t-17.5 -95h-201q-8 -45 -13 -77t-5 -50q0 -26 12 -41q11 -13 33 -13q12 0 24 4t21 12q22 20 32 68h76q-9 -41 -20.5 -65.5
t-32.5 -45.5q-41 -41 -107 -41q-70 0 -98 48zM247 300q8 35 11 61t3 43q0 25 -10.5 39.5t-34.5 14.5q-12 0 -24 -5t-22 -17q-15 -17 -25 -47t-22 -89h124zM357 583h-58l-39 88l-74 -88h-64l114 134h61z" />
    <glyph glyph-name="edieresis" unicode="&#xeb;" horiz-adv-x="349" 
d="M32 40q-15 28 -15 70q0 24 6.5 65.5t14.5 83.5q18 92 36 145t43 79q20 21 46 32t63 11q35 0 57 -12t34 -30q18 -27 18 -75q0 -32 -6.5 -73t-17.5 -95h-201q-8 -45 -13 -77t-5 -50q0 -26 12 -41q11 -13 33 -13q12 0 24 4t21 12q22 20 32 68h76q-9 -41 -20.5 -65.5
t-32.5 -45.5q-41 -41 -107 -41q-70 0 -98 48zM247 300q8 35 11 61t3 43q0 25 -10.5 39.5t-34.5 14.5q-12 0 -24 -5t-22 -17q-15 -17 -25 -47t-22 -89h124zM147 678h76l-16 -80h-76zM294 678h76l-16 -80h-76z" />
    <glyph glyph-name="igrave" unicode="&#xec;" horiz-adv-x="183" 
d="M106 518h76l-103 -518h-76zM87 718h66l39 -134h-57z" />
    <glyph glyph-name="iacute" unicode="&#xed;" horiz-adv-x="183" 
d="M106 518h76l-103 -518h-76zM218 717h72l-102 -134h-63z" />
    <glyph glyph-name="icircumflex" unicode="&#xee;" horiz-adv-x="183" 
d="M106 518h76l-103 -518h-76zM276 583h-58l-39 88l-74 -88h-64l114 134h61z" />
    <glyph glyph-name="idieresis" unicode="&#xef;" horiz-adv-x="183" 
d="M106 518h76l-103 -518h-76zM66 678h76l-16 -80h-76zM213 678h76l-16 -80h-76z" />
    <glyph glyph-name="eth" unicode="&#xf0;" horiz-adv-x="355" 
d="M37 248q10 50 18.5 86t17.5 61.5t18.5 42t21.5 27.5q35 35 90 35q19 0 32.5 -4.5t23.5 -12.5l-11 96h-74l10 53h57l-10 80h72l10 -80h69l-10 -53h-51l11 -112q2 -13 2.5 -24.5t0.5 -25.5q0 -29 -4.5 -68t-16.5 -101q-10 -51 -19.5 -87.5t-18.5 -61t-18.5 -40.5t-20.5 -27
q-20 -21 -45.5 -30.5t-63.5 -9.5q-28 0 -48 9t-34 24q-14 17 -20.5 36t-6.5 48q0 49 18 139zM113 248q-9 -46 -14.5 -79t-5.5 -54q0 -24 9 -39q11 -16 36 -16q12 0 24.5 5t22.5 15q17 17 27 56t25 112q9 45 14.5 77.5t5.5 51.5q0 25 -9 39q-11 16 -35 16q-28 0 -48 -20
q-15 -15 -26.5 -53.5t-25.5 -110.5z" />
    <glyph glyph-name="ntilde" unicode="&#xf1;" horiz-adv-x="372" 
d="M106 518h73l-8 -39q16 20 35 32q11 7 24 11t31 4q32 0 49 -12t27 -28q8 -13 11.5 -27.5t3.5 -32.5t-7 -52l-74 -374h-76l74 374q2 11 3 20.5t1 15.5q0 19 -11 33.5t-35 14.5q-23 0 -44 -18t-30 -66l-74 -374h-76zM137 642q24 21 41.5 29.5t36.5 8.5q18 0 29 -4t25 -13
q11 -8 20 -11.5t21 -3.5q14 0 24 5.5t23 18.5l30 -38q-25 -22 -42 -30.5t-37 -8.5q-17 0 -28 4t-25 13q-11 8 -20 11.5t-22 3.5q-14 0 -23.5 -5.5t-23.5 -18.5z" />
    <glyph glyph-name="ograve" unicode="&#xf2;" 
d="M239 259q10 50 16 87.5t6 57.5q0 25 -10 39q-12 15 -34 15q-29 0 -47 -21q-17 -19 -29 -60.5t-27 -117.5q-10 -50 -16 -87.5t-6 -57.5q0 -25 10 -39q12 -15 34 -15q29 0 47 21q17 19 29 60.5t27 117.5zM38 259q10 53 19.5 90t18.5 62.5t19 42t23 30.5q18 20 44 31t62 11
q69 0 96 -47q8 -14 11.5 -31t3.5 -42q0 -23 -4.5 -58.5t-15.5 -88.5t-20 -89.5t-18 -62t-19 -43t-23 -30.5q-18 -20 -44 -31t-62 -11q-69 0 -96 47q-8 14 -11.5 31t-3.5 42q0 23 4.5 58.5t15.5 88.5zM168 718h66l39 -134h-57z" />
    <glyph glyph-name="oacute" unicode="&#xf3;" 
d="M239 259q10 50 16 87.5t6 57.5q0 25 -10 39q-12 15 -34 15q-29 0 -47 -21q-17 -19 -29 -60.5t-27 -117.5q-10 -50 -16 -87.5t-6 -57.5q0 -25 10 -39q12 -15 34 -15q29 0 47 21q17 19 29 60.5t27 117.5zM38 259q10 53 19.5 90t18.5 62.5t19 42t23 30.5q18 20 44 31t62 11
q69 0 96 -47q8 -14 11.5 -31t3.5 -42q0 -23 -4.5 -58.5t-15.5 -88.5t-20 -89.5t-18 -62t-19 -43t-23 -30.5q-18 -20 -44 -31t-62 -11q-69 0 -96 47q-8 14 -11.5 31t-3.5 42q0 23 4.5 58.5t15.5 88.5zM299 717h72l-102 -134h-63z" />
    <glyph glyph-name="ocircumflex" unicode="&#xf4;" 
d="M239 259q10 50 16 87.5t6 57.5q0 25 -10 39q-12 15 -34 15q-29 0 -47 -21q-17 -19 -29 -60.5t-27 -117.5q-10 -50 -16 -87.5t-6 -57.5q0 -25 10 -39q12 -15 34 -15q29 0 47 21q17 19 29 60.5t27 117.5zM38 259q10 53 19.5 90t18.5 62.5t19 42t23 30.5q18 20 44 31t62 11
q69 0 96 -47q8 -14 11.5 -31t3.5 -42q0 -23 -4.5 -58.5t-15.5 -88.5t-20 -89.5t-18 -62t-19 -43t-23 -30.5q-18 -20 -44 -31t-62 -11q-69 0 -96 47q-8 14 -11.5 31t-3.5 42q0 23 4.5 58.5t15.5 88.5zM357 583h-58l-39 88l-74 -88h-64l114 134h61z" />
    <glyph glyph-name="otilde" unicode="&#xf5;" 
d="M239 259q10 50 16 87.5t6 57.5q0 25 -10 39q-12 15 -34 15q-29 0 -47 -21q-17 -19 -29 -60.5t-27 -117.5q-10 -50 -16 -87.5t-6 -57.5q0 -25 10 -39q12 -15 34 -15q29 0 47 21q17 19 29 60.5t27 117.5zM38 259q10 53 19.5 90t18.5 62.5t19 42t23 30.5q18 20 44 31t62 11
q69 0 96 -47q8 -14 11.5 -31t3.5 -42q0 -23 -4.5 -58.5t-15.5 -88.5t-20 -89.5t-18 -62t-19 -43t-23 -30.5q-18 -20 -44 -31t-62 -11q-69 0 -96 47q-8 14 -11.5 31t-3.5 42q0 23 4.5 58.5t15.5 88.5zM126 642q24 21 41.5 29.5t36.5 8.5q18 0 29 -4t25 -13q11 -8 20 -11.5
t21 -3.5q14 0 24 5.5t23 18.5l30 -38q-25 -22 -42 -30.5t-37 -8.5q-17 0 -28 4t-25 13q-11 8 -20 11.5t-22 3.5q-14 0 -23.5 -5.5t-23.5 -18.5z" />
    <glyph glyph-name="odieresis" unicode="&#xf6;" 
d="M239 259q10 50 16 87.5t6 57.5q0 25 -10 39q-12 15 -34 15q-29 0 -47 -21q-17 -19 -29 -60.5t-27 -117.5q-10 -50 -16 -87.5t-6 -57.5q0 -25 10 -39q12 -15 34 -15q29 0 47 21q17 19 29 60.5t27 117.5zM38 259q10 53 19.5 90t18.5 62.5t19 42t23 30.5q18 20 44 31t62 11
q69 0 96 -47q8 -14 11.5 -31t3.5 -42q0 -23 -4.5 -58.5t-15.5 -88.5t-20 -89.5t-18 -62t-19 -43t-23 -30.5q-18 -20 -44 -31t-62 -11q-69 0 -96 47q-8 14 -11.5 31t-3.5 42q0 23 4.5 58.5t15.5 88.5zM147 678h76l-16 -80h-76zM294 678h76l-16 -80h-76z" />
    <glyph glyph-name="divide" unicode="&#xf7;" horiz-adv-x="420" 
d="M144 163h95l-19 -92h-94zM57 320h332l-15 -72h-332zM211 497h94l-18 -92h-95z" />
    <glyph glyph-name="oslash" unicode="&#xf8;" 
d="M38 259q10 53 19.5 90t18.5 62.5t19 42t23 30.5q18 20 44 31t62 11q43 0 70 -19l31 55h55l-55 -94q10 -23 10 -62q0 -23 -4.5 -58.5t-15.5 -88.5t-20 -89.5t-18 -62t-19 -43t-23 -30.5q-18 -20 -44 -31t-62 -11q-41 0 -70 18l-30 -54h-55l53 94q-9 24 -9 62
q0 23 4.5 58.5t15.5 88.5zM114 259q-12 -63 -18 -103l158 282l-3 5q-12 15 -34 15q-29 0 -47 -21q-17 -19 -29 -60.5t-27 -117.5zM239 259q6 32 11 59t8 48l-158 -288q0 -1 2 -3q12 -15 34 -15q29 0 47 21q17 19 29 60.5t27 117.5z" />
    <glyph glyph-name="ugrave" unicode="&#xf9;" horiz-adv-x="371" 
d="M267 0h-73l8 39q-16 -20 -35 -32q-11 -7 -24 -11t-31 -4q-32 0 -49 12t-27 28q-8 13 -11.5 27.5t-3.5 32.5t7 52l74 374h76l-74 -374q-2 -11 -3 -20.5t-1 -15.5q0 -19 11 -33.5t35 -14.5q23 0 44 18t30 66l74 374h76zM175 718h66l39 -134h-57z" />
    <glyph glyph-name="uacute" unicode="&#xfa;" horiz-adv-x="371" 
d="M267 0h-73l8 39q-16 -20 -35 -32q-11 -7 -24 -11t-31 -4q-32 0 -49 12t-27 28q-8 13 -11.5 27.5t-3.5 32.5t7 52l74 374h76l-74 -374q-2 -11 -3 -20.5t-1 -15.5q0 -19 11 -33.5t35 -14.5q23 0 44 18t30 66l74 374h76zM306 717h72l-102 -134h-63z" />
    <glyph glyph-name="ucircumflex" unicode="&#xfb;" horiz-adv-x="371" 
d="M267 0h-73l8 39q-16 -20 -35 -32q-11 -7 -24 -11t-31 -4q-32 0 -49 12t-27 28q-8 13 -11.5 27.5t-3.5 32.5t7 52l74 374h76l-74 -374q-2 -11 -3 -20.5t-1 -15.5q0 -19 11 -33.5t35 -14.5q23 0 44 18t30 66l74 374h76zM364 583h-58l-39 88l-74 -88h-64l114 134h61z" />
    <glyph glyph-name="udieresis" unicode="&#xfc;" horiz-adv-x="371" 
d="M267 0h-73l8 39q-16 -20 -35 -32q-11 -7 -24 -11t-31 -4q-32 0 -49 12t-27 28q-8 13 -11.5 27.5t-3.5 32.5t7 52l74 374h76l-74 -374q-2 -11 -3 -20.5t-1 -15.5q0 -19 11 -33.5t35 -14.5q23 0 44 18t30 66l74 374h76zM154 678h76l-16 -80h-76zM301 678h76l-16 -80h-76z
" />
    <glyph glyph-name="yacute" unicode="&#xfd;" horiz-adv-x="324" 
d="M-57 -127q34 1 57 15.5t36 40.5l35 72l-15 517h79l-1 -396l155 396h86l-259 -601q-15 -36 -34 -57.5t-41.5 -33.5t-50.5 -16t-61 -4zM288 717h72l-102 -134h-63z" />
    <glyph glyph-name="thorn" unicode="&#xfe;" horiz-adv-x="364" 
d="M144 712h76l-45 -228q8 9 15 15t15 11q11 7 25 11.5t28 4.5q24 0 43.5 -9.5t32.5 -29.5q16 -26 16 -67q0 -29 -6 -68t-17 -93q-11 -56 -20.5 -94.5t-18.5 -65t-18.5 -42.5t-21.5 -28q-18 -18 -39 -27.5t-50 -9.5q-18 0 -31 4.5t-21 11.5q-6 6 -12 13t-10 15l-46 -230h-76
zM106 140q-3 -15 -3 -29q0 -25 11 -37q11 -14 34 -14q13 0 23.5 4t21.5 15q17 16 30.5 62t27.5 118q11 55 16 89.5t5 54.5q0 26 -10 39q-5 7 -14 11.5t-20 4.5q-23 0 -43 -17q-11 -10 -19 -25t-13 -38z" />
    <glyph glyph-name="ydieresis" unicode="&#xff;" horiz-adv-x="324" 
d="M-57 -127q34 1 57 15.5t36 40.5l35 72l-15 517h79l-1 -396l155 396h86l-259 -601q-15 -36 -34 -57.5t-41.5 -33.5t-50.5 -16t-61 -4zM134 678h76l-16 -80h-76zM281 678h76l-16 -80h-76z" />
    <glyph glyph-name="Amacron" unicode="&#x100;" horiz-adv-x="402" 
d="M265 0l1 169h-158l-68 -169h-86l299 712h80l14 -712h-82zM268 579l-130 -336h127zM209 837h214l-11 -54h-214z" />
    <glyph glyph-name="amacron" unicode="&#x101;" 
d="M18 32q-16 25 -16 68q0 24 6 50q7 35 23.5 66t41.5 51q20 17 45 24t63 7h54l16 80q4 17 4 31q0 23 -11.5 36t-34.5 13q-25 0 -42 -16q-13 -11 -19 -26.5t-11 -36.5h-76q7 31 19 60.5t38 52.5q39 34 100 34q65 0 92 -36q11 -14 16 -31t5 -43q0 -10 -1.5 -22.5t-3.5 -21.5
l-74 -372h-72l8 43q-7 -9 -15 -17.5t-19 -16.5q-14 -10 -27.5 -13.5t-30.5 -3.5q-27 0 -45.5 9.5t-32.5 30.5zM81 115q0 -26 10.5 -40.5t33.5 -14.5q32 0 52.5 26t27.5 58l19 98h-40q-23 0 -35.5 -4t-26.5 -15q-20 -17 -30.5 -48t-10.5 -60zM143 662h214l-11 -54h-214z" />
    <glyph glyph-name="Abreve" unicode="&#x102;" horiz-adv-x="402" 
d="M265 0l1 169h-158l-68 -169h-86l299 712h80l14 -712h-82zM268 579l-130 -336h127zM431 863q-14 -60 -45 -84t-82 -24q-46 0 -70 23.5t-24 61.5v10q0 5 1 13h53v-8q0 -46 46 -46q23 0 41 12.5t26 41.5h54z" />
    <glyph glyph-name="abreve" unicode="&#x103;" 
d="M18 32q-16 25 -16 68q0 24 6 50q7 35 23.5 66t41.5 51q20 17 45 24t63 7h54l16 80q4 17 4 31q0 23 -11.5 36t-34.5 13q-25 0 -42 -16q-13 -11 -19 -26.5t-11 -36.5h-76q7 31 19 60.5t38 52.5q39 34 100 34q65 0 92 -36q11 -14 16 -31t5 -43q0 -10 -1.5 -22.5t-3.5 -21.5
l-74 -372h-72l8 43q-7 -9 -15 -17.5t-19 -16.5q-14 -10 -27.5 -13.5t-30.5 -3.5q-27 0 -45.5 9.5t-32.5 30.5zM81 115q0 -26 10.5 -40.5t33.5 -14.5q32 0 52.5 26t27.5 58l19 98h-40q-23 0 -35.5 -4t-26.5 -15q-20 -17 -30.5 -48t-10.5 -60zM367 688q-14 -60 -45 -84
t-82 -24q-46 0 -70 23.5t-24 61.5v10q0 5 1 13h53v-8q0 -46 46 -46q23 0 41 12.5t26 41.5h54z" />
    <glyph glyph-name="Aogonek" unicode="&#x104;" horiz-adv-x="402" 
d="M265 0l1 169h-158l-68 -169h-86l299 712h80l14 -712h-82zM268 579l-130 -336h127zM275 -38h55l-73 -142h-65z" />
    <glyph glyph-name="aogonek" unicode="&#x105;" 
d="M18 32q-16 25 -16 68q0 24 6 50q7 35 23.5 66t41.5 51q20 17 45 24t63 7h54l16 80q4 17 4 31q0 23 -11.5 36t-34.5 13q-25 0 -42 -16q-13 -11 -19 -26.5t-11 -36.5h-76q7 31 19 60.5t38 52.5q39 34 100 34q65 0 92 -36q11 -14 16 -31t5 -43q0 -10 -1.5 -22.5t-3.5 -21.5
l-74 -372h-72l8 43q-7 -9 -15 -17.5t-19 -16.5q-14 -10 -27.5 -13.5t-30.5 -3.5q-27 0 -45.5 9.5t-32.5 30.5zM81 115q0 -26 10.5 -40.5t33.5 -14.5q32 0 52.5 26t27.5 58l19 98h-40q-23 0 -35.5 -4t-26.5 -15q-20 -17 -30.5 -48t-10.5 -60zM182 -38h55l-73 -142h-65z" />
    <glyph glyph-name="Cacute" unicode="&#x106;" horiz-adv-x="400" 
d="M30 133q0 32 8.5 85.5t25.5 137.5q17 85 30 140t25 89.5t24.5 54.5t29.5 36q23 22 52 33t68 11q72 0 106 -43q13 -17 19.5 -41.5t6.5 -50.5q0 -11 -1 -22t-3 -25h-81q4 23 4 43q0 29 -12.5 47.5t-44.5 18.5q-35 0 -58 -23q-11 -11 -20 -26.5t-18 -44.5t-19.5 -76
t-25.5 -121q-17 -81 -25.5 -136t-8.5 -87q0 -68 59 -68q19 0 33 7t25 19q28 30 39 84h83q-11 -51 -27.5 -85.5t-47.5 -60.5q-21 -18 -48 -27.5t-65 -9.5q-39 0 -65 12t-42 35q-14 20 -20 41.5t-6 52.5zM364 892h72l-102 -134h-63z" />
    <glyph glyph-name="cacute" unicode="&#x107;" horiz-adv-x="340" 
d="M38 259q10 49 18.5 85t18 62.5t19.5 44.5t23 32q19 20 44.5 31.5t63.5 11.5q36 0 59 -11.5t36 -32.5q17 -28 17 -67q0 -8 -1 -18.5t-3 -22.5h-75q4 19 4 35q0 11 -2.5 20t-8.5 16q-6 6 -14 9.5t-20 3.5q-27 0 -48 -22q-17 -19 -29 -62t-26 -115q-10 -50 -16.5 -87.5
t-6.5 -58.5q0 -31 16 -44q12 -9 31 -9q11 0 22 3.5t20 11.5q14 13 21 29t12 40h76q-10 -42 -22 -67.5t-29 -42.5q-20 -20 -45.5 -31t-62.5 -11q-60 0 -90 38q-23 27 -23 80q0 44 21 149zM299 717h72l-102 -134h-63z" />
    <glyph glyph-name="Ccircumflex" unicode="&#x108;" horiz-adv-x="400" 
d="M30 133q0 32 8.5 85.5t25.5 137.5q17 85 30 140t25 89.5t24.5 54.5t29.5 36q23 22 52 33t68 11q72 0 106 -43q13 -17 19.5 -41.5t6.5 -50.5q0 -11 -1 -22t-3 -25h-81q4 23 4 43q0 29 -12.5 47.5t-44.5 18.5q-35 0 -58 -23q-11 -11 -20 -26.5t-18 -44.5t-19.5 -76
t-25.5 -121q-17 -81 -25.5 -136t-8.5 -87q0 -68 59 -68q19 0 33 7t25 19q28 30 39 84h83q-11 -51 -27.5 -85.5t-47.5 -60.5q-21 -18 -48 -27.5t-65 -9.5q-39 0 -65 12t-42 35q-14 20 -20 41.5t-6 52.5zM423 758h-58l-39 88l-74 -88h-64l114 134h61z" />
    <glyph glyph-name="ccircumflex" unicode="&#x109;" horiz-adv-x="340" 
d="M38 259q10 49 18.5 85t18 62.5t19.5 44.5t23 32q19 20 44.5 31.5t63.5 11.5q36 0 59 -11.5t36 -32.5q17 -28 17 -67q0 -8 -1 -18.5t-3 -22.5h-75q4 19 4 35q0 11 -2.5 20t-8.5 16q-6 6 -14 9.5t-20 3.5q-27 0 -48 -22q-17 -19 -29 -62t-26 -115q-10 -50 -16.5 -87.5
t-6.5 -58.5q0 -31 16 -44q12 -9 31 -9q11 0 22 3.5t20 11.5q14 13 21 29t12 40h76q-10 -42 -22 -67.5t-29 -42.5q-20 -20 -45.5 -31t-62.5 -11q-60 0 -90 38q-23 27 -23 80q0 44 21 149zM358 583h-58l-39 88l-74 -88h-64l114 134h61z" />
    <glyph glyph-name="Cdotaccent" unicode="&#x10a;" horiz-adv-x="400" 
d="M30 133q0 32 8.5 85.5t25.5 137.5q17 85 30 140t25 89.5t24.5 54.5t29.5 36q23 22 52 33t68 11q72 0 106 -43q13 -17 19.5 -41.5t6.5 -50.5q0 -11 -1 -22t-3 -25h-81q4 23 4 43q0 29 -12.5 47.5t-44.5 18.5q-35 0 -58 -23q-11 -11 -20 -26.5t-18 -44.5t-19.5 -76
t-25.5 -121q-17 -81 -25.5 -136t-8.5 -87q0 -68 59 -68q19 0 33 7t25 19q28 30 39 84h83q-11 -51 -27.5 -85.5t-47.5 -60.5q-21 -18 -48 -27.5t-65 -9.5q-39 0 -65 12t-42 35q-14 20 -20 41.5t-6 52.5zM288 856h76l-17 -80h-75z" />
    <glyph glyph-name="cdotaccent" unicode="&#x10b;" horiz-adv-x="340" 
d="M38 259q10 49 18.5 85t18 62.5t19.5 44.5t23 32q19 20 44.5 31.5t63.5 11.5q36 0 59 -11.5t36 -32.5q17 -28 17 -67q0 -8 -1 -18.5t-3 -22.5h-75q4 19 4 35q0 11 -2.5 20t-8.5 16q-6 6 -14 9.5t-20 3.5q-27 0 -48 -22q-17 -19 -29 -62t-26 -115q-10 -50 -16.5 -87.5
t-6.5 -58.5q0 -31 16 -44q12 -9 31 -9q11 0 22 3.5t20 11.5q14 13 21 29t12 40h76q-10 -42 -22 -67.5t-29 -42.5q-20 -20 -45.5 -31t-62.5 -11q-60 0 -90 38q-23 27 -23 80q0 44 21 149zM222 681h76l-17 -80h-75z" />
    <glyph glyph-name="Ccaron" unicode="&#x10c;" horiz-adv-x="400" 
d="M30 133q0 32 8.5 85.5t25.5 137.5q17 85 30 140t25 89.5t24.5 54.5t29.5 36q23 22 52 33t68 11q72 0 106 -43q13 -17 19.5 -41.5t6.5 -50.5q0 -11 -1 -22t-3 -25h-81q4 23 4 43q0 29 -12.5 47.5t-44.5 18.5q-35 0 -58 -23q-11 -11 -20 -26.5t-18 -44.5t-19.5 -76
t-25.5 -121q-17 -81 -25.5 -136t-8.5 -87q0 -68 59 -68q19 0 33 7t25 19q28 30 39 84h83q-11 -51 -27.5 -85.5t-47.5 -60.5q-21 -18 -48 -27.5t-65 -9.5q-39 0 -65 12t-42 35q-14 20 -20 41.5t-6 52.5zM214 887h57l40 -87l74 87h63l-114 -134h-60z" />
    <glyph glyph-name="ccaron" unicode="&#x10d;" horiz-adv-x="340" 
d="M38 259q10 49 18.5 85t18 62.5t19.5 44.5t23 32q19 20 44.5 31.5t63.5 11.5q36 0 59 -11.5t36 -32.5q17 -28 17 -67q0 -8 -1 -18.5t-3 -22.5h-75q4 19 4 35q0 11 -2.5 20t-8.5 16q-6 6 -14 9.5t-20 3.5q-27 0 -48 -22q-17 -19 -29 -62t-26 -115q-10 -50 -16.5 -87.5
t-6.5 -58.5q0 -31 16 -44q12 -9 31 -9q11 0 22 3.5t20 11.5q14 13 21 29t12 40h76q-10 -42 -22 -67.5t-29 -42.5q-20 -20 -45.5 -31t-62.5 -11q-60 0 -90 38q-23 27 -23 80q0 44 21 149zM149 712h57l40 -87l74 87h63l-114 -134h-60z" />
    <glyph glyph-name="Dcaron" unicode="&#x10e;" horiz-adv-x="424" 
d="M174 73q23 0 38.5 7t26.5 20q11 12 20 30.5t18 48t18.5 73t21.5 104.5q16 78 25 132t9 84q0 29 -14 48q-16 19 -48 19h-71l-113 -566h69zM151 712h152q42 0 66 -13t40 -37q24 -34 24 -89q0 -26 -8.5 -80.5t-25.5 -136.5q-16 -79 -28 -131.5t-23.5 -87t-24.5 -55.5
t-30 -37q-48 -45 -124 -45h-160zM207 887h57l40 -87l74 87h63l-114 -134h-60z" />
    <glyph glyph-name="dcaron" unicode="&#x10f;" horiz-adv-x="364" 
d="M37 259q11 55 20.5 93.5t18.5 65t18.5 43t21.5 28.5q18 17 39 27t50 10q18 0 31 -5t21 -12q15 -14 22 -27l46 230h76l-142 -712h-73l7 37q-6 -8 -16 -16.5t-18 -13.5q-23 -15 -53 -15q-24 0 -43.5 9t-32.5 29q-8 14 -12 30t-4 38q0 28 6 67.5t17 93.5zM113 259
q-11 -55 -16 -89.5t-5 -54.5q0 -26 10 -39q11 -16 34 -16q26 0 43 16q11 11 19 26t13 38l47 238q3 16 3 29q0 24 -12 38q-12 13 -33 13q-23 0 -45 -19q-17 -17 -30 -62.5t-28 -117.5zM467 730h61l-60 -144h-52z" />
    <glyph glyph-name="Dcroat" unicode="&#x110;" horiz-adv-x="456" 
d="M71 391h49l64 321h152q42 0 66 -13t40 -37q24 -34 24 -89q0 -26 -8.5 -80.5t-25.5 -136.5q-16 -79 -28 -131.5t-23.5 -87t-24.5 -55.5t-30 -37q-48 -45 -124 -45h-160l65 326h-49zM207 73q23 0 38.5 7t26.5 20q11 12 20 30.5t18 48t18.5 73t21.5 104.5q16 78 25 132t9 84
q0 29 -14 48q-16 19 -48 19h-71l-50 -248h76l-13 -65h-76l-50 -253h69z" />
    <glyph glyph-name="dcroat" unicode="&#x111;" horiz-adv-x="380" 
d="M227 635h82l16 77h76l-16 -77h50l-10 -51h-50l-116 -584h-73l7 37q-6 -8 -16 -16.5t-18 -13.5q-23 -15 -53 -15q-24 0 -43.5 9t-32.5 29q-8 14 -12 30t-4 38q0 28 6 67.5t17 93.5q11 55 20.5 93.5t18.5 65t18.5 43t21.5 28.5q18 17 39 27t50 10q18 0 31 -5t21 -12
q15 -14 22 -27l20 102h-82zM113 259q-11 -55 -16 -89.5t-5 -54.5q0 -26 10 -39q11 -16 34 -16q26 0 43 16q11 11 19 26t13 38l47 238q3 16 3 29q0 24 -12 38q-12 13 -33 13q-23 0 -45 -19q-17 -17 -30 -62.5t-28 -117.5z" />
    <glyph glyph-name="Emacron" unicode="&#x112;" horiz-adv-x="359" 
d="M151 712h260l-15 -73h-178l-48 -243h153l-15 -74h-153l-49 -249h177l-14 -73h-260zM201 837h214l-11 -54h-214z" />
    <glyph glyph-name="emacron" unicode="&#x113;" horiz-adv-x="349" 
d="M32 40q-15 28 -15 70q0 24 6.5 65.5t14.5 83.5q18 92 36 145t43 79q20 21 46 32t63 11q35 0 57 -12t34 -30q18 -27 18 -75q0 -32 -6.5 -73t-17.5 -95h-201q-8 -45 -13 -77t-5 -50q0 -26 12 -41q11 -13 33 -13q12 0 24 4t21 12q22 20 32 68h76q-9 -41 -20.5 -65.5
t-32.5 -45.5q-41 -41 -107 -41q-70 0 -98 48zM247 300q8 35 11 61t3 43q0 25 -10.5 39.5t-34.5 14.5q-12 0 -24 -5t-22 -17q-15 -17 -25 -47t-22 -89h124zM146 662h214l-11 -54h-214z" />
    <glyph glyph-name="Ebreve" unicode="&#x114;" horiz-adv-x="359" 
d="M151 712h260l-15 -73h-178l-48 -243h153l-15 -74h-153l-49 -249h177l-14 -73h-260zM423 863q-14 -60 -45 -84t-82 -24q-46 0 -70 23.5t-24 61.5v10q0 5 1 13h53v-8q0 -46 46 -46q23 0 41 12.5t26 41.5h54z" />
    <glyph glyph-name="ebreve" unicode="&#x115;" horiz-adv-x="349" 
d="M32 40q-15 28 -15 70q0 24 6.5 65.5t14.5 83.5q18 92 36 145t43 79q20 21 46 32t63 11q35 0 57 -12t34 -30q18 -27 18 -75q0 -32 -6.5 -73t-17.5 -95h-201q-8 -45 -13 -77t-5 -50q0 -26 12 -41q11 -13 33 -13q12 0 24 4t21 12q22 20 32 68h76q-9 -41 -20.5 -65.5
t-32.5 -45.5q-41 -41 -107 -41q-70 0 -98 48zM247 300q8 35 11 61t3 43q0 25 -10.5 39.5t-34.5 14.5q-12 0 -24 -5t-22 -17q-15 -17 -25 -47t-22 -89h124zM370 688q-14 -60 -45 -84t-82 -24q-46 0 -70 23.5t-24 61.5v10q0 5 1 13h53v-8q0 -46 46 -46q23 0 41 12.5t26 41.5
h54z" />
    <glyph glyph-name="Edotaccent" unicode="&#x116;" horiz-adv-x="359" 
d="M151 712h260l-15 -73h-178l-48 -243h153l-15 -74h-153l-49 -249h177l-14 -73h-260zM275 856h76l-17 -80h-75z" />
    <glyph glyph-name="edotaccent" unicode="&#x117;" horiz-adv-x="349" 
d="M32 40q-15 28 -15 70q0 24 6.5 65.5t14.5 83.5q18 92 36 145t43 79q20 21 46 32t63 11q35 0 57 -12t34 -30q18 -27 18 -75q0 -32 -6.5 -73t-17.5 -95h-201q-8 -45 -13 -77t-5 -50q0 -26 12 -41q11 -13 33 -13q12 0 24 4t21 12q22 20 32 68h76q-9 -41 -20.5 -65.5
t-32.5 -45.5q-41 -41 -107 -41q-70 0 -98 48zM247 300q8 35 11 61t3 43q0 25 -10.5 39.5t-34.5 14.5q-12 0 -24 -5t-22 -17q-15 -17 -25 -47t-22 -89h124zM222 681h76l-17 -80h-75z" />
    <glyph glyph-name="Eogonek" unicode="&#x118;" horiz-adv-x="359" 
d="M151 712h260l-15 -73h-178l-48 -243h153l-15 -74h-153l-49 -249h177l-14 -73h-260zM198 -38h55l-73 -142h-65z" />
    <glyph glyph-name="eogonek" unicode="&#x119;" horiz-adv-x="349" 
d="M32 40q-15 28 -15 70q0 24 6.5 65.5t14.5 83.5q18 92 36 145t43 79q20 21 46 32t63 11q35 0 57 -12t34 -30q18 -27 18 -75q0 -32 -6.5 -73t-17.5 -95h-201q-8 -45 -13 -77t-5 -50q0 -26 12 -41q11 -13 33 -13q12 0 24 4t21 12q22 20 32 68h76q-9 -41 -20.5 -65.5
t-32.5 -45.5q-41 -41 -107 -41q-70 0 -98 48zM247 300q8 35 11 61t3 43q0 25 -10.5 39.5t-34.5 14.5q-12 0 -24 -5t-22 -17q-15 -17 -25 -47t-22 -89h124zM138 -38h55l-73 -142h-65z" />
    <glyph glyph-name="Ecaron" unicode="&#x11a;" horiz-adv-x="359" 
d="M151 712h260l-15 -73h-178l-48 -243h153l-15 -74h-153l-49 -249h177l-14 -73h-260zM201 887h57l40 -87l74 87h63l-114 -134h-60z" />
    <glyph glyph-name="ecaron" unicode="&#x11b;" horiz-adv-x="349" 
d="M32 40q-15 28 -15 70q0 24 6.5 65.5t14.5 83.5q18 92 36 145t43 79q20 21 46 32t63 11q35 0 57 -12t34 -30q18 -27 18 -75q0 -32 -6.5 -73t-17.5 -95h-201q-8 -45 -13 -77t-5 -50q0 -26 12 -41q11 -13 33 -13q12 0 24 4t21 12q22 20 32 68h76q-9 -41 -20.5 -65.5
t-32.5 -45.5q-41 -41 -107 -41q-70 0 -98 48zM247 300q8 35 11 61t3 43q0 25 -10.5 39.5t-34.5 14.5q-12 0 -24 -5t-22 -17q-15 -17 -25 -47t-22 -89h124zM149 712h57l40 -87l74 87h63l-114 -134h-60z" />
    <glyph glyph-name="Gcircumflex" unicode="&#x11c;" horiz-adv-x="410" 
d="M348 171q-17 -91 -65 -135t-123 -44q-71 0 -104 47q-14 20 -20 41.5t-6 52.5q0 32 8.5 85.5t25.5 137.5q17 85 30 140t25 89.5t24.5 54.5t29.5 36q23 22 52 33t68 11q72 0 106 -43q13 -17 19.5 -41.5t6.5 -50.5q0 -11 -1 -22t-3 -25h-81q4 23 4 43q0 29 -12.5 47.5
t-44.5 18.5q-34 0 -57 -23q-12 -12 -21 -27.5t-18 -44t-19.5 -75.5t-25.5 -121q-17 -81 -25.5 -136t-8.5 -87q0 -68 57 -68q37 0 62 27t35 75l29 148h-74l13 67h155zM423 758h-58l-39 88l-74 -88h-64l114 134h61z" />
    <glyph glyph-name="gcircumflex" unicode="&#x11d;" horiz-adv-x="364" 
d="M39 267q11 54 20 90.5t17.5 62t18 41.5t21.5 28q18 17 39 27t50 10q32 0 52 -17q8 -7 13.5 -14.5t10.5 -16.5l8 40h73l-107 -536q-11 -57 -24 -90t-38 -55q-17 -15 -41.5 -25t-61.5 -10q-51 0 -82.5 29t-31.5 79q0 10 1 18t3 22h75q-2 -12 -2.5 -18.5t-0.5 -13.5
q0 -22 12 -35t35 -13q12 0 23.5 3.5t21.5 13.5q7 7 11 13.5t8 17t7.5 26.5t8.5 40l14 65q-14 -17 -31 -27q-11 -6 -24 -10t-29 -4q-24 0 -43.5 9t-32.5 29q-8 14 -12 30t-4 38q0 28 5.5 64.5t16.5 88.5zM115 267q-11 -52 -15.5 -84t-4.5 -53q0 -14 2.5 -22.5t7.5 -15.5
q6 -8 15 -12.5t21 -4.5q22 0 42 17q22 21 31 64l44 222q3 16 3 29q0 23 -12 37q-11 14 -33 14q-23 0 -45 -19q-17 -17 -29 -57.5t-27 -114.5zM357 583h-58l-39 88l-74 -88h-64l114 134h61z" />
    <glyph glyph-name="Gbreve" unicode="&#x11e;" horiz-adv-x="410" 
d="M348 171q-17 -91 -65 -135t-123 -44q-71 0 -104 47q-14 20 -20 41.5t-6 52.5q0 32 8.5 85.5t25.5 137.5q17 85 30 140t25 89.5t24.5 54.5t29.5 36q23 22 52 33t68 11q72 0 106 -43q13 -17 19.5 -41.5t6.5 -50.5q0 -11 -1 -22t-3 -25h-81q4 23 4 43q0 29 -12.5 47.5
t-44.5 18.5q-34 0 -57 -23q-12 -12 -21 -27.5t-18 -44t-19.5 -75.5t-25.5 -121q-17 -81 -25.5 -136t-8.5 -87q0 -68 57 -68q37 0 62 27t35 75l29 148h-74l13 67h155zM436 863q-14 -60 -45 -84t-82 -24q-46 0 -70 23.5t-24 61.5v10q0 5 1 13h53v-8q0 -46 46 -46q23 0 41 12.5
t26 41.5h54z" />
    <glyph glyph-name="gbreve" unicode="&#x11f;" horiz-adv-x="364" 
d="M39 267q11 54 20 90.5t17.5 62t18 41.5t21.5 28q18 17 39 27t50 10q32 0 52 -17q8 -7 13.5 -14.5t10.5 -16.5l8 40h73l-107 -536q-11 -57 -24 -90t-38 -55q-17 -15 -41.5 -25t-61.5 -10q-51 0 -82.5 29t-31.5 79q0 10 1 18t3 22h75q-2 -12 -2.5 -18.5t-0.5 -13.5
q0 -22 12 -35t35 -13q12 0 23.5 3.5t21.5 13.5q7 7 11 13.5t8 17t7.5 26.5t8.5 40l14 65q-14 -17 -31 -27q-11 -6 -24 -10t-29 -4q-24 0 -43.5 9t-32.5 29q-8 14 -12 30t-4 38q0 28 5.5 64.5t16.5 88.5zM115 267q-11 -52 -15.5 -84t-4.5 -53q0 -14 2.5 -22.5t7.5 -15.5
q6 -8 15 -12.5t21 -4.5q22 0 42 17q22 21 31 64l44 222q3 16 3 29q0 23 -12 37q-11 14 -33 14q-23 0 -45 -19q-17 -17 -29 -57.5t-27 -114.5zM370 688q-14 -60 -45 -84t-82 -24q-46 0 -70 23.5t-24 61.5v10q0 5 1 13h53v-8q0 -46 46 -46q23 0 41 12.5t26 41.5h54z" />
    <glyph glyph-name="Gdotaccent" unicode="&#x120;" horiz-adv-x="410" 
d="M348 171q-17 -91 -65 -135t-123 -44q-71 0 -104 47q-14 20 -20 41.5t-6 52.5q0 32 8.5 85.5t25.5 137.5q17 85 30 140t25 89.5t24.5 54.5t29.5 36q23 22 52 33t68 11q72 0 106 -43q13 -17 19.5 -41.5t6.5 -50.5q0 -11 -1 -22t-3 -25h-81q4 23 4 43q0 29 -12.5 47.5
t-44.5 18.5q-34 0 -57 -23q-12 -12 -21 -27.5t-18 -44t-19.5 -75.5t-25.5 -121q-17 -81 -25.5 -136t-8.5 -87q0 -68 57 -68q37 0 62 27t35 75l29 148h-74l13 67h155zM288 856h76l-17 -80h-75z" />
    <glyph glyph-name="gdotaccent" unicode="&#x121;" horiz-adv-x="364" 
d="M39 267q11 54 20 90.5t17.5 62t18 41.5t21.5 28q18 17 39 27t50 10q32 0 52 -17q8 -7 13.5 -14.5t10.5 -16.5l8 40h73l-107 -536q-11 -57 -24 -90t-38 -55q-17 -15 -41.5 -25t-61.5 -10q-51 0 -82.5 29t-31.5 79q0 10 1 18t3 22h75q-2 -12 -2.5 -18.5t-0.5 -13.5
q0 -22 12 -35t35 -13q12 0 23.5 3.5t21.5 13.5q7 7 11 13.5t8 17t7.5 26.5t8.5 40l14 65q-14 -17 -31 -27q-11 -6 -24 -10t-29 -4q-24 0 -43.5 9t-32.5 29q-8 14 -12 30t-4 38q0 28 5.5 64.5t16.5 88.5zM115 267q-11 -52 -15.5 -84t-4.5 -53q0 -14 2.5 -22.5t7.5 -15.5
q6 -8 15 -12.5t21 -4.5q22 0 42 17q22 21 31 64l44 222q3 16 3 29q0 23 -12 37q-11 14 -33 14q-23 0 -45 -19q-17 -17 -29 -57.5t-27 -114.5zM222 681h76l-17 -80h-75z" />
    <glyph glyph-name="Gcommaaccent" unicode="&#x122;" horiz-adv-x="410" 
d="M348 171q-17 -91 -65 -135t-123 -44q-71 0 -104 47q-14 20 -20 41.5t-6 52.5q0 32 8.5 85.5t25.5 137.5q17 85 30 140t25 89.5t24.5 54.5t29.5 36q23 22 52 33t68 11q72 0 106 -43q13 -17 19.5 -41.5t6.5 -50.5q0 -11 -1 -22t-3 -25h-81q4 23 4 43q0 29 -12.5 47.5
t-44.5 18.5q-34 0 -57 -23q-12 -12 -21 -27.5t-18 -44t-19.5 -75.5t-25.5 -121q-17 -81 -25.5 -136t-8.5 -87q0 -68 57 -68q37 0 62 27t35 75l29 148h-74l13 67h155zM126 -38h55l-73 -142h-65z" />
    <glyph glyph-name="gcommaaccent" unicode="&#x123;" horiz-adv-x="364" 
d="M39 267q11 54 20 90.5t17.5 62t18 41.5t21.5 28q18 17 39 27t50 10q32 0 52 -17q8 -7 13.5 -14.5t10.5 -16.5l8 40h73l-107 -536q-11 -57 -24 -90t-38 -55q-17 -15 -41.5 -25t-61.5 -10q-51 0 -82.5 29t-31.5 79q0 10 1 18t3 22h75q-2 -12 -2.5 -18.5t-0.5 -13.5
q0 -22 12 -35t35 -13q12 0 23.5 3.5t21.5 13.5q7 7 11 13.5t8 17t7.5 26.5t8.5 40l14 65q-14 -17 -31 -27q-11 -6 -24 -10t-29 -4q-24 0 -43.5 9t-32.5 29q-8 14 -12 30t-4 38q0 28 5.5 64.5t16.5 88.5zM115 267q-11 -52 -15.5 -84t-4.5 -53q0 -14 2.5 -22.5t7.5 -15.5
q6 -8 15 -12.5t21 -4.5q22 0 42 17q22 21 31 64l44 222q3 16 3 29q0 23 -12 37q-11 14 -33 14q-23 0 -45 -19q-17 -17 -29 -57.5t-27 -114.5zM269 583h-55l73 142h65z" />
    <glyph glyph-name="Hcircumflex" unicode="&#x124;" horiz-adv-x="433" 
d="M151 712h82l-63 -313h149l63 313h82l-142 -712h-82l65 325h-149l-65 -325h-82zM430 758h-58l-39 88l-74 -88h-64l114 134h61z" />
    <glyph glyph-name="hcircumflex" unicode="&#x125;" horiz-adv-x="372" 
d="M145 712h76l-46 -230q14 18 31 29q11 7 24 11t31 4q32 0 49 -12t27 -28q8 -13 11.5 -27.5t3.5 -32.5t-7 -52l-74 -374h-76l74 374q2 11 3 20.5t1 15.5q0 19 -11 33.5t-35 14.5q-23 0 -44 -18t-30 -66l-74 -374h-76zM306 757h-58l-39 88l-74 -88h-64l114 134h61z" />
    <glyph glyph-name="Hbar" unicode="&#x126;" horiz-adv-x="474" 
d="M99 586h47l25 126h82l-26 -126h149l26 126h82l-25 -126h47l-13 -65h-47l-104 -521h-82l65 325h-149l-65 -325h-82l104 521h-46zM339 399l24 122h-149l-24 -122h149z" />
    <glyph glyph-name="hbar" unicode="&#x127;" horiz-adv-x="390" 
d="M95 634h51l16 78h76l-16 -78h82l-10 -50h-82l-20 -102q14 18 31 29q11 7 24 11t31 4q32 0 49 -12t27 -28q8 -13 11.5 -27.5t3.5 -32.5t-7 -52l-74 -374h-76l74 374q2 11 3 20.5t1 15.5q0 19 -11 33.5t-35 14.5q-23 0 -44 -18t-30 -66l-74 -374h-76l116 584h-51z" />
    <glyph glyph-name="Itilde" unicode="&#x128;" horiz-adv-x="202" 
d="M151 712h82l-142 -712h-82zM86 817q24 21 41.5 29.5t36.5 8.5q18 0 29 -4t25 -13q11 -8 20 -11.5t21 -3.5q14 0 24 5.5t23 18.5l30 -38q-25 -22 -42 -30.5t-37 -8.5q-17 0 -28 4t-25 13q-11 8 -20 11.5t-22 3.5q-14 0 -23.5 -5.5t-23.5 -18.5z" />
    <glyph glyph-name="itilde" unicode="&#x129;" horiz-adv-x="183" 
d="M106 518h76l-103 -518h-76zM45 642q24 21 41.5 29.5t36.5 8.5q18 0 29 -4t25 -13q11 -8 20 -11.5t21 -3.5q14 0 24 5.5t23 18.5l30 -38q-25 -22 -42 -30.5t-37 -8.5q-17 0 -28 4t-25 13q-11 8 -20 11.5t-22 3.5q-14 0 -23.5 -5.5t-23.5 -18.5z" />
    <glyph glyph-name="Imacron" unicode="&#x12a;" horiz-adv-x="202" 
d="M151 712h82l-142 -712h-82zM109 837h214l-11 -54h-214z" />
    <glyph glyph-name="imacron" unicode="&#x12b;" horiz-adv-x="183" 
d="M106 518h76l-103 -518h-76zM65 662h214l-11 -54h-214z" />
    <glyph glyph-name="Ibreve" unicode="&#x12c;" horiz-adv-x="202" 
d="M151 712h82l-142 -712h-82zM330 863q-14 -60 -45 -84t-82 -24q-46 0 -70 23.5t-24 61.5v10q0 5 1 13h53v-8q0 -46 46 -46q23 0 41 12.5t26 41.5h54z" />
    <glyph glyph-name="ibreve" unicode="&#x12d;" horiz-adv-x="183" 
d="M106 518h76l-103 -518h-76zM289 688q-14 -60 -45 -84t-82 -24q-46 0 -70 23.5t-24 61.5v10q0 5 1 13h53v-8q0 -46 46 -46q23 0 41 12.5t26 41.5h54z" />
    <glyph glyph-name="Iogonek" unicode="&#x12e;" horiz-adv-x="202" 
d="M151 712h82l-142 -712h-82zM23 -38h55l-73 -142h-65z" />
    <glyph glyph-name="iogonek" unicode="&#x12f;" horiz-adv-x="183" 
d="M106 518h76l-103 -518h-76zM137 696h85l-18 -87h-85zM13 -38h55l-73 -142h-65z" />
    <glyph glyph-name="Idotaccent" unicode="&#x130;" horiz-adv-x="202" 
d="M151 712h82l-142 -712h-82zM183 856h76l-17 -80h-75z" />
    <glyph glyph-name="dotlessi" unicode="&#x131;" horiz-adv-x="183" 
d="M106 518h76l-103 -518h-76z" />
    <glyph glyph-name="IJ" unicode="&#x132;" horiz-adv-x="545" 
d="M151 712h82l-142 -712h-82zM236 98q23 -33 60 -33q73 0 96 111l107 536h82l-108 -541q-10 -51 -24.5 -81t-36.5 -52q-26 -26 -55 -36t-64 -10q-47 0 -75.5 16.5t-44.5 42.5z" />
    <glyph glyph-name="ij" unicode="&#x133;" horiz-adv-x="366" 
d="M106 518h76l-103 -518h-76zM137 696h85l-18 -87h-85zM289 518h76l-113 -565q-9 -45 -23 -71t-40 -46q-13 -10 -25.5 -16t-26 -9t-29.5 -4t-35 -1l14 67q38 1 59.5 21.5t30.5 64.5zM320 696h85l-18 -87h-85z" />
    <glyph glyph-name="Jcircumflex" unicode="&#x134;" horiz-adv-x="343" 
d="M34 98q23 -33 60 -33q73 0 96 111l107 536h82l-108 -541q-10 -51 -24.5 -81t-36.5 -52q-26 -26 -55 -36t-64 -10q-47 0 -75.5 16.5t-44.5 42.5zM459 758h-58l-39 88l-74 -88h-64l114 134h61z" />
    <glyph glyph-name="jcircumflex" unicode="&#x135;" horiz-adv-x="183" 
d="M106 518h76l-113 -565q-9 -45 -23 -71t-40 -46q-13 -10 -25.5 -16t-26 -9t-29.5 -4t-35 -1l14 67q38 1 59.5 21.5t30.5 64.5zM276 583h-58l-39 88l-74 -88h-64l114 134h61z" />
    <glyph glyph-name="Kcommaaccent" unicode="&#x136;" horiz-adv-x="415" 
d="M151 712h82l-69 -345l225 345h90l-194 -294l72 -418h-82l-57 328l-88 -129l-39 -199h-82zM137 -38h55l-73 -142h-65z" />
    <glyph glyph-name="kcommaaccent" unicode="&#x137;" horiz-adv-x="374" 
d="M145 712h76l-87 -434l183 240h85l-159 -206l66 -312h-76l-52 246l-72 -93l-30 -153h-76zM114 -38h55l-73 -142h-65z" />
    <glyph glyph-name="kgreenlandic" unicode="&#x138;" horiz-adv-x="374" 
d="M106 518h76l-48 -240l183 240h85l-159 -206l66 -312h-76l-52 247l-72 -94l-30 -153h-76z" />
    <glyph glyph-name="Lacute" unicode="&#x139;" horiz-adv-x="341" 
d="M151 712h82l-128 -639h178l-14 -73h-260zM259 892h72l-102 -134h-63z" />
    <glyph glyph-name="lacute" unicode="&#x13a;" horiz-adv-x="214" 
d="M49 34q-25 28 -25 72q0 17 4 40l113 566h76l-112 -561q-3 -18 -3 -32q0 -24 14.5 -37.5t44.5 -13.5l-13 -68q-38 0 -62 10t-37 24zM247 891h72l-102 -134h-63z" />
    <glyph glyph-name="Lcommaaccent" unicode="&#x13b;" horiz-adv-x="341" 
d="M151 712h82l-128 -639h178l-14 -73h-260zM115 -38h55l-73 -142h-65z" />
    <glyph glyph-name="lcommaaccent" unicode="&#x13c;" horiz-adv-x="214" 
d="M49 34q-25 28 -25 72q0 17 4 40l113 566h76l-112 -561q-3 -18 -3 -32q0 -24 14.5 -37.5t44.5 -13.5l-13 -68q-38 0 -62 10t-37 24zM55 -38h55l-73 -142h-65z" />
    <glyph glyph-name="Lcaron" unicode="&#x13d;" horiz-adv-x="341" 
d="M151 712h82l-128 -639h178l-14 -73h-260zM312 713h61l-60 -144h-52z" />
    <glyph glyph-name="lcaron" unicode="&#x13e;" horiz-adv-x="214" 
d="M49 34q-25 28 -25 72q0 17 4 40l113 566h76l-112 -561q-3 -18 -3 -32q0 -24 14.5 -37.5t44.5 -13.5l-13 -68q-38 0 -62 10t-37 24zM284 730h61l-60 -144h-52z" />
    <glyph glyph-name="Ldot" unicode="&#x13f;" horiz-adv-x="357" 
d="M151 712h82l-128 -639h178l-14 -73h-260zM265 399h76l-17 -80h-75z" />
    <glyph glyph-name="ldot" unicode="&#x140;" horiz-adv-x="272" 
d="M49 34q-25 28 -25 72q0 17 4 40l113 566h76l-112 -561q-3 -18 -3 -32q0 -24 14.5 -37.5t44.5 -13.5l-13 -68q-38 0 -62 10t-37 24zM203 345h76l-17 -80h-75z" />
    <glyph glyph-name="Lslash" unicode="&#x141;" horiz-adv-x="350" 
d="M72 276l-53 -42l16 80l53 43l71 355h82l-57 -283l107 85l-16 -81l-107 -84l-55 -276h178l-14 -73h-260z" />
    <glyph glyph-name="lslash" unicode="&#x142;" horiz-adv-x="240" 
d="M71 34q-25 28 -25 72q0 17 4 40l33 167l-65 -57l15 76l65 55l65 325h76l-51 -255l65 56l-14 -75l-66 -57l-46 -230q-3 -18 -3 -32q0 -24 14.5 -37.5t44.5 -13.5l-13 -68q-38 0 -62 10t-37 24z" />
    <glyph glyph-name="Nacute" unicode="&#x143;" horiz-adv-x="439" 
d="M151 712h71l72 -492l94 492h82l-142 -712h-68l-71 491l-98 -491h-82zM378 892h72l-102 -134h-63z" />
    <glyph glyph-name="nacute" unicode="&#x144;" horiz-adv-x="372" 
d="M106 518h73l-8 -39q16 20 35 32q11 7 24 11t31 4q32 0 49 -12t27 -28q8 -13 11.5 -27.5t3.5 -32.5t-7 -52l-74 -374h-76l74 374q2 11 3 20.5t1 15.5q0 19 -11 33.5t-35 14.5q-23 0 -44 -18t-30 -66l-74 -374h-76zM310 717h72l-102 -134h-63z" />
    <glyph glyph-name="Ncommaaccent" unicode="&#x145;" horiz-adv-x="439" 
d="M151 712h71l72 -492l94 492h82l-142 -712h-68l-71 491l-98 -491h-82zM137 -38h55l-73 -142h-65z" />
    <glyph glyph-name="ncommaaccent" unicode="&#x146;" horiz-adv-x="372" 
d="M106 518h73l-8 -39q16 20 35 32q11 7 24 11t31 4q32 0 49 -12t27 -28q8 -13 11.5 -27.5t3.5 -32.5t-7 -52l-74 -374h-76l74 374q2 11 3 20.5t1 15.5q0 19 -11 33.5t-35 14.5q-23 0 -44 -18t-30 -66l-74 -374h-76zM108 -38h55l-73 -142h-65z" />
    <glyph glyph-name="Ncaron" unicode="&#x147;" horiz-adv-x="439" 
d="M151 712h71l72 -492l94 492h82l-142 -712h-68l-71 491l-98 -491h-82zM228 887h57l40 -87l74 87h63l-114 -134h-60z" />
    <glyph glyph-name="ncaron" unicode="&#x148;" horiz-adv-x="372" 
d="M106 518h73l-8 -39q16 20 35 32q11 7 24 11t31 4q32 0 49 -12t27 -28q8 -13 11.5 -27.5t3.5 -32.5t-7 -52l-74 -374h-76l74 374q2 11 3 20.5t1 15.5q0 19 -11 33.5t-35 14.5q-23 0 -44 -18t-30 -66l-74 -374h-76zM160 712h57l40 -87l74 87h63l-114 -134h-60z" />
    <glyph glyph-name="napostrophe" unicode="&#x149;" horiz-adv-x="396" 
d="M130 518h73l-8 -39q16 20 35 32q11 7 24 11t31 4q32 0 49 -12t27 -28q8 -13 11.5 -27.5t3.5 -32.5t-7 -52l-74 -374h-76l74 374q2 11 3 20.5t1 15.5q0 19 -11 33.5t-35 14.5q-23 0 -44 -18t-30 -66l-74 -374h-76zM102 732h62l-24 -124l-72 -47z" />
    <glyph glyph-name="Eng" unicode="&#x14a;" horiz-adv-x="439" 
d="M151 712h70l72 -492l95 492h82l-149 -747q-8 -43 -24.5 -70.5t-39.5 -44.5q-26 -20 -52.5 -26.5t-55.5 -6.5l15 74q29 0 50.5 17t29.5 57l10 57l-66 469l-97 -491h-82z" />
    <glyph glyph-name="eng" unicode="&#x14b;" horiz-adv-x="372" 
d="M106 518h73l-8 -39q16 20 35 32q11 7 24 11t31 4q32 0 49 -12t27 -28q8 -13 11.5 -27.5t3.5 -32.5t-7 -52l-81 -409q-8 -43 -25.5 -70t-40.5 -44q-26 -20 -54 -26.5t-58 -6.5l13 68q33 0 57.5 19t32.5 63l80 406q2 11 3 20.5t1 15.5q0 19 -11 33.5t-35 14.5
q-23 0 -44 -18t-30 -66l-74 -374h-76z" />
    <glyph glyph-name="Omacron" unicode="&#x14c;" horiz-adv-x="417" 
d="M64 356q17 86 30 140.5t25 89.5t25 55t31 37q45 42 117 42q42 0 68.5 -13t42.5 -38q12 -19 17.5 -38.5t5.5 -48.5q0 -34 -8 -88t-25 -138q-18 -86 -31 -140.5t-25 -89.5t-24.5 -55t-30.5 -37q-45 -42 -117 -42q-42 0 -68.5 13t-42.5 38q-12 19 -18 38.5t-6 48.5
q0 34 8.5 88t25.5 138zM146 356q-17 -81 -25.5 -135.5t-8.5 -85.5q0 -29 13 -49.5t48 -20.5q32 0 55 23q11 10 20 26t18 45t19.5 76t25.5 121q16 81 24.5 135.5t8.5 85.5q0 29 -12.5 49.5t-47.5 20.5q-32 0 -55 -23q-11 -11 -20 -26.5t-18 -44.5t-19.5 -76.5t-25.5 -120.5z
M214 837h214l-11 -54h-214z" />
    <glyph glyph-name="omacron" unicode="&#x14d;" 
d="M239 259q10 50 16 87.5t6 57.5q0 25 -10 39q-12 15 -34 15q-29 0 -47 -21q-17 -19 -29 -60.5t-27 -117.5q-10 -50 -16 -87.5t-6 -57.5q0 -25 10 -39q12 -15 34 -15q29 0 47 21q17 19 29 60.5t27 117.5zM38 259q10 53 19.5 90t18.5 62.5t19 42t23 30.5q18 20 44 31t62 11
q69 0 96 -47q8 -14 11.5 -31t3.5 -42q0 -23 -4.5 -58.5t-15.5 -88.5t-20 -89.5t-18 -62t-19 -43t-23 -30.5q-18 -20 -44 -31t-62 -11q-69 0 -96 47q-8 14 -11.5 31t-3.5 42q0 23 4.5 58.5t15.5 88.5zM146 662h214l-11 -54h-214z" />
    <glyph glyph-name="Obreve" unicode="&#x14e;" horiz-adv-x="417" 
d="M64 356q17 86 30 140.5t25 89.5t25 55t31 37q45 42 117 42q42 0 68.5 -13t42.5 -38q12 -19 17.5 -38.5t5.5 -48.5q0 -34 -8 -88t-25 -138q-18 -86 -31 -140.5t-25 -89.5t-24.5 -55t-30.5 -37q-45 -42 -117 -42q-42 0 -68.5 13t-42.5 38q-12 19 -18 38.5t-6 48.5
q0 34 8.5 88t25.5 138zM146 356q-17 -81 -25.5 -135.5t-8.5 -85.5q0 -29 13 -49.5t48 -20.5q32 0 55 23q11 10 20 26t18 45t19.5 76t25.5 121q16 81 24.5 135.5t8.5 85.5q0 29 -12.5 49.5t-47.5 20.5q-32 0 -55 -23q-11 -11 -20 -26.5t-18 -44.5t-19.5 -76.5t-25.5 -120.5z
M436 863q-14 -60 -45 -84t-82 -24q-46 0 -70 23.5t-24 61.5v10q0 5 1 13h53v-8q0 -46 46 -46q23 0 41 12.5t26 41.5h54z" />
    <glyph glyph-name="obreve" unicode="&#x14f;" 
d="M239 259q10 50 16 87.5t6 57.5q0 25 -10 39q-12 15 -34 15q-29 0 -47 -21q-17 -19 -29 -60.5t-27 -117.5q-10 -50 -16 -87.5t-6 -57.5q0 -25 10 -39q12 -15 34 -15q29 0 47 21q17 19 29 60.5t27 117.5zM38 259q10 53 19.5 90t18.5 62.5t19 42t23 30.5q18 20 44 31t62 11
q69 0 96 -47q8 -14 11.5 -31t3.5 -42q0 -23 -4.5 -58.5t-15.5 -88.5t-20 -89.5t-18 -62t-19 -43t-23 -30.5q-18 -20 -44 -31t-62 -11q-69 0 -96 47q-8 14 -11.5 31t-3.5 42q0 23 4.5 58.5t15.5 88.5zM370 688q-14 -60 -45 -84t-82 -24q-46 0 -70 23.5t-24 61.5v10q0 5 1 13
h53v-8q0 -46 46 -46q23 0 41 12.5t26 41.5h54z" />
    <glyph glyph-name="Ohungarumlaut" unicode="&#x150;" horiz-adv-x="417" 
d="M64 356q17 86 30 140.5t25 89.5t25 55t31 37q45 42 117 42q42 0 68.5 -13t42.5 -38q12 -19 17.5 -38.5t5.5 -48.5q0 -34 -8 -88t-25 -138q-18 -86 -31 -140.5t-25 -89.5t-24.5 -55t-30.5 -37q-45 -42 -117 -42q-42 0 -68.5 13t-42.5 38q-12 19 -18 38.5t-6 48.5
q0 34 8.5 88t25.5 138zM146 356q-17 -81 -25.5 -135.5t-8.5 -85.5q0 -29 13 -49.5t48 -20.5q32 0 55 23q11 10 20 26t18 45t19.5 76t25.5 121q16 81 24.5 135.5t8.5 85.5q0 29 -12.5 49.5t-47.5 20.5q-32 0 -55 -23q-11 -11 -20 -26.5t-18 -44.5t-19.5 -76.5t-25.5 -120.5z
M287 893h68l-84 -135h-60zM416 893h68l-84 -135h-60z" />
    <glyph glyph-name="ohungarumlaut" unicode="&#x151;" 
d="M239 259q10 50 16 87.5t6 57.5q0 25 -10 39q-12 15 -34 15q-29 0 -47 -21q-17 -19 -29 -60.5t-27 -117.5q-10 -50 -16 -87.5t-6 -57.5q0 -25 10 -39q12 -15 34 -15q29 0 47 21q17 19 29 60.5t27 117.5zM38 259q10 53 19.5 90t18.5 62.5t19 42t23 30.5q18 20 44 31t62 11
q69 0 96 -47q8 -14 11.5 -31t3.5 -42q0 -23 -4.5 -58.5t-15.5 -88.5t-20 -89.5t-18 -62t-19 -43t-23 -30.5q-18 -20 -44 -31t-62 -11q-69 0 -96 47q-8 14 -11.5 31t-3.5 42q0 23 4.5 58.5t15.5 88.5zM221 718h68l-84 -135h-60zM350 718h68l-84 -135h-60z" />
    <glyph glyph-name="OE" unicode="&#x152;" horiz-adv-x="590" 
d="M64 356q16 81 29 135t25 89.5t25 57t31 38.5q24 23 52 33.5t65 10.5q28 0 50 -12.5t33 -32.5l7 37h261l-15 -73h-178l-49 -243h153l-14 -73h-153l-50 -250h178l-14 -73h-254l6 30q-14 -16 -37.5 -27t-52.5 -11q-40 0 -66.5 13.5t-41.5 37.5q-12 18 -18 37.5t-6 49.5
q0 34 8.5 88t25.5 138zM146 356q-16 -81 -25 -135.5t-9 -85.5q0 -29 12.5 -49.5t47.5 -20.5q36 0 60 27q10 12 19.5 31.5t18.5 50t19 75t22 107.5q17 81 25.5 135.5t8.5 85.5q0 29 -12.5 49.5t-47.5 20.5q-37 0 -59 -27q-11 -12 -20 -31.5t-18 -50t-19 -75t-23 -107.5z" />
    <glyph glyph-name="oe" unicode="&#x153;" horiz-adv-x="549" 
d="M38 259q10 53 19.5 90t18.5 62.5t19 42t23 30.5q18 20 44 31t62 11q68 0 91 -51q20 25 46.5 38t64.5 13q35 0 57 -12t34 -30q18 -27 18 -75q0 -32 -6.5 -73t-17.5 -95h-201q-8 -45 -13 -77t-5 -50q0 -26 12 -41q11 -13 33 -13q12 0 24 4t21 12q22 20 32 68h76
q-9 -41 -20.5 -65.5t-32.5 -45.5q-41 -41 -107 -41q-68 0 -93 50q-17 -23 -44.5 -36.5t-63.5 -13.5q-69 0 -96 47q-8 14 -11.5 31t-3.5 42q0 23 4.5 58.5t15.5 88.5zM239 259q10 50 16 87.5t6 57.5q0 25 -10 39q-12 15 -34 15q-29 0 -47 -21q-17 -19 -29 -60.5t-27 -117.5
q-10 -50 -16 -87.5t-6 -57.5q0 -25 10 -39q12 -15 34 -15q29 0 47 21q17 19 29 60.5t27 117.5zM447 300q8 35 11 61t3 43q0 25 -10.5 39.5t-34.5 14.5q-12 0 -24 -5t-22 -17q-15 -17 -25 -47t-22 -89h124z" />
    <glyph glyph-name="Racute" unicode="&#x154;" horiz-adv-x="430" 
d="M151 712h148q71 0 101.5 -33.5t30.5 -90.5q0 -17 -1.5 -36.5t-6.5 -42.5q-10 -47 -21.5 -79.5t-26 -54t-32.5 -34t-39 -20.5l38 -321h-82l-33 306h-75l-61 -306h-82zM235 378q40 0 65.5 29.5t40.5 101.5q7 34 7 63q0 32 -14 49.5t-50 17.5h-66l-52 -261h69zM356 892h72
l-102 -134h-63z" />
    <glyph glyph-name="racute" unicode="&#x155;" horiz-adv-x="256" 
d="M106 518h73l-11 -55q16 26 45 44q32 19 81 19l-14 -73h-23q-39 0 -69 -26.5t-39 -72.5l-70 -354h-76zM254 717h72l-102 -134h-63z" />
    <glyph glyph-name="Rcommaaccent" unicode="&#x156;" horiz-adv-x="430" 
d="M151 712h148q71 0 101.5 -33.5t30.5 -90.5q0 -17 -1.5 -36.5t-6.5 -42.5q-10 -47 -21.5 -79.5t-26 -54t-32.5 -34t-39 -20.5l38 -321h-82l-33 306h-75l-61 -306h-82zM235 378q40 0 65.5 29.5t40.5 101.5q7 34 7 63q0 32 -14 49.5t-50 17.5h-66l-52 -261h69zM137 -38h55
l-73 -142h-65z" />
    <glyph glyph-name="rcommaaccent" unicode="&#x157;" horiz-adv-x="256" 
d="M106 518h73l-11 -55q16 26 45 44q32 19 81 19l-14 -73h-23q-39 0 -69 -26.5t-39 -72.5l-70 -354h-76zM13 -38h55l-73 -142h-65z" />
    <glyph glyph-name="Rcaron" unicode="&#x158;" horiz-adv-x="430" 
d="M151 712h148q71 0 101.5 -33.5t30.5 -90.5q0 -17 -1.5 -36.5t-6.5 -42.5q-10 -47 -21.5 -79.5t-26 -54t-32.5 -34t-39 -20.5l38 -321h-82l-33 306h-75l-61 -306h-82zM235 378q40 0 65.5 29.5t40.5 101.5q7 34 7 63q0 32 -14 49.5t-50 17.5h-66l-52 -261h69zM206 887h57
l40 -87l74 87h63l-114 -134h-60z" />
    <glyph glyph-name="rcaron" unicode="&#x159;" horiz-adv-x="256" 
d="M106 518h73l-11 -55q16 26 45 44q32 19 81 19l-14 -73h-23q-39 0 -69 -26.5t-39 -72.5l-70 -354h-76zM104 712h57l40 -87l74 87h63l-114 -134h-60z" />
    <glyph glyph-name="Sacute" unicode="&#x15a;" horiz-adv-x="396" 
d="M103 187q-4 -18 -5 -32t-1 -26q0 -28 12 -43q8 -9 20.5 -15t29.5 -6q37 0 61 24q17 17 25.5 37.5t16.5 59.5q5 23 6.5 38.5t1.5 32.5q0 21 -11 37t-37 28l-65 31q-38 18 -54 43.5t-16 65.5q0 33 8 71q11 52 25.5 85.5t38.5 56.5q22 22 50.5 33.5t66.5 11.5q42 0 66.5 -11
t41.5 -31q12 -15 18.5 -34t6.5 -46q0 -15 -1.5 -32.5t-6.5 -39.5h-81q4 20 5 33.5t1 25.5q0 27 -11 42q-7 8 -17 14t-27 6q-30 0 -55 -23q-16 -14 -24.5 -35.5t-15.5 -55.5q-5 -25 -5 -50q0 -26 11 -40t30 -23l59 -28q47 -23 65.5 -49t18.5 -65q0 -38 -11 -93
q-12 -62 -26.5 -94.5t-38.5 -54.5q-23 -22 -53 -33t-73 -11t-68.5 10.5t-43.5 30.5q-27 30 -27 82q0 16 1.5 32.5t6.5 39.5h81zM353 892h72l-102 -134h-63z" />
    <glyph glyph-name="sacute" unicode="&#x15b;" horiz-adv-x="336" 
d="M26 31q-14 14 -19.5 33t-5.5 42q0 19 4 39h75q-3 -17 -3 -29q0 -25 12 -38q15 -18 43 -18q31 0 51 20q14 14 20.5 33t6.5 41q0 20 -9 37t-35 34l-47 30q-35 23 -49.5 47.5t-14.5 57.5q0 37 13 71.5t42 60.5q40 34 101 34q34 0 58 -10.5t38 -29.5q22 -28 22 -69
q0 -10 -1.5 -20t-3.5 -21h-73q4 17 4 30q0 21 -12 36q-13 16 -40 16t-45 -17q-27 -24 -27 -68q0 -38 37 -60l48 -29q38 -23 54 -51.5t16 -66.5q0 -45 -15.5 -80.5t-40.5 -56.5q-22 -20 -48 -28.5t-58 -8.5q-64 0 -98 39zM295 717h72l-102 -134h-63z" />
    <glyph glyph-name="Scircumflex" unicode="&#x15c;" horiz-adv-x="396" 
d="M103 187q-4 -18 -5 -32t-1 -26q0 -28 12 -43q8 -9 20.5 -15t29.5 -6q37 0 61 24q17 17 25.5 37.5t16.5 59.5q5 23 6.5 38.5t1.5 32.5q0 21 -11 37t-37 28l-65 31q-38 18 -54 43.5t-16 65.5q0 33 8 71q11 52 25.5 85.5t38.5 56.5q22 22 50.5 33.5t66.5 11.5q42 0 66.5 -11
t41.5 -31q12 -15 18.5 -34t6.5 -46q0 -15 -1.5 -32.5t-6.5 -39.5h-81q4 20 5 33.5t1 25.5q0 27 -11 42q-7 8 -17 14t-27 6q-30 0 -55 -23q-16 -14 -24.5 -35.5t-15.5 -55.5q-5 -25 -5 -50q0 -26 11 -40t30 -23l59 -28q47 -23 65.5 -49t18.5 -65q0 -38 -11 -93
q-12 -62 -26.5 -94.5t-38.5 -54.5q-23 -22 -53 -33t-73 -11t-68.5 10.5t-43.5 30.5q-27 30 -27 82q0 16 1.5 32.5t6.5 39.5h81zM412 758h-58l-39 88l-74 -88h-64l114 134h61z" />
    <glyph glyph-name="scircumflex" unicode="&#x15d;" horiz-adv-x="336" 
d="M26 31q-14 14 -19.5 33t-5.5 42q0 19 4 39h75q-3 -17 -3 -29q0 -25 12 -38q15 -18 43 -18q31 0 51 20q14 14 20.5 33t6.5 41q0 20 -9 37t-35 34l-47 30q-35 23 -49.5 47.5t-14.5 57.5q0 37 13 71.5t42 60.5q40 34 101 34q34 0 58 -10.5t38 -29.5q22 -28 22 -69
q0 -10 -1.5 -20t-3.5 -21h-73q4 17 4 30q0 21 -12 36q-13 16 -40 16t-45 -17q-27 -24 -27 -68q0 -38 37 -60l48 -29q38 -23 54 -51.5t16 -66.5q0 -45 -15.5 -80.5t-40.5 -56.5q-22 -20 -48 -28.5t-58 -8.5q-64 0 -98 39zM352 583h-58l-39 88l-74 -88h-64l114 134h61z" />
    <glyph glyph-name="Scedilla" unicode="&#x15e;" horiz-adv-x="396" 
d="M103 187q-4 -18 -5 -32t-1 -26q0 -28 12 -43q8 -9 20.5 -15t29.5 -6q37 0 61 24q17 17 25.5 37.5t16.5 59.5q5 23 6.5 38.5t1.5 32.5q0 21 -11 37t-37 28l-65 31q-38 18 -54 43.5t-16 65.5q0 33 8 71q11 52 25.5 85.5t38.5 56.5q22 22 50.5 33.5t66.5 11.5q42 0 66.5 -11
t41.5 -31q12 -15 18.5 -34t6.5 -46q0 -15 -1.5 -32.5t-6.5 -39.5h-81q4 20 5 33.5t1 25.5q0 27 -11 42q-7 8 -17 14t-27 6q-30 0 -55 -23q-16 -14 -24.5 -35.5t-15.5 -55.5q-5 -25 -5 -50q0 -26 11 -40t30 -23l59 -28q47 -23 65.5 -49t18.5 -65q0 -38 -11 -93
q-12 -62 -26.5 -94.5t-38.5 -54.5q-23 -22 -53 -33t-73 -11t-68.5 10.5t-43.5 30.5q-27 30 -27 82q0 16 1.5 32.5t6.5 39.5h81zM120 -38h55l-73 -142h-65z" />
    <glyph glyph-name="scedilla" unicode="&#x15f;" horiz-adv-x="336" 
d="M26 31q-14 14 -19.5 33t-5.5 42q0 19 4 39h75q-3 -17 -3 -29q0 -25 12 -38q15 -18 43 -18q31 0 51 20q14 14 20.5 33t6.5 41q0 20 -9 37t-35 34l-47 30q-35 23 -49.5 47.5t-14.5 57.5q0 37 13 71.5t42 60.5q40 34 101 34q34 0 58 -10.5t38 -29.5q22 -28 22 -69
q0 -10 -1.5 -20t-3.5 -21h-73q4 17 4 30q0 21 -12 36q-13 16 -40 16t-45 -17q-27 -24 -27 -68q0 -38 37 -60l48 -29q38 -23 54 -51.5t16 -66.5q0 -45 -15.5 -80.5t-40.5 -56.5q-22 -20 -48 -28.5t-58 -8.5q-64 0 -98 39zM95 -38h55l-73 -142h-65z" />
    <glyph glyph-name="Scaron" unicode="&#x160;" horiz-adv-x="396" 
d="M103 187q-4 -18 -5 -32t-1 -26q0 -28 12 -43q8 -9 20.5 -15t29.5 -6q37 0 61 24q17 17 25.5 37.5t16.5 59.5q5 23 6.5 38.5t1.5 32.5q0 21 -11 37t-37 28l-65 31q-38 18 -54 43.5t-16 65.5q0 33 8 71q11 52 25.5 85.5t38.5 56.5q22 22 50.5 33.5t66.5 11.5q42 0 66.5 -11
t41.5 -31q12 -15 18.5 -34t6.5 -46q0 -15 -1.5 -32.5t-6.5 -39.5h-81q4 20 5 33.5t1 25.5q0 27 -11 42q-7 8 -17 14t-27 6q-30 0 -55 -23q-16 -14 -24.5 -35.5t-15.5 -55.5q-5 -25 -5 -50q0 -26 11 -40t30 -23l59 -28q47 -23 65.5 -49t18.5 -65q0 -38 -11 -93
q-12 -62 -26.5 -94.5t-38.5 -54.5q-23 -22 -53 -33t-73 -11t-68.5 10.5t-43.5 30.5q-27 30 -27 82q0 16 1.5 32.5t6.5 39.5h81zM203 887h57l40 -87l74 87h63l-114 -134h-60z" />
    <glyph glyph-name="scaron" unicode="&#x161;" horiz-adv-x="336" 
d="M26 31q-14 14 -19.5 33t-5.5 42q0 19 4 39h75q-3 -17 -3 -29q0 -25 12 -38q15 -18 43 -18q31 0 51 20q14 14 20.5 33t6.5 41q0 20 -9 37t-35 34l-47 30q-35 23 -49.5 47.5t-14.5 57.5q0 37 13 71.5t42 60.5q40 34 101 34q34 0 58 -10.5t38 -29.5q22 -28 22 -69
q0 -10 -1.5 -20t-3.5 -21h-73q4 17 4 30q0 21 -12 36q-13 16 -40 16t-45 -17q-27 -24 -27 -68q0 -38 37 -60l48 -29q38 -23 54 -51.5t16 -66.5q0 -45 -15.5 -80.5t-40.5 -56.5q-22 -20 -48 -28.5t-58 -8.5q-64 0 -98 39zM145 712h57l40 -87l74 87h63l-114 -134h-60z" />
    <glyph glyph-name="Tcommaaccent" unicode="&#x162;" horiz-adv-x="347" 
d="M209 639h-113l15 73h307l-15 -73h-112l-128 -639h-82zM89 -38h55l-73 -142h-65z" />
    <glyph glyph-name="tcommaaccent" unicode="&#x163;" horiz-adv-x="244" 
d="M45 107q0 20 5 45l62 307h-55l11 59h55l28 141h76l-28 -141h76l-12 -59h-75l-61 -304q-2 -10 -3 -18.5t-1 -16.5q0 -52 64 -52l-13 -68q-38 0 -63.5 8.5t-40.5 25.5q-13 15 -19 31.5t-6 41.5zM69 -38h55l-73 -142h-65z" />
    <glyph glyph-name="Tcaron" unicode="&#x164;" horiz-adv-x="347" 
d="M209 639h-113l15 73h307l-15 -73h-112l-128 -639h-82zM180 887h57l40 -87l74 87h63l-114 -134h-60z" />
    <glyph glyph-name="tcaron" unicode="&#x165;" horiz-adv-x="244" 
d="M45 107q0 20 5 45l62 307h-55l11 59h55l28 141h76l-28 -141h76l-12 -59h-75l-61 -304q-2 -10 -3 -18.5t-1 -16.5q0 -52 64 -52l-13 -68q-38 0 -63.5 8.5t-40.5 25.5q-13 15 -19 31.5t-6 41.5zM304 730h61l-60 -144h-52z" />
    <glyph glyph-name="Tbar" unicode="&#x166;" horiz-adv-x="347" 
d="M111 712h307l-15 -73h-112l-50 -248h62l-13 -65h-62l-65 -326h-82l65 326h-62l13 65h62l50 248h-113z" />
    <glyph glyph-name="tbar" unicode="&#x167;" horiz-adv-x="266" 
d="M41 329h55l27 130h-55l11 59h55l28 141h76l-28 -141h76l-12 -59h-75l-26 -130h75l-11 -53h-75l-24 -121q-2 -10 -3 -18.5t-1 -16.5q0 -52 64 -52l-13 -68q-38 0 -63.5 8.5t-40.5 25.5q-13 15 -19 31.5t-6 41.5q0 20 5 45l25 124h-56z" />
    <glyph glyph-name="Utilde" unicode="&#x168;" horiz-adv-x="421" 
d="M145 712h82l-110 -548q-3 -17 -3 -34q0 -30 15 -47t45 -17q31 0 56 22.5t34 67.5l112 556h82l-112 -557q-9 -46 -24.5 -73.5t-39.5 -48.5q-22 -20 -50.5 -30.5t-69.5 -10.5q-63 0 -101 41q-14 17 -21.5 37.5t-7.5 50.5q0 14 1.5 28t3.5 23zM192 817q24 21 41.5 29.5
t36.5 8.5q18 0 29 -4t25 -13q11 -8 20 -11.5t21 -3.5q14 0 24 5.5t23 18.5l30 -38q-25 -22 -42 -30.5t-37 -8.5q-17 0 -28 4t-25 13q-11 8 -20 11.5t-22 3.5q-14 0 -23.5 -5.5t-23.5 -18.5z" />
    <glyph glyph-name="utilde" unicode="&#x169;" horiz-adv-x="371" 
d="M267 0h-73l8 39q-16 -20 -35 -32q-11 -7 -24 -11t-31 -4q-32 0 -49 12t-27 28q-8 13 -11.5 27.5t-3.5 32.5t7 52l74 374h76l-74 -374q-2 -11 -3 -20.5t-1 -15.5q0 -19 11 -33.5t35 -14.5q23 0 44 18t30 66l74 374h76zM133 642q24 21 41.5 29.5t36.5 8.5q18 0 29 -4
t25 -13q11 -8 20 -11.5t21 -3.5q14 0 24 5.5t23 18.5l30 -38q-25 -22 -42 -30.5t-37 -8.5q-17 0 -28 4t-25 13q-11 8 -20 11.5t-22 3.5q-14 0 -23.5 -5.5t-23.5 -18.5z" />
    <glyph glyph-name="Umacron" unicode="&#x16a;" horiz-adv-x="421" 
d="M145 712h82l-110 -548q-3 -17 -3 -34q0 -30 15 -47t45 -17q31 0 56 22.5t34 67.5l112 556h82l-112 -557q-9 -46 -24.5 -73.5t-39.5 -48.5q-22 -20 -50.5 -30.5t-69.5 -10.5q-63 0 -101 41q-14 17 -21.5 37.5t-7.5 50.5q0 14 1.5 28t3.5 23zM215 837h214l-11 -54h-214z
" />
    <glyph glyph-name="umacron" unicode="&#x16b;" horiz-adv-x="371" 
d="M267 0h-73l8 39q-16 -20 -35 -32q-11 -7 -24 -11t-31 -4q-32 0 -49 12t-27 28q-8 13 -11.5 27.5t-3.5 32.5t7 52l74 374h76l-74 -374q-2 -11 -3 -20.5t-1 -15.5q0 -19 11 -33.5t35 -14.5q23 0 44 18t30 66l74 374h76zM153 662h214l-11 -54h-214z" />
    <glyph glyph-name="Ubreve" unicode="&#x16c;" horiz-adv-x="421" 
d="M145 712h82l-110 -548q-3 -17 -3 -34q0 -30 15 -47t45 -17q31 0 56 22.5t34 67.5l112 556h82l-112 -557q-9 -46 -24.5 -73.5t-39.5 -48.5q-22 -20 -50.5 -30.5t-69.5 -10.5q-63 0 -101 41q-14 17 -21.5 37.5t-7.5 50.5q0 14 1.5 28t3.5 23zM437 863q-14 -60 -45 -84
t-82 -24q-46 0 -70 23.5t-24 61.5v10q0 5 1 13h53v-8q0 -46 46 -46q23 0 41 12.5t26 41.5h54z" />
    <glyph glyph-name="ubreve" unicode="&#x16d;" horiz-adv-x="371" 
d="M267 0h-73l8 39q-16 -20 -35 -32q-11 -7 -24 -11t-31 -4q-32 0 -49 12t-27 28q-8 13 -11.5 27.5t-3.5 32.5t7 52l74 374h76l-74 -374q-2 -11 -3 -20.5t-1 -15.5q0 -19 11 -33.5t35 -14.5q23 0 44 18t30 66l74 374h76zM377 688q-14 -60 -45 -84t-82 -24q-46 0 -70 23.5
t-24 61.5v10q0 5 1 13h53v-8q0 -46 46 -46q23 0 41 12.5t26 41.5h54z" />
    <glyph glyph-name="Uring" unicode="&#x16e;" horiz-adv-x="421" 
d="M145 712h82l-110 -548q-3 -17 -3 -34q0 -30 15 -47t45 -17q31 0 56 22.5t34 67.5l112 556h82l-112 -557q-9 -46 -24.5 -73.5t-39.5 -48.5q-22 -20 -50.5 -30.5t-69.5 -10.5q-63 0 -101 41q-14 17 -21.5 37.5t-7.5 50.5q0 14 1.5 28t3.5 23zM220 848q0 20 7.5 37.5
t20.5 31t30.5 21t37.5 7.5t37.5 -7.5t31 -21t21 -31t7.5 -37.5t-7.5 -37.5t-21 -30.5t-31 -20.5t-37.5 -7.5q-40 0 -68 28t-28 68zM266 848q0 -22 14 -37t36 -15t36 15t14 37t-14 37t-36 15t-36 -15t-14 -37z" />
    <glyph glyph-name="uring" unicode="&#x16f;" horiz-adv-x="371" 
d="M267 0h-73l8 39q-16 -20 -35 -32q-11 -7 -24 -11t-31 -4q-32 0 -49 12t-27 28q-8 13 -11.5 27.5t-3.5 32.5t7 52l74 374h76l-74 -374q-2 -11 -3 -20.5t-1 -15.5q0 -19 11 -33.5t35 -14.5q23 0 44 18t30 66l74 374h76zM164 680q0 20 7.5 37.5t20.5 31t30.5 21t37.5 7.5
t37.5 -7.5t31 -21t21 -31t7.5 -37.5t-7.5 -37.5t-21 -30.5t-31 -20.5t-37.5 -7.5q-40 0 -68 28t-28 68zM210 680q0 -22 14 -37t36 -15t36 15t14 37t-14 37t-36 15t-36 -15t-14 -37z" />
    <glyph glyph-name="Uhungarumlaut" unicode="&#x170;" horiz-adv-x="421" 
d="M145 712h82l-110 -548q-3 -17 -3 -34q0 -30 15 -47t45 -17q31 0 56 22.5t34 67.5l112 556h82l-112 -557q-9 -46 -24.5 -73.5t-39.5 -48.5q-22 -20 -50.5 -30.5t-69.5 -10.5q-63 0 -101 41q-14 17 -21.5 37.5t-7.5 50.5q0 14 1.5 28t3.5 23zM288 893h68l-84 -135h-60z
M417 893h68l-84 -135h-60z" />
    <glyph glyph-name="uhungarumlaut" unicode="&#x171;" horiz-adv-x="371" 
d="M267 0h-73l8 39q-16 -20 -35 -32q-11 -7 -24 -11t-31 -4q-32 0 -49 12t-27 28q-8 13 -11.5 27.5t-3.5 32.5t7 52l74 374h76l-74 -374q-2 -11 -3 -20.5t-1 -15.5q0 -19 11 -33.5t35 -14.5q23 0 44 18t30 66l74 374h76zM228 718h68l-84 -135h-60zM357 718h68l-84 -135h-60z
" />
    <glyph glyph-name="Uogonek" unicode="&#x172;" horiz-adv-x="421" 
d="M145 712h82l-110 -548q-3 -17 -3 -34q0 -30 15 -47t45 -17q31 0 56 22.5t34 67.5l112 556h82l-112 -557q-9 -46 -24.5 -73.5t-39.5 -48.5q-22 -20 -50.5 -30.5t-69.5 -10.5q-63 0 -101 41q-14 17 -21.5 37.5t-7.5 50.5q0 14 1.5 28t3.5 23zM195 -38h55l-73 -142h-65z" />
    <glyph glyph-name="uogonek" unicode="&#x173;" horiz-adv-x="371" 
d="M267 0h-73l8 39q-16 -20 -35 -32q-11 -7 -24 -11t-31 -4q-32 0 -49 12t-27 28q-8 13 -11.5 27.5t-3.5 32.5t7 52l74 374h76l-74 -374q-2 -11 -3 -20.5t-1 -15.5q0 -19 11 -33.5t35 -14.5q23 0 44 18t30 66l74 374h76zM200 -38h55l-73 -142h-65z" />
    <glyph glyph-name="Wcircumflex" unicode="&#x174;" horiz-adv-x="628" 
d="M100 712h87l-41 -575l214 575h89l-9 -575l183 575h86l-249 -712h-90l7 572l-216 -572h-90zM526 758h-58l-39 88l-74 -88h-64l114 134h61z" />
    <glyph glyph-name="wcircumflex" unicode="&#x175;" horiz-adv-x="509" 
d="M62 518h78l-20 -391l154 391h64l-3 -391l136 391h80l-203 -518h-71l3 383l-151 -383h-73zM429 583h-58l-39 88l-74 -88h-64l114 134h61z" />
    <glyph glyph-name="Ycircumflex" unicode="&#x176;" horiz-adv-x="334" 
d="M133 293l-38 419h85l15 -308l135 308h90l-207 -429l-56 -283h-82zM382 758h-58l-39 88l-74 -88h-64l114 134h61z" />
    <glyph glyph-name="ycircumflex" unicode="&#x177;" horiz-adv-x="324" 
d="M-57 -127q34 1 57 15.5t36 40.5l35 72l-15 517h79l-1 -396l155 396h86l-259 -601q-15 -36 -34 -57.5t-41.5 -33.5t-50.5 -16t-61 -4zM346 583h-58l-39 88l-74 -88h-64l114 134h61z" />
    <glyph glyph-name="Ydieresis" unicode="&#x178;" horiz-adv-x="334" 
d="M133 293l-38 419h85l15 -308l135 308h90l-207 -429l-56 -283h-82zM171 853h76l-16 -80h-76zM318 853h76l-16 -80h-76z" />
    <glyph glyph-name="Zacute" unicode="&#x179;" horiz-adv-x="330" 
d="M-11 61l301 578h-177l15 73h264l-12 -61l-301 -578h188l-14 -73h-276zM326 892h72l-102 -134h-63z" />
    <glyph glyph-name="zacute" unicode="&#x17a;" horiz-adv-x="287" 
d="M-19 56l229 394h-145l14 68h232l-11 -56l-232 -394h158l-13 -68h-243zM267 717h72l-102 -134h-63z" />
    <glyph glyph-name="Zdotaccent" unicode="&#x17b;" horiz-adv-x="330" 
d="M-11 61l301 578h-177l15 73h264l-12 -61l-301 -578h188l-14 -73h-276zM250 856h76l-17 -80h-75z" />
    <glyph glyph-name="zdotaccent" unicode="&#x17c;" horiz-adv-x="287" 
d="M-19 56l229 394h-145l14 68h232l-11 -56l-232 -394h158l-13 -68h-243zM190 681h76l-17 -80h-75z" />
    <glyph glyph-name="Zcaron" unicode="&#x17d;" horiz-adv-x="330" 
d="M-11 61l301 578h-177l15 73h264l-12 -61l-301 -578h188l-14 -73h-276zM176 887h57l40 -87l74 87h63l-114 -134h-60z" />
    <glyph glyph-name="zcaron" unicode="&#x17e;" horiz-adv-x="287" 
d="M-19 56l229 394h-145l14 68h232l-11 -56l-232 -394h158l-13 -68h-243zM117 712h57l40 -87l74 87h63l-114 -134h-60z" />
    <glyph glyph-name="longs" unicode="&#x17f;" horiz-adv-x="183" 
d="M116 568q8 42 22.5 70t40.5 47q24 18 50 24t68 6l-13 -67q-43 0 -64 -22t-29 -61l-112 -565h-76z" />
    <glyph glyph-name="uni018F" unicode="&#x18f;" horiz-adv-x="414" 
d="M312 383q14 72 21 119t7 75q0 29 -13.5 49.5t-48.5 20.5q-33 0 -57 -22q-16 -14 -25 -36t-15 -51h-82q11 47 26.5 83t45.5 62q44 37 115 37q42 0 67.5 -12t43.5 -37q14 -18 19.5 -39t5.5 -50q0 -34 -8 -87.5t-25 -138.5q-17 -86 -30 -140.5t-25 -89.5t-25 -55t-31 -37
q-45 -42 -117 -42q-42 0 -68.5 13t-42.5 38q-12 19 -18 38.5t-6 48.5q0 17 2.5 39t7 52.5t12 70t17.5 91.5h247zM134 316q-14 -72 -20 -114t-6 -67q0 -29 13 -49.5t48 -20.5q32 0 55 23q10 10 18 23.5t16.5 38.5t18 64.5t21.5 101.5h-164z" />
    <glyph glyph-name="florin" unicode="&#x192;" horiz-adv-x="343" 
d="M140 384l76 199q26 71 66.5 102t108.5 31h31l-14 -67h-29q-29 0 -52.5 -18t-36.5 -51l-75 -196h80l-11 -59h-91l-198 -520h-75l198 520h-53l12 59h63z" />
    <glyph glyph-name="uni01B5" unicode="&#x1b5;" horiz-adv-x="330" 
d="M84 391h78l128 248h-177l15 73h264l-12 -61l-135 -260h55l-13 -65h-78l-130 -253h188l-14 -73h-276l12 61l137 265h-55z" />
    <glyph glyph-name="uni01B6" unicode="&#x1b6;" horiz-adv-x="287" 
d="M47 296h73l90 154h-145l14 68h232l-11 -56l-98 -166h54l-11 -53h-74l-103 -175h158l-13 -68h-243l11 56l108 187h-53z" />
    <glyph glyph-name="uni01C4" unicode="&#x1c4;" horiz-adv-x="754" 
d="M174 73q23 0 38.5 7t26.5 20q11 12 20 30.5t18 48t18.5 73t21.5 104.5q16 78 25 132t9 84q0 29 -14 48q-16 19 -48 19h-71l-113 -566h69zM151 712h152q42 0 66 -13t40 -37q24 -34 24 -89q0 -26 -8.5 -80.5t-25.5 -136.5q-16 -79 -28 -131.5t-23.5 -87t-24.5 -55.5
t-30 -37q-48 -45 -124 -45h-160zM413 61l301 578h-177l15 73h264l-12 -61l-301 -578h188l-14 -73h-276zM599 887h57l40 -87l74 87h63l-114 -134h-60z" />
    <glyph glyph-name="uni01C5" unicode="&#x1c5;" horiz-adv-x="711" 
d="M174 73q23 0 38.5 7t26.5 20q11 12 20 30.5t18 48t18.5 73t21.5 104.5q16 78 25 132t9 84q0 29 -14 48q-16 19 -48 19h-71l-113 -566h69zM151 712h152q42 0 66 -13t40 -37q24 -34 24 -89q0 -26 -8.5 -80.5t-25.5 -136.5q-16 -79 -28 -131.5t-23.5 -87t-24.5 -55.5
t-30 -37q-48 -45 -124 -45h-160zM405 56l229 394h-145l14 68h232l-11 -56l-232 -394h158l-13 -68h-243zM539 712h57l40 -87l74 87h63l-114 -134h-60z" />
    <glyph glyph-name="uni01C6" unicode="&#x1c6;" horiz-adv-x="650" 
d="M344 56l229 394h-145l14 68h232l-11 -56l-232 -394h158l-13 -68h-243zM37 259q11 55 20.5 93.5t18.5 65t18.5 43t21.5 28.5q18 17 39 27t50 10q18 0 31 -5t21 -12q15 -14 22 -27l46 230h76l-142 -712h-73l7 37q-6 -8 -16 -16.5t-18 -13.5q-23 -15 -53 -15q-24 0 -43.5 9
t-32.5 29q-8 14 -12 30t-4 38q0 28 6 67.5t17 93.5zM113 259q-11 -55 -16 -89.5t-5 -54.5q0 -26 10 -39q11 -16 34 -16q26 0 43 16q11 11 19 26t13 38l47 238q3 16 3 29q0 24 -12 38q-12 13 -33 13q-23 0 -45 -19q-17 -17 -30 -62.5t-28 -117.5zM487 712h57l40 -87l74 87h63
l-114 -134h-60z" />
    <glyph glyph-name="uni01C7" unicode="&#x1c7;" horiz-adv-x="684" 
d="M151 712h82l-128 -639h178l-14 -73h-260zM375 98q23 -33 60 -33q73 0 96 111l107 536h82l-108 -541q-10 -51 -24.5 -81t-36.5 -52q-26 -26 -55 -36t-64 -10q-47 0 -75.5 16.5t-44.5 42.5z" />
    <glyph glyph-name="uni01C8" unicode="&#x1c8;" horiz-adv-x="524" 
d="M151 712h82l-128 -639h178l-14 -73h-260zM447 518h76l-113 -565q-9 -45 -23 -71t-40 -46q-13 -10 -25.5 -16t-26 -9t-29.5 -4t-35 -1l14 67q38 1 59.5 21.5t30.5 64.5zM478 696h85l-18 -87h-85z" />
    <glyph glyph-name="uni01C9" unicode="&#x1c9;" horiz-adv-x="397" 
d="M49 34q-25 28 -25 72q0 17 4 40l113 566h76l-112 -561q-3 -18 -3 -32q0 -24 14.5 -37.5t44.5 -13.5l-13 -68q-38 0 -62 10t-37 24zM320 518h76l-113 -565q-9 -45 -23 -71t-40 -46q-13 -10 -25.5 -16t-26 -9t-29.5 -4t-35 -1l14 67q38 1 59.5 21.5t30.5 64.5zM351 696h85
l-18 -87h-85z" />
    <glyph glyph-name="uni01CA" unicode="&#x1ca;" horiz-adv-x="782" 
d="M151 712h71l72 -492l94 492h82l-142 -712h-68l-71 491l-98 -491h-82zM473 98q23 -33 60 -33q73 0 96 111l107 536h82l-108 -541q-10 -51 -24.5 -81t-36.5 -52q-26 -26 -55 -36t-64 -10q-47 0 -75.5 16.5t-44.5 42.5z" />
    <glyph glyph-name="uni01CB" unicode="&#x1cb;" horiz-adv-x="622" 
d="M151 712h71l72 -492l94 492h82l-142 -712h-68l-71 491l-98 -491h-82zM545 518h76l-113 -565q-9 -45 -23 -71t-40 -46q-13 -10 -25.5 -16t-26 -9t-29.5 -4t-35 -1l14 67q38 1 59.5 21.5t30.5 64.5zM576 696h85l-18 -87h-85z" />
    <glyph glyph-name="uni01CC" unicode="&#x1cc;" horiz-adv-x="555" 
d="M106 518h73l-8 -39q16 20 35 32q11 7 24 11t31 4q32 0 49 -12t27 -28q8 -13 11.5 -27.5t3.5 -32.5t-7 -52l-74 -374h-76l74 374q2 11 3 20.5t1 15.5q0 19 -11 33.5t-35 14.5q-23 0 -44 -18t-30 -66l-74 -374h-76zM478 518h76l-113 -565q-9 -45 -23 -71t-40 -46
q-13 -10 -25.5 -16t-26 -9t-29.5 -4t-35 -1l14 67q38 1 59.5 21.5t30.5 64.5zM509 696h85l-18 -87h-85z" />
    <glyph glyph-name="uni01F1" unicode="&#x1f1;" horiz-adv-x="754" 
d="M174 73q23 0 38.5 7t26.5 20q11 12 20 30.5t18 48t18.5 73t21.5 104.5q16 78 25 132t9 84q0 29 -14 48q-16 19 -48 19h-71l-113 -566h69zM151 712h152q42 0 66 -13t40 -37q24 -34 24 -89q0 -26 -8.5 -80.5t-25.5 -136.5q-16 -79 -28 -131.5t-23.5 -87t-24.5 -55.5
t-30 -37q-48 -45 -124 -45h-160zM413 61l301 578h-177l15 73h264l-12 -61l-301 -578h188l-14 -73h-276z" />
    <glyph glyph-name="uni01F2" unicode="&#x1f2;" horiz-adv-x="711" 
d="M174 73q23 0 38.5 7t26.5 20q11 12 20 30.5t18 48t18.5 73t21.5 104.5q16 78 25 132t9 84q0 29 -14 48q-16 19 -48 19h-71l-113 -566h69zM151 712h152q42 0 66 -13t40 -37q24 -34 24 -89q0 -26 -8.5 -80.5t-25.5 -136.5q-16 -79 -28 -131.5t-23.5 -87t-24.5 -55.5
t-30 -37q-48 -45 -124 -45h-160zM405 56l229 394h-145l14 68h232l-11 -56l-232 -394h158l-13 -68h-243z" />
    <glyph glyph-name="uni01F3" unicode="&#x1f3;" horiz-adv-x="651" 
d="M37 259q11 55 20.5 93.5t18.5 65t18.5 43t21.5 28.5q18 17 39 27t50 10q18 0 31 -5t21 -12q15 -14 22 -27l46 230h76l-142 -712h-73l7 37q-6 -8 -16 -16.5t-18 -13.5q-23 -15 -53 -15q-24 0 -43.5 9t-32.5 29q-8 14 -12 30t-4 38q0 28 6 67.5t17 93.5zM113 259
q-11 -55 -16 -89.5t-5 -54.5q0 -26 10 -39q11 -16 34 -16q26 0 43 16q11 11 19 26t13 38l47 238q3 16 3 29q0 24 -12 38q-12 13 -33 13q-23 0 -45 -19q-17 -17 -30 -62.5t-28 -117.5zM345 56l229 394h-145l14 68h232l-11 -56l-232 -394h158l-13 -68h-243z" />
    <glyph glyph-name="Aringacute" unicode="&#x1fa;" horiz-adv-x="402" 
d="M265 0l1 169h-158l-68 -169h-86l299 712h80l14 -712h-82zM268 579l-130 -336h127zM401 1091h72l-102 -134h-63zM214 848q0 20 7.5 37.5t20.5 31t30.5 21t37.5 7.5t37.5 -7.5t31 -21t21 -31t7.5 -37.5t-7.5 -37.5t-21 -30.5t-31 -20.5t-37.5 -7.5q-40 0 -68 28t-28 68z
M260 848q0 -22 14 -37t36 -15t36 15t14 37t-14 37t-36 15t-36 -15t-14 -37z" />
    <glyph glyph-name="aringacute" unicode="&#x1fb;" 
d="M18 32q-16 25 -16 68q0 24 6 50q7 35 23.5 66t41.5 51q20 17 45 24t63 7h54l16 80q4 17 4 31q0 23 -11.5 36t-34.5 13q-25 0 -42 -16q-13 -11 -19 -26.5t-11 -36.5h-76q7 31 19 60.5t38 52.5q39 34 100 34q65 0 92 -36q11 -14 16 -31t5 -43q0 -10 -1.5 -22.5t-3.5 -21.5
l-74 -372h-72l8 43q-7 -9 -15 -17.5t-19 -16.5q-14 -10 -27.5 -13.5t-30.5 -3.5q-27 0 -45.5 9.5t-32.5 30.5zM81 115q0 -26 10.5 -40.5t33.5 -14.5q32 0 52.5 26t27.5 58l19 98h-40q-23 0 -35.5 -4t-26.5 -15q-20 -17 -30.5 -48t-10.5 -60zM157 680q0 20 7.5 37.5t20.5 31
t30.5 21t37.5 7.5t37.5 -7.5t31 -21t21 -31t7.5 -37.5t-7.5 -37.5t-21 -30.5t-31 -20.5t-37.5 -7.5q-40 0 -68 28t-28 68zM203 680q0 -22 14 -37t36 -15t36 15t14 37t-14 37t-36 15t-36 -15t-14 -37zM338 921h72l-102 -134h-63z" />
    <glyph glyph-name="AEacute" unicode="&#x1fc;" horiz-adv-x="605" 
d="M343 712h314l-15 -73h-178l-48 -243h153l-15 -74h-153l-49 -249h177l-14 -73h-260l35 174h-154l-93 -174h-90zM304 247l79 394l-208 -394h129zM502 892h72l-102 -134h-63z" />
    <glyph glyph-name="aeacute" unicode="&#x1fd;" horiz-adv-x="538" 
d="M319 -8q-33 0 -52 8t-30 19q-10 10 -15 19.5t-10 21.5q-11 -15 -20 -26t-20 -19q-16 -11 -34.5 -17t-41.5 -6q-27 0 -45.5 9.5t-32.5 30.5q-16 25 -16 68q0 24 6 50q7 35 23.5 66t41.5 51q20 17 45 24t63 7h54l16 80q4 17 4 31q0 23 -11.5 36t-34.5 13q-25 0 -42 -16
q-13 -11 -19 -26.5t-11 -36.5h-76q7 31 19 60.5t38 52.5q39 34 100 34q31 0 54 -10.5t37 -33.5q39 44 106 44q35 0 57 -12t34 -30q18 -27 18 -75q0 -32 -6.5 -73t-17.5 -95h-201q-8 -45 -13 -77t-5 -50q0 -26 12 -41q11 -13 33 -13q12 0 24 4t21 12q22 20 32 68h76
q-9 -41 -20.5 -65.5t-32.5 -45.5q-41 -41 -107 -41zM81 115q0 -26 10.5 -40.5t33.5 -14.5q32 0 52.5 26t27.5 58l19 98h-40q-23 0 -35.5 -4t-26.5 -15q-20 -17 -30.5 -48t-10.5 -60zM436 300q8 35 11 61t3 43q0 25 -10.5 39.5t-34.5 14.5q-12 0 -24 -5t-22 -17
q-15 -17 -25 -47t-22 -89h124zM386 717h72l-102 -134h-63z" />
    <glyph glyph-name="Oslashacute" unicode="&#x1fe;" horiz-adv-x="417" 
d="M64 356q17 86 30 140.5t25 89.5t25 55t31 37q45 42 117 42q50 0 83 -22l30 58h58l-53 -100q8 -16 12 -33t4 -41q0 -34 -8 -88t-25 -138q-18 -86 -31 -140.5t-25 -89.5t-24.5 -55t-30.5 -37q-45 -42 -117 -42q-27 0 -47.5 5.5t-35.5 15.5l-30 -57h-58l53 99
q-8 16 -12.5 33t-4.5 42q0 34 8.5 88t25.5 138zM311 356q11 57 18.5 100.5t11.5 75.5l-220 -441q7 -12 19.5 -19t32.5 -7q32 0 55 23q11 10 20 26t18 45t19.5 76t25.5 121zM146 356q-12 -57 -19.5 -100.5t-11.5 -75.5l220 441q-7 12 -19 19t-32 7q-32 0 -55 -23
q-11 -11 -19.5 -26.5t-17.5 -44.5t-20 -76.5t-26 -120.5zM364 892h72l-102 -134h-63z" />
    <glyph glyph-name="oslashacute" unicode="&#x1ff;" 
d="M38 259q10 53 19.5 90t18.5 62.5t19 42t23 30.5q18 20 44 31t62 11q43 0 70 -19l31 55h55l-55 -94q10 -23 10 -62q0 -23 -4.5 -58.5t-15.5 -88.5t-20 -89.5t-18 -62t-19 -43t-23 -30.5q-18 -20 -44 -31t-62 -11q-41 0 -70 18l-30 -54h-55l53 94q-9 24 -9 62
q0 23 4.5 58.5t15.5 88.5zM114 259q-12 -63 -18 -103l158 282l-3 5q-12 15 -34 15q-29 0 -47 -21q-17 -19 -29 -60.5t-27 -117.5zM239 259q6 32 11 59t8 48l-158 -288q0 -1 2 -3q12 -15 34 -15q29 0 47 21q17 19 29 60.5t27 117.5zM299 717h72l-102 -134h-63z" />
    <glyph glyph-name="Scommaaccent" unicode="&#x218;" horiz-adv-x="396" 
d="M103 187q-4 -18 -5 -32t-1 -26q0 -28 12 -43q8 -9 20.5 -15t29.5 -6q37 0 61 24q17 17 25.5 37.5t16.5 59.5q5 23 6.5 38.5t1.5 32.5q0 21 -11 37t-37 28l-65 31q-38 18 -54 43.5t-16 65.5q0 33 8 71q11 52 25.5 85.5t38.5 56.5q22 22 50.5 33.5t66.5 11.5q42 0 66.5 -11
t41.5 -31q12 -15 18.5 -34t6.5 -46q0 -15 -1.5 -32.5t-6.5 -39.5h-81q4 20 5 33.5t1 25.5q0 27 -11 42q-7 8 -17 14t-27 6q-30 0 -55 -23q-16 -14 -24.5 -35.5t-15.5 -55.5q-5 -25 -5 -50q0 -26 11 -40t30 -23l59 -28q47 -23 65.5 -49t18.5 -65q0 -38 -11 -93
q-12 -62 -26.5 -94.5t-38.5 -54.5q-23 -22 -53 -33t-73 -11t-68.5 10.5t-43.5 30.5q-27 30 -27 82q0 16 1.5 32.5t6.5 39.5h81zM120 -38h55l-73 -142h-65z" />
    <glyph glyph-name="scommaaccent" unicode="&#x219;" horiz-adv-x="336" 
d="M26 31q-14 14 -19.5 33t-5.5 42q0 19 4 39h75q-3 -17 -3 -29q0 -25 12 -38q15 -18 43 -18q31 0 51 20q14 14 20.5 33t6.5 41q0 20 -9 37t-35 34l-47 30q-35 23 -49.5 47.5t-14.5 57.5q0 37 13 71.5t42 60.5q40 34 101 34q34 0 58 -10.5t38 -29.5q22 -28 22 -69
q0 -10 -1.5 -20t-3.5 -21h-73q4 17 4 30q0 21 -12 36q-13 16 -40 16t-45 -17q-27 -24 -27 -68q0 -38 37 -60l48 -29q38 -23 54 -51.5t16 -66.5q0 -45 -15.5 -80.5t-40.5 -56.5q-22 -20 -48 -28.5t-58 -8.5q-64 0 -98 39zM95 -38h55l-73 -142h-65z" />
    <glyph glyph-name="uni021A" unicode="&#x21a;" horiz-adv-x="347" 
d="M209 639h-113l15 73h307l-15 -73h-112l-128 -639h-82zM89 -38h55l-73 -142h-65z" />
    <glyph glyph-name="uni021B" unicode="&#x21b;" horiz-adv-x="244" 
d="M45 107q0 20 5 45l62 307h-55l11 59h55l28 141h76l-28 -141h76l-12 -59h-75l-61 -304q-2 -10 -3 -18.5t-1 -16.5q0 -52 64 -52l-13 -68q-38 0 -63.5 8.5t-40.5 25.5q-13 15 -19 31.5t-6 41.5zM70 -38h55l-73 -142h-65z" />
    <glyph glyph-name="uni0237" unicode="&#x237;" horiz-adv-x="183" 
d="M106 518h76l-113 -565q-9 -45 -23 -71t-40 -46q-13 -10 -25.5 -16t-26 -9t-29.5 -4t-35 -1l14 67q38 1 59.5 21.5t30.5 64.5z" />
    <glyph glyph-name="uni0259" unicode="&#x259;" horiz-adv-x="349" 
d="M238 277q9 42 14 74t5 52q0 27 -13 41q-11 14 -33 14q-29 0 -48 -21q-21 -21 -29 -62h-74q8 35 21 64t39 52q20 19 45.5 27t54.5 8q63 0 93 -43q10 -14 14 -33.5t4 -41.5q0 -54 -20 -149q-10 -51 -20 -89t-20.5 -65.5t-22 -46.5t-24.5 -31q-20 -17 -44.5 -26t-57.5 -9
q-34 0 -55 11.5t-34 30.5q-19 26 -19 75q0 32 6.5 72.5t17.5 95.5h200zM102 218q-7 -35 -10.5 -61t-3.5 -43q0 -25 10.5 -39.5t34.5 -14.5q27 0 47 21q13 15 23.5 45t23.5 92h-125z" />
    <glyph glyph-name="uni02BB" unicode="&#x2bb;" horiz-adv-x="196" 
d="M145 712l101 69l-35 -177h-87z" />
    <glyph glyph-name="afii57929" unicode="&#x2bc;" horiz-adv-x="196" 
d="M145 712h87l-21 -108l-101 -69z" />
    <glyph glyph-name="circumflex" unicode="&#x2c6;" 
d="M357 583h-58l-39 88l-74 -88h-64l114 134h61z" />
    <glyph glyph-name="caron" unicode="&#x2c7;" 
d="M150 712h57l40 -87l74 87h63l-114 -134h-60z" />
    <glyph glyph-name="breve" unicode="&#x2d8;" 
d="M371 688q-14 -60 -45 -84t-82 -24q-46 0 -70 23.5t-24 61.5v10q0 5 1 13h53v-8q0 -46 46 -46q23 0 41 12.5t26 41.5h54z" />
    <glyph glyph-name="dotaccent" unicode="&#x2d9;" 
d="M223 681h76l-17 -80h-75z" />
    <glyph glyph-name="ring" unicode="&#x2da;" 
d="M157 680q0 20 7.5 37.5t20.5 31t30.5 21t37.5 7.5t37.5 -7.5t31 -21t21 -31t7.5 -37.5t-7.5 -37.5t-21 -30.5t-31 -20.5t-37.5 -7.5q-40 0 -68 28t-28 68zM203 680q0 -22 14 -37t36 -15t36 15t14 37t-14 37t-36 15t-36 -15t-14 -37z" />
    <glyph glyph-name="ogonek" unicode="&#x2db;" 
d="M100 -38h55l-73 -142h-65z" />
    <glyph glyph-name="tilde" unicode="&#x2dc;" 
d="M127 642q24 21 41.5 29.5t36.5 8.5q18 0 29 -4t25 -13q11 -8 20 -11.5t21 -3.5q14 0 24 5.5t23 18.5l30 -38q-25 -22 -42 -30.5t-37 -8.5q-17 0 -28 4t-25 13q-11 8 -20 11.5t-22 3.5q-14 0 -23.5 -5.5t-23.5 -18.5z" />
    <glyph glyph-name="hungarumlaut" unicode="&#x2dd;" horiz-adv-x="352" 
d="M222 718h68l-84 -135h-60zM351 718h68l-84 -135h-60z" />
    <glyph glyph-name="uni0394" unicode="&#x394;" horiz-adv-x="402" 
d="M253 712h79l14 -712h-392zM264 73l6 505l-196 -505h190z" />
    <glyph glyph-name="uni03A9" unicode="&#x3a9;" horiz-adv-x="417" 
d="M393 356q-18 -89 -32.5 -149.5t-32.5 -89.5q-10 -17 -21.5 -27.5t-25.5 -19.5h60l-14 -70h-145l13 61q17 8 31.5 23t25.5 37q14 32 27 87.5t32 147.5q16 81 24.5 135.5t8.5 85.5q0 29 -12.5 49.5t-47.5 20.5q-32 0 -55 -23q-11 -11 -20 -26.5t-18 -44.5t-19.5 -76.5
t-25.5 -120.5q-17 -87 -26.5 -142t-9.5 -85q0 -46 35 -68l-12 -61h-145l14 70h65q-17 14 -25.5 32t-8.5 50q0 31 8.5 81.5t22.5 122.5q17 86 30 140.5t25 89.5t25 55t31 37q45 42 117 42q42 0 68.5 -13t42.5 -38q12 -19 17.5 -38.5t5.5 -48.5q0 -34 -8 -88t-25 -138z" />
    <glyph glyph-name="uni03BC" unicode="&#x3bc;" horiz-adv-x="371" 
d="M102 518h76l-74 -374q-3 -15 -4 -23t-1 -13q0 -26 14.5 -37.5t29.5 -11.5q24 0 45 18t31 67l75 374h76l-103 -518h-73l7 39q-8 -11 -16.5 -18.5t-18.5 -14.5q-9 -6 -20.5 -9.5t-28.5 -3.5q-25 0 -44 14l-40 -202h-74z" />
    <glyph glyph-name="pi" unicode="&#x3c0;" horiz-adv-x="375" 
d="M106 518h268l-103 -518h-76l89 450h-116l-89 -450h-76z" />
    <glyph glyph-name="uni0400" unicode="&#x400;" horiz-adv-x="359" 
d="M151 712h260l-15 -73h-178l-48 -243h153l-15 -74h-153l-49 -249h177l-14 -73h-260zM219 894h66l39 -134h-57z" />
    <glyph glyph-name="afii10023" unicode="&#x401;" horiz-adv-x="359" 
d="M151 712h260l-15 -73h-178l-48 -243h153l-15 -74h-153l-49 -249h177l-14 -73h-260zM199 853h76l-16 -80h-76zM346 853h76l-16 -80h-76z" />
    <glyph glyph-name="afii10051" unicode="&#x402;" horiz-adv-x="467" 
d="M194 639h-97l14 73h306l-14 -73h-127l-43 -212h59q38 0 63 -9t42 -27t24 -41.5t7 -52.5q0 -17 -1.5 -39t-5.5 -41q-12 -61 -29 -102.5t-41 -67t-55.5 -36.5t-73.5 -11h-17l14 73h13q44 0 67 33t40 111q3 16 5 34.5t2 32.5q0 34 -15 52t-53 18h-59l-71 -354h-82z" />
    <glyph glyph-name="afii10052" unicode="&#x403;" horiz-adv-x="337" 
d="M151 712h255l-15 -73h-173l-127 -639h-82zM327 892h72l-102 -134h-63z" />
    <glyph glyph-name="afii10053" unicode="&#x404;" horiz-adv-x="400" 
d="M30 133q0 32 8.5 85.5t25.5 137.5q17 85 30 140t25 89.5t24.5 54.5t29.5 36q23 22 52 33t68 11q72 0 106 -43q13 -17 19.5 -41.5t6.5 -50.5q0 -11 -1 -22t-3 -25h-81q4 23 4 43q0 29 -12.5 47.5t-44.5 18.5q-18 0 -32 -5.5t-25 -16.5t-19 -24t-16.5 -37.5t-18 -64.5
t-22.5 -103h134l-15 -74h-134q-14 -72 -20.5 -116.5t-6.5 -72.5q0 -68 59 -68q19 0 33 7t25 19q28 30 39 84h83q-11 -51 -27.5 -85.5t-47.5 -60.5q-21 -18 -48 -27.5t-65 -9.5q-39 0 -65 12t-42 35q-14 20 -20 41.5t-6 52.5z" />
    <glyph glyph-name="afii10054" unicode="&#x405;" horiz-adv-x="396" 
d="M103 187q-4 -18 -5 -32t-1 -26q0 -28 12 -43q8 -9 20.5 -15t29.5 -6q37 0 61 24q17 17 25.5 37.5t16.5 59.5q5 23 6.5 38.5t1.5 32.5q0 21 -11 37t-37 28l-65 31q-38 18 -54 43.5t-16 65.5q0 33 8 71q11 52 25.5 85.5t38.5 56.5q22 22 50.5 33.5t66.5 11.5q42 0 66.5 -11
t41.5 -31q12 -15 18.5 -34t6.5 -46q0 -15 -1.5 -32.5t-6.5 -39.5h-81q4 20 5 33.5t1 25.5q0 27 -11 42q-7 8 -17 14t-27 6q-30 0 -55 -23q-16 -14 -24.5 -35.5t-15.5 -55.5q-5 -25 -5 -50q0 -26 11 -40t30 -23l59 -28q47 -23 65.5 -49t18.5 -65q0 -38 -11 -93
q-12 -62 -26.5 -94.5t-38.5 -54.5q-23 -22 -53 -33t-73 -11t-68.5 10.5t-43.5 30.5q-27 30 -27 82q0 16 1.5 32.5t6.5 39.5h81z" />
    <glyph glyph-name="afii10055" unicode="&#x406;" horiz-adv-x="202" 
d="M151 712h82l-142 -712h-82z" />
    <glyph glyph-name="afii10056" unicode="&#x407;" horiz-adv-x="202" 
d="M151 712h82l-142 -712h-82zM107 853h76l-16 -80h-76zM254 853h76l-16 -80h-76z" />
    <glyph glyph-name="afii10057" unicode="&#x408;" horiz-adv-x="343" 
d="M34 98q23 -33 60 -33q73 0 96 111l107 536h82l-108 -541q-10 -51 -24.5 -81t-36.5 -52q-26 -26 -55 -36t-64 -10q-47 0 -75.5 16.5t-44.5 42.5z" />
    <glyph glyph-name="afii10058" unicode="&#x409;" horiz-adv-x="674" 
d="M396 639h-126l-63 -319q-22 -109 -48 -172.5t-54.5 -96.5t-58.5 -42t-60 -9h-24l14 73h9q19 0 37.5 6t36.5 31.5t35.5 77.5t36.5 145l76 379h286l-59 -294h64q38 0 63 -8.5t42 -26.5q17 -17 24 -40.5t7 -52.5q0 -17 -2 -39t-6 -43q-13 -63 -31.5 -103.5t-42.5 -64
t-54.5 -32t-67.5 -8.5h-161zM433 73q21 0 38 6t30.5 21.5t24 41.5t18.5 66q3 15 5 34.5t2 34.5q0 34 -14.5 51t-52.5 17h-64l-54 -272h67z" />
    <glyph glyph-name="afii10059" unicode="&#x40a;" horiz-adv-x="647" 
d="M310 345h-150l-69 -345h-82l142 712h82l-59 -294h150l59 294h82l-59 -294h64q38 0 63 -8.5t42 -26.5q17 -17 24 -40.5t7 -52.5q0 -17 -2 -39t-6 -43q-13 -63 -31.5 -103.5t-42.5 -64t-54.5 -32t-67.5 -8.5h-161zM405 73q21 0 38 6t30.5 21.5t24 41.5t18.5 66q3 15 5 34.5
t2 34.5q0 34 -14.5 51t-52.5 17h-64l-54 -272h67z" />
    <glyph glyph-name="afii10060" unicode="&#x40b;" horiz-adv-x="470" 
d="M193 639h-97l15 73h306l-15 -73h-127l-42 -212h57q73 0 107.5 -30t34.5 -89q0 -18 -3 -38.5t-7 -37.5l-46 -232h-82l46 232q4 18 5 31.5t1 29.5q0 30 -16 45.5t-54 15.5h-57l-71 -354h-82z" />
    <glyph glyph-name="afii10061" unicode="&#x40c;" horiz-adv-x="425" 
d="M167 369l235 343h92l-242 -344l113 -368h-89zM151 712h82l-142 -712h-82zM380 892h72l-102 -134h-63z" />
    <glyph glyph-name="uni040D" unicode="&#x40d;" horiz-adv-x="442" 
d="M151 712h82l-98 -488l267 488h71l-142 -712h-82l97 488l-265 -488h-72zM249 894h66l39 -134h-57z" />
    <glyph glyph-name="afii10062" unicode="&#x40e;" horiz-adv-x="370" 
d="M-3 73q21 0 36 3t27.5 11.5t22.5 23t21 37.5l38 82l-48 482h84l24 -368l168 368h88l-290 -590q-19 -38 -34.5 -61.5t-35 -37t-46.5 -18.5t-69 -5zM247 862q-1 -5 -1 -10q0 -22 12.5 -32.5t33.5 -10.5q23 0 41 12t27 41h55q-14 -56 -44 -81.5t-84 -25.5q-47 0 -72 23.5
t-25 61.5v9q0 5 2 13h55z" />
    <glyph glyph-name="afii10145" unicode="&#x40f;" horiz-adv-x="433" 
d="M151 712h82l-128 -639h149l128 639h82l-142 -712h-119l-29 -142h-75l29 142h-119z" />
    <glyph glyph-name="afii10017" unicode="&#x410;" horiz-adv-x="402" 
d="M265 0l1 169h-158l-68 -169h-86l299 712h80l14 -712h-82zM268 579l-130 -336h127z" />
    <glyph glyph-name="afii10018" unicode="&#x411;" horiz-adv-x="414" 
d="M151 712h285l-14 -73h-204l-44 -221h64q38 0 63 -8.5t42 -26.5q17 -17 24 -40.5t7 -52.5q0 -17 -2 -39t-6 -43q-13 -63 -31.5 -103.5t-42.5 -64t-54.5 -32t-67.5 -8.5h-161zM173 73q21 0 38 6t30.5 21.5t24 41.5t18.5 66q3 15 5 34.5t2 34.5q0 34 -14.5 51t-52.5 17h-64
l-54 -272h67z" />
    <glyph glyph-name="afii10019" unicode="&#x412;" horiz-adv-x="420" 
d="M151 712h136q38 0 64.5 -8.5t43.5 -30.5q26 -33 26 -81q0 -14 -1.5 -31t-5.5 -37q-8 -39 -21 -72.5t-39 -56.5q-11 -9 -21 -14.5t-21 -10.5q10 -3 20 -10.5t16 -15.5q21 -28 21 -71q0 -16 -1.5 -34t-6.5 -39q-7 -34 -14 -59t-15.5 -43.5t-19 -32.5t-22.5 -25
q-26 -24 -56.5 -32t-78.5 -8h-146zM164 73q47 0 74 28t42 102q3 17 5 31t2 27q0 74 -74 74h-55l-53 -262h59zM223 405q44 0 70 27t38 89q3 15 5 28t2 26q0 32 -15 48t-51 16h-54l-46 -234h51z" />
    <glyph glyph-name="afii10020" unicode="&#x413;" horiz-adv-x="337" 
d="M151 712h255l-15 -73h-173l-127 -639h-82z" />
    <glyph glyph-name="afii10021" unicode="&#x414;" horiz-adv-x="477" 
d="M18 73q41 73 73 161t54 200l56 278h289l-128 -639h53l-40 -200h-79l26 127h-282l-26 -127h-78l39 200h43zM280 73l113 566h-127l-46 -231q-20 -100 -49 -181.5t-67 -153.5h176z" />
    <glyph glyph-name="afii10022" unicode="&#x415;" horiz-adv-x="359" 
d="M151 712h260l-15 -73h-178l-48 -243h153l-15 -74h-153l-49 -249h177l-14 -73h-260z" />
    <glyph glyph-name="afii10024" unicode="&#x416;" horiz-adv-x="637" 
d="M216 383l-100 329h85l99 -341l-255 -371h-94zM386 370l231 342h95l-240 -347l103 -365h-86zM370 712h82l-142 -712h-82z" />
    <glyph glyph-name="afii10025" unicode="&#x417;" horiz-adv-x="398" 
d="M45 29q-17 18 -24.5 43.5t-7.5 54.5q0 11 1.5 22.5t3.5 24.5h83q-5 -25 -5 -42q0 -34 14 -49q15 -18 46 -18q35 0 58 23q19 20 27.5 47.5t16.5 64.5q4 20 6 34.5t2 25.5q0 28 -13 47q-8 10 -19 15.5t-29 5.5h-59l15 72h54q34 0 55 22q15 15 24 35.5t18 64.5q4 20 6 36.5
t2 27.5q0 27 -12 42q-14 19 -41 19q-33 0 -54 -22q-17 -17 -25 -39t-13 -48h-81q8 45 23.5 81t41.5 61q23 21 51 30.5t64 9.5q68 0 100 -38q14 -17 21 -38t7 -44q0 -14 -2 -33.5t-7 -42.5q-5 -27 -10 -45.5t-11 -32.5t-13 -25t-17 -23q-18 -21 -46 -35q25 -15 38.5 -41
t13.5 -58q0 -24 -9 -69q-7 -33 -13 -57t-14 -42.5t-18.5 -33.5t-25.5 -29q-42 -41 -117 -41q-34 0 -60 8.5t-46 28.5z" />
    <glyph glyph-name="afii10026" unicode="&#x418;" horiz-adv-x="442" 
d="M151 712h82l-98 -488l267 488h71l-142 -712h-82l97 488l-265 -488h-72z" />
    <glyph glyph-name="afii10027" unicode="&#x419;" horiz-adv-x="442" 
d="M151 712h82l-98 -488l267 488h71l-142 -712h-82l97 488l-265 -488h-72zM286 862q-1 -5 -1 -10q0 -22 12.5 -32.5t33.5 -10.5q23 0 41 12t27 41h55q-14 -56 -44 -81.5t-84 -25.5q-47 0 -72 23.5t-25 61.5v9q0 5 2 13h55z" />
    <glyph glyph-name="afii10028" unicode="&#x41a;" horiz-adv-x="425" 
d="M167 369l235 343h92l-242 -344l113 -368h-89zM151 712h82l-142 -712h-82z" />
    <glyph glyph-name="afii10029" unicode="&#x41b;" horiz-adv-x="463" 
d="M-24 73h9q21 0 40 9t37 37t34.5 79t33.5 135l76 379h288l-142 -712h-82l127 639h-127l-62 -313q-22 -108 -44 -172.5t-48.5 -98.5t-58 -44.5t-71.5 -10.5h-24z" />
    <glyph glyph-name="afii10030" unicode="&#x41c;" horiz-adv-x="544" 
d="M151 712h77l57 -388l213 388h77l-142 -712h-82l99 500l-168 -319h-51l-39 322l-101 -503h-82z" />
    <glyph glyph-name="afii10031" unicode="&#x41d;" horiz-adv-x="433" 
d="M151 712h82l-63 -313h149l63 313h82l-142 -712h-82l65 325h-149l-65 -325h-82z" />
    <glyph glyph-name="afii10032" unicode="&#x41e;" horiz-adv-x="417" 
d="M64 356q17 86 30 140.5t25 89.5t25 55t31 37q45 42 117 42q42 0 68.5 -13t42.5 -38q12 -19 17.5 -38.5t5.5 -48.5q0 -34 -8 -88t-25 -138q-18 -86 -31 -140.5t-25 -89.5t-24.5 -55t-30.5 -37q-45 -42 -117 -42q-42 0 -68.5 13t-42.5 38q-12 19 -18 38.5t-6 48.5
q0 34 8.5 88t25.5 138zM146 356q-17 -81 -25.5 -135.5t-8.5 -85.5q0 -29 13 -49.5t48 -20.5q32 0 55 23q11 10 20 26t18 45t19.5 76t25.5 121q16 81 24.5 135.5t8.5 85.5q0 29 -12.5 49.5t-47.5 20.5q-32 0 -55 -23q-11 -11 -20 -26.5t-18 -44.5t-19.5 -76.5t-25.5 -120.5z
" />
    <glyph glyph-name="afii10033" unicode="&#x41f;" horiz-adv-x="433" 
d="M151 712h313l-142 -712h-82l127 639h-149l-127 -639h-82z" />
    <glyph glyph-name="afii10034" unicode="&#x420;" horiz-adv-x="411" 
d="M151 712h143q38 0 62.5 -8.5t41.5 -25.5t24.5 -41t7.5 -53q0 -17 -1.5 -38t-6.5 -42q-13 -64 -31.5 -104.5t-42.5 -63.5t-54.5 -31.5t-66.5 -8.5h-77l-59 -296h-82zM229 369q21 0 37.5 6t30 21.5t24.5 41.5t19 66q8 37 8 67q0 34 -15 51t-52 17h-63l-54 -270h65z" />
    <glyph glyph-name="afii10035" unicode="&#x421;" horiz-adv-x="400" 
d="M30 133q0 32 8.5 85.5t25.5 137.5q17 85 30 140t25 89.5t24.5 54.5t29.5 36q23 22 52 33t68 11q72 0 106 -43q13 -17 19.5 -41.5t6.5 -50.5q0 -11 -1 -22t-3 -25h-81q4 23 4 43q0 29 -12.5 47.5t-44.5 18.5q-35 0 -58 -23q-11 -11 -20 -26.5t-18 -44.5t-19.5 -76
t-25.5 -121q-17 -81 -25.5 -136t-8.5 -87q0 -68 59 -68q19 0 33 7t25 19q28 30 39 84h83q-11 -51 -27.5 -85.5t-47.5 -60.5q-21 -18 -48 -27.5t-65 -9.5q-39 0 -65 12t-42 35q-14 20 -20 41.5t-6 52.5z" />
    <glyph glyph-name="afii10036" unicode="&#x422;" horiz-adv-x="347" 
d="M209 639h-113l15 73h307l-15 -73h-112l-128 -639h-82z" />
    <glyph glyph-name="afii10037" unicode="&#x423;" horiz-adv-x="370" 
d="M-3 73q21 0 36 3t27.5 11.5t22.5 23t21 37.5l38 82l-48 482h84l24 -368l168 368h88l-290 -590q-19 -38 -34.5 -61.5t-35 -37t-46.5 -18.5t-69 -5z" />
    <glyph glyph-name="afii10038" unicode="&#x424;" horiz-adv-x="541" 
d="M195 80q-78 4 -114 45.5t-36 109.5q0 31 5 66t14 77q18 84 37 140t46.5 90.5t67.5 49.5t99 18l13 65h80l-14 -65q78 -4 114.5 -45t36.5 -110q0 -30 -5 -65.5t-13 -77.5q-17 -81 -35.5 -136.5t-47 -90.5t-69 -51.5t-100.5 -19.5l-17 -84h-79zM128 247q0 -45 18 -68t66 -25
l89 449q-33 -2 -56.5 -14.5t-41.5 -39t-31.5 -68.5t-25.5 -103q-8 -41 -13 -73t-5 -58zM288 154q32 1 56 13.5t42 39t32 68.5t26 103q8 41 12.5 73t4.5 58q0 46 -18 69t-66 25z" />
    <glyph glyph-name="afii10039" unicode="&#x425;" horiz-adv-x="379" 
d="M162 374l-49 338h88l25 -256l127 256h92l-189 -345l58 -367h-88l-34 280l-135 -280h-92z" />
    <glyph glyph-name="afii10040" unicode="&#x426;" horiz-adv-x="451" 
d="M151 712h82l-128 -639h149l128 639h82l-127 -639h52l-43 -212h-79l28 139h-286z" />
    <glyph glyph-name="afii10041" unicode="&#x427;" horiz-adv-x="424" 
d="M281 255q-23 -4 -39 -5.5t-38 -1.5q-125 0 -125 107q0 11 2.5 28t6.5 37l59 292h82l-59 -290q-2 -12 -3.5 -24.5t-1.5 -22.5q0 -53 58 -53q21 0 37.5 1.5t35.5 4.5l77 384h82l-142 -712h-82z" />
    <glyph glyph-name="afii10042" unicode="&#x428;" horiz-adv-x="636" 
d="M151 712h82l-128 -639h135l128 639h82l-128 -639h135l128 639h82l-142 -712h-516z" />
    <glyph glyph-name="afii10043" unicode="&#x429;" horiz-adv-x="654" 
d="M151 712h82l-128 -639h135l128 639h82l-128 -639h135l128 639h82l-127 -639h51l-43 -212h-79l28 139h-488z" />
    <glyph glyph-name="afii10044" unicode="&#x42a;" horiz-adv-x="474" 
d="M111 712h182l-59 -294h64q38 0 63 -8.5t42 -26.5q17 -17 24 -40.5t7 -52.5q0 -17 -2 -39t-6 -43q-13 -63 -31.5 -103.5t-42.5 -64t-54.5 -32t-67.5 -8.5h-161l127 639h-100zM233 73q21 0 38 6t30.5 21.5t24 41.5t18.5 66q3 15 5 34.5t2 34.5q0 34 -14.5 51t-52.5 17h-64
l-54 -272h67z" />
    <glyph glyph-name="afii10045" unicode="&#x42b;" horiz-adv-x="578" 
d="M151 712h82l-59 -294h64q38 0 63 -8.5t42 -26.5q17 -17 24 -40.5t7 -52.5q0 -17 -2 -39t-6 -43q-13 -63 -31.5 -103.5t-42.5 -64t-54.5 -32t-67.5 -8.5h-161zM173 73q21 0 38 6t30.5 21.5t24 41.5t18.5 66q3 15 5 34.5t2 34.5q0 34 -14.5 51t-52.5 17h-64l-54 -272h67z
M527 712h82l-142 -712h-82z" />
    <glyph glyph-name="afii10046" unicode="&#x42c;" horiz-adv-x="414" 
d="M151 712h82l-59 -294h64q38 0 63 -8.5t42 -26.5q17 -17 24 -40.5t7 -52.5q0 -17 -2 -39t-6 -43q-13 -63 -31.5 -103.5t-42.5 -64t-54.5 -32t-67.5 -8.5h-161zM173 73q21 0 38 6t30.5 21.5t24 41.5t18.5 66q3 15 5 34.5t2 34.5q0 34 -14.5 51t-52.5 17h-64l-54 -272h67z
" />
    <glyph glyph-name="afii10047" unicode="&#x42d;" horiz-adv-x="400" 
d="M169 396h133q13 69 19.5 112.5t6.5 70.5q0 68 -59 68q-36 0 -57 -23q-17 -17 -25.5 -37t-14.5 -49h-81q9 47 25 83t47 62q43 37 114 37q40 0 65.5 -12t41.5 -35q14 -20 20 -41.5t6 -52.5q0 -32 -8.5 -85t-25.5 -138q-18 -87 -30.5 -142t-24.5 -89.5t-24.5 -53.5
t-29.5 -35q-46 -44 -118 -44q-34 0 -61.5 9t-44.5 29q-17 19 -24 43t-7 53q0 11 1 22.5t4 25.5h83q-3 -12 -4 -22t-1 -21q0 -33 15 -49q14 -17 44 -17q34 0 57 23q10 10 18.5 24t17 39t18 66t22.5 105h-133z" />
    <glyph glyph-name="afii10048" unicode="&#x42e;" horiz-adv-x="596" 
d="M151 712h82l-63 -313h78q15 72 26.5 118.5t23 77t24 49t29.5 34.5q45 42 117 42q42 0 68.5 -13t42.5 -38q12 -19 17.5 -38.5t5.5 -48.5q0 -34 -8 -88t-25 -138q-18 -86 -31 -140.5t-25 -89.5t-24.5 -55t-30.5 -37q-45 -42 -117 -42q-42 0 -68.5 13t-42.5 38
q-12 19 -18 38.5t-6 48.5q0 30 7 77.5t21 117.5h-78l-65 -325h-82zM322 356q-17 -81 -25.5 -135.5t-8.5 -85.5q0 -29 13 -49.5t48 -20.5q32 0 55 23q11 10 20 26t18 45t19.5 76t25.5 121q16 81 24.5 135.5t8.5 85.5q0 29 -12.5 49.5t-47.5 20.5q-32 0 -55 -23
q-11 -11 -20 -26.5t-18 -44.5t-19.5 -76.5t-25.5 -120.5z" />
    <glyph glyph-name="afii10049" unicode="&#x42f;" horiz-adv-x="430" 
d="M153 325q-30 17 -41.5 45.5t-11.5 66.5q0 25 9 72q13 63 30 102.5t40.5 62t55 30.5t72.5 8h154l-143 -712h-82l62 307h-70l-158 -307h-88zM191 509q-4 -18 -6 -33.5t-2 -29.5q0 -36 15.5 -52t50.5 -16h63l52 261h-64q-20 0 -36.5 -5.5t-30 -20t-24 -40t-18.5 -64.5z" />
    <glyph glyph-name="afii10065" unicode="&#x430;" 
d="M18 32q-16 25 -16 68q0 24 6 50q7 35 23.5 66t41.5 51q20 17 45 24t63 7h54l16 80q4 17 4 31q0 23 -11.5 36t-34.5 13q-25 0 -42 -16q-13 -11 -19 -26.5t-11 -36.5h-76q7 31 19 60.5t38 52.5q39 34 100 34q65 0 92 -36q11 -14 16 -31t5 -43q0 -10 -1.5 -22.5t-3.5 -21.5
l-74 -372h-72l8 43q-7 -9 -15 -17.5t-19 -16.5q-14 -10 -27.5 -13.5t-30.5 -3.5q-27 0 -45.5 9.5t-32.5 30.5zM81 115q0 -26 10.5 -40.5t33.5 -14.5q32 0 52.5 26t27.5 58l19 98h-40q-23 0 -35.5 -4t-26.5 -15q-20 -17 -30.5 -48t-10.5 -60z" />
    <glyph glyph-name="afii10066" unicode="&#x431;" horiz-adv-x="357" 
d="M43 259q19 99 33.5 163t27 105.5t24 65t26.5 41.5q16 20 37.5 35t49.5 25t64.5 15t83.5 6l-13 -67q-58 -1 -96 -11.5t-63 -38.5q-19 -22 -31 -49.5t-23 -65.5q20 20 40 29t44 9q31 0 49 -12.5t29 -31.5q8 -13 11.5 -29.5t3.5 -41.5q0 -45 -21 -147q-11 -53 -20 -90
t-18 -62.5t-19 -42.5t-22 -30q-19 -20 -44.5 -31t-62.5 -11q-69 0 -96 47q-8 14 -11.5 31t-3.5 42q0 23 5 58.5t16 88.5zM119 259q-10 -50 -16 -87.5t-6 -57.5q0 -12 2 -21.5t8 -17.5q5 -7 13 -11t21 -4q27 0 47 21q17 19 28.5 60.5t26.5 117.5q10 49 16 86.5t6 57.5
q0 13 -2 22.5t-8 17.5q-10 15 -34 15q-28 0 -47 -22q-17 -19 -28.5 -60t-26.5 -117z" />
    <glyph glyph-name="afii10067" unicode="&#x432;" horiz-adv-x="359" 
d="M106 518h124q38 0 60.5 -8t36.5 -25q11 -14 15 -28t4 -34q0 -8 -1 -18t-3 -22q-7 -35 -17 -56.5t-30 -39.5q-8 -7 -17.5 -12t-16.5 -7q8 -3 16.5 -9.5t13.5 -12.5q10 -11 13.5 -24.5t3.5 -33.5q0 -9 -1 -19t-3 -22q-9 -50 -22.5 -75.5t-32.5 -42.5q-32 -29 -110 -29h-136
zM188 298q32 0 51 17.5t27 58.5q3 18 3 30q0 26 -12.5 36t-38.5 10h-51l-31 -152h52zM143 68q36 0 55.5 17t29.5 64q4 17 4 33q0 55 -56 55h-52l-34 -169h53z" />
    <glyph glyph-name="afii10068" unicode="&#x433;" horiz-adv-x="295" 
d="M106 518h226l-13 -68h-151l-89 -450h-76z" />
    <glyph glyph-name="afii10069" unicode="&#x434;" horiz-adv-x="413" 
d="M-25 68h42q18 32 31.5 60t25 59.5t21 70t20.5 92.5l33 168h251l-90 -450h44l-39 -194h-70l25 126h-238l-25 -126h-70zM233 68l76 382h-100l-22 -112q-10 -50 -20 -88t-21 -69.5t-23.5 -58.5t-27.5 -54h138z" />
    <glyph glyph-name="afii10070" unicode="&#x435;" horiz-adv-x="349" 
d="M32 40q-15 28 -15 70q0 24 6.5 65.5t14.5 83.5q18 92 36 145t43 79q20 21 46 32t63 11q35 0 57 -12t34 -30q18 -27 18 -75q0 -32 -6.5 -73t-17.5 -95h-201q-8 -45 -13 -77t-5 -50q0 -26 12 -41q11 -13 33 -13q12 0 24 4t21 12q22 20 32 68h76q-9 -41 -20.5 -65.5
t-32.5 -45.5q-41 -41 -107 -41q-70 0 -98 48zM247 300q8 35 11 61t3 43q0 25 -10.5 39.5t-34.5 14.5q-12 0 -24 -5t-22 -17q-15 -17 -25 -47t-22 -89h124z" />
    <glyph glyph-name="afii10072" unicode="&#x436;" horiz-adv-x="543" 
d="M157 280l-84 238h79l82 -247l-194 -271h-89zM314 268l180 250h88l-190 -254l89 -264h-81zM285 518h76l-103 -518h-76z" />
    <glyph glyph-name="afii10073" unicode="&#x437;" horiz-adv-x="335" 
d="M80 142q-2 -10 -2.5 -17t-0.5 -13q0 -23 9.5 -37.5t36.5 -14.5t46.5 16t30.5 56q4 13 6 27t2 23q0 23 -13 37q-8 8 -18 11.5t-29 3.5h-34l13 61h31q18 0 31 4.5t20 10.5q18 15 26.5 42t8.5 51q0 23 -9 39t-35 16q-25 0 -42 -15q-24 -23 -32 -67h-75q9 38 21 65t35 48
q19 17 44.5 27t55.5 10q33 0 54 -8.5t37 -25.5q24 -27 24 -67q0 -9 -1 -20t-4 -25q-8 -35 -16.5 -53t-23.5 -33q-17 -17 -41 -28q9 -5 17 -11t13 -14q8 -11 13 -24.5t5 -29.5q0 -10 -1 -22t-4 -27q-10 -49 -25 -74.5t-41 -44.5q-20 -15 -43 -21t-55 -6q-28 0 -50.5 7.5
t-36.5 22.5t-20.5 36.5t-6.5 46.5q0 7 0.5 16t2.5 21h76z" />
    <glyph glyph-name="afii10074" unicode="&#x438;" horiz-adv-x="383" 
d="M106 518h76l-69 -340l203 340h66l-103 -518h-76l67 340l-201 -340h-66z" />
    <glyph glyph-name="afii10075" unicode="&#x439;" horiz-adv-x="383" 
d="M106 518h76l-69 -340l203 340h66l-103 -518h-76l67 340l-201 -340h-66zM217 687q-1 -5 -1 -10q0 -22 12.5 -32.5t34.5 -10.5q23 0 41 12t26 41h55q-14 -56 -44 -81.5t-84 -25.5q-47 0 -72 23t-25 61q0 5 0.5 10t1.5 13h55z" />
    <glyph glyph-name="afii10076" unicode="&#x43a;" horiz-adv-x="365" 
d="M134 269l179 249h85l-186 -253l91 -265h-80zM106 518h76l-103 -518h-76z" />
    <glyph glyph-name="afii10077" unicode="&#x43b;" horiz-adv-x="396" 
d="M-25 67h11q17 0 31 6.5t26.5 24t23 47.5t19.5 77l59 296h250l-103 -518h-76l89 450h-100l-49 -244q-12 -63 -28 -103t-36.5 -63t-46.5 -31.5t-60 -8.5h-23z" />
    <glyph glyph-name="afii10078" unicode="&#x43c;" horiz-adv-x="467" 
d="M106 518h70l53 -275l167 275h70l-103 -518h-76l69 343l-123 -199h-45l-39 205l-70 -349h-76z" />
    <glyph glyph-name="afii10079" unicode="&#x43d;" horiz-adv-x="373" 
d="M106 518h76l-44 -219h114l44 219h76l-103 -518h-76l45 231h-114l-45 -231h-76z" />
    <glyph glyph-name="afii10080" unicode="&#x43e;" 
d="M239 259q10 50 16 87.5t6 57.5q0 25 -10 39q-12 15 -34 15q-29 0 -47 -21q-17 -19 -29 -60.5t-27 -117.5q-10 -50 -16 -87.5t-6 -57.5q0 -25 10 -39q12 -15 34 -15q29 0 47 21q17 19 29 60.5t27 117.5zM38 259q10 53 19.5 90t18.5 62.5t19 42t23 30.5q18 20 44 31t62 11
q69 0 96 -47q8 -14 11.5 -31t3.5 -42q0 -23 -4.5 -58.5t-15.5 -88.5t-20 -89.5t-18 -62t-19 -43t-23 -30.5q-18 -20 -44 -31t-62 -11q-69 0 -96 47q-8 14 -11.5 31t-3.5 42q0 23 4.5 58.5t15.5 88.5z" />
    <glyph glyph-name="afii10081" unicode="&#x43f;" horiz-adv-x="373" 
d="M106 518h266l-103 -518h-76l89 450h-114l-89 -450h-76z" />
    <glyph glyph-name="afii10082" unicode="&#x440;" horiz-adv-x="364" 
d="M327 259q-11 -56 -20 -94.5t-18 -65t-18.5 -42.5t-21.5 -28q-19 -18 -40 -27.5t-50 -9.5q-34 0 -51 17q-14 11 -22 27l-46 -230h-76l142 712h73l-7 -37q6 8 15.5 16.5t17.5 13.5q23 15 54 15q50 0 75 -39q16 -26 16 -67q0 -29 -6 -68t-17 -93zM251 259q11 55 16 89.5
t5 54.5q0 25 -9 39q-13 16 -35 16q-23 0 -43 -17q-22 -19 -31 -63l-47 -238q-3 -18 -3 -29q0 -26 11 -38q12 -13 34 -13q25 0 44 19q18 17 31 62.5t27 117.5z" />
    <glyph glyph-name="afii10083" unicode="&#x441;" horiz-adv-x="340" 
d="M38 259q10 49 18.5 85t18 62.5t19.5 44.5t23 32q19 20 44.5 31.5t63.5 11.5q36 0 59 -11.5t36 -32.5q17 -28 17 -67q0 -8 -1 -18.5t-3 -22.5h-75q4 19 4 35q0 11 -2.5 20t-8.5 16q-6 6 -14 9.5t-20 3.5q-27 0 -48 -22q-17 -19 -29 -62t-26 -115q-10 -50 -16.5 -87.5
t-6.5 -58.5q0 -31 16 -44q12 -9 31 -9q11 0 22 3.5t20 11.5q14 13 21 29t12 40h76q-10 -42 -22 -67.5t-29 -42.5q-20 -20 -45.5 -31t-62.5 -11q-60 0 -90 38q-23 27 -23 80q0 44 21 149z" />
    <glyph glyph-name="afii10084" unicode="&#x442;" horiz-adv-x="292" 
d="M147 450h-93l14 68h261l-14 -68h-92l-90 -450h-76z" />
    <glyph glyph-name="afii10085" unicode="&#x443;" horiz-adv-x="324" 
d="M-57 -127q34 1 57 15.5t36 40.5l35 72l-15 517h79l-1 -396l155 396h86l-259 -601q-15 -36 -34 -57.5t-41.5 -33.5t-50.5 -16t-61 -4z" />
    <glyph glyph-name="afii10086" unicode="&#x444;" horiz-adv-x="485" 
d="M43 50q-11 17 -16 35t-5 46q0 32 4 60.5t12 67.5q9 47 18.5 82t19.5 60.5t21 43t25 29.5t27.5 21t29 14.5t34.5 8.5t45 4l38 190h75l-38 -190q32 -1 61 -13.5t47 -39.5q11 -17 17.5 -37t6.5 -46q0 -30 -4 -59.5t-12 -67.5q-9 -48 -19 -83.5t-20.5 -61t-22.5 -43
t-25 -29.5q-25 -23 -54.5 -34t-79.5 -13l-38 -189h-75l38 189q-36 2 -64.5 15.5t-45.5 39.5zM241 63q19 0 36 7t31 18q23 20 37 59.5t28 110.5q8 40 12 69t4 51q0 34 -13 51q-8 11 -22.5 18t-34.5 7zM110 88q8 -11 23 -18t34 -7l79 391q-20 0 -37.5 -7t-30.5 -18
q-23 -20 -36.5 -59.5t-27.5 -110.5q-8 -40 -12.5 -70t-4.5 -51q0 -33 13 -50z" />
    <glyph glyph-name="afii10087" unicode="&#x445;" horiz-adv-x="335" 
d="M124 266l-54 252h80l32 -184l104 184h83l-159 -259l62 -259h-80l-37 189l-106 -189h-83z" />
    <glyph glyph-name="afii10088" unicode="&#x446;" horiz-adv-x="384" 
d="M106 518h76l-90 -450h112l90 450h76l-90 -450h45l-39 -194h-70l25 126h-238z" />
    <glyph glyph-name="afii10089" unicode="&#x447;" horiz-adv-x="344" 
d="M199 176q-17 -4 -31 -5t-29 -1q-49 0 -74 23t-25 60q0 11 1.5 22t4.5 27l43 216h76l-43 -214q-3 -17 -3 -27q0 -17 8.5 -28.5t32.5 -11.5q23 0 52 6l55 275h76l-104 -518h-76z" />
    <glyph glyph-name="afii10090" unicode="&#x448;" horiz-adv-x="531" 
d="M106 518h76l-90 -450h98l90 450h76l-90 -450h98l90 450h76l-103 -518h-424z" />
    <glyph glyph-name="afii10091" unicode="&#x449;" horiz-adv-x="543" 
d="M106 518h76l-90 -450h98l90 450h76l-90 -450h98l90 450h76l-90 -450h44l-40 -194h-70l26 126h-397z" />
    <glyph glyph-name="afii10092" unicode="&#x44a;" horiz-adv-x="388" 
d="M68 518h154l-40 -200h56q30 0 50 -7t34 -22q13 -14 18.5 -33t5.5 -42q0 -28 -5 -56q-9 -45 -22.5 -75.5t-32.5 -48.5t-44.5 -26t-57.5 -8h-141l89 450h-78zM184 68q35 0 53.5 21.5t27.5 68.5q2 10 3 20.5t1 19.5q0 26 -11 39.5t-37 13.5h-52l-37 -183h52z" />
    <glyph glyph-name="afii10093" unicode="&#x44b;" horiz-adv-x="503" 
d="M106 518h76l-40 -200h56q30 0 50 -7t34 -22q13 -14 18.5 -33t5.5 -42q0 -28 -5 -56q-9 -45 -22.5 -75.5t-32.5 -48.5t-44.5 -26t-57.5 -8h-141zM144 68q35 0 53.5 21.5t27.5 68.5q2 10 3 20.5t1 19.5q0 26 -11 39.5t-37 13.5h-52l-37 -183h52zM426 518h76l-103 -518h-76z
" />
    <glyph glyph-name="afii10094" unicode="&#x44c;" horiz-adv-x="347" 
d="M106 518h76l-40 -200h56q30 0 50 -7t34 -22q13 -14 18.5 -33t5.5 -42q0 -28 -5 -56q-9 -45 -22.5 -75.5t-32.5 -48.5t-44.5 -26t-57.5 -8h-141zM144 68q35 0 53.5 21.5t27.5 68.5q2 10 3 20.5t1 19.5q0 26 -11 39.5t-37 13.5h-52l-37 -183h52z" />
    <glyph glyph-name="afii10095" unicode="&#x44d;" horiz-adv-x="340" 
d="M302 259q-10 -49 -18.5 -85.5t-17.5 -62.5t-19.5 -44.5t-22.5 -31.5q-19 -20 -45.5 -31.5t-63.5 -11.5q-35 0 -57 10t-36 29q-11 16 -16 33.5t-5 38.5q0 8 0.5 16.5t2.5 20.5h75q-2 -9 -2 -17v-14q0 -11 2.5 -20.5t8.5 -15.5q12 -13 34 -13q28 0 49 22q15 17 25.5 52
t23.5 98h-109l13 65h109q7 37 11 63.5t4 43.5q0 32 -15 44q-13 10 -31 10q-11 0 -22.5 -4t-20.5 -12q-13 -11 -20 -26.5t-12 -37.5h-74q16 71 50 105q20 21 45 32t62 11q59 0 88 -38q24 -30 24 -80q0 -23 -5 -60.5t-15 -88.5z" />
    <glyph glyph-name="afii10096" unicode="&#x44e;" horiz-adv-x="518" 
d="M106 518h76l-44 -219h73q9 42 17 71.5t16 50.5t17.5 36t21.5 27q18 20 44 31t62 11q69 0 96 -47q8 -14 11.5 -31t3.5 -42q0 -23 -4.5 -58.5t-15.5 -88.5t-20 -89.5t-18 -62t-19 -43t-23 -30.5q-18 -20 -44 -31t-62 -11q-69 0 -96 47q-8 14 -11.5 31t-3.5 42q0 20 3 48.5
t11 70.5h-72l-46 -231h-76zM404 259q10 50 16 87.5t6 57.5q0 25 -10 39q-12 15 -34 15q-29 0 -47 -21q-17 -19 -29 -60.5t-27 -117.5q-10 -50 -16 -87.5t-6 -57.5q0 -25 10 -39q12 -15 34 -15q29 0 47 21q17 19 29 60.5t27 117.5z" />
    <glyph glyph-name="afii10097" unicode="&#x44f;" horiz-adv-x="352" 
d="M93 231q-38 23 -38 82q0 12 1 26t4 27q9 43 22 72.5t31 47t42.5 25t55.5 7.5h140l-103 -518h-76l43 212h-52l-111 -212h-83zM262 450h-48q-35 0 -52 -20t-27 -66q-2 -8 -3 -19t-1 -18q0 -50 49 -50h47z" />
    <glyph glyph-name="uni0450" unicode="&#x450;" horiz-adv-x="349" 
d="M32 40q-15 28 -15 70q0 24 6.5 65.5t14.5 83.5q18 92 36 145t43 79q20 21 46 32t63 11q35 0 57 -12t34 -30q18 -27 18 -75q0 -32 -6.5 -73t-17.5 -95h-201q-8 -45 -13 -77t-5 -50q0 -26 12 -41q11 -13 33 -13q12 0 24 4t21 12q22 20 32 68h76q-9 -41 -20.5 -65.5
t-32.5 -45.5q-41 -41 -107 -41q-70 0 -98 48zM247 300q8 35 11 61t3 43q0 25 -10.5 39.5t-34.5 14.5q-12 0 -24 -5t-22 -17q-15 -17 -25 -47t-22 -89h124zM168 718h66l39 -134h-57z" />
    <glyph glyph-name="afii10071" unicode="&#x451;" horiz-adv-x="349" 
d="M32 40q-15 28 -15 70q0 24 6.5 65.5t14.5 83.5q18 92 36 145t43 79q20 21 46 32t63 11q35 0 57 -12t34 -30q18 -27 18 -75q0 -32 -6.5 -73t-17.5 -95h-201q-8 -45 -13 -77t-5 -50q0 -26 12 -41q11 -13 33 -13q12 0 24 4t21 12q22 20 32 68h76q-9 -41 -20.5 -65.5
t-32.5 -45.5q-41 -41 -107 -41q-70 0 -98 48zM247 300q8 35 11 61t3 43q0 25 -10.5 39.5t-34.5 14.5q-12 0 -24 -5t-22 -17q-15 -17 -25 -47t-22 -89h124zM147 678h76l-16 -80h-76zM294 678h76l-16 -80h-76z" />
    <glyph glyph-name="afii10099" unicode="&#x452;" horiz-adv-x="373" 
d="M81 641h50l14 71h76l-14 -71h139l-10 -53h-140l-21 -106q15 18 32 29q22 15 54 15t49.5 -12t27.5 -28q8 -13 11.5 -27.5t3.5 -32.5q0 -14 -8 -52l-81 -412q-8 -41 -22.5 -67.5t-38.5 -45.5q-26 -20 -51 -24.5t-60 -4.5l14 68q33 0 53.5 18t28.5 59l81 409q5 23 5 36
q0 19 -11 33.5t-35 14.5q-23 0 -44 -18t-31 -66l-74 -374h-76l117 588h-49z" />
    <glyph glyph-name="afii10100" unicode="&#x453;" horiz-adv-x="295" 
d="M106 518h226l-13 -68h-151l-89 -450h-76zM279 717h72l-102 -134h-63z" />
    <glyph glyph-name="afii10101" unicode="&#x454;" horiz-adv-x="340" 
d="M38 259q10 49 18.5 85t18 62.5t19.5 44.5t23 32q19 20 44.5 31.5t63.5 11.5q36 0 59 -11.5t36 -32.5q17 -28 17 -67q0 -8 -1 -18.5t-3 -22.5h-75q4 19 4 35q0 11 -2.5 20t-8.5 16q-6 6 -14 9.5t-20 3.5q-27 0 -48 -22q-15 -16 -25.5 -49t-22.5 -90h109l-13 -65h-109
q-17 -85 -17 -119q0 -31 16 -44q12 -9 31 -9q11 0 22 3.5t21 12.5q13 12 20 28t12 40h76q-10 -42 -22 -67.5t-29 -42.5q-20 -20 -45.5 -31t-62.5 -11q-61 0 -90 38q-23 27 -23 80q0 44 21 149z" />
    <glyph glyph-name="afii10102" unicode="&#x455;" horiz-adv-x="336" 
d="M26 31q-14 14 -19.5 33t-5.5 42q0 19 4 39h75q-3 -17 -3 -29q0 -25 12 -38q15 -18 43 -18q31 0 51 20q14 14 20.5 33t6.5 41q0 20 -9 37t-35 34l-47 30q-35 23 -49.5 47.5t-14.5 57.5q0 37 13 71.5t42 60.5q40 34 101 34q34 0 58 -10.5t38 -29.5q22 -28 22 -69
q0 -10 -1.5 -20t-3.5 -21h-73q4 17 4 30q0 21 -12 36q-13 16 -40 16t-45 -17q-27 -24 -27 -68q0 -38 37 -60l48 -29q38 -23 54 -51.5t16 -66.5q0 -45 -15.5 -80.5t-40.5 -56.5q-22 -20 -48 -28.5t-58 -8.5q-64 0 -98 39z" />
    <glyph glyph-name="afii10103" unicode="&#x456;" horiz-adv-x="183" 
d="M106 518h76l-103 -518h-76zM137 696h85l-18 -87h-85z" />
    <glyph glyph-name="afii10104" unicode="&#x457;" horiz-adv-x="183" 
d="M106 518h76l-103 -518h-76zM66 678h76l-16 -80h-76zM213 678h76l-16 -80h-76z" />
    <glyph glyph-name="afii10105" unicode="&#x458;" horiz-adv-x="183" 
d="M106 518h76l-113 -565q-9 -45 -23 -71t-40 -46q-13 -10 -25.5 -16t-26 -9t-29.5 -4t-35 -1l14 67q38 1 59.5 21.5t30.5 64.5zM137 696h85l-18 -87h-85z" />
    <glyph glyph-name="afii10106" unicode="&#x459;" horiz-adv-x="559" 
d="M304 450h-99l-49 -244q-13 -63 -28.5 -103t-35.5 -63t-46 -31.5t-59 -8.5h-25l13 68h11q12 0 25 4t26 19t25 45.5t23 83.5l60 298h249l-40 -200h56q30 0 50 -7t34 -22q13 -14 18.5 -33t5.5 -42q0 -28 -5 -56q-9 -45 -22.5 -75.5t-32.5 -48.5t-44.5 -26t-57.5 -8h-141z
M356 68q35 0 53.5 21.5t27.5 68.5q2 10 3 20.5t1 19.5q0 26 -11 39.5t-37 13.5h-52l-37 -183h52z" />
    <glyph glyph-name="afii10107" unicode="&#x45a;" horiz-adv-x="535" 
d="M241 251h-112l-50 -251h-76l103 518h76l-40 -200h112l40 200h76l-40 -200h56q30 0 50 -7t34 -22q13 -14 18.5 -33t5.5 -42q0 -28 -5 -56q-9 -45 -22.5 -75.5t-32.5 -48.5t-44.5 -26t-57.5 -8h-141zM332 68q35 0 53.5 21.5t27.5 68.5q2 10 3 20.5t1 19.5q0 26 -11 39.5
t-37 13.5h-52l-37 -183h52z" />
    <glyph glyph-name="afii10108" unicode="&#x45b;" horiz-adv-x="373" 
d="M81 641h50l14 71h76l-14 -71h139l-10 -53h-140l-21 -106q15 18 32 29q22 15 54 15t49.5 -12t27.5 -28q8 -13 11.5 -27.5t3.5 -32.5q0 -14 -8 -52l-74 -374h-76l74 374q5 23 5 36q0 19 -11 33.5t-35 14.5q-23 0 -44 -18t-31 -66l-74 -374h-76l117 588h-48z" />
    <glyph glyph-name="afii10109" unicode="&#x45c;" horiz-adv-x="365" 
d="M134 269l179 249h85l-186 -253l91 -265h-80zM106 518h76l-103 -518h-76zM314 717h72l-102 -134h-63z" />
    <glyph glyph-name="uni045D" unicode="&#x45d;" horiz-adv-x="383" 
d="M106 518h76l-69 -340l203 340h66l-103 -518h-76l67 340l-201 -340h-66zM181 718h66l39 -134h-57z" />
    <glyph glyph-name="afii10110" unicode="&#x45e;" horiz-adv-x="324" 
d="M-57 -127q34 1 57 15.5t36 40.5l35 72l-15 517h79l-1 -396l155 396h86l-259 -601q-15 -36 -34 -57.5t-41.5 -33.5t-50.5 -16t-61 -4zM193 687q-1 -5 -1 -10q0 -22 12.5 -32.5t34.5 -10.5q23 0 41 12t26 41h55q-14 -56 -44 -81.5t-84 -25.5q-47 0 -72 23t-25 61
q0 5 0.5 10t1.5 13h55z" />
    <glyph glyph-name="afii10193" unicode="&#x45f;" horiz-adv-x="371" 
d="M106 518h76l-90 -450h112l90 450h76l-103 -518h-97l-27 -129h-70l27 129h-97z" />
    <glyph glyph-name="afii10146" unicode="&#x462;" horiz-adv-x="447" 
d="M117 621h46l19 91h82l-19 -91h79l-13 -66h-79l-27 -137h64q38 0 63 -8.5t42 -26.5q17 -17 24 -40.5t7 -52.5q0 -17 -2 -39t-6 -43q-13 -63 -31.5 -103.5t-42.5 -64t-54.5 -32t-67.5 -8.5h-161l110 555h-46zM204 73q21 0 38 6t30.5 21.5t24 41.5t18.5 66q3 15 5 34.5
t2 34.5q0 34 -14.5 51t-52.5 17h-64l-54 -272h67z" />
    <glyph glyph-name="afii10194" unicode="&#x463;" horiz-adv-x="363" 
d="M98 404h-49l11 53h49l12 61h76l-13 -61h84l-11 -53h-83l-17 -86h56q30 0 50 -7t34 -22q13 -14 18.5 -33t5.5 -42q0 -28 -5 -56q-9 -45 -22.5 -75.5t-32.5 -48.5t-44.5 -26t-57.5 -8h-141zM159 68q35 0 53.5 21.5t27.5 68.5q2 10 3 20.5t1 19.5q0 26 -11 39.5t-37 13.5
h-52l-37 -183h52z" />
    <glyph glyph-name="afii10147" unicode="&#x472;" horiz-adv-x="417" 
d="M64 356q17 86 30 140.5t25 89.5t25 55t31 37q45 42 117 42q42 0 68.5 -13t42.5 -38q12 -19 17.5 -38.5t5.5 -48.5q0 -34 -8 -88t-25 -138q-18 -86 -31 -140.5t-25 -89.5t-24.5 -55t-30.5 -37q-45 -42 -117 -42q-42 0 -68.5 13t-42.5 38q-12 19 -18 38.5t-6 48.5
q0 34 8.5 88t25.5 138zM228 88q10 10 18.5 24t17 40t18 66.5t22.5 103.5h-165q-27 -135 -27 -187q0 -29 13 -49.5t48 -20.5q32 0 55 23zM229 624q-10 -10 -18.5 -24t-17 -39t-18 -64.5t-21.5 -100.5h165q12 65 18.5 109.5t6.5 71.5q0 29 -12.5 49.5t-47.5 20.5
q-32 0 -55 -23z" />
    <glyph glyph-name="afii10195" unicode="&#x473;" 
d="M38 259q10 53 19.5 90t18.5 62.5t19 42t23 30.5q18 20 44 31t62 11q69 0 96 -47q8 -14 11.5 -31t3.5 -42q0 -23 -4.5 -58.5t-15.5 -88.5t-20 -89.5t-18 -62t-19 -43t-23 -30.5q-18 -20 -44 -31t-62 -11q-69 0 -96 47q-8 14 -11.5 31t-3.5 42q0 23 4.5 58.5t15.5 88.5z
M183 81q16 17 27 54.5t25 105.5h-125q-8 -44 -13 -76.5t-5 -50.5q0 -25 10 -39q12 -15 34 -15q29 0 47 21zM170 437q-15 -17 -26 -49t-22 -88h125q6 35 10 61.5t4 42.5q0 25 -10 39q-12 15 -34 15q-29 0 -47 -21z" />
    <glyph glyph-name="afii10148" unicode="&#x474;" horiz-adv-x="446" 
d="M95 712h88l-16 -574l172 458q11 30 26 52t35.5 36t48.5 21t66 7h10l-15 -73q-39 0 -61 -16t-37 -54l-229 -569h-85z" />
    <glyph glyph-name="afii10196" unicode="&#x475;" horiz-adv-x="385" 
d="M406 450q-35 0 -56 -13.5t-35 -48.5l-165 -388h-79l-15 518h80l-3 -395l116 289q12 30 26 50t33 32.5t44.5 18t60.5 5.5h9l-13 -68h-3z" />
    <glyph glyph-name="afii10050" unicode="&#x490;" horiz-adv-x="337" 
d="M151 712h176l21 105h79l-36 -178h-173l-127 -639h-82z" />
    <glyph glyph-name="afii10098" unicode="&#x491;" horiz-adv-x="295" 
d="M106 518h156l24 120h70l-37 -188h-151l-89 -450h-76z" />
    <glyph glyph-name="uni0492" unicode="&#x492;" horiz-adv-x="372" 
d="M72 391h49l64 321h255l-15 -73h-173l-50 -248h79l-13 -65h-79l-64 -326h-82l64 326h-48z" />
    <glyph glyph-name="uni0493" unicode="&#x493;" horiz-adv-x="311" 
d="M65 239h-50l11 53h50l45 226h227l-14 -68h-150l-32 -158h83l-11 -53h-83l-47 -239h-76z" />
    <glyph glyph-name="uni0496" unicode="&#x496;" horiz-adv-x="637" 
d="M386 370l231 342h95l-240 -347l82 -292h36l-43 -212h-77l28 139h-9zM216 383l-100 329h85l99 -341l-255 -371h-94zM370 712h82l-142 -712h-82z" />
    <glyph glyph-name="uni0497" unicode="&#x497;" horiz-adv-x="543" 
d="M314 268l180 250h88l-190 -254l66 -196h37l-39 -194h-70l25 126h-11zM157 280l-84 238h79l82 -247l-194 -271h-89zM285 518h76l-103 -518h-76z" />
    <glyph glyph-name="uni049A" unicode="&#x49a;" horiz-adv-x="425" 
d="M167 369l235 343h92l-242 -344l90 -295h38l-43 -212h-77l28 139h-12zM151 712h82l-142 -712h-82z" />
    <glyph glyph-name="uni049B" unicode="&#x49b;" horiz-adv-x="365" 
d="M134 269l179 249h85l-186 -253l67 -197h38l-39 -194h-70l25 126h-10zM106 518h76l-103 -518h-76z" />
    <glyph glyph-name="uni049C" unicode="&#x49c;" horiz-adv-x="491" 
d="M151 712h82l-60 -303h32l21 108h60l-21 -108h22l177 303h93l-202 -337l78 -375h-87l-64 336h-32l-21 -108h-60l22 108h-33l-67 -336h-82z" />
    <glyph glyph-name="uni049D" unicode="&#x49d;" horiz-adv-x="420" 
d="M106 518h76l-43 -215h28l23 111h49l-23 -111h21l128 215h87l-151 -245l61 -273h-81l-49 235h-30l-21 -110h-49l21 110h-28l-46 -235h-76z" />
    <glyph glyph-name="uni04A2" unicode="&#x4a2;" horiz-adv-x="433" 
d="M151 712h82l-63 -313h149l63 313h82l-128 -639h36l-43 -212h-77l28 139h-40l65 325h-149l-65 -325h-82z" />
    <glyph glyph-name="uni04A3" unicode="&#x4a3;" horiz-adv-x="373" 
d="M106 518h76l-44 -219h114l44 219h76l-90 -450h33l-39 -194h-70l25 126h-38l45 231h-114l-45 -231h-76z" />
    <glyph glyph-name="uni04AE" unicode="&#x4ae;" horiz-adv-x="334" 
d="M133 293l-38 419h85l15 -308l135 308h90l-207 -429l-56 -283h-82z" />
    <glyph glyph-name="uni04AF" unicode="&#x4af;" horiz-adv-x="324" 
d="M71 -6l-15 524h81l-3 -383l151 383h86l-224 -523l-38 -189h-76z" />
    <glyph glyph-name="uni04B0" unicode="&#x4b0;" horiz-adv-x="334" 
d="M69 288h63l1 5l-38 419h85l15 -308l135 308h90l-205 -424h60l-10 -53h-62l-46 -235h-82l46 235h-63z" />
    <glyph glyph-name="uni04B1" unicode="&#x4b1;" horiz-adv-x="324" 
d="M60 -58h-65l11 53h65l-15 523h81l-3 -383l151 383h86l-224 -523h65l-10 -53h-66l-27 -136h-76z" />
    <glyph glyph-name="uni04B2" unicode="&#x4b2;" horiz-adv-x="379" 
d="M247 0h-21l-34 280l-135 -280h-92l197 374l-49 338h88l25 -256l127 256h92l-189 -345l46 -294h37l-43 -212h-77z" />
    <glyph glyph-name="uni04B3" unicode="&#x4b3;" horiz-adv-x="335" 
d="M202 0h-10l-37 189l-106 -189h-83l158 266l-54 252h80l32 -184l104 184h83l-159 -259l46 -191h30l-39 -194h-70z" />
    <glyph glyph-name="uni04B6" unicode="&#x4b6;" horiz-adv-x="424" 
d="M281 255q-23 -4 -39 -5.5t-38 -1.5q-125 0 -125 107q0 11 2.5 28t6.5 37l59 292h82l-59 -290q-2 -12 -3.5 -24.5t-1.5 -22.5q0 -53 58 -53q21 0 37.5 1.5t35.5 4.5l77 384h82l-128 -639h37l-43 -212h-77l28 139h-41z" />
    <glyph glyph-name="uni04B7" unicode="&#x4b7;" horiz-adv-x="344" 
d="M199 176q-17 -4 -31 -5t-29 -1q-49 0 -74 23t-25 60q0 11 1.5 22t4.5 27l43 216h76l-43 -214q-3 -17 -3 -27q0 -17 8.5 -28.5t32.5 -11.5q23 0 52 6l55 275h76l-91 -450h33l-39 -194h-70l25 126h-38z" />
    <glyph glyph-name="uni04B8" unicode="&#x4b8;" horiz-adv-x="446" 
d="M253 0l51 255q-17 -3 -29.5 -4.5t-26.5 -1.5l-20 -103h-58l20 103q-56 5 -82.5 30.5t-26.5 77.5q0 11 1.5 26t4.5 29l60 300h82l-59 -294q-2 -7 -3 -18.5t-1 -19.5q0 -22 9 -35.5t30 -18.5l20 100h59l-21 -104q25 0 55 6l77 384h82l-142 -712h-82z" />
    <glyph glyph-name="uni04B9" unicode="&#x4b9;" horiz-adv-x="364" 
d="M219 176q-8 -2 -20 -4t-19 -2l-21 -108h-49l22 108q-92 9 -92 87q0 17 5 39l44 222h76l-43 -214q-2 -10 -2 -23q0 -35 26 -39l21 105h49l-22 -109l18 2q9 1 20 4l55 274h76l-104 -518h-76z" />
    <glyph glyph-name="uni04BA" unicode="&#x4ba;" horiz-adv-x="428" 
d="M151 712h82l-52 -256q24 5 43.5 6.5t36.5 1.5q60 0 91.5 -27t31.5 -82q0 -12 -3 -29t-6 -31l-58 -295h-83l59 296q2 12 3.5 22.5t1.5 18.5q0 32 -16 42.5t-43 10.5q-35 0 -72 -6l-76 -384h-82z" />
    <glyph glyph-name="uni04BB" unicode="&#x4bb;" horiz-adv-x="344" 
d="M106 518h76l-35 -176q16 3 29 4.5t30 1.5q47 0 73.5 -21t26.5 -65q0 -15 -7 -49l-42 -213h-76l42 214q3 16 3 28q0 23 -11 30.5t-30 7.5q-12 0 -24.5 -1t-26.5 -4l-55 -275h-76z" />
    <glyph glyph-name="uni04C0" unicode="&#x4c0;" horiz-adv-x="202" 
d="M151 712h82l-142 -712h-82z" />
    <glyph glyph-name="uni04CF" unicode="&#x4cf;" horiz-adv-x="184" 
d="M145 712h76l-142 -712h-76z" />
    <glyph glyph-name="uni04D8" unicode="&#x4d8;" horiz-adv-x="414" 
d="M312 383q14 72 21 119t7 75q0 29 -13.5 49.5t-48.5 20.5q-33 0 -57 -22q-16 -14 -25 -36t-15 -51h-82q11 47 26.5 83t45.5 62q44 37 115 37q42 0 67.5 -12t43.5 -37q14 -18 19.5 -39t5.5 -50q0 -34 -8 -87.5t-25 -138.5q-17 -86 -30 -140.5t-25 -89.5t-25 -55t-31 -37
q-45 -42 -117 -42q-42 0 -68.5 13t-42.5 38q-12 19 -18 38.5t-6 48.5q0 17 2.5 39t7 52.5t12 70t17.5 91.5h247zM134 316q-14 -72 -20 -114t-6 -67q0 -29 13 -49.5t48 -20.5q32 0 55 23q10 10 18 23.5t16.5 38.5t18 64.5t21.5 101.5h-164z" />
    <glyph glyph-name="afii10846" unicode="&#x4d9;" horiz-adv-x="349" 
d="M238 277q9 42 14 74t5 52q0 27 -13 41q-11 14 -33 14q-29 0 -48 -21q-21 -21 -29 -62h-74q8 35 21 64t39 52q20 19 45.5 27t54.5 8q63 0 93 -43q10 -14 14 -33.5t4 -41.5q0 -54 -20 -149q-10 -51 -20 -89t-20.5 -65.5t-22 -46.5t-24.5 -31q-20 -17 -44.5 -26t-57.5 -9
q-34 0 -55 11.5t-34 30.5q-19 26 -19 75q0 32 6.5 72.5t17.5 95.5h200zM102 218q-7 -35 -10.5 -61t-3.5 -43q0 -25 10.5 -39.5t34.5 -14.5q27 0 47 21q13 15 23.5 45t23.5 92h-125z" />
    <glyph glyph-name="uni04E2" unicode="&#x4e2;" horiz-adv-x="442" 
d="M151 712h82l-98 -488l267 488h71l-142 -712h-82l97 488l-265 -488h-72zM227 837h214l-11 -54h-214z" />
    <glyph glyph-name="uni04E3" unicode="&#x4e3;" horiz-adv-x="383" 
d="M106 518h76l-69 -340l203 340h66l-103 -518h-76l67 340l-201 -340h-66zM162 662h214l-11 -54h-214z" />
    <glyph glyph-name="uni04E8" unicode="&#x4e8;" horiz-adv-x="417" 
d="M64 356q17 86 30 140.5t25 89.5t25 55t31 37q45 42 117 42q42 0 68.5 -13t42.5 -38q12 -19 17.5 -38.5t5.5 -48.5q0 -34 -8 -88t-25 -138q-18 -86 -31 -140.5t-25 -89.5t-24.5 -55t-30.5 -37q-45 -42 -117 -42q-42 0 -68.5 13t-42.5 38q-12 19 -18 38.5t-6 48.5
q0 34 8.5 88t25.5 138zM228 88q10 10 18.5 24t17 40t18 66.5t22.5 103.5h-165q-27 -135 -27 -187q0 -29 13 -49.5t48 -20.5q32 0 55 23zM229 624q-10 -10 -18.5 -24t-17 -39t-18 -64.5t-21.5 -100.5h165q12 65 18.5 109.5t6.5 71.5q0 29 -12.5 49.5t-47.5 20.5
q-32 0 -55 -23z" />
    <glyph glyph-name="uni04E9" unicode="&#x4e9;" 
d="M38 259q10 53 19.5 90t18.5 62.5t19 42t23 30.5q18 20 44 31t62 11q69 0 96 -47q8 -14 11.5 -31t3.5 -42q0 -23 -4.5 -58.5t-15.5 -88.5t-20 -89.5t-18 -62t-19 -43t-23 -30.5q-18 -20 -44 -31t-62 -11q-69 0 -96 47q-8 14 -11.5 31t-3.5 42q0 23 4.5 58.5t15.5 88.5z
M183 81q16 17 27 54.5t25 105.5h-125q-8 -44 -13 -76.5t-5 -50.5q0 -25 10 -39q12 -15 34 -15q29 0 47 21zM170 437q-15 -17 -26 -49t-22 -88h125q6 35 10 61.5t4 42.5q0 25 -10 39q-12 15 -34 15q-29 0 -47 -21z" />
    <glyph glyph-name="uni04EE" unicode="&#x4ee;" horiz-adv-x="370" 
d="M-3 73q21 0 36 3t27.5 11.5t22.5 23t21 37.5l38 82l-48 482h84l24 -368l168 368h88l-290 -590q-19 -38 -34.5 -61.5t-35 -37t-46.5 -18.5t-69 -5zM191 837h214l-11 -54h-214z" />
    <glyph glyph-name="uni04EF" unicode="&#x4ef;" horiz-adv-x="324" 
d="M-57 -127q34 1 57 15.5t36 40.5l35 72l-15 517h79l-1 -396l155 396h86l-259 -601q-15 -36 -34 -57.5t-41.5 -33.5t-50.5 -16t-61 -4zM135 662h214l-11 -54h-214z" />
    <glyph glyph-name="Wgrave" unicode="&#x1e80;" horiz-adv-x="628" 
d="M100 712h87l-41 -575l214 575h89l-9 -575l183 575h86l-249 -712h-90l7 572l-216 -572h-90zM336 894h66l39 -134h-57z" />
    <glyph glyph-name="wgrave" unicode="&#x1e81;" horiz-adv-x="509" 
d="M62 518h78l-20 -391l154 391h64l-3 -391l136 391h80l-203 -518h-71l3 383l-151 -383h-73zM240 718h66l39 -134h-57z" />
    <glyph glyph-name="Wacute" unicode="&#x1e82;" horiz-adv-x="628" 
d="M100 712h87l-41 -575l214 575h89l-9 -575l183 575h86l-249 -712h-90l7 572l-216 -572h-90zM467 892h72l-102 -134h-63z" />
    <glyph glyph-name="wacute" unicode="&#x1e83;" horiz-adv-x="509" 
d="M62 518h78l-20 -391l154 391h64l-3 -391l136 391h80l-203 -518h-71l3 383l-151 -383h-73zM371 717h72l-102 -134h-63z" />
    <glyph glyph-name="Wdieresis" unicode="&#x1e84;" horiz-adv-x="628" 
d="M100 712h87l-41 -575l214 575h89l-9 -575l183 575h86l-249 -712h-90l7 572l-216 -572h-90zM315 853h76l-16 -80h-76zM462 853h76l-16 -80h-76z" />
    <glyph glyph-name="wdieresis" unicode="&#x1e85;" horiz-adv-x="509" 
d="M62 518h78l-20 -391l154 391h64l-3 -391l136 391h80l-203 -518h-71l3 383l-151 -383h-73zM219 678h76l-16 -80h-76zM366 678h76l-16 -80h-76z" />
    <glyph glyph-name="uni1E8A" unicode="&#x1e8a;" horiz-adv-x="379" 
d="M162 374l-49 338h88l25 -256l127 256h92l-189 -345l58 -367h-88l-34 280l-135 -280h-92zM269 856h76l-17 -80h-75z" />
    <glyph glyph-name="uni1E8B" unicode="&#x1e8b;" horiz-adv-x="335" 
d="M124 266l-54 252h80l32 -184l104 184h83l-159 -259l62 -259h-80l-37 189l-106 -189h-83zM214 681h76l-17 -80h-75z" />
    <glyph glyph-name="Ygrave" unicode="&#x1ef2;" horiz-adv-x="334" 
d="M133 293l-38 419h85l15 -308l135 308h90l-207 -429l-56 -283h-82zM192 894h66l39 -134h-57z" />
    <glyph glyph-name="ygrave" unicode="&#x1ef3;" horiz-adv-x="324" 
d="M-57 -127q34 1 57 15.5t36 40.5l35 72l-15 517h79l-1 -396l155 396h86l-259 -601q-15 -36 -34 -57.5t-41.5 -33.5t-50.5 -16t-61 -4zM157 718h66l39 -134h-57z" />
    <glyph glyph-name="uni2007" unicode="&#x2007;" horiz-adv-x="358" 
 />
    <glyph glyph-name="uni2008" unicode="&#x2008;" horiz-adv-x="204" 
 />
    <glyph glyph-name="uni200B" unicode="&#x200b;" horiz-adv-x="0" 
 />
    <glyph glyph-name="endash" unicode="&#x2013;" horiz-adv-x="420" 
d="M57 319h332l-15 -73h-332z" />
    <glyph glyph-name="emdash" unicode="&#x2014;" horiz-adv-x="644" 
d="M57 319h556l-15 -73h-556z" />
    <glyph glyph-name="afii00208" unicode="&#x2015;" horiz-adv-x="644" 
d="M57 319h556l-15 -73h-556z" />
    <glyph glyph-name="quoteleft" unicode="&#x2018;" horiz-adv-x="196" 
d="M145 712l101 69l-35 -177h-87z" />
    <glyph glyph-name="quoteright" unicode="&#x2019;" horiz-adv-x="196" 
d="M145 712h87l-21 -108l-101 -69z" />
    <glyph glyph-name="quotesinglbase" unicode="&#x201a;" horiz-adv-x="196" 
d="M25 109h87l-21 -108l-101 -69z" />
    <glyph glyph-name="quotedblleft" unicode="&#x201c;" horiz-adv-x="354" 
d="M145 712l101 69l-35 -177h-87zM303 712l101 69l-35 -177h-87z" />
    <glyph glyph-name="quotedblright" unicode="&#x201d;" horiz-adv-x="354" 
d="M145 712h87l-21 -108l-101 -69zM303 712h87l-21 -108l-101 -69z" />
    <glyph glyph-name="quotedblbase" unicode="&#x201e;" horiz-adv-x="354" 
d="M23 98h87l-21 -108l-101 -69zM180 98h87l-21 -108l-101 -69z" />
    <glyph glyph-name="dagger" unicode="&#x2020;" horiz-adv-x="417" 
d="M212 453h-129l13 65h129l39 194h71l-39 -194h129l-12 -65h-129l-91 -453h-71z" />
    <glyph glyph-name="daggerdbl" unicode="&#x2021;" horiz-adv-x="417" 
d="M5 64h129l78 389h-129l13 65h129l39 194h71l-39 -194h129l-12 -65h-129l-78 -389h129l-13 -64h-129l-39 -194h-72l40 194h-129z" />
    <glyph glyph-name="bullet" unicode="&#x2022;" horiz-adv-x="428" 
d="M74 334q0 32 12 60t33 49t49 33t60 12t60.5 -12t49.5 -33t33 -49t12 -60t-12 -60t-33 -49t-49.5 -33t-60.5 -12t-60 12t-49 33t-33 49t-12 60z" />
    <glyph glyph-name="ellipsis" unicode="&#x2026;" horiz-adv-x="565" 
d="M23 94h92l-18 -94h-92zM203 94h92l-18 -94h-92zM384 94h92l-18 -94h-92z" />
    <glyph glyph-name="perthousand" unicode="&#x2030;" horiz-adv-x="917" 
d="M689 104q-2 -7 -2.5 -14.5t-0.5 -11.5q0 -15 8.5 -24.5t28.5 -9.5q40 0 51 54l32 156q3 15 3 25q0 15 -8.5 25t-28.5 10q-39 0 -51 -53zM657 257q12 59 42.5 84t79.5 25q46 0 69.5 -24t23.5 -58q0 -6 -0.5 -14t-2.5 -16l-31 -152q-12 -58 -41 -84t-80 -26q-47 0 -70.5 24
t-23.5 59q0 5 1 13t3 16zM150 458q-2 -7 -2.5 -14.5t-0.5 -11.5q0 -15 8.5 -24.5t28.5 -9.5q40 0 51 54l32 156q3 15 3 25q0 15 -8.5 25t-28.5 10q-39 0 -51 -53zM118 611q12 59 42.5 84t79.5 25q46 0 69.5 -24t23.5 -58q0 -6 -0.5 -14t-2.5 -16l-31 -152q-12 -58 -41 -84
t-80 -26q-47 0 -70.5 24t-23.5 59q0 5 1 13t3 16zM498 712h60l-378 -712h-60zM411 104q-2 -7 -2.5 -14.5t-0.5 -11.5q0 -15 8.5 -24.5t28.5 -9.5q40 0 51 54l32 156q3 15 3 25q0 15 -8.5 25t-28.5 10q-39 0 -51 -53zM379 257q12 59 42.5 84t79.5 25q46 0 69.5 -24t23.5 -58
q0 -6 -0.5 -14t-2.5 -16l-31 -152q-12 -58 -41 -84t-80 -26q-47 0 -70.5 24t-23.5 59q0 5 1 13t3 16z" />
    <glyph glyph-name="guilsinglleft" unicode="&#x2039;" horiz-adv-x="212" 
d="M28 272l186 230l-26 -128l-89 -108l46 -107l-24 -117z" />
    <glyph glyph-name="guilsinglright" unicode="&#x203a;" horiz-adv-x="212" 
d="M190 272l-186 -230l26 128l89 108l-46 107l23 117z" />
    <glyph glyph-name="fraction" unicode="&#x2044;" horiz-adv-x="109" 
d="M235 712h57l-377 -712h-57z" />
    <glyph glyph-name="uni2070" unicode="&#x2070;" horiz-adv-x="298" 
d="M130 625q9 47 39 72q24 20 66 20q24 0 40 -6.5t24 -15.5q18 -18 18 -47v-14q0 -7 -2 -14l-50 -248q-5 -25 -14 -42t-25 -30q-24 -20 -66 -20q-24 0 -40 6.5t-24 15.5q-11 12 -14.5 22.5t-3.5 24.5q0 20 2 28zM133 375q-2 -10 -2 -17q0 -13 8.5 -22t25.5 -9q15 0 28 10
t18 35l51 250q2 10 2 17q0 13 -8.5 22t-25.5 9q-15 0 -28 -10t-18 -35z" />
    <glyph glyph-name="uni2074" unicode="&#x2074;" horiz-adv-x="298" 
d="M72 400l175 312h54l-172 -311h69l18 90h53l-18 -90h32l-10 -47h-31l-14 -69h-53l14 69h-127z" />
    <glyph glyph-name="uni2075" unicode="&#x2075;" horiz-adv-x="298" 
d="M135 394l-3 -17q-1 -5 -1.5 -10.5t-0.5 -10.5q1 -13 9 -21t24 -8q19 0 31 12q10 9 16.5 25t14.5 59q5 26 7 41.5t2 23.5q0 14 -7 23t-26 9q-17 0 -32 -12.5t-18 -37.5l-1 -6h-49l50 248h178l-10 -47h-130l-24 -123q12 10 23 15q15 7 36 7q17 0 28 -5t19 -13
q16 -17 17 -43q0 -13 -2 -30.5t-8 -49.5q-6 -29 -10.5 -48t-10 -32t-11.5 -22t-15 -17q-27 -24 -72 -24q-21 0 -38 6t-28 18q-7 8 -11.5 19t-4.5 25q0 6 0.5 16t2.5 17l3 13h52z" />
    <glyph glyph-name="uni2076" unicode="&#x2076;" horiz-adv-x="298" 
d="M86 413q7 37 16.5 63t20.5 43l114 193h57l-107 -174q14 7 31 7q32 0 48 -18.5t17 -44.5q0 -11 -1.5 -28t-6.5 -41q-9 -44 -17.5 -67t-24.5 -38q-14 -14 -32.5 -21t-42.5 -7q-43 0 -63 25q-17 20 -17 47q0 14 1.5 26.5t6.5 34.5zM139 413q-8 -38 -8 -54q0 -14 7.5 -23.5
t24.5 -9.5q19 0 30 11q11 10 16.5 27.5t12.5 48.5q8 38 8 55q0 14 -7.5 23t-24.5 9q-19 0 -31 -11q-10 -9 -16 -27t-12 -49z" />
    <glyph glyph-name="uni2077" unicode="&#x2077;" horiz-adv-x="298" 
d="M274 665h-89l-13 -61h-50l21 108h196l-8 -42l-176 -385h-56z" />
    <glyph glyph-name="uni2078" unicode="&#x2078;" horiz-adv-x="298" 
d="M273 405q-8 -44 -16.5 -65t-25.5 -36q-16 -14 -33.5 -19t-40.5 -5q-19 0 -35 5.5t-27 17.5q-8 8 -13 19t-5 26q0 11 2 25.5t5 31.5q4 18 7 30.5t6 21t7 15t9 13.5q7 9 15.5 16t17.5 12q-12 8 -17 19q-7 11 -7 35q0 7 1 15t4 22q8 40 16.5 58.5t23.5 32.5q13 12 29.5 17
t36.5 5q23 0 39.5 -6.5t25.5 -17.5q16 -17 16 -45q0 -9 -0.5 -19.5t-3.5 -24.5q-12 -55 -24 -70q-7 -9 -15.5 -15.5t-18.5 -11.5q10 -7 18 -19t8 -36q0 -8 -0.5 -17.5t-4.5 -29.5zM219 405q7 35 7 48q0 14 -8 22q-9 9 -24 9q-22 0 -33 -12q-9 -10 -13 -23t-11 -44
q-4 -20 -5 -29.5t-1 -16.5q0 -16 6 -22q9 -10 26 -10q19 0 32 11q9 8 13.5 21.5t10.5 45.5zM178 601q-4 -23 -4 -35q0 -17 7 -24q8 -8 23 -8q19 0 31 11q8 8 12 20.5t9 35.5q3 14 4 22.5t1 14.5q0 16 -8 24t-23 8q-19 0 -30 -11q-13 -13 -22 -58z" />
    <glyph glyph-name="uni2079" unicode="&#x2079;" horiz-adv-x="298" 
d="M309 584q-7 -37 -16.5 -63t-20.5 -43l-114 -193h-57l107 174q-14 -7 -31 -7q-32 0 -48 18.5t-17 44.5q0 11 1.5 28t6.5 41q9 44 17.5 67t24.5 38q14 14 32.5 21t42.5 7q43 0 63 -25q17 -20 17 -47q0 -14 -1.5 -26.5t-6.5 -34.5zM256 584q8 38 8 54q0 14 -7.5 23.5
t-24.5 9.5q-19 0 -30 -11q-11 -10 -16.5 -27.5t-12.5 -48.5q-8 -38 -8 -55q0 -14 7.5 -23t24.5 -9q19 0 31 11q10 9 16 27t12 49z" />
    <glyph glyph-name="uni2080" unicode="&#x2080;" horiz-adv-x="298" 
d="M44 190q9 47 39 72q24 20 66 20q24 0 40 -6.5t24 -15.5q18 -18 18 -47v-14q0 -7 -2 -14l-50 -248q-5 -25 -14 -42t-25 -30q-24 -20 -66 -20q-24 0 -40 6.5t-24 15.5q-11 12 -14.5 22.5t-3.5 24.5q0 20 2 28zM47 -60q-2 -10 -2 -17q0 -13 8.5 -22t25.5 -9q15 0 28 10
t18 35l51 250q2 10 2 17q0 13 -8.5 22t-25.5 9q-15 0 -28 -10t-18 -35z" />
    <glyph glyph-name="uni2081" unicode="&#x2081;" horiz-adv-x="298" 
d="M124 213l-71 -50l12 63l74 51h51l-85 -427h-53z" />
    <glyph glyph-name="uni2082" unicode="&#x2082;" horiz-adv-x="298" 
d="M-15 -108l151 217q20 29 30 51t10 41q0 34 -32 34q-17 0 -28.5 -10.5t-16.5 -33.5l-6 -31h-53l6 29q10 54 40 75q24 18 62 18q23 0 37 -6t24 -16q10 -11 15 -23.5t5 -30.5v-10q0 -4 -1 -9q-5 -25 -15 -45.5t-32 -51.5l-136 -193h129l-9 -47h-188z" />
    <glyph glyph-name="uni2083" unicode="&#x2083;" horiz-adv-x="298" 
d="M45 190q5 25 14 43t26 31q22 18 63 18q42 0 62 -23q8 -8 11.5 -20t3.5 -32q0 -16 -6 -43q-5 -25 -10 -38t-14 -25q-5 -8 -13 -13.5t-16 -10.5q14 -8 22 -20.5t8 -33.5q0 -11 -2 -22t-6 -30q-9 -44 -17.5 -66.5t-25.5 -36.5q-13 -11 -30 -17t-41 -6q-20 0 -37.5 6
t-28.5 19q-16 19 -16 46q0 14 3 29l5 25h53l-5 -27q-1 -5 -1.5 -10.5t-0.5 -9.5q0 -16 9 -23.5t23 -7.5q18 0 31 11q8 8 13.5 21t13.5 47q5 22 6 34.5t1 18.5q0 14 -8.5 22.5t-24.5 8.5h-25l10 43h21q8 0 15 3t12 8q9 8 13.5 18t9.5 36q6 27 6 39q0 17 -6 25t-23 8
q-35 0 -44 -43l-6 -32h-53z" />
    <glyph glyph-name="uni2084" unicode="&#x2084;" horiz-adv-x="298" 
d="M-15 -35l175 312h54l-172 -311h69l18 90h53l-18 -90h32l-10 -47h-31l-14 -69h-53l14 69h-127z" />
    <glyph glyph-name="uni2085" unicode="&#x2085;" horiz-adv-x="298" 
d="M48 -41l-3 -17q-1 -5 -1.5 -10.5t-0.5 -10.5q1 -13 9 -21t24 -8q19 0 31 12q10 9 16.5 25t14.5 59q5 26 7 41.5t2 23.5q0 14 -7 23t-26 9q-17 0 -32 -12.5t-18 -37.5l-1 -6h-49l50 248h178l-10 -47h-130l-24 -123q12 10 23 15q15 7 36 7q17 0 28 -5t19 -13q16 -17 17 -43
q0 -13 -2 -30.5t-8 -49.5q-6 -29 -10.5 -48t-10 -32t-11.5 -22t-15 -17q-27 -24 -72 -24q-21 0 -38 6t-28 18q-7 8 -11.5 19t-4.5 25q0 6 0.5 16t2.5 17l3 13h52z" />
    <glyph glyph-name="uni2086" unicode="&#x2086;" horiz-adv-x="298" 
d="M-1 -22q7 37 16.5 63t20.5 43l114 193h57l-107 -174q14 7 31 7q32 0 48 -18.5t17 -44.5q0 -11 -1.5 -28t-6.5 -41q-9 -44 -17.5 -67t-24.5 -38q-14 -14 -32.5 -21t-42.5 -7q-43 0 -63 25q-17 20 -17 47q0 14 1.5 26.5t6.5 34.5zM52 -22q-8 -38 -8 -54q0 -14 7.5 -23.5
t24.5 -9.5q19 0 30 11q11 10 16.5 27.5t12.5 48.5q8 38 8 55q0 14 -7.5 23t-24.5 9q-19 0 -31 -11q-10 -9 -16 -27t-12 -49z" />
    <glyph glyph-name="uni2087" unicode="&#x2087;" horiz-adv-x="298" 
d="M187 230h-89l-13 -61h-50l21 108h196l-8 -42l-176 -385h-56z" />
    <glyph glyph-name="uni2088" unicode="&#x2088;" horiz-adv-x="298" 
d="M186 -30q-8 -44 -16.5 -65t-25.5 -36q-16 -14 -33.5 -19t-40.5 -5q-19 0 -35 5.5t-27 17.5q-8 8 -13 19t-5 26q0 11 2 25.5t5 31.5q4 18 7 30.5t6 21t7 15t9 13.5q7 9 15.5 16t17.5 12q-12 8 -17 19q-7 11 -7 35q0 7 1 15t4 22q8 40 16.5 58.5t23.5 32.5q13 12 29.5 17
t36.5 5q23 0 39.5 -6.5t25.5 -17.5q16 -17 16 -45q0 -9 -0.5 -19.5t-3.5 -24.5q-12 -55 -24 -70q-7 -9 -15.5 -15.5t-18.5 -11.5q10 -7 18 -19t8 -36q0 -8 -0.5 -17.5t-4.5 -29.5zM132 -30q7 35 7 48q0 14 -8 22q-9 9 -24 9q-22 0 -33 -12q-9 -10 -13 -23t-11 -44
q-4 -20 -5 -29.5t-1 -16.5q0 -16 6 -22q9 -10 26 -10q19 0 32 11q9 8 13.5 21.5t10.5 45.5zM91 166q-4 -23 -4 -35q0 -17 7 -24q8 -8 23 -8q19 0 31 11q8 8 12 20.5t9 35.5q3 14 4 22.5t1 14.5q0 16 -8 24t-23 8q-19 0 -30 -11q-13 -13 -22 -58z" />
    <glyph glyph-name="uni2089" unicode="&#x2089;" horiz-adv-x="298" 
d="M222 149q-7 -37 -16.5 -63t-20.5 -43l-114 -193h-57l107 174q-14 -7 -31 -7q-32 0 -48 18.5t-17 44.5q0 11 1.5 28t6.5 41q9 44 17.5 67t24.5 38q14 14 32.5 21t42.5 7q43 0 63 -25q17 -20 17 -47q0 -14 -1.5 -26.5t-6.5 -34.5zM169 149q8 38 8 54q0 14 -7.5 23.5
t-24.5 9.5q-19 0 -30 -11q-11 -10 -16.5 -27.5t-12.5 -48.5q-8 -38 -8 -55q0 -14 7.5 -23t24.5 -9q19 0 31 11q10 9 16 27t12 49z" />
    <glyph glyph-name="Euro" unicode="&#x20ac;" horiz-adv-x="452" 
d="M77 462h55q12 52 22 87t20 59t20.5 39.5t24.5 28.5q23 22 52 33t68 11q72 0 106 -43q13 -17 19.5 -41.5t6.5 -50.5q0 -11 -1 -22t-3 -25h-81q4 23 4 43q0 29 -12.5 47.5t-44.5 18.5q-35 0 -58 -23q-9 -9 -16.5 -20.5t-14 -29.5t-14 -45t-16.5 -67h115l-12 -61h-116
l-18 -90h115l-12 -61h-115q-7 -39 -10 -68t-3 -49q0 -68 59 -68q19 0 33 7t25 19q28 30 39 84h83q-11 -51 -27.5 -85.5t-47.5 -60.5q-21 -18 -48 -27.5t-65 -9.5q-39 0 -65 12t-42 35q-14 20 -20 41.5t-6 52.5q0 20 3.5 48.5t10.5 68.5h-55l12 61h54l18 90h-54z" />
    <glyph glyph-name="uni20B4" unicode="&#x20b4;" horiz-adv-x="443" 
d="M160 267q-11 -16 -16.5 -35t-10.5 -41q-3 -14 -4 -27.5t-1 -23.5q0 -36 14 -53q8 -9 19.5 -15.5t31.5 -6.5q36 0 58 22q17 17 25 36.5t15 56.5h82q-6 -31 -12.5 -53t-14 -38.5t-17.5 -29.5t-23 -26q-22 -20 -49.5 -30.5t-70.5 -10.5q-38 0 -64 10.5t-45 30.5
q-17 19 -25 45.5t-8 58.5q0 14 1.5 30.5t4.5 30.5q4 20 8.5 36.5t11.5 32.5h-35l10 50h57q26 32 77 56l54 25h-172l10 50h251q15 15 22.5 34.5t12.5 44.5q2 11 3 25.5t1 24.5q0 32 -14 51q-6 8 -18 13.5t-28 5.5q-36 0 -58 -24q-16 -17 -24 -38.5t-13 -51.5h-81
q9 48 23 83.5t44 62.5q23 20 50 30.5t65 10.5q37 0 61 -10t43 -30q32 -33 32 -100q0 -12 -1.5 -28t-3.5 -30q-5 -24 -10.5 -42t-12.5 -32h33l-10 -50h-66q-9 -7 -23.5 -15t-28.5 -15l-104 -51h207l-10 -50h-253z" />
    <glyph glyph-name="afii61352" unicode="&#x2116;" horiz-adv-x="667" 
d="M151 712h74l63 -490l98 490h80l-142 -712h-73l-64 490l-98 -490h-80zM674 540q-13 -64 -24 -96t-27 -49q-27 -30 -74 -30q-27 0 -44.5 9t-25.5 24q-7 12 -9 24.5t-2 28.5q0 12 3.5 35.5t9.5 53.5q13 64 24 96.5t27 49.5q27 30 74 30q27 0 44.5 -9t25.5 -24q7 -12 9 -24.5
t2 -28.5q0 -12 -3.5 -36t-9.5 -54zM540 540q-5 -21 -9 -47.5t-4 -43.5q0 -13 5.5 -23.5t20.5 -10.5q16 0 28 16q10 13 17.5 41t15.5 68q7 33 10.5 54t3.5 38q0 13 -5.5 23.5t-20.5 10.5q-16 0 -28 -16q-10 -13 -18 -41.5t-16 -68.5zM443 328h183l-9 -48h-183z" />
    <glyph glyph-name="trademark" unicode="&#x2122;" horiz-adv-x="579" 
d="M359 712h49l35 -234l128 234h48l-86 -433h-52l58 291l-96 -181h-34l-25 185l-59 -295h-52zM177 662h-69l10 50h190l-10 -50h-69l-76 -383h-52z" />
    <glyph glyph-name="Omega" unicode="&#x2126;" horiz-adv-x="417" 
d="M393 356q-18 -89 -32.5 -149.5t-32.5 -89.5q-10 -17 -21.5 -27.5t-25.5 -19.5h60l-14 -70h-145l13 61q17 8 31.5 23t25.5 37q14 32 27 87.5t32 147.5q16 81 24.5 135.5t8.5 85.5q0 29 -12.5 49.5t-47.5 20.5q-32 0 -55 -23q-11 -11 -20 -26.5t-18 -44.5t-19.5 -76.5
t-25.5 -120.5q-17 -87 -26.5 -142t-9.5 -85q0 -46 35 -68l-12 -61h-145l14 70h65q-17 14 -25.5 32t-8.5 50q0 31 8.5 81.5t22.5 122.5q17 86 30 140.5t25 89.5t25 55t31 37q45 42 117 42q42 0 68.5 -13t42.5 -38q12 -19 17.5 -38.5t5.5 -48.5q0 -34 -8 -88t-25 -138z" />
    <glyph glyph-name="uni2150" unicode="&#x2150;" horiz-adv-x="705" 
d="M211 648l-71 -50l12 63l74 51h51l-85 -427h-53zM533 712h57l-377 -712h-57zM624 380h-89l-13 -61h-50l21 108h196l-8 -42l-176 -385h-56z" />
    <glyph glyph-name="uni2151" unicode="&#x2151;" horiz-adv-x="705" 
d="M211 648l-71 -50l12 63l74 51h51l-85 -427h-53zM533 712h57l-377 -712h-57zM659 299q-7 -37 -16.5 -63t-20.5 -43l-114 -193h-57l107 174q-14 -7 -31 -7q-32 0 -48 18.5t-17 44.5q0 11 1.5 28t6.5 41q9 44 17.5 67t24.5 38q14 14 32.5 21t42.5 7q43 0 63 -25
q17 -20 17 -47q0 -14 -1.5 -26.5t-6.5 -34.5zM606 299q8 38 8 54q0 14 -7.5 23.5t-24.5 9.5q-19 0 -30 -11q-11 -10 -16.5 -27.5t-12.5 -48.5q-8 -38 -8 -55q0 -14 7.5 -23t24.5 -9q19 0 31 11q10 9 16 27t12 49z" />
    <glyph glyph-name="uni2152" unicode="&#x2152;" horiz-adv-x="1003" 
d="M211 648l-71 -50l12 63l74 51h51l-85 -427h-53zM533 712h57l-377 -712h-57zM561 363l-71 -50l12 63l74 51h51l-85 -427h-53zM778 340q9 47 39 72q24 20 66 20q24 0 40 -6.5t24 -15.5q18 -18 18 -47v-14q0 -7 -2 -14l-50 -248q-5 -25 -14 -42t-25 -30q-24 -20 -66 -20
q-24 0 -40 6.5t-24 15.5q-11 12 -14.5 22.5t-3.5 24.5q0 20 2 28zM781 90q-2 -10 -2 -17q0 -13 8.5 -22t25.5 -9q15 0 28 10t18 35l51 250q2 10 2 17q0 13 -8.5 22t-25.5 9q-15 0 -28 -10t-18 -35z" />
    <glyph glyph-name="onethird" unicode="&#x2153;" horiz-adv-x="705" 
d="M211 648l-71 -50l12 63l74 51h51l-85 -427h-53zM533 712h57l-377 -712h-57zM480 340q5 25 14 43t26 31q22 18 63 18q42 0 62 -23q8 -8 11.5 -20t3.5 -32q0 -16 -6 -43q-5 -25 -10 -38t-14 -25q-5 -8 -13 -13.5t-16 -10.5q14 -8 22 -20.5t8 -33.5q0 -11 -2 -22t-6 -30
q-9 -44 -17.5 -66.5t-25.5 -36.5q-13 -11 -30 -17t-41 -6q-20 0 -37.5 6t-28.5 19q-16 19 -16 46q0 14 3 29l5 25h53l-5 -27q-1 -5 -1.5 -10.5t-0.5 -9.5q0 -16 9 -23.5t23 -7.5q18 0 31 11q8 8 13.5 21t13.5 47q5 22 6 34.5t1 18.5q0 14 -8.5 22.5t-24.5 8.5h-25l10 43h21
q8 0 15 3t12 8q9 8 13.5 18t9.5 36q6 27 6 39q0 17 -6 25t-23 8q-35 0 -44 -43l-6 -32h-53z" />
    <glyph glyph-name="twothirds" unicode="&#x2154;" horiz-adv-x="705" 
d="M72 327l151 217q20 29 30 51t10 41q0 34 -32 34q-17 0 -28.5 -10.5t-16.5 -33.5l-6 -31h-53l6 29q10 54 40 75q24 18 62 18q23 0 37 -6t24 -16q10 -11 15 -23.5t5 -30.5v-10q0 -4 -1 -9q-5 -25 -15 -45.5t-32 -51.5l-136 -193h129l-9 -47h-188zM533 712h57l-377 -712h-57
zM480 340q5 25 14 43t26 31q22 18 63 18q42 0 62 -23q8 -8 11.5 -20t3.5 -32q0 -16 -6 -43q-5 -25 -10 -38t-14 -25q-5 -8 -13 -13.5t-16 -10.5q14 -8 22 -20.5t8 -33.5q0 -11 -2 -22t-6 -30q-9 -44 -17.5 -66.5t-25.5 -36.5q-13 -11 -30 -17t-41 -6q-20 0 -37.5 6t-28.5 19
q-16 19 -16 46q0 14 3 29l5 25h53l-5 -27q-1 -5 -1.5 -10.5t-0.5 -9.5q0 -16 9 -23.5t23 -7.5q18 0 31 11q8 8 13.5 21t13.5 47q5 22 6 34.5t1 18.5q0 14 -8.5 22.5t-24.5 8.5h-25l10 43h21q8 0 15 3t12 8q9 8 13.5 18t9.5 36q6 27 6 39q0 17 -6 25t-23 8q-35 0 -44 -43
l-6 -32h-53z" />
    <glyph glyph-name="uni2155" unicode="&#x2155;" horiz-adv-x="705" 
d="M211 648l-71 -50l12 63l74 51h51l-85 -427h-53zM533 712h57l-377 -712h-57zM485 109l-3 -17q-1 -5 -1.5 -10.5t-0.5 -10.5q1 -13 9 -21t24 -8q19 0 31 12q10 9 16.5 25t14.5 59q5 26 7 41.5t2 23.5q0 14 -7 23t-26 9q-17 0 -32 -12.5t-18 -37.5l-1 -6h-49l50 248h178
l-10 -47h-130l-24 -123q12 10 23 15q15 7 36 7q17 0 28 -5t19 -13q16 -17 17 -43q0 -13 -2 -30.5t-8 -49.5q-6 -29 -10.5 -48t-10 -32t-11.5 -22t-15 -17q-27 -24 -72 -24q-21 0 -38 6t-28 18q-7 8 -11.5 19t-4.5 25q0 6 0.5 16t2.5 17l3 13h52z" />
    <glyph glyph-name="uni2156" unicode="&#x2156;" horiz-adv-x="705" 
d="M72 327l151 217q20 29 30 51t10 41q0 34 -32 34q-17 0 -28.5 -10.5t-16.5 -33.5l-6 -31h-53l6 29q10 54 40 75q24 18 62 18q23 0 37 -6t24 -16q10 -11 15 -23.5t5 -30.5v-10q0 -4 -1 -9q-5 -25 -15 -45.5t-32 -51.5l-136 -193h129l-9 -47h-188zM533 712h57l-377 -712h-57
zM485 109l-3 -17q-1 -5 -1.5 -10.5t-0.5 -10.5q1 -13 9 -21t24 -8q19 0 31 12q10 9 16.5 25t14.5 59q5 26 7 41.5t2 23.5q0 14 -7 23t-26 9q-17 0 -32 -12.5t-18 -37.5l-1 -6h-49l50 248h178l-10 -47h-130l-24 -123q12 10 23 15q15 7 36 7q17 0 28 -5t19 -13q16 -17 17 -43
q0 -13 -2 -30.5t-8 -49.5q-6 -29 -10.5 -48t-10 -32t-11.5 -22t-15 -17q-27 -24 -72 -24q-21 0 -38 6t-28 18q-7 8 -11.5 19t-4.5 25q0 6 0.5 16t2.5 17l3 13h52z" />
    <glyph glyph-name="uni2157" unicode="&#x2157;" horiz-adv-x="705" 
d="M131 625q5 25 14 43t26 31q22 18 63 18q42 0 62 -23q8 -8 11.5 -20t3.5 -32q0 -16 -6 -43q-5 -25 -10 -38t-14 -25q-5 -8 -13 -13.5t-16 -10.5q14 -8 22 -20.5t8 -33.5q0 -11 -2 -22t-6 -30q-9 -44 -17.5 -66.5t-25.5 -36.5q-13 -11 -30 -17t-41 -6q-20 0 -37.5 6
t-28.5 19q-16 19 -16 46q0 14 3 29l5 25h53l-5 -27q-1 -5 -1.5 -10.5t-0.5 -9.5q0 -16 9 -23.5t23 -7.5q18 0 31 11q8 8 13.5 21t13.5 47q5 22 6 34.5t1 18.5q0 14 -8.5 22.5t-24.5 8.5h-25l10 43h21q8 0 15 3t12 8q9 8 13.5 18t9.5 36q6 27 6 39q0 17 -6 25t-23 8
q-35 0 -44 -43l-6 -32h-53zM533 712h57l-377 -712h-57zM485 109l-3 -17q-1 -5 -1.5 -10.5t-0.5 -10.5q1 -13 9 -21t24 -8q19 0 31 12q10 9 16.5 25t14.5 59q5 26 7 41.5t2 23.5q0 14 -7 23t-26 9q-17 0 -32 -12.5t-18 -37.5l-1 -6h-49l50 248h178l-10 -47h-130l-24 -123
q12 10 23 15q15 7 36 7q17 0 28 -5t19 -13q16 -17 17 -43q0 -13 -2 -30.5t-8 -49.5q-6 -29 -10.5 -48t-10 -32t-11.5 -22t-15 -17q-27 -24 -72 -24q-21 0 -38 6t-28 18q-7 8 -11.5 19t-4.5 25q0 6 0.5 16t2.5 17l3 13h52z" />
    <glyph glyph-name="uni2158" unicode="&#x2158;" horiz-adv-x="705" 
d="M72 400l175 312h54l-172 -311h69l18 90h53l-18 -90h32l-10 -47h-31l-14 -69h-53l14 69h-127zM533 712h57l-377 -712h-57zM485 109l-3 -17q-1 -5 -1.5 -10.5t-0.5 -10.5q1 -13 9 -21t24 -8q19 0 31 12q10 9 16.5 25t14.5 59q5 26 7 41.5t2 23.5q0 14 -7 23t-26 9
q-17 0 -32 -12.5t-18 -37.5l-1 -6h-49l50 248h178l-10 -47h-130l-24 -123q12 10 23 15q15 7 36 7q17 0 28 -5t19 -13q16 -17 17 -43q0 -13 -2 -30.5t-8 -49.5q-6 -29 -10.5 -48t-10 -32t-11.5 -22t-15 -17q-27 -24 -72 -24q-21 0 -38 6t-28 18q-7 8 -11.5 19t-4.5 25
q0 6 0.5 16t2.5 17l3 13h52z" />
    <glyph glyph-name="uni2159" unicode="&#x2159;" horiz-adv-x="705" 
d="M211 648l-71 -50l12 63l74 51h51l-85 -427h-53zM533 712h57l-377 -712h-57zM436 128q7 37 16.5 63t20.5 43l114 193h57l-107 -174q14 7 31 7q32 0 48 -18.5t17 -44.5q0 -11 -1.5 -28t-6.5 -41q-9 -44 -17.5 -67t-24.5 -38q-14 -14 -32.5 -21t-42.5 -7q-43 0 -63 25
q-17 20 -17 47q0 14 1.5 26.5t6.5 34.5zM489 128q-8 -38 -8 -54q0 -14 7.5 -23.5t24.5 -9.5q19 0 30 11q11 10 16.5 27.5t12.5 48.5q8 38 8 55q0 14 -7.5 23t-24.5 9q-19 0 -31 -11q-10 -9 -16 -27t-12 -49z" />
    <glyph glyph-name="uni215A" unicode="&#x215a;" horiz-adv-x="705" 
d="M135 394l-3 -17q-1 -5 -1.5 -10.5t-0.5 -10.5q1 -13 9 -21t24 -8q19 0 31 12q10 9 16.5 25t14.5 59q5 26 7 41.5t2 23.5q0 14 -7 23t-26 9q-17 0 -32 -12.5t-18 -37.5l-1 -6h-49l50 248h178l-10 -47h-130l-24 -123q12 10 23 15q15 7 36 7q17 0 28 -5t19 -13
q16 -17 17 -43q0 -13 -2 -30.5t-8 -49.5q-6 -29 -10.5 -48t-10 -32t-11.5 -22t-15 -17q-27 -24 -72 -24q-21 0 -38 6t-28 18q-7 8 -11.5 19t-4.5 25q0 6 0.5 16t2.5 17l3 13h52zM533 712h57l-377 -712h-57zM436 128q7 37 16.5 63t20.5 43l114 193h57l-107 -174q14 7 31 7
q32 0 48 -18.5t17 -44.5q0 -11 -1.5 -28t-6.5 -41q-9 -44 -17.5 -67t-24.5 -38q-14 -14 -32.5 -21t-42.5 -7q-43 0 -63 25q-17 20 -17 47q0 14 1.5 26.5t6.5 34.5zM489 128q-8 -38 -8 -54q0 -14 7.5 -23.5t24.5 -9.5q19 0 30 11q11 10 16.5 27.5t12.5 48.5q8 38 8 55
q0 14 -7.5 23t-24.5 9q-19 0 -31 -11q-10 -9 -16 -27t-12 -49z" />
    <glyph glyph-name="oneeighth" unicode="&#x215b;" horiz-adv-x="705" 
d="M211 648l-71 -50l12 63l74 51h51l-85 -427h-53zM533 712h57l-377 -712h-57zM623 120q-8 -44 -16.5 -65t-25.5 -36q-16 -14 -33.5 -19t-40.5 -5q-19 0 -35 5.5t-27 17.5q-8 8 -13 19t-5 26q0 11 2 25.5t5 31.5q4 18 7 30.5t6 21t7 15t9 13.5q7 9 15.5 16t17.5 12
q-12 8 -17 19q-7 11 -7 35q0 7 1 15t4 22q8 40 16.5 58.5t23.5 32.5q13 12 29.5 17t36.5 5q23 0 39.5 -6.5t25.5 -17.5q16 -17 16 -45q0 -9 -0.5 -19.5t-3.5 -24.5q-12 -55 -24 -70q-7 -9 -15.5 -15.5t-18.5 -11.5q10 -7 18 -19t8 -36q0 -8 -0.5 -17.5t-4.5 -29.5zM569 120
q7 35 7 48q0 14 -8 22q-9 9 -24 9q-22 0 -33 -12q-9 -10 -13 -23t-11 -44q-4 -20 -5 -29.5t-1 -16.5q0 -16 6 -22q9 -10 26 -10q19 0 32 11q9 8 13.5 21.5t10.5 45.5zM528 316q-4 -23 -4 -35q0 -17 7 -24q8 -8 23 -8q19 0 31 11q8 8 12 20.5t9 35.5q3 14 4 22.5t1 14.5
q0 16 -8 24t-23 8q-19 0 -30 -11q-13 -13 -22 -58z" />
    <glyph glyph-name="threeeighths" unicode="&#x215c;" horiz-adv-x="705" 
d="M131 625q5 25 14 43t26 31q22 18 63 18q42 0 62 -23q8 -8 11.5 -20t3.5 -32q0 -16 -6 -43q-5 -25 -10 -38t-14 -25q-5 -8 -13 -13.5t-16 -10.5q14 -8 22 -20.5t8 -33.5q0 -11 -2 -22t-6 -30q-9 -44 -17.5 -66.5t-25.5 -36.5q-13 -11 -30 -17t-41 -6q-20 0 -37.5 6
t-28.5 19q-16 19 -16 46q0 14 3 29l5 25h53l-5 -27q-1 -5 -1.5 -10.5t-0.5 -9.5q0 -16 9 -23.5t23 -7.5q18 0 31 11q8 8 13.5 21t13.5 47q5 22 6 34.5t1 18.5q0 14 -8.5 22.5t-24.5 8.5h-25l10 43h21q8 0 15 3t12 8q9 8 13.5 18t9.5 36q6 27 6 39q0 17 -6 25t-23 8
q-35 0 -44 -43l-6 -32h-53zM533 712h57l-377 -712h-57zM623 120q-8 -44 -16.5 -65t-25.5 -36q-16 -14 -33.5 -19t-40.5 -5q-19 0 -35 5.5t-27 17.5q-8 8 -13 19t-5 26q0 11 2 25.5t5 31.5q4 18 7 30.5t6 21t7 15t9 13.5q7 9 15.5 16t17.5 12q-12 8 -17 19q-7 11 -7 35
q0 7 1 15t4 22q8 40 16.5 58.5t23.5 32.5q13 12 29.5 17t36.5 5q23 0 39.5 -6.5t25.5 -17.5q16 -17 16 -45q0 -9 -0.5 -19.5t-3.5 -24.5q-12 -55 -24 -70q-7 -9 -15.5 -15.5t-18.5 -11.5q10 -7 18 -19t8 -36q0 -8 -0.5 -17.5t-4.5 -29.5zM569 120q7 35 7 48q0 14 -8 22
q-9 9 -24 9q-22 0 -33 -12q-9 -10 -13 -23t-11 -44q-4 -20 -5 -29.5t-1 -16.5q0 -16 6 -22q9 -10 26 -10q19 0 32 11q9 8 13.5 21.5t10.5 45.5zM528 316q-4 -23 -4 -35q0 -17 7 -24q8 -8 23 -8q19 0 31 11q8 8 12 20.5t9 35.5q3 14 4 22.5t1 14.5q0 16 -8 24t-23 8
q-19 0 -30 -11q-13 -13 -22 -58z" />
    <glyph glyph-name="fiveeighths" unicode="&#x215d;" horiz-adv-x="705" 
d="M135 394l-3 -17q-1 -5 -1.5 -10.5t-0.5 -10.5q1 -13 9 -21t24 -8q19 0 31 12q10 9 16.5 25t14.5 59q5 26 7 41.5t2 23.5q0 14 -7 23t-26 9q-17 0 -32 -12.5t-18 -37.5l-1 -6h-49l50 248h178l-10 -47h-130l-24 -123q12 10 23 15q15 7 36 7q17 0 28 -5t19 -13
q16 -17 17 -43q0 -13 -2 -30.5t-8 -49.5q-6 -29 -10.5 -48t-10 -32t-11.5 -22t-15 -17q-27 -24 -72 -24q-21 0 -38 6t-28 18q-7 8 -11.5 19t-4.5 25q0 6 0.5 16t2.5 17l3 13h52zM533 712h57l-377 -712h-57zM623 120q-8 -44 -16.5 -65t-25.5 -36q-16 -14 -33.5 -19t-40.5 -5
q-19 0 -35 5.5t-27 17.5q-8 8 -13 19t-5 26q0 11 2 25.5t5 31.5q4 18 7 30.5t6 21t7 15t9 13.5q7 9 15.5 16t17.5 12q-12 8 -17 19q-7 11 -7 35q0 7 1 15t4 22q8 40 16.5 58.5t23.5 32.5q13 12 29.5 17t36.5 5q23 0 39.5 -6.5t25.5 -17.5q16 -17 16 -45q0 -9 -0.5 -19.5
t-3.5 -24.5q-12 -55 -24 -70q-7 -9 -15.5 -15.5t-18.5 -11.5q10 -7 18 -19t8 -36q0 -8 -0.5 -17.5t-4.5 -29.5zM569 120q7 35 7 48q0 14 -8 22q-9 9 -24 9q-22 0 -33 -12q-9 -10 -13 -23t-11 -44q-4 -20 -5 -29.5t-1 -16.5q0 -16 6 -22q9 -10 26 -10q19 0 32 11
q9 8 13.5 21.5t10.5 45.5zM528 316q-4 -23 -4 -35q0 -17 7 -24q8 -8 23 -8q19 0 31 11q8 8 12 20.5t9 35.5q3 14 4 22.5t1 14.5q0 16 -8 24t-23 8q-19 0 -30 -11q-13 -13 -22 -58z" />
    <glyph glyph-name="seveneighths" unicode="&#x215e;" horiz-adv-x="705" 
d="M274 665h-89l-13 -61h-50l21 108h196l-8 -42l-176 -385h-56zM533 712h57l-377 -712h-57zM623 120q-8 -44 -16.5 -65t-25.5 -36q-16 -14 -33.5 -19t-40.5 -5q-19 0 -35 5.5t-27 17.5q-8 8 -13 19t-5 26q0 11 2 25.5t5 31.5q4 18 7 30.5t6 21t7 15t9 13.5q7 9 15.5 16
t17.5 12q-12 8 -17 19q-7 11 -7 35q0 7 1 15t4 22q8 40 16.5 58.5t23.5 32.5q13 12 29.5 17t36.5 5q23 0 39.5 -6.5t25.5 -17.5q16 -17 16 -45q0 -9 -0.5 -19.5t-3.5 -24.5q-12 -55 -24 -70q-7 -9 -15.5 -15.5t-18.5 -11.5q10 -7 18 -19t8 -36q0 -8 -0.5 -17.5t-4.5 -29.5z
M569 120q7 35 7 48q0 14 -8 22q-9 9 -24 9q-22 0 -33 -12q-9 -10 -13 -23t-11 -44q-4 -20 -5 -29.5t-1 -16.5q0 -16 6 -22q9 -10 26 -10q19 0 32 11q9 8 13.5 21.5t10.5 45.5zM528 316q-4 -23 -4 -35q0 -17 7 -24q8 -8 23 -8q19 0 31 11q8 8 12 20.5t9 35.5q3 14 4 22.5
t1 14.5q0 16 -8 24t-23 8q-19 0 -30 -11q-13 -13 -22 -58z" />
    <glyph glyph-name="uni215F" unicode="&#x215f;" horiz-adv-x="407" 
d="M211 648l-71 -50l12 63l74 51h51l-85 -427h-53zM533 712h57l-377 -712h-57z" />
    <glyph glyph-name="uni2189" unicode="&#x2189;" horiz-adv-x="705" 
d="M130 625q9 47 39 72q24 20 66 20q24 0 40 -6.5t24 -15.5q18 -18 18 -47v-14q0 -7 -2 -14l-50 -248q-5 -25 -14 -42t-25 -30q-24 -20 -66 -20q-24 0 -40 6.5t-24 15.5q-11 12 -14.5 22.5t-3.5 24.5q0 20 2 28zM133 375q-2 -10 -2 -17q0 -13 8.5 -22t25.5 -9q15 0 28 10
t18 35l51 250q2 10 2 17q0 13 -8.5 22t-25.5 9q-15 0 -28 -10t-18 -35zM533 712h57l-377 -712h-57zM480 340q5 25 14 43t26 31q22 18 63 18q42 0 62 -23q8 -8 11.5 -20t3.5 -32q0 -16 -6 -43q-5 -25 -10 -38t-14 -25q-5 -8 -13 -13.5t-16 -10.5q14 -8 22 -20.5t8 -33.5
q0 -11 -2 -22t-6 -30q-9 -44 -17.5 -66.5t-25.5 -36.5q-13 -11 -30 -17t-41 -6q-20 0 -37.5 6t-28.5 19q-16 19 -16 46q0 14 3 29l5 25h53l-5 -27q-1 -5 -1.5 -10.5t-0.5 -9.5q0 -16 9 -23.5t23 -7.5q18 0 31 11q8 8 13.5 21t13.5 47q5 22 6 34.5t1 18.5q0 14 -8.5 22.5
t-24.5 8.5h-25l10 43h21q8 0 15 3t12 8q9 8 13.5 18t9.5 36q6 27 6 39q0 17 -6 25t-23 8q-35 0 -44 -43l-6 -32h-53z" />
    <glyph glyph-name="arrowleft" unicode="&#x2190;" horiz-adv-x="677" 
d="M29 277l250 249h107l-212 -209h455v-79h-455l212 -211h-107z" />
    <glyph glyph-name="arrowup" unicode="&#x2191;" horiz-adv-x="677" 
d="M92 336l249 251l250 -251v-106l-210 212v-455h-79v455l-210 -212v106z" />
    <glyph glyph-name="arrowright" unicode="&#x2192;" horiz-adv-x="677" 
d="M54 317h455l-212 209h107l250 -249l-250 -250h-107l212 211h-455v79z" />
    <glyph glyph-name="arrowdown" unicode="&#x2193;" horiz-adv-x="677" 
d="M92 324l210 -212v455h79v-455l210 212v-107l-250 -250l-249 250v107z" />
    <glyph glyph-name="uni2196" unicode="&#x2196;" horiz-adv-x="677" 
d="M129 498h354l75 -75l-298 2l321 -322l-56 -56l-322 321l2 -298l-76 75v353z" />
    <glyph glyph-name="uni2197" unicode="&#x2197;" horiz-adv-x="677" 
d="M423 425l-298 -2l75 76h353v-354l-75 -75l2 298l-322 -321l-56 56z" />
    <glyph glyph-name="uni2198" unicode="&#x2198;" horiz-adv-x="677" 
d="M423 129l-321 322l55 55l322 -321l-1 299l75 -76v-353h-353l-76 76z" />
    <glyph glyph-name="uni2199" unicode="&#x2199;" horiz-adv-x="677" 
d="M130 408l75 76l-1 -299l322 321l55 -55l-321 -322l298 2l-75 -76h-353v353z" />
    <glyph glyph-name="partialdiff" unicode="&#x2202;" horiz-adv-x="364" 
d="M32 41q-8 13 -11.5 29.5t-3.5 40.5q0 20 5.5 56t13.5 81q19 99 37 149.5t41 72.5q34 33 88 33q31 0 51 -16q17 -14 24 -28l17 90q3 17 5 29.5t2 21.5q0 8 -2 18t-8 17q-7 8 -15.5 12t-22.5 4q-39 0 -69 -33l-40 49q27 28 54.5 40t67.5 12q33 0 54.5 -10t35.5 -27
q12 -15 17.5 -31.5t5.5 -39.5q0 -13 -3 -33t-7 -41l-56 -278q-19 -91 -37.5 -146.5t-41.5 -79.5q-20 -21 -46.5 -31t-58.5 -10q-36 0 -59.5 12.5t-37.5 36.5zM233 247q3 16 6.5 34.5t6.5 37t4.5 35.5t1.5 29q0 21 -9 34.5t-30 13.5q-17 0 -31 -9q-7 -5 -14.5 -13.5
t-15.5 -27t-17.5 -50.5t-20.5 -84q-3 -16 -6.5 -34.5t-6.5 -37t-4.5 -35.5t-1.5 -29q0 -21 9 -34.5t30 -13.5q17 0 31 9q7 4 14.5 12.5t15.5 27.5t17.5 51t20.5 84z" />
    <glyph glyph-name="Delta" unicode="&#x2206;" horiz-adv-x="402" 
d="M253 712h79l14 -712h-392zM264 73l6 505l-196 -505h190z" />
    <glyph glyph-name="product" unicode="&#x220f;" horiz-adv-x="433" 
d="M161 760h313l-194 -964h-82l179 891h-149l-178 -891h-82z" />
    <glyph glyph-name="summation" unicode="&#x2211;" horiz-adv-x="352" 
d="M173 298l-48 401l13 61h272l-14 -73h-186l37 -355l-16 -84l-181 -380h192l-15 -73h-279l12 60z" />
    <glyph glyph-name="minus" unicode="&#x2212;" horiz-adv-x="420" 
d="M57 319h332l-15 -73h-332z" />
    <glyph glyph-name="uni2219" unicode="&#x2219;" horiz-adv-x="420" 
d="M57 283q0 32 12 60t33 49t49 33t60 12t60.5 -12t49.5 -33t33 -49t12 -60t-12 -60t-33 -49t-49.5 -33t-60.5 -12t-60 12t-49 33t-33 49t-12 60z" />
    <glyph glyph-name="radical" unicode="&#x221a;" horiz-adv-x="441" 
d="M54 508h82l-3 -384l231 588h144l-15 -73h-77l-265 -639h-85z" />
    <glyph glyph-name="infinity" unicode="&#x221e;" horiz-adv-x="615" 
d="M363 280q23 -27 42 -44t43 -17q26 0 43.5 16t17.5 45q0 28 -17.5 44.5t-43.5 16.5q-25 0 -44 -17.5t-41 -43.5zM313 334q32 38 64.5 58t72.5 20q62 0 96 -38t34 -93q0 -27 -9 -50.5t-25.5 -41t-40.5 -27.5t-55 -10q-40 0 -72.5 20t-64.5 58q-32 -38 -64.5 -58t-72.5 -20
q-31 0 -55 10t-40.5 27.5t-25.5 41t-9 50.5q0 55 34 93t96 38q40 0 72.5 -20t64.5 -58zM263 280q-22 26 -41 43.5t-44 17.5q-26 0 -43.5 -16.5t-17.5 -44.5q0 -29 17.5 -45t43.5 -16q24 0 43 17t42 44z" />
    <glyph glyph-name="integral" unicode="&#x222b;" horiz-adv-x="280" 
d="M331 647q-39 0 -61.5 -20.5t-30.5 -61.5l-122 -610q-8 -42 -22.5 -70t-40.5 -48q-11 -8 -22.5 -14t-25.5 -10t-31.5 -5.5t-39.5 -1.5l13 70q40 0 62 20.5t30 62.5l122 609q8 42 23 70t41 48q22 17 47.5 24t71.5 7z" />
    <glyph glyph-name="approxequal" unicode="&#x2248;" horiz-adv-x="420" 
d="M18 194q39 35 64.5 47.5t53.5 12.5q22 0 38.5 -6.5t37.5 -18.5q14 -8 26 -14t29 -6t32.5 7.5t39.5 30.5l41 -52q-36 -32 -62.5 -45.5t-55.5 -13.5q-22 0 -38.5 7.5t-36.5 18.5q-17 11 -28.5 15.5t-26.5 4.5q-17 0 -34 -8.5t-40 -31.5zM50 358q39 35 64.5 47.5t53.5 12.5
q22 0 38.5 -6.5t37.5 -18.5q14 -8 26 -14t29 -6t32.5 7.5t39.5 30.5l41 -52q-36 -32 -62.5 -45.5t-55.5 -13.5q-22 0 -38.5 7.5t-36.5 18.5q-17 11 -28.5 15.5t-26.5 4.5q-17 0 -34 -8.5t-40 -31.5z" />
    <glyph glyph-name="notequal" unicode="&#x2260;" horiz-adv-x="420" 
d="M372 234l-15 -73h-203l-95 -105l-49 41l60 64h-46l15 73h94l79 88h-154l15 73h202l95 107l49 -41l-60 -66h45l-15 -73h-93l-79 -88h155z" />
    <glyph glyph-name="lessequal" unicode="&#x2264;" horiz-adv-x="360" 
d="M33 263l259 -182l-17 -88l-259 183zM64 419l332 183l-19 -97l-229 -123l179 -126l-17 -84l-259 183z" />
    <glyph glyph-name="greaterequal" unicode="&#x2265;" horiz-adv-x="360" 
d="M-4 81l333 182l-18 -87l-332 -183zM347 353l-332 -183l19 97l229 123l-179 126l17 84l259 -183z" />
    <glyph glyph-name="dotmath" unicode="&#x22c5;" horiz-adv-x="420" 
d="M161 350h132l-26 -131h-132z" />
    <glyph glyph-name="lozenge" unicode="&#x25ca;" horiz-adv-x="467" 
d="M196 56l-134 285l239 271l134 -285zM216 173l139 161l-74 161l-138 -161z" />
    <glyph glyph-name="fi" unicode="&#xfb01;" horiz-adv-x="404" 
d="M327 518h76l-103 -518h-76zM358 696h85l-18 -87h-85zM111 459h-54l11 59h55l10 50q8 42 22.5 70t40.5 47q22 16 47.5 23t70.5 7l-14 -67q-39 0 -61.5 -21t-30.5 -62l-9 -47h75l-11 -59h-76l-91 -459h-76z" />
    <glyph glyph-name="fl" unicode="&#xfb02;" horiz-adv-x="439" 
d="M274 34q-25 28 -25 72q0 17 4 40l113 566h76l-112 -561q-3 -18 -3 -32q0 -24 14.5 -37.5t44.5 -13.5l-13 -68q-38 0 -62 10t-37 24zM111 459h-54l11 59h55l10 50q8 42 22.5 70t40.5 47q22 16 47.5 23t70.5 7l-14 -67q-39 0 -61.5 -21t-30.5 -62l-9 -47h75l-11 -59h-76
l-91 -459h-76z" />
    <glyph glyph-name="uniFEFF" unicode="&#xfeff;" horiz-adv-x="0" 
 />
    <glyph glyph-name="caroncomma.ss01" horiz-adv-x="470" 
d="M459 734h62l-24 -124l-72 -47z" />
    <glyph glyph-name="caroncomma" horiz-adv-x="471" 
d="M467 730h61l-60 -144h-52z" />
    <glyph glyph-name="commaaccent" 
d="M100 -38h55l-73 -142h-65z" />
    <glyph glyph-name="commaturn" horiz-adv-x="283" 
d="M269 583h-55l73 142h65z" />
    <glyph glyph-name="breveCyrLc.comp" 
d="M204 687q-1 -5 -1 -10q0 -22 12.5 -32.5t34.5 -10.5q23 0 41 12t26 41h55q-14 -56 -44 -81.5t-84 -25.5q-47 0 -72 23t-25 61q0 5 0.5 10t1.5 13h55z" />
    <glyph glyph-name="breveCyrUc.comp" horiz-adv-x="415" 
d="M270 862q-1 -5 -1 -10q0 -22 12.5 -32.5t33.5 -10.5q23 0 41 12t27 41h55q-14 -56 -44 -81.5t-84 -25.5q-47 0 -72 23.5t-25 61.5v9q0 5 2 13h55z" />
    <glyph glyph-name="grave.lc" 
d="M168 718h66l39 -134h-57z" />
    <glyph glyph-name="dieresis.lc" 
d="M147 678h76l-16 -80h-76zM294 678h76l-16 -80h-76z" />
    <glyph glyph-name="macron.lc" 
d="M146 662h214l-11 -54h-214z" />
    <glyph glyph-name="acute.lc" horiz-adv-x="352" 
d="M299 717h72l-102 -134h-63z" />
    <glyph glyph-name="circumflex.lc" 
d="M357 583h-58l-39 88l-74 -88h-64l114 134h61z" />
    <glyph glyph-name="caron.lc" 
d="M149 712h57l40 -87l74 87h63l-114 -134h-60z" />
    <glyph glyph-name="breve.lc" 
d="M370 688q-14 -60 -45 -84t-82 -24q-46 0 -70 23.5t-24 61.5v10q0 5 1 13h53v-8q0 -46 46 -46q23 0 41 12.5t26 41.5h54z" />
    <glyph glyph-name="dotaccent.lc" 
d="M222 681h76l-17 -80h-75z" />
    <glyph glyph-name="ring.lc" 
d="M157 680q0 20 7.5 37.5t20.5 31t30.5 21t37.5 7.5t37.5 -7.5t31 -21t21 -31t7.5 -37.5t-7.5 -37.5t-21 -30.5t-31 -20.5t-37.5 -7.5q-40 0 -68 28t-28 68zM203 680q0 -22 14 -37t36 -15t36 15t14 37t-14 37t-36 15t-36 -15t-14 -37z" />
    <glyph glyph-name="tilde.lc" 
d="M126 642q24 21 41.5 29.5t36.5 8.5q18 0 29 -4t25 -13q11 -8 20 -11.5t21 -3.5q14 0 24 5.5t23 18.5l30 -38q-25 -22 -42 -30.5t-37 -8.5q-17 0 -28 4t-25 13q-11 8 -20 11.5t-22 3.5q-14 0 -23.5 -5.5t-23.5 -18.5z" />
    <glyph glyph-name="hungarumlaut.lc" horiz-adv-x="352" 
d="M221 718h68l-84 -135h-60zM350 718h68l-84 -135h-60z" />
    <glyph glyph-name="grave.uc" horiz-adv-x="416" 
d="M233 894h66l39 -134h-57z" />
    <glyph glyph-name="dieresis.uc" horiz-adv-x="415" 
d="M212 853h76l-16 -80h-76zM359 853h76l-16 -80h-76z" />
    <glyph glyph-name="macron.uc" horiz-adv-x="415" 
d="M214 837h214l-11 -54h-214z" />
    <glyph glyph-name="acute.uc" horiz-adv-x="416" 
d="M364 892h72l-102 -134h-63z" />
    <glyph glyph-name="circumflex.uc" horiz-adv-x="415" 
d="M423 758h-58l-39 88l-74 -88h-64l114 134h61z" />
    <glyph glyph-name="caron.uc" horiz-adv-x="415" 
d="M214 887h57l40 -87l74 87h63l-114 -134h-60z" />
    <glyph glyph-name="breve.uc" horiz-adv-x="415" 
d="M436 863q-14 -60 -45 -84t-82 -24q-46 0 -70 23.5t-24 61.5v10q0 5 1 13h53v-8q0 -46 46 -46q23 0 41 12.5t26 41.5h54z" />
    <glyph glyph-name="dotaccent.uc" horiz-adv-x="415" 
d="M288 856h76l-17 -80h-75z" />
    <glyph glyph-name="ring.uc" horiz-adv-x="415" 
d="M219 848q0 20 7.5 37.5t20.5 31t30.5 21t37.5 7.5t37.5 -7.5t31 -21t21 -31t7.5 -37.5t-7.5 -37.5t-21 -30.5t-31 -20.5t-37.5 -7.5q-40 0 -68 28t-28 68zM265 848q0 -22 14 -37t36 -15t36 15t14 37t-14 37t-36 15t-36 -15t-14 -37z" />
    <glyph glyph-name="tilde.uc" horiz-adv-x="416" 
d="M191 817q24 21 41.5 29.5t36.5 8.5q18 0 29 -4t25 -13q11 -8 20 -11.5t21 -3.5q14 0 24 5.5t23 18.5l30 -38q-25 -22 -42 -30.5t-37 -8.5q-17 0 -28 4t-25 13q-11 8 -20 11.5t-22 3.5q-14 0 -23.5 -5.5t-23.5 -18.5z" />
    <glyph glyph-name="hungarumlaut.uc" horiz-adv-x="416" 
d="M287 893h68l-84 -135h-60zM416 893h68l-84 -135h-60z" />
    </font>
</defs>
</svg>
