<?xml version="1.0" standalone="no"?>
<!DOCTYPE svg PUBLIC "-//W3C//DTD SVG 1.1//EN" "http://www.w3.org/Graphics/SVG/1.1/DTD/svg11.dtd" >
<svg xmlns="http://www.w3.org/2000/svg" xmlns:xlink="http://www.w3.org/1999/xlink" version="1.1">
<metadata>
Created by FontForge 20170731 at Mon May 27 07:48:45 2013
 By Aleksey,,,
2009 Albert-Jan Pool published by FSI FontShop International GmbH
</metadata>
<defs>
<font id="AdihausDIN-CnMedium" horiz-adv-x="375" >
  <font-face 
    font-family="AdihausDIN Cn Medium"
    font-weight="500"
    font-stretch="condensed"
    units-per-em="1000"
    panose-1="2 11 6 6 2 1 1 1 1 2"
    ascent="764"
    descent="-236"
    x-height="518"
    cap-height="712"
    bbox="-70 -206 1030 1093"
    underline-thickness="61"
    underline-position="-173"
    unicode-range="U+0020-FEFF"
  />
<missing-glyph horiz-adv-x="395" 
d="M57 712h281v-712h-281v712zM277 61v590h-159v-590h159z" />
    <glyph glyph-name=".notdef" horiz-adv-x="395" 
d="M57 712h281v-712h-281v712zM277 61v590h-159v-590h159z" />
    <glyph glyph-name=".null" horiz-adv-x="0" 
 />
    <glyph glyph-name="nonmarkingreturn" horiz-adv-x="187" 
 />
    <glyph glyph-name="space" unicode=" " horiz-adv-x="187" 
 />
    <glyph glyph-name="exclam" unicode="!" horiz-adv-x="242" 
d="M93 193v519h81v-519h-81zM84 0v99h99v-99h-99z" />
    <glyph glyph-name="quotedbl" unicode="&#x22;" horiz-adv-x="395" 
d="M244 520v192h83v-192h-83zM67 520v192h83v-192h-83z" />
    <glyph glyph-name="numbersign" unicode="#" horiz-adv-x="554" 
d="M421 436l-19 -145h72v-76h-84l-29 -215h-82l29 215h-105l-29 -215h-82l29 215h-70v76h82l19 145h-72v76h83l27 200h83l-27 -200h104l27 200h83l-28 -200h71v-76h-82zM234 436l-19 -145h104l20 145h-105z" />
    <glyph glyph-name="dollar" unicode="$" horiz-adv-x="434" 
d="M391 191q0 -56 -9.5 -92.5t-35.5 -62.5q-16 -16 -38.5 -26.5t-52.5 -14.5v-109h-77v108q-62 7 -96 42q-25 25 -34.5 59t-9.5 91h86q0 -35 5 -56.5t19 -36.5q10 -12 30 -18v262l-38 16q-27 11 -46 25t-30 34.5t-16 49t-5 69.5q0 47 13.5 84t40.5 62q33 30 81 39v90h77v-90
q55 -8 87 -39q27 -26 37 -61.5t10 -84.5h-86q0 29 -4 49t-18 37q-10 12 -26 19v-235l36 -15q30 -12 49.5 -28.5t31 -39.5t15.5 -54t4 -73zM305 189q0 27 -2 46t-8 33t-15.5 24t-24.5 18v-234q16 6 27 18q14 16 18.5 38t4.5 57zM178 636q-14 -6 -24 -17q-25 -28 -25 -85
q0 -23 2 -39.5t7 -28.5t15 -21t25 -17v208z" />
    <glyph glyph-name="percent" unicode="%" horiz-adv-x="675" 
d="M624 102q0 -53 -32.5 -81.5t-80.5 -28.5t-80.5 28.5t-32.5 81.5v154q0 53 32.5 81.5t80.5 28.5t80.5 -28.5t32.5 -81.5v-154zM276 456q0 -53 -32.5 -81.5t-80.5 -28.5t-80 28.5t-32 81.5v154q0 53 32 81.5t80 28.5t80.5 -28.5t32.5 -81.5v-154zM246 0h-65l248 712h65z
M556 254q0 25 -12 38t-33 13t-33 -13t-12 -38v-151q0 -25 12 -38t33 -13t33 13t12 38v151zM208 609q0 25 -12 38t-33 13q-44 0 -44 -51v-151q0 -51 44 -51q21 0 33 13t12 38v151z" />
    <glyph glyph-name="ampersand" unicode="&#x26;" horiz-adv-x="492" 
d="M402 0l-48 73q-32 -37 -66.5 -59t-88.5 -22q-35 0 -64.5 12t-51.5 35t-34.5 55.5t-12.5 74.5q0 63 28.5 114t86.5 106q-21 30 -36.5 53t-25.5 44t-15 40.5t-5 41.5q0 69 37 110t100 41q70 0 104.5 -40.5t34.5 -101.5q0 -32 -6 -58t-18.5 -49.5t-31.5 -46t-44 -46.5
l109 -165q15 29 25 70t13 80h72q-4 -61 -21.5 -119.5t-43.5 -101.5l90 -141h-87zM191 324q-40 -40 -58.5 -75t-18.5 -73q0 -47 24.5 -78.5t67.5 -31.5q32 0 57.5 19.5t49.5 51.5zM270 575q0 32 -17.5 51.5t-45.5 19.5q-32 0 -47.5 -23.5t-15.5 -52.5q0 -26 13.5 -54
t46.5 -74q16 16 28 30.5t20.5 30t13 33t4.5 39.5z" />
    <glyph glyph-name="quotesingle" unicode="'" horiz-adv-x="218" 
d="M67 520v192h84v-192h-84z" />
    <glyph glyph-name="parenleft" unicode="(" horiz-adv-x="244" 
d="M148 -94q-22 22 -41 43.5t-32 44.5q-14 26 -18 53t-4 55v508q0 28 4 55t18 53q14 25 32.5 45.5t40.5 42.5l55 -55q-16 -16 -30 -30.5t-24 -33.5q-15 -30 -15 -83v-496q0 -53 15 -83q10 -19 24 -33.5t30 -30.5z" />
    <glyph glyph-name="parenright" unicode=")" horiz-adv-x="244" 
d="M191 102q0 -28 -4 -55t-18 -53q-13 -23 -32 -44.5t-41 -43.5l-55 55q16 16 30 30.5t24 33.5q15 30 15 83v496q0 53 -15 83q-10 19 -24 33.5t-30 30.5l55 55q22 -22 40.5 -42.5t32.5 -45.5q14 -26 18 -53t4 -55v-508z" />
    <glyph glyph-name="asterisk" unicode="*" horiz-adv-x="393" 
d="M316 440l-92 56l3 -126h-61l4 126l-93 -56l-30 52l95 51l-95 50l30 53l93 -57l-4 126h61l-3 -126l92 57l30 -53l-96 -50l96 -51z" />
    <glyph glyph-name="plus" unicode="+" horiz-adv-x="444" 
d="M261 244v-137h-77v137h-138v77h138v138h77v-138h137v-77h-137z" />
    <glyph glyph-name="comma" unicode="," horiz-adv-x="207" 
d="M57 -124v224h92v-156z" />
    <glyph glyph-name="hyphen" unicode="-" horiz-adv-x="298" 
d="M51 244v77h196v-77h-196z" />
    <glyph glyph-name="period" unicode="." horiz-adv-x="216" 
d="M59 0v99h99v-99h-99z" />
    <glyph glyph-name="slash" unicode="/" horiz-adv-x="272" 
d="M83 -74h-79l185 860h79z" />
    <glyph glyph-name="zero" unicode="0" horiz-adv-x="381" 
d="M333 140q0 -40 -10.5 -65.5t-29.5 -44.5q-19 -18 -46.5 -28t-56.5 -10t-56 10t-46 28q-19 19 -29.5 44.5t-10.5 65.5v432q0 40 10.5 65.5t29.5 44.5q19 18 46 28t56 10t56.5 -10t46.5 -28q19 -19 29.5 -44.5t10.5 -65.5v-432zM252 575q0 36 -18 54t-44 18t-43.5 -18
t-17.5 -54v-438q0 -36 17.5 -54t43.5 -18t44 18t18 54v438z" />
    <glyph glyph-name="one" unicode="1" horiz-adv-x="381" 
d="M171 0v617l-104 -85v94l104 86h81v-712h-81z" />
    <glyph glyph-name="two" unicode="2" horiz-adv-x="381" 
d="M49 0v68l174 369q12 26 22 60.5t10 77.5q0 36 -17.5 54t-43.5 18t-44 -18t-18 -54v-48h-81v46q0 39 10.5 64.5t29.5 44.5q19 18 46.5 28t56.5 10t55 -9t45 -27t30.5 -45t11.5 -67t-12 -83t-29 -78l-159 -338h200v-73h-287z" />
    <glyph glyph-name="three" unicode="3" horiz-adv-x="381" 
d="M334 200q0 -35 -1.5 -61t-6.5 -46t-13.5 -35t-21.5 -28q-19 -18 -46 -28t-57 -10q-29 0 -56.5 9.5t-45.5 28.5q-20 18 -30.5 43.5t-10.5 66.5v45h81v-48q0 -36 18 -54t44 -18q28 0 43 19q11 13 16.5 37t5.5 79q0 33 -1 53.5t-3.5 34t-6.5 22t-10 15.5q-16 19 -44 19h-38
v70h38q27 0 39 15q12 14 16 35.5t4 66.5t-4 66t-14 33q-15 17 -41 17q-25 0 -41 -17.5t-16 -52.5v-50h-81v46q0 39 10 65t29 45q39 37 99 37q63 0 99 -36q22 -22 31.5 -56t9.5 -92q0 -44 -3.5 -70t-14.5 -47q-14 -25 -40 -40q26 -17 41 -39q7 -12 11.5 -24t7 -28t3.5 -37
t1 -51z" />
    <glyph glyph-name="four" unicode="4" horiz-adv-x="381" 
d="M303 117v-117h-81v117h-193v73l182 522h78l-177 -522h110v163h81v-163h50v-73h-50z" />
    <glyph glyph-name="five" unicode="5" horiz-adv-x="381" 
d="M337 228q0 -38 -1.5 -66.5t-6 -51.5t-13 -41t-23.5 -35q-18 -20 -45.5 -31t-56.5 -11q-30 0 -57 9.5t-46 27.5q-19 19 -30 44.5t-11 66.5v40h81v-40q0 -39 18.5 -57t44.5 -18q27 0 44 21q6 7 9.5 17t6 26t3.5 39.5t1 59.5q0 33 -1 56t-3 39t-5.5 27t-9.5 19
q-17 24 -45 24q-26 0 -44.5 -19t-18.5 -53v-24h-77v415h277v-73h-202v-221q12 19 35 33q12 8 25 11t27 3q31 0 52 -10.5t37 -30.5q10 -12 16.5 -26.5t10.5 -37t6 -54.5t2 -78z" />
    <glyph glyph-name="six" unicode="6" horiz-adv-x="381" 
d="M336 213q0 -38 -2 -65t-6 -47t-10.5 -34.5t-16.5 -26.5q-19 -25 -48.5 -36.5t-62.5 -11.5q-36 0 -64 12.5t-45 35.5q-11 14 -18 29.5t-11 35.5t-5.5 46t-1.5 62q0 54 7.5 97.5t21.5 81.5l120 320h83l-115 -297q22 17 51 17q55 0 87 -41q10 -12 16.5 -25t11 -33t6.5 -48.5
t2 -71.5zM255 214q0 54 -3.5 84t-16.5 47q-15 19 -44 19t-44 -19q-14 -16 -17.5 -46.5t-3.5 -84.5t3.5 -84t17.5 -46q15 -19 44 -19q27 0 44 19q14 16 17 46t3 84z" />
    <glyph glyph-name="seven" unicode="7" horiz-adv-x="381" 
d="M151 0h-82l188 639h-138v-105h-79v178h299v-67z" />
    <glyph glyph-name="eight" unicode="8" horiz-adv-x="381" 
d="M336 199q0 -33 -1.5 -58t-6 -44.5t-13 -35.5t-22.5 -30q-18 -19 -45.5 -29t-56.5 -10q-30 0 -57 10t-46 29q-14 14 -22.5 30t-13 35.5t-6 44.5t-1.5 58q0 30 1 51t3.5 36.5t7 27t11.5 22.5q14 23 41 40q-26 18 -39 41q-11 21 -15.5 46.5t-4.5 69.5q0 58 9 92t33 58
q37 37 98 37q29 0 55 -9t44 -28q24 -24 33 -58t9 -92q0 -44 -4.5 -69.5t-15.5 -46.5q-13 -23 -39 -41q27 -17 41 -40q7 -11 11.5 -22.5t7 -27t3.5 -36.5t1 -51zM255 202q0 29 -1 48.5t-3 33t-6.5 22.5t-10.5 17q-16 19 -43 19q-28 0 -44 -19q-6 -8 -10.5 -17t-6.5 -22.5
t-3 -33t-1 -48.5q0 -26 1 -45t3.5 -33t6.5 -23.5t10 -16.5q15 -19 44 -19q27 0 43 19q6 7 10 16.5t6.5 23.5t3.5 33t1 45zM250 529q0 50 -5 70.5t-16 32.5q-15 15 -38 15q-24 0 -39 -15q-11 -12 -16 -32.5t-5 -70.5t5 -71t16 -33q14 -14 39 -14q24 0 38 14q11 12 16 33t5 71
z" />
    <glyph glyph-name="nine" unicode="9" horiz-adv-x="381" 
d="M336 499q0 -54 -7.5 -97.5t-21.5 -81.5l-120 -320h-83l116 297q-23 -17 -51 -17q-55 0 -88 41q-10 12 -16.5 25t-11 33t-6.5 48.5t-2 71.5q0 38 2 65t6 47t11 34.5t17 26.5q18 25 47.5 36.5t62.5 11.5q36 0 64 -12.5t45 -35.5q11 -14 18 -29.5t11 -35.5t5.5 -46t1.5 -62z
M255 498q0 53 -3 83.5t-17 46.5q-17 19 -44 19q-29 0 -44 -19q-14 -16 -17.5 -46.5t-3.5 -83.5t3.5 -84t17.5 -47q15 -19 44 -19q27 0 44 19q14 16 17 46.5t3 84.5z" />
    <glyph glyph-name="colon" unicode=":" horiz-adv-x="242" 
d="M84 326v99h99v-99h-99zM84 0v99h99v-99h-99z" />
    <glyph glyph-name="semicolon" unicode=";" horiz-adv-x="242" 
d="M88 -124v224h92v-156zM84 326v99h99v-99h-99z" />
    <glyph glyph-name="less" unicode="&#x3c;" horiz-adv-x="381" 
d="M34 257v61l313 183v-90l-216 -123l216 -123v-90z" />
    <glyph glyph-name="equal" unicode="=" horiz-adv-x="444" 
d="M46 320v77h352v-77h-352zM46 158v77h352v-77h-352z" />
    <glyph glyph-name="greater" unicode="&#x3e;" horiz-adv-x="381" 
d="M34 75v90l216 123l-216 123v90l313 -183v-61z" />
    <glyph glyph-name="question" unicode="?" horiz-adv-x="400" 
d="M362 535q0 -38 -6.5 -65.5t-24.5 -53.5l-59 -85q-22 -32 -22 -70v-68h-81v78q0 23 8 44.5t20 39.5l58 85q17 24 21.5 45.5t4.5 51.5q0 33 -5 53.5t-18 34.5q-18 20 -50 20q-29 0 -48 -19q-15 -16 -18.5 -38t-3.5 -44h-81q0 42 9.5 75.5t33.5 56.5q20 19 46.5 30.5
t61.5 11.5q69 0 110 -41q23 -23 33.5 -55.5t10.5 -86.5zM160 0v99h99v-99h-99z" />
    <glyph glyph-name="at" unicode="@" horiz-adv-x="775" 
d="M352 105q22 0 37 16t25.5 39.5t16.5 49t10 43.5q3 13 5 27t4 26.5t3 23t1 16.5q0 10 -1.5 21.5t-6 21.5t-12 17t-20.5 7q-16 0 -26.5 -7.5t-19.5 -19.5q-11 -15 -21 -44t-17.5 -61t-12 -62.5t-4.5 -49.5q0 -10 1.5 -21t5.5 -20.5t12 -16t20 -6.5zM721 364
q0 -63 -17.5 -121.5t-50.5 -104t-81 -73t-109 -27.5h-60l10 48q-20 -25 -41.5 -39.5t-46.5 -14.5q-26 0 -44 10t-29 26.5t-16 39t-5 48.5q0 20 3.5 49t8.5 55q15 73 32 116.5t39 67.5q21 24 43 33t44 9q30 0 49.5 -15.5t27.5 -38.5l10 49h80l-77 -383q36 2 66 23.5t52 57.5
t34.5 83.5t12.5 100.5q0 61 -15.5 111.5t-44 86.5t-69 55.5t-89.5 19.5q-65 0 -121 -35.5t-97 -94t-64 -134.5t-23 -157q0 -78 19 -141t53.5 -107t84 -67.5t111.5 -23.5h50l-12 -59h-50q-74 0 -134 29t-102 81.5t-65 126t-23 162.5q0 99 29.5 186t80.5 152.5t119.5 103.5
t145.5 38q63 0 115 -24t88.5 -68t57 -105t20.5 -135z" />
    <glyph glyph-name="A" unicode="A" horiz-adv-x="424" 
d="M328 0l-34 168h-165l-34 -168h-90l166 712h83l165 -712h-91zM212 573l-67 -328h133z" />
    <glyph glyph-name="B" unicode="B" horiz-adv-x="444" 
d="M394 200q0 -32 -2.5 -56t-8.5 -42.5t-14.5 -32.5t-20.5 -26q-22 -23 -52.5 -33t-78.5 -10h-153v712h153q48 0 78 -10t52 -33q12 -12 20 -25t13 -30t7 -38.5t2 -50.5q0 -38 -8 -69.5t-34 -57.5q-17 -17 -40 -27q12 -4 23.5 -11t20.5 -15q28 -27 35.5 -63t7.5 -82zM308 205
q0 69 -24 98.5t-72 29.5h-62v-256h62q24 0 42 6t30 21t18 39.5t6 61.5zM303 521q0 65 -21.5 89.5t-68.5 24.5h-63v-228h63q46 0 68 26.5t22 87.5z" />
    <glyph glyph-name="C" unicode="C" horiz-adv-x="423" 
d="M385 176q-1 -45 -14.5 -83t-39.5 -62q-21 -19 -48 -29t-62 -10q-42 0 -72 14.5t-50 37.5q-18 20 -28 43.5t-15.5 58.5t-7 85.5t-1.5 124.5t1.5 124.5t7 85.5t15.5 58.5t28 43.5q20 23 50 37.5t72 14.5q38 0 65 -11t48 -31q25 -24 37.5 -60.5t13.5 -80.5h-85
q-1 23 -5.5 44t-17.5 37q-8 11 -22 18t-34 7q-21 0 -35.5 -7.5t-23.5 -19.5q-9 -13 -15 -31.5t-9 -48t-4 -73.5t-1 -107t1 -107t4 -73.5t9 -48t15 -31.5q9 -12 23.5 -19.5t35.5 -7.5q20 0 34 7t22 18q12 16 17 37.5t6 44.5h85z" />
    <glyph glyph-name="D" unicode="D" horiz-adv-x="448" 
d="M401 356q0 -72 -1.5 -122t-7 -85t-15.5 -58t-27 -41q-20 -22 -49 -36t-73 -14h-164v712h164q44 0 73 -14t49 -36q17 -18 27 -41t15.5 -58t7 -85t1.5 -122zM315 356q0 61 -0.5 103.5t-3.5 71.5t-9 47t-16 30t-25 19.5t-36 7.5h-75v-558h75q21 0 36 7.5t25 19.5t16 30t9 47
t3.5 71t0.5 104z" />
    <glyph glyph-name="E" unicode="E" horiz-adv-x="380" 
d="M64 0v712h275v-77h-189v-239h163v-77h-163v-242h189v-77h-275z" />
    <glyph glyph-name="F" unicode="F" 
d="M150 635v-239h163v-77h-163v-319h-86v712h275v-77h-189z" />
    <glyph glyph-name="G" unicode="G" horiz-adv-x="434" 
d="M386 171q-1 -89 -48 -134t-117 -45q-42 0 -72 14.5t-50 37.5q-17 19 -27.5 42.5t-16 58.5t-7 86t-1.5 125t1.5 124.5t7 86t16 59t27.5 42.5q20 23 50 37.5t72 14.5q38 0 66.5 -12t48.5 -32q25 -25 36.5 -61t12.5 -79h-85q0 18 -3.5 37t-12 34.5t-23.5 25.5t-40 10
q-21 0 -35.5 -7.5t-23.5 -19.5q-9 -13 -15 -31.5t-9 -48t-4 -73.5t-1 -107t1 -107t4 -73.5t9 -48t15 -31.5q9 -12 23.5 -19.5t35.5 -7.5q38 0 58.5 27.5t20.5 71.5v143h-79v71h165v-211z" />
    <glyph glyph-name="H" unicode="H" horiz-adv-x="458" 
d="M308 0v324h-158v-324h-86v712h86v-311h158v311h86v-712h-86z" />
    <glyph glyph-name="I" unicode="I" horiz-adv-x="215" 
d="M64 0v712h86v-712h-86z" />
    <glyph glyph-name="J" unicode="J" horiz-adv-x="361" 
d="M303 170q0 -41 -11 -74t-34 -56q-47 -48 -126 -48q-40 0 -72 14t-55 40l61 57q11 -14 28.5 -24t37.5 -10q36 0 60.5 25.5t24.5 75.5v542h86v-542z" />
    <glyph glyph-name="K" unicode="K" horiz-adv-x="439" 
d="M338 0l-126 322l-62 -123v-199h-86v712h86v-361l172 361h88l-144 -294l165 -418h-93z" />
    <glyph glyph-name="L" unicode="L" horiz-adv-x="361" 
d="M64 0v712h86v-635h189v-77h-275z" />
    <glyph glyph-name="M" unicode="M" horiz-adv-x="578" 
d="M427 0v507l-113 -333h-53l-111 325v-499h-86v712h81l144 -396l143 396h81v-712h-86z" />
    <glyph glyph-name="N" unicode="N" horiz-adv-x="477" 
d="M334 0l-184 487v-487h-86v712h80l182 -487v487h86v-712h-78z" />
    <glyph glyph-name="O" unicode="O" horiz-adv-x="442" 
d="M395 356q0 -74 -1.5 -125t-7 -86t-16 -58.5t-27.5 -42.5q-21 -23 -50.5 -37.5t-71.5 -14.5t-71.5 14.5t-50.5 37.5q-17 19 -27.5 42.5t-16 58.5t-7 86t-1.5 125t1.5 124.5t7 86t16 59t27.5 42.5q21 23 50.5 37.5t71.5 14.5t71.5 -14.5t50.5 -37.5q17 -19 27.5 -42.5
t16 -59t7 -86t1.5 -124.5zM309 356q0 63 -1 107t-4.5 73.5t-9.5 48t-15 31.5q-9 12 -23 19.5t-35 7.5t-35.5 -7.5t-23.5 -19.5q-9 -13 -15 -31.5t-9 -48t-4 -73.5t-1 -107t1 -107t4 -73.5t9 -48t15 -31.5q9 -12 23.5 -19.5t35.5 -7.5t35 7.5t23 19.5q9 13 15 31.5t9.5 48
t4.5 73.5t1 107z" />
    <glyph glyph-name="P" unicode="P" horiz-adv-x="435" 
d="M393 504q0 -59 -11.5 -98.5t-33.5 -63.5t-53 -34.5t-71 -10.5h-74v-297h-86v712h160q40 0 71.5 -10.5t53.5 -34.5t33 -64t11 -99zM307 504q0 72 -21 101.5t-65 29.5h-71v-261h71q44 0 65 29t21 101z" />
    <glyph glyph-name="Q" unicode="Q" horiz-adv-x="442" 
d="M380 -24l-57 48q-19 -15 -44.5 -23.5t-57.5 -8.5q-42 0 -72 14.5t-50 37.5q-17 20 -27 43.5t-15.5 58.5t-7.5 85.5t-2 124.5t2 124.5t7.5 85.5t15.5 58.5t27 43.5q20 23 50 37.5t72 14.5t72 -14.5t50 -37.5q16 -20 26.5 -43.5t16 -58.5t7.5 -85.5t2 -124.5
q0 -67 -1.5 -113t-5 -78.5t-9.5 -53.5t-15 -38l57 -48zM309 356q0 64 -1 107.5t-4.5 73.5t-9.5 48.5t-15 31.5q-18 26 -58 26t-59 -26q-9 -13 -15 -31.5t-9 -48.5t-4 -73.5t-1 -107.5t1 -107.5t4 -73.5t9 -48.5t15 -31.5q19 -26 59 -26q22 0 37 9l-47 40l41 48l41 -35
q5 14 8.5 32.5t5 44.5t2 62t0.5 86z" />
    <glyph glyph-name="R" unicode="R" horiz-adv-x="455" 
d="M325 0l-98 306h-77v-306h-86v712h161q40 0 71.5 -10t53 -33t32.5 -62.5t11 -97.5q0 -75 -19.5 -119.5t-66.5 -66.5l109 -323h-91zM307 509q0 28 -3.5 51.5t-12.5 40t-24.5 25.5t-40.5 9h-76v-253h76q25 0 40.5 9t24.5 26t12.5 40t3.5 52z" />
    <glyph glyph-name="S" unicode="S" horiz-adv-x="420" 
d="M377 191q0 -56 -9 -92.5t-35 -62.5q-20 -20 -51.5 -31.5t-74.5 -11.5q-82 0 -125 43q-25 25 -34.5 59t-9.5 91h86q0 -35 5 -56.5t19 -36.5q9 -10 24 -16t35 -6q22 0 36.5 6t24.5 17q14 16 18.5 38t4.5 57q0 31 -3 52t-10.5 35.5t-21 24.5t-35.5 19l-81 33q-27 11 -46 25
t-30 34.5t-16 49t-5 69.5q0 47 13.5 84t40.5 62q44 41 113 41q39 0 68.5 -10.5t49.5 -30.5q27 -26 37 -61.5t10 -84.5h-86q0 29 -4 49t-18 37q-19 24 -58 24q-19 0 -32.5 -6t-22.5 -16q-25 -28 -25 -85q0 -26 2.5 -44t10 -31t21 -22t34.5 -18l80 -33q30 -12 49.5 -28.5
t31 -39.5t15.5 -54t4 -73z" />
    <glyph glyph-name="T" unicode="T" horiz-adv-x="367" 
d="M227 635v-635h-86v635h-120v77h325v-77h-119z" />
    <glyph glyph-name="U" unicode="U" horiz-adv-x="445" 
d="M387 162q0 -39 -12 -70t-34 -53q-23 -23 -53.5 -35t-65.5 -12q-71 0 -118 47q-22 22 -34 53t-12 70v550h86v-555q0 -42 23 -65t55 -23t55.5 23t23.5 65v555h86v-550z" />
    <glyph glyph-name="V" unicode="V" horiz-adv-x="404" 
d="M246 0h-88l-154 712h95l103 -573l104 573h94z" />
    <glyph glyph-name="W" unicode="W" horiz-adv-x="652" 
d="M526 0h-89l-111 573l-110 -573h-89l-123 712h95l73 -573l106 573h96l108 -573l72 573h94z" />
    <glyph glyph-name="X" unicode="X" horiz-adv-x="403" 
d="M294 0l-93 282l-92 -282h-94l136 370l-125 342h94l81 -260l82 260h94l-129 -342l140 -370h-94z" />
    <glyph glyph-name="Y" unicode="Y" horiz-adv-x="353" 
d="M219 288v-288h-86v288l-131 424h94l80 -304l80 304h95z" />
    <glyph glyph-name="Z" unicode="Z" horiz-adv-x="349" 
d="M31 0v65l198 570h-185v77h274v-65l-197 -570h197v-77h-287z" />
    <glyph glyph-name="bracketleft" unicode="[" horiz-adv-x="259" 
d="M58 -74v860h172v-71h-91v-718h91v-71h-172z" />
    <glyph glyph-name="backslash" unicode="\" horiz-adv-x="272" 
d="M189 -74l-185 860h79l185 -860h-79z" />
    <glyph glyph-name="bracketright" unicode="]" horiz-adv-x="259" 
d="M29 -74v71h91v718h-91v71h172v-860h-172z" />
    <glyph glyph-name="asciicircum" unicode="^" horiz-adv-x="455" 
d="M318 436l-90 199l-90 -199h-81l134 281h73l134 -281h-80z" />
    <glyph glyph-name="underscore" unicode="_" horiz-adv-x="444" 
d="M0 -144v61h444v-61h-444z" />
    <glyph glyph-name="grave" unicode="`" horiz-adv-x="377" 
d="M163 586l-81 135h74l69 -135h-62z" />
    <glyph glyph-name="a" unicode="a" 
d="M245 0v46q-6 -11 -14 -20t-16 -15q-12 -9 -26 -14t-35 -5q-29 0 -50 9.5t-39 29.5q-15 17 -24 46t-9 70q0 36 11.5 66.5t34.5 50.5q20 17 44.5 26t65.5 9h53v82q0 74 -61 74q-14 0 -23 -4.5t-17 -12.5q-11 -11 -15 -25t-4 -35h-81q0 30 8.5 58.5t31.5 51.5
q17 17 43.5 27.5t56.5 10.5q65 0 101 -36q19 -20 30 -47t11 -67v-376h-77zM241 240h-46q-19 0 -32.5 -4t-25.5 -15q-11 -11 -17.5 -30.5t-6.5 -40.5q0 -41 15.5 -64t47.5 -23q29 0 47 22.5t18 58.5v96z" />
    <glyph glyph-name="b" unicode="b" horiz-adv-x="387" 
d="M347 259q0 -46 -1 -81.5t-5 -63.5t-11.5 -48t-20.5 -35q-33 -39 -86 -39q-17 0 -30.5 4t-25.5 12q-8 5 -17 14.5t-14 17.5v-40h-79v712h81v-230q6 8 13.5 15.5t15.5 12.5q23 16 56 16q27 0 48 -9t38 -29q26 -29 32 -83t6 -146zM265 259q0 40 -1 69t-3 49.5t-6 33.5
t-11 21q-16 21 -44 21q-26 0 -42 -16q-10 -10 -15 -24t-5 -35v-237q0 -40 20 -60q16 -16 42 -16q28 0 44 21q13 16 17 54.5t4 118.5z" />
    <glyph glyph-name="c" unicode="c" horiz-adv-x="362" 
d="M330 145q-2 -37 -11.5 -66.5t-29.5 -50.5q-19 -19 -44.5 -27.5t-57.5 -8.5q-33 0 -61 11t-48 37q-24 31 -31 86t-7 133q0 79 7 133.5t31 85.5q20 26 48 37t61 11q32 0 56.5 -7.5t44.5 -27.5q24 -23 32 -53.5t10 -63.5h-81q0 16 -2.5 31.5t-13.5 28.5q-16 19 -45 19
q-30 0 -46 -22q-14 -19 -17 -60t-3 -112q0 -70 3 -111t17 -61q16 -22 46 -22q28 0 44 19q11 12 14 27.5t3 33.5h81z" />
    <glyph glyph-name="d" unicode="d" horiz-adv-x="387" 
d="M251 0v40q-4 -8 -14 -18t-17 -14q-27 -16 -56 -16q-53 0 -86 39q-25 29 -31.5 83t-6.5 145q0 90 6.5 145t31.5 84q16 19 36.5 28.5t49.5 9.5q30 0 56 -15q8 -5 15.5 -13t13.5 -16v230h81v-712h-79zM249 378q0 21 -5 35t-15 24q-16 16 -42 16q-28 0 -44 -21q-7 -8 -11 -21
t-6.5 -33.5t-3 -49.5t-0.5 -69q0 -80 3.5 -118.5t17.5 -54.5q16 -21 44 -21q26 0 42 16q20 20 20 60v237z" />
    <glyph glyph-name="e" unicode="e" horiz-adv-x="372" 
d="M122 240q0 -62 3.5 -99t17.5 -54q7 -10 18.5 -16t27.5 -6q14 0 25 4.5t21 15.5t13.5 26t3.5 34h81q-1 -36 -10.5 -64t-31.5 -51q-37 -38 -102 -38q-33 0 -58 9t-45 31q-29 31 -37.5 88.5t-8.5 138.5q0 82 8 139t37 88q20 22 45 31t57 9t57 -9t45 -31q29 -31 37.5 -90.5
t8.5 -155.5h-213zM253 301q0 57 -4 87t-16 44q-8 10 -18.5 15.5t-27.5 5.5t-27 -5.5t-18 -15.5q-12 -14 -16 -44t-4 -87h131z" />
    <glyph glyph-name="f" unicode="f" horiz-adv-x="254" 
d="M157 455v-455h-81v455h-59v63h59v50q0 41 11.5 69t33.5 46q24 20 53.5 26.5t62.5 6.5v-73q-80 0 -80 -78v-47h80v-63h-80z" />
    <glyph glyph-name="g" unicode="g" horiz-adv-x="387" 
d="M330 -12q0 -58 -10 -90t-32 -55q-18 -19 -45 -29.5t-57 -10.5t-57 9t-47 28q-22 22 -30.5 50t-8.5 62h81q0 -19 3 -34.5t14 -27.5q17 -17 44 -17q14 0 25 5.5t19 13.5q11 12 15.5 33.5t4.5 57.5v79q-6 -8 -13.5 -16t-15.5 -13q-22 -16 -54 -16q-53 0 -85 38
q-12 14 -20 32.5t-12.5 44t-6.5 60t-2 80.5t2 80t6.5 60t12.5 44.5t20 32.5q33 37 85 37q33 0 56 -16q17 -11 29 -28v36h79v-530zM249 378q0 21 -5 35t-15 24q-16 16 -42 16q-28 0 -44 -21q-7 -8 -11 -20.5t-6.5 -31t-3 -45.5t-0.5 -64q0 -74 3.5 -109.5t17.5 -52.5
q8 -9 19 -15t25 -6q25 0 42 17q10 10 15 24t5 35v214z" />
    <glyph glyph-name="h" unicode="h" horiz-adv-x="395" 
d="M261 0v381q0 36 -18 54t-44 18t-43.5 -18t-17.5 -54v-381h-81v712h81v-231q5 8 13 16t16 13q26 16 56 16q29 0 50 -9.5t38 -28.5q16 -17 23.5 -41t7.5 -66v-381h-81z" />
    <glyph glyph-name="i" unicode="i" horiz-adv-x="195" 
d="M57 0v518h81v-518h-81zM50 610v94h95v-94h-95z" />
    <glyph glyph-name="j" unicode="j" horiz-adv-x="195" 
d="M138 -46q0 -43 -12.5 -71t-33.5 -45q-23 -20 -51.5 -26t-61.5 -6v73q38 0 58 17t20 61v561h81v-564zM50 610v94h95v-94h-95z" />
    <glyph glyph-name="k" unicode="k" horiz-adv-x="395" 
d="M293 0l-99 244l-56 -89v-155h-81v712h81v-440l147 246h86l-126 -202l138 -316h-90z" />
    <glyph glyph-name="l" unicode="l" horiz-adv-x="228" 
d="M211 0q-33 0 -61 6t-51 26q-21 17 -33.5 45t-12.5 71v564h81v-561q0 -78 77 -78v-73z" />
    <glyph glyph-name="m" unicode="m" horiz-adv-x="599" 
d="M464 0v381q0 35 -17.5 53t-43.5 18t-43.5 -18t-17.5 -53v-381h-81v381q0 35 -18 53t-44 18t-43.5 -18t-17.5 -53v-381h-81v518h78v-40q5 9 14.5 18t17.5 14q26 16 56 16t56.5 -15t42.5 -39q8 11 19 21t22 17q12 8 28.5 12t30.5 4q34 0 55 -9.5t38 -28.5q16 -17 23 -41
t7 -66v-381h-81z" />
    <glyph glyph-name="n" unicode="n" horiz-adv-x="395" 
d="M261 0v381q0 35 -18 53t-44 18t-43.5 -18t-17.5 -53v-381h-81v518h78v-40q5 9 14.5 18t17.5 14q26 16 56 16q29 0 50 -9.5t38 -28.5q16 -17 23.5 -41t7.5 -66v-381h-81z" />
    <glyph glyph-name="o" unicode="o" horiz-adv-x="376" 
d="M335 259q0 -79 -6.5 -133.5t-30.5 -85.5q-20 -26 -47.5 -37t-62.5 -11t-62 11t-47 37q-24 31 -31 85.5t-7 133.5t7 133.5t31 85.5q20 26 47 37t62 11t62.5 -11t47.5 -37q24 -31 30.5 -85.5t6.5 -133.5zM254 259q0 70 -3 111t-17 61q-16 22 -46 22q-29 0 -45 -22
q-14 -20 -17.5 -61t-3.5 -111t3.5 -111t17.5 -61q16 -22 45 -22q30 0 46 22q14 20 17 61t3 111z" />
    <glyph glyph-name="p" unicode="p" horiz-adv-x="387" 
d="M347 259q0 -90 -6.5 -144.5t-31.5 -83.5q-17 -20 -37 -29.5t-49 -9.5q-31 0 -56 15q-16 11 -29 29v-230h-81v712h79v-40q4 8 14 17.5t17 14.5q25 16 56 16q27 0 48 -9t38 -29q25 -29 31.5 -84t6.5 -145zM265 259q0 40 -1 69t-3 49.5t-6 33.5t-11 21q-16 21 -44 21
q-26 0 -42 -16q-10 -10 -15 -24t-5 -35v-237q0 -40 20 -60q16 -16 42 -16q28 0 44 21q13 16 17 54.5t4 118.5z" />
    <glyph glyph-name="q" unicode="q" horiz-adv-x="387" 
d="M249 -194v230q-13 -18 -29 -29q-26 -15 -56 -15q-29 0 -49 9.5t-37 29.5q-25 29 -31.5 83.5t-6.5 144.5t6.5 145t31.5 84q17 20 38 29t48 9q31 0 56 -16q7 -5 17 -14.5t14 -17.5v40h79v-712h-81zM249 378q0 21 -5 35t-15 24q-16 16 -42 16q-28 0 -44 -21q-7 -8 -11 -21
t-6.5 -33.5t-3 -49.5t-0.5 -69q0 -80 3.5 -118.5t17.5 -54.5q16 -21 44 -21q26 0 42 16q20 20 20 60v237z" />
    <glyph glyph-name="r" unicode="r" horiz-adv-x="272" 
d="M232 448q-42 0 -68 -25t-26 -70v-353h-81v518h78v-55q6 11 16 20.5t20 16.5q37 26 85 26v-78h-24z" />
    <glyph glyph-name="s" unicode="s" horiz-adv-x="359" 
d="M328 141q0 -35 -12 -61.5t-32 -46.5q-21 -22 -47.5 -31.5t-58.5 -9.5t-58.5 10t-45.5 30q-44 45 -44 114h80q0 -40 22 -63q9 -9 21.5 -13.5t24.5 -4.5q30 0 49 19q20 20 20 52q0 27 -13 47q-8 11 -19 20t-27 17l-67 34q-50 25 -71 60q-16 28 -16 68q0 34 11.5 59.5
t31.5 45.5t46 29.5t56 9.5q64 0 101 -37q42 -40 42 -114h-80q0 23 -4.5 37t-14.5 25q-9 10 -20.5 14t-23.5 4q-28 0 -45 -17q-19 -19 -19 -50q0 -22 9 -38q11 -19 43 -34l66 -33q52 -25 73 -59q22 -33 22 -83z" />
    <glyph glyph-name="t" unicode="t" horiz-adv-x="260" 
d="M240 0q-35 0 -64.5 5.5t-54.5 26.5q-45 37 -45 116v307h-59v63h59v142h81v-142h80v-63h-80v-304q0 -42 21 -60t62 -18v-73z" />
    <glyph glyph-name="u" unicode="u" horiz-adv-x="395" 
d="M260 0v40q-5 -9 -14.5 -18t-17.5 -14q-26 -16 -56 -16q-29 0 -50 9.5t-38 28.5q-16 17 -23.5 41t-7.5 66v381h81v-381q0 -36 18 -54t44 -18t43.5 18t17.5 54v381h81v-518h-78z" />
    <glyph glyph-name="v" unicode="v" horiz-adv-x="343" 
d="M215 0h-86l-125 518h89l79 -390l78 390h89z" />
    <glyph glyph-name="w" unicode="w" horiz-adv-x="526" 
d="M413 0h-82l-70 379l-68 -379h-82l-107 518h92l59 -390l69 390h73l73 -390l60 390h92z" />
    <glyph glyph-name="x" unicode="x" horiz-adv-x="356" 
d="M253 0l-75 187l-75 -187h-90l118 264l-112 254h90l69 -181l69 181h90l-114 -254l120 -264h-90z" />
    <glyph glyph-name="y" unicode="y" horiz-adv-x="345" 
d="M193 -83q-8 -35 -24 -56.5t-38 -33.5t-50 -16.5t-60 -4.5v72q38 0 61 12.5t32 47.5l16 63l-126 517h89l79 -389l78 389h89z" />
    <glyph glyph-name="z" unicode="z" horiz-adv-x="301" 
d="M24 0v62l163 384h-152v72h242v-62l-163 -383h163v-73h-253z" />
    <glyph glyph-name="braceleft" unicode="{" horiz-adv-x="311" 
d="M240 -74q-26 0 -49.5 9t-40.5 26q-16 16 -25.5 40t-9.5 60v192q0 32 -16 49.5t-41 17.5h-29v72h29q25 0 41 17.5t16 49.5v192q0 36 9.5 60t25.5 40q17 17 40.5 26t49.5 9h42v-73h-28q-25 0 -41.5 -17t-16.5 -49v-186q0 -32 -8 -52t-21 -33q-14 -14 -33 -20q19 -6 33 -20
q13 -12 21 -32.5t8 -52.5v-186q0 -32 16.5 -49t41.5 -17h28v-73h-42z" />
    <glyph glyph-name="bar" unicode="|" horiz-adv-x="290" 
d="M105 -74v860h81v-860h-81z" />
    <glyph glyph-name="braceright" unicode="}" horiz-adv-x="311" 
d="M254 320q-25 0 -41 -17.5t-16 -49.5v-192q0 -36 -9.5 -60t-26.5 -40q-17 -17 -40.5 -26t-49.5 -9h-42v73h29q25 0 41.5 17t16.5 49v186q0 32 8 52.5t20 32.5q14 14 34 20q-22 7 -34 20q-13 13 -20.5 33t-7.5 52v186q0 32 -16.5 49t-41.5 17h-29v73h42q26 0 49.5 -9
t40.5 -26q17 -16 26.5 -40t9.5 -60v-192q0 -32 16 -49.5t41 -17.5h28v-72h-28z" />
    <glyph glyph-name="asciitilde" unicode="~" horiz-adv-x="444" 
d="M410 285q-25 -25 -51 -42.5t-62 -17.5q-23 0 -41.5 7t-35.5 15t-34 15t-36 7q-22 0 -36.5 -9t-29.5 -24l-49 48q24 24 50 42t62 18q23 0 42 -7t36.5 -15t34 -15t35.5 -7q22 0 36 9.5t29 24.5z" />
    <glyph glyph-name="uni00A0" unicode="&#xa0;" horiz-adv-x="187" 
 />
    <glyph glyph-name="exclamdown" unicode="&#xa1;" horiz-adv-x="242" 
d="M68 -194v519h81v-519h-81zM59 419v99h99v-99h-99z" />
    <glyph glyph-name="cent" unicode="&#xa2;" horiz-adv-x="367" 
d="M332 250q-1 -35 -10.5 -62.5t-29.5 -47.5q-26 -24 -69 -32v-108h-64v107q-49 8 -78 44q-24 29 -30.5 81.5t-6.5 127.5t6.5 127.5t30.5 81.5q29 36 78 44v99h64v-99q20 -3 37 -10t31 -21q23 -22 31.5 -52t9.5 -61h-80q0 15 -2.5 30.5t-13.5 27.5l-6 6t-7 5v-355q8 6 12 10
q11 11 14 25.5t3 31.5h80zM159 537q-5 -2 -8 -5.5t-6 -7.5q-14 -19 -17 -58t-3 -106t3 -106t17 -58q3 -4 6 -7.5t8 -5.5v354z" />
    <glyph glyph-name="sterling" unicode="&#xa3;" horiz-adv-x="427" 
d="M97 0v338h-64v62h64v144q0 42 13.5 74.5t36.5 55t54.5 34.5t66.5 12q77 0 127 -53l-60 -57q-11 14 -27.5 23.5t-39.5 9.5q-35 0 -60 -25.5t-25 -71.5v-146h85v-62h-85v-261h212v-77h-298z" />
    <glyph glyph-name="currency" unicode="&#xa4;" horiz-adv-x="493" 
d="M398 76l-56 57q-20 -14 -44.5 -22t-50.5 -8q-27 0 -51.5 8t-44.5 22l-56 -57l-51 51l57 56q-14 20 -21.5 44.5t-7.5 50.5q0 27 7.5 51.5t21.5 44.5l-57 56l51 51l56 -56q42 28 96 28q53 0 95 -28l56 56l51 -51l-57 -56q14 -20 22 -44.5t8 -51.5q0 -26 -8 -50.5t-22 -44.5
l57 -56zM350 278q0 22 -8 41t-22 33t-33 22t-40 8q-44 0 -74 -30t-30 -74q0 -21 8 -40t22 -33t33 -22t41 -8q21 0 40 8t33 22t22 33t8 40z" />
    <glyph glyph-name="yen" unicode="&#xa5;" horiz-adv-x="353" 
d="M253 405h55v-62h-74l-17 -55v-40h91v-62h-91v-186h-82v186h-91v62h91v40l-16 55h-75v62h55l-92 307h91l78 -304l79 304h90z" />
    <glyph glyph-name="brokenbar" unicode="&#xa6;" horiz-adv-x="290" 
d="M105 437v348h81v-348h-81zM105 -73v348h81v-348h-81z" />
    <glyph glyph-name="section" unicode="&#xa7;" horiz-adv-x="409" 
d="M357 271q0 -31 -1.5 -54t-6 -41t-13.5 -32.5t-23 -26.5q-7 -6 -18 -12t-22 -8q18 -12 32 -23.5t25 -29.5q10 -16 14.5 -36.5t4.5 -40.5q0 -35 -10.5 -61t-30.5 -46q-20 -21 -47.5 -30.5t-58.5 -9.5t-58 10.5t-46 29.5q-40 42 -42 105h83q0 -32 19 -54q8 -9 20 -13.5
t24 -4.5q30 0 47 18q17 19 17 51q0 28 -12 45q-8 12 -19.5 20.5t-25.5 15.5l-69 34q-12 6 -23.5 13.5t-20.5 15.5q-15 15 -24 31.5t-13.5 36t-5.5 43.5t-1 54t1.5 53t6.5 40.5t14 31t23 26.5q6 6 17.5 12t22.5 8q-18 11 -33.5 24.5t-25.5 30.5q-17 29 -17 73q0 32 11 57.5
t31 45.5q19 20 46 29.5t57 9.5q57 0 96 -33q22 -19 33.5 -47.5t12.5 -61.5h-82q0 32 -18 53q-17 17 -42 17q-27 0 -43 -16q-10 -9 -14.5 -21.5t-4.5 -26.5q0 -26 10 -43q5 -9 16 -18t25 -16l69 -34q14 -6 28.5 -15t23.5 -18q13 -14 21.5 -28t12.5 -32t5.5 -42.5t1.5 -58.5z
M276 271q0 53 -5 76t-20 37q-18 18 -46 18q-27 0 -47 -17q-7 -6 -11.5 -14.5t-7.5 -21t-4.5 -31.5t-1.5 -47q0 -27 1.5 -45.5t4.5 -31.5t7.5 -22t11.5 -15q19 -18 47 -18t46 18q14 13 19.5 37t5.5 77z" />
    <glyph glyph-name="dieresis" unicode="&#xa8;" horiz-adv-x="377" 
d="M226 601v82h81v-82h-81zM69 601v82h82v-82h-82z" />
    <glyph glyph-name="copyright" unicode="&#xa9;" horiz-adv-x="853" 
d="M788 356q0 -75 -28.5 -141t-77.5 -115t-115 -77.5t-141 -28.5t-141 28.5t-115 77.5t-77.5 115t-28.5 141t28.5 141t77.5 115t115 77.5t141 28.5t141 -28.5t115 -77.5t77.5 -115t28.5 -141zM730 356q0 65 -23.5 121.5t-64.5 98t-96.5 65.5t-119.5 24q-63 0 -118.5 -24
t-96.5 -65.5t-64.5 -98t-23.5 -121.5t23.5 -121.5t64.5 -98t96.5 -65.5t118.5 -24q64 0 119.5 24t96.5 65.5t64.5 98t23.5 121.5zM526 265q-1 -57 -30 -86q-27 -27 -68 -27q-46 0 -74 33q-18 21 -23.5 61t-5.5 110t5.5 109.5t23.5 60.5q28 33 74 33q41 0 68 -27
q29 -29 30 -86h-54q0 15 -2.5 28t-10.5 22q-10 13 -31 13q-12 0 -20 -4.5t-13 -11.5q-11 -15 -13.5 -49t-2.5 -88t2.5 -88.5t13.5 -49.5q5 -7 13 -11.5t20 -4.5q21 0 31 13q8 9 10.5 22t2.5 28h54z" />
    <glyph glyph-name="ordfeminine" unicode="&#xaa;" horiz-adv-x="314" 
d="M204 307v33q-6 -9 -13.5 -15.5t-12.5 -9.5q-20 -13 -48 -13q-46 0 -74 31q-13 14 -20 35.5t-7 53.5q0 58 40 92q15 14 36 20.5t53 6.5h42v60q0 25 -12 40.5t-37 15.5q-21 0 -34 -15q-9 -9 -11.5 -20.5t-2.5 -25.5h-68q0 25 7 47.5t27 41.5q14 14 35.5 22.5t46.5 8.5
q24 0 45.5 -7t37.5 -23q16 -15 25 -37t9 -54v-288h-64zM200 491h-37q-14 0 -25.5 -3t-19.5 -11q-21 -18 -21 -52q0 -27 12 -46t39 -19q23 0 37.5 18.5t14.5 47.5v65z" />
    <glyph glyph-name="guillemotleft" unicode="&#xab;" horiz-adv-x="392" 
d="M26 272l148 229v-127l-68 -102l68 -103v-127zM193 272l148 229v-127l-69 -102l69 -103v-127z" />
    <glyph glyph-name="logicalnot" unicode="&#xac;" horiz-adv-x="444" 
d="M317 146v107h-267v77h344v-184h-77z" />
    <glyph glyph-name="uni00AD" unicode="&#xad;" horiz-adv-x="298" 
d="M51 244v77h196v-77h-196z" />
    <glyph glyph-name="registered" unicode="&#xae;" horiz-adv-x="853" 
d="M788 356q0 -75 -28.5 -141t-77.5 -115t-115 -77.5t-141 -28.5t-141 28.5t-115 77.5t-77.5 115t-28.5 141t28.5 141t77.5 115t115 77.5t141 28.5t141 -28.5t115 -77.5t77.5 -115t28.5 -141zM730 356q0 65 -23.5 121.5t-64.5 98t-96.5 65.5t-119.5 24t-119 -24t-96 -65.5
t-64.5 -98t-23.5 -121.5t23.5 -121.5t64.5 -98t96 -65.5t119 -24t119.5 24t96.5 65.5t64.5 98t23.5 121.5zM488 157l-52 168h-47v-168h-54v397h102q44 0 68 -24q16 -16 21.5 -37.5t5.5 -53.5t-5 -52t-21 -36q-8 -8 -20 -15l58 -179h-56zM478 439q0 20 -2 32.5t-10 21.5
q-11 11 -29 11h-48v-130h48q17 0 28 11q8 9 10.5 21.5t2.5 32.5z" />
    <glyph glyph-name="macron" unicode="&#xaf;" horiz-adv-x="377" 
d="M74 612v57h229v-57h-229z" />
    <glyph glyph-name="degree" unicode="&#xb0;" horiz-adv-x="396" 
d="M347 575q0 -31 -12 -58t-32 -47.5t-47 -32t-58 -11.5t-58 11.5t-47.5 32t-32 47.5t-11.5 58t11.5 58t32 47t47.5 31.5t58 11.5t58 -11.5t47 -31.5t32 -47t12 -58zM275 575q0 33 -22 55.5t-55 22.5t-55 -22t-22 -56t22 -56.5t55 -22.5t55 22.5t22 56.5z" />
    <glyph glyph-name="plusminus" unicode="&#xb1;" horiz-adv-x="444" 
d="M261 301v-137h-77v137h-138v77h138v137h77v-137h137v-77h-137zM46 24v77h352v-77h-352z" />
    <glyph glyph-name="twosuperior" unicode="&#xb2;" horiz-adv-x="299" 
d="M43 285v47l135 210q11 17 17 34.5t6 41.5q0 23 -14 36.5t-37 13.5q-49 0 -49 -56v-24h-61v22q0 29 7 47.5t23 32.5q32 27 80 27q47 0 78 -24q15 -12 24 -31.5t9 -45.5q0 -48 -30 -95l-121 -187h151v-49h-218z" />
    <glyph glyph-name="threesuperior" unicode="&#xb3;" horiz-adv-x="299" 
d="M263 402q0 -35 -5.5 -56.5t-25.5 -39.5q-14 -12 -35.5 -19t-44.5 -7q-52 0 -82 27q-14 13 -21 31t-7 52v15h61v-16q0 -20 2.5 -30t10.5 -17q15 -13 36 -13q24 0 35 13q8 8 12 21.5t4 41.5q0 29 -3 41.5t-10 21.5q-15 16 -39 16h-26v47h26q20 0 34 12q11 11 13 26t2 35
q0 19 -3 31.5t-12 20.5q-12 12 -33 12q-23 0 -35 -13q-7 -7 -9.5 -17.5t-2.5 -24.5v-19h-61v17q0 30 7 48t21 31q15 13 34.5 20t45.5 7q27 0 46 -7t32 -19q31 -30 31 -86q0 -23 -3.5 -39.5t-13.5 -30.5q-13 -18 -35 -28q23 -9 38 -30q8 -13 12 -29.5t4 -45.5z" />
    <glyph glyph-name="acute" unicode="&#xb4;" horiz-adv-x="377" 
d="M213 586h-61l68 135h74z" />
    <glyph glyph-name="mu" unicode="&#xb5;" horiz-adv-x="399" 
d="M262 0v40q-5 -9 -14 -18t-17 -14q-26 -16 -58 -16q-13 0 -24 4.5t-15 9.5v-200h-78v712h81v-381q0 -36 17.5 -54t43.5 -18t44 18t18 54v381h81v-518h-79z" />
    <glyph glyph-name="paragraph" unicode="&#xb6;" horiz-adv-x="570" 
d="M431 -194v830h-111v-830h-81v490h-54q-68 0 -106 48t-38 160t38 160t106 48h327v-906h-81z" />
    <glyph glyph-name="periodcentered" unicode="&#xb7;" horiz-adv-x="266" 
d="M62 233v141h141v-141h-141z" />
    <glyph glyph-name="cedilla" unicode="&#xb8;" horiz-adv-x="377" 
d="M176 -182h-64l57 144h57z" />
    <glyph glyph-name="onesuperior" unicode="&#xb9;" horiz-adv-x="300" 
d="M139 285v364l-72 -47v61l72 49h60v-427h-60z" />
    <glyph glyph-name="ordmasculine" unicode="&#xba;" horiz-adv-x="313" 
d="M276 508q0 -60 -6 -103t-25 -67q-17 -21 -38.5 -29t-50.5 -8q-28 0 -50 8t-39 29q-19 24 -24.5 67t-5.5 103t5.5 103t24.5 67q17 21 39 29.5t50 8.5q29 0 50.5 -8.5t38.5 -29.5q19 -24 25 -67t6 -103zM208 508q0 55 -3 86t-14 45q-12 17 -35 17t-35 -17
q-11 -14 -13.5 -45t-2.5 -86t2.5 -86t13.5 -45q12 -16 35 -16t35 16q11 14 14 45t3 86z" />
    <glyph glyph-name="guillemotright" unicode="&#xbb;" horiz-adv-x="392" 
d="M218 42v127l68 103l-68 102v127l148 -229zM51 42v127l69 103l-69 102v127l148 -229z" />
    <glyph glyph-name="onequarter" unicode="&#xbc;" horiz-adv-x="771" 
d="M139 285v364l-72 -47v61l72 49h60v-427h-60zM294 0h-64l246 712h65zM707 63v-63h-60v63h-148v49l117 315h59l-115 -315h87v87h60v-87h32v-49h-32z" />
    <glyph glyph-name="onehalf" unicode="&#xbd;" horiz-adv-x="770" 
d="M139 285v364l-72 -47v61l72 49h60v-427h-60zM294 0h-64l246 712h65zM514 0v47l135 210q11 17 17 34.5t6 41.5q0 23 -14 36.5t-37 13.5q-49 0 -49 -56v-24h-61v22q0 29 7 47.5t23 32.5q32 27 80 27q47 0 78 -24q15 -12 24 -31.5t9 -45.5q0 -48 -30 -95l-121 -187h151v-49
h-218z" />
    <glyph glyph-name="threequarters" unicode="&#xbe;" horiz-adv-x="770" 
d="M263 402q0 -35 -5.5 -56.5t-25.5 -39.5q-14 -12 -35.5 -19t-44.5 -7q-52 0 -82 27q-14 13 -21 31t-7 52v15h61v-16q0 -20 2.5 -30t10.5 -17q15 -13 36 -13q24 0 35 13q8 8 12 21.5t4 41.5q0 29 -3 41.5t-10 21.5q-15 16 -39 16h-26v47h26q20 0 34 12q11 11 13 26t2 35
q0 19 -3 31.5t-12 20.5q-12 12 -33 12q-23 0 -35 -13q-7 -7 -9.5 -17.5t-2.5 -24.5v-19h-61v17q0 30 7 48t21 31q15 13 34.5 20t45.5 7q27 0 46 -7t32 -19q31 -30 31 -86q0 -23 -3.5 -39.5t-13.5 -30.5q-13 -18 -35 -28q23 -9 38 -30q8 -13 12 -29.5t4 -45.5zM293 0h-64
l246 712h65zM706 63v-63h-60v63h-148v49l117 315h59l-115 -315h87v87h60v-87h32v-49h-32z" />
    <glyph glyph-name="questiondown" unicode="&#xbf;" horiz-adv-x="400" 
d="M344 -26q0 -42 -9.5 -75.5t-33.5 -56.5q-20 -19 -47 -30.5t-62 -11.5q-69 0 -110 41q-23 23 -33.5 55.5t-10.5 86.5q0 38 6.5 65.5t24.5 53.5l59 85q22 32 22 70v68h81v-78q0 -23 -8 -44.5t-20 -39.5l-58 -85q-17 -24 -21.5 -45.5t-4.5 -51.5q0 -33 5.5 -53.5t18.5 -34.5
q18 -20 49 -20q29 0 48 19q15 16 19 38t4 44h81zM141 419v99h99v-99h-99z" />
    <glyph glyph-name="Agrave" unicode="&#xc0;" horiz-adv-x="424" 
d="M328 0l-34 168h-165l-34 -168h-90l166 712h83l165 -712h-91zM212 573l-67 -328h133zM190 762l-81 135h74l69 -135h-62z" />
    <glyph glyph-name="Aacute" unicode="&#xc1;" horiz-adv-x="424" 
d="M328 0l-34 168h-165l-34 -168h-90l166 712h83l165 -712h-91zM212 573l-67 -328h133zM240 762h-62l69 135h74z" />
    <glyph glyph-name="Acircumflex" unicode="&#xc2;" horiz-adv-x="424" 
d="M328 0l-34 168h-165l-34 -168h-90l166 712h83l165 -712h-91zM212 573l-67 -328h133zM275 762l-60 87l-60 -87h-66l93 135h66l93 -135h-66z" />
    <glyph glyph-name="Atilde" unicode="&#xc3;" horiz-adv-x="424" 
d="M328 0l-34 168h-165l-34 -168h-90l166 712h83l165 -712h-91zM212 573l-67 -328h133zM348 814q-17 -17 -36 -29.5t-44 -12.5q-20 0 -33 5t-24 11t-21 11t-23 5q-14 0 -24.5 -7t-20.5 -16l-36 37q21 22 39 32.5t40 10.5q20 0 32.5 -5t23 -11.5t20.5 -11.5t25 -5t25 7t19 16
z" />
    <glyph glyph-name="Adieresis" unicode="&#xc4;" horiz-adv-x="424" 
d="M328 0l-34 168h-165l-34 -168h-90l166 712h83l165 -712h-91zM212 573l-67 -328h133zM252 777v81h82v-81h-82zM96 777v81h82v-81h-82z" />
    <glyph glyph-name="Aring" unicode="&#xc5;" horiz-adv-x="424" 
d="M328 0l-34 168h-165l-34 -168h-90l166 712h83l165 -712h-91zM212 573l-67 -328h133zM313 850q0 -41 -28.5 -69.5t-69.5 -28.5t-69.5 28.5t-28.5 69.5t28.5 69.5t69.5 28.5t69.5 -28.5t28.5 -69.5zM264 850q0 20 -14.5 34.5t-34.5 14.5t-34.5 -14.5t-14.5 -34.5
t14.5 -34.5t34.5 -14.5t34.5 14.5t14.5 34.5z" />
    <glyph glyph-name="AE" unicode="&#xc6;" horiz-adv-x="640" 
d="M324 0v172h-163l-61 -172h-95l263 712h330v-77h-188v-239h162v-77h-162v-242h188v-77h-274zM324 635l-136 -385h136v385z" />
    <glyph glyph-name="Ccedilla" unicode="&#xc7;" horiz-adv-x="423" 
d="M385 176q-1 -45 -14.5 -83t-39.5 -62q-21 -19 -48 -29t-62 -10q-42 0 -72 14.5t-50 37.5q-18 20 -28 43.5t-15.5 58.5t-7 85.5t-1.5 124.5t1.5 124.5t7 85.5t15.5 58.5t28 43.5q20 23 50 37.5t72 14.5q38 0 65 -11t48 -31q25 -24 37.5 -60.5t13.5 -80.5h-85
q-1 23 -5.5 44t-17.5 37q-8 11 -22 18t-34 7q-21 0 -35.5 -7.5t-23.5 -19.5q-9 -13 -15 -31.5t-9 -48t-4 -73.5t-1 -107t1 -107t4 -73.5t9 -48t15 -31.5q9 -12 23.5 -19.5t35.5 -7.5q20 0 34 7t22 18q12 16 17 37.5t6 44.5h85zM201 -182h-64l57 144h57z" />
    <glyph glyph-name="Egrave" unicode="&#xc8;" horiz-adv-x="380" 
d="M64 0v712h275v-77h-189v-239h163v-77h-163v-242h189v-77h-275zM181 762l-81 135h74l69 -135h-62z" />
    <glyph glyph-name="Eacute" unicode="&#xc9;" horiz-adv-x="380" 
d="M64 0v712h275v-77h-189v-239h163v-77h-163v-242h189v-77h-275zM231 762h-62l69 135h74z" />
    <glyph glyph-name="Ecircumflex" unicode="&#xca;" horiz-adv-x="380" 
d="M64 0v712h275v-77h-189v-239h163v-77h-163v-242h189v-77h-275zM266 762l-60 87l-60 -87h-66l93 135h66l93 -135h-66z" />
    <glyph glyph-name="Edieresis" unicode="&#xcb;" horiz-adv-x="380" 
d="M64 0v712h275v-77h-189v-239h163v-77h-163v-242h189v-77h-275zM243 777v81h82v-81h-82zM87 777v81h82v-81h-82z" />
    <glyph glyph-name="Igrave" unicode="&#xcc;" horiz-adv-x="215" 
d="M64 0v712h86v-712h-86zM84 762l-81 135h74l69 -135h-62z" />
    <glyph glyph-name="Iacute" unicode="&#xcd;" horiz-adv-x="215" 
d="M64 0v712h86v-712h-86zM134 762h-62l69 135h74z" />
    <glyph glyph-name="Icircumflex" unicode="&#xce;" horiz-adv-x="215" 
d="M64 0v712h86v-712h-86zM169 762l-60 87l-60 -87h-66l93 135h66l93 -135h-66z" />
    <glyph glyph-name="Idieresis" unicode="&#xcf;" horiz-adv-x="215" 
d="M64 0v712h86v-712h-86zM146 777v81h82v-81h-82zM-10 777v81h82v-81h-82z" />
    <glyph glyph-name="Eth" unicode="&#xd0;" horiz-adv-x="459" 
d="M412 356q0 -66 -1 -114.5t-6 -84.5t-15.5 -61.5t-28.5 -45.5q-20 -22 -49.5 -36t-72.5 -14h-164v323h-52v69h52v320h164q43 0 72.5 -14t49.5 -36q18 -20 28.5 -45.5t15.5 -61.5t6 -84.5t1 -114.5zM326 356q0 61 -1 103.5t-4 71t-8.5 46.5t-15.5 31q-9 12 -24.5 19.5
t-36.5 7.5h-75v-243h81v-69h-81v-246h75q21 0 36.5 7.5t24.5 19.5q10 13 15.5 31t8.5 46.5t4 71t1 103.5z" />
    <glyph glyph-name="Ntilde" unicode="&#xd1;" horiz-adv-x="477" 
d="M334 0l-184 487v-487h-86v712h80l182 -487v487h86v-712h-78zM371 814q-17 -17 -36 -29.5t-44 -12.5q-20 0 -33 5t-24 11t-21 11t-23 5q-14 0 -24.5 -7t-20.5 -16l-36 37q21 22 39 32.5t40 10.5q20 0 32.5 -5t23 -11.5t20.5 -11.5t25 -5t25 7t19 16z" />
    <glyph glyph-name="Ograve" unicode="&#xd2;" horiz-adv-x="442" 
d="M395 356q0 -74 -1.5 -125t-7 -86t-16 -58.5t-27.5 -42.5q-21 -23 -50.5 -37.5t-71.5 -14.5t-71.5 14.5t-50.5 37.5q-17 19 -27.5 42.5t-16 58.5t-7 86t-1.5 125t1.5 124.5t7 86t16 59t27.5 42.5q21 23 50.5 37.5t71.5 14.5t71.5 -14.5t50.5 -37.5q17 -19 27.5 -42.5
t16 -59t7 -86t1.5 -124.5zM309 356q0 63 -1 107t-4.5 73.5t-9.5 48t-15 31.5q-9 12 -23 19.5t-35 7.5t-35.5 -7.5t-23.5 -19.5q-9 -13 -15 -31.5t-9 -48t-4 -73.5t-1 -107t1 -107t4 -73.5t9 -48t15 -31.5q9 -12 23.5 -19.5t35.5 -7.5t35 7.5t23 19.5q9 13 15 31.5t9.5 48
t4.5 73.5t1 107zM196 762l-81 135h74l69 -135h-62z" />
    <glyph glyph-name="Oacute" unicode="&#xd3;" horiz-adv-x="442" 
d="M395 356q0 -74 -1.5 -125t-7 -86t-16 -58.5t-27.5 -42.5q-21 -23 -50.5 -37.5t-71.5 -14.5t-71.5 14.5t-50.5 37.5q-17 19 -27.5 42.5t-16 58.5t-7 86t-1.5 125t1.5 124.5t7 86t16 59t27.5 42.5q21 23 50.5 37.5t71.5 14.5t71.5 -14.5t50.5 -37.5q17 -19 27.5 -42.5
t16 -59t7 -86t1.5 -124.5zM309 356q0 63 -1 107t-4.5 73.5t-9.5 48t-15 31.5q-9 12 -23 19.5t-35 7.5t-35.5 -7.5t-23.5 -19.5q-9 -13 -15 -31.5t-9 -48t-4 -73.5t-1 -107t1 -107t4 -73.5t9 -48t15 -31.5q9 -12 23.5 -19.5t35.5 -7.5t35 7.5t23 19.5q9 13 15 31.5t9.5 48
t4.5 73.5t1 107zM246 762h-62l69 135h74z" />
    <glyph glyph-name="Ocircumflex" unicode="&#xd4;" horiz-adv-x="442" 
d="M395 356q0 -74 -1.5 -125t-7 -86t-16 -58.5t-27.5 -42.5q-21 -23 -50.5 -37.5t-71.5 -14.5t-71.5 14.5t-50.5 37.5q-17 19 -27.5 42.5t-16 58.5t-7 86t-1.5 125t1.5 124.5t7 86t16 59t27.5 42.5q21 23 50.5 37.5t71.5 14.5t71.5 -14.5t50.5 -37.5q17 -19 27.5 -42.5
t16 -59t7 -86t1.5 -124.5zM309 356q0 63 -1 107t-4.5 73.5t-9.5 48t-15 31.5q-9 12 -23 19.5t-35 7.5t-35.5 -7.5t-23.5 -19.5q-9 -13 -15 -31.5t-9 -48t-4 -73.5t-1 -107t1 -107t4 -73.5t9 -48t15 -31.5q9 -12 23.5 -19.5t35.5 -7.5t35 7.5t23 19.5q9 13 15 31.5t9.5 48
t4.5 73.5t1 107zM281 762l-60 87l-60 -87h-66l93 135h66l93 -135h-66z" />
    <glyph glyph-name="Otilde" unicode="&#xd5;" horiz-adv-x="442" 
d="M395 356q0 -74 -1.5 -125t-7 -86t-16 -58.5t-27.5 -42.5q-21 -23 -50.5 -37.5t-71.5 -14.5t-71.5 14.5t-50.5 37.5q-17 19 -27.5 42.5t-16 58.5t-7 86t-1.5 125t1.5 124.5t7 86t16 59t27.5 42.5q21 23 50.5 37.5t71.5 14.5t71.5 -14.5t50.5 -37.5q17 -19 27.5 -42.5
t16 -59t7 -86t1.5 -124.5zM309 356q0 63 -1 107t-4.5 73.5t-9.5 48t-15 31.5q-9 12 -23 19.5t-35 7.5t-35.5 -7.5t-23.5 -19.5q-9 -13 -15 -31.5t-9 -48t-4 -73.5t-1 -107t1 -107t4 -73.5t9 -48t15 -31.5q9 -12 23.5 -19.5t35.5 -7.5t35 7.5t23 19.5q9 13 15 31.5t9.5 48
t4.5 73.5t1 107zM354 814q-17 -17 -36 -29.5t-44 -12.5q-20 0 -33 5t-24 11t-21 11t-23 5q-14 0 -24.5 -7t-20.5 -16l-36 37q21 22 39 32.5t40 10.5q20 0 32.5 -5t23 -11.5t20.5 -11.5t25 -5t25 7t19 16z" />
    <glyph glyph-name="Odieresis" unicode="&#xd6;" horiz-adv-x="442" 
d="M395 356q0 -74 -1.5 -125t-7 -86t-16 -58.5t-27.5 -42.5q-21 -23 -50.5 -37.5t-71.5 -14.5t-71.5 14.5t-50.5 37.5q-17 19 -27.5 42.5t-16 58.5t-7 86t-1.5 125t1.5 124.5t7 86t16 59t27.5 42.5q21 23 50.5 37.5t71.5 14.5t71.5 -14.5t50.5 -37.5q17 -19 27.5 -42.5
t16 -59t7 -86t1.5 -124.5zM309 356q0 63 -1 107t-4.5 73.5t-9.5 48t-15 31.5q-9 12 -23 19.5t-35 7.5t-35.5 -7.5t-23.5 -19.5q-9 -13 -15 -31.5t-9 -48t-4 -73.5t-1 -107t1 -107t4 -73.5t9 -48t15 -31.5q9 -12 23.5 -19.5t35.5 -7.5t35 7.5t23 19.5q9 13 15 31.5t9.5 48
t4.5 73.5t1 107zM258 777v81h82v-81h-82zM102 777v81h82v-81h-82z" />
    <glyph glyph-name="multiply" unicode="&#xd7;" horiz-adv-x="444" 
d="M339 109l-117 116l-116 -116l-53 52l117 117l-117 116l53 53l116 -117l117 117l52 -53l-116 -116l116 -117z" />
    <glyph glyph-name="Oslash" unicode="&#xd8;" horiz-adv-x="431" 
d="M395 356q0 -74 -1.5 -125t-7 -86t-16 -58.5t-27.5 -42.5q-21 -23 -50.5 -37.5t-71.5 -14.5q-49 0 -83 20l-19 -56h-62l34 96q-15 19 -23.5 43.5t-13 59.5t-6 84t-1.5 117q0 74 1.5 124.5t7 86t16 59t27.5 42.5q21 23 50.5 37.5t71.5 14.5q48 0 83 -20l18 56h62l-32 -97
q14 -19 22.5 -43.5t13 -59.5t6 -84t1.5 -116zM277 621q-20 22 -56 22q-21 0 -35.5 -7.5t-23.5 -19.5q-9 -13 -15 -31.5t-9 -48t-4 -73.5t-1 -107q0 -74 1.5 -113.5t6.5 -62.5zM309 356q0 72 -1.5 112t-6.5 63l-136 -440q19 -22 56 -22q21 0 35 7.5t23 19.5q10 13 16 31.5
t9 48t4 73.5t1 107z" />
    <glyph glyph-name="Ugrave" unicode="&#xd9;" horiz-adv-x="445" 
d="M387 162q0 -39 -12 -70t-34 -53q-23 -23 -53.5 -35t-65.5 -12q-71 0 -118 47q-22 22 -34 53t-12 70v550h86v-555q0 -42 23 -65t55 -23t55.5 23t23.5 65v555h86v-550zM197 762l-81 135h74l69 -135h-62z" />
    <glyph glyph-name="Uacute" unicode="&#xda;" horiz-adv-x="445" 
d="M387 162q0 -39 -12 -70t-34 -53q-23 -23 -53.5 -35t-65.5 -12q-71 0 -118 47q-22 22 -34 53t-12 70v550h86v-555q0 -42 23 -65t55 -23t55.5 23t23.5 65v555h86v-550zM247 762h-62l69 135h74z" />
    <glyph glyph-name="Ucircumflex" unicode="&#xdb;" horiz-adv-x="445" 
d="M387 162q0 -39 -12 -70t-34 -53q-23 -23 -53.5 -35t-65.5 -12q-71 0 -118 47q-22 22 -34 53t-12 70v550h86v-555q0 -42 23 -65t55 -23t55.5 23t23.5 65v555h86v-550zM282 762l-60 87l-60 -87h-66l93 135h66l93 -135h-66z" />
    <glyph glyph-name="Udieresis" unicode="&#xdc;" horiz-adv-x="445" 
d="M387 162q0 -39 -12 -70t-34 -53q-23 -23 -53.5 -35t-65.5 -12q-71 0 -118 47q-22 22 -34 53t-12 70v550h86v-555q0 -42 23 -65t55 -23t55.5 23t23.5 65v555h86v-550zM259 777v81h82v-81h-82zM103 777v81h82v-81h-82z" />
    <glyph glyph-name="Yacute" unicode="&#xdd;" horiz-adv-x="353" 
d="M219 288v-288h-86v288l-131 424h94l80 -304l80 304h95zM205 762h-62l69 135h74z" />
    <glyph glyph-name="Thorn" unicode="&#xde;" horiz-adv-x="435" 
d="M393 360q0 -59 -11 -99t-33 -64t-53.5 -34.5t-71.5 -10.5h-74v-152h-86v712h86v-144h74q40 0 71.5 -10.5t53.5 -34.5t33 -64t11 -99zM307 360q0 72 -21 101t-63 29h-73v-261h73q42 0 63 29.5t21 101.5z" />
    <glyph glyph-name="germandbls" unicode="&#xdf;" horiz-adv-x="394" 
d="M355 219q0 -62 -6.5 -106.5t-37.5 -75.5q-23 -23 -51.5 -30t-58.5 -7v73q15 0 28.5 4t23.5 15q13 15 17 43.5t4 89.5q0 56 -4.5 84.5t-15.5 44.5q-15 21 -45 21h-8v69h7q23 0 38 17q13 16 16 36t3 48q0 36 -4.5 53t-14.5 29q-15 20 -45 20q-26 0 -44.5 -18t-18.5 -56
v-573h-81v571q0 41 10.5 66t30.5 44q19 19 46 29t56 10q30 0 57 -9t47 -29q27 -27 34.5 -58t7.5 -73q0 -26 -2.5 -51.5t-15.5 -48.5q-12 -22 -36 -40q11 -6 19.5 -14.5t15.5 -18.5q17 -23 22.5 -57.5t5.5 -101.5z" />
    <glyph glyph-name="agrave" unicode="&#xe0;" 
d="M245 0v46q-6 -11 -14 -20t-16 -15q-12 -9 -26 -14t-35 -5q-29 0 -50 9.5t-39 29.5q-15 17 -24 46t-9 70q0 36 11.5 66.5t34.5 50.5q20 17 44.5 26t65.5 9h53v82q0 74 -61 74q-14 0 -23 -4.5t-17 -12.5q-11 -11 -15 -25t-4 -35h-81q0 30 8.5 58.5t31.5 51.5
q17 17 43.5 27.5t56.5 10.5q65 0 101 -36q19 -20 30 -47t11 -67v-376h-77zM241 240h-46q-19 0 -32.5 -4t-25.5 -15q-11 -11 -17.5 -30.5t-6.5 -40.5q0 -41 15.5 -64t47.5 -23q29 0 47 22.5t18 58.5v96zM161 586l-81 135h74l69 -135h-62z" />
    <glyph glyph-name="aacute" unicode="&#xe1;" 
d="M245 0v46q-6 -11 -14 -20t-16 -15q-12 -9 -26 -14t-35 -5q-29 0 -50 9.5t-39 29.5q-15 17 -24 46t-9 70q0 36 11.5 66.5t34.5 50.5q20 17 44.5 26t65.5 9h53v82q0 74 -61 74q-14 0 -23 -4.5t-17 -12.5q-11 -11 -15 -25t-4 -35h-81q0 30 8.5 58.5t31.5 51.5
q17 17 43.5 27.5t56.5 10.5q65 0 101 -36q19 -20 30 -47t11 -67v-376h-77zM241 240h-46q-19 0 -32.5 -4t-25.5 -15q-11 -11 -17.5 -30.5t-6.5 -40.5q0 -41 15.5 -64t47.5 -23q29 0 47 22.5t18 58.5v96zM210 586h-61l68 135h74z" />
    <glyph glyph-name="acircumflex" unicode="&#xe2;" 
d="M245 0v46q-6 -11 -14 -20t-16 -15q-12 -9 -26 -14t-35 -5q-29 0 -50 9.5t-39 29.5q-15 17 -24 46t-9 70q0 36 11.5 66.5t34.5 50.5q20 17 44.5 26t65.5 9h53v82q0 74 -61 74q-14 0 -23 -4.5t-17 -12.5q-11 -11 -15 -25t-4 -35h-81q0 30 8.5 58.5t31.5 51.5
q17 17 43.5 27.5t56.5 10.5q65 0 101 -36q19 -20 30 -47t11 -67v-376h-77zM241 240h-46q-19 0 -32.5 -4t-25.5 -15q-11 -11 -17.5 -30.5t-6.5 -40.5q0 -41 15.5 -64t47.5 -23q29 0 47 22.5t18 58.5v96zM244 586l-60 87l-59 -87h-67l93 135h67l93 -135h-67z" />
    <glyph glyph-name="atilde" unicode="&#xe3;" 
d="M245 0v46q-6 -11 -14 -20t-16 -15q-12 -9 -26 -14t-35 -5q-29 0 -50 9.5t-39 29.5q-15 17 -24 46t-9 70q0 36 11.5 66.5t34.5 50.5q20 17 44.5 26t65.5 9h53v82q0 74 -61 74q-14 0 -23 -4.5t-17 -12.5q-11 -11 -15 -25t-4 -35h-81q0 30 8.5 58.5t31.5 51.5
q17 17 43.5 27.5t56.5 10.5q65 0 101 -36q19 -20 30 -47t11 -67v-376h-77zM241 240h-46q-19 0 -32.5 -4t-25.5 -15q-11 -11 -17.5 -30.5t-6.5 -40.5q0 -41 15.5 -64t47.5 -23q29 0 47 22.5t18 58.5v96zM318 638q-26 -25 -44 -33.5t-36 -8.5q-17 0 -30 4.5t-28 12.5
q-11 7 -21 11t-22 4q-10 0 -19 -3t-26 -20l-36 38q25 25 42.5 33.5t36.5 8.5q17 0 30 -4t28 -13q11 -7 21 -11t22 -4q9 0 18.5 3.5t25.5 19.5z" />
    <glyph glyph-name="adieresis" unicode="&#xe4;" 
d="M245 0v46q-6 -11 -14 -20t-16 -15q-12 -9 -26 -14t-35 -5q-29 0 -50 9.5t-39 29.5q-15 17 -24 46t-9 70q0 36 11.5 66.5t34.5 50.5q20 17 44.5 26t65.5 9h53v82q0 74 -61 74q-14 0 -23 -4.5t-17 -12.5q-11 -11 -15 -25t-4 -35h-81q0 30 8.5 58.5t31.5 51.5
q17 17 43.5 27.5t56.5 10.5q65 0 101 -36q19 -20 30 -47t11 -67v-376h-77zM241 240h-46q-19 0 -32.5 -4t-25.5 -15q-11 -11 -17.5 -30.5t-6.5 -40.5q0 -41 15.5 -64t47.5 -23q29 0 47 22.5t18 58.5v96zM222 601v82h81v-82h-81zM65 601v82h82v-82h-82z" />
    <glyph glyph-name="aring" unicode="&#xe5;" 
d="M245 0v46q-6 -11 -14 -20t-16 -15q-12 -9 -26 -14t-35 -5q-29 0 -50 9.5t-39 29.5q-15 17 -24 46t-9 70q0 36 11.5 66.5t34.5 50.5q20 17 44.5 26t65.5 9h53v82q0 74 -61 74q-14 0 -23 -4.5t-17 -12.5q-11 -11 -15 -25t-4 -35h-81q0 30 8.5 58.5t31.5 51.5
q17 17 43.5 27.5t56.5 10.5q65 0 101 -36q19 -20 30 -47t11 -67v-376h-77zM241 240h-46q-19 0 -32.5 -4t-25.5 -15q-11 -11 -17.5 -30.5t-6.5 -40.5q0 -41 15.5 -64t47.5 -23q29 0 47 22.5t18 58.5v96zM282 681q0 -41 -28.5 -69.5t-69.5 -28.5q-20 0 -37.5 7.5t-31 21
t-21 31.5t-7.5 38t7.5 38t21 31.5t31 21t37.5 7.5q41 0 69.5 -28.5t28.5 -69.5zM234 681q0 20 -15 34.5t-35 14.5t-34.5 -14.5t-14.5 -34.5t14.5 -34.5t34.5 -14.5t35 14.5t15 34.5z" />
    <glyph glyph-name="ae" unicode="&#xe6;" horiz-adv-x="573" 
d="M322 240q0 -62 3.5 -99t17.5 -54q8 -10 19 -16t27 -6q28 0 46 20q9 10 13.5 26t4.5 34h80q-1 -35 -10.5 -63.5t-30.5 -51.5q-19 -20 -45.5 -29t-57.5 -9q-50 0 -86 28q-11 8 -20 20t-16 24q-8 -15 -18 -28t-21 -21q-14 -11 -31.5 -17t-42.5 -6q-29 0 -50 9.5t-39 29.5
q-33 36 -33 116q0 76 46 117q20 17 44.5 26t65.5 9h53v82q0 36 -15.5 55t-44.5 19q-26 0 -42 -18q-18 -19 -18 -59h-81q0 30 9 59t31 51q17 17 43.5 27.5t56.5 10.5q54 0 86 -26q5 -4 9.5 -10t9.5 -12q3 5 7 9l8 8q36 31 88 31q32 0 56.5 -9t45.5 -31q29 -31 37 -90.5
t8 -155.5h-213zM241 240h-46q-18 0 -31.5 -4t-26.5 -15q-11 -11 -17.5 -30.5t-6.5 -40.5q0 -41 15.5 -64t47.5 -23q29 0 47 23t18 58v96zM453 301q0 57 -4 87t-16 44q-8 10 -18.5 15.5t-27.5 5.5t-27 -5.5t-18 -15.5q-12 -14 -16 -44t-4 -87h131z" />
    <glyph glyph-name="ccedilla" unicode="&#xe7;" horiz-adv-x="362" 
d="M330 145q-2 -37 -11.5 -66.5t-29.5 -50.5q-19 -19 -44.5 -27.5t-57.5 -8.5q-33 0 -61 11t-48 37q-24 31 -31 86t-7 133q0 79 7 133.5t31 85.5q20 26 48 37t61 11q32 0 56.5 -7.5t44.5 -27.5q24 -23 32 -53.5t10 -63.5h-81q0 16 -2.5 31.5t-13.5 28.5q-16 19 -45 19
q-30 0 -46 -22q-14 -19 -17 -60t-3 -112q0 -70 3 -111t17 -61q16 -22 46 -22q28 0 44 19q11 12 14 27.5t3 33.5h81zM176 -182h-64l57 144h57z" />
    <glyph glyph-name="egrave" unicode="&#xe8;" horiz-adv-x="372" 
d="M122 240q0 -62 3.5 -99t17.5 -54q7 -10 18.5 -16t27.5 -6q14 0 25 4.5t21 15.5t13.5 26t3.5 34h81q-1 -36 -10.5 -64t-31.5 -51q-37 -38 -102 -38q-33 0 -58 9t-45 31q-29 31 -37.5 88.5t-8.5 138.5q0 82 8 139t37 88q20 22 45 31t57 9t57 -9t45 -31q29 -31 37.5 -90.5
t8.5 -155.5h-213zM253 301q0 57 -4 87t-16 44q-8 10 -18.5 15.5t-27.5 5.5t-27 -5.5t-18 -15.5q-12 -14 -16 -44t-4 -87h131zM164 586l-81 135h74l69 -135h-62z" />
    <glyph glyph-name="eacute" unicode="&#xe9;" horiz-adv-x="372" 
d="M122 240q0 -62 3.5 -99t17.5 -54q7 -10 18.5 -16t27.5 -6q14 0 25 4.5t21 15.5t13.5 26t3.5 34h81q-1 -36 -10.5 -64t-31.5 -51q-37 -38 -102 -38q-33 0 -58 9t-45 31q-29 31 -37.5 88.5t-8.5 138.5q0 82 8 139t37 88q20 22 45 31t57 9t57 -9t45 -31q29 -31 37.5 -90.5
t8.5 -155.5h-213zM253 301q0 57 -4 87t-16 44q-8 10 -18.5 15.5t-27.5 5.5t-27 -5.5t-18 -15.5q-12 -14 -16 -44t-4 -87h131zM213 586h-61l68 135h74z" />
    <glyph glyph-name="ecircumflex" unicode="&#xea;" horiz-adv-x="372" 
d="M122 240q0 -62 3.5 -99t17.5 -54q7 -10 18.5 -16t27.5 -6q14 0 25 4.5t21 15.5t13.5 26t3.5 34h81q-1 -36 -10.5 -64t-31.5 -51q-37 -38 -102 -38q-33 0 -58 9t-45 31q-29 31 -37.5 88.5t-8.5 138.5q0 82 8 139t37 88q20 22 45 31t57 9t57 -9t45 -31q29 -31 37.5 -90.5
t8.5 -155.5h-213zM253 301q0 57 -4 87t-16 44q-8 10 -18.5 15.5t-27.5 5.5t-27 -5.5t-18 -15.5q-12 -14 -16 -44t-4 -87h131zM247 586l-60 87l-59 -87h-67l93 135h67l93 -135h-67z" />
    <glyph glyph-name="edieresis" unicode="&#xeb;" horiz-adv-x="372" 
d="M122 240q0 -62 3.5 -99t17.5 -54q7 -10 18.5 -16t27.5 -6q14 0 25 4.5t21 15.5t13.5 26t3.5 34h81q-1 -36 -10.5 -64t-31.5 -51q-37 -38 -102 -38q-33 0 -58 9t-45 31q-29 31 -37.5 88.5t-8.5 138.5q0 82 8 139t37 88q20 22 45 31t57 9t57 -9t45 -31q29 -31 37.5 -90.5
t8.5 -155.5h-213zM253 301q0 57 -4 87t-16 44q-8 10 -18.5 15.5t-27.5 5.5t-27 -5.5t-18 -15.5q-12 -14 -16 -44t-4 -87h131zM225 601v82h81v-82h-81zM68 601v82h82v-82h-82z" />
    <glyph glyph-name="igrave" unicode="&#xec;" horiz-adv-x="195" 
d="M57 0v518h81v-518h-81zM74 586l-81 135h74l69 -135h-62z" />
    <glyph glyph-name="iacute" unicode="&#xed;" horiz-adv-x="195" 
d="M57 0v518h81v-518h-81zM125 586h-61l68 135h74z" />
    <glyph glyph-name="icircumflex" unicode="&#xee;" horiz-adv-x="195" 
d="M57 0v518h81v-518h-81zM159 586l-60 87l-59 -87h-67l93 135h67l93 -135h-67z" />
    <glyph glyph-name="idieresis" unicode="&#xef;" horiz-adv-x="195" 
d="M57 0v518h81v-518h-81zM138 601v82h81v-82h-81zM-19 601v82h82v-82h-82z" />
    <glyph glyph-name="eth" unicode="&#xf0;" horiz-adv-x="378" 
d="M335 246q0 -76 -7 -128t-31 -81q-20 -24 -47 -34.5t-62 -10.5t-61.5 10.5t-46.5 34.5q-24 29 -31.5 81t-7.5 128q0 87 6.5 138t31.5 79q32 37 89 37q14 0 30 -4t28 -12l-31 91h-78v61h58l-27 76h82l27 -76h71v-61h-52l35 -108q6 -20 10.5 -41.5t7.5 -47t4.5 -58
t1.5 -74.5zM254 247q0 67 -3 105.5t-17 56.5q-16 21 -46 21q-29 0 -45 -21q-14 -18 -17.5 -56.5t-3.5 -105.5t3.5 -105t17.5 -56q16 -21 45 -21q30 0 46 21q14 18 17 56t3 105z" />
    <glyph glyph-name="ntilde" unicode="&#xf1;" horiz-adv-x="395" 
d="M261 0v381q0 35 -18 53t-44 18t-43.5 -18t-17.5 -53v-381h-81v518h78v-40q5 9 14.5 18t17.5 14q26 16 56 16q29 0 50 -9.5t38 -28.5q16 -17 23.5 -41t7.5 -66v-381h-81zM334 638q-26 -25 -44 -33.5t-36 -8.5q-17 0 -30 4.5t-28 12.5q-11 7 -21 11t-22 4q-10 0 -19 -3
t-26 -20l-36 38q25 25 42.5 33.5t36.5 8.5q17 0 30 -4t28 -13q11 -7 21 -11t22 -4q9 0 18.5 3.5t25.5 19.5z" />
    <glyph glyph-name="ograve" unicode="&#xf2;" horiz-adv-x="376" 
d="M335 259q0 -79 -6.5 -133.5t-30.5 -85.5q-20 -26 -47.5 -37t-62.5 -11t-62 11t-47 37q-24 31 -31 85.5t-7 133.5t7 133.5t31 85.5q20 26 47 37t62 11t62.5 -11t47.5 -37q24 -31 30.5 -85.5t6.5 -133.5zM254 259q0 70 -3 111t-17 61q-16 22 -46 22q-29 0 -45 -22
q-14 -20 -17.5 -61t-3.5 -111t3.5 -111t17.5 -61q16 -22 45 -22q30 0 46 22q14 20 17 61t3 111zM165 586l-81 135h74l69 -135h-62z" />
    <glyph glyph-name="oacute" unicode="&#xf3;" horiz-adv-x="376" 
d="M335 259q0 -79 -6.5 -133.5t-30.5 -85.5q-20 -26 -47.5 -37t-62.5 -11t-62 11t-47 37q-24 31 -31 85.5t-7 133.5t7 133.5t31 85.5q20 26 47 37t62 11t62.5 -11t47.5 -37q24 -31 30.5 -85.5t6.5 -133.5zM254 259q0 70 -3 111t-17 61q-16 22 -46 22q-29 0 -45 -22
q-14 -20 -17.5 -61t-3.5 -111t3.5 -111t17.5 -61q16 -22 45 -22q30 0 46 22q14 20 17 61t3 111zM214 586h-61l68 135h74z" />
    <glyph glyph-name="ocircumflex" unicode="&#xf4;" horiz-adv-x="376" 
d="M335 259q0 -79 -6.5 -133.5t-30.5 -85.5q-20 -26 -47.5 -37t-62.5 -11t-62 11t-47 37q-24 31 -31 85.5t-7 133.5t7 133.5t31 85.5q20 26 47 37t62 11t62.5 -11t47.5 -37q24 -31 30.5 -85.5t6.5 -133.5zM254 259q0 70 -3 111t-17 61q-16 22 -46 22q-29 0 -45 -22
q-14 -20 -17.5 -61t-3.5 -111t3.5 -111t17.5 -61q16 -22 45 -22q30 0 46 22q14 20 17 61t3 111zM248 586l-60 87l-59 -87h-67l93 135h67l93 -135h-67z" />
    <glyph glyph-name="otilde" unicode="&#xf5;" horiz-adv-x="376" 
d="M335 259q0 -79 -6.5 -133.5t-30.5 -85.5q-20 -26 -47.5 -37t-62.5 -11t-62 11t-47 37q-24 31 -31 85.5t-7 133.5t7 133.5t31 85.5q20 26 47 37t62 11t62.5 -11t47.5 -37q24 -31 30.5 -85.5t6.5 -133.5zM254 259q0 70 -3 111t-17 61q-16 22 -46 22q-29 0 -45 -22
q-14 -20 -17.5 -61t-3.5 -111t3.5 -111t17.5 -61q16 -22 45 -22q30 0 46 22q14 20 17 61t3 111zM322 638q-26 -25 -44 -33.5t-36 -8.5q-17 0 -30 4.5t-28 12.5q-11 7 -21 11t-22 4q-10 0 -19 -3t-26 -20l-36 38q25 25 42.5 33.5t36.5 8.5q17 0 30 -4t28 -13q11 -7 21 -11
t22 -4q9 0 18.5 3.5t25.5 19.5z" />
    <glyph glyph-name="odieresis" unicode="&#xf6;" horiz-adv-x="376" 
d="M335 259q0 -79 -6.5 -133.5t-30.5 -85.5q-20 -26 -47.5 -37t-62.5 -11t-62 11t-47 37q-24 31 -31 85.5t-7 133.5t7 133.5t31 85.5q20 26 47 37t62 11t62.5 -11t47.5 -37q24 -31 30.5 -85.5t6.5 -133.5zM254 259q0 70 -3 111t-17 61q-16 22 -46 22q-29 0 -45 -22
q-14 -20 -17.5 -61t-3.5 -111t3.5 -111t17.5 -61q16 -22 45 -22q30 0 46 22q14 20 17 61t3 111zM226 601v82h81v-82h-81zM69 601v82h82v-82h-82z" />
    <glyph glyph-name="divide" unicode="&#xf7;" horiz-adv-x="444" 
d="M46 238v78h352v-78h-352zM173 394v99h100v-99h-100zM173 60v100h100v-100h-100z" />
    <glyph glyph-name="oslash" unicode="&#xf8;" horiz-adv-x="370" 
d="M302 471q21 -32 26.5 -86t5.5 -126q0 -79 -6.5 -133.5t-30.5 -85.5q-20 -26 -47.5 -37t-62.5 -11q-42 0 -73 17l-20 -53h-58l36 91q-20 32 -26 86t-6 126q0 79 7 133.5t31 85.5q20 26 47 37t62 11q42 0 73 -17l21 53h58zM254 259q0 33 -1 58.5t-5 39.5l-103 -277
q16 -18 42 -18q30 0 46 22q14 20 17.5 61.5t3.5 113.5zM230 438q-16 18 -43 18q-29 0 -45 -22q-14 -20 -17.5 -61.5t-3.5 -113.5q0 -33 0.5 -58.5t4.5 -39.5z" />
    <glyph glyph-name="ugrave" unicode="&#xf9;" horiz-adv-x="395" 
d="M260 0v40q-5 -9 -14.5 -18t-17.5 -14q-26 -16 -56 -16q-29 0 -50 9.5t-38 28.5q-16 17 -23.5 41t-7.5 66v381h81v-381q0 -36 18 -54t44 -18t43.5 18t17.5 54v381h81v-518h-78zM172 586l-81 135h74l69 -135h-62z" />
    <glyph glyph-name="uacute" unicode="&#xfa;" horiz-adv-x="395" 
d="M260 0v40q-5 -9 -14.5 -18t-17.5 -14q-26 -16 -56 -16q-29 0 -50 9.5t-38 28.5q-16 17 -23.5 41t-7.5 66v381h81v-381q0 -36 18 -54t44 -18t43.5 18t17.5 54v381h81v-518h-78zM221 586h-61l68 135h74z" />
    <glyph glyph-name="ucircumflex" unicode="&#xfb;" horiz-adv-x="395" 
d="M260 0v40q-5 -9 -14.5 -18t-17.5 -14q-26 -16 -56 -16q-29 0 -50 9.5t-38 28.5q-16 17 -23.5 41t-7.5 66v381h81v-381q0 -36 18 -54t44 -18t43.5 18t17.5 54v381h81v-518h-78zM255 586l-60 87l-59 -87h-67l93 135h67l93 -135h-67z" />
    <glyph glyph-name="udieresis" unicode="&#xfc;" horiz-adv-x="395" 
d="M260 0v40q-5 -9 -14.5 -18t-17.5 -14q-26 -16 -56 -16q-29 0 -50 9.5t-38 28.5q-16 17 -23.5 41t-7.5 66v381h81v-381q0 -36 18 -54t44 -18t43.5 18t17.5 54v381h81v-518h-78zM233 601v82h81v-82h-81zM76 601v82h82v-82h-82z" />
    <glyph glyph-name="yacute" unicode="&#xfd;" horiz-adv-x="345" 
d="M193 -83q-8 -35 -24 -56.5t-38 -33.5t-50 -16.5t-60 -4.5v72q38 0 61 12.5t32 47.5l16 63l-126 517h89l79 -389l78 389h89zM202 586h-61l68 135h74z" />
    <glyph glyph-name="thorn" unicode="&#xfe;" horiz-adv-x="389" 
d="M139 482q13 18 29 29q24 15 56 15q26 0 47.5 -9t38.5 -29q25 -29 31.5 -84t6.5 -145t-6.5 -144.5t-31.5 -83.5q-17 -20 -37 -29.5t-49 -9.5q-32 0 -56 15q-16 11 -29 29v-230h-81v906h81v-230zM266 259q0 40 -1 69t-3 49.5t-6 33.5t-11 21q-16 21 -44 21q-26 0 -42 -16
q-10 -10 -15 -24t-5 -35v-237q0 -40 20 -60q16 -16 42 -16q28 0 44 21q13 16 17 54.5t4 118.5z" />
    <glyph glyph-name="ydieresis" unicode="&#xff;" horiz-adv-x="345" 
d="M193 -83q-8 -35 -24 -56.5t-38 -33.5t-50 -16.5t-60 -4.5v72q38 0 61 12.5t32 47.5l16 63l-126 517h89l79 -389l78 389h89zM214 601v82h81v-82h-81zM57 601v82h82v-82h-82z" />
    <glyph glyph-name="Amacron" unicode="&#x100;" horiz-adv-x="424" 
d="M328 0l-34 168h-165l-34 -168h-90l166 712h83l165 -712h-91zM212 573l-67 -328h133zM100 780v58h228v-58h-228z" />
    <glyph glyph-name="amacron" unicode="&#x101;" 
d="M245 0v46q-6 -11 -14 -20t-16 -15q-12 -9 -26 -14t-35 -5q-29 0 -50 9.5t-39 29.5q-15 17 -24 46t-9 70q0 36 11.5 66.5t34.5 50.5q20 17 44.5 26t65.5 9h53v82q0 74 -61 74q-14 0 -23 -4.5t-17 -12.5q-11 -11 -15 -25t-4 -35h-81q0 30 8.5 58.5t31.5 51.5
q17 17 43.5 27.5t56.5 10.5q65 0 101 -36q19 -20 30 -47t11 -67v-376h-77zM241 240h-46q-19 0 -32.5 -4t-25.5 -15q-11 -11 -17.5 -30.5t-6.5 -40.5q0 -41 15.5 -64t47.5 -23q29 0 47 22.5t18 58.5v96zM70 608v57h229v-57h-229z" />
    <glyph glyph-name="Abreve" unicode="&#x102;" horiz-adv-x="424" 
d="M328 0l-34 168h-165l-34 -168h-90l166 712h83l165 -712h-91zM212 573l-67 -328h133zM332 866q-4 -59 -36 -85t-82 -26t-82 26t-36 85h59q3 -27 19 -39.5t40 -12.5t40 12.5t19 39.5h59z" />
    <glyph glyph-name="abreve" unicode="&#x103;" 
d="M245 0v46q-6 -11 -14 -20t-16 -15q-12 -9 -26 -14t-35 -5q-29 0 -50 9.5t-39 29.5q-15 17 -24 46t-9 70q0 36 11.5 66.5t34.5 50.5q20 17 44.5 26t65.5 9h53v82q0 74 -61 74q-14 0 -23 -4.5t-17 -12.5q-11 -11 -15 -25t-4 -35h-81q0 30 8.5 58.5t31.5 51.5
q17 17 43.5 27.5t56.5 10.5q65 0 101 -36q19 -20 30 -47t11 -67v-376h-77zM241 240h-46q-19 0 -32.5 -4t-25.5 -15q-11 -11 -17.5 -30.5t-6.5 -40.5q0 -41 15.5 -64t47.5 -23q29 0 47 22.5t18 58.5v96zM302 694q-4 -60 -35.5 -86t-82.5 -26q-50 0 -81.5 26t-35.5 86h58
q4 -28 19.5 -40.5t39.5 -12.5q25 0 40.5 12.5t19.5 40.5h58z" />
    <glyph glyph-name="Aogonek" unicode="&#x104;" horiz-adv-x="424" 
d="M328 0l-34 168h-165l-34 -168h-90l166 712h83l165 -712h-91zM212 573l-67 -328h133zM357 -182h-64l57 144h57z" />
    <glyph glyph-name="aogonek" unicode="&#x105;" 
d="M245 0v46q-6 -11 -14 -20t-16 -15q-12 -9 -26 -14t-35 -5q-29 0 -50 9.5t-39 29.5q-15 17 -24 46t-9 70q0 36 11.5 66.5t34.5 50.5q20 17 44.5 26t65.5 9h53v82q0 74 -61 74q-14 0 -23 -4.5t-17 -12.5q-11 -11 -15 -25t-4 -35h-81q0 30 8.5 58.5t31.5 51.5
q17 17 43.5 27.5t56.5 10.5q65 0 101 -36q19 -20 30 -47t11 -67v-376h-77zM241 240h-46q-19 0 -32.5 -4t-25.5 -15q-11 -11 -17.5 -30.5t-6.5 -40.5q0 -41 15.5 -64t47.5 -23q29 0 47 22.5t18 58.5v96zM262 -182h-64l57 144h57z" />
    <glyph glyph-name="Cacute" unicode="&#x106;" horiz-adv-x="423" 
d="M385 176q-1 -45 -14.5 -83t-39.5 -62q-21 -19 -48 -29t-62 -10q-42 0 -72 14.5t-50 37.5q-18 20 -28 43.5t-15.5 58.5t-7 85.5t-1.5 124.5t1.5 124.5t7 85.5t15.5 58.5t28 43.5q20 23 50 37.5t72 14.5q38 0 65 -11t48 -31q25 -24 37.5 -60.5t13.5 -80.5h-85
q-1 23 -5.5 44t-17.5 37q-8 11 -22 18t-34 7q-21 0 -35.5 -7.5t-23.5 -19.5q-9 -13 -15 -31.5t-9 -48t-4 -73.5t-1 -107t1 -107t4 -73.5t9 -48t15 -31.5q9 -12 23.5 -19.5t35.5 -7.5q20 0 34 7t22 18q12 16 17 37.5t6 44.5h85zM246 762h-62l69 135h74z" />
    <glyph glyph-name="cacute" unicode="&#x107;" horiz-adv-x="362" 
d="M330 145q-2 -37 -11.5 -66.5t-29.5 -50.5q-19 -19 -44.5 -27.5t-57.5 -8.5q-33 0 -61 11t-48 37q-24 31 -31 86t-7 133q0 79 7 133.5t31 85.5q20 26 48 37t61 11q32 0 56.5 -7.5t44.5 -27.5q24 -23 32 -53.5t10 -63.5h-81q0 16 -2.5 31.5t-13.5 28.5q-16 19 -45 19
q-30 0 -46 -22q-14 -19 -17 -60t-3 -112q0 -70 3 -111t17 -61q16 -22 46 -22q28 0 44 19q11 12 14 27.5t3 33.5h81zM213 586h-61l68 135h74z" />
    <glyph glyph-name="Ccircumflex" unicode="&#x108;" horiz-adv-x="423" 
d="M385 176q-1 -45 -14.5 -83t-39.5 -62q-21 -19 -48 -29t-62 -10q-42 0 -72 14.5t-50 37.5q-18 20 -28 43.5t-15.5 58.5t-7 85.5t-1.5 124.5t1.5 124.5t7 85.5t15.5 58.5t28 43.5q20 23 50 37.5t72 14.5q38 0 65 -11t48 -31q25 -24 37.5 -60.5t13.5 -80.5h-85
q-1 23 -5.5 44t-17.5 37q-8 11 -22 18t-34 7q-21 0 -35.5 -7.5t-23.5 -19.5q-9 -13 -15 -31.5t-9 -48t-4 -73.5t-1 -107t1 -107t4 -73.5t9 -48t15 -31.5q9 -12 23.5 -19.5t35.5 -7.5q20 0 34 7t22 18q12 16 17 37.5t6 44.5h85zM281 762l-60 87l-60 -87h-66l93 135h66
l93 -135h-66z" />
    <glyph glyph-name="ccircumflex" unicode="&#x109;" horiz-adv-x="362" 
d="M330 145q-2 -37 -11.5 -66.5t-29.5 -50.5q-19 -19 -44.5 -27.5t-57.5 -8.5q-33 0 -61 11t-48 37q-24 31 -31 86t-7 133q0 79 7 133.5t31 85.5q20 26 48 37t61 11q32 0 56.5 -7.5t44.5 -27.5q24 -23 32 -53.5t10 -63.5h-81q0 16 -2.5 31.5t-13.5 28.5q-16 19 -45 19
q-30 0 -46 -22q-14 -19 -17 -60t-3 -112q0 -70 3 -111t17 -61q16 -22 46 -22q28 0 44 19q11 12 14 27.5t3 33.5h81zM247 586l-60 87l-59 -87h-67l93 135h67l93 -135h-67z" />
    <glyph glyph-name="Cdotaccent" unicode="&#x10a;" horiz-adv-x="423" 
d="M385 176q-1 -45 -14.5 -83t-39.5 -62q-21 -19 -48 -29t-62 -10q-42 0 -72 14.5t-50 37.5q-18 20 -28 43.5t-15.5 58.5t-7 85.5t-1.5 124.5t1.5 124.5t7 85.5t15.5 58.5t28 43.5q20 23 50 37.5t72 14.5q38 0 65 -11t48 -31q25 -24 37.5 -60.5t13.5 -80.5h-85
q-1 23 -5.5 44t-17.5 37q-8 11 -22 18t-34 7q-21 0 -35.5 -7.5t-23.5 -19.5q-9 -13 -15 -31.5t-9 -48t-4 -73.5t-1 -107t1 -107t4 -73.5t9 -48t15 -31.5q9 -12 23.5 -19.5t35.5 -7.5q20 0 34 7t22 18q12 16 17 37.5t6 44.5h85zM180 777v81h82v-81h-82z" />
    <glyph glyph-name="cdotaccent" unicode="&#x10b;" horiz-adv-x="362" 
d="M330 145q-2 -37 -11.5 -66.5t-29.5 -50.5q-19 -19 -44.5 -27.5t-57.5 -8.5q-33 0 -61 11t-48 37q-24 31 -31 86t-7 133q0 79 7 133.5t31 85.5q20 26 48 37t61 11q32 0 56.5 -7.5t44.5 -27.5q24 -23 32 -53.5t10 -63.5h-81q0 16 -2.5 31.5t-13.5 28.5q-16 19 -45 19
q-30 0 -46 -22q-14 -19 -17 -60t-3 -112q0 -70 3 -111t17 -61q16 -22 46 -22q28 0 44 19q11 12 14 27.5t3 33.5h81zM147 604v82h81v-82h-81z" />
    <glyph glyph-name="Ccaron" unicode="&#x10c;" horiz-adv-x="423" 
d="M385 176q-1 -45 -14.5 -83t-39.5 -62q-21 -19 -48 -29t-62 -10q-42 0 -72 14.5t-50 37.5q-18 20 -28 43.5t-15.5 58.5t-7 85.5t-1.5 124.5t1.5 124.5t7 85.5t15.5 58.5t28 43.5q20 23 50 37.5t72 14.5q38 0 65 -11t48 -31q25 -24 37.5 -60.5t13.5 -80.5h-85
q-1 23 -5.5 44t-17.5 37q-8 11 -22 18t-34 7q-21 0 -35.5 -7.5t-23.5 -19.5q-9 -13 -15 -31.5t-9 -48t-4 -73.5t-1 -107t1 -107t4 -73.5t9 -48t15 -31.5q9 -12 23.5 -19.5t35.5 -7.5q20 0 34 7t22 18q12 16 17 37.5t6 44.5h85zM254 758h-66l-93 134h66l60 -87l60 87h66z" />
    <glyph glyph-name="ccaron" unicode="&#x10d;" horiz-adv-x="362" 
d="M330 145q-2 -37 -11.5 -66.5t-29.5 -50.5q-19 -19 -44.5 -27.5t-57.5 -8.5q-33 0 -61 11t-48 37q-24 31 -31 86t-7 133q0 79 7 133.5t31 85.5q20 26 48 37t61 11q32 0 56.5 -7.5t44.5 -27.5q24 -23 32 -53.5t10 -63.5h-81q0 16 -2.5 31.5t-13.5 28.5q-16 19 -45 19
q-30 0 -46 -22q-14 -19 -17 -60t-3 -112q0 -70 3 -111t17 -61q16 -22 46 -22q28 0 44 19q11 12 14 27.5t3 33.5h81zM221 582h-67l-93 135h67l59 -87l60 87h67z" />
    <glyph glyph-name="Dcaron" unicode="&#x10e;" horiz-adv-x="448" 
d="M401 356q0 -72 -1.5 -122t-7 -85t-15.5 -58t-27 -41q-20 -22 -49 -36t-73 -14h-164v712h164q44 0 73 -14t49 -36q17 -18 27 -41t15.5 -58t7 -85t1.5 -122zM315 356q0 61 -0.5 103.5t-3.5 71.5t-9 47t-16 30t-25 19.5t-36 7.5h-75v-558h75q21 0 36 7.5t25 19.5t16 30t9 47
t3.5 71t0.5 104zM255 758h-66l-93 134h66l60 -87l60 87h66z" />
    <glyph glyph-name="dcaron" unicode="&#x10f;" horiz-adv-x="387" 
d="M251 0v40q-4 -8 -14 -18t-17 -14q-27 -16 -56 -16q-53 0 -86 39q-25 29 -31.5 83t-6.5 145q0 90 6.5 145t31.5 84q16 19 36.5 28.5t49.5 9.5q30 0 56 -15q8 -5 15.5 -13t13.5 -16v230h81v-712h-79zM249 378q0 21 -5 35t-15 24q-16 16 -42 16q-28 0 -44 -21q-7 -8 -11 -21
t-6.5 -33.5t-3 -49.5t-0.5 -69q0 -80 3.5 -118.5t17.5 -54.5q16 -21 44 -21q26 0 42 16q20 20 20 60v237zM428 586h-55l23 144h66z" />
    <glyph glyph-name="Dcroat" unicode="&#x110;" horiz-adv-x="459" 
d="M412 356q0 -66 -1 -114.5t-6 -84.5t-15.5 -61.5t-28.5 -45.5q-20 -22 -49 -36t-73 -14h-164v323h-52v69h52v320h164q44 0 73 -14t49 -36q18 -20 28.5 -45.5t15.5 -61.5t6 -84.5t1 -114.5zM326 356q0 61 -1 103.5t-4 71t-8.5 46.5t-15.5 31q-9 12 -24.5 19.5t-36.5 7.5
h-75v-243h81v-69h-81v-246h75q21 0 36.5 7.5t24.5 19.5q10 13 15.5 31t8.5 46.5t4 71t1 103.5z" />
    <glyph glyph-name="dcroat" unicode="&#x111;" horiz-adv-x="408" 
d="M251 0v40q-4 -8 -14 -18t-17 -14q-27 -16 -56 -16q-53 0 -86 39q-25 29 -31.5 83t-6.5 145q0 90 6.5 145t31.5 84q16 19 36.5 28.5t49.5 9.5q30 0 56 -15q8 -5 15.5 -13t13.5 -16v100h-88v54h88v76h81v-76h53v-54h-53v-582h-79zM249 378q0 21 -5 35t-15 24q-16 16 -42 16
q-28 0 -44 -21q-7 -8 -11 -21t-6.5 -33.5t-3 -49.5t-0.5 -69q0 -80 3.5 -118.5t17.5 -54.5q16 -21 44 -21q26 0 42 16q20 20 20 60v237z" />
    <glyph glyph-name="Emacron" unicode="&#x112;" horiz-adv-x="380" 
d="M64 0v712h275v-77h-189v-239h163v-77h-163v-242h189v-77h-275zM92 780v58h228v-58h-228z" />
    <glyph glyph-name="emacron" unicode="&#x113;" horiz-adv-x="372" 
d="M122 240q0 -62 3.5 -99t17.5 -54q7 -10 18.5 -16t27.5 -6q14 0 25 4.5t21 15.5t13.5 26t3.5 34h81q-1 -36 -10.5 -64t-31.5 -51q-37 -38 -102 -38q-33 0 -58 9t-45 31q-29 31 -37.5 88.5t-8.5 138.5q0 82 8 139t37 88q20 22 45 31t57 9t57 -9t45 -31q29 -31 37.5 -90.5
t8.5 -155.5h-213zM253 301q0 57 -4 87t-16 44q-8 10 -18.5 15.5t-27.5 5.5t-27 -5.5t-18 -15.5q-12 -14 -16 -44t-4 -87h131zM73 608v57h229v-57h-229z" />
    <glyph glyph-name="Ebreve" unicode="&#x114;" horiz-adv-x="380" 
d="M64 0v712h275v-77h-189v-239h163v-77h-163v-242h189v-77h-275zM327 865q-4 -60 -37 -84.5t-84 -24.5t-84 24.5t-37 84.5h62q3 -28 18.5 -40.5t40.5 -12.5t40.5 12.5t18.5 40.5h62z" />
    <glyph glyph-name="ebreve" unicode="&#x115;" horiz-adv-x="372" 
d="M122 240q0 -62 3.5 -99t17.5 -54q7 -10 18.5 -16t27.5 -6q14 0 25 4.5t21 15.5t13.5 26t3.5 34h81q-1 -36 -10.5 -64t-31.5 -51q-37 -38 -102 -38q-33 0 -58 9t-45 31q-29 31 -37.5 88.5t-8.5 138.5q0 82 8 139t37 88q20 22 45 31t57 9t57 -9t45 -31q29 -31 37.5 -90.5
t8.5 -155.5h-213zM253 301q0 57 -4 87t-16 44q-8 10 -18.5 15.5t-27.5 5.5t-27 -5.5t-18 -15.5q-12 -14 -16 -44t-4 -87h131zM305 694q-4 -60 -35.5 -86t-82.5 -26q-50 0 -81.5 26t-35.5 86h58q4 -28 19.5 -40.5t39.5 -12.5q25 0 40.5 12.5t19.5 40.5h58z" />
    <glyph glyph-name="Edotaccent" unicode="&#x116;" horiz-adv-x="380" 
d="M64 0v712h275v-77h-189v-239h163v-77h-163v-242h189v-77h-275zM165 777v81h82v-81h-82z" />
    <glyph glyph-name="edotaccent" unicode="&#x117;" horiz-adv-x="372" 
d="M122 240q0 -62 3.5 -99t17.5 -54q7 -10 18.5 -16t27.5 -6q14 0 25 4.5t21 15.5t13.5 26t3.5 34h81q-1 -36 -10.5 -64t-31.5 -51q-37 -38 -102 -38q-33 0 -58 9t-45 31q-29 31 -37.5 88.5t-8.5 138.5q0 82 8 139t37 88q20 22 45 31t57 9t57 -9t45 -31q29 -31 37.5 -90.5
t8.5 -155.5h-213zM253 301q0 57 -4 87t-16 44q-8 10 -18.5 15.5t-27.5 5.5t-27 -5.5t-18 -15.5q-12 -14 -16 -44t-4 -87h131zM147 604v82h81v-82h-81z" />
    <glyph glyph-name="Eogonek" unicode="&#x118;" horiz-adv-x="380" 
d="M64 0v712h275v-77h-189v-239h163v-77h-163v-242h189v-77h-275zM277 -182h-64l57 144h57z" />
    <glyph glyph-name="eogonek" unicode="&#x119;" horiz-adv-x="372" 
d="M122 240q0 -62 3.5 -99t17.5 -54q7 -10 18.5 -16t27.5 -6q14 0 25 4.5t21 15.5t13.5 26t3.5 34h81q-1 -36 -10.5 -64t-31.5 -51q-37 -38 -102 -38q-33 0 -58 9t-45 31q-29 31 -37.5 88.5t-8.5 138.5q0 82 8 139t37 88q20 22 45 31t57 9t57 -9t45 -31q29 -31 37.5 -90.5
t8.5 -155.5h-213zM253 301q0 57 -4 87t-16 44q-8 10 -18.5 15.5t-27.5 5.5t-27 -5.5t-18 -15.5q-12 -14 -16 -44t-4 -87h131zM217 -182h-64l57 144h57z" />
    <glyph glyph-name="Ecaron" unicode="&#x11a;" horiz-adv-x="380" 
d="M64 0v712h275v-77h-189v-239h163v-77h-163v-242h189v-77h-275zM239 758h-66l-93 134h66l60 -87l60 87h66z" />
    <glyph glyph-name="ecaron" unicode="&#x11b;" horiz-adv-x="372" 
d="M122 240q0 -62 3.5 -99t17.5 -54q7 -10 18.5 -16t27.5 -6q14 0 25 4.5t21 15.5t13.5 26t3.5 34h81q-1 -36 -10.5 -64t-31.5 -51q-37 -38 -102 -38q-33 0 -58 9t-45 31q-29 31 -37.5 88.5t-8.5 138.5q0 82 8 139t37 88q20 22 45 31t57 9t57 -9t45 -31q29 -31 37.5 -90.5
t8.5 -155.5h-213zM253 301q0 57 -4 87t-16 44q-8 10 -18.5 15.5t-27.5 5.5t-27 -5.5t-18 -15.5q-12 -14 -16 -44t-4 -87h131zM221 582h-67l-93 135h67l59 -87l60 87h67z" />
    <glyph glyph-name="Gcircumflex" unicode="&#x11c;" horiz-adv-x="434" 
d="M386 171q-1 -89 -48 -134t-117 -45q-42 0 -72 14.5t-50 37.5q-17 19 -27.5 42.5t-16 58.5t-7 86t-1.5 125t1.5 124.5t7 86t16 59t27.5 42.5q20 23 50 37.5t72 14.5q38 0 66.5 -12t48.5 -32q25 -25 36.5 -61t12.5 -79h-85q0 18 -3.5 37t-12 34.5t-23.5 25.5t-40 10
q-21 0 -35.5 -7.5t-23.5 -19.5q-9 -13 -15 -31.5t-9 -48t-4 -73.5t-1 -107t1 -107t4 -73.5t9 -48t15 -31.5q9 -12 23.5 -19.5t35.5 -7.5q38 0 58.5 27.5t20.5 71.5v143h-79v71h165v-211zM281 762l-60 87l-60 -87h-66l93 135h66l93 -135h-66z" />
    <glyph glyph-name="gcircumflex" unicode="&#x11d;" horiz-adv-x="387" 
d="M330 -12q0 -58 -10 -90t-32 -55q-18 -19 -45 -29.5t-57 -10.5t-57 9t-47 28q-22 22 -30.5 50t-8.5 62h81q0 -19 3 -34.5t14 -27.5q17 -17 44 -17q14 0 25 5.5t19 13.5q11 12 15.5 33.5t4.5 57.5v79q-6 -8 -13.5 -16t-15.5 -13q-22 -16 -54 -16q-53 0 -85 38
q-12 14 -20 32.5t-12.5 44t-6.5 60t-2 80.5t2 80t6.5 60t12.5 44.5t20 32.5q33 37 85 37q33 0 56 -16q17 -11 29 -28v36h79v-530zM249 378q0 21 -5 35t-15 24q-16 16 -42 16q-28 0 -44 -21q-7 -8 -11 -20.5t-6.5 -31t-3 -45.5t-0.5 -64q0 -74 3.5 -109.5t17.5 -52.5
q8 -9 19 -15t25 -6q25 0 42 17q10 10 15 24t5 35v214zM247 586l-60 87l-59 -87h-67l93 135h67l93 -135h-67z" />
    <glyph glyph-name="Gbreve" unicode="&#x11e;" horiz-adv-x="434" 
d="M386 171q-1 -89 -48 -134t-117 -45q-42 0 -72 14.5t-50 37.5q-17 19 -27.5 42.5t-16 58.5t-7 86t-1.5 125t1.5 124.5t7 86t16 59t27.5 42.5q20 23 50 37.5t72 14.5q38 0 66.5 -12t48.5 -32q25 -25 36.5 -61t12.5 -79h-85q0 18 -3.5 37t-12 34.5t-23.5 25.5t-40 10
q-21 0 -35.5 -7.5t-23.5 -19.5q-9 -13 -15 -31.5t-9 -48t-4 -73.5t-1 -107t1 -107t4 -73.5t9 -48t15 -31.5q9 -12 23.5 -19.5t35.5 -7.5q38 0 58.5 27.5t20.5 71.5v143h-79v71h165v-211zM339 866q-4 -59 -36 -85t-82 -26t-82 26t-36 85h59q3 -27 19 -39.5t40 -12.5t40 12.5
t19 39.5h59z" />
    <glyph glyph-name="gbreve" unicode="&#x11f;" horiz-adv-x="387" 
d="M330 -12q0 -58 -10 -90t-32 -55q-18 -19 -45 -29.5t-57 -10.5t-57 9t-47 28q-22 22 -30.5 50t-8.5 62h81q0 -19 3 -34.5t14 -27.5q17 -17 44 -17q14 0 25 5.5t19 13.5q11 12 15.5 33.5t4.5 57.5v79q-6 -8 -13.5 -16t-15.5 -13q-22 -16 -54 -16q-53 0 -85 38
q-12 14 -20 32.5t-12.5 44t-6.5 60t-2 80.5t2 80t6.5 60t12.5 44.5t20 32.5q33 37 85 37q33 0 56 -16q17 -11 29 -28v36h79v-530zM249 378q0 21 -5 35t-15 24q-16 16 -42 16q-28 0 -44 -21q-7 -8 -11 -20.5t-6.5 -31t-3 -45.5t-0.5 -64q0 -74 3.5 -109.5t17.5 -52.5
q8 -9 19 -15t25 -6q25 0 42 17q10 10 15 24t5 35v214zM305 694q-4 -60 -35.5 -86t-82.5 -26q-50 0 -81.5 26t-35.5 86h58q4 -28 19.5 -40.5t39.5 -12.5q25 0 40.5 12.5t19.5 40.5h58z" />
    <glyph glyph-name="Gdotaccent" unicode="&#x120;" horiz-adv-x="434" 
d="M386 171q-1 -89 -48 -134t-117 -45q-42 0 -72 14.5t-50 37.5q-17 19 -27.5 42.5t-16 58.5t-7 86t-1.5 125t1.5 124.5t7 86t16 59t27.5 42.5q20 23 50 37.5t72 14.5q38 0 66.5 -12t48.5 -32q25 -25 36.5 -61t12.5 -79h-85q0 18 -3.5 37t-12 34.5t-23.5 25.5t-40 10
q-21 0 -35.5 -7.5t-23.5 -19.5q-9 -13 -15 -31.5t-9 -48t-4 -73.5t-1 -107t1 -107t4 -73.5t9 -48t15 -31.5q9 -12 23.5 -19.5t35.5 -7.5q38 0 58.5 27.5t20.5 71.5v143h-79v71h165v-211zM180 777v81h82v-81h-82z" />
    <glyph glyph-name="gdotaccent" unicode="&#x121;" horiz-adv-x="387" 
d="M330 -12q0 -58 -10 -90t-32 -55q-18 -19 -45 -29.5t-57 -10.5t-57 9t-47 28q-22 22 -30.5 50t-8.5 62h81q0 -19 3 -34.5t14 -27.5q17 -17 44 -17q14 0 25 5.5t19 13.5q11 12 15.5 33.5t4.5 57.5v79q-6 -8 -13.5 -16t-15.5 -13q-22 -16 -54 -16q-53 0 -85 38
q-12 14 -20 32.5t-12.5 44t-6.5 60t-2 80.5t2 80t6.5 60t12.5 44.5t20 32.5q33 37 85 37q33 0 56 -16q17 -11 29 -28v36h79v-530zM249 378q0 21 -5 35t-15 24q-16 16 -42 16q-28 0 -44 -21q-7 -8 -11 -20.5t-6.5 -31t-3 -45.5t-0.5 -64q0 -74 3.5 -109.5t17.5 -52.5
q8 -9 19 -15t25 -6q25 0 42 17q10 10 15 24t5 35v214zM147 604v82h81v-82h-81z" />
    <glyph glyph-name="Gcommaaccent" unicode="&#x122;" horiz-adv-x="434" 
d="M386 171q-1 -89 -48 -134t-117 -45q-42 0 -72 14.5t-50 37.5q-17 19 -27.5 42.5t-16 58.5t-7 86t-1.5 125t1.5 124.5t7 86t16 59t27.5 42.5q20 23 50 37.5t72 14.5q38 0 66.5 -12t48.5 -32q25 -25 36.5 -61t12.5 -79h-85q0 18 -3.5 37t-12 34.5t-23.5 25.5t-40 10
q-21 0 -35.5 -7.5t-23.5 -19.5q-9 -13 -15 -31.5t-9 -48t-4 -73.5t-1 -107t1 -107t4 -73.5t9 -48t15 -31.5q9 -12 23.5 -19.5t35.5 -7.5q38 0 58.5 27.5t20.5 71.5v143h-79v71h165v-211zM201 -182h-64l57 144h57z" />
    <glyph glyph-name="gcommaaccent" unicode="&#x123;" horiz-adv-x="387" 
d="M330 -12q0 -58 -10 -90t-32 -55q-18 -19 -45 -29.5t-57 -10.5t-57 9t-47 28q-22 22 -30.5 50t-8.5 62h81q0 -19 3 -34.5t14 -27.5q17 -17 44 -17q14 0 25 5.5t19 13.5q11 12 15.5 33.5t4.5 57.5v79q-6 -8 -13.5 -16t-15.5 -13q-22 -16 -54 -16q-53 0 -85 38
q-12 14 -20 32.5t-12.5 44t-6.5 60t-2 80.5t2 80t6.5 60t12.5 44.5t20 32.5q33 37 85 37q33 0 56 -16q17 -11 29 -28v36h79v-530zM249 378q0 21 -5 35t-15 24q-16 16 -42 16q-28 0 -44 -21q-7 -8 -11 -20.5t-6.5 -31t-3 -45.5t-0.5 -64q0 -74 3.5 -109.5t17.5 -52.5
q8 -9 19 -15t25 -6q25 0 42 17q10 10 15 24t5 35v214zM210 730h65l-57 -144h-57z" />
    <glyph glyph-name="Hcircumflex" unicode="&#x124;" horiz-adv-x="458" 
d="M308 0v324h-158v-324h-86v712h86v-311h158v311h86v-712h-86zM289 762l-60 87l-60 -87h-66l93 135h66l93 -135h-66z" />
    <glyph glyph-name="hcircumflex" unicode="&#x125;" horiz-adv-x="395" 
d="M261 0v381q0 36 -18 54t-44 18t-43.5 -18t-17.5 -54v-381h-81v712h81v-231q5 8 13 16t16 13q26 16 56 16q29 0 50 -9.5t38 -28.5q16 -17 23.5 -41t7.5 -66v-381h-81zM160 761l-60 87l-59 -87h-67l93 135h67l93 -135h-67z" />
    <glyph glyph-name="Hbar" unicode="&#x126;" horiz-adv-x="480" 
d="M405 519v-519h-86v323h-158v-323h-86v519h-50v68h50v125h86v-125h158v125h86v-125h50v-68h-50zM319 519h-158v-118h158v118z" />
    <glyph glyph-name="hbar" unicode="&#x127;" horiz-adv-x="419" 
d="M284 0v381q0 36 -18 54t-44 18t-43.5 -18t-17.5 -54v-381h-81v582h-55v54h55v76h81v-76h86v-54h-86v-101q5 8 13 16t16 13q26 16 58 16q27 0 48 -9.5t38 -28.5q16 -17 23.5 -41t7.5 -66v-381h-81z" />
    <glyph glyph-name="Itilde" unicode="&#x128;" horiz-adv-x="215" 
d="M64 0v712h86v-712h-86zM240 814q-17 -17 -36 -29.5t-44 -12.5q-20 0 -33 5t-24 11t-21 11t-23 5q-14 0 -24.5 -7t-20.5 -16l-36 37q21 22 39 32.5t40 10.5q20 0 32.5 -5t23 -11.5t20.5 -11.5t25 -5t25 7t19 16z" />
    <glyph glyph-name="itilde" unicode="&#x129;" horiz-adv-x="195" 
d="M57 0v518h81v-518h-81zM232 638q-26 -25 -44 -33.5t-36 -8.5q-17 0 -30 4.5t-28 12.5q-11 7 -21 11t-22 4q-10 0 -19 -3t-26 -20l-36 38q25 25 42.5 33.5t36.5 8.5q17 0 30 -4t28 -13q11 -7 21 -11t22 -4q9 0 18.5 3.5t25.5 19.5z" />
    <glyph glyph-name="Imacron" unicode="&#x12a;" horiz-adv-x="215" 
d="M64 0v712h86v-712h-86zM-5 780v58h228v-58h-228z" />
    <glyph glyph-name="imacron" unicode="&#x12b;" horiz-adv-x="195" 
d="M57 0v518h81v-518h-81zM-14 608v57h229v-57h-229z" />
    <glyph glyph-name="Ibreve" unicode="&#x12c;" horiz-adv-x="215" 
d="M64 0v712h86v-712h-86zM227 866q-4 -59 -36 -85t-82 -26t-82 26t-36 85h59q3 -27 19 -39.5t40 -12.5t40 12.5t19 39.5h59z" />
    <glyph glyph-name="ibreve" unicode="&#x12d;" horiz-adv-x="195" 
d="M57 0v518h81v-518h-81zM216 694q-4 -60 -35.5 -86t-82.5 -26q-50 0 -81.5 26t-35.5 86h58q4 -28 19.5 -40.5t39.5 -12.5q25 0 40.5 12.5t19.5 40.5h58z" />
    <glyph glyph-name="Iogonek" unicode="&#x12e;" horiz-adv-x="215" 
d="M64 0v712h86v-712h-86zM94 -182h-64l57 144h57z" />
    <glyph glyph-name="iogonek" unicode="&#x12f;" horiz-adv-x="195" 
d="M57 0v518h81v-518h-81zM50 610v94h95v-94h-95zM84 -182h-64l57 144h57z" />
    <glyph glyph-name="Idotaccent" unicode="&#x130;" horiz-adv-x="215" 
d="M64 0v712h86v-712h-86zM68 777v81h82v-81h-82z" />
    <glyph glyph-name="dotlessi" unicode="&#x131;" horiz-adv-x="195" 
d="M57 0v518h81v-518h-81z" />
    <glyph glyph-name="IJ" unicode="&#x132;" horiz-adv-x="576" 
d="M64 0v712h86v-712h-86zM518 170q0 -41 -11 -74t-34 -56q-47 -48 -126 -48q-40 0 -72 14t-55 40l61 57q11 -14 28.5 -24t37.5 -10q36 0 60.5 25.5t24.5 75.5v542h86v-542z" />
    <glyph glyph-name="ij" unicode="&#x133;" horiz-adv-x="390" 
d="M57 0v518h81v-518h-81zM50 610v94h95v-94h-95zM333 -46q0 -43 -12.5 -71t-33.5 -45q-23 -20 -51.5 -26t-61.5 -6v73q38 0 58 17t20 61v561h81v-564zM245 610v94h95v-94h-95z" />
    <glyph glyph-name="Jcircumflex" unicode="&#x134;" horiz-adv-x="361" 
d="M303 170q0 -41 -11 -74t-34 -56q-47 -48 -126 -48q-40 0 -72 14t-55 40l61 57q11 -14 28.5 -24t37.5 -10q36 0 60.5 25.5t24.5 75.5v542h86v-542zM320 762l-60 87l-60 -87h-66l93 135h66l93 -135h-66z" />
    <glyph glyph-name="jcircumflex" unicode="&#x135;" horiz-adv-x="195" 
d="M138 -46q0 -43 -12.5 -70.5t-33.5 -44.5q-23 -20 -51.5 -26.5t-61.5 -6.5v73q38 0 58 17t20 61v561h81v-564zM159 586l-60 87l-59 -87h-67l93 135h67l93 -135h-67z" />
    <glyph glyph-name="Kcommaaccent" unicode="&#x136;" horiz-adv-x="439" 
d="M338 0l-126 322l-62 -123v-199h-86v712h86v-361l172 361h88l-144 -294l165 -418h-93zM215 -182h-64l57 144h57z" />
    <glyph glyph-name="kcommaaccent" unicode="&#x137;" horiz-adv-x="395" 
d="M293 0l-99 244l-56 -89v-155h-81v712h81v-440l147 246h86l-126 -202l138 -316h-90zM192 -182h-64l57 144h57z" />
    <glyph glyph-name="kgreenlandic" unicode="&#x138;" horiz-adv-x="395" 
d="M293 0l-99 244l-56 -89v-155h-81v518h81v-246l147 246h86l-126 -202l138 -316h-90z" />
    <glyph glyph-name="Lacute" unicode="&#x139;" horiz-adv-x="361" 
d="M64 0v712h86v-635h189v-77h-275zM134 762h-62l69 135h74z" />
    <glyph glyph-name="lacute" unicode="&#x13a;" horiz-adv-x="228" 
d="M211 0q-33 0 -61 6t-51 26q-21 17 -33.5 45t-12.5 71v564h81v-561q0 -78 77 -78v-73zM116 760h-61l68 135h74z" />
    <glyph glyph-name="Lcommaaccent" unicode="&#x13b;" horiz-adv-x="361" 
d="M64 0v712h86v-635h189v-77h-275zM191 -182h-64l57 144h57z" />
    <glyph glyph-name="lcommaaccent" unicode="&#x13c;" horiz-adv-x="228" 
d="M211 0q-33 0 -61 6t-51 26q-21 17 -33.5 45t-12.5 71v564h81v-561q0 -78 77 -78v-73zM123 -182h-64l57 144h57z" />
    <glyph glyph-name="Lcaron" unicode="&#x13d;" horiz-adv-x="361" 
d="M64 0v712h86v-635h189v-77h-275zM268 569h-55l23 144h66z" />
    <glyph glyph-name="lcaron" unicode="&#x13e;" horiz-adv-x="228" 
d="M211 0q-33 0 -61 6t-51 26q-21 17 -33.5 45t-12.5 71v564h81v-561q0 -78 77 -78v-73zM233 586h-55l23 144h66z" />
    <glyph glyph-name="Ldot" unicode="&#x13f;" horiz-adv-x="361" 
d="M64 0v712h86v-635h189v-77h-275zM247 317v82h81v-82h-81z" />
    <glyph glyph-name="ldot" unicode="&#x140;" horiz-adv-x="245" 
d="M216 0q-33 0 -61 6t-51 26q-21 17 -33.5 45t-12.5 71v564h81v-561q0 -78 77 -78v-73zM178 263v82h81v-82h-81z" />
    <glyph glyph-name="Lslash" unicode="&#x141;" horiz-adv-x="370" 
d="M73 0v276l-48 -44v85l48 44v351h86v-280l94 84v-85l-94 -84v-270h188v-77h-274z" />
    <glyph glyph-name="lslash" unicode="&#x142;" horiz-adv-x="255" 
d="M235 0q-28 0 -53.5 5t-46.5 19q-11 8 -22 21q-11 12 -18 27.5t-11 36.5q-4 19 -6 39t-2 43v117l-57 -55v81l57 56v322h81v-253l58 57v-82l-58 -56v-223q0 -37 16.5 -60t61.5 -23v-72z" />
    <glyph glyph-name="Nacute" unicode="&#x143;" horiz-adv-x="477" 
d="M334 0l-184 487v-487h-86v712h80l182 -487v487h86v-712h-78zM263 762h-62l69 135h74z" />
    <glyph glyph-name="nacute" unicode="&#x144;" horiz-adv-x="395" 
d="M261 0v381q0 35 -18 53t-44 18t-43.5 -18t-17.5 -53v-381h-81v518h78v-40q5 9 14.5 18t17.5 14q26 16 56 16q29 0 50 -9.5t38 -28.5q16 -17 23.5 -41t7.5 -66v-381h-81zM226 586h-61l68 135h74z" />
    <glyph glyph-name="Ncommaaccent" unicode="&#x145;" horiz-adv-x="477" 
d="M334 0l-184 487v-487h-86v712h80l182 -487v487h86v-712h-78zM215 -182h-64l57 144h57z" />
    <glyph glyph-name="ncommaaccent" unicode="&#x146;" horiz-adv-x="395" 
d="M261 0v381q0 35 -18 53t-44 18t-43.5 -18t-17.5 -53v-381h-81v518h78v-40q5 9 14.5 18t17.5 14q26 16 56 16q29 0 50 -9.5t38 -28.5q16 -17 23.5 -41t7.5 -66v-381h-81zM183 -182h-64l57 144h57z" />
    <glyph glyph-name="Ncaron" unicode="&#x147;" horiz-adv-x="477" 
d="M334 0l-184 487v-487h-86v712h80l182 -487v487h86v-712h-78zM271 758h-66l-93 134h66l60 -87l60 87h66z" />
    <glyph glyph-name="ncaron" unicode="&#x148;" horiz-adv-x="395" 
d="M261 0v381q0 35 -18 53t-44 18t-43.5 -18t-17.5 -53v-381h-81v518h78v-40q5 9 14.5 18t17.5 14q26 16 56 16q29 0 50 -9.5t38 -28.5q16 -17 23.5 -41t7.5 -66v-381h-81zM234 582h-67l-93 135h67l59 -87l60 87h67z" />
    <glyph glyph-name="napostrophe" unicode="&#x149;" horiz-adv-x="415" 
d="M281 0v381q0 35 -18 53t-44 18t-43.5 -18t-17.5 -53v-381h-81v518h78v-40q5 9 14.5 18t17.5 14q26 16 56 16q29 0 50 -9.5t38 -28.5q16 -17 23.5 -41t7.5 -66v-381h-81zM1 558v173h66v-124z" />
    <glyph glyph-name="Eng" unicode="&#x14a;" horiz-adv-x="477" 
d="M412 -34q0 -43 -12.5 -70.5t-33.5 -44.5q-23 -20 -51.5 -26.5t-61.5 -6.5v73q41 0 61 17t20 61v31l-184 487v-487h-86v712h80l182 -487v487h86v-746z" />
    <glyph glyph-name="eng" unicode="&#x14b;" horiz-adv-x="395" 
d="M342 -34q0 -43 -12.5 -70.5t-33.5 -44.5q-23 -20 -51.5 -26.5t-61.5 -6.5v73q38 0 58 17t20 61v412q0 36 -18 54t-44 18t-43.5 -18t-17.5 -54v-381h-81v518h78v-40q5 9 14.5 18t17.5 14q26 16 56 16q29 0 50 -9.5t38 -28.5q16 -17 23.5 -41t7.5 -66v-415z" />
    <glyph glyph-name="Omacron" unicode="&#x14c;" horiz-adv-x="442" 
d="M395 356q0 -74 -1.5 -125t-7 -86t-16 -58.5t-27.5 -42.5q-21 -23 -50.5 -37.5t-71.5 -14.5t-71.5 14.5t-50.5 37.5q-17 19 -27.5 42.5t-16 58.5t-7 86t-1.5 125t1.5 124.5t7 86t16 59t27.5 42.5q21 23 50.5 37.5t71.5 14.5t71.5 -14.5t50.5 -37.5q17 -19 27.5 -42.5
t16 -59t7 -86t1.5 -124.5zM309 356q0 63 -1 107t-4.5 73.5t-9.5 48t-15 31.5q-9 12 -23 19.5t-35 7.5t-35.5 -7.5t-23.5 -19.5q-9 -13 -15 -31.5t-9 -48t-4 -73.5t-1 -107t1 -107t4 -73.5t9 -48t15 -31.5q9 -12 23.5 -19.5t35.5 -7.5t35 7.5t23 19.5q9 13 15 31.5t9.5 48
t4.5 73.5t1 107zM107 780v58h228v-58h-228z" />
    <glyph glyph-name="omacron" unicode="&#x14d;" horiz-adv-x="376" 
d="M335 259q0 -79 -6.5 -133.5t-30.5 -85.5q-20 -26 -47.5 -37t-62.5 -11t-62 11t-47 37q-24 31 -31 85.5t-7 133.5t7 133.5t31 85.5q20 26 47 37t62 11t62.5 -11t47.5 -37q24 -31 30.5 -85.5t6.5 -133.5zM254 259q0 70 -3 111t-17 61q-16 22 -46 22q-29 0 -45 -22
q-14 -20 -17.5 -61t-3.5 -111t3.5 -111t17.5 -61q16 -22 45 -22q30 0 46 22q14 20 17 61t3 111zM74 608v57h229v-57h-229z" />
    <glyph glyph-name="Obreve" unicode="&#x14e;" horiz-adv-x="442" 
d="M395 356q0 -74 -1.5 -125t-7 -86t-16 -58.5t-27.5 -42.5q-21 -23 -50.5 -37.5t-71.5 -14.5t-71.5 14.5t-50.5 37.5q-17 19 -27.5 42.5t-16 58.5t-7 86t-1.5 125t1.5 124.5t7 86t16 59t27.5 42.5q21 23 50.5 37.5t71.5 14.5t71.5 -14.5t50.5 -37.5q17 -19 27.5 -42.5
t16 -59t7 -86t1.5 -124.5zM309 356q0 63 -1 107t-4.5 73.5t-9.5 48t-15 31.5q-9 12 -23 19.5t-35 7.5t-35.5 -7.5t-23.5 -19.5q-9 -13 -15 -31.5t-9 -48t-4 -73.5t-1 -107t1 -107t4 -73.5t9 -48t15 -31.5q9 -12 23.5 -19.5t35.5 -7.5t35 7.5t23 19.5q9 13 15 31.5t9.5 48
t4.5 73.5t1 107zM339 870q-4 -59 -36 -85t-82 -26t-82 26t-36 85h59q3 -27 19 -39.5t40 -12.5t40 12.5t19 39.5h59z" />
    <glyph glyph-name="obreve" unicode="&#x14f;" horiz-adv-x="376" 
d="M335 259q0 -79 -6.5 -133.5t-30.5 -85.5q-20 -26 -47.5 -37t-62.5 -11t-62 11t-47 37q-24 31 -31 85.5t-7 133.5t7 133.5t31 85.5q20 26 47 37t62 11t62.5 -11t47.5 -37q24 -31 30.5 -85.5t6.5 -133.5zM254 259q0 70 -3 111t-17 61q-16 22 -46 22q-29 0 -45 -22
q-14 -20 -17.5 -61t-3.5 -111t3.5 -111t17.5 -61q16 -22 45 -22q30 0 46 22q14 20 17 61t3 111zM306 694q-4 -60 -35.5 -86t-82.5 -26q-50 0 -81.5 26t-35.5 86h58q4 -28 19.5 -40.5t39.5 -12.5q25 0 40.5 12.5t19.5 40.5h58z" />
    <glyph glyph-name="Ohungarumlaut" unicode="&#x150;" horiz-adv-x="442" 
d="M395 356q0 -74 -1.5 -125t-7 -86t-16 -58.5t-27.5 -42.5q-21 -23 -50.5 -37.5t-71.5 -14.5t-71.5 14.5t-50.5 37.5q-17 19 -27.5 42.5t-16 58.5t-7 86t-1.5 125t1.5 124.5t7 86t16 59t27.5 42.5q21 23 50.5 37.5t71.5 14.5t71.5 -14.5t50.5 -37.5q17 -19 27.5 -42.5
t16 -59t7 -86t1.5 -124.5zM309 356q0 63 -1 107t-4.5 73.5t-9.5 48t-15 31.5q-9 12 -23 19.5t-35 7.5t-35.5 -7.5t-23.5 -19.5q-9 -13 -15 -31.5t-9 -48t-4 -73.5t-1 -107t1 -107t4 -73.5t9 -48t15 -31.5q9 -12 23.5 -19.5t35.5 -7.5t35 7.5t23 19.5q9 13 15 31.5t9.5 48
t4.5 73.5t1 107zM180 762h-59l53 135h74zM317 762h-58l52 135h74z" />
    <glyph glyph-name="ohungarumlaut" unicode="&#x151;" horiz-adv-x="376" 
d="M335 259q0 -79 -6.5 -133.5t-30.5 -85.5q-20 -26 -47.5 -37t-62.5 -11t-62 11t-47 37q-24 31 -31 85.5t-7 133.5t7 133.5t31 85.5q20 26 47 37t62 11t62.5 -11t47.5 -37q24 -31 30.5 -85.5t6.5 -133.5zM254 259q0 70 -3 111t-17 61q-16 22 -46 22q-29 0 -45 -22
q-14 -20 -17.5 -61t-3.5 -111t3.5 -111t17.5 -61q16 -22 45 -22q30 0 46 22q14 20 17 61t3 111zM147 586h-59l53 135h74zM284 586h-58l52 135h74z" />
    <glyph glyph-name="OE" unicode="&#x152;" horiz-adv-x="622" 
d="M313 0v33q-16 -20 -41 -30.5t-55 -10.5q-40 0 -69.5 14t-48.5 37q-17 20 -27 46.5t-15.5 63.5t-7.5 86.5t-2 116.5t1.5 117t7 87t16 63t27.5 46q20 23 49 37t69 14q30 0 56 -11t40 -30v33h267v-77h-188v-239h162v-77h-162v-242h188v-77h-267zM309 356q0 63 -1 107
t-4 73.5t-9 48t-16 31.5q-8 12 -23 19.5t-35 7.5q-21 0 -35.5 -7.5t-22.5 -19.5q-10 -13 -16 -31.5t-9 -48t-4 -73.5t-1 -107t1 -107t4 -73.5t9 -48t16 -31.5q8 -12 22.5 -19.5t35.5 -7.5q20 0 35 7.5t23 19.5q10 13 16 31.5t9 48t4 73.5t1 107z" />
    <glyph glyph-name="oe" unicode="&#x153;" horiz-adv-x="586" 
d="M335 240q0 -62 3.5 -99t17.5 -54q7 -10 18.5 -16t27.5 -6q29 0 46 20q10 11 13.5 26t3.5 34h81q-1 -36 -10.5 -64t-31.5 -51q-37 -38 -102 -38q-28 0 -50.5 9t-38.5 23q-11 11 -18 25q-7 -15 -18 -25q-17 -14 -39.5 -23t-50.5 -9q-35 0 -62 11t-47 37q-24 31 -31 86
t-7 133q0 79 7 133.5t31 85.5q20 26 47 37t62 11q56 0 91 -33q5 -5 9 -10.5t8 -12.5q6 14 18 24q38 32 88 32q31 0 56 -9t45 -31q29 -31 37.5 -90.5t8.5 -155.5h-213zM466 301q0 57 -4 87t-16 44q-8 10 -18.5 15.5t-27.5 5.5t-27 -5.5t-18 -15.5q-12 -14 -16 -44t-4 -87h131
zM254 259q0 70 -3 111t-17 61q-16 22 -46 22q-29 0 -45 -22q-14 -20 -17.5 -61t-3.5 -111t3.5 -111t17.5 -61q16 -22 45 -22q30 0 46 22q14 20 17 61t3 111z" />
    <glyph glyph-name="Racute" unicode="&#x154;" horiz-adv-x="455" 
d="M325 0l-98 306h-77v-306h-86v712h161q40 0 71.5 -10t53 -33t32.5 -62.5t11 -97.5q0 -75 -19.5 -119.5t-66.5 -66.5l109 -323h-91zM307 509q0 28 -3.5 51.5t-12.5 40t-24.5 25.5t-40.5 9h-76v-253h76q25 0 40.5 9t24.5 26t12.5 40t3.5 52zM242 762h-62l69 135h74z" />
    <glyph glyph-name="racute" unicode="&#x155;" horiz-adv-x="272" 
d="M232 448q-42 0 -68 -25t-26 -70v-353h-81v518h78v-55q6 11 16 20.5t20 16.5q37 26 85 26v-78h-24zM168 586h-61l68 135h74z" />
    <glyph glyph-name="Rcommaaccent" unicode="&#x156;" horiz-adv-x="455" 
d="M325 0l-98 306h-77v-306h-86v712h161q40 0 71.5 -10t53 -33t32.5 -62.5t11 -97.5q0 -75 -19.5 -119.5t-66.5 -66.5l109 -323h-91zM307 509q0 28 -3.5 51.5t-12.5 40t-24.5 25.5t-40.5 9h-76v-253h76q25 0 40.5 9t24.5 26t12.5 40t3.5 52zM213 -182h-64l57 144h57z" />
    <glyph glyph-name="rcommaaccent" unicode="&#x157;" horiz-adv-x="272" 
d="M232 448q-42 0 -68 -25t-26 -70v-353h-81v518h78v-55q6 11 16 20.5t20 16.5q37 26 85 26v-78h-24zM84 -182h-64l57 144h57z" />
    <glyph glyph-name="Rcaron" unicode="&#x158;" horiz-adv-x="455" 
d="M325 0l-98 306h-77v-306h-86v712h161q40 0 71.5 -10t53 -33t32.5 -62.5t11 -97.5q0 -75 -19.5 -119.5t-66.5 -66.5l109 -323h-91zM307 509q0 28 -3.5 51.5t-12.5 40t-24.5 25.5t-40.5 9h-76v-253h76q25 0 40.5 9t24.5 26t12.5 40t3.5 52zM250 758h-66l-93 134h66l60 -87
l60 87h66z" />
    <glyph glyph-name="rcaron" unicode="&#x159;" horiz-adv-x="272" 
d="M232 448q-42 0 -68 -25t-26 -70v-353h-81v518h78v-55q6 11 16 20.5t20 16.5q37 26 85 26v-78h-24zM177 582h-67l-93 135h67l59 -87l60 87h67z" />
    <glyph glyph-name="Sacute" unicode="&#x15a;" horiz-adv-x="420" 
d="M377 191q0 -56 -9 -92.5t-35 -62.5q-20 -20 -51.5 -31.5t-74.5 -11.5q-82 0 -125 43q-25 25 -34.5 59t-9.5 91h86q0 -35 5 -56.5t19 -36.5q9 -10 24 -16t35 -6q22 0 36.5 6t24.5 17q14 16 18.5 38t4.5 57q0 31 -3 52t-10.5 35.5t-21 24.5t-35.5 19l-81 33q-27 11 -46 25
t-30 34.5t-16 49t-5 69.5q0 47 13.5 84t40.5 62q44 41 113 41q39 0 68.5 -10.5t49.5 -30.5q27 -26 37 -61.5t10 -84.5h-86q0 29 -4 49t-18 37q-19 24 -58 24q-19 0 -32.5 -6t-22.5 -16q-25 -28 -25 -85q0 -26 2.5 -44t10 -31t21 -22t34.5 -18l80 -33q30 -12 49.5 -28.5
t31 -39.5t15.5 -54t4 -73zM240 762h-62l69 135h74z" />
    <glyph glyph-name="sacute" unicode="&#x15b;" horiz-adv-x="359" 
d="M328 141q0 -35 -12 -61.5t-32 -46.5q-21 -22 -47.5 -31.5t-58.5 -9.5t-58.5 10t-45.5 30q-44 45 -44 114h80q0 -40 22 -63q9 -9 21.5 -13.5t24.5 -4.5q30 0 49 19q20 20 20 52q0 27 -13 47q-8 11 -19 20t-27 17l-67 34q-50 25 -71 60q-16 28 -16 68q0 34 11.5 59.5
t31.5 45.5t46 29.5t56 9.5q64 0 101 -37q42 -40 42 -114h-80q0 23 -4.5 37t-14.5 25q-9 10 -20.5 14t-23.5 4q-28 0 -45 -17q-19 -19 -19 -50q0 -22 9 -38q11 -19 43 -34l66 -33q52 -25 73 -59q22 -33 22 -83zM209 586h-61l68 135h74z" />
    <glyph glyph-name="Scircumflex" unicode="&#x15c;" horiz-adv-x="420" 
d="M377 191q0 -56 -9 -92.5t-35 -62.5q-20 -20 -51.5 -31.5t-74.5 -11.5q-82 0 -125 43q-25 25 -34.5 59t-9.5 91h86q0 -35 5 -56.5t19 -36.5q9 -10 24 -16t35 -6q22 0 36.5 6t24.5 17q14 16 18.5 38t4.5 57q0 31 -3 52t-10.5 35.5t-21 24.5t-35.5 19l-81 33q-27 11 -46 25
t-30 34.5t-16 49t-5 69.5q0 47 13.5 84t40.5 62q44 41 113 41q39 0 68.5 -10.5t49.5 -30.5q27 -26 37 -61.5t10 -84.5h-86q0 29 -4 49t-18 37q-19 24 -58 24q-19 0 -32.5 -6t-22.5 -16q-25 -28 -25 -85q0 -26 2.5 -44t10 -31t21 -22t34.5 -18l80 -33q30 -12 49.5 -28.5
t31 -39.5t15.5 -54t4 -73zM276 762l-60 87l-60 -87h-66l93 135h66l93 -135h-66z" />
    <glyph glyph-name="scircumflex" unicode="&#x15d;" horiz-adv-x="359" 
d="M328 141q0 -35 -12 -61.5t-32 -46.5q-21 -22 -47.5 -31.5t-58.5 -9.5t-58.5 10t-45.5 30q-44 45 -44 114h80q0 -40 22 -63q9 -9 21.5 -13.5t24.5 -4.5q30 0 49 19q20 20 20 52q0 27 -13 47q-8 11 -19 20t-27 17l-67 34q-50 25 -71 60q-16 28 -16 68q0 34 11.5 59.5
t31.5 45.5t46 29.5t56 9.5q64 0 101 -37q42 -40 42 -114h-80q0 23 -4.5 37t-14.5 25q-9 10 -20.5 14t-23.5 4q-28 0 -45 -17q-19 -19 -19 -50q0 -22 9 -38q11 -19 43 -34l66 -33q52 -25 73 -59q22 -33 22 -83zM244 586l-60 87l-59 -87h-67l93 135h67l93 -135h-67z" />
    <glyph glyph-name="Scedilla" unicode="&#x15e;" horiz-adv-x="420" 
d="M377 191q0 -56 -9 -92.5t-35 -62.5q-20 -20 -51.5 -31.5t-74.5 -11.5q-82 0 -125 43q-25 25 -34.5 59t-9.5 91h86q0 -35 5 -56.5t19 -36.5q9 -10 24 -16t35 -6q22 0 36.5 6t24.5 17q14 16 18.5 38t4.5 57q0 31 -3 52t-10.5 35.5t-21 24.5t-35.5 19l-81 33q-27 11 -46 25
t-30 34.5t-16 49t-5 69.5q0 47 13.5 84t40.5 62q44 41 113 41q39 0 68.5 -10.5t49.5 -30.5q27 -26 37 -61.5t10 -84.5h-86q0 29 -4 49t-18 37q-19 24 -58 24q-19 0 -32.5 -6t-22.5 -16q-25 -28 -25 -85q0 -26 2.5 -44t10 -31t21 -22t34.5 -18l80 -33q30 -12 49.5 -28.5
t31 -39.5t15.5 -54t4 -73zM185 -182h-64l57 144h57z" />
    <glyph glyph-name="scedilla" unicode="&#x15f;" horiz-adv-x="359" 
d="M328 141q0 -35 -12 -61.5t-32 -46.5q-21 -22 -47.5 -31.5t-58.5 -9.5t-58.5 10t-45.5 30q-44 45 -44 114h80q0 -40 22 -63q9 -9 21.5 -13.5t24.5 -4.5q30 0 49 19q20 20 20 52q0 27 -13 47q-8 11 -19 20t-27 17l-67 34q-50 25 -71 60q-16 28 -16 68q0 34 11.5 59.5
t31.5 45.5t46 29.5t56 9.5q64 0 101 -37q42 -40 42 -114h-80q0 23 -4.5 37t-14.5 25q-9 10 -20.5 14t-23.5 4q-28 0 -45 -17q-19 -19 -19 -50q0 -22 9 -38q11 -19 43 -34l66 -33q52 -25 73 -59q22 -33 22 -83zM158 -182h-64l57 144h57z" />
    <glyph glyph-name="Scaron" unicode="&#x160;" horiz-adv-x="420" 
d="M377 191q0 -56 -9 -92.5t-35 -62.5q-20 -20 -51.5 -31.5t-74.5 -11.5q-82 0 -125 43q-25 25 -34.5 59t-9.5 91h86q0 -35 5 -56.5t19 -36.5q9 -10 24 -16t35 -6q22 0 36.5 6t24.5 17q14 16 18.5 38t4.5 57q0 31 -3 52t-10.5 35.5t-21 24.5t-35.5 19l-81 33q-27 11 -46 25
t-30 34.5t-16 49t-5 69.5q0 47 13.5 84t40.5 62q44 41 113 41q39 0 68.5 -10.5t49.5 -30.5q27 -26 37 -61.5t10 -84.5h-86q0 29 -4 49t-18 37q-19 24 -58 24q-19 0 -32.5 -6t-22.5 -16q-25 -28 -25 -85q0 -26 2.5 -44t10 -31t21 -22t34.5 -18l80 -33q30 -12 49.5 -28.5
t31 -39.5t15.5 -54t4 -73zM252 758h-66l-93 134h66l60 -87l60 87h66z" />
    <glyph glyph-name="scaron" unicode="&#x161;" horiz-adv-x="359" 
d="M328 141q0 -35 -12 -61.5t-32 -46.5q-21 -22 -47.5 -31.5t-58.5 -9.5t-58.5 10t-45.5 30q-44 45 -44 114h80q0 -40 22 -63q9 -9 21.5 -13.5t24.5 -4.5q30 0 49 19q20 20 20 52q0 27 -13 47q-8 11 -19 20t-27 17l-67 34q-50 25 -71 60q-16 28 -16 68q0 34 11.5 59.5
t31.5 45.5t46 29.5t56 9.5q64 0 101 -37q42 -40 42 -114h-80q0 23 -4.5 37t-14.5 25q-9 10 -20.5 14t-23.5 4q-28 0 -45 -17q-19 -19 -19 -50q0 -22 9 -38q11 -19 43 -34l66 -33q52 -25 73 -59q22 -33 22 -83zM218 582h-67l-93 135h67l59 -87l60 87h67z" />
    <glyph glyph-name="Tcommaaccent" unicode="&#x162;" horiz-adv-x="367" 
d="M227 635v-635h-86v635h-120v77h325v-77h-119zM163 -182h-64l57 144h57z" />
    <glyph glyph-name="tcommaaccent" unicode="&#x163;" horiz-adv-x="260" 
d="M240 0q-35 0 -64.5 5.5t-54.5 26.5q-45 37 -45 116v307h-59v63h59v142h81v-142h80v-63h-80v-304q0 -42 21 -60t62 -18v-73zM145 -182h-64l57 144h57z" />
    <glyph glyph-name="Tcaron" unicode="&#x164;" horiz-adv-x="367" 
d="M227 635v-635h-86v635h-120v77h325v-77h-119zM216 758h-66l-93 134h66l60 -87l60 87h66z" />
    <glyph glyph-name="tcaron" unicode="&#x165;" horiz-adv-x="260" 
d="M240 0q-35 0 -64.5 5.5t-54.5 26.5q-45 37 -45 116v307h-59v63h59v142h81v-142h80v-63h-80v-304q0 -42 21 -60t62 -18v-73zM253 586h-55l23 144h66z" />
    <glyph glyph-name="Tbar" unicode="&#x166;" horiz-adv-x="367" 
d="M227 323v-323h-86v323h-67v69h67v243h-120v77h325v-77h-119v-243h66v-69h-66z" />
    <glyph glyph-name="tbar" unicode="&#x167;" horiz-adv-x="260" 
d="M240 0q-35 0 -64.5 5.5t-54.5 26.5q-45 37 -45 116v124h-59v63h59v120h-59v63h59v142h81v-142h80v-63h-80v-120h80v-63h-80v-121q0 -42 21 -60t62 -18v-73z" />
    <glyph glyph-name="Utilde" unicode="&#x168;" horiz-adv-x="445" 
d="M387 162q0 -39 -12 -70t-34 -53q-23 -23 -53.5 -35t-65.5 -12q-71 0 -118 47q-22 22 -34 53t-12 70v550h86v-555q0 -42 23 -65t55 -23t55.5 23t23.5 65v555h86v-550zM354 814q-17 -17 -36 -29.5t-44 -12.5q-20 0 -33 5t-24 11t-21 11t-23 5q-14 0 -24.5 -7t-20.5 -16
l-36 37q21 22 39 32.5t40 10.5q20 0 32.5 -5t23 -11.5t20.5 -11.5t25 -5t25 7t19 16z" />
    <glyph glyph-name="utilde" unicode="&#x169;" horiz-adv-x="395" 
d="M260 0v40q-5 -9 -14.5 -18t-17.5 -14q-26 -16 -56 -16q-29 0 -50 9.5t-38 28.5q-16 17 -23.5 41t-7.5 66v381h81v-381q0 -36 18 -54t44 -18t43.5 18t17.5 54v381h81v-518h-78zM329 638q-26 -25 -44 -33.5t-36 -8.5q-17 0 -30 4.5t-28 12.5q-11 7 -21 11t-22 4
q-10 0 -19 -3t-26 -20l-36 38q25 25 42.5 33.5t36.5 8.5q17 0 30 -4t28 -13q11 -7 21 -11t22 -4q9 0 18.5 3.5t25.5 19.5z" />
    <glyph glyph-name="Umacron" unicode="&#x16a;" horiz-adv-x="445" 
d="M387 162q0 -39 -12 -70t-34 -53q-23 -23 -53.5 -35t-65.5 -12q-71 0 -118 47q-22 22 -34 53t-12 70v550h86v-555q0 -42 23 -65t55 -23t55.5 23t23.5 65v555h86v-550zM108 780v58h228v-58h-228z" />
    <glyph glyph-name="umacron" unicode="&#x16b;" horiz-adv-x="395" 
d="M260 0v40q-5 -9 -14.5 -18t-17.5 -14q-26 -16 -56 -16q-29 0 -50 9.5t-38 28.5q-16 17 -23.5 41t-7.5 66v381h81v-381q0 -36 18 -54t44 -18t43.5 18t17.5 54v381h81v-518h-78zM81 608v57h229v-57h-229z" />
    <glyph glyph-name="Ubreve" unicode="&#x16c;" horiz-adv-x="445" 
d="M387 162q0 -39 -12 -70t-34 -53q-23 -23 -53.5 -35t-65.5 -12q-71 0 -118 47q-22 22 -34 53t-12 70v550h86v-555q0 -42 23 -65t55 -23t55.5 23t23.5 65v555h86v-550zM340 866q-4 -59 -36 -85t-82 -26t-82 26t-36 85h59q3 -27 19 -39.5t40 -12.5t40 12.5t19 39.5h59z" />
    <glyph glyph-name="ubreve" unicode="&#x16d;" horiz-adv-x="395" 
d="M260 0v40q-5 -9 -14.5 -18t-17.5 -14q-26 -16 -56 -16q-29 0 -50 9.5t-38 28.5q-16 17 -23.5 41t-7.5 66v381h81v-381q0 -36 18 -54t44 -18t43.5 18t17.5 54v381h81v-518h-78zM313 694q-4 -60 -35.5 -86t-82.5 -26q-50 0 -81.5 26t-35.5 86h58q4 -28 19.5 -40.5
t39.5 -12.5q25 0 40.5 12.5t19.5 40.5h58z" />
    <glyph glyph-name="Uring" unicode="&#x16e;" horiz-adv-x="445" 
d="M387 162q0 -39 -12 -70t-34 -53q-23 -23 -53.5 -35t-65.5 -12q-71 0 -118 47q-22 22 -34 53t-12 70v550h86v-555q0 -42 23 -65t55 -23t55.5 23t23.5 65v555h86v-550zM320 850q0 -41 -28.5 -69.5t-69.5 -28.5t-69.5 28.5t-28.5 69.5t28.5 69.5t69.5 28.5t69.5 -28.5
t28.5 -69.5zM271 850q0 20 -14.5 34.5t-34.5 14.5t-34.5 -14.5t-14.5 -34.5t14.5 -34.5t34.5 -14.5t34.5 14.5t14.5 34.5z" />
    <glyph glyph-name="uring" unicode="&#x16f;" horiz-adv-x="395" 
d="M260 0v40q-5 -9 -14.5 -18t-17.5 -14q-26 -16 -56 -16q-29 0 -50 9.5t-38 28.5q-16 17 -23.5 41t-7.5 66v381h81v-381q0 -36 18 -54t44 -18t43.5 18t17.5 54v381h81v-518h-78zM293 681q0 -41 -28.5 -69.5t-69.5 -28.5q-20 0 -37.5 7.5t-31 21t-21 31.5t-7.5 38t7.5 38
t21 31.5t31 21t37.5 7.5q41 0 69.5 -28.5t28.5 -69.5zM245 681q0 20 -15 34.5t-35 14.5t-34.5 -14.5t-14.5 -34.5t14.5 -34.5t34.5 -14.5t35 14.5t15 34.5z" />
    <glyph glyph-name="Uhungarumlaut" unicode="&#x170;" horiz-adv-x="445" 
d="M387 162q0 -39 -12 -70t-34 -53q-23 -23 -53.5 -35t-65.5 -12q-71 0 -118 47q-22 22 -34 53t-12 70v550h86v-555q0 -42 23 -65t55 -23t55.5 23t23.5 65v555h86v-550zM181 762h-59l53 135h74zM318 762h-58l52 135h74z" />
    <glyph glyph-name="uhungarumlaut" unicode="&#x171;" horiz-adv-x="395" 
d="M260 0v40q-5 -9 -14.5 -18t-17.5 -14q-26 -16 -56 -16q-29 0 -50 9.5t-38 28.5q-16 17 -23.5 41t-7.5 66v381h81v-381q0 -36 18 -54t44 -18t43.5 18t17.5 54v381h81v-518h-78zM154 586h-59l53 135h74zM291 586h-58l52 135h74z" />
    <glyph glyph-name="Uogonek" unicode="&#x172;" horiz-adv-x="445" 
d="M387 162q0 -39 -12 -70t-34 -53q-23 -23 -53.5 -35t-65.5 -12q-71 0 -118 47q-22 22 -34 53t-12 70v550h86v-555q0 -42 23 -65t55 -23t55.5 23t23.5 65v555h86v-550zM276 -182h-64l57 144h57z" />
    <glyph glyph-name="uogonek" unicode="&#x173;" horiz-adv-x="395" 
d="M260 0v40q-5 -9 -14.5 -18t-17.5 -14q-26 -16 -56 -16q-29 0 -50 9.5t-38 28.5q-16 17 -23.5 41t-7.5 66v381h81v-381q0 -36 18 -54t44 -18t43.5 18t17.5 54v381h81v-518h-78zM282 -182h-64l57 144h57z" />
    <glyph glyph-name="Wcircumflex" unicode="&#x174;" horiz-adv-x="652" 
d="M526 0h-89l-111 573l-110 -573h-89l-123 712h95l73 -573l106 573h96l108 -573l72 573h94zM386 762l-60 87l-60 -87h-66l93 135h66l93 -135h-66z" />
    <glyph glyph-name="wcircumflex" unicode="&#x175;" horiz-adv-x="526" 
d="M413 0h-82l-70 379l-68 -379h-82l-107 518h92l59 -390l69 390h73l73 -390l60 390h92zM323 586l-60 87l-59 -87h-67l93 135h67l93 -135h-67z" />
    <glyph glyph-name="Ycircumflex" unicode="&#x176;" horiz-adv-x="353" 
d="M219 288v-288h-86v288l-131 424h94l80 -304l80 304h95zM237 762l-60 87l-60 -87h-66l93 135h66l93 -135h-66z" />
    <glyph glyph-name="ycircumflex" unicode="&#x177;" horiz-adv-x="345" 
d="M193 -83q-8 -35 -24 -56.5t-38 -33.5t-50 -16.5t-60 -4.5v72q38 0 61 12.5t32 47.5l16 63l-126 517h89l79 -389l78 389h89zM232 586l-60 87l-59 -87h-67l93 135h67l93 -135h-67z" />
    <glyph glyph-name="Ydieresis" unicode="&#x178;" horiz-adv-x="353" 
d="M219 288v-288h-86v288l-131 424h94l80 -304l80 304h95zM215 777v81h82v-81h-82zM59 777v81h82v-81h-82z" />
    <glyph glyph-name="Zacute" unicode="&#x179;" horiz-adv-x="349" 
d="M31 0v65l198 570h-185v77h274v-65l-197 -570h197v-77h-287zM207 762h-62l69 135h74z" />
    <glyph glyph-name="zacute" unicode="&#x17a;" horiz-adv-x="301" 
d="M24 0v62l163 384h-152v72h242v-62l-163 -383h163v-73h-253zM184 586h-61l68 135h74z" />
    <glyph glyph-name="Zdotaccent" unicode="&#x17b;" horiz-adv-x="349" 
d="M31 0v65l198 570h-185v77h274v-65l-197 -570h197v-77h-287zM141 777v81h82v-81h-82z" />
    <glyph glyph-name="zdotaccent" unicode="&#x17c;" horiz-adv-x="301" 
d="M24 0v62l163 384h-152v72h242v-62l-163 -383h163v-73h-253zM118 604v82h81v-82h-81z" />
    <glyph glyph-name="Zcaron" unicode="&#x17d;" horiz-adv-x="349" 
d="M31 0v65l198 570h-185v77h274v-65l-197 -570h197v-77h-287zM215 758h-66l-93 134h66l60 -87l60 87h66z" />
    <glyph glyph-name="zcaron" unicode="&#x17e;" horiz-adv-x="301" 
d="M24 0v62l163 384h-152v72h242v-62l-163 -383h163v-73h-253zM192 582h-67l-93 135h67l59 -87l60 87h67z" />
    <glyph glyph-name="longs" unicode="&#x17f;" horiz-adv-x="195" 
d="M138 0h-81v568q0 41 11.5 69t33.5 46q24 20 53.5 26.5t62.5 6.5v-73q-80 0 -80 -78v-565z" />
    <glyph glyph-name="uni018F" unicode="&#x18f;" horiz-adv-x="434" 
d="M47 382h253q0 55 -1.5 94t-5 66t-9 44.5t-14.5 29.5t-23 19.5t-35 7.5q-25 0 -40 -10t-23.5 -25.5t-12 -35t-3.5 -37.5h-86q2 44 13.5 80t36.5 61q20 20 48.5 32t66.5 12q42 0 72 -14.5t50 -37.5q17 -19 27.5 -42.5t16 -59t7 -86t1.5 -124.5t-1.5 -125t-7 -86t-16 -58.5
t-27.5 -42.5q-20 -23 -50 -37.5t-72 -14.5q-35 0 -65 11.5t-52.5 34t-35 56t-12.5 77.5v211zM133 168q0 -44 20.5 -71.5t58.5 -27.5q21 0 35 7.5t23 19.5q9 11 14.5 27.5t9 41t5 60.5t1.5 86h-167v-143z" />
    <glyph glyph-name="florin" unicode="&#x192;" horiz-adv-x="351" 
d="M299 644q-29 0 -49.5 -17t-26.5 -49l-35 -193h79v-62h-90l-97 -517h-80l96 517h-54v62h66l35 197q12 69 55.5 101.5t100.5 32.5h30v-72h-30z" />
    <glyph glyph-name="uni01B5" unicode="&#x1b5;" horiz-adv-x="349" 
d="M31 0v65l90 258h-55v69h79l84 243h-185v77h274v-65l-88 -255h55v-69h-79l-85 -246h197v-77h-287z" />
    <glyph glyph-name="uni01B6" unicode="&#x1b6;" horiz-adv-x="301" 
d="M24 0v62l72 169h-51v57h75l67 158h-152v72h242v-62l-72 -168h52v-57h-76l-67 -158h163v-73h-253z" />
    <glyph glyph-name="uni01C4" unicode="&#x1c4;" horiz-adv-x="797" 
d="M401 356q0 -72 -1.5 -122t-7 -85t-15.5 -58t-27 -41q-20 -22 -49 -36t-73 -14h-164v712h164q44 0 73 -14t49 -36q17 -18 27 -41t15.5 -58t7 -85t1.5 -122zM315 356q0 61 -0.5 103.5t-3.5 71.5t-9 47t-16 30t-25 19.5t-36 7.5h-75v-558h75q21 0 36 7.5t25 19.5t16 30t9 47
t3.5 71t0.5 104zM479 0v65l198 570h-185v77h274v-65l-197 -570h197v-77h-287zM662 758h-66l-93 134h66l60 -87l60 87h66z" />
    <glyph glyph-name="uni01C5" unicode="&#x1c5;" horiz-adv-x="749" 
d="M401 356q0 -72 -1.5 -122t-7 -85t-15.5 -58t-27 -41q-20 -22 -49 -36t-73 -14h-164v712h164q44 0 73 -14t49 -36q17 -18 27 -41t15.5 -58t7 -85t1.5 -122zM315 356q0 61 -0.5 103.5t-3.5 71.5t-9 47t-16 30t-25 19.5t-36 7.5h-75v-558h75q21 0 36 7.5t25 19.5t16 30t9 47
t3.5 71t0.5 104zM472 0v62l163 384h-152v72h242v-62l-163 -383h163v-73h-253zM639 582h-67l-93 135h67l59 -87l60 87h67z" />
    <glyph glyph-name="uni01C6" unicode="&#x1c6;" horiz-adv-x="688" 
d="M251 0v40q-4 -8 -14 -18t-17 -14q-27 -16 -56 -16q-53 0 -86 39q-25 29 -31.5 83t-6.5 145q0 90 6.5 145t31.5 84q16 19 36.5 28.5t49.5 9.5q30 0 56 -15q8 -5 15.5 -13t13.5 -16v230h81v-712h-79zM249 378q0 21 -5 35t-15 24q-16 16 -42 16q-28 0 -44 -21q-7 -8 -11 -21
t-6.5 -33.5t-3 -49.5t-0.5 -69q0 -80 3.5 -118.5t17.5 -54.5q16 -21 44 -21q26 0 42 16q20 20 20 60v237zM411 0v62l163 384h-152v72h242v-62l-163 -383h163v-73h-253zM578 582h-67l-93 135h67l59 -87l60 87h67z" />
    <glyph glyph-name="uni01C7" unicode="&#x1c7;" horiz-adv-x="722" 
d="M64 0v712h86v-635h189v-77h-275zM664 170q0 -41 -11 -74t-34 -56q-47 -48 -126 -48q-40 0 -72 14t-55 40l61 57q11 -14 28.5 -24t37.5 -10q36 0 60.5 25.5t24.5 75.5v542h86v-542z" />
    <glyph glyph-name="uni01C8" unicode="&#x1c8;" horiz-adv-x="556" 
d="M64 0v712h86v-635h189v-77h-275zM499 -46q0 -43 -12.5 -71t-33.5 -45q-23 -20 -51.5 -26t-61.5 -6v73q38 0 58 17t20 61v561h81v-564zM411 610v94h95v-94h-95z" />
    <glyph glyph-name="uni01C9" unicode="&#x1c9;" horiz-adv-x="423" 
d="M216 0q-33 0 -61 6t-51 26q-21 17 -33.5 45t-12.5 71v564h81v-561q0 -78 77 -78v-73zM366 -46q0 -43 -12.5 -71t-33.5 -45q-23 -20 -51.5 -26t-61.5 -6v73q38 0 58 17t20 61v561h81v-564zM278 610v94h95v-94h-95z" />
    <glyph glyph-name="uni01CA" unicode="&#x1ca;" horiz-adv-x="838" 
d="M334 0l-184 487v-487h-86v712h80l182 -487v487h86v-712h-78zM780 170q0 -41 -11 -74t-34 -56q-47 -48 -126 -48q-40 0 -72 14t-55 40l61 57q11 -14 28.5 -24t37.5 -10q36 0 60.5 25.5t24.5 75.5v542h86v-542z" />
    <glyph glyph-name="uni01CB" unicode="&#x1cb;" horiz-adv-x="672" 
d="M334 0l-184 487v-487h-86v712h80l182 -487v487h86v-712h-78zM615 -46q0 -43 -12.5 -71t-33.5 -45q-23 -20 -51.5 -26t-61.5 -6v73q38 0 58 17t20 61v561h81v-564zM527 610v94h95v-94h-95z" />
    <glyph glyph-name="uni01CC" unicode="&#x1cc;" horiz-adv-x="590" 
d="M261 0v381q0 35 -18 53t-44 18t-43.5 -18t-17.5 -53v-381h-81v518h78v-40q5 9 14.5 18t17.5 14q26 16 56 16q29 0 50 -9.5t38 -28.5q16 -17 23.5 -41t7.5 -66v-381h-81zM533 -46q0 -43 -12.5 -71t-33.5 -45q-23 -20 -51.5 -26t-61.5 -6v73q38 0 58 17t20 61v561h81v-564z
M445 610v94h95v-94h-95z" />
    <glyph glyph-name="uni01F1" unicode="&#x1f1;" horiz-adv-x="797" 
d="M401 356q0 -72 -1.5 -122t-7 -85t-15.5 -58t-27 -41q-20 -22 -49 -36t-73 -14h-164v712h164q44 0 73 -14t49 -36q17 -18 27 -41t15.5 -58t7 -85t1.5 -122zM315 356q0 61 -0.5 103.5t-3.5 71.5t-9 47t-16 30t-25 19.5t-36 7.5h-75v-558h75q21 0 36 7.5t25 19.5t16 30t9 47
t3.5 71t0.5 104zM479 0v65l198 570h-185v77h274v-65l-197 -570h197v-77h-287z" />
    <glyph glyph-name="uni01F2" unicode="&#x1f2;" horiz-adv-x="749" 
d="M401 356q0 -72 -1.5 -122t-7 -85t-15.5 -58t-27 -41q-20 -22 -49 -36t-73 -14h-164v712h164q44 0 73 -14t49 -36q17 -18 27 -41t15.5 -58t7 -85t1.5 -122zM315 356q0 61 -0.5 103.5t-3.5 71.5t-9 47t-16 30t-25 19.5t-36 7.5h-75v-558h75q21 0 36 7.5t25 19.5t16 30t9 47
t3.5 71t0.5 104zM472 0v62l163 384h-152v72h242v-62l-163 -383h163v-73h-253z" />
    <glyph glyph-name="uni01F3" unicode="&#x1f3;" horiz-adv-x="688" 
d="M251 0v40q-4 -8 -14 -18t-17 -14q-27 -16 -56 -16q-53 0 -86 39q-25 29 -31.5 83t-6.5 145q0 90 6.5 145t31.5 84q16 19 36.5 28.5t49.5 9.5q30 0 56 -15q8 -5 15.5 -13t13.5 -16v230h81v-712h-79zM249 378q0 21 -5 35t-15 24q-16 16 -42 16q-28 0 -44 -21q-7 -8 -11 -21
t-6.5 -33.5t-3 -49.5t-0.5 -69q0 -80 3.5 -118.5t17.5 -54.5q16 -21 44 -21q26 0 42 16q20 20 20 60v237zM411 0v62l163 384h-152v72h242v-62l-163 -383h163v-73h-253z" />
    <glyph glyph-name="Aringacute" unicode="&#x1fa;" horiz-adv-x="424" 
d="M328 0l-34 168h-165l-34 -168h-90l166 712h83l165 -712h-91zM212 573l-67 -328h133zM313 850q0 -41 -28.5 -69.5t-69.5 -28.5t-69.5 28.5t-28.5 69.5t28.5 69.5t69.5 28.5t69.5 -28.5t28.5 -69.5zM264 850q0 20 -14.5 34.5t-34.5 14.5t-34.5 -14.5t-14.5 -34.5
t14.5 -34.5t34.5 -14.5t34.5 14.5t14.5 34.5zM240 958h-62l69 135h74z" />
    <glyph glyph-name="aringacute" unicode="&#x1fb;" 
d="M245 0v46q-6 -11 -14 -20t-16 -15q-12 -9 -26 -14t-35 -5q-29 0 -50 9.5t-39 29.5q-15 17 -24 46t-9 70q0 36 11.5 66.5t34.5 50.5q20 17 44.5 26t65.5 9h53v82q0 74 -61 74q-14 0 -23 -4.5t-17 -12.5q-11 -11 -15 -25t-4 -35h-81q0 30 8.5 58.5t31.5 51.5
q17 17 43.5 27.5t56.5 10.5q65 0 101 -36q19 -20 30 -47t11 -67v-376h-77zM241 240h-46q-19 0 -32.5 -4t-25.5 -15q-11 -11 -17.5 -30.5t-6.5 -40.5q0 -41 15.5 -64t47.5 -23q29 0 47 22.5t18 58.5v96zM282 681q0 -41 -28.5 -69.5t-69.5 -28.5q-20 0 -37.5 7.5t-31 21
t-21 31.5t-7.5 38t7.5 38t21 31.5t31 21t37.5 7.5q41 0 69.5 -28.5t28.5 -69.5zM234 681q0 20 -15 34.5t-35 14.5t-34.5 -14.5t-14.5 -34.5t14.5 -34.5t34.5 -14.5t35 14.5t15 34.5zM210 789h-61l68 135h74z" />
    <glyph glyph-name="AEacute" unicode="&#x1fc;" horiz-adv-x="640" 
d="M324 0v172h-163l-61 -172h-95l263 712h330v-77h-188v-239h162v-77h-162v-242h188v-77h-274zM324 635l-136 -385h136v385zM393 762h-62l69 135h74z" />
    <glyph glyph-name="aeacute" unicode="&#x1fd;" horiz-adv-x="573" 
d="M322 240q0 -62 3.5 -99t17.5 -54q8 -10 19 -16t27 -6q28 0 46 20q9 10 13.5 26t4.5 34h80q-1 -35 -10.5 -63.5t-30.5 -51.5q-19 -20 -45.5 -29t-57.5 -9q-50 0 -86 28q-11 8 -20 20t-16 24q-8 -15 -18 -28t-21 -21q-14 -11 -31.5 -17t-42.5 -6q-29 0 -50 9.5t-39 29.5
q-33 36 -33 116q0 76 46 117q20 17 44.5 26t65.5 9h53v82q0 36 -15.5 55t-44.5 19q-26 0 -42 -18q-18 -19 -18 -59h-81q0 30 9 59t31 51q17 17 43.5 27.5t56.5 10.5q54 0 86 -26q5 -4 9.5 -10t9.5 -12q3 5 7 9l8 8q36 31 88 31q32 0 56.5 -9t45.5 -31q29 -31 37 -90.5
t8 -155.5h-213zM241 240h-46q-18 0 -31.5 -4t-26.5 -15q-11 -11 -17.5 -30.5t-6.5 -40.5q0 -41 15.5 -64t47.5 -23q29 0 47 23t18 58v96zM453 301q0 57 -4 87t-16 44q-8 10 -18.5 15.5t-27.5 5.5t-27 -5.5t-18 -15.5q-12 -14 -16 -44t-4 -87h131zM308 586h-61l68 135h74z
" />
    <glyph glyph-name="Oslashacute" unicode="&#x1fe;" horiz-adv-x="431" 
d="M395 356q0 -74 -1.5 -125t-7 -86t-16 -58.5t-27.5 -42.5q-21 -23 -50.5 -37.5t-71.5 -14.5q-49 0 -83 20l-19 -56h-62l34 96q-15 19 -23.5 43.5t-13 59.5t-6 84t-1.5 117q0 74 1.5 124.5t7 86t16 59t27.5 42.5q21 23 50.5 37.5t71.5 14.5q48 0 83 -20l18 56h62l-32 -97
q14 -19 22.5 -43.5t13 -59.5t6 -84t1.5 -116zM277 621q-20 22 -56 22q-21 0 -35.5 -7.5t-23.5 -19.5q-9 -13 -15 -31.5t-9 -48t-4 -73.5t-1 -107q0 -74 1.5 -113.5t6.5 -62.5zM309 356q0 72 -1.5 112t-6.5 63l-136 -440q19 -22 56 -22q21 0 35 7.5t23 19.5q10 13 16 31.5
t9 48t4 73.5t1 107zM246 762h-62l69 135h74z" />
    <glyph glyph-name="oslashacute" unicode="&#x1ff;" horiz-adv-x="370" 
d="M302 471q21 -32 26.5 -86t5.5 -126q0 -79 -6.5 -133.5t-30.5 -85.5q-20 -26 -47.5 -37t-62.5 -11q-42 0 -73 17l-20 -53h-58l36 91q-20 32 -26 86t-6 126q0 79 7 133.5t31 85.5q20 26 47 37t62 11q42 0 73 -17l21 53h58zM254 259q0 33 -1 58.5t-5 39.5l-103 -277
q16 -18 42 -18q30 0 46 22q14 20 17.5 61.5t3.5 113.5zM230 438q-16 18 -43 18q-29 0 -45 -22q-14 -20 -17.5 -61.5t-3.5 -113.5q0 -33 0.5 -58.5t4.5 -39.5zM214 586h-61l68 135h74z" />
    <glyph glyph-name="Scommaaccent" unicode="&#x218;" horiz-adv-x="420" 
d="M377 191q0 -56 -9 -92.5t-35 -62.5q-20 -20 -51.5 -31.5t-74.5 -11.5q-82 0 -125 43q-25 25 -34.5 59t-9.5 91h86q0 -35 5 -56.5t19 -36.5q9 -10 24 -16t35 -6q22 0 36.5 6t24.5 17q14 16 18.5 38t4.5 57q0 31 -3 52t-10.5 35.5t-21 24.5t-35.5 19l-81 33q-27 11 -46 25
t-30 34.5t-16 49t-5 69.5q0 47 13.5 84t40.5 62q44 41 113 41q39 0 68.5 -10.5t49.5 -30.5q27 -26 37 -61.5t10 -84.5h-86q0 29 -4 49t-18 37q-19 24 -58 24q-19 0 -32.5 -6t-22.5 -16q-25 -28 -25 -85q0 -26 2.5 -44t10 -31t21 -22t34.5 -18l80 -33q30 -12 49.5 -28.5
t31 -39.5t15.5 -54t4 -73zM185 -182h-64l57 144h57z" />
    <glyph glyph-name="scommaaccent" unicode="&#x219;" horiz-adv-x="359" 
d="M328 141q0 -35 -12 -61.5t-32 -46.5q-21 -22 -47.5 -31.5t-58.5 -9.5t-58.5 10t-45.5 30q-44 45 -44 114h80q0 -40 22 -63q9 -9 21.5 -13.5t24.5 -4.5q30 0 49 19q20 20 20 52q0 27 -13 47q-8 11 -19 20t-27 17l-67 34q-50 25 -71 60q-16 28 -16 68q0 34 11.5 59.5
t31.5 45.5t46 29.5t56 9.5q64 0 101 -37q42 -40 42 -114h-80q0 23 -4.5 37t-14.5 25q-9 10 -20.5 14t-23.5 4q-28 0 -45 -17q-19 -19 -19 -50q0 -22 9 -38q11 -19 43 -34l66 -33q52 -25 73 -59q22 -33 22 -83zM158 -182h-64l57 144h57z" />
    <glyph glyph-name="uni021A" unicode="&#x21a;" horiz-adv-x="367" 
d="M227 635v-635h-86v635h-120v77h325v-77h-119zM163 -182h-64l57 144h57z" />
    <glyph glyph-name="uni021B" unicode="&#x21b;" horiz-adv-x="260" 
d="M240 0q-35 0 -64.5 5.5t-54.5 26.5q-45 37 -45 116v307h-59v63h59v142h81v-142h80v-63h-80v-304q0 -42 21 -60t62 -18v-73zM145 -182h-64l57 144h57z" />
    <glyph glyph-name="uni0237" unicode="&#x237;" horiz-adv-x="195" 
d="M138 -46q0 -43 -12.5 -70.5t-33.5 -44.5q-23 -20 -51.5 -26.5t-61.5 -6.5v73q38 0 58 17t20 61v561h81v-564z" />
    <glyph glyph-name="uni0259" unicode="&#x259;" horiz-adv-x="372" 
d="M252 278q0 62 -3.5 99t-17.5 54q-7 10 -18.5 16t-27.5 6q-14 0 -25 -4.5t-21 -15.5t-13.5 -26t-3.5 -34h-81q1 36 10.5 64t31.5 51q37 38 102 38q33 0 58 -9t45 -31q29 -31 37.5 -88.5t8.5 -138.5q0 -82 -8 -139t-37 -88q-20 -22 -45 -31t-57 -9t-57 9t-45 31
q-29 31 -37.5 90.5t-8.5 155.5h213zM121 217q0 -57 4 -87t16 -44q8 -10 18.5 -15.5t27.5 -5.5t27 5.5t18 15.5q12 14 16 44t4 87h-131z" />
    <glyph glyph-name="uni02BB" unicode="&#x2bb;" horiz-adv-x="207" 
d="M57 604v108l93 68v-176h-93z" />
    <glyph glyph-name="afii57929" unicode="&#x2bc;" horiz-adv-x="207" 
d="M57 536v176h93v-108z" />
    <glyph glyph-name="circumflex" unicode="&#x2c6;" 
d="M247 586l-60 87l-59 -87h-67l93 135h67l93 -135h-67z" />
    <glyph glyph-name="caron" unicode="&#x2c7;" 
d="M221 582h-67l-93 135h67l59 -87l60 87h67z" />
    <glyph glyph-name="breve" unicode="&#x2d8;" 
d="M305 694q-4 -60 -35.5 -86t-82.5 -26q-50 0 -81.5 26t-35.5 86h58q4 -28 19.5 -40.5t39.5 -12.5q25 0 40.5 12.5t19.5 40.5h58z" />
    <glyph glyph-name="dotaccent" unicode="&#x2d9;" 
d="M147 604v82h81v-82h-81z" />
    <glyph glyph-name="ring" unicode="&#x2da;" 
d="M285 681q0 -41 -28.5 -69.5t-69.5 -28.5q-20 0 -37.5 7.5t-31 21t-21 31.5t-7.5 38t7.5 38t21 31.5t31 21t37.5 7.5q41 0 69.5 -28.5t28.5 -69.5zM237 681q0 20 -15 34.5t-35 14.5t-34.5 -14.5t-14.5 -34.5t14.5 -34.5t34.5 -14.5t35 14.5t15 34.5z" />
    <glyph glyph-name="ogonek" unicode="&#x2db;" 
d="M176 -182h-64l57 144h57z" />
    <glyph glyph-name="tilde" unicode="&#x2dc;" 
d="M321 638q-26 -25 -44 -33.5t-36 -8.5q-17 0 -30 4.5t-28 12.5q-11 7 -21 11t-22 4q-10 0 -19 -3t-26 -20l-36 38q25 25 42.5 33.5t36.5 8.5q17 0 30 -4t28 -13q11 -7 21 -11t22 -4q9 0 18.5 3.5t25.5 19.5z" />
    <glyph glyph-name="hungarumlaut" unicode="&#x2dd;" 
d="M146 586h-59l53 135h74zM283 586h-58l52 135h74z" />
    <glyph glyph-name="uni0394" unicode="&#x394;" horiz-adv-x="424" 
d="M5 0l166 712h83l165 -712h-414zM212 573l-100 -496h200z" />
    <glyph glyph-name="uni03A9" unicode="&#x3a9;" horiz-adv-x="460" 
d="M255 0v64q17 8 30.5 22t19.5 36q8 31 10 86t2 148q0 68 -1 113t-4.5 73.5t-9 45t-14.5 28.5t-23.5 19.5t-34.5 7.5t-34.5 -7.5t-23.5 -19.5t-15 -28.5t-9 -45t-4.5 -73.5t-1.5 -113q0 -93 2 -148t10 -86q6 -22 20 -36t30 -22v-64h-152v72h64q-12 8 -22 18.5t-17 27.5
q-14 32 -17 90t-3 148q0 72 1.5 122.5t6.5 86.5t15.5 60t27.5 44q20 23 49.5 37t72.5 14t72.5 -14t49.5 -37q17 -20 27 -44t15.5 -60t7 -86.5t1.5 -122.5q0 -90 -3 -148t-17 -90q-7 -17 -17.5 -27.5t-22.5 -18.5h65v-72h-153z" />
    <glyph glyph-name="uni03BC" unicode="&#x3bc;" horiz-adv-x="399" 
d="M262 0v40q-5 -9 -14 -18t-17 -14q-26 -16 -58 -16q-13 0 -24 4.5t-15 9.5v-200h-78v712h81v-381q0 -36 17.5 -54t43.5 -18t44 18t18 54v381h81v-518h-79z" />
    <glyph glyph-name="pi" unicode="&#x3c0;" horiz-adv-x="399" 
d="M342 0h-81v450h-123v-450h-81v518h285v-518z" />
    <glyph glyph-name="uni0400" unicode="&#x400;" horiz-adv-x="380" 
d="M64 0v712h275v-77h-189v-239h163v-77h-163v-242h189v-77h-275zM181 762l-81 135h74l69 -135h-62z" />
    <glyph glyph-name="afii10023" unicode="&#x401;" horiz-adv-x="380" 
d="M64 0v712h275v-77h-189v-239h163v-77h-163v-242h189v-77h-275zM243 777v81h82v-81h-82zM87 777v81h82v-81h-82z" />
    <glyph glyph-name="afii10051" unicode="&#x402;" horiz-adv-x="494" 
d="M453 213q0 -112 -40.5 -162.5t-128.5 -50.5h-14v77h13q49 0 66.5 35.5t17.5 100.5t-17.5 100.5t-66.5 35.5h-72v-349h-86v635h-104v77h324v-77h-134v-209h73q88 0 128.5 -50t40.5 -163z" />
    <glyph glyph-name="afii10052" unicode="&#x403;" horiz-adv-x="357" 
d="M150 635v-635h-86v712h269v-77h-183zM206 762h-62l69 135h74z" />
    <glyph glyph-name="afii10053" unicode="&#x404;" horiz-adv-x="423" 
d="M221 69q20 0 33 6.5t23 18.5q12 14 17 36.5t6 45.5h86q-2 -45 -15.5 -83t-39.5 -62q-21 -19 -48 -29t-62 -10q-42 0 -72 14.5t-50 37.5q-17 19 -27 42t-15.5 58t-7.5 86t-2 126q0 74 1.5 124t7 85t15.5 58.5t28 44.5q20 23 50 37.5t72 14.5q38 0 65 -11t48 -31
q25 -24 37.5 -60.5t14.5 -81.5h-86q-1 23 -5 44t-18 38q-10 12 -23 18.5t-33 6.5q-21 0 -35.5 -7.5t-22.5 -19.5q-9 -11 -14.5 -26t-9 -39.5t-5 -62t-1.5 -92.5h141v-77h-141q0 -56 1.5 -94t5 -62.5t9 -40t14.5 -26.5q8 -12 22.5 -19.5t35.5 -7.5z" />
    <glyph glyph-name="afii10054" unicode="&#x405;" horiz-adv-x="420" 
d="M377 191q0 -56 -9 -92.5t-35 -62.5q-20 -20 -51.5 -31.5t-74.5 -11.5q-82 0 -125 43q-25 25 -34.5 59t-9.5 91h86q0 -35 5 -56.5t19 -36.5q9 -10 24 -16t35 -6q22 0 36.5 6t24.5 17q14 16 18.5 38t4.5 57q0 31 -3 52t-10.5 35.5t-21 24.5t-35.5 19l-81 33q-27 11 -46 25
t-30 34.5t-16 49t-5 69.5q0 47 13.5 84t40.5 62q44 41 113 41q39 0 68.5 -10.5t49.5 -30.5q27 -26 37 -61.5t10 -84.5h-86q0 29 -4 49t-18 37q-19 24 -58 24q-19 0 -32.5 -6t-22.5 -16q-25 -28 -25 -85q0 -26 2.5 -44t10 -31t21 -22t34.5 -18l80 -33q30 -12 49.5 -28.5
t31 -39.5t15.5 -54t4 -73z" />
    <glyph glyph-name="afii10055" unicode="&#x406;" horiz-adv-x="215" 
d="M64 0v712h86v-712h-86z" />
    <glyph glyph-name="afii10056" unicode="&#x407;" horiz-adv-x="215" 
d="M64 0v712h86v-712h-86zM146 777v81h82v-81h-82zM-10 777v81h82v-81h-82z" />
    <glyph glyph-name="afii10057" unicode="&#x408;" horiz-adv-x="361" 
d="M303 170q0 -41 -11 -74t-34 -56q-47 -48 -126 -48q-40 0 -72 14t-55 40l61 57q11 -14 28.5 -24t37.5 -10q36 0 60.5 25.5t24.5 75.5v542h86v-542z" />
    <glyph glyph-name="afii10058" unicode="&#x409;" horiz-adv-x="705" 
d="M663 208q0 -59 -11 -99t-33 -64t-53.5 -34.5t-71.5 -10.5h-160v635h-129v-315q0 -110 -13.5 -173.5t-36 -96t-52.5 -41.5t-64 -9h-25v76h9q19 0 37.5 6t32 31.5t22 77t8.5 142.5v379h297v-297h74q40 0 71.5 -10.5t53.5 -34.5t33 -63.5t11 -98.5zM577 208q0 72 -21 101
t-63 29h-73v-261h73q42 0 63 29.5t21 101.5z" />
    <glyph glyph-name="afii10059" unicode="&#x40a;" horiz-adv-x="678" 
d="M637 208q0 -59 -11.5 -99t-33.5 -64t-53 -34.5t-71 -10.5h-160v338h-158v-338h-86v712h86v-296h158v296h86v-297h74q40 0 71.5 -10.5t53 -34.5t33 -63.5t11.5 -98.5zM551 208q0 72 -21 101t-64 29h-72v-261h72q43 0 64 29.5t21 101.5z" />
    <glyph glyph-name="afii10060" unicode="&#x40b;" horiz-adv-x="497" 
d="M365 0v232q0 64 -21.5 91t-72.5 27h-60v-350h-86v635h-104v77h324v-77h-134v-208h72q92 0 130 -45.5t38 -136.5v-245h-86z" />
    <glyph glyph-name="afii10061" unicode="&#x40c;" horiz-adv-x="450" 
d="M64 0v712h86v-712h-86zM345 0l-193 371l179 341h93l-183 -337l201 -375h-97zM258 762h-62l69 135h74z" />
    <glyph glyph-name="uni040D" unicode="&#x40d;" horiz-adv-x="468" 
d="M318 0v494l-174 -494h-80v712h86v-495l175 495h79v-712h-86zM207 762l-81 135h74l69 -135h-62z" />
    <glyph glyph-name="afii10062" unicode="&#x40e;" horiz-adv-x="392" 
d="M203 113q-11 -35 -24.5 -57t-33 -34.5t-46 -17t-63.5 -4.5v77q22 0 37.5 3.5t26.5 11.5t19 22.5t14 36.5l23 79l-152 482h94l99 -363l97 363h94zM319 865q-4 -60 -37 -84.5t-84 -24.5t-84 24.5t-37 84.5h62q3 -28 18.5 -40.5t40.5 -12.5t40.5 12.5t18.5 40.5h62z" />
    <glyph glyph-name="afii10145" unicode="&#x40f;" horiz-adv-x="458" 
d="M270 0v-142h-82v142h-124v712h86v-635h158v635h86v-712h-124z" />
    <glyph glyph-name="afii10017" unicode="&#x410;" horiz-adv-x="424" 
d="M328 0l-34 168h-165l-34 -168h-90l166 712h83l165 -712h-91zM212 573l-67 -328h133z" />
    <glyph glyph-name="afii10018" unicode="&#x411;" horiz-adv-x="439" 
d="M397 209q0 -59 -11.5 -99t-33.5 -64.5t-54 -35t-72 -10.5h-162v712h301v-77h-215v-217h76q40 0 72 -10.5t54 -35t33.5 -64.5t11.5 -99zM311 209q0 72 -22 101.5t-64 29.5h-75v-263h75q42 0 64 30t22 102z" />
    <glyph glyph-name="afii10019" unicode="&#x412;" horiz-adv-x="444" 
d="M394 200q0 -32 -2.5 -56t-8.5 -42.5t-14.5 -32.5t-20.5 -26q-22 -23 -52.5 -33t-78.5 -10h-153v712h153q48 0 78 -10t52 -33q12 -12 20 -25t13 -30t7 -38.5t2 -50.5q0 -38 -8 -69.5t-34 -57.5q-17 -17 -40 -27q12 -4 23.5 -11t20.5 -15q28 -27 35.5 -63t7.5 -82zM308 205
q0 69 -24 98.5t-72 29.5h-62v-256h62q24 0 42 6t30 21t18 39.5t6 61.5zM303 521q0 65 -21.5 89.5t-68.5 24.5h-63v-228h63q46 0 68 26.5t22 87.5z" />
    <glyph glyph-name="afii10020" unicode="&#x413;" horiz-adv-x="357" 
d="M150 635v-635h-86v712h269v-77h-183z" />
    <glyph glyph-name="afii10021" unicode="&#x414;" horiz-adv-x="498" 
d="M389 -127v127h-293v-127h-82v204h45q27 72 42.5 157.5t15.5 191.5v286h298v-635h56v-204h-82zM329 635h-129v-228q0 -97 -13.5 -178t-39.5 -152h182v558z" />
    <glyph glyph-name="afii10022" unicode="&#x415;" horiz-adv-x="380" 
d="M64 0v712h275v-77h-189v-239h163v-77h-163v-242h189v-77h-275z" />
    <glyph glyph-name="afii10024" unicode="&#x416;" horiz-adv-x="675" 
d="M572 0l-187 371l173 341h93l-176 -337l192 -375h-95zM297 0v712h86v-712h-86zM102 0h-94l196 375l-180 337h92l179 -341z" />
    <glyph glyph-name="afii10025" unicode="&#x417;" horiz-adv-x="421" 
d="M371 192q0 -54 -9.5 -89t-36.5 -64q-21 -24 -52 -35.5t-70 -11.5q-75 0 -115 39q-26 25 -37.5 61.5t-12.5 83.5h86q0 -26 5.5 -48t18.5 -37q20 -22 55 -22q36 0 56 22q15 18 20.5 43t5.5 61q0 46 -7 68.5t-21 37.5q-21 21 -53 21h-57v74h57q32 0 51 20q14 15 20.5 36.5
t6.5 66.5q0 36 -4 60t-20 42q-20 22 -55 22q-19 0 -32 -6t-22 -16q-14 -15 -19.5 -37.5t-5.5 -47.5h-86q1 45 13 81t35 60q43 43 117 43q78 0 120 -45q29 -29 37 -65.5t8 -87.5q0 -25 -2 -43t-5.5 -32t-9.5 -25.5t-14 -21.5q-20 -25 -47 -39q29 -15 48 -38q8 -10 14.5 -21.5
t10.5 -26.5t6 -35.5t2 -47.5z" />
    <glyph glyph-name="afii10026" unicode="&#x418;" horiz-adv-x="468" 
d="M318 0v494l-174 -494h-80v712h86v-495l175 495h79v-712h-86z" />
    <glyph glyph-name="afii10027" unicode="&#x419;" horiz-adv-x="468" 
d="M318 0v494l-174 -494h-80v712h86v-495l175 495h79v-712h-86zM358 865q-4 -60 -37 -84.5t-84 -24.5t-84 24.5t-37 84.5h62q3 -28 18.5 -40.5t40.5 -12.5t40.5 12.5t18.5 40.5h62z" />
    <glyph glyph-name="afii10028" unicode="&#x41a;" horiz-adv-x="450" 
d="M64 0v712h86v-712h-86zM345 0l-193 371l179 341h93l-183 -337l201 -375h-97z" />
    <glyph glyph-name="afii10029" unicode="&#x41b;" horiz-adv-x="483" 
d="M333 0v635h-128v-315q0 -110 -13.5 -173.5t-36 -96t-52.5 -41.5t-64 -9h-25v77h9q19 0 37.5 6t32 31.5t22 76.5t8.5 142v379h296v-712h-86z" />
    <glyph glyph-name="afii10030" unicode="&#x41c;" horiz-adv-x="578" 
d="M427 0v507l-113 -333h-53l-111 325v-499h-86v712h81l144 -396l143 396h81v-712h-86z" />
    <glyph glyph-name="afii10031" unicode="&#x41d;" horiz-adv-x="458" 
d="M308 0v324h-158v-324h-86v712h86v-311h158v311h86v-712h-86z" />
    <glyph glyph-name="afii10032" unicode="&#x41e;" horiz-adv-x="442" 
d="M395 356q0 -74 -1.5 -125t-7 -86t-16 -58.5t-27.5 -42.5q-21 -23 -50.5 -37.5t-71.5 -14.5t-71.5 14.5t-50.5 37.5q-17 19 -27.5 42.5t-16 58.5t-7 86t-1.5 125t1.5 124.5t7 86t16 59t27.5 42.5q21 23 50.5 37.5t71.5 14.5t71.5 -14.5t50.5 -37.5q17 -19 27.5 -42.5
t16 -59t7 -86t1.5 -124.5zM309 356q0 63 -1 107t-4.5 73.5t-9.5 48t-15 31.5q-9 12 -23 19.5t-35 7.5t-35.5 -7.5t-23.5 -19.5q-9 -13 -15 -31.5t-9 -48t-4 -73.5t-1 -107t1 -107t4 -73.5t9 -48t15 -31.5q9 -12 23.5 -19.5t35.5 -7.5t35 7.5t23 19.5q9 13 15 31.5t9.5 48
t4.5 73.5t1 107z" />
    <glyph glyph-name="afii10033" unicode="&#x41f;" horiz-adv-x="458" 
d="M308 0v635h-158v-635h-86v712h330v-712h-86z" />
    <glyph glyph-name="afii10034" unicode="&#x420;" horiz-adv-x="435" 
d="M393 504q0 -59 -11.5 -98.5t-33.5 -63.5t-53 -34.5t-71 -10.5h-74v-297h-86v712h160q40 0 71.5 -10.5t53.5 -34.5t33 -64t11 -99zM307 504q0 72 -21 101.5t-65 29.5h-71v-261h71q44 0 65 29t21 101z" />
    <glyph glyph-name="afii10035" unicode="&#x421;" horiz-adv-x="423" 
d="M385 176q-1 -45 -14.5 -83t-39.5 -62q-21 -19 -48 -29t-62 -10q-42 0 -72 14.5t-50 37.5q-18 20 -28 43.5t-15.5 58.5t-7 85.5t-1.5 124.5t1.5 124.5t7 85.5t15.5 58.5t28 43.5q20 23 50 37.5t72 14.5q38 0 65 -11t48 -31q25 -24 37.5 -60.5t13.5 -80.5h-85
q-1 23 -5.5 44t-17.5 37q-8 11 -22 18t-34 7q-21 0 -35.5 -7.5t-23.5 -19.5q-9 -13 -15 -31.5t-9 -48t-4 -73.5t-1 -107t1 -107t4 -73.5t9 -48t15 -31.5q9 -12 23.5 -19.5t35.5 -7.5q20 0 34 7t22 18q12 16 17 37.5t6 44.5h85z" />
    <glyph glyph-name="afii10036" unicode="&#x422;" horiz-adv-x="367" 
d="M227 635v-635h-86v635h-120v77h325v-77h-119z" />
    <glyph glyph-name="afii10037" unicode="&#x423;" horiz-adv-x="392" 
d="M203 113q-11 -35 -24.5 -57t-33 -34.5t-46 -17t-63.5 -4.5v77q22 0 37.5 3.5t26.5 11.5t19 22.5t14 36.5l23 79l-152 482h94l99 -363l97 363h94z" />
    <glyph glyph-name="afii10038" unicode="&#x424;" horiz-adv-x="572" 
d="M528 378q0 -69 -7.5 -123.5t-29 -92.5t-61 -58.5t-102.5 -23.5v-84h-85v84q-63 3 -102.5 23.5t-61 58.5t-29 92.5t-7.5 123.5t7.5 123.5t29 92.5t61 58.5t102.5 23.5v65h85v-65q63 -3 102.5 -23.5t61 -58.5t29 -92.5t7.5 -123.5zM443 378q0 57 -4 98.5t-16.5 68.5
t-35.5 40.5t-60 15.5v-445q37 2 60 15.5t35.5 40t16.5 68t4 98.5zM244 601q-37 -2 -60 -15.5t-35.5 -40.5t-16.5 -68.5t-4 -98.5t4 -98.5t16.5 -68t35.5 -40t60 -15.5v445z" />
    <glyph glyph-name="afii10039" unicode="&#x425;" horiz-adv-x="403" 
d="M294 0l-93 282l-92 -282h-94l136 370l-125 342h94l81 -260l82 260h94l-129 -342l140 -370h-94z" />
    <glyph glyph-name="afii10040" unicode="&#x426;" horiz-adv-x="477" 
d="M367 -142v142h-303v712h86v-635h158v635h86v-635h56v-219h-83z" />
    <glyph glyph-name="afii10041" unicode="&#x427;" horiz-adv-x="449" 
d="M299 0v256q-24 -4 -45.5 -5.5t-43.5 -1.5q-37 0 -65 8t-47 27t-28.5 50t-9.5 77v301h86v-292q0 -29 5.5 -47t15.5 -28.5t24 -14.5t32 -4q21 0 38.5 1.5t37.5 4.5v380h86v-712h-86z" />
    <glyph glyph-name="afii10042" unicode="&#x428;" horiz-adv-x="674" 
d="M64 0v712h86v-635h144v635h86v-635h144v635h86v-712h-546z" />
    <glyph glyph-name="afii10043" unicode="&#x429;" horiz-adv-x="693" 
d="M584 -142v142h-520v712h86v-635h144v635h86v-635h144v635h86v-635h56v-219h-82z" />
    <glyph glyph-name="afii10044" unicode="&#x42a;" horiz-adv-x="498" 
d="M456 208q0 -59 -11.5 -99t-33 -64t-53 -34.5t-71.5 -10.5h-160v635h-106v77h192v-297h74q40 0 71.5 -10.5t53.5 -34.5t33 -63.5t11 -98.5zM370 208q0 72 -21 101t-63 29h-73v-261h73q42 0 63 29.5t21 101.5z" />
    <glyph glyph-name="afii10045" unicode="&#x42b;" horiz-adv-x="608" 
d="M393 208q0 -59 -11.5 -99t-33 -64t-53 -34.5t-71.5 -10.5h-160v712h86v-297h74q40 0 71.5 -10.5t53.5 -34.5t33 -63.5t11 -98.5zM307 208q0 72 -21 101t-63 29h-73v-261h73q42 0 63 29.5t21 101.5zM458 0v712h86v-712h-86z" />
    <glyph glyph-name="afii10046" unicode="&#x42c;" horiz-adv-x="435" 
d="M393 208q0 -59 -11.5 -99t-33 -64t-53 -34.5t-71.5 -10.5h-160v712h86v-297h74q40 0 71.5 -10.5t53.5 -34.5t33 -63.5t11 -98.5zM307 208q0 72 -21 101t-63 29h-73v-261h73q42 0 63 29.5t21 101.5z" />
    <glyph glyph-name="afii10047" unicode="&#x42d;" horiz-adv-x="423" 
d="M376 356q0 -74 -1.5 -125t-7 -86t-15.5 -58.5t-27 -42.5q-20 -23 -50.5 -37.5t-72.5 -14.5q-35 0 -62 10t-48 29q-26 24 -39.5 62t-14.5 83h85q1 -23 5.5 -45t17.5 -37q9 -11 22.5 -18t33.5 -7q21 0 35.5 7.5t23.5 19.5q9 11 14.5 26.5t8.5 40t4.5 62.5t1.5 94h-144v77
h144q0 55 -1.5 92.5t-4.5 62t-8.5 39.5t-14.5 26q-9 12 -23.5 19.5t-35.5 7.5q-20 0 -33.5 -7t-22.5 -18q-13 -15 -17.5 -36.5t-5.5 -44.5h-85q1 44 13.5 80.5t37.5 60.5q21 20 48.5 31t64.5 11q42 0 72.5 -14.5t50.5 -37.5q17 -19 27 -42.5t15.5 -59t7 -86t1.5 -124.5z" />
    <glyph glyph-name="afii10048" unicode="&#x42e;" horiz-adv-x="629" 
d="M64 0v712h86v-311h84q0 60 2.5 102.5t8 73t15.5 52t26 39.5q20 23 50 37.5t72 14.5t72 -14.5t50 -37.5q18 -21 28 -44.5t15.5 -58.5t7 -85t1.5 -124t-1.5 -124.5t-7 -85.5t-16 -58.5t-27.5 -43.5q-21 -24 -50.5 -38t-71.5 -14t-72 14.5t-50 37.5q-16 19 -26 41
t-15.5 53.5t-8 76t-2.5 108.5h-84v-323h-86zM496 356q0 63 -1 107t-4 73.5t-9 48t-16 31.5q-9 12 -23 19.5t-35 7.5t-35 -7.5t-23 -19.5q-10 -13 -16 -31.5t-9 -48t-4 -73.5t-1 -107t1 -107t4 -73.5t9 -48t16 -31.5q9 -12 23 -19.5t35 -7.5t35 7.5t23 19.5q10 13 16 31.5
t9 48t4 73.5t1 107z" />
    <glyph glyph-name="afii10049" unicode="&#x42f;" horiz-adv-x="455" 
d="M305 0v306h-77l-98 -306h-91l109 323q-47 22 -66.5 66.5t-19.5 119.5q0 58 11 97.5t32.5 62.5t52.5 33t72 10h161v-712h-86zM305 635h-76q-25 0 -40.5 -9t-24.5 -25.5t-12.5 -40t-3.5 -51.5q0 -29 3.5 -52t12.5 -40t24.5 -26t40.5 -9h76v253z" />
    <glyph glyph-name="afii10065" unicode="&#x430;" 
d="M245 0v46q-6 -11 -14 -20t-16 -15q-12 -9 -26 -14t-35 -5q-29 0 -50 9.5t-39 29.5q-15 17 -24 46t-9 70q0 36 11.5 66.5t34.5 50.5q20 17 44.5 26t65.5 9h53v82q0 74 -61 74q-14 0 -23 -4.5t-17 -12.5q-11 -11 -15 -25t-4 -35h-81q0 30 8.5 58.5t31.5 51.5
q17 17 43.5 27.5t56.5 10.5q65 0 101 -36q19 -20 30 -47t11 -67v-376h-77zM241 240h-46q-19 0 -32.5 -4t-25.5 -15q-11 -11 -17.5 -30.5t-6.5 -40.5q0 -41 15.5 -64t47.5 -23q29 0 47 22.5t18 58.5v96z" />
    <glyph glyph-name="afii10066" unicode="&#x431;" horiz-adv-x="380" 
d="M340 259q0 -78 -7 -133t-31 -86q-20 -26 -47.5 -37t-62.5 -11t-62 11t-47 37q-24 31 -31 86t-7 133q0 98 1.5 160t6 101t12.5 62t21 44q29 48 86 68t145 22v-73q-60 -1 -99 -10.5t-59 -36.5q-17 -23 -23 -51.5t-10 -67.5q14 21 37 32.5t50 11.5q24 0 45.5 -8t41.5 -31
q25 -29 32.5 -81.5t7.5 -141.5zM258 259q0 71 -3 112t-17 60q-16 22 -46 22q-29 0 -45 -22q-14 -19 -17 -60t-3 -112t3 -112t17 -60q16 -22 45 -22q30 0 46 22q14 19 17 60t3 112z" />
    <glyph glyph-name="afii10067" unicode="&#x432;" horiz-adv-x="384" 
d="M344 148q0 -45 -9 -70t-29 -44q-17 -17 -43.5 -25.5t-67.5 -8.5h-138v518h138q38 0 64.5 -7t44.5 -24q20 -19 28 -43t8 -63q0 -32 -8.5 -54t-25.5 -37q-6 -5 -14.5 -11t-16.5 -9q8 -3 18 -8.5t16 -10.5q19 -17 27 -42t8 -61zM263 153q0 45 -18.5 64t-55.5 19h-53v-167h53
q37 0 55.5 17t18.5 67zM259 374q0 43 -17.5 59t-50.5 16h-55v-149h55q33 0 50.5 16.5t17.5 57.5z" />
    <glyph glyph-name="afii10068" unicode="&#x433;" horiz-adv-x="314" 
d="M298 446h-160v-446h-81v518h241v-72z" />
    <glyph glyph-name="afii10069" unicode="&#x434;" horiz-adv-x="436" 
d="M334 -129v129h-242v-129h-78v201h44q11 28 19.5 56t14 61t8.5 72t3 90v167h263v-446h47v-201h-79zM284 446h-102v-107q0 -50 -2.5 -87.5t-7 -68.5t-12.5 -57.5t-18 -53.5h142v374z" />
    <glyph glyph-name="afii10070" unicode="&#x435;" horiz-adv-x="372" 
d="M122 240q0 -62 3.5 -99t17.5 -54q7 -10 18.5 -16t27.5 -6q14 0 25 4.5t21 15.5t13.5 26t3.5 34h81q-1 -36 -10.5 -64t-31.5 -51q-37 -38 -102 -38q-33 0 -58 9t-45 31q-29 31 -37.5 88.5t-8.5 138.5q0 82 8 139t37 88q20 22 45 31t57 9t57 -9t45 -31q29 -31 37.5 -90.5
t8.5 -155.5h-213zM253 301q0 57 -4 87t-16 44q-8 10 -18.5 15.5t-27.5 5.5t-27 -5.5t-18 -15.5q-12 -14 -16 -44t-4 -87h131z" />
    <glyph glyph-name="afii10072" unicode="&#x436;" horiz-adv-x="578" 
d="M479 0l-148 269l138 249h89l-142 -246l155 -272h-92zM248 0v518h81v-518h-81zM98 0h-92l155 272l-142 246h89l138 -249z" />
    <glyph glyph-name="afii10073" unicode="&#x437;" horiz-adv-x="360" 
d="M322 141q0 -45 -10.5 -70.5t-33.5 -47.5q-34 -31 -102 -31q-66 0 -101 34q-22 20 -32.5 49.5t-11.5 67.5h81q0 -20 5 -37t16 -28q14 -14 43 -14q15 0 25.5 4t18.5 11q11 10 15.5 25.5t4.5 41.5q0 30 -5.5 45t-16.5 25q-9 8 -19 11t-26 3h-38v67h37q28 0 44 14
q10 10 15 24.5t5 40.5q0 45 -19 64q-14 14 -41 14q-29 0 -44 -15q-11 -11 -15.5 -27.5t-4.5 -36.5h-81q2 74 41 113q18 17 43.5 27.5t60.5 10.5t59.5 -7t42.5 -25q21 -20 30.5 -45.5t9.5 -66.5q0 -33 -7 -51.5t-20 -35.5q-14 -17 -36 -28q11 -5 19.5 -11.5t16.5 -13.5
q17 -17 24 -38t7 -63z" />
    <glyph glyph-name="afii10074" unicode="&#x438;" horiz-adv-x="408" 
d="M269 0v343l-138 -343h-74v518h81v-343l139 343h74v-518h-82z" />
    <glyph glyph-name="afii10075" unicode="&#x439;" horiz-adv-x="408" 
d="M269 0v343l-138 -343h-74v518h81v-343l139 343h74v-518h-82zM324 692q-4 -60 -37 -84.5t-84 -24.5t-84 24.5t-37 84.5h62q3 -28 18.5 -40.5t40.5 -12.5t40.5 12.5t18.5 40.5h62z" />
    <glyph glyph-name="afii10076" unicode="&#x43a;" horiz-adv-x="389" 
d="M289 0l-149 269l138 249h89l-142 -245l155 -273h-91zM57 0v518h82v-518h-82z" />
    <glyph glyph-name="afii10077" unicode="&#x43b;" horiz-adv-x="415" 
d="M276 0v446h-98v-239q0 -62 -9.5 -102t-27 -63t-43.5 -32.5t-59 -9.5h-25v72h12q13 0 26 3.5t23.5 18.5t17 45t6.5 83v296h259v-518h-82z" />
    <glyph glyph-name="afii10078" unicode="&#x43c;" horiz-adv-x="493" 
d="M356 0v344l-86 -207h-48l-86 207v-344h-79v519h73l116 -279l116 279h74v-519h-80z" />
    <glyph glyph-name="afii10079" unicode="&#x43d;" horiz-adv-x="395" 
d="M257 0v229h-119v-229h-81v518h81v-216h119v216h81v-518h-81z" />
    <glyph glyph-name="afii10080" unicode="&#x43e;" horiz-adv-x="376" 
d="M335 259q0 -79 -6.5 -133.5t-30.5 -85.5q-20 -26 -47.5 -37t-62.5 -11t-62 11t-47 37q-24 31 -31 85.5t-7 133.5t7 133.5t31 85.5q20 26 47 37t62 11t62.5 -11t47.5 -37q24 -31 30.5 -85.5t6.5 -133.5zM254 259q0 70 -3 111t-17 61q-16 22 -46 22q-29 0 -45 -22
q-14 -20 -17.5 -61t-3.5 -111t3.5 -111t17.5 -61q16 -22 45 -22q30 0 46 22q14 20 17 61t3 111z" />
    <glyph glyph-name="afii10081" unicode="&#x43f;" horiz-adv-x="395" 
d="M257 0v446h-119v-446h-81v518h281v-518h-81z" />
    <glyph glyph-name="afii10082" unicode="&#x440;" horiz-adv-x="387" 
d="M347 259q0 -90 -6.5 -144.5t-31.5 -83.5q-17 -20 -37 -29.5t-49 -9.5q-31 0 -56 15q-16 11 -29 29v-230h-81v712h79v-40q4 8 14 17.5t17 14.5q25 16 56 16q27 0 48 -9t38 -29q25 -29 31.5 -84t6.5 -145zM265 259q0 40 -1 69t-3 49.5t-6 33.5t-11 21q-16 21 -44 21
q-26 0 -42 -16q-10 -10 -15 -24t-5 -35v-237q0 -40 20 -60q16 -16 42 -16q28 0 44 21q13 16 17 54.5t4 118.5z" />
    <glyph glyph-name="afii10083" unicode="&#x441;" horiz-adv-x="362" 
d="M330 145q-2 -37 -11.5 -66.5t-29.5 -50.5q-19 -19 -44.5 -27.5t-57.5 -8.5q-33 0 -61 11t-48 37q-24 31 -31 86t-7 133q0 79 7 133.5t31 85.5q20 26 48 37t61 11q32 0 56.5 -7.5t44.5 -27.5q24 -23 32 -53.5t10 -63.5h-81q0 16 -2.5 31.5t-13.5 28.5q-16 19 -45 19
q-30 0 -46 -22q-14 -19 -17 -60t-3 -112q0 -70 3 -111t17 -61q16 -22 46 -22q28 0 44 19q11 12 14 27.5t3 33.5h81z" />
    <glyph glyph-name="afii10084" unicode="&#x442;" horiz-adv-x="311" 
d="M196 446v-446h-81v446h-99v72h279v-72h-99z" />
    <glyph glyph-name="afii10085" unicode="&#x443;" horiz-adv-x="345" 
d="M193 -83q-8 -35 -24 -56.5t-38 -33.5t-50 -16.5t-60 -4.5v72q38 0 61 12.5t32 47.5l16 63l-126 517h89l79 -389l78 389h89z" />
    <glyph glyph-name="afii10086" unicode="&#x444;" horiz-adv-x="517" 
d="M476 259q0 -78 -9 -128.5t-38 -82.5q-26 -28 -57.5 -39.5t-72.5 -13.5v-189h-81v189q-41 2 -73.5 14t-55.5 39q-29 32 -39 82.5t-10 128.5t9.5 128.5t38.5 82.5q23 26 56 38.5t74 14.5v189h81v-189q41 -2 74 -14t56 -38q29 -32 38 -83t9 -129zM395 259q0 69 -6 107.5
t-26 58.5q-11 11 -28 18t-37 7v-382q20 0 37 7t28 18q20 20 26 58.5t6 107.5zM219 450q-21 0 -38 -7t-27 -18q-20 -20 -26 -58.5t-6 -107.5t6 -107.5t26 -58.5q10 -11 27 -18t38 -7v382z" />
    <glyph glyph-name="afii10087" unicode="&#x445;" horiz-adv-x="356" 
d="M253 0l-75 187l-75 -187h-90l118 264l-112 254h90l69 -181l69 181h90l-114 -254l120 -264h-90z" />
    <glyph glyph-name="afii10088" unicode="&#x446;" horiz-adv-x="408" 
d="M310 -129v129h-253v518h81v-446h119v446h81v-446h47v-201h-75z" />
    <glyph glyph-name="afii10089" unicode="&#x447;" horiz-adv-x="366" 
d="M228 0v175q-17 -3 -33 -4t-33 -1q-57 0 -90.5 27t-33.5 96v225h82v-213q0 -38 14.5 -50.5t39.5 -12.5q14 0 27 1t27 4v271h81v-518h-81z" />
    <glyph glyph-name="afii10090" unicode="&#x448;" horiz-adv-x="562" 
d="M57 0v518h81v-446h102v446h81v-446h103v446h81v-518h-448z" />
    <glyph glyph-name="afii10091" unicode="&#x449;" horiz-adv-x="575" 
d="M477 -129v129h-420v518h81v-446h102v446h81v-446h103v446h81v-446h47v-201h-75z" />
    <glyph glyph-name="afii10092" unicode="&#x44a;" horiz-adv-x="416" 
d="M385 158q0 -81 -32.5 -119.5t-110.5 -38.5h-141v446h-85v72h166v-201h60q78 0 110.5 -39t32.5 -120zM304 158q0 46 -15.5 66.5t-50.5 20.5h-56v-173h56q35 0 50.5 20.5t15.5 65.5z" />
    <glyph glyph-name="afii10093" unicode="&#x44b;" horiz-adv-x="536" 
d="M341 158q0 -81 -32.5 -119.5t-110.5 -38.5h-141v518h81v-201h60q78 0 110.5 -39t32.5 -120zM260 158q0 46 -15.5 66.5t-50.5 20.5h-56v-173h56q35 0 50.5 20.5t15.5 65.5zM398 0v518h81v-518h-81z" />
    <glyph glyph-name="afii10094" unicode="&#x44c;" horiz-adv-x="372" 
d="M341 158q0 -81 -32.5 -119.5t-110.5 -38.5h-141v518h81v-201h60q78 0 110.5 -39t32.5 -120zM260 158q0 46 -15.5 66.5t-50.5 20.5h-56v-173h56q35 0 50.5 20.5t15.5 65.5z" />
    <glyph glyph-name="afii10095" unicode="&#x44d;" horiz-adv-x="364" 
d="M324 259q0 -78 -7 -133t-30 -86q-20 -26 -48.5 -37t-62.5 -11q-29 0 -52 6t-46 26t-33.5 51.5t-11.5 65.5h78q1 -19 6 -35t14 -26q15 -17 45 -17q31 0 49 23q13 17 16.5 50t3.5 94h-118v69h118q0 54 -3.5 85t-16.5 48q-17 23 -49 23q-31 0 -46 -18q-10 -11 -14 -26
t-5 -34h-78q1 33 11 63t32 51q20 19 44.5 27t55.5 8q34 0 62.5 -11t48.5 -37q23 -31 30 -85.5t7 -133.5z" />
    <glyph glyph-name="afii10096" unicode="&#x44e;" horiz-adv-x="548" 
d="M57 0v518h81v-216h76q2 62 10 106t28 70t47 37t62 11t62.5 -11t47.5 -37q24 -31 30.5 -85.5t6.5 -133.5t-6.5 -133.5t-30.5 -85.5q-20 -26 -47.5 -37t-62.5 -11t-62 11t-47 37q-22 28 -29.5 75t-8.5 114h-76v-229h-81zM427 259q0 70 -3 111t-17 61q-16 22 -46 22
q-29 0 -45 -22q-14 -20 -17.5 -61t-3.5 -111t3.5 -111t17.5 -61q16 -22 45 -22q30 0 46 22q14 20 17 61t3 111z" />
    <glyph glyph-name="afii10097" unicode="&#x44f;" 
d="M237 0v210h-54l-72 -210h-86l83 226q-37 18 -52 54t-15 84q0 75 31.5 114.5t109.5 39.5h136v-518h-81zM237 447h-54q-35 0 -47.5 -22t-12.5 -61q0 -38 13 -60.5t47 -22.5h54v166z" />
    <glyph glyph-name="uni0450" unicode="&#x450;" horiz-adv-x="372" 
d="M164 586l-81 135h74l69 -135h-62zM122 240q0 -62 3.5 -99t17.5 -54q7 -10 18.5 -16t27.5 -6q14 0 25 4.5t21 15.5t13.5 26t3.5 34h81q-1 -36 -10.5 -64t-31.5 -51q-37 -38 -102 -38q-33 0 -58 9t-45 31q-29 31 -37.5 88.5t-8.5 138.5q0 82 8 139t37 88q20 22 45 31t57 9
t57 -9t45 -31q29 -31 37.5 -90.5t8.5 -155.5h-213zM253 301q0 57 -4 87t-16 44q-8 10 -18.5 15.5t-27.5 5.5t-27 -5.5t-18 -15.5q-12 -14 -16 -44t-4 -87h131z" />
    <glyph glyph-name="afii10071" unicode="&#x451;" horiz-adv-x="372" 
d="M225 601v82h81v-82h-81zM68 601v82h82v-82h-82zM122 240q0 -62 3.5 -99t17.5 -54q7 -10 18.5 -16t27.5 -6q14 0 25 4.5t21 15.5t13.5 26t3.5 34h81q-1 -36 -10.5 -64t-31.5 -51q-37 -38 -102 -38q-33 0 -58 9t-45 31q-29 31 -37.5 88.5t-8.5 138.5q0 82 8 139t37 88
q20 22 45 31t57 9t57 -9t45 -31q29 -31 37.5 -90.5t8.5 -155.5h-213zM253 301q0 57 -4 87t-16 44q-8 10 -18.5 15.5t-27.5 5.5t-27 -5.5t-18 -15.5q-12 -14 -16 -44t-4 -87h131z" />
    <glyph glyph-name="afii10099" unicode="&#x452;" horiz-adv-x="409" 
d="M355 -38q0 -42 -12 -68t-32 -43q-23 -20 -50 -25.5t-59 -5.5v73q35 0 53.5 15.5t18.5 56.5v416q0 36 -17.5 54t-43.5 18t-43.5 -18t-17.5 -54v-381h-81v586h-52v55h52v71h81v-71h147v-55h-147v-105q5 8 13 16t16 13q24 16 56 16q29 0 50 -9.5t38 -28.5q15 -17 22.5 -41
t7.5 -66v-419z" />
    <glyph glyph-name="afii10100" unicode="&#x453;" horiz-adv-x="314" 
d="M298 446h-160v-446h-81v518h241v-72zM190 586h-61l68 135h74z" />
    <glyph glyph-name="afii10101" unicode="&#x454;" horiz-adv-x="364" 
d="M332 141q-2 -34 -12 -65.5t-33 -51.5q-20 -19 -44.5 -25.5t-54.5 -6.5q-34 0 -62 11t-48 37q-24 31 -31 86t-7 133q0 79 7 133.5t31 85.5q20 26 48 37t62 11q31 0 56.5 -8.5t44.5 -26.5q18 -17 29.5 -47t13.5 -67h-79q0 40 -19 60q-15 18 -46 18q-33 0 -48 -23
q-14 -17 -17 -48t-3 -85h118v-69h-118q0 -61 3 -94t17 -50q16 -23 48 -23q30 0 45 17q9 10 14.5 26t5.5 35h79z" />
    <glyph glyph-name="afii10102" unicode="&#x455;" horiz-adv-x="359" 
d="M328 141q0 -35 -12 -61.5t-32 -46.5q-21 -22 -47.5 -31.5t-58.5 -9.5t-58.5 10t-45.5 30q-44 45 -44 114h80q0 -40 22 -63q9 -9 21.5 -13.5t24.5 -4.5q30 0 49 19q20 20 20 52q0 27 -13 47q-8 11 -19 20t-27 17l-67 34q-50 25 -71 60q-16 28 -16 68q0 34 11.5 59.5
t31.5 45.5t46 29.5t56 9.5q64 0 101 -37q42 -40 42 -114h-80q0 23 -4.5 37t-14.5 25q-9 10 -20.5 14t-23.5 4q-28 0 -45 -17q-19 -19 -19 -50q0 -22 9 -38q11 -19 43 -34l66 -33q52 -25 73 -59q22 -33 22 -83z" />
    <glyph glyph-name="afii10103" unicode="&#x456;" horiz-adv-x="195" 
d="M57 0v518h81v-518h-81zM50 610v94h95v-94h-95z" />
    <glyph glyph-name="afii10104" unicode="&#x457;" horiz-adv-x="195" 
d="M57 0v518h81v-518h-81zM137 601v82h81v-82h-81zM-20 601v82h82v-82h-82z" />
    <glyph glyph-name="afii10105" unicode="&#x458;" horiz-adv-x="195" 
d="M138 -46q0 -43 -12.5 -71t-33.5 -45q-23 -20 -51.5 -26t-61.5 -6v73q38 0 58 17t20 61v561h81v-564zM50 610v94h95v-94h-95z" />
    <glyph glyph-name="afii10106" unicode="&#x459;" horiz-adv-x="591" 
d="M560 158q0 -81 -32.5 -119.5t-110.5 -38.5h-141v446h-98v-239q0 -62 -9.5 -102t-27 -63t-43.5 -32.5t-59 -9.5h-25v70h12q13 0 26 4t23.5 19t17 45t6.5 83v297h258v-201h60q78 0 110.5 -39t32.5 -120zM479 158q0 46 -16 66.5t-51 20.5h-55v-173h55q35 0 51 20.5t16 65.5z
" />
    <glyph glyph-name="afii10107" unicode="&#x45a;" horiz-adv-x="572" 
d="M541 158q0 -81 -32.5 -119.5t-110.5 -38.5h-141v245h-119v-245h-81v518h81v-201h119v201h81v-201h60q78 0 110.5 -39t32.5 -120zM460 158q0 46 -16 66.5t-51 20.5h-55v-173h55q35 0 51 20.5t16 65.5z" />
    <glyph glyph-name="afii10108" unicode="&#x45b;" horiz-adv-x="409" 
d="M274 0v381q0 36 -17.5 54t-43.5 18t-43.5 -18t-17.5 -54v-381h-81v586h-52v55h52v71h81v-71h147v-55h-147v-105q5 8 13 16t16 13q24 16 56 16q29 0 50 -9.5t38 -28.5q15 -17 22.5 -41t7.5 -66v-381h-81z" />
    <glyph glyph-name="afii10109" unicode="&#x45c;" horiz-adv-x="389" 
d="M289 0l-149 269l138 249h89l-142 -245l155 -273h-91zM57 0v518h82v-518h-82zM230 586h-61l68 135h74z" />
    <glyph glyph-name="uni045D" unicode="&#x45d;" horiz-adv-x="408" 
d="M269 0v343l-138 -343h-74v518h81v-343l139 343h74v-518h-82zM176 586l-81 135h74l69 -135h-62z" />
    <glyph glyph-name="afii10110" unicode="&#x45e;" horiz-adv-x="345" 
d="M193 -83q-8 -35 -24 -56.5t-38 -33.5t-50 -16.5t-60 -4.5v72q38 0 61 12.5t32 47.5l16 63l-126 517h89l79 -389l78 389h89zM294 692q-4 -60 -37 -84.5t-84 -24.5t-84 24.5t-37 84.5h62q3 -28 18.5 -40.5t40.5 -12.5t40.5 12.5t18.5 40.5h62z" />
    <glyph glyph-name="afii10193" unicode="&#x45f;" horiz-adv-x="395" 
d="M235 0v-129h-75v129h-103v518h81v-446h119v446h81v-518h-103z" />
    <glyph glyph-name="afii10146" unicode="&#x462;" horiz-adv-x="445" 
d="M23 548v69h51v95h86v-95h82v-69h-82v-133h74q40 0 71 -10.5t53 -34.5t33.5 -64t11.5 -98q0 -59 -11 -99t-33 -64t-53.5 -34.5t-71.5 -10.5h-160v548h-51zM317 208q0 72 -21 101t-65 29h-71v-261h71q44 0 65 29.5t21 101.5z" />
    <glyph glyph-name="afii10194" unicode="&#x463;" horiz-adv-x="393" 
d="M159 411v-94h60q78 0 110.5 -39t32.5 -120t-32.5 -119.5t-110.5 -38.5h-141v411h-53v54h53v53h81v-53h88v-54h-88zM281 158q0 46 -15.5 66.5t-50.5 20.5h-56v-173h56q35 0 50.5 20.5t15.5 65.5z" />
    <glyph glyph-name="afii10147" unicode="&#x472;" horiz-adv-x="442" 
d="M395 356q0 -74 -1.5 -124.5t-7 -85.5t-16 -58.5t-27.5 -43.5q-21 -24 -50.5 -38t-71.5 -14t-72 14.5t-50 37.5q-17 20 -27.5 43.5t-16 58.5t-7 85.5t-1.5 124.5t1.5 124.5t7 85.5t16 58.5t27.5 43.5q20 23 50 37.5t72 14.5t72 -14.5t50 -37.5q18 -21 28 -44.5t15.5 -58.5
t7 -85t1.5 -124zM279 96q9 12 14.5 28.5t9 42t5 62.5t1.5 90h-176q0 -53 1.5 -90t4.5 -62.5t9 -42t15 -28.5t23 -19.5t35 -7.5t35 7.5t23 19.5zM163 616q-9 -12 -15 -28.5t-9 -42t-4.5 -62t-1.5 -87.5h176q0 51 -1.5 87.5t-5 62t-9 42t-14.5 28.5t-23 19.5t-35 7.5t-35 -7.5
t-23 -19.5z" />
    <glyph glyph-name="afii10195" unicode="&#x473;" horiz-adv-x="376" 
d="M335 259q0 -79 -6.5 -133.5t-30.5 -85.5q-20 -26 -47.5 -37t-62.5 -11t-62 11t-47 37q-24 31 -31 85.5t-7 133.5t7 133.5t31 85.5q20 26 47 37t62 11t62.5 -11t47.5 -37q24 -31 30.5 -85.5t6.5 -133.5zM234 87q13 18 16.5 55t3.5 98h-132q0 -61 3.5 -98t17.5 -55
q16 -22 45 -22q30 0 46 22zM143 431q-12 -17 -16 -48t-5 -82h132q-1 51 -4.5 82t-15.5 48q-16 22 -46 22q-29 0 -45 -22z" />
    <glyph glyph-name="afii10148" unicode="&#x474;" horiz-adv-x="467" 
d="M246 0h-88l-154 712h95l103 -573l83 456q6 32 17.5 54t31 36t48.5 20.5t71 6.5v-77q-35 -1 -56.5 -18t-29.5 -56z" />
    <glyph glyph-name="afii10196" unicode="&#x475;" horiz-adv-x="416" 
d="M215 0h-86l-125 518h89l79 -390l56 279q13 62 53.5 86.5t118.5 24.5v-72q-38 0 -61.5 -12.5t-31.5 -47.5z" />
    <glyph glyph-name="afii10050" unicode="&#x490;" horiz-adv-x="357" 
d="M150 635v-635h-86v712h187v107h82v-184h-183z" />
    <glyph glyph-name="afii10098" unicode="&#x491;" horiz-adv-x="314" 
d="M138 446v-446h-81v518h166v125h75v-197h-160z" />
    <glyph glyph-name="uni0492" unicode="&#x492;" horiz-adv-x="368" 
d="M161 635v-243h81v-69h-81v-323h-86v323h-52v69h52v320h269v-77h-183z" />
    <glyph glyph-name="uni0493" unicode="&#x493;" horiz-adv-x="335" 
d="M159 446v-116h88v-54h-88v-276h-81v276h-53v54h53v188h241v-72h-160z" />
    <glyph glyph-name="uni0496" unicode="&#x496;" horiz-adv-x="675" 
d="M475 375l153 -298h39v-219h-82v142h-13l-187 371l173 341h93zM102 0h-94l196 375l-180 337h92l179 -341zM297 0v712h86v-712h-86z" />
    <glyph glyph-name="uni0497" unicode="&#x497;" horiz-adv-x="578" 
d="M416 272l114 -200h41v-201h-75v129h-17l-148 269l138 249h89zM98 0h-92l155 272l-142 246h89l138 -249zM248 0v518h81v-518h-81z" />
    <glyph glyph-name="uni049A" unicode="&#x49a;" horiz-adv-x="450" 
d="M241 375l160 -298h41v-219h-82v142h-15l-193 371l179 341h93zM64 0v712h86v-712h-86z" />
    <glyph glyph-name="uni049B" unicode="&#x49b;" horiz-adv-x="389" 
d="M225 273l114 -201h41v-201h-75v129h-16l-149 269l138 249h89zM57 0v518h82v-518h-82z" />
    <glyph glyph-name="uni049C" unicode="&#x49c;" horiz-adv-x="519" 
d="M414 0l-140 334h-27v-105h-63v105h-34v-334h-86v712h86v-301h34v105h63v-105h29l124 301h93l-144 -337l162 -375h-97z" />
    <glyph glyph-name="uni049D" unicode="&#x49d;" horiz-adv-x="449" 
d="M348 0l-100 234h-25v-110h-54v110h-30v-234h-82v518h82v-213h30v110h54v-110h24l91 213h89l-107 -245l120 -273h-92z" />
    <glyph glyph-name="uni04A2" unicode="&#x4a2;" horiz-adv-x="458" 
d="M394 77h39v-219h-82v142h-43v323h-158v-323h-86v712h86v-311h158v311h86v-635z" />
    <glyph glyph-name="uni04A3" unicode="&#x4a3;" horiz-adv-x="395" 
d="M338 72h34v-201h-75v129h-40v229h-119v-229h-81v518h81v-216h119v216h81v-446z" />
    <glyph glyph-name="uni04AE" unicode="&#x4ae;" horiz-adv-x="353" 
d="M219 288v-288h-86v288l-131 424h94l80 -304l80 304h95z" />
    <glyph glyph-name="uni04AF" unicode="&#x4af;" horiz-adv-x="345" 
d="M213 -194h-82v191l-127 521h89l79 -389l78 389h89l-126 -521v-191z" />
    <glyph glyph-name="uni04B0" unicode="&#x4b0;" horiz-adv-x="353" 
d="M219 288h68v-54h-68v-234h-86v234h-68v54h68l-131 424h94l80 -304l80 304h95z" />
    <glyph glyph-name="uni04B1" unicode="&#x4b1;" horiz-adv-x="345" 
d="M283 -3v-54h-70v-137h-82v137h-70v54h70l-127 521h89l79 -389l78 389h89l-126 -521h70z" />
    <glyph glyph-name="uni04B2" unicode="&#x4b2;" horiz-adv-x="403" 
d="M248 370l111 -293h29v-219h-82v142h-12l-93 282l-92 -282h-94l136 370l-125 342h94l81 -260l82 260h94z" />
    <glyph glyph-name="uni04B3" unicode="&#x4b3;" horiz-adv-x="356" 
d="M223 264l87 -192h33v-201h-75v129h-15l-75 187l-75 -187h-90l118 264l-112 254h90l69 -181l69 181h90z" />
    <glyph glyph-name="uni04B6" unicode="&#x4b6;" horiz-adv-x="449" 
d="M385 77h39v-219h-82v142h-43v256q-24 -4 -45.5 -5.5t-43.5 -1.5q-37 0 -65 8t-47 27t-28.5 50t-9.5 77v301h86v-292q0 -29 5.5 -47t15.5 -28.5t24 -14.5t32 -4q21 0 38.5 1.5t37.5 4.5v380h86v-635z" />
    <glyph glyph-name="uni04B7" unicode="&#x4b7;" horiz-adv-x="366" 
d="M309 72h34v-201h-75v129h-40v175q-17 -3 -33 -4t-33 -1q-57 0 -90.5 27t-33.5 96v225h82v-213q0 -38 14.5 -50.5t39.5 -12.5q14 0 27 1t27 4v271h81v-446z" />
    <glyph glyph-name="uni04B8" unicode="&#x4b8;" horiz-adv-x="471" 
d="M202 143v107q-71 5 -106.5 41.5t-35.5 119.5v301h85v-292q0 -44 14.5 -64t42.5 -26v100h63v-104q14 0 27.5 2t28.5 4v380h86v-712h-86v256q-31 -5 -56 -6v-107h-63z" />
    <glyph glyph-name="uni04B9" unicode="&#x4b9;" horiz-adv-x="388" 
d="M158 60v110q-57 4 -88.5 32t-31.5 91v225h83v-213q0 -27 9 -40.5t28 -18.5v105h54v-109q10 1 19 2t19 3v271h81v-518h-81v175q-10 -2 -19 -3t-19 -2v-110h-54z" />
    <glyph glyph-name="uni04BA" unicode="&#x4ba;" horiz-adv-x="449" 
d="M146 712v-256q24 4 45.5 5.5t43.5 1.5q37 0 65 -8t47 -27t28.5 -50t9.5 -77v-301h-86v292q0 29 -5.5 47t-15.5 28.5t-24 14.5t-32 4q-21 0 -38.5 -1.5t-37.5 -4.5v-380h-86v712h86z" />
    <glyph glyph-name="uni04BB" unicode="&#x4bb;" horiz-adv-x="366" 
d="M138 518v-175q17 3 33 4t33 1q57 0 90.5 -27t33.5 -96v-225h-82v213q0 38 -14.5 50.5t-39.5 12.5q-14 0 -27 -1t-27 -4v-271h-81v518h81z" />
    <glyph glyph-name="uni04C0" unicode="&#x4c0;" horiz-adv-x="215" 
d="M64 0v712h86v-712h-86z" />
    <glyph glyph-name="uni04CF" unicode="&#x4cf;" horiz-adv-x="187" 
d="M53 0v712h81v-712h-81z" />
    <glyph glyph-name="uni04D8" unicode="&#x4d8;" horiz-adv-x="434" 
d="M47 382h253q0 55 -1.5 94t-5 66t-9 44.5t-14.5 29.5t-23 19.5t-35 7.5q-25 0 -40 -10t-23.5 -25.5t-12 -35t-3.5 -37.5h-86q2 44 13.5 80t36.5 61q20 20 48.5 32t66.5 12q42 0 72 -14.5t50 -37.5q17 -19 27.5 -42.5t16 -59t7 -86t1.5 -124.5t-1.5 -125t-7 -86t-16 -58.5
t-27.5 -42.5q-20 -23 -50 -37.5t-72 -14.5q-35 0 -65 11.5t-52.5 34t-35 56t-12.5 77.5v211zM133 168q0 -44 20.5 -71.5t58.5 -27.5q21 0 35 7.5t23 19.5q9 11 14.5 27.5t9 41t5 60.5t1.5 86h-167v-143z" />
    <glyph glyph-name="afii10846" unicode="&#x4d9;" horiz-adv-x="372" 
d="M252 278q0 62 -3.5 99t-17.5 54q-7 10 -18.5 16t-27.5 6q-14 0 -25 -4.5t-21 -15.5t-13.5 -26t-3.5 -34h-81q1 36 10.5 64t31.5 51q37 38 102 38q33 0 58 -9t45 -31q29 -31 37.5 -88.5t8.5 -138.5q0 -82 -8 -139t-37 -88q-20 -22 -45 -31t-57 -9t-57 9t-45 31
q-29 31 -37.5 90.5t-8.5 155.5h213zM121 217q0 -57 4 -87t16 -44q8 -10 18.5 -15.5t27.5 -5.5t27 5.5t18 15.5q12 14 16 44t4 87h-131z" />
    <glyph glyph-name="uni04E2" unicode="&#x4e2;" horiz-adv-x="468" 
d="M318 0v494l-174 -494h-80v712h86v-495l175 495h79v-712h-86zM121 780v58h228v-58h-228z" />
    <glyph glyph-name="uni04E3" unicode="&#x4e3;" horiz-adv-x="408" 
d="M269 0v343l-138 -343h-74v518h81v-343l139 343h74v-518h-82zM90 608v57h229v-57h-229z" />
    <glyph glyph-name="uni04E8" unicode="&#x4e8;" horiz-adv-x="442" 
d="M395 356q0 -74 -1.5 -124.5t-7 -85.5t-16 -58.5t-27.5 -43.5q-21 -24 -50.5 -38t-71.5 -14t-72 14.5t-50 37.5q-17 20 -27.5 43.5t-16 58.5t-7 85.5t-1.5 124.5t1.5 124.5t7 85.5t16 58.5t27.5 43.5q20 23 50 37.5t72 14.5t72 -14.5t50 -37.5q18 -21 28 -44.5t15.5 -58.5
t7 -85t1.5 -124zM279 96q9 12 14.5 28.5t9 42t5 62.5t1.5 90h-176q0 -53 1.5 -90t4.5 -62.5t9 -42t15 -28.5t23 -19.5t35 -7.5t35 7.5t23 19.5zM163 616q-9 -12 -15 -28.5t-9 -42t-4.5 -62t-1.5 -87.5h176q0 51 -1.5 87.5t-5 62t-9 42t-14.5 28.5t-23 19.5t-35 7.5t-35 -7.5
t-23 -19.5z" />
    <glyph glyph-name="uni04E9" unicode="&#x4e9;" horiz-adv-x="376" 
d="M335 259q0 -79 -6.5 -133.5t-30.5 -85.5q-20 -26 -47.5 -37t-62.5 -11t-62 11t-47 37q-24 31 -31 85.5t-7 133.5t7 133.5t31 85.5q20 26 47 37t62 11t62.5 -11t47.5 -37q24 -31 30.5 -85.5t6.5 -133.5zM234 87q13 18 16.5 55t3.5 98h-132q0 -61 3.5 -98t17.5 -55
q16 -22 45 -22q30 0 46 22zM143 431q-12 -17 -16 -48t-5 -82h132q-1 51 -4.5 82t-15.5 48q-16 22 -46 22q-29 0 -45 -22z" />
    <glyph glyph-name="uni04EE" unicode="&#x4ee;" horiz-adv-x="392" 
d="M203 113q-11 -35 -24.5 -57t-33 -34.5t-46 -17t-63.5 -4.5v77q22 0 37.5 3.5t26.5 11.5t19 22.5t14 36.5l23 79l-152 482h94l99 -363l97 363h94zM85 780v58h228v-58h-228z" />
    <glyph glyph-name="uni04EF" unicode="&#x4ef;" horiz-adv-x="345" 
d="M193 -83q-8 -35 -24 -56.5t-38 -33.5t-50 -16.5t-60 -4.5v72q38 0 61 12.5t32 47.5l16 63l-126 517h89l79 -389l78 389h89zM59 608v57h229v-57h-229z" />
    <glyph glyph-name="Wgrave" unicode="&#x1e80;" horiz-adv-x="652" 
d="M526 0h-89l-111 573l-110 -573h-89l-123 712h95l73 -573l106 573h96l108 -573l72 573h94zM301 762l-81 135h74l69 -135h-62z" />
    <glyph glyph-name="wgrave" unicode="&#x1e81;" horiz-adv-x="526" 
d="M413 0h-82l-70 379l-68 -379h-82l-107 518h92l59 -390l69 390h73l73 -390l60 390h92zM240 586l-81 135h74l69 -135h-62z" />
    <glyph glyph-name="Wacute" unicode="&#x1e82;" horiz-adv-x="652" 
d="M526 0h-89l-111 573l-110 -573h-89l-123 712h95l73 -573l106 573h96l108 -573l72 573h94zM351 762h-62l69 135h74z" />
    <glyph glyph-name="wacute" unicode="&#x1e83;" horiz-adv-x="526" 
d="M413 0h-82l-70 379l-68 -379h-82l-107 518h92l59 -390l69 390h73l73 -390l60 390h92zM289 586h-61l68 135h74z" />
    <glyph glyph-name="Wdieresis" unicode="&#x1e84;" horiz-adv-x="652" 
d="M526 0h-89l-111 573l-110 -573h-89l-123 712h95l73 -573l106 573h96l108 -573l72 573h94zM363 777v81h82v-81h-82zM207 777v81h82v-81h-82z" />
    <glyph glyph-name="wdieresis" unicode="&#x1e85;" horiz-adv-x="526" 
d="M413 0h-82l-70 379l-68 -379h-82l-107 518h92l59 -390l69 390h73l73 -390l60 390h92zM301 601v82h81v-82h-81zM144 601v82h82v-82h-82z" />
    <glyph glyph-name="uni1E8A" unicode="&#x1e8a;" horiz-adv-x="403" 
d="M294 0l-93 282l-92 -282h-94l136 370l-125 342h94l81 -260l82 260h94l-129 -342l140 -370h-94zM161 777v81h82v-81h-82z" />
    <glyph glyph-name="uni1E8B" unicode="&#x1e8b;" horiz-adv-x="356" 
d="M253 0l-75 187l-75 -187h-90l118 264l-112 254h90l69 -181l69 181h90l-114 -254l120 -264h-90zM139 604v82h81v-82h-81z" />
    <glyph glyph-name="Ygrave" unicode="&#x1ef2;" horiz-adv-x="353" 
d="M219 288v-288h-86v288l-131 424h94l80 -304l80 304h95zM152 762l-81 135h74l69 -135h-62z" />
    <glyph glyph-name="ygrave" unicode="&#x1ef3;" horiz-adv-x="345" 
d="M193 -83q-8 -35 -24 -56.5t-38 -33.5t-50 -16.5t-60 -4.5v72q38 0 61 12.5t32 47.5l16 63l-126 517h89l79 -389l78 389h89zM149 586l-81 135h74l69 -135h-62z" />
    <glyph glyph-name="uni2007" unicode="&#x2007;" horiz-adv-x="381" 
 />
    <glyph glyph-name="uni2008" unicode="&#x2008;" horiz-adv-x="216" 
 />
    <glyph glyph-name="uni200B" unicode="&#x200b;" horiz-adv-x="0" 
 />
    <glyph glyph-name="endash" unicode="&#x2013;" horiz-adv-x="445" 
d="M46 244v78h352v-78h-352z" />
    <glyph glyph-name="emdash" unicode="&#x2014;" horiz-adv-x="691" 
d="M51 244v78h589v-78h-589z" />
    <glyph glyph-name="afii00208" unicode="&#x2015;" horiz-adv-x="691" 
d="M51 244v78h589v-78h-589z" />
    <glyph glyph-name="quoteleft" unicode="&#x2018;" horiz-adv-x="207" 
d="M57 604v108l93 68v-176h-93z" />
    <glyph glyph-name="quoteright" unicode="&#x2019;" horiz-adv-x="207" 
d="M57 536v176h93v-108z" />
    <glyph glyph-name="quotesinglbase" unicode="&#x201a;" horiz-adv-x="207" 
d="M57 -68v176h93v-108z" />
    <glyph glyph-name="quotedblleft" unicode="&#x201c;" horiz-adv-x="373" 
d="M224 604v108l92 68v-176h-92zM57 604v108l93 68v-176h-93z" />
    <glyph glyph-name="quotedblright" unicode="&#x201d;" horiz-adv-x="373" 
d="M224 536v176h92v-108zM57 536v176h93v-108z" />
    <glyph glyph-name="quotedblbase" unicode="&#x201e;" horiz-adv-x="373" 
d="M224 -79v176h92v-108zM57 -79v176h93v-108z" />
    <glyph glyph-name="dagger" unicode="&#x2020;" horiz-adv-x="443" 
d="M260 450v-450h-77v450h-137v68h137v194h77v-194h136v-68h-136z" />
    <glyph glyph-name="daggerdbl" unicode="&#x2021;" horiz-adv-x="443" 
d="M260 0v-194h-77v194h-137v69h137v381h-137v68h137v194h77v-194h136v-68h-136v-381h136v-69h-136z" />
    <glyph glyph-name="bullet" unicode="&#x2022;" horiz-adv-x="455" 
d="M390 334q0 -34 -13 -63.5t-35 -51.5t-51.5 -35t-63.5 -13t-63.5 13t-51.5 35t-35 51.5t-13 63.5t13 63.5t35 51.5t51.5 35t63.5 13t63.5 -13t51.5 -35t35 -51.5t13 -63.5z" />
    <glyph glyph-name="ellipsis" unicode="&#x2026;" horiz-adv-x="602" 
d="M444 0v99h99v-99h-99zM59 0v99h99v-99h-99zM251 0v99h100v-99h-100z" />
    <glyph glyph-name="perthousand" unicode="&#x2030;" horiz-adv-x="970" 
d="M624 102q0 -53 -32.5 -81.5t-80.5 -28.5t-80.5 28.5t-32.5 81.5v154q0 53 32.5 81.5t80.5 28.5t80.5 -28.5t32.5 -81.5v-154zM919 102q0 -53 -32.5 -81.5t-80.5 -28.5t-80 28.5t-32 81.5v154q0 53 32 81.5t80 28.5t80.5 -28.5t32.5 -81.5v-154zM276 456
q0 -53 -32.5 -81.5t-80.5 -28.5t-80 28.5t-32 81.5v154q0 53 32 81.5t80 28.5t80.5 -28.5t32.5 -81.5v-154zM246 0h-65l248 712h65zM556 254q0 25 -12 38t-33 13t-33 -13t-12 -38v-151q0 -25 12 -38t33 -13t33 13t12 38v151zM851 254q0 25 -12 38t-33 13q-44 0 -44 -51v-151
q0 -51 44 -51q21 0 33 13t12 38v151zM208 609q0 25 -12 38t-33 13q-44 0 -44 -51v-151q0 -51 44 -51q21 0 33 13t12 38v151z" />
    <glyph glyph-name="guilsinglleft" unicode="&#x2039;" horiz-adv-x="225" 
d="M26 272l149 229v-127l-68 -102l68 -103v-127z" />
    <glyph glyph-name="guilsinglright" unicode="&#x203a;" horiz-adv-x="225" 
d="M51 42v127l68 103l-68 102v127l148 -229z" />
    <glyph glyph-name="fraction" unicode="&#x2044;" horiz-adv-x="171" 
d="M-6 0h-64l246 712h65z" />
    <glyph glyph-name="uni2070" unicode="&#x2070;" horiz-adv-x="301" 
d="M259 377q0 -24 -8 -41.5t-22 -30.5q-13 -12 -35 -18.5t-44 -6.5q-21 0 -43.5 6.5t-35.5 18.5q-14 13 -21.5 30.5t-7.5 41.5v243q0 25 7.5 42.5t21.5 29.5q13 12 34.5 18.5t44.5 6.5q24 0 45 -6.5t35 -18.5t21.5 -29.5t7.5 -42.5v-243zM199 622q0 24 -13.5 35t-35.5 11
q-21 0 -34.5 -11t-13.5 -35v-247q0 -24 14 -35t35 -11t34.5 11t13.5 35v247z" />
    <glyph glyph-name="uni2074" unicode="&#x2074;" horiz-adv-x="300" 
d="M236 348v-63h-60v63h-148v49l117 315h59l-115 -315h87v87h60v-87h32v-49h-32z" />
    <glyph glyph-name="uni2075" unicode="&#x2075;" horiz-adv-x="300" 
d="M260 424q0 -45 -6 -72t-27 -46q-14 -12 -34 -19t-42 -7t-41.5 6t-33.5 19q-14 12 -21.5 28.5t-7.5 42.5v21h66v-22q0 -23 11 -34.5t27 -11.5q24 0 34 13q8 9 11.5 26.5t3.5 55.5t-3.5 55t-11.5 26q-5 6 -12.5 9t-20.5 3q-17 0 -28 -10.5t-11 -29.5v-11h-63v246h203v-49
h-143v-122q11 11 26 20q14 8 36 8q23 0 38 -7t26 -19q6 -7 10.5 -16t7.5 -22.5t4.5 -33t1.5 -47.5z" />
    <glyph glyph-name="uni2076" unicode="&#x2076;" horiz-adv-x="300" 
d="M253 414q0 -42 -5.5 -63t-17.5 -37q-14 -18 -35.5 -26t-47.5 -8q-28 0 -48.5 9t-32.5 25q-14 18 -18.5 40t-4.5 60q0 29 5 55t13 47l78 196h67l-73 -174q12 8 32 8q40 0 63 -26q13 -15 19 -36.5t6 -69.5zM193 416q0 61 -14 76q-11 11 -31 11t-31 -11q-8 -8 -11 -26
t-3 -50t3 -50t11 -26q11 -11 31 -11q11 0 18.5 3t12.5 8q14 15 14 76z" />
    <glyph glyph-name="uni2077" unicode="&#x2077;" horiz-adv-x="300" 
d="M156 285h-62l104 378h-103v-65h-57v114h222v-50z" />
    <glyph glyph-name="uni2078" unicode="&#x2078;" horiz-adv-x="300" 
d="M254 406q0 -35 -5.5 -58.5t-25.5 -41.5q-28 -26 -74 -26q-21 0 -41 6.5t-33 19.5q-21 18 -26 41.5t-5 58.5q0 27 2.5 44.5t11.5 31.5q11 16 28 27q-18 12 -26 26t-10.5 29t-2.5 38q0 32 6.5 53t23.5 38q28 24 72 24q21 0 39.5 -6t32.5 -18q18 -17 24 -38t6 -53
q0 -23 -2.5 -38t-10.5 -29q-8 -15 -25 -26q9 -6 16.5 -12.5t12.5 -14.5q8 -14 10 -31.5t2 -44.5zM194 406q0 29 -2.5 43.5t-9.5 22.5q-13 11 -33 11t-33 -11q-8 -8 -10 -21.5t-2 -44.5t2 -44t10 -21q12 -12 33 -12t33 12q7 8 9.5 21t2.5 44zM191 600q0 28 -3 40t-9 18
q-10 10 -30 10q-19 0 -29 -10q-7 -6 -9.5 -18t-2.5 -40q0 -27 2.5 -39t9.5 -18q9 -10 29 -10q21 0 30 10q6 6 9 18t3 39z" />
    <glyph glyph-name="uni2079" unicode="&#x2079;" horiz-adv-x="300" 
d="M254 583q0 -29 -5 -55t-13 -47l-78 -196h-67l73 174q-12 -8 -32 -8q-41 0 -63 26q-14 15 -20 36.5t-6 69.5q0 42 6 63t17 37q14 18 35.5 26t47.5 8q28 0 49 -9t32 -25q14 -18 19 -40t5 -60zM194 581q0 61 -15 76q-9 11 -31 11q-19 0 -30 -11q-15 -15 -15 -76t15 -76
q5 -5 12 -8t18 -3q22 0 31 11q15 15 15 76z" />
    <glyph glyph-name="uni2080" unicode="&#x2080;" horiz-adv-x="301" 
d="M259 -58q0 -24 -8 -41.5t-22 -30.5q-13 -12 -35 -18.5t-44 -6.5q-21 0 -43.5 6.5t-35.5 18.5q-14 13 -21.5 30.5t-7.5 41.5v243q0 25 7.5 42.5t21.5 29.5q13 12 34.5 18.5t44.5 6.5q24 0 45 -6.5t35 -18.5t21.5 -29.5t7.5 -42.5v-243zM199 187q0 24 -13.5 35t-35.5 11
q-21 0 -34.5 -11t-13.5 -35v-247q0 -24 14 -35t35 -11t34.5 11t13.5 35v247z" />
    <glyph glyph-name="uni2081" unicode="&#x2081;" horiz-adv-x="300" 
d="M139 -150v364l-72 -47v61l72 49h60v-427h-60z" />
    <glyph glyph-name="uni2082" unicode="&#x2082;" horiz-adv-x="299" 
d="M43 -150v47l135 210q11 17 17 34.5t6 41.5q0 23 -14 36.5t-37 13.5q-49 0 -49 -56v-24h-61v22q0 29 7 47.5t23 32.5q32 27 80 27q47 0 78 -24q15 -12 24 -31.5t9 -45.5q0 -48 -30 -95l-121 -187h151v-49h-218z" />
    <glyph glyph-name="uni2083" unicode="&#x2083;" horiz-adv-x="299" 
d="M263 -33q0 -35 -5.5 -56.5t-25.5 -39.5q-14 -12 -35.5 -19t-44.5 -7q-52 0 -82 27q-14 13 -21 31t-7 52v15h61v-16q0 -20 2.5 -30t10.5 -17q15 -13 36 -13q24 0 35 13q8 8 12 21.5t4 41.5q0 29 -3 41.5t-10 21.5q-15 16 -39 16h-26v47h26q20 0 34 12q11 11 13 26t2 35
q0 19 -3 31.5t-12 20.5q-12 12 -33 12q-23 0 -35 -13q-7 -7 -9.5 -17.5t-2.5 -24.5v-19h-61v17q0 30 7 48t21 31q15 13 34.5 20t45.5 7q27 0 46 -7t32 -19q31 -30 31 -86q0 -23 -3.5 -39.5t-13.5 -30.5q-13 -18 -35 -28q23 -9 38 -30q8 -13 12 -29.5t4 -45.5z" />
    <glyph glyph-name="uni2084" unicode="&#x2084;" horiz-adv-x="300" 
d="M236 -87v-63h-60v63h-148v49l117 315h59l-115 -315h87v87h60v-87h32v-49h-32z" />
    <glyph glyph-name="uni2085" unicode="&#x2085;" horiz-adv-x="300" 
d="M260 -11q0 -45 -6 -72t-27 -46q-14 -12 -34 -19t-42 -7t-41.5 6t-33.5 19q-14 12 -21.5 28.5t-7.5 42.5v21h66v-22q0 -23 11 -34.5t27 -11.5q24 0 34 13q8 9 11.5 26.5t3.5 55.5t-3.5 55t-11.5 26q-5 6 -12.5 9t-20.5 3q-17 0 -28 -10.5t-11 -29.5v-11h-63v246h203v-49
h-143v-122q11 11 26 20q14 8 36 8q23 0 38 -7t26 -19q6 -7 10.5 -16t7.5 -22.5t4.5 -33t1.5 -47.5z" />
    <glyph glyph-name="uni2086" unicode="&#x2086;" horiz-adv-x="300" 
d="M253 -21q0 -42 -5.5 -63t-17.5 -37q-14 -18 -35.5 -26t-47.5 -8q-28 0 -48.5 9t-32.5 25q-14 18 -18.5 40t-4.5 60q0 29 5 55t13 47l78 196h67l-73 -174q12 8 32 8q40 0 63 -26q13 -15 19 -36.5t6 -69.5zM193 -19q0 61 -14 76q-11 11 -31 11t-31 -11q-8 -8 -11 -26
t-3 -50t3 -50t11 -26q11 -11 31 -11q11 0 18.5 3t12.5 8q14 15 14 76z" />
    <glyph glyph-name="uni2087" unicode="&#x2087;" horiz-adv-x="300" 
d="M156 -150h-62l104 378h-103v-65h-57v114h222v-50z" />
    <glyph glyph-name="uni2088" unicode="&#x2088;" horiz-adv-x="300" 
d="M254 -29q0 -35 -5.5 -58.5t-25.5 -41.5q-28 -26 -74 -26q-21 0 -41 6.5t-33 19.5q-21 18 -26 41.5t-5 58.5q0 27 2.5 44.5t11.5 31.5q11 16 28 27q-18 12 -26 26t-10.5 29t-2.5 38q0 32 6.5 53t23.5 38q28 24 72 24q21 0 39.5 -6t32.5 -18q18 -17 24 -38t6 -53
q0 -23 -2.5 -38t-10.5 -29q-8 -15 -25 -26q9 -6 16.5 -12.5t12.5 -14.5q8 -14 10 -31.5t2 -44.5zM194 -29q0 29 -2.5 43.5t-9.5 22.5q-13 11 -33 11t-33 -11q-8 -8 -10 -21.5t-2 -44.5t2 -44t10 -21q12 -12 33 -12t33 12q7 8 9.5 21t2.5 44zM191 165q0 28 -3 40t-9 18
q-10 10 -30 10q-19 0 -29 -10q-7 -6 -9.5 -18t-2.5 -40q0 -27 2.5 -39t9.5 -18q9 -10 29 -10q21 0 30 10q6 6 9 18t3 39z" />
    <glyph glyph-name="uni2089" unicode="&#x2089;" horiz-adv-x="300" 
d="M254 148q0 -29 -5 -55t-13 -47l-78 -196h-67l73 174q-12 -8 -32 -8q-41 0 -63 26q-14 15 -20 36.5t-6 69.5q0 42 6 63t17 37q14 18 35.5 26t47.5 8q28 0 49 -9t32 -25q14 -18 19 -40t5 -60zM194 146q0 61 -15 76q-9 11 -31 11q-19 0 -30 -11q-15 -15 -15 -76t15 -76
q5 -5 12 -8t18 -3q22 0 31 11q15 15 15 76z" />
    <glyph glyph-name="Euro" unicode="&#x20ac;" horiz-adv-x="474" 
d="M431 176q-1 -45 -15 -83t-40 -62q-21 -20 -47.5 -29.5t-62.5 -9.5q-43 0 -72.5 14t-49.5 37q-13 14 -22 31.5t-15 41.5t-9 56t-4 77h-61v62h59v90h-59v62h61q1 45 4 77t9 56t15 41.5t22 31.5q20 23 49.5 37t72.5 14q37 0 64.5 -11t48.5 -31q25 -24 38 -60.5t14 -81.5h-86
q0 20 -3.5 39t-12.5 34t-24 24.5t-39 9.5q-21 0 -35.5 -7.5t-23.5 -19.5q-7 -9 -12 -20t-8 -28t-5 -42t-2 -63h120v-62h-121v-90h121v-62h-120q0 -38 2 -63t5 -42t8 -28t12 -20q9 -11 23.5 -19t35.5 -8q24 0 39 9.5t24 24.5t12.5 34t3.5 39h86z" />
    <glyph glyph-name="uni20B4" unicode="&#x20b4;" horiz-adv-x="420" 
d="M8 401v62h267q7 12 9 29t2 42q0 57 -25 85q-9 10 -22.5 16t-32.5 6q-39 0 -58 -24q-14 -17 -18 -37t-4 -49h-86q0 49 10 84.5t37 61.5q20 20 49.5 30.5t68.5 10.5q69 0 113 -41q27 -25 40.5 -62t13.5 -84q0 -20 -1.5 -37t-3.5 -31h35v-62h-59q-21 -30 -68 -48l-81 -33
q-11 -4 -19 -9h227v-62h-274q-2 -12 -3 -27t-1 -33q0 -35 4.5 -57t18.5 -38q10 -11 24.5 -17t36.5 -6q20 0 35 6t24 16q14 15 19 36.5t5 56.5h86q0 -57 -9.5 -91t-34.5 -59q-43 -43 -125 -43q-43 0 -74.5 11.5t-51.5 31.5q-26 26 -35 62.5t-9 92.5q0 16 0.5 30t1.5 28h-32
v62h46q11 26 31 43.5t53 31.5l36 15h-166z" />
    <glyph glyph-name="afii61352" unicode="&#x2116;" horiz-adv-x="706" 
d="M653 541q0 -52 -4 -86.5t-21 -55.5q-27 -34 -77 -34t-77 34q-17 21 -21.5 55.5t-4.5 86.5q0 51 4.5 86t21.5 56q26 33 77 33q24 0 43.5 -8t33.5 -25q17 -21 21 -56t4 -86zM590 541q0 41 -2.5 68.5t-10.5 40.5q-9 15 -26 15q-18 0 -27 -15q-8 -13 -10 -40.5t-2 -68.5
t2 -68.5t10 -41.5t27 -14q17 0 25 14t11 41.5t3 68.5zM456 277v53h194v-53h-194zM320 0l-172 488v-488h-84v712h77l171 -488v488h84v-712h-76z" />
    <glyph glyph-name="trademark" unicode="&#x2122;" horiz-adv-x="616" 
d="M506 279v292l-65 -188h-35l-64 184v-288h-57v433h53l86 -233l86 233h53v-433h-57zM158 660v-381h-56v381h-73v52h202v-52h-73z" />
    <glyph glyph-name="Omega" unicode="&#x2126;" horiz-adv-x="460" 
d="M255 0v64q17 8 30.5 22t19.5 36q8 31 10 86t2 148q0 68 -1 113t-4.5 73.5t-9 45t-14.5 28.5t-23.5 19.5t-34.5 7.5t-34.5 -7.5t-23.5 -19.5t-15 -28.5t-9 -45t-4.5 -73.5t-1.5 -113q0 -93 2 -148t10 -86q6 -22 20 -36t30 -22v-64h-152v72h64q-12 8 -22 18.5t-17 27.5
q-14 32 -17 90t-3 148q0 72 1.5 122.5t6.5 86.5t15.5 60t27.5 44q20 23 49.5 37t72.5 14t72.5 -14t49.5 -37q17 -20 27 -44t15.5 -60t7 -86.5t1.5 -122.5q0 -90 -3 -148t-17 -90q-7 -17 -17.5 -27.5t-22.5 -18.5h65v-72h-153z" />
    <glyph glyph-name="uni2150" unicode="&#x2150;" horiz-adv-x="771" 
d="M139 285v364l-72 -47v61l72 49h60v-427h-60zM294 0h-64l246 712h65zM627 0h-62l104 378h-103v-65h-57v114h222v-50z" />
    <glyph glyph-name="uni2151" unicode="&#x2151;" horiz-adv-x="771" 
d="M139 285v364l-72 -47v61l72 49h60v-427h-60zM294 0h-64l246 712h65zM725 298q0 -29 -5 -55t-13 -47l-78 -196h-67l73 174q-12 -8 -32 -8q-41 0 -63 26q-14 15 -20 36.5t-6 69.5q0 42 6 63t17 37q14 18 35.5 26t47.5 8q28 0 49 -9t32 -25q14 -18 19 -40t5 -60zM665 296
q0 61 -15 76q-9 11 -31 11q-19 0 -30 -11q-15 -15 -15 -76t15 -76q5 -5 12 -8t18 -3q22 0 31 11q15 15 15 76z" />
    <glyph glyph-name="uni2152" unicode="&#x2152;" horiz-adv-x="1072" 
d="M139 285v364l-72 -47v61l72 49h60v-427h-60zM294 0h-64l246 712h65zM610 0v364l-72 -47v61l72 49h60v-427h-60zM1030 92q0 -24 -8 -41.5t-22 -30.5q-13 -12 -35 -18.5t-44 -6.5q-21 0 -43.5 6.5t-35.5 18.5q-14 13 -21.5 30.5t-7.5 41.5v243q0 25 7.5 42.5t21.5 29.5
q13 12 34.5 18.5t44.5 6.5q24 0 45 -6.5t35 -18.5t21.5 -29.5t7.5 -42.5v-243zM970 337q0 24 -13.5 35t-35.5 11q-21 0 -34.5 -11t-13.5 -35v-247q0 -24 14 -35t35 -11t34.5 11t13.5 35v247z" />
    <glyph glyph-name="onethird" unicode="&#x2153;" horiz-adv-x="770" 
d="M139 285v364l-72 -47v61l72 49h60v-427h-60zM294 0h-64l246 712h65zM734 117q0 -35 -5.5 -56.5t-25.5 -39.5q-14 -12 -35.5 -19t-44.5 -7q-52 0 -82 27q-14 13 -21 31t-7 52v15h61v-16q0 -20 2.5 -30t10.5 -17q15 -13 36 -13q24 0 35 13q8 8 12 21.5t4 41.5q0 29 -3 41.5
t-10 21.5q-15 16 -39 16h-26v47h26q20 0 34 12q11 11 13 26t2 35q0 19 -3 31.5t-12 20.5q-12 12 -33 12q-23 0 -35 -13q-7 -7 -9.5 -17.5t-2.5 -24.5v-19h-61v17q0 30 7 48t21 31q15 13 34.5 20t45.5 7q27 0 46 -7t32 -19q31 -30 31 -86q0 -23 -3.5 -39.5t-13.5 -30.5
q-13 -18 -35 -28q23 -9 38 -30q8 -13 12 -29.5t4 -45.5z" />
    <glyph glyph-name="twothirds" unicode="&#x2154;" horiz-adv-x="769" 
d="M43 285v47l135 210q11 17 17 34.5t6 41.5q0 23 -14 36.5t-37 13.5q-49 0 -49 -56v-24h-61v22q0 29 7 47.5t23 32.5q32 27 80 27q47 0 78 -24q15 -12 24 -31.5t9 -45.5q0 -48 -30 -95l-121 -187h151v-49h-218zM293 0h-64l246 712h65zM733 117q0 -35 -5.5 -56.5
t-25.5 -39.5q-14 -12 -35.5 -19t-44.5 -7q-52 0 -82 27q-14 13 -21 31t-7 52v15h61v-16q0 -20 2.5 -30t10.5 -17q15 -13 36 -13q24 0 35 13q8 8 12 21.5t4 41.5q0 29 -3 41.5t-10 21.5q-15 16 -39 16h-26v47h26q20 0 34 12q11 11 13 26t2 35q0 19 -3 31.5t-12 20.5
q-12 12 -33 12q-23 0 -35 -13q-7 -7 -9.5 -17.5t-2.5 -24.5v-19h-61v17q0 30 7 48t21 31q15 13 34.5 20t45.5 7q27 0 46 -7t32 -19q31 -30 31 -86q0 -23 -3.5 -39.5t-13.5 -30.5q-13 -18 -35 -28q23 -9 38 -30q8 -13 12 -29.5t4 -45.5z" />
    <glyph glyph-name="uni2155" unicode="&#x2155;" horiz-adv-x="771" 
d="M139 285v364l-72 -47v61l72 49h60v-427h-60zM294 0h-64l246 712h65zM731 139q0 -45 -6 -72t-27 -46q-14 -12 -34 -19t-42 -7t-41.5 6t-33.5 19q-14 12 -21.5 28.5t-7.5 42.5v21h66v-22q0 -23 11 -34.5t27 -11.5q24 0 34 13q8 9 11.5 26.5t3.5 55.5t-3.5 55t-11.5 26
q-5 6 -12.5 9t-20.5 3q-17 0 -28 -10.5t-11 -29.5v-11h-63v246h203v-49h-143v-122q11 11 26 20q14 8 36 8q23 0 38 -7t26 -19q6 -7 10.5 -16t7.5 -22.5t4.5 -33t1.5 -47.5z" />
    <glyph glyph-name="uni2156" unicode="&#x2156;" horiz-adv-x="770" 
d="M43 285v47l135 210q11 17 17 34.5t6 41.5q0 23 -14 36.5t-37 13.5q-49 0 -49 -56v-24h-61v22q0 29 7 47.5t23 32.5q32 27 80 27q47 0 78 -24q15 -12 24 -31.5t9 -45.5q0 -48 -30 -95l-121 -187h151v-49h-218zM293 0h-64l246 712h65zM730 139q0 -45 -6 -72t-27 -46
q-14 -12 -34 -19t-42 -7t-41.5 6t-33.5 19q-14 12 -21.5 28.5t-7.5 42.5v21h66v-22q0 -23 11 -34.5t27 -11.5q24 0 34 13q8 9 11.5 26.5t3.5 55.5t-3.5 55t-11.5 26q-5 6 -12.5 9t-20.5 3q-17 0 -28 -10.5t-11 -29.5v-11h-63v246h203v-49h-143v-122q11 11 26 20q14 8 36 8
q23 0 38 -7t26 -19q6 -7 10.5 -16t7.5 -22.5t4.5 -33t1.5 -47.5z" />
    <glyph glyph-name="uni2157" unicode="&#x2157;" horiz-adv-x="770" 
d="M263 402q0 -35 -5.5 -56.5t-25.5 -39.5q-14 -12 -35.5 -19t-44.5 -7q-52 0 -82 27q-14 13 -21 31t-7 52v15h61v-16q0 -20 2.5 -30t10.5 -17q15 -13 36 -13q24 0 35 13q8 8 12 21.5t4 41.5q0 29 -3 41.5t-10 21.5q-15 16 -39 16h-26v47h26q20 0 34 12q11 11 13 26t2 35
q0 19 -3 31.5t-12 20.5q-12 12 -33 12q-23 0 -35 -13q-7 -7 -9.5 -17.5t-2.5 -24.5v-19h-61v17q0 30 7 48t21 31q15 13 34.5 20t45.5 7q27 0 46 -7t32 -19q31 -30 31 -86q0 -23 -3.5 -39.5t-13.5 -30.5q-13 -18 -35 -28q23 -9 38 -30q8 -13 12 -29.5t4 -45.5zM293 0h-64
l246 712h65zM730 139q0 -45 -6 -72t-27 -46q-14 -12 -34 -19t-42 -7t-41.5 6t-33.5 19q-14 12 -21.5 28.5t-7.5 42.5v21h66v-22q0 -23 11 -34.5t27 -11.5q24 0 34 13q8 9 11.5 26.5t3.5 55.5t-3.5 55t-11.5 26q-5 6 -12.5 9t-20.5 3q-17 0 -28 -10.5t-11 -29.5v-11h-63v246
h203v-49h-143v-122q11 11 26 20q14 8 36 8q23 0 38 -7t26 -19q6 -7 10.5 -16t7.5 -22.5t4.5 -33t1.5 -47.5z" />
    <glyph glyph-name="uni2158" unicode="&#x2158;" horiz-adv-x="771" 
d="M236 348v-63h-60v63h-148v49l117 315h59l-115 -315h87v87h60v-87h32v-49h-32zM294 0h-64l246 712h65zM731 139q0 -45 -6 -72t-27 -46q-14 -12 -34 -19t-42 -7t-41.5 6t-33.5 19q-14 12 -21.5 28.5t-7.5 42.5v21h66v-22q0 -23 11 -34.5t27 -11.5q24 0 34 13q8 9 11.5 26.5
t3.5 55.5t-3.5 55t-11.5 26q-5 6 -12.5 9t-20.5 3q-17 0 -28 -10.5t-11 -29.5v-11h-63v246h203v-49h-143v-122q11 11 26 20q14 8 36 8q23 0 38 -7t26 -19q6 -7 10.5 -16t7.5 -22.5t4.5 -33t1.5 -47.5z" />
    <glyph glyph-name="uni2159" unicode="&#x2159;" horiz-adv-x="771" 
d="M139 285v364l-72 -47v61l72 49h60v-427h-60zM294 0h-64l246 712h65zM724 129q0 -42 -5.5 -63t-17.5 -37q-14 -18 -35.5 -26t-47.5 -8q-28 0 -48.5 9t-32.5 25q-14 18 -18.5 40t-4.5 60q0 29 5 55t13 47l78 196h67l-73 -174q12 8 32 8q40 0 63 -26q13 -15 19 -36.5
t6 -69.5zM664 131q0 61 -14 76q-11 11 -31 11t-31 -11q-8 -8 -11 -26t-3 -50t3 -50t11 -26q11 -11 31 -11q11 0 18.5 3t12.5 8q14 15 14 76z" />
    <glyph glyph-name="uni215A" unicode="&#x215a;" horiz-adv-x="771" 
d="M260 424q0 -45 -6 -72t-27 -46q-14 -12 -34 -19t-42 -7t-41.5 6t-33.5 19q-14 12 -21.5 28.5t-7.5 42.5v21h66v-22q0 -23 11 -34.5t27 -11.5q24 0 34 13q8 9 11.5 26.5t3.5 55.5t-3.5 55t-11.5 26q-5 6 -12.5 9t-20.5 3q-17 0 -28 -10.5t-11 -29.5v-11h-63v246h203v-49
h-143v-122q11 11 26 20q14 8 36 8q23 0 38 -7t26 -19q6 -7 10.5 -16t7.5 -22.5t4.5 -33t1.5 -47.5zM294 0h-64l246 712h65zM724 129q0 -42 -5.5 -63t-17.5 -37q-14 -18 -35.5 -26t-47.5 -8q-28 0 -48.5 9t-32.5 25q-14 18 -18.5 40t-4.5 60q0 29 5 55t13 47l78 196h67
l-73 -174q12 8 32 8q40 0 63 -26q13 -15 19 -36.5t6 -69.5zM664 131q0 61 -14 76q-11 11 -31 11t-31 -11q-8 -8 -11 -26t-3 -50t3 -50t11 -26q11 -11 31 -11q11 0 18.5 3t12.5 8q14 15 14 76z" />
    <glyph glyph-name="oneeighth" unicode="&#x215b;" horiz-adv-x="771" 
d="M139 285v364l-72 -47v61l72 49h60v-427h-60zM294 0h-64l246 712h65zM725 121q0 -35 -5.5 -58.5t-25.5 -41.5q-28 -26 -74 -26q-21 0 -41 6.5t-33 19.5q-21 18 -26 41.5t-5 58.5q0 27 2.5 44.5t11.5 31.5q11 16 28 27q-18 12 -26 26t-10.5 29t-2.5 38q0 32 6.5 53t23.5 38
q28 24 72 24q21 0 39.5 -6t32.5 -18q18 -17 24 -38t6 -53q0 -23 -2.5 -38t-10.5 -29q-8 -15 -25 -26q9 -6 16.5 -12.5t12.5 -14.5q8 -14 10 -31.5t2 -44.5zM665 121q0 29 -2.5 43.5t-9.5 22.5q-13 11 -33 11t-33 -11q-8 -8 -10 -21.5t-2 -44.5t2 -44t10 -21q12 -12 33 -12
t33 12q7 8 9.5 21t2.5 44zM662 315q0 28 -3 40t-9 18q-10 10 -30 10q-19 0 -29 -10q-7 -6 -9.5 -18t-2.5 -40q0 -27 2.5 -39t9.5 -18q9 -10 29 -10q21 0 30 10q6 6 9 18t3 39z" />
    <glyph glyph-name="threeeighths" unicode="&#x215c;" horiz-adv-x="770" 
d="M263 402q0 -35 -5.5 -56.5t-25.5 -39.5q-14 -12 -35.5 -19t-44.5 -7q-52 0 -82 27q-14 13 -21 31t-7 52v15h61v-16q0 -20 2.5 -30t10.5 -17q15 -13 36 -13q24 0 35 13q8 8 12 21.5t4 41.5q0 29 -3 41.5t-10 21.5q-15 16 -39 16h-26v47h26q20 0 34 12q11 11 13 26t2 35
q0 19 -3 31.5t-12 20.5q-12 12 -33 12q-23 0 -35 -13q-7 -7 -9.5 -17.5t-2.5 -24.5v-19h-61v17q0 30 7 48t21 31q15 13 34.5 20t45.5 7q27 0 46 -7t32 -19q31 -30 31 -86q0 -23 -3.5 -39.5t-13.5 -30.5q-13 -18 -35 -28q23 -9 38 -30q8 -13 12 -29.5t4 -45.5zM293 0h-64
l246 712h65zM724 121q0 -35 -5.5 -58.5t-25.5 -41.5q-28 -26 -74 -26q-21 0 -41 6.5t-33 19.5q-21 18 -26 41.5t-5 58.5q0 27 2.5 44.5t11.5 31.5q11 16 28 27q-18 12 -26 26t-10.5 29t-2.5 38q0 32 6.5 53t23.5 38q28 24 72 24q21 0 39.5 -6t32.5 -18q18 -17 24 -38t6 -53
q0 -23 -2.5 -38t-10.5 -29q-8 -15 -25 -26q9 -6 16.5 -12.5t12.5 -14.5q8 -14 10 -31.5t2 -44.5zM664 121q0 29 -2.5 43.5t-9.5 22.5q-13 11 -33 11t-33 -11q-8 -8 -10 -21.5t-2 -44.5t2 -44t10 -21q12 -12 33 -12t33 12q7 8 9.5 21t2.5 44zM661 315q0 28 -3 40t-9 18
q-10 10 -30 10q-19 0 -29 -10q-7 -6 -9.5 -18t-2.5 -40q0 -27 2.5 -39t9.5 -18q9 -10 29 -10q21 0 30 10q6 6 9 18t3 39z" />
    <glyph glyph-name="fiveeighths" unicode="&#x215d;" horiz-adv-x="771" 
d="M260 424q0 -45 -6 -72t-27 -46q-14 -12 -34 -19t-42 -7t-41.5 6t-33.5 19q-14 12 -21.5 28.5t-7.5 42.5v21h66v-22q0 -23 11 -34.5t27 -11.5q24 0 34 13q8 9 11.5 26.5t3.5 55.5t-3.5 55t-11.5 26q-5 6 -12.5 9t-20.5 3q-17 0 -28 -10.5t-11 -29.5v-11h-63v246h203v-49
h-143v-122q11 11 26 20q14 8 36 8q23 0 38 -7t26 -19q6 -7 10.5 -16t7.5 -22.5t4.5 -33t1.5 -47.5zM294 0h-64l246 712h65zM725 121q0 -35 -5.5 -58.5t-25.5 -41.5q-28 -26 -74 -26q-21 0 -41 6.5t-33 19.5q-21 18 -26 41.5t-5 58.5q0 27 2.5 44.5t11.5 31.5q11 16 28 27
q-18 12 -26 26t-10.5 29t-2.5 38q0 32 6.5 53t23.5 38q28 24 72 24q21 0 39.5 -6t32.5 -18q18 -17 24 -38t6 -53q0 -23 -2.5 -38t-10.5 -29q-8 -15 -25 -26q9 -6 16.5 -12.5t12.5 -14.5q8 -14 10 -31.5t2 -44.5zM665 121q0 29 -2.5 43.5t-9.5 22.5q-13 11 -33 11t-33 -11
q-8 -8 -10 -21.5t-2 -44.5t2 -44t10 -21q12 -12 33 -12t33 12q7 8 9.5 21t2.5 44zM662 315q0 28 -3 40t-9 18q-10 10 -30 10q-19 0 -29 -10q-7 -6 -9.5 -18t-2.5 -40q0 -27 2.5 -39t9.5 -18q9 -10 29 -10q21 0 30 10q6 6 9 18t3 39z" />
    <glyph glyph-name="seveneighths" unicode="&#x215e;" horiz-adv-x="771" 
d="M156 285h-62l104 378h-103v-65h-57v114h222v-50zM294 0h-64l246 712h65zM725 121q0 -35 -5.5 -58.5t-25.5 -41.5q-28 -26 -74 -26q-21 0 -41 6.5t-33 19.5q-21 18 -26 41.5t-5 58.5q0 27 2.5 44.5t11.5 31.5q11 16 28 27q-18 12 -26 26t-10.5 29t-2.5 38q0 32 6.5 53
t23.5 38q28 24 72 24q21 0 39.5 -6t32.5 -18q18 -17 24 -38t6 -53q0 -23 -2.5 -38t-10.5 -29q-8 -15 -25 -26q9 -6 16.5 -12.5t12.5 -14.5q8 -14 10 -31.5t2 -44.5zM665 121q0 29 -2.5 43.5t-9.5 22.5q-13 11 -33 11t-33 -11q-8 -8 -10 -21.5t-2 -44.5t2 -44t10 -21
q12 -12 33 -12t33 12q7 8 9.5 21t2.5 44zM662 315q0 28 -3 40t-9 18q-10 10 -30 10q-19 0 -29 -10q-7 -6 -9.5 -18t-2.5 -40q0 -27 2.5 -39t9.5 -18q9 -10 29 -10q21 0 30 10q6 6 9 18t3 39z" />
    <glyph glyph-name="uni215F" unicode="&#x215f;" horiz-adv-x="471" 
d="M139 285v364l-72 -47v61l72 49h60v-427h-60zM294 0h-64l246 712h65z" />
    <glyph glyph-name="uni2189" unicode="&#x2189;" horiz-adv-x="771" 
d="M259 377q0 -24 -8 -41.5t-22 -30.5q-13 -12 -35 -18.5t-44 -6.5q-21 0 -43.5 6.5t-35.5 18.5q-14 13 -21.5 30.5t-7.5 41.5v243q0 25 7.5 42.5t21.5 29.5q13 12 34.5 18.5t44.5 6.5q24 0 45 -6.5t35 -18.5t21.5 -29.5t7.5 -42.5v-243zM199 622q0 24 -13.5 35t-35.5 11
q-21 0 -34.5 -11t-13.5 -35v-247q0 -24 14 -35t35 -11t34.5 11t13.5 35v247zM295 0h-64l246 712h65zM735 117q0 -35 -5.5 -56.5t-25.5 -39.5q-14 -12 -35.5 -19t-44.5 -7q-52 0 -82 27q-14 13 -21 31t-7 52v15h61v-16q0 -20 2.5 -30t10.5 -17q15 -13 36 -13q24 0 35 13
q8 8 12 21.5t4 41.5q0 29 -3 41.5t-10 21.5q-15 16 -39 16h-26v47h26q20 0 34 12q11 11 13 26t2 35q0 19 -3 31.5t-12 20.5q-12 12 -33 12q-23 0 -35 -13q-7 -7 -9.5 -17.5t-2.5 -24.5v-19h-61v17q0 30 7 48t21 31q15 13 34.5 20t45.5 7q27 0 46 -7t32 -19q31 -30 31 -86
q0 -23 -3.5 -39.5t-13.5 -30.5q-13 -18 -35 -28q23 -9 38 -30q8 -13 12 -29.5t4 -45.5z" />
    <glyph glyph-name="arrowleft" unicode="&#x2190;" horiz-adv-x="676" 
d="M170 238l212 -211h-106l-250 250l250 249h106l-212 -210h454v-78h-454z" />
    <glyph glyph-name="arrowup" unicode="&#x2191;" horiz-adv-x="676" 
d="M377 442v-454h-78v454l-210 -212v106l249 250l249 -250v-106z" />
    <glyph glyph-name="arrowright" unicode="&#x2192;" horiz-adv-x="676" 
d="M399 27h-105l212 211h-455v78h455l-212 210h105l250 -249z" />
    <glyph glyph-name="arrowdown" unicode="&#x2193;" horiz-adv-x="676" 
d="M338 -32l-249 249v106l210 -212v455h78v-455l210 212v-106z" />
    <glyph glyph-name="uni2196" unicode="&#x2196;" horiz-adv-x="676" 
d="M255 424l322 -321l-56 -56l-321 322l1 -299l-75 75v352h353l75 -74z" />
    <glyph glyph-name="uni2197" unicode="&#x2197;" horiz-adv-x="676" 
d="M476 369l-322 -322l-55 56l321 321l-298 -1l74 75h353v-353l-74 -75z" />
    <glyph glyph-name="uni2198" unicode="&#x2198;" horiz-adv-x="676" 
d="M548 55h-352l-75 76l299 -2l-321 322l55 54l321 -320l-1 298l75 -75z" />
    <glyph glyph-name="uni2199" unicode="&#x2199;" horiz-adv-x="676" 
d="M127 55v353l75 75l-2 -298l322 320l55 -54l-321 -322l298 1l-75 -75h-352z" />
    <glyph glyph-name="partialdiff" unicode="&#x2202;" horiz-adv-x="387" 
d="M332 259q0 -78 -6.5 -133t-31.5 -86q-20 -26 -47 -37t-60 -11q-34 0 -60.5 11t-46.5 35q-25 29 -32 81t-7 128q0 87 6.5 139t31.5 80q17 20 38.5 28.5t48.5 8.5q30 0 54 -15q8 -5 17.5 -13.5t13.5 -14.5v87q0 32 -4.5 49t-12.5 28q-18 22 -49 22q-38 0 -65 -30l-54 51
q23 26 53 39t69 13q66 0 103 -35q10 -9 17.5 -20t12.5 -27.5t8 -39.5t3 -57v-281zM251 247q0 67 -3 105.5t-17 56.5q-16 21 -44 21t-44 -21q-14 -18 -17.5 -56.5t-3.5 -105.5q0 -66 3.5 -104.5t17.5 -56.5q16 -21 44 -21t44 21q14 18 17 56.5t3 104.5z" />
    <glyph glyph-name="Delta" unicode="&#x2206;" horiz-adv-x="424" 
d="M5 0l166 712h83l165 -712h-414zM212 573l-100 -496h200z" />
    <glyph glyph-name="product" unicode="&#x220f;" horiz-adv-x="458" 
d="M308 -205v888h-158v-888h-86v965h330v-965h-86z" />
    <glyph glyph-name="summation" unicode="&#x2211;" horiz-adv-x="373" 
d="M31 -206v65l141 431l-133 405v65h288v-77h-196l110 -355v-80l-118 -376h204v-78h-296z" />
    <glyph glyph-name="minus" unicode="&#x2212;" horiz-adv-x="444" 
d="M46 244v78h352v-78h-352z" />
    <glyph glyph-name="uni2219" unicode="&#x2219;" horiz-adv-x="444" 
d="M386 284q0 -34 -13 -63.5t-35 -51.5t-51.5 -35t-63.5 -13t-63.5 13t-51.5 35t-35 51.5t-13 63.5t13 63.5t35 51.5t51.5 35t63.5 13t63.5 -13t51.5 -35t35 -51.5t13 -63.5z" />
    <glyph glyph-name="radical" unicode="&#x221a;" horiz-adv-x="467" 
d="M361 635l-148 -635h-89l-120 507h93l71 -380l117 585h156v-77h-80z" />
    <glyph glyph-name="infinity" unicode="&#x221e;" horiz-adv-x="635" 
d="M588 281q0 -28 -9 -52t-26 -42t-42 -28t-57 -10q-40 0 -72.5 19t-63.5 56q-32 -37 -64.5 -56.5t-72.5 -19.5q-32 0 -56.5 10t-42 28t-26.5 42.5t-9 52.5t9 52.5t26.5 42.5t42 28.5t56.5 10.5q39 0 72 -19.5t65 -56.5q31 37 63 56.5t73 19.5q32 0 57 -10.5t42 -28.5
t26 -42.5t9 -52.5zM513 279q0 28 -17.5 44t-42.5 16q-24 0 -43 -17t-41 -43q22 -26 41 -42.5t43 -16.5q25 0 42.5 16t17.5 43zM266 279q-22 26 -40.5 44t-42.5 18q-26 0 -43.5 -17t-17.5 -45q0 -27 17.5 -43t43.5 -16q24 0 42.5 16.5t40.5 42.5z" />
    <glyph glyph-name="integral" unicode="&#x222b;" horiz-adv-x="296" 
d="M243 644q-23 0 -38.5 -16.5t-15.5 -45.5v-638q0 -36 -10 -60t-26 -40q-17 -17 -40.5 -26t-49.5 -9h-33v73h24q23 0 38.5 16t15.5 46v637q0 36 9.5 60t25.5 41q17 17 40.5 26t49.5 9h33v-73h-23z" />
    <glyph glyph-name="approxequal" unicode="&#x2248;" horiz-adv-x="444" 
d="M410 359q-25 -25 -51 -42.5t-62 -17.5q-23 0 -41.5 7t-35.5 15t-34 15t-36 7q-22 0 -36.5 -9t-29.5 -24l-49 49q25 25 50.5 42t61.5 17q25 0 44 -6.5t36 -15t33 -15t35 -6.5q22 0 36 9t29 24zM410 196q-25 -25 -51 -42.5t-62 -17.5q-23 0 -41.5 7t-36 15t-34.5 15t-35 7
q-22 0 -36 -9.5t-29 -24.5l-50 49q24 24 50 42t62 18q23 0 42 -7t36.5 -15t34 -15t35.5 -7q22 0 36 9.5t29 24.5z" />
    <glyph glyph-name="notequal" unicode="&#x2260;" horiz-adv-x="444" 
d="M180 163l-76 -102l-58 41l46 61h-52v77h106l66 86h-172v77h225l75 102l59 -41l-46 -61h52v-77h-105l-66 -86h171v-77h-225z" />
    <glyph glyph-name="lessequal" unicode="&#x2264;" horiz-adv-x="381" 
d="M34 357v61l313 182v-90l-216 -123l216 -123v-90zM34 175v87l313 -182v-87z" />
    <glyph glyph-name="greaterequal" unicode="&#x2265;" horiz-adv-x="381" 
d="M34 174v90l216 123l-216 123v90l313 -182v-61zM34 -7v87l313 182v-87z" />
    <glyph glyph-name="dotmath" unicode="&#x22c5;" horiz-adv-x="444" 
d="M151 214v141h141v-141h-141z" />
    <glyph glyph-name="lozenge" unicode="&#x25ca;" horiz-adv-x="497" 
d="M248 54l-199 280l199 280l200 -280zM248 493l-112 -159l112 -160l112 160z" />
    <glyph glyph-name="fi" unicode="&#xfb01;" horiz-adv-x="431" 
d="M157 455v-455h-81v455h-59v63h59v50q0 41 11.5 69t33.5 46q24 20 53.5 26.5t62.5 6.5v-73q-80 0 -80 -78v-47h80v-63h-80zM293 0v518h81v-518h-81zM286 610v94h95v-94h-95z" />
    <glyph glyph-name="fl" unicode="&#xfb02;" horiz-adv-x="468" 
d="M157 455v-455h-81v455h-59v63h59v50q0 41 11.5 69t33.5 46q24 20 53.5 26.5t62.5 6.5v-73q-80 0 -80 -78v-47h80v-63h-80zM451 0q-33 0 -61 6t-51 26q-21 17 -33.5 45t-12.5 71v564h81v-561q0 -78 77 -78v-73z" />
    <glyph glyph-name="uniFEFF" unicode="&#xfeff;" horiz-adv-x="0" 
 />
    <glyph glyph-name="caroncomma.ss01" horiz-adv-x="500" 
d="M388 562v173h66v-124z" />
    <glyph glyph-name="caroncomma" horiz-adv-x="500" 
d="M428 586h-55l23 144h66z" />
    <glyph glyph-name="commaaccent" 
d="M176 -182h-64l57 144h57z" />
    <glyph glyph-name="commaturn" horiz-adv-x="300" 
d="M210 730h65l-57 -144h-57z" />
    <glyph glyph-name="breveCyrLc.comp" 
d="M308 692q-4 -60 -37 -84.5t-84 -24.5t-84 24.5t-37 84.5h62q3 -28 18.5 -40.5t40.5 -12.5t40.5 12.5t18.5 40.5h62z" />
    <glyph glyph-name="breveCyrUc.comp" horiz-adv-x="442" 
d="M342 865q-4 -60 -37 -84.5t-84 -24.5t-84 24.5t-37 84.5h62q3 -28 18.5 -40.5t40.5 -12.5t40.5 12.5t18.5 40.5h62z" />
    <glyph glyph-name="grave.lc" 
d="M164 586l-81 135h74l69 -135h-62z" />
    <glyph glyph-name="dieresis.lc" 
d="M225 601v82h81v-82h-81zM68 601v82h82v-82h-82z" />
    <glyph glyph-name="macron.lc" 
d="M73 608v57h229v-57h-229z" />
    <glyph glyph-name="acute.lc" 
d="M213 586h-61l68 135h74z" />
    <glyph glyph-name="circumflex.lc" 
d="M247 586l-60 87l-59 -87h-67l93 135h67l93 -135h-67z" />
    <glyph glyph-name="caron.lc" 
d="M221 582h-67l-93 135h67l59 -87l60 87h67z" />
    <glyph glyph-name="breve.lc" 
d="M305 694q-4 -60 -35.5 -86t-82.5 -26q-50 0 -81.5 26t-35.5 86h58q4 -28 19.5 -40.5t39.5 -12.5q25 0 40.5 12.5t19.5 40.5h58z" />
    <glyph glyph-name="dotaccent.lc" 
d="M147 604v82h81v-82h-81z" />
    <glyph glyph-name="ring.lc" 
d="M285 681q0 -41 -28.5 -69.5t-69.5 -28.5q-20 0 -37.5 7.5t-31 21t-21 31.5t-7.5 38t7.5 38t21 31.5t31 21t37.5 7.5q41 0 69.5 -28.5t28.5 -69.5zM237 681q0 20 -15 34.5t-35 14.5t-34.5 -14.5t-14.5 -34.5t14.5 -34.5t34.5 -14.5t35 14.5t15 34.5z" />
    <glyph glyph-name="tilde.lc" 
d="M321 638q-26 -25 -44 -33.5t-36 -8.5q-17 0 -30 4.5t-28 12.5q-11 7 -21 11t-22 4q-10 0 -19 -3t-26 -20l-36 38q25 25 42.5 33.5t36.5 8.5q17 0 30 -4t28 -13q11 -7 21 -11t22 -4q9 0 18.5 3.5t25.5 19.5z" />
    <glyph glyph-name="hungarumlaut.lc" 
d="M146 586h-59l53 135h74zM283 586h-58l52 135h74z" />
    <glyph glyph-name="grave.uc" horiz-adv-x="442" 
d="M196 762l-81 135h74l69 -135h-62z" />
    <glyph glyph-name="dieresis.uc" horiz-adv-x="442" 
d="M258 777v81h82v-81h-82zM102 777v81h82v-81h-82z" />
    <glyph glyph-name="macron.uc" horiz-adv-x="442" 
d="M107 780v58h228v-58h-228z" />
    <glyph glyph-name="acute.uc" horiz-adv-x="442" 
d="M246 762h-62l69 135h74z" />
    <glyph glyph-name="circumflex.uc" horiz-adv-x="442" 
d="M281 762l-60 87l-60 -87h-66l93 135h66l93 -135h-66z" />
    <glyph glyph-name="caron.uc" horiz-adv-x="442" 
d="M254 758h-66l-93 134h66l60 -87l60 87h66z" />
    <glyph glyph-name="breve.uc" horiz-adv-x="442" 
d="M339 866q-4 -59 -36 -85t-82 -26t-82 26t-36 85h59q3 -27 19 -39.5t40 -12.5t40 12.5t19 39.5h59z" />
    <glyph glyph-name="dotaccent.uc" horiz-adv-x="442" 
d="M180 777v81h82v-81h-82z" />
    <glyph glyph-name="ring.uc" horiz-adv-x="442" 
d="M319 850q0 -41 -28.5 -69.5t-69.5 -28.5t-69.5 28.5t-28.5 69.5t28.5 69.5t69.5 28.5t69.5 -28.5t28.5 -69.5zM270 850q0 20 -14.5 34.5t-34.5 14.5t-34.5 -14.5t-14.5 -34.5t14.5 -34.5t34.5 -14.5t34.5 14.5t14.5 34.5z" />
    <glyph glyph-name="tilde.uc" horiz-adv-x="442" 
d="M354 814q-17 -17 -36 -29.5t-44 -12.5q-20 0 -33 5t-24 11t-21 11t-23 5q-14 0 -24.5 -7t-20.5 -16l-36 37q21 22 39 32.5t40 10.5q20 0 32.5 -5t23 -11.5t20.5 -11.5t25 -5t25 7t19 16z" />
    <glyph glyph-name="hungarumlaut.uc" horiz-adv-x="442" 
d="M180 762h-59l53 135h74zM317 762h-58l52 135h74z" />
    </font>
</defs>
</svg>
