<?xml version="1.0" standalone="no"?>
<!DOCTYPE svg PUBLIC "-//W3C//DTD SVG 1.1//EN" "http://www.w3.org/Graphics/SVG/1.1/DTD/svg11.dtd" >
<svg xmlns="http://www.w3.org/2000/svg" xmlns:xlink="http://www.w3.org/1999/xlink" version="1.1">
<metadata>
Created by FontForge 20170731 at Mon May 27 07:48:30 2013
 By Aleksey,,,
2009 Albert-Jan Pool published by FSI FontShop International GmbH
</metadata>
<defs>
<font id="AdihausDIN-CnItalic" horiz-adv-x="331" >
  <font-face 
    font-family="AdihausDIN Cn"
    font-weight="400"
    font-style="italic"
    font-stretch="condensed"
    units-per-em="1000"
    panose-1="2 11 5 6 2 1 1 9 1 2"
    ascent="764"
    descent="-236"
    x-height="508"
    cap-height="712"
    bbox="-136 -220 926 1072"
    underline-thickness="43"
    underline-position="-153"
    slope="-11"
    unicode-range="U+0020-FEFF"
  />
<missing-glyph horiz-adv-x="351" 
d="M151 712h233l-142 -712h-233zM209 44l125 624h-150l-126 -624h151z" />
    <glyph glyph-name=".notdef" horiz-adv-x="351" 
d="M151 712h233l-142 -712h-233zM209 44l125 624h-150l-126 -624h151z" />
    <glyph glyph-name=".null" horiz-adv-x="0" 
 />
    <glyph glyph-name="nonmarkingreturn" horiz-adv-x="183" 
 />
    <glyph glyph-name="space" unicode=" " horiz-adv-x="183" 
 />
    <glyph glyph-name="exclam" unicode="!" horiz-adv-x="212" 
d="M184 712h55l-107 -530h-52zM49 74h69l-14 -74h-69z" />
    <glyph glyph-name="quotedbl" unicode="&#x22;" horiz-adv-x="328" 
d="M149 712h60l-36 -182h-60zM302 712h60l-36 -182h-60z" />
    <glyph glyph-name="numbersign" unicode="#" horiz-adv-x="471" 
d="M115 231h-67l10 50h74l57 162h-74l11 50h81l76 219h52l-77 -219h95l76 219h52l-76 -219h61l-10 -50h-68l-57 -162h68l-11 -50h-75l-81 -231h-52l81 231h-95l-80 -231h-52zM279 281l56 162h-95l-56 -162h95z" />
    <glyph glyph-name="dollar" unicode="$" horiz-adv-x="372" 
d="M79 179q-5 -21 -6.5 -36.5t-1.5 -29.5q0 -29 13 -46q13 -18 38 -22l61 305l-25 12q-35 17 -51 40.5t-16 65.5q0 15 2 31t5 33q12 59 27 91.5t39 55.5q18 18 40.5 27t48.5 11l18 89h50l-19 -91q22 -4 36.5 -12.5t25.5 -22.5t16.5 -31t5.5 -43q0 -29 -9 -72h-55
q5 21 6.5 36.5t1.5 29.5t-2.5 25t-10.5 21q-12 15 -29 19l-55 -275l19 -9q43 -21 59 -46t16 -61q0 -38 -11 -91q-6 -32 -12.5 -55t-14.5 -40.5t-17.5 -31t-21.5 -24.5q-35 -31 -89 -37l-22 -109h-51l22 110q-26 3 -42.5 11.5t-29.5 23.5q-11 14 -17 31.5t-6 44.5
q0 16 2 32.5t6 39.5h56zM269 264q0 20 -10.5 37t-36.5 30l-57 -285q28 5 46 23q19 19 29.5 43t19.5 71q5 21 7 40t2 41zM148 479q0 -32 12 -46t32 -24l3 -1l52 258q-23 -4 -44 -22q-20 -18 -30 -42.5t-19 -69.5q-2 -11 -4 -25.5t-2 -27.5z" />
    <glyph glyph-name="percent" unicode="%" horiz-adv-x="585" 
d="M135 446q-3 -15 -3 -24q0 -17 9.5 -27.5t31.5 -10.5q43 0 55 57l36 179q3 15 3 25q0 17 -9.5 27t-31.5 10q-43 0 -55 -57zM125 621q11 51 36 75t70 24q42 0 61.5 -21.5t19.5 -51.5q0 -5 -0.5 -12t-2.5 -15l-35 -175q-11 -51 -35.5 -75t-71.5 -24q-42 0 -61 21.5t-19 51.5
q0 5 0.5 12t2.5 15zM362 92q-3 -15 -3 -25q0 -17 9.5 -27t30.5 -10q44 0 56 57l36 179q3 15 3 24q0 17 -10 27.5t-31 10.5q-43 0 -55 -57zM352 267q11 51 36 75t70 24q42 0 61.5 -21.5t19.5 -51.5q0 -5 -1 -12t-3 -15l-35 -175q-10 -51 -35 -75t-71 -24q-42 0 -61 21.5
t-19 51.5q0 5 0.5 12t2.5 15zM479 712h44l-379 -712h-43z" />
    <glyph glyph-name="ampersand" unicode="&#x26;" horiz-adv-x="456" 
d="M14 129q0 38 13 73.5t35 67.5t52 61.5t65 56.5q-26 61 -39.5 98.5t-13.5 70.5q0 31 9.5 60t27.5 51.5t45.5 36t63.5 13.5q54 0 83.5 -30.5t29.5 -84.5q0 -60 -30.5 -106.5t-81.5 -90.5l-33 -28l86 -201q25 32 45.5 80.5t30.5 92.5h49q-14 -63 -41.5 -122t-62.5 -102
l54 -126h-58l-35 82q-40 -42 -78.5 -66t-86.5 -24q-63 0 -96 35.5t-33 101.5zM68 134q0 -40 20 -66t60 -26q34 0 65.5 20.5t74.5 67.5l-91 213q-24 -21 -47.5 -44t-41.5 -48.5t-29 -54.5t-11 -62zM249 446q40 33 61 69.5t21 83.5q0 37 -17.5 53.5t-43.5 16.5
q-19 0 -35.5 -8.5t-28.5 -23t-18.5 -34.5t-6.5 -43q0 -31 11.5 -64t29.5 -73z" />
    <glyph glyph-name="quotesingle" unicode="'" horiz-adv-x="175" 
d="M149 712h60l-36 -182h-60z" />
    <glyph glyph-name="parenleft" unicode="(" horiz-adv-x="207" 
d="M14 27q0 8 1 22t6 34l109 547q5 29 12 52.5t24 47.5q12 18 29 36t44 40l31 -39q-20 -17 -34.5 -31t-25.5 -30q-18 -28 -29 -82l-109 -542q-3 -16 -4.5 -29t-1.5 -21q0 -24 9 -44.5t31 -47.5l-40 -34q-29 36 -40.5 63t-11.5 58z" />
    <glyph glyph-name="parenright" unicode=")" horiz-adv-x="207" 
d="M234 685q0 -8 -1 -22t-6 -34l-109 -547q-5 -29 -12 -52.5t-24 -47.5q-12 -18 -29 -36t-44 -40l-31 39q20 17 34.5 31t25.5 30q18 28 29 82l109 542q3 16 4.5 29t1.5 21q0 24 -9 44.5t-31 47.5l40 34q29 -36 40.5 -63t11.5 -58z" />
    <glyph glyph-name="asterisk" unicode="*" horiz-adv-x="344" 
d="M266 549l93 -83l-27 -29l-89 83l-22 -120l-39 7l25 120l-112 -45l-14 37l117 43l-93 83l27 29l89 -83l22 120l39 -7l-25 -120l112 45l14 -37z" />
    <glyph glyph-name="plus" unicode="+" horiz-adv-x="406" 
d="M178 252h-132l10 50h132l28 142h50l-27 -142h131l-10 -50h-132l-28 -142h-51z" />
    <glyph glyph-name="comma" unicode="," horiz-adv-x="171" 
d="M19 76h63l-25 -124l-73 -49z" />
    <glyph glyph-name="hyphen" unicode="-" horiz-adv-x="271" 
d="M56 302h179l-10 -50h-179z" />
    <glyph glyph-name="period" unicode="." horiz-adv-x="186" 
d="M23 74h70l-15 -74h-70z" />
    <glyph glyph-name="slash" unicode="/" horiz-adv-x="236" 
d="M285 786h52l-348 -860h-52z" />
    <glyph glyph-name="zero" unicode="0" horiz-adv-x="363" 
d="M129 585q15 74 55 107q18 15 39 21.5t43 6.5q33 0 53.5 -11t31.5 -26q11 -14 14.5 -30.5t3.5 -34.5q0 -9 -1 -19.5t-3 -22.5l-90 -449q-15 -74 -55 -107q-18 -15 -38.5 -21.5t-43.5 -6.5q-32 0 -53 11t-32 26q-11 14 -14.5 30.5t-3.5 34.5q0 9 1 19.5t3 22.5zM91 133
q-2 -11 -3 -20t-1 -16q0 -28 14.5 -43.5t40.5 -15.5q12 0 24 4t23 14.5t20 27t14 42.5l90 453q2 11 3 20t1 16q0 28 -14.5 43.5t-40.5 15.5q-12 0 -24 -4t-23 -14.5t-20 -27.5t-14 -42z" />
    <glyph glyph-name="one" unicode="1" horiz-adv-x="363" 
d="M245 644l-113 -88l15 69l111 87h52l-142 -712h-52z" />
    <glyph glyph-name="two" unicode="2" horiz-adv-x="363" 
d="M19 43l233 392q36 61 51 104t15 73q0 29 -12.5 45.5t-37.5 16.5t-45.5 -19t-30.5 -68l-10 -48h-52l10 47q8 38 20 63.5t32 42.5q15 13 35 20.5t45 7.5q29 0 47.5 -9.5t29.5 -23.5t16 -31t5 -42q0 -40 -17.5 -86.5t-57.5 -112.5l-219 -369h186l-8 -46h-243z" />
    <glyph glyph-name="three" unicode="3" horiz-adv-x="363" 
d="M129 587q8 36 19.5 61.5t32.5 43.5q14 13 34 20.5t46 7.5q29 0 48 -8t30 -24q8 -12 12.5 -26t4.5 -34q0 -31 -11 -89q-5 -27 -9.5 -45.5t-9 -32.5t-10 -24.5t-12.5 -20.5q-8 -12 -19 -20.5t-22 -14.5q22 -14 32 -34.5t10 -41.5q0 -17 -4 -43t-12 -66
q-14 -71 -28.5 -109.5t-38.5 -61.5q-35 -33 -91 -33q-27 0 -48.5 9.5t-32.5 25.5q-9 11 -14.5 27.5t-5.5 36.5q0 10 1 18t3 20l9 45h52l-9 -45q-2 -11 -3 -17.5t-1 -14.5q0 -29 15 -44t38 -15q30 0 51 21q8 7 14 16.5t12 24.5t12 38t13 58q16 83 16 106t-14 39.5t-40 16.5
h-38l9 46h33q27 0 46 19q8 9 14 18t11 22t9.5 31t9.5 44q5 28 8 48t3 37q0 23 -10.5 37t-36.5 14q-25 0 -45.5 -19t-30.5 -67l-10 -49h-52z" />
    <glyph glyph-name="four" unicode="4" horiz-adv-x="363" 
d="M27 170l278 542h53l-276 -542h123l40 204h51l-40 -204h47l-10 -46h-47l-24 -124h-51l24 124h-177z" />
    <glyph glyph-name="five" unicode="5" horiz-adv-x="363" 
d="M97 173l-8 -40q-2 -9 -3 -18.5t-1 -19.5q0 -22 13 -39.5t39 -17.5q31 0 53 25q8 8 14.5 19t13.5 29t13.5 45t14.5 68q9 46 13 75t4 45q0 24 -10.5 45t-40.5 21q-28 0 -52 -23t-32 -62l-7 -34h-48l84 421h229l-9 -46h-182l-51 -252q8 10 16.5 17t19.5 13q22 12 50 12
q26 0 42 -8.5t25 -21.5t14.5 -30.5t5.5 -37.5q0 -21 -4 -52.5t-15 -81.5q-9 -46 -16.5 -76.5t-15.5 -52t-17.5 -36.5t-23.5 -30q-17 -18 -41 -27.5t-50 -9.5q-28 0 -48.5 9t-32.5 25q-9 11 -14.5 27t-5.5 37q0 8 1 19t3 24l8 40h52z" />
    <glyph glyph-name="six" unicode="6" horiz-adv-x="363" 
d="M35 98q0 31 15 112q11 55 29 106.5t36 84.5l168 311h55l-167 -303q9 8 24.5 12.5t30.5 4.5q42 0 64 -27t22 -69q0 -16 -4.5 -45t-12.5 -75q-9 -44 -16.5 -74t-16 -50.5t-17.5 -34t-20 -23.5q-36 -36 -91 -36q-29 0 -48.5 9.5t-31.5 26.5q-11 17 -15 33t-4 37zM86 100
q0 -25 11.5 -43.5t39.5 -18.5q31 0 52 21q9 9 15.5 20.5t12.5 28.5t12 42t14 60q8 38 12 66t4 48q0 21 -11.5 39t-39.5 18q-31 0 -52 -21q-9 -9 -15.5 -20.5t-12.5 -28.5t-12 -41.5t-13 -59.5q-9 -44 -13 -70t-4 -40z" />
    <glyph glyph-name="seven" unicode="7" horiz-adv-x="363" 
d="M340 666h-147l-24 -118h-49l33 164h249l-8 -43l-294 -669h-57z" />
    <glyph glyph-name="eight" unicode="8" horiz-adv-x="363" 
d="M121 539q7 34 13.5 58t14 41t16 29t19.5 23q14 14 35 22t49 8q53 0 79 -33q19 -23 19 -64q0 -16 -3 -37.5t-8 -48.5q-11 -53 -20 -79t-22 -42q-19 -25 -47 -39q18 -11 29 -28q11 -20 11 -49q0 -17 -3 -42t-11 -62q-8 -41 -15.5 -69t-15 -47t-16 -32t-20.5 -23
q-18 -16 -40 -24.5t-49 -8.5q-29 0 -50 10t-33 26q-9 13 -14 28t-5 37q0 19 2.5 43.5t10.5 59.5q8 38 14.5 63.5t12.5 42t12.5 27.5t14.5 21q19 22 46 34q-19 13 -27 32q-5 12 -6.5 20t-1.5 21q0 20 2 37t7 45zM240 197q8 39 11.5 62.5t3.5 38.5q0 14 -3 23.5t-9 17.5
q-14 18 -41 18q-15 0 -27.5 -4.5t-23.5 -15.5q-8 -7 -14 -15.5t-11.5 -24t-12 -39.5t-13.5 -61q-8 -39 -11.5 -62t-3.5 -38q0 -25 12 -41q14 -18 41 -18q15 0 27.5 4.5t23.5 15.5q7 7 13.5 15.5t12 23.5t11.5 39t14 61zM303 538q5 26 8 44t3 32q0 28 -11 43q-12 17 -39 17
q-25 0 -46 -19q-7 -7 -12.5 -16t-11 -22.5t-10.5 -32.5t-11 -46q-5 -26 -8 -44t-3 -32q0 -27 11 -42q12 -17 39 -17q26 0 46 18q13 13 23.5 38t21.5 79z" />
    <glyph glyph-name="nine" unicode="9" horiz-adv-x="363" 
d="M369 614q0 -31 -15 -112q-11 -55 -29 -106.5t-36 -84.5l-168 -311h-55l167 303q-9 -8 -24.5 -12.5t-30.5 -4.5q-42 0 -64 27t-22 69q0 16 4.5 45t12.5 75q9 44 16.5 74t16 50.5t17.5 33.5t20 24q36 36 91 36q29 0 48.5 -9.5t31.5 -26.5q11 -17 15 -33t4 -37zM318 612
q0 25 -11.5 43.5t-39.5 18.5q-31 0 -52 -21q-9 -9 -16 -20.5t-13 -28.5t-12 -42t-13 -60q-8 -38 -12 -66t-4 -48q0 -21 11.5 -39t39.5 -18q31 0 52 21q9 9 15.5 20t12.5 28.5t12 42t13 59.5q9 44 13 70t4 40z" />
    <glyph glyph-name="colon" unicode=":" horiz-adv-x="212" 
d="M49 74h69l-14 -74h-69zM117 414h69l-14 -74h-69z" />
    <glyph glyph-name="semicolon" unicode=";" horiz-adv-x="212" 
d="M53 76h63l-25 -124l-73 -49zM117 414h70l-15 -74h-70z" />
    <glyph glyph-name="less" unicode="&#x3c;" horiz-adv-x="339" 
d="M44 309l308 170l-13 -67l-242 -131l188 -134l-11 -57l-240 169z" />
    <glyph glyph-name="equal" unicode="=" horiz-adv-x="406" 
d="M40 222h314l-9 -50h-315zM69 366h314l-10 -50h-314z" />
    <glyph glyph-name="greater" unicode="&#x3e;" horiz-adv-x="339" 
d="M308 257l-308 -170l13 67l242 131l-188 134l11 57l240 -169z" />
    <glyph glyph-name="question" unicode="?" horiz-adv-x="351" 
d="M161 272q5 22 14 43t33 50l71 90q14 18 24 40t16 53q4 19 5 31.5t1 25.5q0 16 -4 27t-9 19q-15 21 -49 21q-30 0 -54 -21q-17 -14 -26 -36t-15 -51h-52q9 48 22.5 75.5t34.5 45.5q17 14 41 23.5t54 9.5q62 0 89 -38q20 -29 20 -68q0 -12 -1.5 -28t-5.5 -37
q-8 -36 -18.5 -61.5t-34.5 -56.5l-70 -90q-14 -18 -23 -37t-13 -37l-16 -82h-52zM116 74h69l-14 -74h-70z" />
    <glyph glyph-name="at" unicode="@" horiz-adv-x="660" 
d="M222 255q9 46 17 78.5t15.5 54.5t16 36t19.5 25q14 14 32 22.5t46 8.5q32 0 48 -16q5 -5 10 -11t8 -14l7 34h48l-80 -396q36 4 67 30.5t53.5 69.5t35.5 101t13 125q0 236 -183 236q-75 0 -131 -44.5t-92.5 -115.5t-55 -159t-18.5 -176q0 -75 17.5 -129t49 -88.5t76 -51
t99.5 -16.5h24l-8 -41h-24q-65 0 -117 20t-88.5 61t-56 103.5t-19.5 146.5q0 62 9.5 126t28.5 123t47.5 111t66.5 90.5t86 60.5t106 22q107 0 168.5 -67.5t61.5 -211.5q0 -79 -17 -146t-49 -116.5t-77.5 -77.5t-102.5 -28h-25l6 32q-13 -16 -28 -25q-20 -13 -49 -13
q-22 0 -37.5 7.5t-25.5 20.5q-8 11 -13 25t-5 35q0 23 5 56.5t15 81.5zM271 255q-11 -53 -15.5 -82.5t-4.5 -47.5q0 -23 8 -35q5 -8 15 -13t24 -5q25 0 44 16q13 11 20.5 24.5t12.5 37.5l42 209q2 7 2.5 15t0.5 13q0 11 -3.5 21t-10.5 17q-11 11 -35 11q-29 0 -46 -19
q-8 -8 -14.5 -20t-13 -31t-13 -46t-13.5 -65z" />
    <glyph glyph-name="A" unicode="A" horiz-adv-x="356" 
d="M249 0l1 196h-159l-79 -196h-58l291 712h54l5 -712h-55zM253 612l-142 -366h139z" />
    <glyph glyph-name="B" unicode="B" horiz-adv-x="391" 
d="M156 712h112q35 0 58 -8t39 -27q26 -32 26 -77q0 -15 -1.5 -31.5t-5.5 -36.5q-8 -42 -21 -76t-44 -61q-21 -18 -43 -25q10 -3 21.5 -11t18.5 -17q23 -30 23 -74q0 -17 -2 -34.5t-6 -37.5q-7 -34 -14 -58.5t-15.5 -43t-18.5 -31.5t-22 -24q-25 -23 -54.5 -31t-71.5 -8
h-121zM145 50q25 0 45 7t36 24t28 45t21 71q4 18 6 33.5t2 29.5q0 45 -21 64.5t-63 19.5h-60l-59 -294h65zM207 393q45 0 75.5 31.5t44.5 103.5q3 17 5 32t2 29q0 37 -17 55t-56 18h-59l-53 -269h58z" />
    <glyph glyph-name="C" unicode="C" horiz-adv-x="375" 
d="M34 117q0 31 9 87t28 152q18 89 31 145.5t25 91.5t24.5 54.5t29.5 34.5q40 38 105 38q32 0 55.5 -10.5t37.5 -28.5q11 -15 16.5 -36.5t5.5 -45.5q0 -11 -1 -22t-4 -26h-55q2 13 3.5 24t1.5 22q0 32 -14 52.5t-50 20.5q-38 0 -64 -24q-13 -12 -22.5 -28t-19.5 -46.5
t-21.5 -81.5t-27.5 -134q-20 -96 -29 -151.5t-9 -87.5q0 -75 67 -75q19 0 35 7t27 18q18 17 29 40.5t17 54.5h57q-9 -45 -25 -79t-47 -59q-40 -32 -99 -32t-89 36q-14 17 -20.5 38.5t-6.5 50.5z" />
    <glyph glyph-name="D" unicode="D" horiz-adv-x="399" 
d="M158 50q43 0 67 24q13 12 22.5 29t19.5 47.5t21 79.5t26 126q19 93 28 148t9 85q0 17 -4 29.5t-12 22.5q-16 21 -54 21h-79l-122 -612h78zM156 712h135q35 0 56.5 -10.5t35.5 -30.5q12 -17 18 -36t6 -46q0 -26 -9 -82.5t-28 -150.5q-17 -86 -29.5 -141t-24.5 -89.5
t-24.5 -54t-30.5 -34.5q-41 -37 -104 -37h-143z" />
    <glyph glyph-name="E" unicode="E" horiz-adv-x="342" 
d="M156 712h234l-10 -50h-178l-55 -278h152l-10 -50h-153l-56 -284h178l-10 -50h-234z" />
    <glyph glyph-name="F" unicode="F" horiz-adv-x="337" 
d="M156 712h234l-10 -50h-178l-56 -280h153l-10 -50h-153l-66 -332h-56z" />
    <glyph glyph-name="G" unicode="G" horiz-adv-x="388" 
d="M316 152q-16 -82 -60.5 -121t-107.5 -39q-57 0 -87 36q-14 17 -20.5 38.5t-6.5 50.5q0 31 9 87t28 152q18 89 31 145.5t25 91.5t24.5 54.5t29.5 34.5q40 38 105 38q32 0 55.5 -10.5t37.5 -28.5q11 -15 16.5 -36.5t5.5 -45.5q0 -11 -1 -22t-4 -26h-55q2 13 3.5 24t1.5 22
q0 32 -14 52.5t-50 20.5q-38 0 -64 -24q-13 -12 -22.5 -28t-19.5 -46.5t-21.5 -81.5t-27.5 -134q-20 -96 -29 -152t-9 -87q0 -38 17 -56.5t48 -18.5q39 0 68 29t40 80l35 179h-83l9 47h138z" />
    <glyph glyph-name="H" unicode="H" horiz-adv-x="406" 
d="M156 712h56l-65 -325h166l65 325h56l-142 -712h-56l67 337h-166l-67 -337h-56z" />
    <glyph glyph-name="I" unicode="I" horiz-adv-x="184" 
d="M156 712h56l-142 -712h-56z" />
    <glyph glyph-name="J" unicode="J" horiz-adv-x="314" 
d="M15 76q13 -17 27.5 -25.5t36.5 -8.5q80 0 104 120l110 550h56l-112 -558q-9 -45 -22.5 -73t-33.5 -48q-22 -22 -47.5 -31.5t-56.5 -9.5q-42 0 -66.5 15t-38.5 37z" />
    <glyph glyph-name="K" unicode="K" horiz-adv-x="384" 
d="M156 712h56l-75 -378l249 378h63l-194 -293l71 -419h-56l-62 357l-95 -141l-43 -216h-56z" />
    <glyph glyph-name="L" unicode="L" horiz-adv-x="319" 
d="M156 712h56l-132 -662h178l-10 -50h-234z" />
    <glyph glyph-name="M" unicode="M" horiz-adv-x="523" 
d="M156 712h56l58 -410l224 410h57l-142 -712h-56l111 562l-191 -356h-41l-49 361l-113 -567h-56z" />
    <glyph glyph-name="N" unicode="N" horiz-adv-x="416" 
d="M156 712h51l72 -557l109 557h56l-142 -712h-49l-72 557l-111 -557h-56z" />
    <glyph glyph-name="O" unicode="O" horiz-adv-x="395" 
d="M71 356q18 90 31 146.5t25 91.5t24.5 54.5t30.5 35.5q40 36 101 36q35 0 58.5 -10.5t37.5 -30.5q12 -17 18 -35.5t6 -44.5q0 -17 -2.5 -39.5t-7 -51.5t-11.5 -66.5t-16 -85.5q-18 -90 -31 -146.5t-25 -91.5t-24.5 -54.5t-30.5 -35.5q-40 -36 -101 -36q-35 0 -58.5 10.5
t-37.5 30.5q-12 17 -18 35.5t-6 44.5q0 34 9 91t28 152zM310 356q19 95 28 151t9 86q0 16 -3 30t-11 24.5t-21.5 16.5t-33.5 6q-17 0 -32.5 -6t-28.5 -18q-12 -12 -21.5 -28t-19 -46.5t-21.5 -82t-28 -133.5q-20 -95 -28.5 -151t-8.5 -86q0 -16 3 -30t11 -24.5t21.5 -16.5
t33.5 -6q35 0 61 24q12 12 21.5 28t19 46.5t21 82t28.5 133.5z" />
    <glyph glyph-name="P" unicode="P" horiz-adv-x="385" 
d="M156 712h124q34 0 56 -7.5t37 -22.5q16 -17 23 -39.5t7 -51.5q0 -16 -2 -37t-6 -41q-12 -61 -29.5 -99.5t-40 -60.5t-50.5 -30t-60 -8h-82l-63 -315h-56zM215 365q21 0 39 5.5t34 22t29 45t22 75.5q4 19 5.5 38.5t1.5 34.5q0 38 -16 57t-58 19h-70l-59 -297h72z" />
    <glyph glyph-name="Q" unicode="Q" horiz-adv-x="395" 
d="M366 356q-15 -77 -26.5 -128.5t-22 -86t-20.5 -55.5t-22 -36l40 -43l-32 -32l-40 43q-38 -26 -89 -26q-35 0 -58.5 10.5t-37.5 30.5q-12 17 -18 35.5t-6 44.5q0 34 9 91t28 152q18 90 31 146.5t25 91.5t24.5 54.5t30.5 35.5q40 36 101 36q35 0 58.5 -10.5t37.5 -30.5
q12 -17 18 -35.5t6 -44.5q0 -17 -2.5 -39.5t-7 -51.5t-11.5 -66.5t-16 -85.5zM159 42q28 0 49 14l-45 50l30 31l44 -47q9 12 16 29.5t15 47t18 75t24 114.5q19 95 28 151t9 86q0 16 -3 30t-11 24.5t-21.5 16.5t-33.5 6q-17 0 -32.5 -6t-28.5 -18q-12 -12 -21.5 -28
t-19 -46.5t-21.5 -82t-28 -133.5q-20 -95 -28.5 -151t-8.5 -86q0 -16 3 -30t11 -24.5t21.5 -16.5t33.5 -6z" />
    <glyph glyph-name="R" unicode="R" horiz-adv-x="406" 
d="M156 712h127q65 0 92.5 -31t27.5 -88q0 -16 -1.5 -35.5t-6.5 -42.5q-10 -47 -22 -80t-27 -54.5t-33 -34t-39 -18.5l39 -328h-57l-35 319h-88l-63 -319h-56zM218 369q20 0 38 6t33.5 22t28 44.5t21.5 73.5q4 19 5.5 38t1.5 33q0 38 -15.5 57t-56.5 19h-72l-59 -293h75z
" />
    <glyph glyph-name="S" unicode="S" horiz-adv-x="372" 
d="M79 179q-5 -21 -6.5 -36.5t-1.5 -29.5q0 -29 13 -46q17 -23 58 -23q44 0 69 25q19 19 29.5 43t19.5 71q5 21 7 40t2 41q0 21 -11 38t-38 30l-62 30q-35 17 -51 40.5t-16 65.5q0 15 2 31t5 33q12 59 27 91.5t39 55.5q21 21 48 30t57 9q38 0 59.5 -10t35.5 -28
q11 -14 16.5 -31t5.5 -43q0 -29 -9 -72h-55q5 21 6.5 36.5t1.5 29.5t-2.5 25t-10.5 21q-8 11 -19.5 16.5t-31.5 5.5q-36 0 -63 -24q-20 -18 -30 -42.5t-19 -69.5q-2 -11 -4 -25.5t-2 -27.5q0 -32 12 -46t32 -24l60 -28q43 -21 59 -46t16 -61q0 -38 -11 -91q-6 -32 -12.5 -55
t-14.5 -40.5t-17.5 -31t-21.5 -24.5q-43 -38 -112 -38q-39 0 -61.5 9t-38.5 28q-11 14 -17 31.5t-6 44.5q0 16 2 32.5t6 39.5h56z" />
    <glyph glyph-name="T" unicode="T" horiz-adv-x="320" 
d="M214 662h-112l11 50h279l-10 -50h-112l-132 -662h-56z" />
    <glyph glyph-name="U" unicode="U" horiz-adv-x="393" 
d="M150 712h56l-113 -560q-2 -8 -3 -17.5t-1 -19.5q0 -35 16.5 -54t49.5 -19t62.5 25.5t39.5 75.5l115 569h56l-115 -570q-8 -43 -23.5 -69t-36.5 -44q-19 -17 -45 -27t-62 -10q-26 0 -50 10t-39 30q-24 30 -24 76q0 16 2 30t4 22z" />
    <glyph glyph-name="V" unicode="V" horiz-adv-x="348" 
d="M96 712h59l-10 -606l232 606h59l-283 -712h-57v712z" />
    <glyph glyph-name="W" unicode="W" horiz-adv-x="569" 
d="M104 712h58l-45 -606l230 606h59l-7 -606l192 606h58l-240 -712h-60l7 606l-233 -606h-59z" />
    <glyph glyph-name="X" unicode="X" horiz-adv-x="348" 
d="M163 375l-46 337h60l30 -280l141 280h63l-184 -343l53 -369h-60l-36 309l-153 -309h-62z" />
    <glyph glyph-name="Y" unicode="Y" horiz-adv-x="297" 
d="M130 303l-34 409h58l20 -330l148 330h62l-200 -420l-58 -292h-56z" />
    <glyph glyph-name="Z" unicode="Z" horiz-adv-x="304" 
d="M-15 43l313 619h-181l10 50h241l-9 -43l-313 -619h192l-10 -50h-252z" />
    <glyph glyph-name="bracketleft" unicode="[" horiz-adv-x="220" 
d="M165 786h134l-9 -46h-81l-154 -768h81l-9 -46h-134z" />
    <glyph glyph-name="backslash" unicode="\" horiz-adv-x="242" 
d="M107 786h53l17 -860h-53z" />
    <glyph glyph-name="bracketright" unicode="]" horiz-adv-x="220" 
d="M97 -74h-134l9 46h81l154 768h-81l9 46h134z" />
    <glyph glyph-name="asciicircum" unicode="^" horiz-adv-x="405" 
d="M271 718h49l64 -279h-48l-49 225l-136 -225h-54z" />
    <glyph glyph-name="underscore" unicode="_" horiz-adv-x="404" 
d="M335 -90l-8 -43h-403l8 43h403z" />
    <glyph glyph-name="grave" unicode="`" horiz-adv-x="330" 
d="M169 712h50l38 -128h-45z" />
    <glyph glyph-name="a" unicode="a" horiz-adv-x="329" 
d="M23 27q-9 14 -12.5 31t-3.5 37q0 9 1 21t4 26q7 35 22.5 65.5t40.5 51.5q18 15 40 22t57 7h59l18 92q4 19 4 33q0 27 -13.5 42t-39.5 15q-28 0 -47 -18q-15 -13 -22.5 -30.5t-12.5 -43.5h-52q6 30 17 58t35 49q18 16 38.5 23.5t49.5 7.5q57 0 81 -32q9 -13 13.5 -27.5
t4.5 -39.5q0 -9 -1 -20t-3 -19l-76 -378h-50l8 43q-6 -8 -13.5 -16.5t-18.5 -16.5q-14 -11 -27.5 -14.5t-30.5 -3.5q-45 0 -70 35zM60 101q0 -29 12 -46t36 -17q19 0 34.5 8.5t27 22.5t19.5 30.5t11 33.5l23 115h-49q-23 0 -37 -4.5t-30 -18.5q-23 -20 -35 -55.5t-12 -68.5z
" />
    <glyph glyph-name="b" unicode="b" horiz-adv-x="342" 
d="M301 254q-11 -53 -19.5 -90.5t-17.5 -64t-19 -44t-23 -29.5q-35 -34 -81 -34q-35 0 -54 18q-15 15 -20 29l-8 -39h-51l142 712h52l-48 -238q13 16 29 27q23 15 55 15q23 0 41 -9t29 -26q16 -24 16 -67q0 -26 -6 -65.5t-17 -94.5zM249 254q22 109 22 153q0 29 -9 43
q-5 8 -16 14t-25 6q-27 0 -49 -19q-13 -11 -22.5 -29t-14.5 -44l-49 -248q-3 -18 -3 -32q0 -28 13 -44t39 -16q25 0 50 22q20 18 33.5 64.5t30.5 129.5z" />
    <glyph glyph-name="c" unicode="c" horiz-adv-x="317" 
d="M42 254q10 49 18.5 85.5t17.5 63t19.5 45t24.5 32.5q34 36 92 36q32 0 51.5 -9t30.5 -26q9 -14 13 -28t4 -34q0 -16 -5 -44h-51q5 23 5 39q0 12 -3.5 24t-8.5 17q-7 7 -16 11t-24 4q-30 0 -53 -23q-20 -20 -33.5 -65t-29.5 -128q-11 -56 -17.5 -93t-6.5 -60q0 -38 19 -52
q12 -11 36 -11q28 0 49 19q15 14 23 32.5t13 44.5h52q-9 -41 -21 -65t-29 -41q-37 -36 -93 -36q-45 0 -72 27t-27 80q0 48 22 155z" />
    <glyph glyph-name="d" unicode="d" horiz-adv-x="342" 
d="M42 254q10 52 19 90t18 64.5t19 44t23 29.5q35 34 81 34q36 0 54 -18q14 -14 19 -28l49 242h52l-142 -712h-51l7 36q-13 -18 -31 -29q-10 -6 -23.5 -10.5t-30.5 -4.5q-48 0 -70 36q-16 23 -16 66q0 26 6 65.5t17 94.5zM94 254q-11 -56 -17 -93t-6 -60q0 -28 10 -42
q7 -9 16.5 -15t23.5 -6q27 0 49 19q28 25 38 73l49 248q3 18 3 32q0 28 -14 44q-8 9 -16.5 12.5t-21.5 3.5q-28 0 -50 -21q-20 -19 -34 -65.5t-30 -129.5z" />
    <glyph glyph-name="e" unicode="e" horiz-adv-x="326" 
d="M35 34q-15 25 -15 65q0 23 6 61.5t17 93.5q10 49 19 86t18 64t19.5 45.5t22.5 30.5q36 36 93 36q30 0 49 -10t30 -27q17 -26 17 -69q0 -29 -6 -68t-17 -95h-195q-10 -52 -16 -88t-6 -58q0 -29 14 -46q7 -8 16 -12.5t23 -4.5q13 0 26.5 5t24.5 14q14 13 22.5 31.5
t14.5 45.5h51q-8 -39 -19.5 -64t-32.5 -45q-36 -33 -92 -33q-59 0 -84 42zM244 290q16 77 16 118q0 28 -12 45t-39 17q-14 0 -27 -5t-24 -17q-10 -11 -17 -23.5t-13.5 -30.5t-12.5 -43t-13 -61h142z" />
    <glyph glyph-name="f" unicode="f" horiz-adv-x="221" 
d="M116 466h-58l8 42h58l14 70q8 40 21 65t33 40q17 13 40.5 21.5t65.5 8.5l-9 -46q-82 0 -99 -89l-14 -70h81l-8 -42h-81l-93 -466h-52z" />
    <glyph glyph-name="g" unicode="g" horiz-adv-x="342" 
d="M42 257q10 52 19 89t18 63t19 43.5t23 29.5q35 34 81 34q34 0 54 -18q15 -15 20 -29l8 39h51l-105 -528q-11 -58 -23.5 -94t-37.5 -59q-17 -15 -39 -23.5t-53 -8.5q-44 0 -71.5 26t-27.5 71q0 9 0.5 18t2.5 24h51q-2 -14 -2.5 -22t-0.5 -16q0 -25 13.5 -40t39.5 -15
q14 0 27 4.5t25 15.5q10 9 16 19.5t10.5 25t8 33.5t9.5 45l12 57q-13 -17 -29 -27q-11 -7 -24.5 -11.5t-30.5 -4.5q-45 0 -70 36q-8 12 -12 28t-4 38q0 26 5.5 64.5t16.5 92.5zM94 257q-11 -54 -16 -90t-5 -60q0 -28 10 -42q13 -20 40 -20q28 0 49 18q12 11 22 29.5t15 44.5
l48 241q3 18 3 32q0 27 -14 44q-15 16 -38 16q-28 0 -50 -21q-20 -19 -33.5 -63.5t-30.5 -128.5z" />
    <glyph glyph-name="h" unicode="h" horiz-adv-x="348" 
d="M150 712h52l-48 -241q8 11 14.5 17t15.5 12q21 16 56 16q26 0 43 -10t27 -26q8 -13 11.5 -27t3.5 -31t-6 -48l-74 -374h-52l74 374q5 28 5 41q0 20 -12 37.5t-41 17.5q-26 0 -50 -21t-35 -75l-74 -374h-52z" />
    <glyph glyph-name="i" unicode="i" horiz-adv-x="168" 
d="M110 508h52l-102 -508h-52zM138 689h65l-12 -66h-65z" />
    <glyph glyph-name="j" unicode="j" horiz-adv-x="168" 
d="M110 508h52l-115 -577q-8 -39 -21 -64t-33 -41q-22 -17 -45.5 -23.5t-58.5 -6.5l10 47q40 0 63 22.5t33 70.5zM138 689h65l-12 -66h-65z" />
    <glyph glyph-name="k" unicode="k" horiz-adv-x="350" 
d="M150 712h52l-93 -464l201 260h59l-151 -196l65 -312h-52l-55 266l-85 -108l-31 -158h-52z" />
    <glyph glyph-name="l" unicode="l" horiz-adv-x="198" 
d="M46 34q-11 16 -15.5 30.5t-4.5 31.5q0 8 0.5 18t2.5 18l117 580h52l-115 -577q-2 -14 -2.5 -20t-0.5 -14q0 -26 15 -40.5t47 -14.5l-9 -46q-37 0 -56.5 10t-30.5 24z" />
    <glyph glyph-name="m" unicode="m" horiz-adv-x="533" 
d="M110 508h51l-8 -39q8 11 15.5 18t15.5 13q11 8 24 12t32 4q27 0 44 -10t27 -26q6 -9 9 -20q17 23 44 40q26 16 60 16q27 0 44 -10t27 -26q8 -13 11 -27t3 -31t-6 -48l-74 -374h-52l74 374q2 10 3.5 22t1.5 19q0 20 -11.5 37.5t-40.5 17.5q-26 0 -50 -20.5t-35 -75.5
l-74 -374h-52l74 374q2 10 3.5 22t1.5 19q0 20 -11.5 37.5t-40.5 17.5q-26 0 -50 -21t-35 -75l-74 -374h-52z" />
    <glyph glyph-name="n" unicode="n" horiz-adv-x="348" 
d="M109 508h51l-8 -39q8 11 14.5 17t17.5 14t23.5 12t31.5 4q26 0 43 -10t27 -26q8 -13 11.5 -27t3.5 -31t-6 -48l-74 -374h-52l74 374q2 10 3.5 22t1.5 19q0 20 -12 37.5t-41 17.5q-26 0 -49.5 -21t-34.5 -75l-74 -374h-52z" />
    <glyph glyph-name="o" unicode="o" 
d="M95 254q-11 -54 -17 -91.5t-6 -60.5q0 -30 11 -45q6 -8 15.5 -13.5t23.5 -5.5q30 0 52 22q10 10 17.5 24.5t15 37.5t14.5 55t16 77q11 54 17 91.5t6 60.5q0 30 -11 45q-6 8 -15.5 13.5t-23.5 5.5q-30 0 -52 -22q-10 -10 -17.5 -24.5t-15 -37.5t-14.5 -55t-16 -77z
M289 254q-11 -55 -20 -93t-18.5 -63.5t-19.5 -42t-22 -28.5q-17 -17 -39.5 -26t-51.5 -9q-30 0 -50.5 10.5t-31.5 29.5q-7 11 -10.5 27t-3.5 42q0 43 21 153q11 55 20 93t18.5 63.5t19.5 42t22 28.5q35 35 91 35q30 0 50.5 -10.5t31.5 -29.5q7 -11 10.5 -27t3.5 -42
q0 -44 -21 -153z" />
    <glyph glyph-name="p" unicode="p" horiz-adv-x="342" 
d="M301 254q-11 -53 -19.5 -90.5t-17.5 -64t-19 -44t-23 -29.5q-35 -34 -82 -34q-33 0 -53 18q-13 13 -19 28l-49 -242h-52l142 712h51l-7 -35q13 16 30 28q23 15 55 15q46 0 70 -35q8 -13 12 -28.5t4 -38.5q0 -26 -6 -65t-17 -95zM249 254q22 109 22 153q0 29 -9 43
q-13 20 -41 20q-27 0 -49 -19q-13 -11 -22.5 -29t-14.5 -44l-49 -248q-3 -18 -3 -32q0 -26 13 -44q15 -16 39 -16q25 0 50 22q20 18 33.5 64.5t30.5 129.5z" />
    <glyph glyph-name="q" unicode="q" horiz-adv-x="342" 
d="M42 254q10 53 19 90.5t18 64t19 44t23 29.5q35 34 81 34q34 0 54 -18q15 -15 20 -29l8 39h51l-142 -712h-52l47 238q-13 -18 -28 -27q-10 -6 -24 -10.5t-31 -4.5q-48 0 -70 36q-16 23 -16 66q0 26 6 65.5t17 94.5zM94 254q-11 -56 -17 -93t-6 -60q0 -28 10 -42
q7 -9 16.5 -15t23.5 -6q27 0 49 19q29 26 38 73l49 248q3 18 3 32q0 28 -14 44q-8 9 -16.5 12.5t-21.5 3.5q-28 0 -50 -21q-20 -19 -34 -65.5t-30 -129.5z" />
    <glyph glyph-name="r" unicode="r" horiz-adv-x="228" 
d="M109 508h51l-11 -53q6 11 16 21.5t25 20.5q29 19 77 19l-10 -48h-12q-42 0 -72.5 -27t-40.5 -75l-72 -366h-52z" />
    <glyph glyph-name="s" unicode="s" horiz-adv-x="313" 
d="M24 29q-22 26 -22 69q0 20 4 40h52q-2 -11 -2.5 -19t-0.5 -16q0 -28 13 -44q7 -9 19.5 -15t28.5 -6q35 0 58 22q35 34 35 92q0 21 -9.5 40t-35.5 38l-46 33q-29 20 -44.5 43.5t-15.5 55.5q0 35 13.5 68t39.5 56q36 30 89 30q58 0 85 -36q20 -27 20 -64q0 -11 -1.5 -21.5
t-3.5 -21.5h-50q2 11 3 20t1 17q0 25 -12 40q-8 11 -19.5 15.5t-26.5 4.5q-30 0 -52 -19q-34 -31 -34 -82q0 -39 39 -66l48 -33q35 -24 49.5 -49.5t14.5 -62.5q0 -42 -14.5 -76.5t-39.5 -56.5q-39 -33 -96 -33q-30 0 -51 9.5t-36 27.5z" />
    <glyph glyph-name="t" unicode="t" horiz-adv-x="229" 
d="M45 97q0 18 5 43l66 326h-58l8 42h58l30 149h52l-30 -149h82l-8 -42h-82l-65 -326q-2 -11 -3 -20t-1 -17q0 -27 17 -42t53 -15l-9 -46q-37 0 -60 9.5t-35 24.5q-11 14 -15.5 28.5t-4.5 34.5z" />
    <glyph glyph-name="u" unicode="u" horiz-adv-x="348" 
d="M240 0h-51l8 39q-8 -11 -14.5 -17t-17.5 -14t-23.5 -12t-31.5 -4q-26 0 -43 10t-27 26q-8 13 -11.5 27t-3.5 31q0 16 6 48l74 374h52l-74 -374q-2 -10 -3.5 -22t-1.5 -19q0 -20 12 -37.5t41 -17.5q26 0 49.5 21t34.5 75l74 374h52z" />
    <glyph glyph-name="v" unicode="v" horiz-adv-x="285" 
d="M55 508h54v-419l170 419h53l-213 -508h-53z" />
    <glyph glyph-name="w" unicode="w" horiz-adv-x="465" 
d="M63 508h53l-19 -417l162 417h48l-7 -418l149 418h54l-193 -508h-52l7 417l-161 -417h-53z" />
    <glyph glyph-name="x" unicode="x" horiz-adv-x="300" 
d="M122 261l-49 247h53l35 -200l114 200h55l-151 -252l56 -256h-54l-40 207l-116 -207h-55z" />
    <glyph glyph-name="y" unicode="y" horiz-adv-x="287" 
d="M-73 -157q66 0 95 61l45 98l-12 506h53l2 -420l168 420h58l-258 -607q-14 -32 -30 -52.5t-35.5 -32t-43.5 -16t-52 -4.5z" />
    <glyph glyph-name="z" unicode="z" horiz-adv-x="264" 
d="M-23 39l244 423h-154l9 46h213l-7 -38l-246 -424h166l-9 -46h-224z" />
    <glyph glyph-name="braceleft" unicode="{" horiz-adv-x="268" 
d="M64 22q0 9 1 16l3 21l37 185q3 14 4 20.5t1 14.5q0 26 -14 40.5t-38 14.5h-14l9 46h14q30 0 52 22t32 71l37 183q8 37 19 61.5t29 40.5t41 22t50 6h20l-9 -46h-12q-31 0 -54.5 -21.5t-32.5 -69.5l-37 -185q-8 -39 -18.5 -59t-26.5 -34q-5 -5 -13.5 -9t-16.5 -7
q11 -6 21 -17q15 -20 15 -52q0 -16 -5 -41l-37 -183q-3 -18 -3 -34q0 -29 14 -42.5t40 -13.5h12l-9 -46h-17q-25 0 -44.5 9.5t-31.5 25.5q-8 11 -13 25.5t-5 35.5z" />
    <glyph glyph-name="bar" unicode="|" horiz-adv-x="234" 
d="M198 786h52l-172 -860h-52z" />
    <glyph glyph-name="braceright" unicode="}" horiz-adv-x="268" 
d="M246 690q0 -9 -1 -16l-3 -21l-37 -185q-3 -14 -4 -20.5t-1 -14.5q0 -26 14 -40.5t38 -14.5h14l-9 -46h-14q-30 0 -52 -22t-32 -71l-37 -183q-8 -37 -19 -61.5t-29 -40.5t-41 -22t-50 -6h-20l9 46h12q31 0 54.5 21.5t32.5 69.5l37 185q8 39 18.5 59t26.5 34q5 5 13.5 9
t16.5 7q-11 6 -21 17q-8 10 -11.5 23.5t-3.5 28.5q0 16 5 41l37 183q3 18 3 34q0 29 -14 42.5t-40 13.5h-12l9 46h17q25 0 44.5 -9.5t31.5 -25.5q8 -11 13 -25.5t5 -35.5z" />
    <glyph glyph-name="asciitilde" unicode="~" horiz-adv-x="404" 
d="M43 271q18 16 32 26.5t26 16.5t22.5 8t22.5 2q18 0 33 -6t38 -19q17 -9 27 -14t25 -5q16 0 29.5 7t39.5 30l28 -36q-32 -28 -54 -39.5t-47 -11.5q-19 0 -34.5 7t-35.5 18q-19 11 -29.5 15t-22.5 4q-17 0 -32 -8t-40 -31z" />
    <glyph glyph-name="uni00A0" unicode="&#xa0;" horiz-adv-x="183" 
 />
    <glyph glyph-name="exclamdown" unicode="&#xa1;" horiz-adv-x="212" 
d="M29 -204h-55l107 530h52zM164 434h-69l14 74h69z" />
    <glyph glyph-name="cent" unicode="&#xa2;" horiz-adv-x="319" 
d="M44 211q0 26 5.5 61t15.5 85q9 48 17.5 83t17 60t18.5 42.5t22 29.5q15 14 33.5 23t42.5 11l21 106h43l-21 -106q20 -2 32.5 -10.5t21.5 -19.5q19 -26 19 -64q0 -8 -1 -18.5t-3 -21.5h-50q3 16 3 33q0 12 -2 20.5t-8 16.5q-8 12 -22 17l-81 -404q19 5 31 17
q14 14 21.5 30.5t12.5 39.5h50q-9 -40 -21 -64t-29 -39q-31 -28 -74 -32l-21 -107h-43l21 108q-36 6 -56 38q-8 11 -12 26.5t-4 38.5zM104 173q8 -11 22 -17l82 402q-17 -4 -32 -19q-20 -20 -32 -62t-28 -120q-10 -50 -15.5 -84.5t-5.5 -57.5q0 -29 9 -42z" />
    <glyph glyph-name="sterling" unicode="&#xa3;" horiz-adv-x="370" 
d="M153 557q16 83 61 125q23 20 49 29t55 9q42 0 66.5 -14.5t38.5 -37.5l-44 -33q-13 18 -27.5 26.5t-36.5 8.5q-83 0 -107 -121l-31 -154h85l-8 -43h-85l-60 -302h191l-9 -50h-248l70 352h-61l9 43h60z" />
    <glyph glyph-name="currency" unicode="&#xa4;" horiz-adv-x="446" 
d="M227 149q25 0 47 9.5t38 26t25.5 38.5t9.5 47t-9.5 47t-25.5 38.5t-38 26t-47 9.5t-47 -9.5t-38 -26t-25.5 -38.5t-9.5 -47t9.5 -47t25.5 -38.5t38 -26t47 -9.5zM227 101q-28 0 -53.5 9t-47.5 26l-57 -56l-32 32l57 56q-17 22 -26 48t-9 54t9 54t26 48l-57 56l32 32
l57 -56q22 17 47.5 26t53.5 9t53.5 -9t47.5 -26l57 56l32 -32l-57 -56q17 -22 26 -48t9 -54t-9 -54t-26 -48l57 -56l-32 -32l-57 56q-22 -17 -47.5 -26t-53.5 -9z" />
    <glyph glyph-name="yen" unicode="&#xa5;" horiz-adv-x="295" 
d="M113 218h-77l9 41h76l9 44l-5 56h-60l8 42h49l-26 311h58l20 -330l148 330h62l-148 -311h45l-9 -42h-56l-32 -67l-7 -33h76l-9 -41h-75l-43 -218h-56z" />
    <glyph glyph-name="brokenbar" unicode="&#xa6;" horiz-adv-x="234" 
d="M96 275h52l-70 -349h-52zM198 786h52l-70 -349h-52z" />
    <glyph glyph-name="section" unicode="&#xa7;" horiz-adv-x="364" 
d="M59 271q7 34 13.5 58.5t14 42t16 30t19.5 23.5q23 21 63 31q-28 20 -42.5 43t-14.5 57q0 36 11 68t38 56q19 17 41 24.5t48 7.5q32 0 51.5 -9.5t30.5 -23.5q11 -15 15.5 -31t4.5 -36q0 -13 -3 -29h-51q3 13 3 24q0 26 -11 40q-5 8 -15.5 13.5t-27.5 5.5q-14 0 -26 -4.5
t-24 -15.5q-17 -15 -24 -37t-7 -46q0 -44 39 -70l48 -31q12 -8 21.5 -17t15.5 -17q20 -26 20 -62q0 -17 -3.5 -39t-10.5 -56t-13.5 -58t-14 -42t-16 -30.5t-18.5 -22.5q-23 -21 -63 -31q26 -20 41 -42.5t15 -60.5q0 -40 -12 -74.5t-36 -55.5q-40 -34 -94 -34q-33 0 -53 9.5
t-31 22.5q-13 16 -17.5 32.5t-4.5 35.5q0 14 3 31h51q-3 -15 -3 -26q0 -25 12 -40q6 -7 17.5 -13t28.5 -6q31 0 55 21q17 16 24 39.5t7 49.5q0 24 -10 40t-32 32l-46 32q-14 11 -22.5 18t-15.5 17q-8 11 -13 27t-5 36q0 17 3.5 39.5t9.5 53.5zM111 271q-6 -31 -9.5 -51.5
t-3.5 -35.5q0 -24 12 -40q15 -22 45 -22t55 22q8 8 14.5 17.5t12.5 24t11.5 35t11.5 50.5q6 31 9.5 51.5t3.5 35.5q0 23 -12 40q-15 22 -45 22t-55 -22q-8 -8 -14.5 -17.5t-12.5 -24t-11.5 -35t-11.5 -50.5z" />
    <glyph glyph-name="dieresis" unicode="&#xa8;" 
d="M153 664h58l-12 -62h-58zM282 664h58l-13 -62h-58z" />
    <glyph glyph-name="copyright" unicode="&#xa9;" horiz-adv-x="806" 
d="M516 261q-1 -26 -7.5 -46.5t-20.5 -36.5q-25 -26 -65 -26q-43 0 -68 30q-18 20 -24 60t-6 114t6 114t24 60q25 30 68 30q42 0 65 -26q14 -14 20.5 -35.5t7.5 -47.5h-40q-1 16 -4 32.5t-12 25.5q-14 15 -37 15q-14 0 -23 -5t-15 -13q-14 -16 -16.5 -50.5t-2.5 -99.5
t2.5 -99.5t16.5 -50.5q6 -8 15 -13t23 -5q23 0 37 15q9 9 12 25.5t4 32.5h40zM117 356q0 -64 24 -120t65.5 -98t97 -66.5t119.5 -24.5t120 24.5t97.5 66.5t65.5 98t24 120t-24 120.5t-65.5 98.5t-97.5 66.5t-120 24.5t-119.5 -24.5t-97 -66.5t-65.5 -98.5t-24 -120.5z
M77 356q0 72 27 135t74 110t110 74.5t135 27.5t135 -27.5t110 -74.5t74.5 -110t27.5 -135t-27.5 -135t-74.5 -110t-110 -74t-135 -27t-135 27t-110 74t-74 110t-27 135z" />
    <glyph glyph-name="ordfeminine" unicode="&#xaa;" horiz-adv-x="277" 
d="M62 400q0 35 12.5 67.5t37.5 52.5q17 14 37 19.5t47 5.5h48l12 57q2 8 3 17.5t1 16.5q0 19 -10 31.5t-33 12.5q-24 0 -39 -15q-13 -12 -18.5 -26.5t-9.5 -32.5h-44q5 23 14 47t29 41q16 14 33 19.5t40 5.5q44 0 65 -26q8 -10 12.5 -22t4.5 -33q0 -8 -1.5 -19.5
t-3.5 -19.5l-55 -276h-43l7 32q-13 -16 -27 -25q-18 -13 -43 -13q-20 0 -36 8t-26 22q-6 9 -10 22.5t-4 30.5zM107 408q0 -21 10 -36t34 -15q26 0 45 21.5t26 56.5l16 76h-37q-19 0 -32 -3t-26 -13q-18 -14 -27 -38t-9 -49z" />
    <glyph glyph-name="guillemotleft" unicode="&#xab;" horiz-adv-x="348" 
d="M30 268l170 210l-20 -99l-96 -117l49 -116l-18 -88zM173 268l170 210l-20 -99l-96 -117l49 -116l-18 -88z" />
    <glyph glyph-name="logicalnot" unicode="&#xac;" horiz-adv-x="406" 
d="M59 307h314l-32 -156h-51l22 106h-264z" />
    <glyph glyph-name="uni00AD" unicode="&#xad;" horiz-adv-x="271" 
d="M56 302h179l-10 -50h-179z" />
    <glyph glyph-name="registered" unicode="&#xae;" horiz-adv-x="806" 
d="M519 444q0 -35 -5.5 -53.5t-20.5 -34.5q-7 -9 -21 -14l59 -184h-42l-54 175h-62v-175h-40v397h97q19 0 35.5 -5.5t27.5 -16.5q17 -16 21.5 -36.5t4.5 -52.5zM479 444q0 24 -2.5 37.5t-12.5 24.5q-13 13 -33 13h-58v-150h58q20 0 33 13q10 11 12.5 24.5t2.5 37.5zM117 356
q0 -64 24 -120t65.5 -98t97 -66.5t119.5 -24.5t120 24.5t97.5 66.5t65.5 98t24 120t-24 120.5t-65.5 98.5t-97.5 66.5t-120 24.5t-119.5 -24.5t-97 -66.5t-65.5 -98.5t-24 -120.5zM77 356q0 72 27 135t74 110t110 74.5t135 27.5t135 -27.5t110 -74.5t74.5 -110t27.5 -135
t-27.5 -135t-74.5 -110t-110 -74t-135 -27t-135 27t-110 74t-74 110t-27 135z" />
    <glyph glyph-name="macron" unicode="&#xaf;" 
d="M145 654h198l-9 -42h-198z" />
    <glyph glyph-name="degree" unicode="&#xb0;" horiz-adv-x="358" 
d="M112 585q0 28 10.5 52.5t28.5 42.5t42.5 28.5t52.5 10.5t52 -10.5t42 -28.5t28.5 -42.5t10.5 -52.5t-10.5 -52.5t-28.5 -42.5t-42 -28.5t-52 -10.5t-52.5 10.5t-42.5 28.5t-28.5 42.5t-10.5 52.5zM332 585q0 38 -24 63.5t-62 25.5t-62.5 -25.5t-24.5 -63.5t24.5 -63.5
t62.5 -25.5t62 25.5t24 63.5z" />
    <glyph glyph-name="plusminus" unicode="&#xb1;" horiz-adv-x="406" 
d="M185 286h-132l10 50h132l28 142h50l-27 -142h131l-10 -50h-132l-28 -142h-51zM13 86h314l-10 -50h-314z" />
    <glyph glyph-name="twosuperior" unicode="&#xb2;" horiz-adv-x="286" 
d="M71 317l151 227q23 34 32.5 55t9.5 43q0 17 -9 28.5t-28 11.5q-20 0 -33 -12t-18 -40l-7 -33h-38l6 33q8 46 37 70q22 17 56 17q20 0 31.5 -5t21.5 -15q9 -9 14 -20.5t5 -31.5q0 -15 -2.5 -28t-8 -26.5t-14.5 -28t-22 -33.5l-140 -209h130l-7 -35h-173z" />
    <glyph glyph-name="threesuperior" unicode="&#xb3;" horiz-adv-x="286" 
d="M134 630q7 46 37 70q22 17 57 17q21 0 33.5 -5t21.5 -16q7 -8 10.5 -19.5t3.5 -30.5q0 -8 -2 -19t-5 -28q-5 -25 -10.5 -39.5t-14.5 -25.5q-10 -13 -28 -21q14 -8 22 -20.5t8 -32.5q0 -10 -2 -23.5t-6 -32.5q-8 -42 -17 -65.5t-26 -37.5q-24 -21 -64 -21q-17 0 -33.5 6
t-25.5 17q-8 11 -11 21t-3 23q0 7 0.5 15t1.5 12l6 31h39l-6 -33q-1 -5 -1.5 -11t-0.5 -10q0 -18 10 -27t27 -9q22 0 35 13q10 9 16.5 23.5t14.5 52.5q5 24 6.5 37.5t1.5 19.5q0 15 -10 25t-28 10h-27l7 33h23q17 0 31 12q10 9 14.5 19t11.5 39q7 28 7 44q0 20 -7.5 29.5
t-26.5 9.5q-20 0 -33 -12t-18 -39l-6 -34h-38z" />
    <glyph glyph-name="acute" unicode="&#xb4;" horiz-adv-x="330" 
d="M293 711h55l-94 -129h-51z" />
    <glyph glyph-name="mu" unicode="&#xb5;" horiz-adv-x="348" 
d="M157 508l-74 -374q-2 -10 -3.5 -22t-1.5 -19q0 -20 12 -37.5t41 -17.5q26 0 49.5 21t34.5 75l74 374h52l-101 -508h-51l8 39q-8 -11 -14.5 -17t-17.5 -14t-23.5 -12t-31.5 -4q-14 0 -28 5t-25 16l-43 -218h-52l143 713h52z" />
    <glyph glyph-name="paragraph" unicode="&#xb6;" horiz-adv-x="502" 
d="M237 307h-40q-60 0 -92 31.5t-32 97.5q0 17 2.5 35t7.5 41q12 59 27.5 97.5t37 61.5t49.5 32t64 9h274l-183 -917h-52l175 871h-113l-175 -871h-52z" />
    <glyph glyph-name="periodcentered" unicode="&#xb7;" horiz-adv-x="243" 
d="M86 362h114l-22 -112h-114z" />
    <glyph glyph-name="cedilla" unicode="&#xb8;" 
d="M95 -37h43l-68 -132h-52z" />
    <glyph glyph-name="onesuperior" unicode="&#xb9;" horiz-adv-x="286" 
d="M209 661l-75 -51l9 49l79 53h36l-85 -427h-39z" />
    <glyph glyph-name="ordmasculine" unicode="&#xba;" horiz-adv-x="277" 
d="M92 515q15 75 28.5 114t32.5 58q15 15 32 21.5t43 6.5t40.5 -8t22.5 -19q16 -20 16 -59q0 -18 -4 -46.5t-12 -67.5q-15 -75 -29 -114.5t-32 -57.5q-16 -16 -33 -22.5t-43 -6.5t-40.5 8.5t-22.5 19.5q-16 20 -16 59q0 18 4.5 46t12.5 68zM136 515q-8 -38 -12.5 -65
t-4.5 -47q0 -21 9 -35t31 -14q25 0 40 18t25 49.5t23 93.5q8 38 12 65t4 46q0 22 -9 36t-31 14q-24 0 -40 -18q-14 -15 -24.5 -47.5t-22.5 -95.5z" />
    <glyph glyph-name="guillemotright" unicode="&#xbb;" horiz-adv-x="348" 
d="M325 268l-170 -210l20 99l96 117l-49 116l18 88zM182 268l-170 -210l20 99l96 117l-49 116l18 88z" />
    <glyph glyph-name="onequarter" unicode="&#xbc;" horiz-adv-x="677" 
d="M209 661l-75 -51l9 49l79 53h36l-85 -427h-39zM528 712h42l-378 -712h-42zM407 107l180 320h41l-180 -319h83l22 108h38l-21 -108h32l-7 -35h-33l-13 -73h-40l15 73h-125z" />
    <glyph glyph-name="onehalf" unicode="&#xbd;" horiz-adv-x="677" 
d="M209 661l-75 -51l9 49l79 53h36l-85 -427h-39zM528 712h42l-378 -712h-42zM405 32l151 227q23 34 32.5 55t9.5 43q0 17 -9 28.5t-28 11.5q-20 0 -33 -12t-18 -40l-7 -33h-38l6 33q8 46 37 70q22 17 56 17q20 0 31.5 -5t21.5 -15q9 -9 14 -20.5t5 -31.5q0 -15 -2.5 -28
t-8 -26.5t-14.5 -28t-22 -33.5l-140 -209h130l-7 -35h-173z" />
    <glyph glyph-name="threequarters" unicode="&#xbe;" horiz-adv-x="677" 
d="M134 630q7 46 37 70q22 17 57 17q21 0 33.5 -5t21.5 -16q7 -8 10.5 -19.5t3.5 -30.5q0 -8 -2 -19t-5 -28q-5 -25 -10.5 -39.5t-14.5 -25.5q-10 -13 -28 -21q14 -8 22 -20.5t8 -32.5q0 -10 -2 -23.5t-6 -32.5q-8 -42 -17 -65.5t-26 -37.5q-24 -21 -64 -21q-17 0 -33.5 6
t-25.5 17q-8 11 -11 21t-3 23q0 7 0.5 15t1.5 12l6 31h39l-6 -33q-1 -5 -1.5 -11t-0.5 -10q0 -18 10 -27t27 -9q22 0 35 13q10 9 16.5 23.5t14.5 52.5q5 24 6.5 37.5t1.5 19.5q0 15 -10 25t-28 10h-27l7 33h23q17 0 31 12q10 9 14.5 19t11.5 39q7 28 7 44q0 20 -7.5 29.5
t-26.5 9.5q-20 0 -33 -12t-18 -39l-6 -34h-38zM528 712h42l-378 -712h-42zM407 107l180 320h41l-180 -319h83l22 108h38l-21 -108h32l-7 -35h-33l-13 -73h-40l15 73h-125z" />
    <glyph glyph-name="questiondown" unicode="&#xbf;" horiz-adv-x="351" 
d="M189 236q-5 -22 -14 -43t-33 -50l-71 -90q-14 -18 -24 -40t-16 -53q-4 -19 -5 -31.5t-1 -25.5q0 -16 4 -27t9 -19q15 -21 49 -21q30 0 54 21q17 14 26 36t15 51h52q-9 -48 -22.5 -75.5t-34.5 -45.5q-17 -14 -41 -23.5t-54 -9.5q-62 0 -89 38q-20 29 -20 68q0 12 1.5 28
t5.5 37q8 36 18.5 61.5t34.5 56.5l70 90q14 18 23 37t13 37l16 82h52zM234 434h-69l14 74h70z" />
    <glyph glyph-name="Agrave" unicode="&#xc0;" horiz-adv-x="356" 
d="M249 0l1 196h-159l-79 -196h-58l291 712h54l5 -712h-55zM253 612l-142 -366h139zM219 891h50l38 -128h-45z" />
    <glyph glyph-name="Aacute" unicode="&#xc1;" horiz-adv-x="356" 
d="M249 0l1 196h-159l-79 -196h-58l291 712h54l5 -712h-55zM253 612l-142 -366h139zM343 889h55l-94 -129h-51z" />
    <glyph glyph-name="Acircumflex" unicode="&#xc2;" horiz-adv-x="356" 
d="M249 0l1 196h-159l-79 -196h-58l291 712h54l5 -712h-55zM253 612l-142 -366h139zM383 760h-44l-38 92l-76 -92h-48l106 129h46z" />
    <glyph glyph-name="Atilde" unicode="&#xc3;" horiz-adv-x="356" 
d="M249 0l1 196h-159l-79 -196h-58l291 712h54l5 -712h-55zM253 612l-142 -366h139zM177 810q24 21 38.5 28.5t30.5 7.5q17 0 27 -4.5t23 -13.5q11 -8 19.5 -12t19.5 -4q12 0 21 5.5t23 18.5l23 -28q-25 -22 -39.5 -29t-30.5 -7t-26 4t-24 14q-11 7 -19 11t-19 4
q-12 0 -21.5 -5.5t-23.5 -18.5z" />
    <glyph glyph-name="Adieresis" unicode="&#xc4;" horiz-adv-x="356" 
d="M249 0l1 196h-159l-79 -196h-58l291 712h54l5 -712h-55zM253 612l-142 -366h139zM202 842h58l-12 -62h-58zM331 842h58l-13 -62h-58z" />
    <glyph glyph-name="Aring" unicode="&#xc5;" horiz-adv-x="356" 
d="M249 0l1 196h-159l-79 -196h-58l291 712h54l5 -712h-55zM253 612l-142 -366h139zM235 841q0 -23 15.5 -39t38.5 -16t38.5 16t15.5 39t-15.5 38.5t-38.5 15.5t-38.5 -15.5t-15.5 -38.5zM199 841q0 37 26 63.5t64 26.5t64 -26t26 -64t-26.5 -64t-63.5 -26q-38 0 -64 26
t-26 64z" />
    <glyph glyph-name="AE" unicode="&#xc6;" horiz-adv-x="568" 
d="M345 712h271l-10 -50h-178l-55 -278h152l-10 -50h-153l-56 -284h178l-10 -50h-234l39 198h-158l-106 -198h-62zM289 248l83 417l-223 -417h140z" />
    <glyph glyph-name="Ccedilla" unicode="&#xc7;" horiz-adv-x="375" 
d="M34 117q0 31 9 87t28 152q18 89 31 145.5t25 91.5t24.5 54.5t29.5 34.5q40 38 105 38q32 0 55.5 -10.5t37.5 -28.5q11 -15 16.5 -36.5t5.5 -45.5q0 -11 -1 -22t-4 -26h-55q2 13 3.5 24t1.5 22q0 32 -14 52.5t-50 20.5q-38 0 -64 -24q-13 -12 -22.5 -28t-19.5 -46.5
t-21.5 -81.5t-27.5 -134q-20 -96 -29 -151.5t-9 -87.5q0 -75 67 -75q19 0 35 7t27 18q18 17 29 40.5t17 54.5h57q-9 -45 -25 -79t-47 -59q-40 -32 -99 -32t-89 36q-14 17 -20.5 38.5t-6.5 50.5zM121 -37h43l-68 -132h-52z" />
    <glyph glyph-name="Egrave" unicode="&#xc8;" horiz-adv-x="342" 
d="M156 712h234l-10 -50h-178l-55 -278h152l-10 -50h-153l-56 -284h178l-10 -50h-234zM225 891h50l38 -128h-45z" />
    <glyph glyph-name="Eacute" unicode="&#xc9;" horiz-adv-x="342" 
d="M156 712h234l-10 -50h-178l-55 -278h152l-10 -50h-153l-56 -284h178l-10 -50h-234zM349 889h55l-94 -129h-51z" />
    <glyph glyph-name="Ecircumflex" unicode="&#xca;" horiz-adv-x="342" 
d="M156 712h234l-10 -50h-178l-55 -278h152l-10 -50h-153l-56 -284h178l-10 -50h-234zM389 760h-44l-38 92l-76 -92h-48l106 129h46z" />
    <glyph glyph-name="Edieresis" unicode="&#xcb;" horiz-adv-x="342" 
d="M156 712h234l-10 -50h-178l-55 -278h152l-10 -50h-153l-56 -284h178l-10 -50h-234zM208 842h58l-12 -62h-58zM337 842h58l-13 -62h-58z" />
    <glyph glyph-name="Igrave" unicode="&#xcc;" horiz-adv-x="184" 
d="M156 712h56l-142 -712h-56zM132 891h50l38 -128h-45z" />
    <glyph glyph-name="Iacute" unicode="&#xcd;" horiz-adv-x="184" 
d="M156 712h56l-142 -712h-56zM256 889h55l-94 -129h-51z" />
    <glyph glyph-name="Icircumflex" unicode="&#xce;" horiz-adv-x="184" 
d="M156 712h56l-142 -712h-56zM296 760h-44l-38 92l-76 -92h-48l106 129h46z" />
    <glyph glyph-name="Idieresis" unicode="&#xcf;" horiz-adv-x="184" 
d="M156 712h56l-142 -712h-56zM115 842h58l-12 -62h-58zM244 842h58l-13 -62h-58z" />
    <glyph glyph-name="Eth" unicode="&#xd0;" horiz-adv-x="426" 
d="M68 382h49l66 330h135q35 0 56.5 -10.5t35.5 -30.5q12 -17 18 -36t6 -46q0 -26 -9 -82.5t-28 -150.5q-17 -86 -29.5 -141t-24.5 -89.5t-24.5 -54t-30.5 -34.5q-41 -37 -104 -37h-143l67 336h-49zM185 50q43 0 67 24q13 12 22.5 29t19.5 47.5t21 79.5t26 126q19 93 28 148
t9 85q0 17 -4 29.5t-12 22.5q-16 21 -54 21h-79l-56 -280h84l-9 -46h-84l-57 -286h78z" />
    <glyph glyph-name="Ntilde" unicode="&#xd1;" horiz-adv-x="416" 
d="M156 712h51l72 -557l109 557h56l-142 -712h-49l-72 557l-111 -557h-56zM206 810q24 21 38.5 28.5t30.5 7.5q17 0 27 -4.5t23 -13.5q11 -8 19.5 -12t19.5 -4q12 0 21 5.5t23 18.5l23 -28q-25 -22 -39.5 -29t-30.5 -7t-26 4t-24 14q-11 7 -19 11t-19 4q-12 0 -21.5 -5.5
t-23.5 -18.5z" />
    <glyph glyph-name="Ograve" unicode="&#xd2;" horiz-adv-x="395" 
d="M71 356q18 90 31 146.5t25 91.5t24.5 54.5t30.5 35.5q40 36 101 36q35 0 58.5 -10.5t37.5 -30.5q12 -17 18 -35.5t6 -44.5q0 -17 -2.5 -39.5t-7 -51.5t-11.5 -66.5t-16 -85.5q-18 -90 -31 -146.5t-25 -91.5t-24.5 -54.5t-30.5 -35.5q-40 -36 -101 -36q-35 0 -58.5 10.5
t-37.5 30.5q-12 17 -18 35.5t-6 44.5q0 34 9 91t28 152zM310 356q19 95 28 151t9 86q0 16 -3 30t-11 24.5t-21.5 16.5t-33.5 6q-17 0 -32.5 -6t-28.5 -18q-12 -12 -21.5 -28t-19 -46.5t-21.5 -82t-28 -133.5q-20 -95 -28.5 -151t-8.5 -86q0 -16 3 -30t11 -24.5t21.5 -16.5
t33.5 -6q35 0 61 24q12 12 21.5 28t19 46.5t21 82t28.5 133.5zM236 891h50l38 -128h-45z" />
    <glyph glyph-name="Oacute" unicode="&#xd3;" horiz-adv-x="395" 
d="M71 356q18 90 31 146.5t25 91.5t24.5 54.5t30.5 35.5q40 36 101 36q35 0 58.5 -10.5t37.5 -30.5q12 -17 18 -35.5t6 -44.5q0 -17 -2.5 -39.5t-7 -51.5t-11.5 -66.5t-16 -85.5q-18 -90 -31 -146.5t-25 -91.5t-24.5 -54.5t-30.5 -35.5q-40 -36 -101 -36q-35 0 -58.5 10.5
t-37.5 30.5q-12 17 -18 35.5t-6 44.5q0 34 9 91t28 152zM310 356q19 95 28 151t9 86q0 16 -3 30t-11 24.5t-21.5 16.5t-33.5 6q-17 0 -32.5 -6t-28.5 -18q-12 -12 -21.5 -28t-19 -46.5t-21.5 -82t-28 -133.5q-20 -95 -28.5 -151t-8.5 -86q0 -16 3 -30t11 -24.5t21.5 -16.5
t33.5 -6q35 0 61 24q12 12 21.5 28t19 46.5t21 82t28.5 133.5zM360 889h55l-94 -129h-51z" />
    <glyph glyph-name="Ocircumflex" unicode="&#xd4;" horiz-adv-x="395" 
d="M71 356q18 90 31 146.5t25 91.5t24.5 54.5t30.5 35.5q40 36 101 36q35 0 58.5 -10.5t37.5 -30.5q12 -17 18 -35.5t6 -44.5q0 -17 -2.5 -39.5t-7 -51.5t-11.5 -66.5t-16 -85.5q-18 -90 -31 -146.5t-25 -91.5t-24.5 -54.5t-30.5 -35.5q-40 -36 -101 -36q-35 0 -58.5 10.5
t-37.5 30.5q-12 17 -18 35.5t-6 44.5q0 34 9 91t28 152zM310 356q19 95 28 151t9 86q0 16 -3 30t-11 24.5t-21.5 16.5t-33.5 6q-17 0 -32.5 -6t-28.5 -18q-12 -12 -21.5 -28t-19 -46.5t-21.5 -82t-28 -133.5q-20 -95 -28.5 -151t-8.5 -86q0 -16 3 -30t11 -24.5t21.5 -16.5
t33.5 -6q35 0 61 24q12 12 21.5 28t19 46.5t21 82t28.5 133.5zM400 760h-44l-38 92l-76 -92h-48l106 129h46z" />
    <glyph glyph-name="Otilde" unicode="&#xd5;" horiz-adv-x="395" 
d="M71 356q18 90 31 146.5t25 91.5t24.5 54.5t30.5 35.5q40 36 101 36q35 0 58.5 -10.5t37.5 -30.5q12 -17 18 -35.5t6 -44.5q0 -17 -2.5 -39.5t-7 -51.5t-11.5 -66.5t-16 -85.5q-18 -90 -31 -146.5t-25 -91.5t-24.5 -54.5t-30.5 -35.5q-40 -36 -101 -36q-35 0 -58.5 10.5
t-37.5 30.5q-12 17 -18 35.5t-6 44.5q0 34 9 91t28 152zM310 356q19 95 28 151t9 86q0 16 -3 30t-11 24.5t-21.5 16.5t-33.5 6q-17 0 -32.5 -6t-28.5 -18q-12 -12 -21.5 -28t-19 -46.5t-21.5 -82t-28 -133.5q-20 -95 -28.5 -151t-8.5 -86q0 -16 3 -30t11 -24.5t21.5 -16.5
t33.5 -6q35 0 61 24q12 12 21.5 28t19 46.5t21 82t28.5 133.5zM194 810q24 21 38.5 28.5t30.5 7.5q17 0 27 -4.5t23 -13.5q11 -8 19.5 -12t19.5 -4q12 0 21 5.5t23 18.5l23 -28q-25 -22 -39.5 -29t-30.5 -7t-26 4t-24 14q-11 7 -19 11t-19 4q-12 0 -21.5 -5.5t-23.5 -18.5z
" />
    <glyph glyph-name="Odieresis" unicode="&#xd6;" horiz-adv-x="395" 
d="M71 356q18 90 31 146.5t25 91.5t24.5 54.5t30.5 35.5q40 36 101 36q35 0 58.5 -10.5t37.5 -30.5q12 -17 18 -35.5t6 -44.5q0 -17 -2.5 -39.5t-7 -51.5t-11.5 -66.5t-16 -85.5q-18 -90 -31 -146.5t-25 -91.5t-24.5 -54.5t-30.5 -35.5q-40 -36 -101 -36q-35 0 -58.5 10.5
t-37.5 30.5q-12 17 -18 35.5t-6 44.5q0 34 9 91t28 152zM310 356q19 95 28 151t9 86q0 16 -3 30t-11 24.5t-21.5 16.5t-33.5 6q-17 0 -32.5 -6t-28.5 -18q-12 -12 -21.5 -28t-19 -46.5t-21.5 -82t-28 -133.5q-20 -95 -28.5 -151t-8.5 -86q0 -16 3 -30t11 -24.5t21.5 -16.5
t33.5 -6q35 0 61 24q12 12 21.5 28t19 46.5t21 82t28.5 133.5zM219 842h58l-12 -62h-58zM348 842h58l-13 -62h-58z" />
    <glyph glyph-name="multiply" unicode="&#xd7;" horiz-adv-x="406" 
d="M325 150l-38 -33l-85 115l-131 -116l-30 41l131 115l-85 116l38 33l85 -115l131 116l30 -41l-131 -115z" />
    <glyph glyph-name="Oslash" unicode="&#xd8;" horiz-adv-x="395" 
d="M71 356q18 90 31 146.5t25 91.5t24.5 54.5t30.5 35.5q40 36 101 36q50 0 78 -23l29 59h46l-47 -93q7 -14 10.5 -29t3.5 -35q0 -17 -2.5 -39.5t-7 -51.5t-11.5 -66.5t-16 -85.5q-18 -90 -31 -146.5t-25 -91.5t-24.5 -54.5t-30.5 -35.5q-40 -36 -101 -36q-26 0 -45.5 5.5
t-33.5 16.5l-28 -58h-46l47 92q-7 14 -10.5 29.5t-3.5 35.5q0 34 9 91t28 152zM310 356q18 90 26.5 144t10.5 85l-246 -516q16 -27 57 -27q36 0 62 24q12 12 21.5 28t19 46.5t21 82t28.5 133.5zM127 356q-18 -89 -27 -143t-10 -85l245 516q-16 26 -57 26q-17 0 -32.5 -6
t-28.5 -18q-12 -12 -21.5 -28t-19 -46.5t-21.5 -82t-28 -133.5z" />
    <glyph glyph-name="Ugrave" unicode="&#xd9;" horiz-adv-x="393" 
d="M150 712h56l-113 -560q-2 -8 -3 -17.5t-1 -19.5q0 -35 16.5 -54t49.5 -19t62.5 25.5t39.5 75.5l115 569h56l-115 -570q-8 -43 -23.5 -69t-36.5 -44q-19 -17 -45 -27t-62 -10q-26 0 -50 10t-39 30q-24 30 -24 76q0 16 2 30t4 22zM236 891h50l38 -128h-45z" />
    <glyph glyph-name="Uacute" unicode="&#xda;" horiz-adv-x="393" 
d="M150 712h56l-113 -560q-2 -8 -3 -17.5t-1 -19.5q0 -35 16.5 -54t49.5 -19t62.5 25.5t39.5 75.5l115 569h56l-115 -570q-8 -43 -23.5 -69t-36.5 -44q-19 -17 -45 -27t-62 -10q-26 0 -50 10t-39 30q-24 30 -24 76q0 16 2 30t4 22zM360 889h55l-94 -129h-51z" />
    <glyph glyph-name="Ucircumflex" unicode="&#xdb;" horiz-adv-x="393" 
d="M150 712h56l-113 -560q-2 -8 -3 -17.5t-1 -19.5q0 -35 16.5 -54t49.5 -19t62.5 25.5t39.5 75.5l115 569h56l-115 -570q-8 -43 -23.5 -69t-36.5 -44q-19 -17 -45 -27t-62 -10q-26 0 -50 10t-39 30q-24 30 -24 76q0 16 2 30t4 22zM400 760h-44l-38 92l-76 -92h-48l106 129
h46z" />
    <glyph glyph-name="Udieresis" unicode="&#xdc;" horiz-adv-x="393" 
d="M150 712h56l-113 -560q-2 -8 -3 -17.5t-1 -19.5q0 -35 16.5 -54t49.5 -19t62.5 25.5t39.5 75.5l115 569h56l-115 -570q-8 -43 -23.5 -69t-36.5 -44q-19 -17 -45 -27t-62 -10q-26 0 -50 10t-39 30q-24 30 -24 76q0 16 2 30t4 22zM219 842h58l-12 -62h-58zM348 842h58
l-13 -62h-58z" />
    <glyph glyph-name="Yacute" unicode="&#xdd;" horiz-adv-x="297" 
d="M130 303l-34 409h58l20 -330l148 330h62l-200 -420l-58 -292h-56zM313 889h55l-94 -129h-51z" />
    <glyph glyph-name="Thorn" unicode="&#xde;" horiz-adv-x="384" 
d="M212 712l-31 -154h68q34 0 56 -7.5t37 -22.5q16 -17 23 -39.5t7 -51.5q0 -16 -2 -37t-6 -41q-12 -61 -29.5 -99.5t-40 -60.5t-50.5 -30t-60 -8h-82l-32 -161h-56l142 712h56zM184 211q21 0 39 5.5t34 22t29 45t22 75.5q4 19 5.5 38.5t1.5 34.5q0 38 -16 57t-58 19h-70
l-59 -297h72z" />
    <glyph glyph-name="germandbls" unicode="&#xdf;" horiz-adv-x="348" 
d="M124 587q14 70 54 103q17 14 37.5 22t48.5 8q29 0 49.5 -9.5t32.5 -26.5q11 -15 15.5 -33.5t4.5 -38.5q0 -17 -3 -37t-8.5 -40t-13.5 -38.5t-18 -31.5q-10 -14 -18.5 -21.5t-22.5 -16.5q37 -24 37 -83q0 -17 -5 -47t-15 -76q-10 -49 -17.5 -81t-15.5 -53t-17 -34t-21 -23
q-35 -30 -102 -30l9 46q37 0 60 22q8 7 15 18.5t13 29.5t12 45t14 66q8 41 12.5 69t4.5 48q0 24 -10.5 42.5t-40.5 18.5h-8l8 44h7q16 0 27.5 9t22.5 22q10 12 17.5 28.5t13 34.5t8 35.5t2.5 31.5q0 30 -13.5 47t-39.5 17q-33 0 -54 -24t-29 -63l-117 -587h-52z" />
    <glyph glyph-name="agrave" unicode="&#xe0;" horiz-adv-x="329" 
d="M23 27q-9 14 -12.5 31t-3.5 37q0 9 1 21t4 26q7 35 22.5 65.5t40.5 51.5q18 15 40 22t57 7h59l18 92q4 19 4 33q0 27 -13.5 42t-39.5 15q-28 0 -47 -18q-15 -13 -22.5 -30.5t-12.5 -43.5h-52q6 30 17 58t35 49q18 16 38.5 23.5t49.5 7.5q57 0 81 -32q9 -13 13.5 -27.5
t4.5 -39.5q0 -9 -1 -20t-3 -19l-76 -378h-50l8 43q-6 -8 -13.5 -16.5t-18.5 -16.5q-14 -11 -27.5 -14.5t-30.5 -3.5q-45 0 -70 35zM60 101q0 -29 12 -46t36 -17q19 0 34.5 8.5t27 22.5t19.5 30.5t11 33.5l23 115h-49q-23 0 -37 -4.5t-30 -18.5q-23 -20 -35 -55.5t-12 -68.5z
M165 712h50l38 -128h-45z" />
    <glyph glyph-name="aacute" unicode="&#xe1;" horiz-adv-x="329" 
d="M23 27q-9 14 -12.5 31t-3.5 37q0 9 1 21t4 26q7 35 22.5 65.5t40.5 51.5q18 15 40 22t57 7h59l18 92q4 19 4 33q0 27 -13.5 42t-39.5 15q-28 0 -47 -18q-15 -13 -22.5 -30.5t-12.5 -43.5h-52q6 30 17 58t35 49q18 16 38.5 23.5t49.5 7.5q57 0 81 -32q9 -13 13.5 -27.5
t4.5 -39.5q0 -9 -1 -20t-3 -19l-76 -378h-50l8 43q-6 -8 -13.5 -16.5t-18.5 -16.5q-14 -11 -27.5 -14.5t-30.5 -3.5q-45 0 -70 35zM60 101q0 -29 12 -46t36 -17q19 0 34.5 8.5t27 22.5t19.5 30.5t11 33.5l23 115h-49q-23 0 -37 -4.5t-30 -18.5q-23 -20 -35 -55.5t-12 -68.5z
M288 711h55l-94 -129h-51z" />
    <glyph glyph-name="acircumflex" unicode="&#xe2;" horiz-adv-x="329" 
d="M23 27q-9 14 -12.5 31t-3.5 37q0 9 1 21t4 26q7 35 22.5 65.5t40.5 51.5q18 15 40 22t57 7h59l18 92q4 19 4 33q0 27 -13.5 42t-39.5 15q-28 0 -47 -18q-15 -13 -22.5 -30.5t-12.5 -43.5h-52q6 30 17 58t35 49q18 16 38.5 23.5t49.5 7.5q57 0 81 -32q9 -13 13.5 -27.5
t4.5 -39.5q0 -9 -1 -20t-3 -19l-76 -378h-50l8 43q-6 -8 -13.5 -16.5t-18.5 -16.5q-14 -11 -27.5 -14.5t-30.5 -3.5q-45 0 -70 35zM60 101q0 -29 12 -46t36 -17q19 0 34.5 8.5t27 22.5t19.5 30.5t11 33.5l23 115h-49q-23 0 -37 -4.5t-30 -18.5q-23 -20 -35 -55.5t-12 -68.5z
M328 582h-44l-38 92l-76 -92h-48l106 129h46z" />
    <glyph glyph-name="atilde" unicode="&#xe3;" horiz-adv-x="329" 
d="M23 27q-9 14 -12.5 31t-3.5 37q0 9 1 21t4 26q7 35 22.5 65.5t40.5 51.5q18 15 40 22t57 7h59l18 92q4 19 4 33q0 27 -13.5 42t-39.5 15q-28 0 -47 -18q-15 -13 -22.5 -30.5t-12.5 -43.5h-52q6 30 17 58t35 49q18 16 38.5 23.5t49.5 7.5q57 0 81 -32q9 -13 13.5 -27.5
t4.5 -39.5q0 -9 -1 -20t-3 -19l-76 -378h-50l8 43q-6 -8 -13.5 -16.5t-18.5 -16.5q-14 -11 -27.5 -14.5t-30.5 -3.5q-45 0 -70 35zM60 101q0 -29 12 -46t36 -17q19 0 34.5 8.5t27 22.5t19.5 30.5t11 33.5l23 115h-49q-23 0 -37 -4.5t-30 -18.5q-23 -20 -35 -55.5t-12 -68.5z
M123 632q24 21 38.5 28.5t30.5 7.5q17 0 27 -4.5t23 -13.5q11 -8 19.5 -12t19.5 -4q12 0 21 5.5t23 18.5l23 -28q-25 -22 -39.5 -29t-30.5 -7t-26 4t-24 14q-11 7 -19 11t-19 4q-12 0 -21.5 -5.5t-23.5 -18.5z" />
    <glyph glyph-name="adieresis" unicode="&#xe4;" horiz-adv-x="329" 
d="M23 27q-9 14 -12.5 31t-3.5 37q0 9 1 21t4 26q7 35 22.5 65.5t40.5 51.5q18 15 40 22t57 7h59l18 92q4 19 4 33q0 27 -13.5 42t-39.5 15q-28 0 -47 -18q-15 -13 -22.5 -30.5t-12.5 -43.5h-52q6 30 17 58t35 49q18 16 38.5 23.5t49.5 7.5q57 0 81 -32q9 -13 13.5 -27.5
t4.5 -39.5q0 -9 -1 -20t-3 -19l-76 -378h-50l8 43q-6 -8 -13.5 -16.5t-18.5 -16.5q-14 -11 -27.5 -14.5t-30.5 -3.5q-45 0 -70 35zM60 101q0 -29 12 -46t36 -17q19 0 34.5 8.5t27 22.5t19.5 30.5t11 33.5l23 115h-49q-23 0 -37 -4.5t-30 -18.5q-23 -20 -35 -55.5t-12 -68.5z
M148 664h58l-12 -62h-58zM277 664h58l-13 -62h-58z" />
    <glyph glyph-name="aring" unicode="&#xe5;" horiz-adv-x="329" 
d="M23 27q-9 14 -12.5 31t-3.5 37q0 9 1 21t4 26q7 35 22.5 65.5t40.5 51.5q18 15 40 22t57 7h59l18 92q4 19 4 33q0 27 -13.5 42t-39.5 15q-28 0 -47 -18q-15 -13 -22.5 -30.5t-12.5 -43.5h-52q6 30 17 58t35 49q18 16 38.5 23.5t49.5 7.5q57 0 81 -32q9 -13 13.5 -27.5
t4.5 -39.5q0 -9 -1 -20t-3 -19l-76 -378h-50l8 43q-6 -8 -13.5 -16.5t-18.5 -16.5q-14 -11 -27.5 -14.5t-30.5 -3.5q-45 0 -70 35zM60 101q0 -29 12 -46t36 -17q19 0 34.5 8.5t27 22.5t19.5 30.5t11 33.5l23 115h-49q-23 0 -37 -4.5t-30 -18.5q-23 -20 -35 -55.5t-12 -68.5z
M187 672q0 -23 15.5 -39t38.5 -16t38.5 16t15.5 39t-15.5 38.5t-38.5 15.5t-38.5 -15.5t-15.5 -38.5zM151 672q0 38 26 64t64 26t64 -26t26 -64t-26 -64t-64 -26t-64 26t-26 64z" />
    <glyph glyph-name="ae" unicode="&#xe6;" horiz-adv-x="507" 
d="M206 516q66 0 87 -50q36 50 103 50q30 0 49 -10t30 -27q17 -26 17 -69q0 -29 -6 -68t-17 -95h-195q-10 -52 -16 -88t-6 -58q0 -29 14 -46q7 -8 16 -12.5t23 -4.5q13 0 26.5 5t24.5 14q14 13 22.5 31.5t14.5 45.5h51q-8 -39 -19.5 -64t-32.5 -45q-36 -33 -92 -33
q-26 0 -44.5 8.5t-30.5 22.5q-14 17 -20 41q-9 -16 -18.5 -27t-15.5 -16q-20 -16 -38.5 -22.5t-39.5 -6.5q-45 0 -70 35q-9 14 -12.5 31t-3.5 37q0 9 1 21t4 26q7 35 22.5 65.5t40.5 51.5q18 15 40 22t57 7h59l18 92q4 19 4 33q0 27 -13.5 42t-39.5 15q-28 0 -47 -18
q-15 -13 -22.5 -30.5t-12.5 -43.5h-52q6 30 17 58t35 49q18 16 38.5 23.5t49.5 7.5zM60 101q0 -29 12 -46t36 -17q19 0 34.5 8.5t27 22.5t19.5 30.5t11 33.5l23 115h-49q-23 0 -37 -4.5t-30 -18.5q-23 -20 -35 -55.5t-12 -68.5zM425 290q16 77 16 118q0 28 -12 45t-39 17
q-14 0 -27 -5t-24 -17q-10 -11 -17 -23.5t-13.5 -30.5t-12.5 -43t-13 -61h142z" />
    <glyph glyph-name="ccedilla" unicode="&#xe7;" horiz-adv-x="317" 
d="M42 254q10 49 18.5 85.5t17.5 63t19.5 45t24.5 32.5q34 36 92 36q32 0 51.5 -9t30.5 -26q9 -14 13 -28t4 -34q0 -16 -5 -44h-51q5 23 5 39q0 12 -3.5 24t-8.5 17q-7 7 -16 11t-24 4q-30 0 -53 -23q-20 -20 -33.5 -65t-29.5 -128q-11 -56 -17.5 -93t-6.5 -60q0 -38 19 -52
q12 -11 36 -11q28 0 49 19q15 14 23 32.5t13 44.5h52q-9 -41 -21 -65t-29 -41q-37 -36 -93 -36q-45 0 -72 27t-27 80q0 48 22 155zM95 -37h43l-68 -132h-52z" />
    <glyph glyph-name="egrave" unicode="&#xe8;" horiz-adv-x="326" 
d="M35 34q-15 25 -15 65q0 23 6 61.5t17 93.5q10 49 19 86t18 64t19.5 45.5t22.5 30.5q36 36 93 36q30 0 49 -10t30 -27q17 -26 17 -69q0 -29 -6 -68t-17 -95h-195q-10 -52 -16 -88t-6 -58q0 -29 14 -46q7 -8 16 -12.5t23 -4.5q13 0 26.5 5t24.5 14q14 13 22.5 31.5
t14.5 45.5h51q-8 -39 -19.5 -64t-32.5 -45q-36 -33 -92 -33q-59 0 -84 42zM244 290q16 77 16 118q0 28 -12 45t-39 17q-14 0 -27 -5t-24 -17q-10 -11 -17 -23.5t-13.5 -30.5t-12.5 -43t-13 -61h142zM170 712h50l38 -128h-45z" />
    <glyph glyph-name="eacute" unicode="&#xe9;" horiz-adv-x="326" 
d="M35 34q-15 25 -15 65q0 23 6 61.5t17 93.5q10 49 19 86t18 64t19.5 45.5t22.5 30.5q36 36 93 36q30 0 49 -10t30 -27q17 -26 17 -69q0 -29 -6 -68t-17 -95h-195q-10 -52 -16 -88t-6 -58q0 -29 14 -46q7 -8 16 -12.5t23 -4.5q13 0 26.5 5t24.5 14q14 13 22.5 31.5
t14.5 45.5h51q-8 -39 -19.5 -64t-32.5 -45q-36 -33 -92 -33q-59 0 -84 42zM244 290q16 77 16 118q0 28 -12 45t-39 17q-14 0 -27 -5t-24 -17q-10 -11 -17 -23.5t-13.5 -30.5t-12.5 -43t-13 -61h142zM293 711h55l-94 -129h-51z" />
    <glyph glyph-name="ecircumflex" unicode="&#xea;" horiz-adv-x="326" 
d="M35 34q-15 25 -15 65q0 23 6 61.5t17 93.5q10 49 19 86t18 64t19.5 45.5t22.5 30.5q36 36 93 36q30 0 49 -10t30 -27q17 -26 17 -69q0 -29 -6 -68t-17 -95h-195q-10 -52 -16 -88t-6 -58q0 -29 14 -46q7 -8 16 -12.5t23 -4.5q13 0 26.5 5t24.5 14q14 13 22.5 31.5
t14.5 45.5h51q-8 -39 -19.5 -64t-32.5 -45q-36 -33 -92 -33q-59 0 -84 42zM244 290q16 77 16 118q0 28 -12 45t-39 17q-14 0 -27 -5t-24 -17q-10 -11 -17 -23.5t-13.5 -30.5t-12.5 -43t-13 -61h142zM333 582h-44l-38 92l-76 -92h-48l106 129h46z" />
    <glyph glyph-name="edieresis" unicode="&#xeb;" horiz-adv-x="326" 
d="M35 34q-15 25 -15 65q0 23 6 61.5t17 93.5q10 49 19 86t18 64t19.5 45.5t22.5 30.5q36 36 93 36q30 0 49 -10t30 -27q17 -26 17 -69q0 -29 -6 -68t-17 -95h-195q-10 -52 -16 -88t-6 -58q0 -29 14 -46q7 -8 16 -12.5t23 -4.5q13 0 26.5 5t24.5 14q14 13 22.5 31.5
t14.5 45.5h51q-8 -39 -19.5 -64t-32.5 -45q-36 -33 -92 -33q-59 0 -84 42zM244 290q16 77 16 118q0 28 -12 45t-39 17q-14 0 -27 -5t-24 -17q-10 -11 -17 -23.5t-13.5 -30.5t-12.5 -43t-13 -61h142zM153 664h58l-12 -62h-58zM282 664h58l-13 -62h-58z" />
    <glyph glyph-name="igrave" unicode="&#xec;" horiz-adv-x="168" 
d="M110 508h52l-102 -508h-52zM92 712h50l38 -128h-45z" />
    <glyph glyph-name="iacute" unicode="&#xed;" horiz-adv-x="168" 
d="M110 508h52l-102 -508h-52zM215 711h55l-94 -129h-51z" />
    <glyph glyph-name="icircumflex" unicode="&#xee;" horiz-adv-x="168" 
d="M110 508h52l-102 -508h-52zM255 582h-44l-38 92l-76 -92h-48l106 129h46z" />
    <glyph glyph-name="idieresis" unicode="&#xef;" horiz-adv-x="168" 
d="M110 508h52l-102 -508h-52zM75 664h58l-12 -62h-58zM204 664h58l-13 -62h-58z" />
    <glyph glyph-name="eth" unicode="&#xf0;" horiz-adv-x="332" 
d="M42 250q10 54 19.5 91t18.5 62.5t19 41.5t22 28q35 32 84 32q32 0 53 -16l-13 95h-77l7 39h65l-14 89h49l13 -89h69l-7 -39h-56l14 -118q2 -11 2.5 -21.5t0.5 -23.5q0 -28 -4.5 -67t-17.5 -104q-11 -54 -20.5 -91.5t-18.5 -63t-19 -41.5t-22 -28q-17 -17 -39.5 -25.5
t-51.5 -8.5q-28 0 -47 9.5t-30 25.5q-9 11 -14 28.5t-5 44.5q0 44 20 150zM94 250q-11 -52 -16.5 -88t-5.5 -59q0 -29 10 -45q13 -20 41 -20q14 0 27.5 5.5t23.5 16.5t18 25.5t14.5 36.5t13.5 53t16 75q11 52 16.5 87.5t5.5 57.5q0 29 -10 45q-6 8 -16 13.5t-24 5.5
q-29 0 -52 -21q-9 -8 -16.5 -22t-14.5 -36.5t-14.5 -54.5t-16.5 -75z" />
    <glyph glyph-name="ntilde" unicode="&#xf1;" horiz-adv-x="348" 
d="M109 508h51l-8 -39q8 11 14.5 17t17.5 14t23.5 12t31.5 4q26 0 43 -10t27 -26q8 -13 11.5 -27t3.5 -31t-6 -48l-74 -374h-52l74 374q2 10 3.5 22t1.5 19q0 20 -12 37.5t-41 17.5q-26 0 -49.5 -21t-34.5 -75l-74 -374h-52zM139 632q24 21 38.5 28.5t30.5 7.5q17 0 27 -4.5
t23 -13.5q11 -8 19.5 -12t19.5 -4q12 0 21 5.5t23 18.5l23 -28q-25 -22 -39.5 -29t-30.5 -7t-26 4t-24 14q-11 7 -19 11t-19 4q-12 0 -21.5 -5.5t-23.5 -18.5z" />
    <glyph glyph-name="ograve" unicode="&#xf2;" 
d="M95 254q-11 -54 -17 -91.5t-6 -60.5q0 -30 11 -45q6 -8 15.5 -13.5t23.5 -5.5q30 0 52 22q10 10 17.5 24.5t15 37.5t14.5 55t16 77q11 54 17 91.5t6 60.5q0 30 -11 45q-6 8 -15.5 13.5t-23.5 5.5q-30 0 -52 -22q-10 -10 -17.5 -24.5t-15 -37.5t-14.5 -55t-16 -77z
M289 254q-11 -55 -20 -93t-18.5 -63.5t-19.5 -42t-22 -28.5q-17 -17 -39.5 -26t-51.5 -9q-30 0 -50.5 10.5t-31.5 29.5q-7 11 -10.5 27t-3.5 42q0 43 21 153q11 55 20 93t18.5 63.5t19.5 42t22 28.5q35 35 91 35q30 0 50.5 -10.5t31.5 -29.5q7 -11 10.5 -27t3.5 -42
q0 -44 -21 -153zM170 712h50l38 -128h-45z" />
    <glyph glyph-name="oacute" unicode="&#xf3;" 
d="M95 254q-11 -54 -17 -91.5t-6 -60.5q0 -30 11 -45q6 -8 15.5 -13.5t23.5 -5.5q30 0 52 22q10 10 17.5 24.5t15 37.5t14.5 55t16 77q11 54 17 91.5t6 60.5q0 30 -11 45q-6 8 -15.5 13.5t-23.5 5.5q-30 0 -52 -22q-10 -10 -17.5 -24.5t-15 -37.5t-14.5 -55t-16 -77z
M289 254q-11 -55 -20 -93t-18.5 -63.5t-19.5 -42t-22 -28.5q-17 -17 -39.5 -26t-51.5 -9q-30 0 -50.5 10.5t-31.5 29.5q-7 11 -10.5 27t-3.5 42q0 43 21 153q11 55 20 93t18.5 63.5t19.5 42t22 28.5q35 35 91 35q30 0 50.5 -10.5t31.5 -29.5q7 -11 10.5 -27t3.5 -42
q0 -44 -21 -153zM293 711h55l-94 -129h-51z" />
    <glyph glyph-name="ocircumflex" unicode="&#xf4;" 
d="M95 254q-11 -54 -17 -91.5t-6 -60.5q0 -30 11 -45q6 -8 15.5 -13.5t23.5 -5.5q30 0 52 22q10 10 17.5 24.5t15 37.5t14.5 55t16 77q11 54 17 91.5t6 60.5q0 30 -11 45q-6 8 -15.5 13.5t-23.5 5.5q-30 0 -52 -22q-10 -10 -17.5 -24.5t-15 -37.5t-14.5 -55t-16 -77z
M289 254q-11 -55 -20 -93t-18.5 -63.5t-19.5 -42t-22 -28.5q-17 -17 -39.5 -26t-51.5 -9q-30 0 -50.5 10.5t-31.5 29.5q-7 11 -10.5 27t-3.5 42q0 43 21 153q11 55 20 93t18.5 63.5t19.5 42t22 28.5q35 35 91 35q30 0 50.5 -10.5t31.5 -29.5q7 -11 10.5 -27t3.5 -42
q0 -44 -21 -153zM333 582h-44l-38 92l-76 -92h-48l106 129h46z" />
    <glyph glyph-name="otilde" unicode="&#xf5;" 
d="M95 254q-11 -54 -17 -91.5t-6 -60.5q0 -30 11 -45q6 -8 15.5 -13.5t23.5 -5.5q30 0 52 22q10 10 17.5 24.5t15 37.5t14.5 55t16 77q11 54 17 91.5t6 60.5q0 30 -11 45q-6 8 -15.5 13.5t-23.5 5.5q-30 0 -52 -22q-10 -10 -17.5 -24.5t-15 -37.5t-14.5 -55t-16 -77z
M289 254q-11 -55 -20 -93t-18.5 -63.5t-19.5 -42t-22 -28.5q-17 -17 -39.5 -26t-51.5 -9q-30 0 -50.5 10.5t-31.5 29.5q-7 11 -10.5 27t-3.5 42q0 43 21 153q11 55 20 93t18.5 63.5t19.5 42t22 28.5q35 35 91 35q30 0 50.5 -10.5t31.5 -29.5q7 -11 10.5 -27t3.5 -42
q0 -44 -21 -153zM128 632q24 21 38.5 28.5t30.5 7.5q17 0 27 -4.5t23 -13.5q11 -8 19.5 -12t19.5 -4q12 0 21 5.5t23 18.5l23 -28q-25 -22 -39.5 -29t-30.5 -7t-26 4t-24 14q-11 7 -19 11t-19 4q-12 0 -21.5 -5.5t-23.5 -18.5z" />
    <glyph glyph-name="odieresis" unicode="&#xf6;" 
d="M95 254q-11 -54 -17 -91.5t-6 -60.5q0 -30 11 -45q6 -8 15.5 -13.5t23.5 -5.5q30 0 52 22q10 10 17.5 24.5t15 37.5t14.5 55t16 77q11 54 17 91.5t6 60.5q0 30 -11 45q-6 8 -15.5 13.5t-23.5 5.5q-30 0 -52 -22q-10 -10 -17.5 -24.5t-15 -37.5t-14.5 -55t-16 -77z
M289 254q-11 -55 -20 -93t-18.5 -63.5t-19.5 -42t-22 -28.5q-17 -17 -39.5 -26t-51.5 -9q-30 0 -50.5 10.5t-31.5 29.5q-7 11 -10.5 27t-3.5 42q0 43 21 153q11 55 20 93t18.5 63.5t19.5 42t22 28.5q35 35 91 35q30 0 50.5 -10.5t31.5 -29.5q7 -11 10.5 -27t3.5 -42
q0 -44 -21 -153zM153 664h58l-12 -62h-58zM282 664h58l-13 -62h-58z" />
    <glyph glyph-name="divide" unicode="&#xf7;" horiz-adv-x="406" 
d="M150 165h71l-14 -69h-70zM56 302h314l-10 -50h-314zM209 458h70l-13 -68h-71z" />
    <glyph glyph-name="oslash" unicode="&#xf8;" 
d="M289 254q-11 -55 -20 -93t-18.5 -63.5t-19.5 -42t-22 -28.5q-17 -17 -39.5 -26t-51.5 -9q-42 0 -65 20l-29 -56h-43l48 89q-7 18 -7 56q0 43 21 153q11 55 20 93t18.5 63.5t19.5 42t22 28.5q35 35 91 35q41 0 64 -20l30 56h43l-49 -90q8 -21 8 -55q0 -44 -21 -153z
M237 254q9 48 15 84t8 58l-179 -337q5 -10 16.5 -15.5t24.5 -5.5q30 0 52 22q10 10 17.5 24.5t15 37.5t14.5 55t16 77zM95 254q-10 -48 -15.5 -83t-7.5 -58l179 335q-2 2 -2 3q-6 8 -15.5 13.5t-23.5 5.5q-30 0 -52 -22q-10 -10 -17.5 -24.5t-15 -37.5t-14.5 -55t-16 -77z
" />
    <glyph glyph-name="ugrave" unicode="&#xf9;" horiz-adv-x="348" 
d="M240 0h-51l8 39q-8 -11 -14.5 -17t-17.5 -14t-23.5 -12t-31.5 -4q-26 0 -43 10t-27 26q-8 13 -11.5 27t-3.5 31q0 16 6 48l74 374h52l-74 -374q-2 -10 -3.5 -22t-1.5 -19q0 -20 12 -37.5t41 -17.5q26 0 49.5 21t34.5 75l74 374h52zM175 712h50l38 -128h-45z" />
    <glyph glyph-name="uacute" unicode="&#xfa;" horiz-adv-x="348" 
d="M240 0h-51l8 39q-8 -11 -14.5 -17t-17.5 -14t-23.5 -12t-31.5 -4q-26 0 -43 10t-27 26q-8 13 -11.5 27t-3.5 31q0 16 6 48l74 374h52l-74 -374q-2 -10 -3.5 -22t-1.5 -19q0 -20 12 -37.5t41 -17.5q26 0 49.5 21t34.5 75l74 374h52zM298 711h55l-94 -129h-51z" />
    <glyph glyph-name="ucircumflex" unicode="&#xfb;" horiz-adv-x="348" 
d="M240 0h-51l8 39q-8 -11 -14.5 -17t-17.5 -14t-23.5 -12t-31.5 -4q-26 0 -43 10t-27 26q-8 13 -11.5 27t-3.5 31q0 16 6 48l74 374h52l-74 -374q-2 -10 -3.5 -22t-1.5 -19q0 -20 12 -37.5t41 -17.5q26 0 49.5 21t34.5 75l74 374h52zM338 582h-44l-38 92l-76 -92h-48
l106 129h46z" />
    <glyph glyph-name="udieresis" unicode="&#xfc;" horiz-adv-x="348" 
d="M240 0h-51l8 39q-8 -11 -14.5 -17t-17.5 -14t-23.5 -12t-31.5 -4q-26 0 -43 10t-27 26q-8 13 -11.5 27t-3.5 31q0 16 6 48l74 374h52l-74 -374q-2 -10 -3.5 -22t-1.5 -19q0 -20 12 -37.5t41 -17.5q26 0 49.5 21t34.5 75l74 374h52zM158 664h58l-12 -62h-58zM287 664h58
l-13 -62h-58z" />
    <glyph glyph-name="yacute" unicode="&#xfd;" horiz-adv-x="287" 
d="M-73 -157q66 0 95 61l45 98l-12 506h53l2 -420l168 420h58l-258 -607q-14 -32 -30 -52.5t-35.5 -32t-43.5 -16t-52 -4.5zM274 711h55l-94 -129h-51z" />
    <glyph glyph-name="thorn" unicode="&#xfe;" horiz-adv-x="342" 
d="M150 712h52l-48 -238q7 8 14 14.5t15 11.5q10 7 24 11.5t30 4.5q47 0 71 -35q8 -13 12 -28.5t4 -38.5q0 -26 -6 -64.5t-17 -95.5q-11 -53 -19.5 -90.5t-17.5 -64t-19 -44t-23 -29.5q-35 -34 -82 -34q-34 0 -53 17q-15 15 -19 29l-49 -242h-52zM86 130q-2 -8 -2.5 -16.5
t-0.5 -15.5q0 -27 12 -42q15 -18 40 -18q14 0 25.5 5.5t24.5 16.5q19 17 33 64t31 130q22 109 22 153q0 27 -10 43q-6 8 -16 14t-24 6q-27 0 -49 -19q-13 -11 -22.5 -28.5t-14.5 -44.5z" />
    <glyph glyph-name="ydieresis" unicode="&#xff;" horiz-adv-x="287" 
d="M-73 -157q66 0 95 61l45 98l-12 506h53l2 -420l168 420h58l-258 -607q-14 -32 -30 -52.5t-35.5 -32t-43.5 -16t-52 -4.5zM131 664h58l-12 -62h-58zM260 664h58l-13 -62h-58z" />
    <glyph glyph-name="Amacron" unicode="&#x100;" horiz-adv-x="356" 
d="M249 0l1 196h-159l-79 -196h-58l291 712h54l5 -712h-55zM253 612l-142 -366h139zM196 832h198l-9 -42h-198z" />
    <glyph glyph-name="amacron" unicode="&#x101;" horiz-adv-x="329" 
d="M23 27q-9 14 -12.5 31t-3.5 37q0 9 1 21t4 26q7 35 22.5 65.5t40.5 51.5q18 15 40 22t57 7h59l18 92q4 19 4 33q0 27 -13.5 42t-39.5 15q-28 0 -47 -18q-15 -13 -22.5 -30.5t-12.5 -43.5h-52q6 30 17 58t35 49q18 16 38.5 23.5t49.5 7.5q57 0 81 -32q9 -13 13.5 -27.5
t4.5 -39.5q0 -9 -1 -20t-3 -19l-76 -378h-50l8 43q-6 -8 -13.5 -16.5t-18.5 -16.5q-14 -11 -27.5 -14.5t-30.5 -3.5q-45 0 -70 35zM60 101q0 -29 12 -46t36 -17q19 0 34.5 8.5t27 22.5t19.5 30.5t11 33.5l23 115h-49q-23 0 -37 -4.5t-30 -18.5q-23 -20 -35 -55.5t-12 -68.5z
M140 654h198l-9 -42h-198z" />
    <glyph glyph-name="Abreve" unicode="&#x102;" horiz-adv-x="356" 
d="M249 0l1 196h-159l-79 -196h-58l291 712h54l5 -712h-55zM253 612l-142 -366h139zM401 856q-15 -55 -43.5 -78t-75.5 -23q-43 0 -64.5 23t-21.5 59v7q0 4 1 12h40v-9q0 -51 49 -51q26 0 44.5 14t28.5 46h42z" />
    <glyph glyph-name="abreve" unicode="&#x103;" horiz-adv-x="329" 
d="M23 27q-9 14 -12.5 31t-3.5 37q0 9 1 21t4 26q7 35 22.5 65.5t40.5 51.5q18 15 40 22t57 7h59l18 92q4 19 4 33q0 27 -13.5 42t-39.5 15q-28 0 -47 -18q-15 -13 -22.5 -30.5t-12.5 -43.5h-52q6 30 17 58t35 49q18 16 38.5 23.5t49.5 7.5q57 0 81 -32q9 -13 13.5 -27.5
t4.5 -39.5q0 -9 -1 -20t-3 -19l-76 -378h-50l8 43q-6 -8 -13.5 -16.5t-18.5 -16.5q-14 -11 -27.5 -14.5t-30.5 -3.5q-45 0 -70 35zM60 101q0 -29 12 -46t36 -17q19 0 34.5 8.5t27 22.5t19.5 30.5t11 33.5l23 115h-49q-23 0 -37 -4.5t-30 -18.5q-23 -20 -35 -55.5t-12 -68.5z
M346 678q-15 -55 -43.5 -78t-75.5 -23q-43 0 -64.5 23t-21.5 59v7q0 4 1 12h40v-9q0 -51 49 -51q26 0 44.5 14t28.5 46h42z" />
    <glyph glyph-name="Aogonek" unicode="&#x104;" horiz-adv-x="356" 
d="M249 0l1 196h-159l-79 -196h-58l291 712h54l5 -712h-55zM253 612l-142 -366h139zM245 -37h43l-68 -132h-52z" />
    <glyph glyph-name="aogonek" unicode="&#x105;" horiz-adv-x="329" 
d="M23 27q-9 14 -12.5 31t-3.5 37q0 9 1 21t4 26q7 35 22.5 65.5t40.5 51.5q18 15 40 22t57 7h59l18 92q4 19 4 33q0 27 -13.5 42t-39.5 15q-28 0 -47 -18q-15 -13 -22.5 -30.5t-12.5 -43.5h-52q6 30 17 58t35 49q18 16 38.5 23.5t49.5 7.5q57 0 81 -32q9 -13 13.5 -27.5
t4.5 -39.5q0 -9 -1 -20t-3 -19l-76 -378h-50l8 43q-6 -8 -13.5 -16.5t-18.5 -16.5q-14 -11 -27.5 -14.5t-30.5 -3.5q-45 0 -70 35zM60 101q0 -29 12 -46t36 -17q19 0 34.5 8.5t27 22.5t19.5 30.5t11 33.5l23 115h-49q-23 0 -37 -4.5t-30 -18.5q-23 -20 -35 -55.5t-12 -68.5z
M172 -37h43l-68 -132h-52z" />
    <glyph glyph-name="Cacute" unicode="&#x106;" horiz-adv-x="375" 
d="M34 117q0 31 9 87t28 152q18 89 31 145.5t25 91.5t24.5 54.5t29.5 34.5q40 38 105 38q32 0 55.5 -10.5t37.5 -28.5q11 -15 16.5 -36.5t5.5 -45.5q0 -11 -1 -22t-4 -26h-55q2 13 3.5 24t1.5 22q0 32 -14 52.5t-50 20.5q-38 0 -64 -24q-13 -12 -22.5 -28t-19.5 -46.5
t-21.5 -81.5t-27.5 -134q-20 -96 -29 -151.5t-9 -87.5q0 -75 67 -75q19 0 35 7t27 18q18 17 29 40.5t17 54.5h57q-9 -45 -25 -79t-47 -59q-40 -32 -99 -32t-89 36q-14 17 -20.5 38.5t-6.5 50.5zM360 889h55l-94 -129h-51z" />
    <glyph glyph-name="cacute" unicode="&#x107;" horiz-adv-x="317" 
d="M42 254q10 49 18.5 85.5t17.5 63t19.5 45t24.5 32.5q34 36 92 36q32 0 51.5 -9t30.5 -26q9 -14 13 -28t4 -34q0 -16 -5 -44h-51q5 23 5 39q0 12 -3.5 24t-8.5 17q-7 7 -16 11t-24 4q-30 0 -53 -23q-20 -20 -33.5 -65t-29.5 -128q-11 -56 -17.5 -93t-6.5 -60q0 -38 19 -52
q12 -11 36 -11q28 0 49 19q15 14 23 32.5t13 44.5h52q-9 -41 -21 -65t-29 -41q-37 -36 -93 -36q-45 0 -72 27t-27 80q0 48 22 155zM293 711h55l-94 -129h-51z" />
    <glyph glyph-name="Ccircumflex" unicode="&#x108;" horiz-adv-x="375" 
d="M34 117q0 31 9 87t28 152q18 89 31 145.5t25 91.5t24.5 54.5t29.5 34.5q40 38 105 38q32 0 55.5 -10.5t37.5 -28.5q11 -15 16.5 -36.5t5.5 -45.5q0 -11 -1 -22t-4 -26h-55q2 13 3.5 24t1.5 22q0 32 -14 52.5t-50 20.5q-38 0 -64 -24q-13 -12 -22.5 -28t-19.5 -46.5
t-21.5 -81.5t-27.5 -134q-20 -96 -29 -151.5t-9 -87.5q0 -75 67 -75q19 0 35 7t27 18q18 17 29 40.5t17 54.5h57q-9 -45 -25 -79t-47 -59q-40 -32 -99 -32t-89 36q-14 17 -20.5 38.5t-6.5 50.5zM400 760h-44l-38 92l-76 -92h-48l106 129h46z" />
    <glyph glyph-name="ccircumflex" unicode="&#x109;" horiz-adv-x="317" 
d="M42 254q10 49 18.5 85.5t17.5 63t19.5 45t24.5 32.5q34 36 92 36q32 0 51.5 -9t30.5 -26q9 -14 13 -28t4 -34q0 -16 -5 -44h-51q5 23 5 39q0 12 -3.5 24t-8.5 17q-7 7 -16 11t-24 4q-30 0 -53 -23q-20 -20 -33.5 -65t-29.5 -128q-11 -56 -17.5 -93t-6.5 -60q0 -38 19 -52
q12 -11 36 -11q28 0 49 19q15 14 23 32.5t13 44.5h52q-9 -41 -21 -65t-29 -41q-37 -36 -93 -36q-45 0 -72 27t-27 80q0 48 22 155zM333 582h-44l-38 92l-76 -92h-48l106 129h46z" />
    <glyph glyph-name="Cdotaccent" unicode="&#x10a;" horiz-adv-x="375" 
d="M34 117q0 31 9 87t28 152q18 89 31 145.5t25 91.5t24.5 54.5t29.5 34.5q40 38 105 38q32 0 55.5 -10.5t37.5 -28.5q11 -15 16.5 -36.5t5.5 -45.5q0 -11 -1 -22t-4 -26h-55q2 13 3.5 24t1.5 22q0 32 -14 52.5t-50 20.5q-38 0 -64 -24q-13 -12 -22.5 -28t-19.5 -46.5
t-21.5 -81.5t-27.5 -134q-20 -96 -29 -151.5t-9 -87.5q0 -75 67 -75q19 0 35 7t27 18q18 17 29 40.5t17 54.5h57q-9 -45 -25 -79t-47 -59q-40 -32 -99 -32t-89 36q-14 17 -20.5 38.5t-6.5 50.5zM286 846h58l-13 -62h-58z" />
    <glyph glyph-name="cdotaccent" unicode="&#x10b;" horiz-adv-x="317" 
d="M42 254q10 49 18.5 85.5t17.5 63t19.5 45t24.5 32.5q34 36 92 36q32 0 51.5 -9t30.5 -26q9 -14 13 -28t4 -34q0 -16 -5 -44h-51q5 23 5 39q0 12 -3.5 24t-8.5 17q-7 7 -16 11t-24 4q-30 0 -53 -23q-20 -20 -33.5 -65t-29.5 -128q-11 -56 -17.5 -93t-6.5 -60q0 -38 19 -52
q12 -11 36 -11q28 0 49 19q15 14 23 32.5t13 44.5h52q-9 -41 -21 -65t-29 -41q-37 -36 -93 -36q-45 0 -72 27t-27 80q0 48 22 155zM219 668h58l-13 -62h-58z" />
    <glyph glyph-name="Ccaron" unicode="&#x10c;" horiz-adv-x="375" 
d="M34 117q0 31 9 87t28 152q18 89 31 145.5t25 91.5t24.5 54.5t29.5 34.5q40 38 105 38q32 0 55.5 -10.5t37.5 -28.5q11 -15 16.5 -36.5t5.5 -45.5q0 -11 -1 -22t-4 -26h-55q2 13 3.5 24t1.5 22q0 32 -14 52.5t-50 20.5q-38 0 -64 -24q-13 -12 -22.5 -28t-19.5 -46.5
t-21.5 -81.5t-27.5 -134q-20 -96 -29 -151.5t-9 -87.5q0 -75 67 -75q19 0 35 7t27 18q18 17 29 40.5t17 54.5h57q-9 -45 -25 -79t-47 -59q-40 -32 -99 -32t-89 36q-14 17 -20.5 38.5t-6.5 50.5zM218 883h45l38 -92l75 92h48l-106 -130h-45z" />
    <glyph glyph-name="ccaron" unicode="&#x10d;" horiz-adv-x="317" 
d="M42 254q10 49 18.5 85.5t17.5 63t19.5 45t24.5 32.5q34 36 92 36q32 0 51.5 -9t30.5 -26q9 -14 13 -28t4 -34q0 -16 -5 -44h-51q5 23 5 39q0 12 -3.5 24t-8.5 17q-7 7 -16 11t-24 4q-30 0 -53 -23q-20 -20 -33.5 -65t-29.5 -128q-11 -56 -17.5 -93t-6.5 -60q0 -38 19 -52
q12 -11 36 -11q28 0 49 19q15 14 23 32.5t13 44.5h52q-9 -41 -21 -65t-29 -41q-37 -36 -93 -36q-45 0 -72 27t-27 80q0 48 22 155zM152 704h45l38 -92l75 92h48l-106 -130h-45z" />
    <glyph glyph-name="Dcaron" unicode="&#x10e;" horiz-adv-x="399" 
d="M158 50q43 0 67 24q13 12 22.5 29t19.5 47.5t21 79.5t26 126q19 93 28 148t9 85q0 17 -4 29.5t-12 22.5q-16 21 -54 21h-79l-122 -612h78zM156 712h135q35 0 56.5 -10.5t35.5 -30.5q12 -17 18 -36t6 -46q0 -26 -9 -82.5t-28 -150.5q-17 -86 -29.5 -141t-24.5 -89.5
t-24.5 -54t-30.5 -34.5q-41 -37 -104 -37h-143zM208 883h45l38 -92l75 92h48l-106 -130h-45z" />
    <glyph glyph-name="dcaron" unicode="&#x10f;" horiz-adv-x="342" 
d="M42 254q10 52 19 90t18 64.5t19 44t23 29.5q35 34 81 34q36 0 54 -18q14 -14 19 -28l49 242h52l-142 -712h-51l7 36q-13 -18 -31 -29q-10 -6 -23.5 -10.5t-30.5 -4.5q-48 0 -70 36q-16 23 -16 66q0 26 6 65.5t17 94.5zM94 254q-11 -56 -17 -93t-6 -60q0 -28 10 -42
q7 -9 16.5 -15t23.5 -6q27 0 49 19q28 25 38 73l49 248q3 18 3 32q0 28 -14 44q-8 9 -16.5 12.5t-21.5 3.5q-28 0 -50 -21q-20 -19 -34 -65.5t-30 -129.5zM440 719h48l-54 -133h-41z" />
    <glyph glyph-name="Dcroat" unicode="&#x110;" horiz-adv-x="426" 
d="M68 382h49l66 330h135q35 0 56.5 -10.5t35.5 -30.5q12 -17 18 -36t6 -46q0 -26 -9 -82.5t-28 -150.5q-17 -86 -29.5 -141t-24.5 -89.5t-24.5 -54t-30.5 -34.5q-41 -37 -104 -37h-143l67 336h-49zM185 50q43 0 67 24q13 12 22.5 29t19.5 47.5t21 79.5t26 126q19 93 28 148
t9 85q0 17 -4 29.5t-12 22.5q-16 21 -54 21h-79l-56 -280h84l-9 -46h-84l-57 -286h78z" />
    <glyph glyph-name="dcroat" unicode="&#x111;" horiz-adv-x="358" 
d="M42 254q10 52 19 90t18 64.5t19 44t23 29.5q35 34 81 34q36 0 54 -18q14 -14 19 -28l23 116h-84l8 39h84l18 87h52l-18 -87h54l-8 -39h-53l-117 -586h-51l7 36q-13 -18 -31 -29q-10 -6 -23.5 -10.5t-30.5 -4.5q-48 0 -70 36q-16 23 -16 66q0 26 6 65.5t17 94.5zM94 254
q-11 -56 -17 -93t-6 -60q0 -28 10 -42q7 -9 16.5 -15t23.5 -6q27 0 49 19q28 25 38 73l49 248q3 18 3 32q0 28 -14 44q-8 9 -16.5 12.5t-21.5 3.5q-28 0 -50 -21q-20 -19 -34 -65.5t-30 -129.5z" />
    <glyph glyph-name="Emacron" unicode="&#x112;" horiz-adv-x="342" 
d="M156 712h234l-10 -50h-178l-55 -278h152l-10 -50h-153l-56 -284h178l-10 -50h-234zM202 832h198l-9 -42h-198z" />
    <glyph glyph-name="emacron" unicode="&#x113;" horiz-adv-x="326" 
d="M35 34q-15 25 -15 65q0 23 6 61.5t17 93.5q10 49 19 86t18 64t19.5 45.5t22.5 30.5q36 36 93 36q30 0 49 -10t30 -27q17 -26 17 -69q0 -29 -6 -68t-17 -95h-195q-10 -52 -16 -88t-6 -58q0 -29 14 -46q7 -8 16 -12.5t23 -4.5q13 0 26.5 5t24.5 14q14 13 22.5 31.5
t14.5 45.5h51q-8 -39 -19.5 -64t-32.5 -45q-36 -33 -92 -33q-59 0 -84 42zM244 290q16 77 16 118q0 28 -12 45t-39 17q-14 0 -27 -5t-24 -17q-10 -11 -17 -23.5t-13.5 -30.5t-12.5 -43t-13 -61h142zM145 654h198l-9 -42h-198z" />
    <glyph glyph-name="Ebreve" unicode="&#x114;" horiz-adv-x="342" 
d="M156 712h234l-10 -50h-178l-55 -278h152l-10 -50h-153l-56 -284h178l-10 -50h-234zM407 856q-15 -55 -43.5 -78t-75.5 -23q-43 0 -64.5 23t-21.5 59v7q0 4 1 12h40v-9q0 -51 49 -51q26 0 44.5 14t28.5 46h42z" />
    <glyph glyph-name="ebreve" unicode="&#x115;" horiz-adv-x="326" 
d="M35 34q-15 25 -15 65q0 23 6 61.5t17 93.5q10 49 19 86t18 64t19.5 45.5t22.5 30.5q36 36 93 36q30 0 49 -10t30 -27q17 -26 17 -69q0 -29 -6 -68t-17 -95h-195q-10 -52 -16 -88t-6 -58q0 -29 14 -46q7 -8 16 -12.5t23 -4.5q13 0 26.5 5t24.5 14q14 13 22.5 31.5
t14.5 45.5h51q-8 -39 -19.5 -64t-32.5 -45q-36 -33 -92 -33q-59 0 -84 42zM244 290q16 77 16 118q0 28 -12 45t-39 17q-14 0 -27 -5t-24 -17q-10 -11 -17 -23.5t-13.5 -30.5t-12.5 -43t-13 -61h142zM351 678q-15 -55 -43.5 -78t-75.5 -23q-43 0 -64.5 23t-21.5 59v7
q0 4 1 12h40v-9q0 -51 49 -51q26 0 44.5 14t28.5 46h42z" />
    <glyph glyph-name="Edotaccent" unicode="&#x116;" horiz-adv-x="342" 
d="M156 712h234l-10 -50h-178l-55 -278h152l-10 -50h-153l-56 -284h178l-10 -50h-234zM275 846h58l-13 -62h-58z" />
    <glyph glyph-name="edotaccent" unicode="&#x117;" horiz-adv-x="326" 
d="M35 34q-15 25 -15 65q0 23 6 61.5t17 93.5q10 49 19 86t18 64t19.5 45.5t22.5 30.5q36 36 93 36q30 0 49 -10t30 -27q17 -26 17 -69q0 -29 -6 -68t-17 -95h-195q-10 -52 -16 -88t-6 -58q0 -29 14 -46q7 -8 16 -12.5t23 -4.5q13 0 26.5 5t24.5 14q14 13 22.5 31.5
t14.5 45.5h51q-8 -39 -19.5 -64t-32.5 -45q-36 -33 -92 -33q-59 0 -84 42zM244 290q16 77 16 118q0 28 -12 45t-39 17q-14 0 -27 -5t-24 -17q-10 -11 -17 -23.5t-13.5 -30.5t-12.5 -43t-13 -61h142zM219 668h58l-13 -62h-58z" />
    <glyph glyph-name="Eogonek" unicode="&#x118;" horiz-adv-x="342" 
d="M156 712h234l-10 -50h-178l-55 -278h152l-10 -50h-153l-56 -284h178l-10 -50h-234zM187 -37h43l-68 -132h-52z" />
    <glyph glyph-name="eogonek" unicode="&#x119;" horiz-adv-x="326" 
d="M35 34q-15 25 -15 65q0 23 6 61.5t17 93.5q10 49 19 86t18 64t19.5 45.5t22.5 30.5q36 36 93 36q30 0 49 -10t30 -27q17 -26 17 -69q0 -29 -6 -68t-17 -95h-195q-10 -52 -16 -88t-6 -58q0 -29 14 -46q7 -8 16 -12.5t23 -4.5q13 0 26.5 5t24.5 14q14 13 22.5 31.5
t14.5 45.5h51q-8 -39 -19.5 -64t-32.5 -45q-36 -33 -92 -33q-59 0 -84 42zM244 290q16 77 16 118q0 28 -12 45t-39 17q-14 0 -27 -5t-24 -17q-10 -11 -17 -23.5t-13.5 -30.5t-12.5 -43t-13 -61h142zM132 -37h43l-68 -132h-52z" />
    <glyph glyph-name="Ecaron" unicode="&#x11a;" horiz-adv-x="342" 
d="M156 712h234l-10 -50h-178l-55 -278h152l-10 -50h-153l-56 -284h178l-10 -50h-234zM207 883h45l38 -92l75 92h48l-106 -130h-45z" />
    <glyph glyph-name="ecaron" unicode="&#x11b;" horiz-adv-x="326" 
d="M35 34q-15 25 -15 65q0 23 6 61.5t17 93.5q10 49 19 86t18 64t19.5 45.5t22.5 30.5q36 36 93 36q30 0 49 -10t30 -27q17 -26 17 -69q0 -29 -6 -68t-17 -95h-195q-10 -52 -16 -88t-6 -58q0 -29 14 -46q7 -8 16 -12.5t23 -4.5q13 0 26.5 5t24.5 14q14 13 22.5 31.5
t14.5 45.5h51q-8 -39 -19.5 -64t-32.5 -45q-36 -33 -92 -33q-59 0 -84 42zM244 290q16 77 16 118q0 28 -12 45t-39 17q-14 0 -27 -5t-24 -17q-10 -11 -17 -23.5t-13.5 -30.5t-12.5 -43t-13 -61h142zM152 704h45l38 -92l75 92h48l-106 -130h-45z" />
    <glyph glyph-name="Gcircumflex" unicode="&#x11c;" horiz-adv-x="388" 
d="M316 152q-16 -82 -60.5 -121t-107.5 -39q-57 0 -87 36q-14 17 -20.5 38.5t-6.5 50.5q0 31 9 87t28 152q18 89 31 145.5t25 91.5t24.5 54.5t29.5 34.5q40 38 105 38q32 0 55.5 -10.5t37.5 -28.5q11 -15 16.5 -36.5t5.5 -45.5q0 -11 -1 -22t-4 -26h-55q2 13 3.5 24t1.5 22
q0 32 -14 52.5t-50 20.5q-38 0 -64 -24q-13 -12 -22.5 -28t-19.5 -46.5t-21.5 -81.5t-27.5 -134q-20 -96 -29 -152t-9 -87q0 -38 17 -56.5t48 -18.5q39 0 68 29t40 80l35 179h-83l9 47h138zM400 760h-44l-38 92l-76 -92h-48l106 129h46z" />
    <glyph glyph-name="gcircumflex" unicode="&#x11d;" horiz-adv-x="342" 
d="M42 257q10 52 19 89t18 63t19 43.5t23 29.5q35 34 81 34q34 0 54 -18q15 -15 20 -29l8 39h51l-105 -528q-11 -58 -23.5 -94t-37.5 -59q-17 -15 -39 -23.5t-53 -8.5q-44 0 -71.5 26t-27.5 71q0 9 0.5 18t2.5 24h51q-2 -14 -2.5 -22t-0.5 -16q0 -25 13.5 -40t39.5 -15
q14 0 27 4.5t25 15.5q10 9 16 19.5t10.5 25t8 33.5t9.5 45l12 57q-13 -17 -29 -27q-11 -7 -24.5 -11.5t-30.5 -4.5q-45 0 -70 36q-8 12 -12 28t-4 38q0 26 5.5 64.5t16.5 92.5zM94 257q-11 -54 -16 -90t-5 -60q0 -28 10 -42q13 -20 40 -20q28 0 49 18q12 11 22 29.5t15 44.5
l48 241q3 18 3 32q0 27 -14 44q-15 16 -38 16q-28 0 -50 -21q-20 -19 -33.5 -63.5t-30.5 -128.5zM333 582h-44l-38 92l-76 -92h-48l106 129h46z" />
    <glyph glyph-name="Gbreve" unicode="&#x11e;" horiz-adv-x="388" 
d="M316 152q-16 -82 -60.5 -121t-107.5 -39q-57 0 -87 36q-14 17 -20.5 38.5t-6.5 50.5q0 31 9 87t28 152q18 89 31 145.5t25 91.5t24.5 54.5t29.5 34.5q40 38 105 38q32 0 55.5 -10.5t37.5 -28.5q11 -15 16.5 -36.5t5.5 -45.5q0 -11 -1 -22t-4 -26h-55q2 13 3.5 24t1.5 22
q0 32 -14 52.5t-50 20.5q-38 0 -64 -24q-13 -12 -22.5 -28t-19.5 -46.5t-21.5 -81.5t-27.5 -134q-20 -96 -29 -152t-9 -87q0 -38 17 -56.5t48 -18.5q39 0 68 29t40 80l35 179h-83l9 47h138zM418 856q-15 -55 -43.5 -78t-75.5 -23q-43 0 -64.5 23t-21.5 59v7q0 4 1 12h40v-9
q0 -51 49 -51q26 0 44.5 14t28.5 46h42z" />
    <glyph glyph-name="gbreve" unicode="&#x11f;" horiz-adv-x="342" 
d="M42 257q10 52 19 89t18 63t19 43.5t23 29.5q35 34 81 34q34 0 54 -18q15 -15 20 -29l8 39h51l-105 -528q-11 -58 -23.5 -94t-37.5 -59q-17 -15 -39 -23.5t-53 -8.5q-44 0 -71.5 26t-27.5 71q0 9 0.5 18t2.5 24h51q-2 -14 -2.5 -22t-0.5 -16q0 -25 13.5 -40t39.5 -15
q14 0 27 4.5t25 15.5q10 9 16 19.5t10.5 25t8 33.5t9.5 45l12 57q-13 -17 -29 -27q-11 -7 -24.5 -11.5t-30.5 -4.5q-45 0 -70 36q-8 12 -12 28t-4 38q0 26 5.5 64.5t16.5 92.5zM94 257q-11 -54 -16 -90t-5 -60q0 -28 10 -42q13 -20 40 -20q28 0 49 18q12 11 22 29.5t15 44.5
l48 241q3 18 3 32q0 27 -14 44q-15 16 -38 16q-28 0 -50 -21q-20 -19 -33.5 -63.5t-30.5 -128.5zM351 678q-15 -55 -43.5 -78t-75.5 -23q-43 0 -64.5 23t-21.5 59v7q0 4 1 12h40v-9q0 -51 49 -51q26 0 44.5 14t28.5 46h42z" />
    <glyph glyph-name="Gdotaccent" unicode="&#x120;" horiz-adv-x="388" 
d="M316 152q-16 -82 -60.5 -121t-107.5 -39q-57 0 -87 36q-14 17 -20.5 38.5t-6.5 50.5q0 31 9 87t28 152q18 89 31 145.5t25 91.5t24.5 54.5t29.5 34.5q40 38 105 38q32 0 55.5 -10.5t37.5 -28.5q11 -15 16.5 -36.5t5.5 -45.5q0 -11 -1 -22t-4 -26h-55q2 13 3.5 24t1.5 22
q0 32 -14 52.5t-50 20.5q-38 0 -64 -24q-13 -12 -22.5 -28t-19.5 -46.5t-21.5 -81.5t-27.5 -134q-20 -96 -29 -152t-9 -87q0 -38 17 -56.5t48 -18.5q39 0 68 29t40 80l35 179h-83l9 47h138zM286 846h58l-13 -62h-58z" />
    <glyph glyph-name="gdotaccent" unicode="&#x121;" horiz-adv-x="342" 
d="M42 257q10 52 19 89t18 63t19 43.5t23 29.5q35 34 81 34q34 0 54 -18q15 -15 20 -29l8 39h51l-105 -528q-11 -58 -23.5 -94t-37.5 -59q-17 -15 -39 -23.5t-53 -8.5q-44 0 -71.5 26t-27.5 71q0 9 0.5 18t2.5 24h51q-2 -14 -2.5 -22t-0.5 -16q0 -25 13.5 -40t39.5 -15
q14 0 27 4.5t25 15.5q10 9 16 19.5t10.5 25t8 33.5t9.5 45l12 57q-13 -17 -29 -27q-11 -7 -24.5 -11.5t-30.5 -4.5q-45 0 -70 36q-8 12 -12 28t-4 38q0 26 5.5 64.5t16.5 92.5zM94 257q-11 -54 -16 -90t-5 -60q0 -28 10 -42q13 -20 40 -20q28 0 49 18q12 11 22 29.5t15 44.5
l48 241q3 18 3 32q0 27 -14 44q-15 16 -38 16q-28 0 -50 -21q-20 -19 -33.5 -63.5t-30.5 -128.5zM219 668h58l-13 -62h-58z" />
    <glyph glyph-name="Gcommaaccent" unicode="&#x122;" horiz-adv-x="388" 
d="M316 152q-16 -82 -60.5 -121t-107.5 -39q-57 0 -87 36q-14 17 -20.5 38.5t-6.5 50.5q0 31 9 87t28 152q18 89 31 145.5t25 91.5t24.5 54.5t29.5 34.5q40 38 105 38q32 0 55.5 -10.5t37.5 -28.5q11 -15 16.5 -36.5t5.5 -45.5q0 -11 -1 -22t-4 -26h-55q2 13 3.5 24t1.5 22
q0 32 -14 52.5t-50 20.5q-38 0 -64 -24q-13 -12 -22.5 -28t-19.5 -46.5t-21.5 -81.5t-27.5 -134q-20 -96 -29 -152t-9 -87q0 -38 17 -56.5t48 -18.5q39 0 68 29t40 80l35 179h-83l9 47h138zM121 -37h43l-68 -132h-52z" />
    <glyph glyph-name="gcommaaccent" unicode="&#x123;" horiz-adv-x="342" 
d="M42 257q10 52 19 89t18 63t19 43.5t23 29.5q35 34 81 34q34 0 54 -18q15 -15 20 -29l8 39h51l-105 -528q-11 -58 -23.5 -94t-37.5 -59q-17 -15 -39 -23.5t-53 -8.5q-44 0 -71.5 26t-27.5 71q0 9 0.5 18t2.5 24h51q-2 -14 -2.5 -22t-0.5 -16q0 -25 13.5 -40t39.5 -15
q14 0 27 4.5t25 15.5q10 9 16 19.5t10.5 25t8 33.5t9.5 45l12 57q-13 -17 -29 -27q-11 -7 -24.5 -11.5t-30.5 -4.5q-45 0 -70 36q-8 12 -12 28t-4 38q0 26 5.5 64.5t16.5 92.5zM94 257q-11 -54 -16 -90t-5 -60q0 -28 10 -42q13 -20 40 -20q28 0 49 18q12 11 22 29.5t15 44.5
l48 241q3 18 3 32q0 27 -14 44q-15 16 -38 16q-28 0 -50 -21q-20 -19 -33.5 -63.5t-30.5 -128.5zM250 582h-43l68 132h52z" />
    <glyph glyph-name="Hcircumflex" unicode="&#x124;" horiz-adv-x="406" 
d="M156 712h56l-65 -325h166l65 325h56l-142 -712h-56l67 337h-166l-67 -337h-56zM405 760h-44l-38 92l-76 -92h-48l106 129h46z" />
    <glyph glyph-name="hcircumflex" unicode="&#x125;" horiz-adv-x="348" 
d="M150 712h52l-48 -241q8 11 14.5 17t15.5 12q21 16 56 16q26 0 43 -10t27 -26q8 -13 11.5 -27t3.5 -31t-6 -48l-74 -374h-52l74 374q5 28 5 41q0 20 -12 37.5t-41 17.5q-26 0 -50 -21t-35 -75l-74 -374h-52zM287 756h-44l-38 92l-76 -92h-48l106 129h46z" />
    <glyph glyph-name="Hbar" unicode="&#x126;" horiz-adv-x="423" 
d="M88 567h47l29 145h56l-29 -145h166l29 145h56l-29 -145h47l-8 -46h-48l-104 -521h-56l67 337h-166l-67 -337h-56l104 521h-46zM321 387l27 134h-166l-27 -134h166z" />
    <glyph glyph-name="hbar" unicode="&#x127;" horiz-adv-x="368" 
d="M96 624h56l18 88h52l-18 -88h81l-8 -38h-80l-23 -115q8 11 14.5 17t15.5 12q21 16 56 16q26 0 43 -10t27 -26q8 -13 11.5 -27t3.5 -31t-6 -48l-74 -374h-52l74 374q5 28 5 41q0 20 -12 37.5t-41 17.5q-26 0 -50 -21t-35 -75l-74 -374h-52l117 586h-57z" />
    <glyph glyph-name="Itilde" unicode="&#x128;" horiz-adv-x="184" 
d="M156 712h56l-142 -712h-56zM90 810q24 21 38.5 28.5t30.5 7.5q17 0 27 -4.5t23 -13.5q11 -8 19.5 -12t19.5 -4q12 0 21 5.5t23 18.5l23 -28q-25 -22 -39.5 -29t-30.5 -7t-26 4t-24 14q-11 7 -19 11t-19 4q-12 0 -21.5 -5.5t-23.5 -18.5z" />
    <glyph glyph-name="itilde" unicode="&#x129;" horiz-adv-x="168" 
d="M110 508h52l-102 -508h-52zM50 632q24 21 38.5 28.5t30.5 7.5q17 0 27 -4.5t23 -13.5q11 -8 19.5 -12t19.5 -4q12 0 21 5.5t23 18.5l23 -28q-25 -22 -39.5 -29t-30.5 -7t-26 4t-24 14q-11 7 -19 11t-19 4q-12 0 -21.5 -5.5t-23.5 -18.5z" />
    <glyph glyph-name="Imacron" unicode="&#x12a;" horiz-adv-x="184" 
d="M156 712h56l-142 -712h-56zM109 832h198l-9 -42h-198z" />
    <glyph glyph-name="imacron" unicode="&#x12b;" horiz-adv-x="168" 
d="M110 508h52l-102 -508h-52zM67 654h198l-9 -42h-198z" />
    <glyph glyph-name="Ibreve" unicode="&#x12c;" horiz-adv-x="184" 
d="M156 712h56l-142 -712h-56zM314 856q-15 -55 -43.5 -78t-75.5 -23q-43 0 -64.5 23t-21.5 59v7q0 4 1 12h40v-9q0 -51 49 -51q26 0 44.5 14t28.5 46h42z" />
    <glyph glyph-name="ibreve" unicode="&#x12d;" horiz-adv-x="168" 
d="M110 508h52l-102 -508h-52zM273 678q-15 -55 -43.5 -78t-75.5 -23q-43 0 -64.5 23t-21.5 59v7q0 4 1 12h40v-9q0 -51 49 -51q26 0 44.5 14t28.5 46h42z" />
    <glyph glyph-name="Iogonek" unicode="&#x12e;" horiz-adv-x="184" 
d="M156 712h56l-142 -712h-56zM20 -37h43l-68 -132h-52z" />
    <glyph glyph-name="iogonek" unicode="&#x12f;" horiz-adv-x="168" 
d="M110 508h52l-102 -508h-52zM138 689h65l-12 -66h-65zM10 -37h43l-68 -132h-52z" />
    <glyph glyph-name="Idotaccent" unicode="&#x130;" horiz-adv-x="184" 
d="M156 712h56l-142 -712h-56zM182 846h58l-13 -62h-58z" />
    <glyph glyph-name="dotlessi" unicode="&#x131;" horiz-adv-x="168" 
d="M110 508h52l-102 -508h-52z" />
    <glyph glyph-name="IJ" unicode="&#x132;" horiz-adv-x="498" 
d="M156 712h56l-142 -712h-56zM199 76q13 -17 27.5 -25.5t36.5 -8.5q80 0 104 120l110 550h56l-112 -558q-9 -45 -22.5 -73t-33.5 -48q-22 -22 -47.5 -31.5t-56.5 -9.5q-42 0 -66.5 15t-38.5 37z" />
    <glyph glyph-name="ij" unicode="&#x133;" horiz-adv-x="336" 
d="M110 508h52l-102 -508h-52zM138 689h65l-12 -66h-65zM278 508h52l-115 -577q-8 -39 -21 -64t-33 -41q-22 -17 -45.5 -23.5t-58.5 -6.5l10 47q40 0 63 22.5t33 70.5zM306 689h65l-12 -66h-65z" />
    <glyph glyph-name="Jcircumflex" unicode="&#x134;" horiz-adv-x="314" 
d="M15 76q13 -17 27.5 -25.5t36.5 -8.5q80 0 104 120l110 550h56l-112 -558q-9 -45 -22.5 -73t-33.5 -48q-22 -22 -47.5 -31.5t-56.5 -9.5q-42 0 -66.5 15t-38.5 37zM429 760h-44l-38 92l-76 -92h-48l106 129h46z" />
    <glyph glyph-name="jcircumflex" unicode="&#x135;" horiz-adv-x="168" 
d="M110 508h52l-115 -577q-8 -39 -21 -64t-33 -41q-22 -17 -45.5 -23.5t-58.5 -6.5l10 47q40 0 63 22.5t33 70.5zM255 582h-44l-38 92l-76 -92h-48l106 129h46z" />
    <glyph glyph-name="Kcommaaccent" unicode="&#x136;" horiz-adv-x="384" 
d="M156 712h56l-75 -378l249 378h63l-194 -293l71 -419h-56l-62 357l-95 -141l-43 -216h-56zM131 -37h43l-68 -132h-52z" />
    <glyph glyph-name="kcommaaccent" unicode="&#x137;" horiz-adv-x="350" 
d="M150 712h52l-93 -464l201 260h59l-151 -196l65 -312h-52l-55 266l-85 -108l-31 -158h-52zM111 -37h43l-68 -132h-52z" />
    <glyph glyph-name="kgreenlandic" unicode="&#x138;" horiz-adv-x="350" 
d="M109 508h52l-52 -260l201 260h59l-151 -196l65 -312h-50l-56 268l-86 -110l-31 -158h-52z" />
    <glyph glyph-name="Lacute" unicode="&#x139;" horiz-adv-x="319" 
d="M156 712h56l-132 -662h178l-10 -50h-234zM256 889h55l-94 -129h-51z" />
    <glyph glyph-name="lacute" unicode="&#x13a;" horiz-adv-x="198" 
d="M46 34q-11 16 -15.5 30.5t-4.5 31.5q0 8 0.5 18t2.5 18l117 580h52l-115 -577q-2 -14 -2.5 -20t-0.5 -14q0 -26 15 -40.5t47 -14.5l-9 -46q-37 0 -56.5 10t-30.5 24zM243 885h55l-94 -129h-51z" />
    <glyph glyph-name="Lcommaaccent" unicode="&#x13b;" horiz-adv-x="319" 
d="M156 712h56l-132 -662h178l-10 -50h-234zM113 -37h43l-68 -132h-52z" />
    <glyph glyph-name="lcommaaccent" unicode="&#x13c;" horiz-adv-x="198" 
d="M46 34q-11 16 -15.5 30.5t-4.5 31.5q0 8 0.5 18t2.5 18l117 580h52l-115 -577q-2 -14 -2.5 -20t-0.5 -14q0 -26 15 -40.5t47 -14.5l-9 -46q-37 0 -56.5 10t-30.5 24zM53 -37h43l-68 -132h-52z" />
    <glyph glyph-name="Lcaron" unicode="&#x13d;" horiz-adv-x="319" 
d="M156 712h56l-132 -662h178l-10 -50h-234zM292 713h48l-54 -133h-41z" />
    <glyph glyph-name="lcaron" unicode="&#x13e;" horiz-adv-x="198" 
d="M46 34q-11 16 -15.5 30.5t-4.5 31.5q0 8 0.5 18t2.5 18l117 580h52l-115 -577q-2 -14 -2.5 -20t-0.5 -14q0 -26 15 -40.5t47 -14.5l-9 -46q-37 0 -56.5 10t-30.5 24zM263 719h48l-54 -133h-41z" />
    <glyph glyph-name="Ldot" unicode="&#x13f;" horiz-adv-x="340" 
d="M156 712h56l-132 -662h178l-10 -50h-234zM256 389h58l-13 -62h-58z" />
    <glyph glyph-name="ldot" unicode="&#x140;" horiz-adv-x="235" 
d="M46 34q-11 16 -15.5 30.5t-4.5 31.5q0 8 0.5 18t2.5 18l117 580h52l-115 -577q-2 -14 -2.5 -20t-0.5 -14q0 -26 15 -40.5t47 -14.5l-9 -46q-37 0 -56.5 10t-30.5 24zM184 339h58l-13 -62h-58z" />
    <glyph glyph-name="Lslash" unicode="&#x141;" horiz-adv-x="323" 
d="M76 295l-55 -47l12 61l55 47l71 356h56l-60 -302l107 90l-12 -61l-108 -90l-59 -299h178l-10 -50h-234z" />
    <glyph glyph-name="lslash" unicode="&#x142;" horiz-adv-x="222" 
d="M28 317l70 63l67 332h52l-56 -278l73 67l-12 -60l-73 -68l-47 -238q-2 -14 -2.5 -20t-0.5 -14q0 -26 15 -40.5t47 -14.5l-9 -46q-37 0 -56.5 10t-30.5 24q-11 16 -15.5 30.5t-4.5 31.5q0 8 0.5 18t2.5 18l38 189l-69 -64z" />
    <glyph glyph-name="Nacute" unicode="&#x143;" horiz-adv-x="416" 
d="M156 712h51l72 -557l109 557h56l-142 -712h-49l-72 557l-111 -557h-56zM372 889h55l-94 -129h-51z" />
    <glyph glyph-name="nacute" unicode="&#x144;" horiz-adv-x="348" 
d="M109 508h51l-8 -39q8 11 14.5 17t17.5 14t23.5 12t31.5 4q26 0 43 -10t27 -26q8 -13 11.5 -27t3.5 -31t-6 -48l-74 -374h-52l74 374q2 10 3.5 22t1.5 19q0 20 -12 37.5t-41 17.5q-26 0 -49.5 -21t-34.5 -75l-74 -374h-52zM304 711h55l-94 -129h-51z" />
    <glyph glyph-name="Ncommaaccent" unicode="&#x145;" horiz-adv-x="416" 
d="M156 712h51l72 -557l109 557h56l-142 -712h-49l-72 557l-111 -557h-56zM131 -37h43l-68 -132h-52z" />
    <glyph glyph-name="ncommaaccent" unicode="&#x146;" horiz-adv-x="348" 
d="M109 508h51l-8 -39q8 11 14.5 17t17.5 14t23.5 12t31.5 4q26 0 43 -10t27 -26q8 -13 11.5 -27t3.5 -31t-6 -48l-74 -374h-52l74 374q2 10 3.5 22t1.5 19q0 20 -12 37.5t-41 17.5q-26 0 -49.5 -21t-34.5 -75l-74 -374h-52zM107 -37h43l-68 -132h-52z" />
    <glyph glyph-name="Ncaron" unicode="&#x147;" horiz-adv-x="416" 
d="M156 712h51l72 -557l109 557h56l-142 -712h-49l-72 557l-111 -557h-56zM230 883h45l38 -92l75 92h48l-106 -130h-45z" />
    <glyph glyph-name="ncaron" unicode="&#x148;" horiz-adv-x="348" 
d="M109 508h51l-8 -39q8 11 14.5 17t17.5 14t23.5 12t31.5 4q26 0 43 -10t27 -26q8 -13 11.5 -27t3.5 -31t-6 -48l-74 -374h-52l74 374q2 10 3.5 22t1.5 19q0 20 -12 37.5t-41 17.5q-26 0 -49.5 -21t-34.5 -75l-74 -374h-52zM163 704h45l38 -92l75 92h48l-106 -130h-45z" />
    <glyph glyph-name="napostrophe" unicode="&#x149;" horiz-adv-x="358" 
d="M118 508h51l-8 -39q8 11 14.5 17t17.5 14t23.5 12t31.5 4q26 0 43 -10t27 -26q8 -13 11.5 -27t3.5 -31t-6 -48l-74 -374h-52l74 374q2 10 3.5 22t1.5 19q0 20 -12 37.5t-41 17.5q-26 0 -49.5 -21t-34.5 -75l-74 -374h-52zM103 721h49l-22 -111l-57 -39z" />
    <glyph glyph-name="Eng" unicode="&#x14a;" horiz-adv-x="416" 
d="M156 712h51l72 -557l109 557h56l-149 -747q-8 -38 -22.5 -62.5t-33.5 -40.5q-23 -20 -48 -26t-51 -6l10 50q30 0 56 20t34 64l9 46l-68 547l-111 -557h-56z" />
    <glyph glyph-name="eng" unicode="&#x14b;" horiz-adv-x="348" 
d="M109 508h51l-8 -39q8 11 14.5 17t17.5 14t23.5 12t31.5 4q26 0 43 -10t27 -26q8 -13 11.5 -27t3.5 -31t-6 -48l-81 -409q-8 -38 -22.5 -62t-34.5 -41q-23 -19 -48.5 -25.5t-51.5 -6.5l9 46q33 0 60 21.5t36 67.5l81 409q2 10 3.5 22t1.5 19q0 20 -12 37.5t-41 17.5
q-26 0 -49.5 -21t-34.5 -75l-74 -374h-52z" />
    <glyph glyph-name="Omacron" unicode="&#x14c;" horiz-adv-x="395" 
d="M71 356q18 90 31 146.5t25 91.5t24.5 54.5t30.5 35.5q40 36 101 36q35 0 58.5 -10.5t37.5 -30.5q12 -17 18 -35.5t6 -44.5q0 -17 -2.5 -39.5t-7 -51.5t-11.5 -66.5t-16 -85.5q-18 -90 -31 -146.5t-25 -91.5t-24.5 -54.5t-30.5 -35.5q-40 -36 -101 -36q-35 0 -58.5 10.5
t-37.5 30.5q-12 17 -18 35.5t-6 44.5q0 34 9 91t28 152zM310 356q19 95 28 151t9 86q0 16 -3 30t-11 24.5t-21.5 16.5t-33.5 6q-17 0 -32.5 -6t-28.5 -18q-12 -12 -21.5 -28t-19 -46.5t-21.5 -82t-28 -133.5q-20 -95 -28.5 -151t-8.5 -86q0 -16 3 -30t11 -24.5t21.5 -16.5
t33.5 -6q35 0 61 24q12 12 21.5 28t19 46.5t21 82t28.5 133.5zM213 832h198l-9 -42h-198z" />
    <glyph glyph-name="omacron" unicode="&#x14d;" 
d="M95 254q-11 -54 -17 -91.5t-6 -60.5q0 -30 11 -45q6 -8 15.5 -13.5t23.5 -5.5q30 0 52 22q10 10 17.5 24.5t15 37.5t14.5 55t16 77q11 54 17 91.5t6 60.5q0 30 -11 45q-6 8 -15.5 13.5t-23.5 5.5q-30 0 -52 -22q-10 -10 -17.5 -24.5t-15 -37.5t-14.5 -55t-16 -77z
M289 254q-11 -55 -20 -93t-18.5 -63.5t-19.5 -42t-22 -28.5q-17 -17 -39.5 -26t-51.5 -9q-30 0 -50.5 10.5t-31.5 29.5q-7 11 -10.5 27t-3.5 42q0 43 21 153q11 55 20 93t18.5 63.5t19.5 42t22 28.5q35 35 91 35q30 0 50.5 -10.5t31.5 -29.5q7 -11 10.5 -27t3.5 -42
q0 -44 -21 -153zM145 654h198l-9 -42h-198z" />
    <glyph glyph-name="Obreve" unicode="&#x14e;" horiz-adv-x="395" 
d="M71 356q18 90 31 146.5t25 91.5t24.5 54.5t30.5 35.5q40 36 101 36q35 0 58.5 -10.5t37.5 -30.5q12 -17 18 -35.5t6 -44.5q0 -17 -2.5 -39.5t-7 -51.5t-11.5 -66.5t-16 -85.5q-18 -90 -31 -146.5t-25 -91.5t-24.5 -54.5t-30.5 -35.5q-40 -36 -101 -36q-35 0 -58.5 10.5
t-37.5 30.5q-12 17 -18 35.5t-6 44.5q0 34 9 91t28 152zM310 356q19 95 28 151t9 86q0 16 -3 30t-11 24.5t-21.5 16.5t-33.5 6q-17 0 -32.5 -6t-28.5 -18q-12 -12 -21.5 -28t-19 -46.5t-21.5 -82t-28 -133.5q-20 -95 -28.5 -151t-8.5 -86q0 -16 3 -30t11 -24.5t21.5 -16.5
t33.5 -6q35 0 61 24q12 12 21.5 28t19 46.5t21 82t28.5 133.5zM418 856q-15 -55 -43.5 -78t-75.5 -23q-43 0 -64.5 23t-21.5 59v7q0 4 1 12h40v-9q0 -51 49 -51q26 0 44.5 14t28.5 46h42z" />
    <glyph glyph-name="obreve" unicode="&#x14f;" 
d="M95 254q-11 -54 -17 -91.5t-6 -60.5q0 -30 11 -45q6 -8 15.5 -13.5t23.5 -5.5q30 0 52 22q10 10 17.5 24.5t15 37.5t14.5 55t16 77q11 54 17 91.5t6 60.5q0 30 -11 45q-6 8 -15.5 13.5t-23.5 5.5q-30 0 -52 -22q-10 -10 -17.5 -24.5t-15 -37.5t-14.5 -55t-16 -77z
M289 254q-11 -55 -20 -93t-18.5 -63.5t-19.5 -42t-22 -28.5q-17 -17 -39.5 -26t-51.5 -9q-30 0 -50.5 10.5t-31.5 29.5q-7 11 -10.5 27t-3.5 42q0 43 21 153q11 55 20 93t18.5 63.5t19.5 42t22 28.5q35 35 91 35q30 0 50.5 -10.5t31.5 -29.5q7 -11 10.5 -27t3.5 -42
q0 -44 -21 -153zM351 678q-15 -55 -43.5 -78t-75.5 -23q-43 0 -64.5 23t-21.5 59v7q0 4 1 12h40v-9q0 -51 49 -51q26 0 44.5 14t28.5 46h42z" />
    <glyph glyph-name="Ohungarumlaut" unicode="&#x150;" horiz-adv-x="395" 
d="M71 356q18 90 31 146.5t25 91.5t24.5 54.5t30.5 35.5q40 36 101 36q35 0 58.5 -10.5t37.5 -30.5q12 -17 18 -35.5t6 -44.5q0 -17 -2.5 -39.5t-7 -51.5t-11.5 -66.5t-16 -85.5q-18 -90 -31 -146.5t-25 -91.5t-24.5 -54.5t-30.5 -35.5q-40 -36 -101 -36q-35 0 -58.5 10.5
t-37.5 30.5q-12 17 -18 35.5t-6 44.5q0 34 9 91t28 152zM310 356q19 95 28 151t9 86q0 16 -3 30t-11 24.5t-21.5 16.5t-33.5 6q-17 0 -32.5 -6t-28.5 -18q-12 -12 -21.5 -28t-19 -46.5t-21.5 -82t-28 -133.5q-20 -95 -28.5 -151t-8.5 -86q0 -16 3 -30t11 -24.5t21.5 -16.5
t33.5 -6q35 0 61 24q12 12 21.5 28t19 46.5t21 82t28.5 133.5zM293 889h53l-85 -129h-48zM410 889h54l-85 -129h-49z" />
    <glyph glyph-name="ohungarumlaut" unicode="&#x151;" 
d="M95 254q-11 -54 -17 -91.5t-6 -60.5q0 -30 11 -45q6 -8 15.5 -13.5t23.5 -5.5q30 0 52 22q10 10 17.5 24.5t15 37.5t14.5 55t16 77q11 54 17 91.5t6 60.5q0 30 -11 45q-6 8 -15.5 13.5t-23.5 5.5q-30 0 -52 -22q-10 -10 -17.5 -24.5t-15 -37.5t-14.5 -55t-16 -77z
M289 254q-11 -55 -20 -93t-18.5 -63.5t-19.5 -42t-22 -28.5q-17 -17 -39.5 -26t-51.5 -9q-30 0 -50.5 10.5t-31.5 29.5q-7 11 -10.5 27t-3.5 42q0 43 21 153q11 55 20 93t18.5 63.5t19.5 42t22 28.5q35 35 91 35q30 0 50.5 -10.5t31.5 -29.5q7 -11 10.5 -27t3.5 -42
q0 -44 -21 -153zM227 711h53l-85 -129h-48zM344 711h54l-85 -129h-49z" />
    <glyph glyph-name="OE" unicode="&#x152;" horiz-adv-x="567" 
d="M71 356q18 88 30.5 144.5t24.5 91.5t25 55t31 37q40 36 101 36q31 0 54.5 -14.5t34.5 -39.5l10 46h233l-10 -50h-178l-56 -280h153l-10 -50h-153l-56 -282h178l-10 -50h-231l8 35q-17 -19 -41 -31t-57 -12q-34 0 -57 11t-37 31q-12 16 -18 34t-6 45q0 34 9 91t28 152z
M127 356q-19 -95 -28 -151t-9 -86q0 -32 14 -54.5t54 -22.5q18 0 34.5 6t29.5 20q12 12 21 29.5t19 49t21.5 81.5t26.5 128q19 95 28 151t9 86q0 32 -14 54.5t-54 22.5q-38 0 -63 -26q-12 -12 -21.5 -29.5t-19.5 -49t-21.5 -81.5t-26.5 -128z" />
    <glyph glyph-name="oe" unicode="&#x153;" horiz-adv-x="520" 
d="M95 254q-11 -54 -17 -91.5t-6 -60.5q0 -30 11 -45q6 -8 15.5 -13.5t23.5 -5.5q30 0 52 22q10 10 17.5 24.5t15 37.5t14.5 55t16 77q11 54 17 91.5t6 60.5q0 30 -11 45q-6 8 -15.5 13.5t-23.5 5.5q-30 0 -52 -22q-10 -10 -17.5 -24.5t-15 -37.5t-14.5 -55t-16 -77zM313 -8
q-54 0 -79 36q-7 11 -10 22q-5 -8 -9 -14t-12 -13q-16 -14 -37.5 -22.5t-47.5 -8.5q-30 0 -50.5 10.5t-31.5 29.5q-7 11 -10.5 27t-3.5 42q0 43 21 153q11 55 20 93t18.5 63.5t19.5 42t22 28.5q35 35 91 35q28 0 47 -9t30 -25q3 -5 5.5 -10t4.5 -15q8 16 20 28q20 17 41 24
t47 7q30 0 49 -10t30 -27q17 -26 17 -69q0 -29 -6 -68t-17 -95h-195q-10 -52 -16 -88t-6 -58q0 -29 14 -46q7 -8 16 -12.5t23 -4.5q13 0 26.5 5t24.5 14q14 13 22.5 31.5t14.5 45.5h51q-8 -39 -19.5 -64t-32.5 -45q-36 -33 -92 -33zM438 290q16 77 16 118q0 28 -12 45
t-39 17q-14 0 -27 -5t-24 -17q-10 -11 -17 -23.5t-13.5 -30.5t-12.5 -43t-13 -61h142z" />
    <glyph glyph-name="Racute" unicode="&#x154;" horiz-adv-x="406" 
d="M156 712h127q65 0 92.5 -31t27.5 -88q0 -16 -1.5 -35.5t-6.5 -42.5q-10 -47 -22 -80t-27 -54.5t-33 -34t-39 -18.5l39 -328h-57l-35 319h-88l-63 -319h-56zM218 369q20 0 38 6t33.5 22t28 44.5t21.5 73.5q4 19 5.5 38t1.5 33q0 38 -15.5 57t-56.5 19h-72l-59 -293h75z
M346 889h55l-94 -129h-51z" />
    <glyph glyph-name="racute" unicode="&#x155;" horiz-adv-x="228" 
d="M109 508h51l-11 -53q6 11 16 21.5t25 20.5q29 19 77 19l-10 -48h-12q-42 0 -72.5 -27t-40.5 -75l-72 -366h-52zM248 711h55l-94 -129h-51z" />
    <glyph glyph-name="Rcommaaccent" unicode="&#x156;" horiz-adv-x="406" 
d="M156 712h127q65 0 92.5 -31t27.5 -88q0 -16 -1.5 -35.5t-6.5 -42.5q-10 -47 -22 -80t-27 -54.5t-33 -34t-39 -18.5l39 -328h-57l-35 319h-88l-63 -319h-56zM218 369q20 0 38 6t33.5 22t28 44.5t21.5 73.5q4 19 5.5 38t1.5 33q0 38 -15.5 57t-56.5 19h-72l-59 -293h75z
M131 -37h43l-68 -132h-52z" />
    <glyph glyph-name="rcommaaccent" unicode="&#x157;" horiz-adv-x="228" 
d="M109 508h51l-11 -53q6 11 16 21.5t25 20.5q29 19 77 19l-10 -48h-12q-42 0 -72.5 -27t-40.5 -75l-72 -366h-52zM10 -37h43l-68 -132h-52z" />
    <glyph glyph-name="Rcaron" unicode="&#x158;" horiz-adv-x="406" 
d="M156 712h127q65 0 92.5 -31t27.5 -88q0 -16 -1.5 -35.5t-6.5 -42.5q-10 -47 -22 -80t-27 -54.5t-33 -34t-39 -18.5l39 -328h-57l-35 319h-88l-63 -319h-56zM218 369q20 0 38 6t33.5 22t28 44.5t21.5 73.5q4 19 5.5 38t1.5 33q0 38 -15.5 57t-56.5 19h-72l-59 -293h75z
M204 883h45l38 -92l75 92h48l-106 -130h-45z" />
    <glyph glyph-name="rcaron" unicode="&#x159;" horiz-adv-x="228" 
d="M109 508h51l-11 -53q6 11 16 21.5t25 20.5q29 19 77 19l-10 -48h-12q-42 0 -72.5 -27t-40.5 -75l-72 -366h-52zM107 704h45l38 -92l75 92h48l-106 -130h-45z" />
    <glyph glyph-name="Sacute" unicode="&#x15a;" horiz-adv-x="372" 
d="M79 179q-5 -21 -6.5 -36.5t-1.5 -29.5q0 -29 13 -46q17 -23 58 -23q44 0 69 25q19 19 29.5 43t19.5 71q5 21 7 40t2 41q0 21 -11 38t-38 30l-62 30q-35 17 -51 40.5t-16 65.5q0 15 2 31t5 33q12 59 27 91.5t39 55.5q21 21 48 30t57 9q38 0 59.5 -10t35.5 -28
q11 -14 16.5 -31t5.5 -43q0 -29 -9 -72h-55q5 21 6.5 36.5t1.5 29.5t-2.5 25t-10.5 21q-8 11 -19.5 16.5t-31.5 5.5q-36 0 -63 -24q-20 -18 -30 -42.5t-19 -69.5q-2 -11 -4 -25.5t-2 -27.5q0 -32 12 -46t32 -24l60 -28q43 -21 59 -46t16 -61q0 -38 -11 -91q-6 -32 -12.5 -55
t-14.5 -40.5t-17.5 -31t-21.5 -24.5q-43 -38 -112 -38q-39 0 -61.5 9t-38.5 28q-11 14 -17 31.5t-6 44.5q0 16 2 32.5t6 39.5h56zM349 889h55l-94 -129h-51z" />
    <glyph glyph-name="sacute" unicode="&#x15b;" horiz-adv-x="313" 
d="M24 29q-22 26 -22 69q0 20 4 40h52q-2 -11 -2.5 -19t-0.5 -16q0 -28 13 -44q7 -9 19.5 -15t28.5 -6q35 0 58 22q35 34 35 92q0 21 -9.5 40t-35.5 38l-46 33q-29 20 -44.5 43.5t-15.5 55.5q0 35 13.5 68t39.5 56q36 30 89 30q58 0 85 -36q20 -27 20 -64q0 -11 -1.5 -21.5
t-3.5 -21.5h-50q2 11 3 20t1 17q0 25 -12 40q-8 11 -19.5 15.5t-26.5 4.5q-30 0 -52 -19q-34 -31 -34 -82q0 -39 39 -66l48 -33q35 -24 49.5 -49.5t14.5 -62.5q0 -42 -14.5 -76.5t-39.5 -56.5q-39 -33 -96 -33q-30 0 -51 9.5t-36 27.5zM289 711h55l-94 -129h-51z" />
    <glyph glyph-name="Scircumflex" unicode="&#x15c;" horiz-adv-x="372" 
d="M79 179q-5 -21 -6.5 -36.5t-1.5 -29.5q0 -29 13 -46q17 -23 58 -23q44 0 69 25q19 19 29.5 43t19.5 71q5 21 7 40t2 41q0 21 -11 38t-38 30l-62 30q-35 17 -51 40.5t-16 65.5q0 15 2 31t5 33q12 59 27 91.5t39 55.5q21 21 48 30t57 9q38 0 59.5 -10t35.5 -28
q11 -14 16.5 -31t5.5 -43q0 -29 -9 -72h-55q5 21 6.5 36.5t1.5 29.5t-2.5 25t-10.5 21q-8 11 -19.5 16.5t-31.5 5.5q-36 0 -63 -24q-20 -18 -30 -42.5t-19 -69.5q-2 -11 -4 -25.5t-2 -27.5q0 -32 12 -46t32 -24l60 -28q43 -21 59 -46t16 -61q0 -38 -11 -91q-6 -32 -12.5 -55
t-14.5 -40.5t-17.5 -31t-21.5 -24.5q-43 -38 -112 -38q-39 0 -61.5 9t-38.5 28q-11 14 -17 31.5t-6 44.5q0 16 2 32.5t6 39.5h56zM389 760h-44l-38 92l-76 -92h-48l106 129h46z" />
    <glyph glyph-name="scircumflex" unicode="&#x15d;" horiz-adv-x="313" 
d="M24 29q-22 26 -22 69q0 20 4 40h52q-2 -11 -2.5 -19t-0.5 -16q0 -28 13 -44q7 -9 19.5 -15t28.5 -6q35 0 58 22q35 34 35 92q0 21 -9.5 40t-35.5 38l-46 33q-29 20 -44.5 43.5t-15.5 55.5q0 35 13.5 68t39.5 56q36 30 89 30q58 0 85 -36q20 -27 20 -64q0 -11 -1.5 -21.5
t-3.5 -21.5h-50q2 11 3 20t1 17q0 25 -12 40q-8 11 -19.5 15.5t-26.5 4.5q-30 0 -52 -19q-34 -31 -34 -82q0 -39 39 -66l48 -33q35 -24 49.5 -49.5t14.5 -62.5q0 -42 -14.5 -76.5t-39.5 -56.5q-39 -33 -96 -33q-30 0 -51 9.5t-36 27.5zM328 582h-44l-38 92l-76 -92h-48
l106 129h46z" />
    <glyph glyph-name="Scedilla" unicode="&#x15e;" horiz-adv-x="372" 
d="M79 179q-5 -21 -6.5 -36.5t-1.5 -29.5q0 -29 13 -46q17 -23 58 -23q44 0 69 25q19 19 29.5 43t19.5 71q5 21 7 40t2 41q0 21 -11 38t-38 30l-62 30q-35 17 -51 40.5t-16 65.5q0 15 2 31t5 33q12 59 27 91.5t39 55.5q21 21 48 30t57 9q38 0 59.5 -10t35.5 -28
q11 -14 16.5 -31t5.5 -43q0 -29 -9 -72h-55q5 21 6.5 36.5t1.5 29.5t-2.5 25t-10.5 21q-8 11 -19.5 16.5t-31.5 5.5q-36 0 -63 -24q-20 -18 -30 -42.5t-19 -69.5q-2 -11 -4 -25.5t-2 -27.5q0 -32 12 -46t32 -24l60 -28q43 -21 59 -46t16 -61q0 -38 -11 -91q-6 -32 -12.5 -55
t-14.5 -40.5t-17.5 -31t-21.5 -24.5q-43 -38 -112 -38q-39 0 -61.5 9t-38.5 28q-11 14 -17 31.5t-6 44.5q0 16 2 32.5t6 39.5h56zM114 -37h43l-68 -132h-52z" />
    <glyph glyph-name="scedilla" unicode="&#x15f;" horiz-adv-x="313" 
d="M24 29q-22 26 -22 69q0 20 4 40h52q-2 -11 -2.5 -19t-0.5 -16q0 -28 13 -44q7 -9 19.5 -15t28.5 -6q35 0 58 22q35 34 35 92q0 21 -9.5 40t-35.5 38l-46 33q-29 20 -44.5 43.5t-15.5 55.5q0 35 13.5 68t39.5 56q36 30 89 30q58 0 85 -36q20 -27 20 -64q0 -11 -1.5 -21.5
t-3.5 -21.5h-50q2 11 3 20t1 17q0 25 -12 40q-8 11 -19.5 15.5t-26.5 4.5q-30 0 -52 -19q-34 -31 -34 -82q0 -39 39 -66l48 -33q35 -24 49.5 -49.5t14.5 -62.5q0 -42 -14.5 -76.5t-39.5 -56.5q-39 -33 -96 -33q-30 0 -51 9.5t-36 27.5zM90 -37h43l-68 -132h-52z" />
    <glyph glyph-name="Scaron" unicode="&#x160;" horiz-adv-x="372" 
d="M79 179q-5 -21 -6.5 -36.5t-1.5 -29.5q0 -29 13 -46q17 -23 58 -23q44 0 69 25q19 19 29.5 43t19.5 71q5 21 7 40t2 41q0 21 -11 38t-38 30l-62 30q-35 17 -51 40.5t-16 65.5q0 15 2 31t5 33q12 59 27 91.5t39 55.5q21 21 48 30t57 9q38 0 59.5 -10t35.5 -28
q11 -14 16.5 -31t5.5 -43q0 -29 -9 -72h-55q5 21 6.5 36.5t1.5 29.5t-2.5 25t-10.5 21q-8 11 -19.5 16.5t-31.5 5.5q-36 0 -63 -24q-20 -18 -30 -42.5t-19 -69.5q-2 -11 -4 -25.5t-2 -27.5q0 -32 12 -46t32 -24l60 -28q43 -21 59 -46t16 -61q0 -38 -11 -91q-6 -32 -12.5 -55
t-14.5 -40.5t-17.5 -31t-21.5 -24.5q-43 -38 -112 -38q-39 0 -61.5 9t-38.5 28q-11 14 -17 31.5t-6 44.5q0 16 2 32.5t6 39.5h56zM207 883h45l38 -92l75 92h48l-106 -130h-45z" />
    <glyph glyph-name="scaron" unicode="&#x161;" horiz-adv-x="313" 
d="M24 29q-22 26 -22 69q0 20 4 40h52q-2 -11 -2.5 -19t-0.5 -16q0 -28 13 -44q7 -9 19.5 -15t28.5 -6q35 0 58 22q35 34 35 92q0 21 -9.5 40t-35.5 38l-46 33q-29 20 -44.5 43.5t-15.5 55.5q0 35 13.5 68t39.5 56q36 30 89 30q58 0 85 -36q20 -27 20 -64q0 -11 -1.5 -21.5
t-3.5 -21.5h-50q2 11 3 20t1 17q0 25 -12 40q-8 11 -19.5 15.5t-26.5 4.5q-30 0 -52 -19q-34 -31 -34 -82q0 -39 39 -66l48 -33q35 -24 49.5 -49.5t14.5 -62.5q0 -42 -14.5 -76.5t-39.5 -56.5q-39 -33 -96 -33q-30 0 -51 9.5t-36 27.5zM148 704h45l38 -92l75 92h48
l-106 -130h-45z" />
    <glyph glyph-name="Tcommaaccent" unicode="&#x162;" horiz-adv-x="320" 
d="M214 662h-112l11 50h279l-10 -50h-112l-132 -662h-56zM83 -37h43l-68 -132h-52z" />
    <glyph glyph-name="tcommaaccent" unicode="&#x163;" horiz-adv-x="229" 
d="M45 97q0 18 5 43l66 326h-58l8 42h58l30 149h52l-30 -149h82l-8 -42h-82l-65 -326q-2 -11 -3 -20t-1 -17q0 -27 17 -42t53 -15l-9 -46q-37 0 -60 9.5t-35 24.5q-11 14 -15.5 28.5t-4.5 34.5zM68 -37h43l-68 -132h-52z" />
    <glyph glyph-name="Tcaron" unicode="&#x164;" horiz-adv-x="320" 
d="M214 662h-112l11 50h279l-10 -50h-112l-132 -662h-56zM181 883h45l38 -92l75 92h48l-106 -130h-45z" />
    <glyph glyph-name="tcaron" unicode="&#x165;" horiz-adv-x="229" 
d="M45 97q0 18 5 43l66 326h-58l8 42h58l30 149h52l-30 -149h82l-8 -42h-82l-65 -326q-2 -11 -3 -20t-1 -17q0 -27 17 -42t53 -15l-9 -46q-37 0 -60 9.5t-35 24.5q-11 14 -15.5 28.5t-4.5 34.5zM283 719h48l-54 -133h-41z" />
    <glyph glyph-name="Tbar" unicode="&#x166;" horiz-adv-x="320" 
d="M113 712h279l-10 -50h-112l-56 -280h66l-8 -46h-67l-67 -336h-56l67 336h-67l9 46h67l56 280h-112z" />
    <glyph glyph-name="tbar" unicode="&#x167;" horiz-adv-x="252" 
d="M41 325h57l29 141h-58l8 42h58l30 149h52l-30 -149h82l-8 -42h-82l-28 -141h82l-8 -39h-82l-29 -146q-2 -11 -3 -20t-1 -17q0 -27 17 -42t53 -15l-9 -46q-37 0 -60 9.5t-35 24.5q-11 14 -15.5 28.5t-4.5 34.5q0 18 5 43l29 146h-57z" />
    <glyph glyph-name="Utilde" unicode="&#x168;" horiz-adv-x="393" 
d="M150 712h56l-113 -560q-2 -8 -3 -17.5t-1 -19.5q0 -35 16.5 -54t49.5 -19t62.5 25.5t39.5 75.5l115 569h56l-115 -570q-8 -43 -23.5 -69t-36.5 -44q-19 -17 -45 -27t-62 -10q-26 0 -50 10t-39 30q-24 30 -24 76q0 16 2 30t4 22zM194 810q24 21 38.5 28.5t30.5 7.5
q17 0 27 -4.5t23 -13.5q11 -8 19.5 -12t19.5 -4q12 0 21 5.5t23 18.5l23 -28q-25 -22 -39.5 -29t-30.5 -7t-26 4t-24 14q-11 7 -19 11t-19 4q-12 0 -21.5 -5.5t-23.5 -18.5z" />
    <glyph glyph-name="utilde" unicode="&#x169;" horiz-adv-x="348" 
d="M240 0h-51l8 39q-8 -11 -14.5 -17t-17.5 -14t-23.5 -12t-31.5 -4q-26 0 -43 10t-27 26q-8 13 -11.5 27t-3.5 31q0 16 6 48l74 374h52l-74 -374q-2 -10 -3.5 -22t-1.5 -19q0 -20 12 -37.5t41 -17.5q26 0 49.5 21t34.5 75l74 374h52zM133 632q24 21 38.5 28.5t30.5 7.5
q17 0 27 -4.5t23 -13.5q11 -8 19.5 -12t19.5 -4q12 0 21 5.5t23 18.5l23 -28q-25 -22 -39.5 -29t-30.5 -7t-26 4t-24 14q-11 7 -19 11t-19 4q-12 0 -21.5 -5.5t-23.5 -18.5z" />
    <glyph glyph-name="Umacron" unicode="&#x16a;" horiz-adv-x="393" 
d="M150 712h56l-113 -560q-2 -8 -3 -17.5t-1 -19.5q0 -35 16.5 -54t49.5 -19t62.5 25.5t39.5 75.5l115 569h56l-115 -570q-8 -43 -23.5 -69t-36.5 -44q-19 -17 -45 -27t-62 -10q-26 0 -50 10t-39 30q-24 30 -24 76q0 16 2 30t4 22zM213 832h198l-9 -42h-198z" />
    <glyph glyph-name="umacron" unicode="&#x16b;" horiz-adv-x="348" 
d="M240 0h-51l8 39q-8 -11 -14.5 -17t-17.5 -14t-23.5 -12t-31.5 -4q-26 0 -43 10t-27 26q-8 13 -11.5 27t-3.5 31q0 16 6 48l74 374h52l-74 -374q-2 -10 -3.5 -22t-1.5 -19q0 -20 12 -37.5t41 -17.5q26 0 49.5 21t34.5 75l74 374h52zM150 654h198l-9 -42h-198z" />
    <glyph glyph-name="Ubreve" unicode="&#x16c;" horiz-adv-x="393" 
d="M150 712h56l-113 -560q-2 -8 -3 -17.5t-1 -19.5q0 -35 16.5 -54t49.5 -19t62.5 25.5t39.5 75.5l115 569h56l-115 -570q-8 -43 -23.5 -69t-36.5 -44q-19 -17 -45 -27t-62 -10q-26 0 -50 10t-39 30q-24 30 -24 76q0 16 2 30t4 22zM418 856q-15 -55 -43.5 -78t-75.5 -23
q-43 0 -64.5 23t-21.5 59v7q0 4 1 12h40v-9q0 -51 49 -51q26 0 44.5 14t28.5 46h42z" />
    <glyph glyph-name="ubreve" unicode="&#x16d;" horiz-adv-x="348" 
d="M240 0h-51l8 39q-8 -11 -14.5 -17t-17.5 -14t-23.5 -12t-31.5 -4q-26 0 -43 10t-27 26q-8 13 -11.5 27t-3.5 31q0 16 6 48l74 374h52l-74 -374q-2 -10 -3.5 -22t-1.5 -19q0 -20 12 -37.5t41 -17.5q26 0 49.5 21t34.5 75l74 374h52zM356 678q-15 -55 -43.5 -78t-75.5 -23
q-43 0 -64.5 23t-21.5 59v7q0 4 1 12h40v-9q0 -51 49 -51q26 0 44.5 14t28.5 46h42z" />
    <glyph glyph-name="Uring" unicode="&#x16e;" horiz-adv-x="393" 
d="M150 712h56l-113 -560q-2 -8 -3 -17.5t-1 -19.5q0 -35 16.5 -54t49.5 -19t62.5 25.5t39.5 75.5l115 569h56l-115 -570q-8 -43 -23.5 -69t-36.5 -44q-19 -17 -45 -27t-62 -10q-26 0 -50 10t-39 30q-24 30 -24 76q0 16 2 30t4 22zM252 841q0 -23 15.5 -39t38.5 -16t38.5 16
t15.5 39t-15.5 38.5t-38.5 15.5t-38.5 -15.5t-15.5 -38.5zM216 841q0 37 26 63.5t64 26.5t64 -26t26 -64t-26.5 -64t-63.5 -26q-38 0 -64 26t-26 64z" />
    <glyph glyph-name="uring" unicode="&#x16f;" horiz-adv-x="348" 
d="M240 0h-51l8 39q-8 -11 -14.5 -17t-17.5 -14t-23.5 -12t-31.5 -4q-26 0 -43 10t-27 26q-8 13 -11.5 27t-3.5 31q0 16 6 48l74 374h52l-74 -374q-2 -10 -3.5 -22t-1.5 -19q0 -20 12 -37.5t41 -17.5q26 0 49.5 21t34.5 75l74 374h52zM197 672q0 -23 15.5 -39t38.5 -16
t38.5 16t15.5 39t-15.5 38.5t-38.5 15.5t-38.5 -15.5t-15.5 -38.5zM161 672q0 38 26 64t64 26t64 -26t26 -64t-26 -64t-64 -26t-64 26t-26 64z" />
    <glyph glyph-name="Uhungarumlaut" unicode="&#x170;" horiz-adv-x="393" 
d="M150 712h56l-113 -560q-2 -8 -3 -17.5t-1 -19.5q0 -35 16.5 -54t49.5 -19t62.5 25.5t39.5 75.5l115 569h56l-115 -570q-8 -43 -23.5 -69t-36.5 -44q-19 -17 -45 -27t-62 -10q-26 0 -50 10t-39 30q-24 30 -24 76q0 16 2 30t4 22zM293 889h53l-85 -129h-48zM410 889h54
l-85 -129h-49z" />
    <glyph glyph-name="uhungarumlaut" unicode="&#x171;" horiz-adv-x="348" 
d="M240 0h-51l8 39q-8 -11 -14.5 -17t-17.5 -14t-23.5 -12t-31.5 -4q-26 0 -43 10t-27 26q-8 13 -11.5 27t-3.5 31q0 16 6 48l74 374h52l-74 -374q-2 -10 -3.5 -22t-1.5 -19q0 -20 12 -37.5t41 -17.5q26 0 49.5 21t34.5 75l74 374h52zM232 711h53l-85 -129h-48zM349 711h54
l-85 -129h-49z" />
    <glyph glyph-name="Uogonek" unicode="&#x172;" horiz-adv-x="393" 
d="M150 712h56l-113 -560q-2 -8 -3 -17.5t-1 -19.5q0 -35 16.5 -54t49.5 -19t62.5 25.5t39.5 75.5l115 569h56l-115 -570q-8 -43 -23.5 -69t-36.5 -44q-19 -17 -45 -27t-62 -10q-26 0 -50 10t-39 30q-24 30 -24 76q0 16 2 30t4 22zM187 -37h43l-68 -132h-52z" />
    <glyph glyph-name="uogonek" unicode="&#x173;" horiz-adv-x="348" 
d="M240 0h-51l8 39q-8 -11 -14.5 -17t-17.5 -14t-23.5 -12t-31.5 -4q-26 0 -43 10t-27 26q-8 13 -11.5 27t-3.5 31q0 16 6 48l74 374h52l-74 -374q-2 -10 -3.5 -22t-1.5 -19q0 -20 12 -37.5t41 -17.5q26 0 49.5 21t34.5 75l74 374h52zM189 -37h43l-68 -132h-52z" />
    <glyph glyph-name="Wcircumflex" unicode="&#x174;" horiz-adv-x="569" 
d="M104 712h58l-45 -606l230 606h59l-7 -606l192 606h58l-240 -712h-60l7 606l-233 -606h-59zM485 760h-44l-38 92l-76 -92h-48l106 129h46z" />
    <glyph glyph-name="wcircumflex" unicode="&#x175;" horiz-adv-x="465" 
d="M63 508h53l-19 -417l162 417h48l-7 -418l149 418h54l-193 -508h-52l7 417l-161 -417h-53zM390 582h-44l-38 92l-76 -92h-48l106 129h46z" />
    <glyph glyph-name="Ycircumflex" unicode="&#x176;" horiz-adv-x="297" 
d="M130 303l-34 409h58l20 -330l148 330h62l-200 -420l-58 -292h-56zM353 760h-44l-38 92l-76 -92h-48l106 129h46z" />
    <glyph glyph-name="ycircumflex" unicode="&#x177;" horiz-adv-x="287" 
d="M-73 -157q66 0 95 61l45 98l-12 506h53l2 -420l168 420h58l-258 -607q-14 -32 -30 -52.5t-35.5 -32t-43.5 -16t-52 -4.5zM314 582h-44l-38 92l-76 -92h-48l106 129h46z" />
    <glyph glyph-name="Ydieresis" unicode="&#x178;" horiz-adv-x="297" 
d="M130 303l-34 409h58l20 -330l148 330h62l-200 -420l-58 -292h-56zM172 842h58l-12 -62h-58zM301 842h58l-13 -62h-58z" />
    <glyph glyph-name="Zacute" unicode="&#x179;" horiz-adv-x="304" 
d="M-15 43l313 619h-181l10 50h241l-9 -43l-313 -619h192l-10 -50h-252zM319 889h55l-94 -129h-51z" />
    <glyph glyph-name="zacute" unicode="&#x17a;" horiz-adv-x="264" 
d="M-23 39l244 423h-154l9 46h213l-7 -38l-246 -424h166l-9 -46h-224zM261 711h55l-94 -129h-51z" />
    <glyph glyph-name="Zdotaccent" unicode="&#x17b;" horiz-adv-x="304" 
d="M-15 43l313 619h-181l10 50h241l-9 -43l-313 -619h192l-10 -50h-252zM245 846h58l-13 -62h-58z" />
    <glyph glyph-name="zdotaccent" unicode="&#x17c;" horiz-adv-x="264" 
d="M-23 39l244 423h-154l9 46h213l-7 -38l-246 -424h166l-9 -46h-224zM187 668h58l-13 -62h-58z" />
    <glyph glyph-name="Zcaron" unicode="&#x17d;" horiz-adv-x="304" 
d="M-15 43l313 619h-181l10 50h241l-9 -43l-313 -619h192l-10 -50h-252zM177 883h45l38 -92l75 92h48l-106 -130h-45z" />
    <glyph glyph-name="zcaron" unicode="&#x17e;" horiz-adv-x="264" 
d="M-23 39l244 423h-154l9 46h213l-7 -38l-246 -424h166l-9 -46h-224zM120 704h45l38 -92l75 92h48l-106 -130h-45z" />
    <glyph glyph-name="longs" unicode="&#x17f;" horiz-adv-x="168" 
d="M124 578q8 39 20.5 63.5t33.5 41.5t45.5 23.5t60.5 6.5l-9 -46q-46 0 -69 -23.5t-31 -65.5l-115 -578h-52z" />
    <glyph glyph-name="uni018F" unicode="&#x18f;" horiz-adv-x="392" 
d="M311 379q17 86 24.5 136t7.5 78q0 32 -15 54.5t-55 22.5q-39 0 -63 -24q-19 -17 -29 -40t-17 -55h-56q10 44 25.5 78t45.5 59q40 32 98 32q35 0 58 -10.5t39 -30.5q13 -16 19 -35t6 -45q0 -17 -2.5 -39.5t-7 -51.5t-11.5 -66.5t-16 -85.5q-18 -91 -31 -147.5t-25 -91
t-24.5 -54t-30.5 -35.5q-40 -36 -101 -36q-35 0 -58.5 10.5t-37.5 30.5q-12 17 -18 35.5t-6 44.5q0 17 2.5 39.5t7.5 54t12.5 74t18.5 98.5h240zM118 331q-17 -87 -24.5 -136t-7.5 -76q0 -32 14 -54.5t54 -22.5q36 0 62 24q12 11 21 26t18 43.5t20 75t26 120.5h-183z" />
    <glyph glyph-name="florin" unicode="&#x192;" horiz-adv-x="320" 
d="M134 382l79 203q26 69 65.5 99t105.5 30h18l-10 -47h-19q-35 0 -63.5 -20t-44.5 -62l-79 -203h86l-9 -42h-92l-211 -545h-53l212 545h-57l9 42h63z" />
    <glyph glyph-name="uni01B5" unicode="&#x1b5;" horiz-adv-x="304" 
d="M80 382h76l142 280h-181l10 50h241l-9 -43l-146 -287h62l-9 -46h-77l-143 -286h192l-10 -50h-252l9 43l147 293h-61z" />
    <glyph glyph-name="uni01B6" unicode="&#x1b6;" horiz-adv-x="264" 
d="M46 287h74l101 175h-154l9 46h213l-7 -38l-106 -183h59l-7 -39h-75l-117 -202h166l-9 -46h-224l8 39l120 209h-59z" />
    <glyph glyph-name="uni01C4" unicode="&#x1c4;" horiz-adv-x="703" 
d="M158 50q43 0 67 24q13 12 22.5 29t19.5 47.5t21 79.5t26 126q19 93 28 148t9 85q0 17 -4 29.5t-12 22.5q-16 21 -54 21h-79l-122 -612h78zM156 712h135q35 0 56.5 -10.5t35.5 -30.5q12 -17 18 -36t6 -46q0 -26 -9 -82.5t-28 -150.5q-17 -86 -29.5 -141t-24.5 -89.5
t-24.5 -54t-30.5 -34.5q-41 -37 -104 -37h-143zM384 43l313 619h-181l10 50h241l-9 -43l-313 -619h192l-10 -50h-252zM574 883h45l38 -92l75 92h48l-106 -130h-45z" />
    <glyph glyph-name="uni01C5" unicode="&#x1c5;" horiz-adv-x="663" 
d="M158 50q43 0 67 24q13 12 22.5 29t19.5 47.5t21 79.5t26 126q19 93 28 148t9 85q0 17 -4 29.5t-12 22.5q-16 21 -54 21h-79l-122 -612h78zM156 712h135q35 0 56.5 -10.5t35.5 -30.5q12 -17 18 -36t6 -46q0 -26 -9 -82.5t-28 -150.5q-17 -86 -29.5 -141t-24.5 -89.5
t-24.5 -54t-30.5 -34.5q-41 -37 -104 -37h-143zM377 39l244 423h-154l9 46h213l-7 -38l-246 -424h166l-9 -46h-224zM518 704h45l38 -92l75 92h48l-106 -130h-45z" />
    <glyph glyph-name="uni01C6" unicode="&#x1c6;" horiz-adv-x="606" 
d="M42 254q10 52 19 90t18 64.5t19 44t23 29.5q35 34 81 34q36 0 54 -18q14 -14 19 -28l49 242h52l-142 -712h-51l7 36q-13 -18 -31 -29q-10 -6 -23.5 -10.5t-30.5 -4.5q-48 0 -70 36q-16 23 -16 66q0 26 6 65.5t17 94.5zM94 254q-11 -56 -17 -93t-6 -60q0 -28 10 -42
q7 -9 16.5 -15t23.5 -6q27 0 49 19q28 25 38 73l49 248q3 18 3 32q0 28 -14 44q-8 9 -16.5 12.5t-21.5 3.5q-28 0 -50 -21q-20 -19 -34 -65.5t-30 -129.5zM320 39l244 423h-154l9 46h213l-7 -38l-246 -424h166l-9 -46h-224zM461 704h45l38 -92l75 92h48l-106 -130h-45z" />
    <glyph glyph-name="uni01C7" unicode="&#x1c7;" horiz-adv-x="633" 
d="M156 712h56l-132 -662h178l-10 -50h-234zM334 76q13 -17 27.5 -25.5t36.5 -8.5q80 0 104 120l110 550h56l-112 -558q-9 -45 -22.5 -73t-33.5 -48q-22 -22 -47.5 -31.5t-56.5 -9.5q-42 0 -66.5 15t-38.5 37z" />
    <glyph glyph-name="uni01C8" unicode="&#x1c8;" horiz-adv-x="487" 
d="M156 712h56l-132 -662h178l-10 -50h-234zM429 508h52l-115 -577q-8 -39 -21 -64t-33 -41q-22 -17 -45.5 -23.5t-58.5 -6.5l10 47q40 0 63 22.5t33 70.5zM457 689h65l-12 -66h-65z" />
    <glyph glyph-name="uni01C9" unicode="&#x1c9;" horiz-adv-x="366" 
d="M46 34q-11 16 -15.5 30.5t-4.5 31.5q0 8 0.5 18t2.5 18l117 580h52l-115 -577q-2 -14 -2.5 -20t-0.5 -14q0 -26 15 -40.5t47 -14.5l-9 -46q-37 0 -56.5 10t-30.5 24zM308 508h52l-115 -577q-8 -39 -21 -64t-33 -41q-22 -17 -45.5 -23.5t-58.5 -6.5l10 47q40 0 63 22.5
t33 70.5zM336 689h65l-12 -66h-65z" />
    <glyph glyph-name="uni01CA" unicode="&#x1ca;" horiz-adv-x="730" 
d="M156 712h51l72 -557l109 557h56l-142 -712h-49l-72 557l-111 -557h-56zM431 76q13 -17 27.5 -25.5t36.5 -8.5q80 0 104 120l110 550h56l-112 -558q-9 -45 -22.5 -73t-33.5 -48q-22 -22 -47.5 -31.5t-56.5 -9.5q-42 0 -66.5 15t-38.5 37z" />
    <glyph glyph-name="uni01CB" unicode="&#x1cb;" horiz-adv-x="584" 
d="M156 712h51l72 -557l109 557h56l-142 -712h-49l-72 557l-111 -557h-56zM526 508h52l-115 -577q-8 -39 -21 -64t-33 -41q-22 -17 -45.5 -23.5t-58.5 -6.5l10 47q40 0 63 22.5t33 70.5zM554 689h65l-12 -66h-65z" />
    <glyph glyph-name="uni01CC" unicode="&#x1cc;" horiz-adv-x="516" 
d="M109 508h51l-8 -39q8 11 14.5 17t17.5 14t23.5 12t31.5 4q26 0 43 -10t27 -26q8 -13 11.5 -27t3.5 -31t-6 -48l-74 -374h-52l74 374q2 10 3.5 22t1.5 19q0 20 -12 37.5t-41 17.5q-26 0 -49.5 -21t-34.5 -75l-74 -374h-52zM458 508h52l-115 -577q-8 -39 -21 -64t-33 -41
q-22 -17 -45.5 -23.5t-58.5 -6.5l10 47q40 0 63 22.5t33 70.5zM486 689h65l-12 -66h-65z" />
    <glyph glyph-name="uni01F1" unicode="&#x1f1;" horiz-adv-x="703" 
d="M158 50q43 0 67 24q13 12 22.5 29t19.5 47.5t21 79.5t26 126q19 93 28 148t9 85q0 17 -4 29.5t-12 22.5q-16 21 -54 21h-79l-122 -612h78zM156 712h135q35 0 56.5 -10.5t35.5 -30.5q12 -17 18 -36t6 -46q0 -26 -9 -82.5t-28 -150.5q-17 -86 -29.5 -141t-24.5 -89.5
t-24.5 -54t-30.5 -34.5q-41 -37 -104 -37h-143zM384 43l313 619h-181l10 50h241l-9 -43l-313 -619h192l-10 -50h-252z" />
    <glyph glyph-name="uni01F2" unicode="&#x1f2;" horiz-adv-x="663" 
d="M158 50q43 0 67 24q13 12 22.5 29t19.5 47.5t21 79.5t26 126q19 93 28 148t9 85q0 17 -4 29.5t-12 22.5q-16 21 -54 21h-79l-122 -612h78zM156 712h135q35 0 56.5 -10.5t35.5 -30.5q12 -17 18 -36t6 -46q0 -26 -9 -82.5t-28 -150.5q-17 -86 -29.5 -141t-24.5 -89.5
t-24.5 -54t-30.5 -34.5q-41 -37 -104 -37h-143zM376 39l244 423h-154l9 46h213l-7 -38l-246 -424h166l-9 -46h-224z" />
    <glyph glyph-name="uni01F3" unicode="&#x1f3;" horiz-adv-x="606" 
d="M42 254q10 52 19 90t18 64.5t19 44t23 29.5q35 34 81 34q36 0 54 -18q14 -14 19 -28l49 242h52l-142 -712h-51l7 36q-13 -18 -31 -29q-10 -6 -23.5 -10.5t-30.5 -4.5q-48 0 -70 36q-16 23 -16 66q0 26 6 65.5t17 94.5zM94 254q-11 -56 -17 -93t-6 -60q0 -28 10 -42
q7 -9 16.5 -15t23.5 -6q27 0 49 19q28 25 38 73l49 248q3 18 3 32q0 28 -14 44q-8 9 -16.5 12.5t-21.5 3.5q-28 0 -50 -21q-20 -19 -34 -65.5t-30 -129.5zM319 39l244 423h-154l9 46h213l-7 -38l-246 -424h166l-9 -46h-224z" />
    <glyph glyph-name="Aringacute" unicode="&#x1fa;" horiz-adv-x="356" 
d="M249 0l1 196h-159l-79 -196h-58l291 712h54l5 -712h-55zM253 612l-142 -366h139zM378 1072h55l-94 -129h-51zM235 841q0 -23 15.5 -39t38.5 -16t38.5 16t15.5 39t-15.5 38.5t-38.5 15.5t-38.5 -15.5t-15.5 -38.5zM199 841q0 37 26 63.5t64 26.5t64 -26t26 -64t-26.5 -64
t-63.5 -26q-38 0 -64 26t-26 64z" />
    <glyph glyph-name="aringacute" unicode="&#x1fb;" horiz-adv-x="329" 
d="M23 27q-9 14 -12.5 31t-3.5 37q0 9 1 21t4 26q7 35 22.5 65.5t40.5 51.5q18 15 40 22t57 7h59l18 92q4 19 4 33q0 27 -13.5 42t-39.5 15q-28 0 -47 -18q-15 -13 -22.5 -30.5t-12.5 -43.5h-52q6 30 17 58t35 49q18 16 38.5 23.5t49.5 7.5q57 0 81 -32q9 -13 13.5 -27.5
t4.5 -39.5q0 -9 -1 -20t-3 -19l-76 -378h-50l8 43q-6 -8 -13.5 -16.5t-18.5 -16.5q-14 -11 -27.5 -14.5t-30.5 -3.5q-45 0 -70 35zM60 101q0 -29 12 -46t36 -17q19 0 34.5 8.5t27 22.5t19.5 30.5t11 33.5l23 115h-49q-23 0 -37 -4.5t-30 -18.5q-23 -20 -35 -55.5t-12 -68.5z
M189 672q0 -23 15.5 -39t38.5 -16t38.5 16t15.5 39t-15.5 38.5t-38.5 15.5t-38.5 -15.5t-15.5 -38.5zM153 672q0 38 26 64t64 26t64 -26t26 -64t-26 -64t-64 -26t-64 26t-26 64zM321 901h55l-94 -129h-51z" />
    <glyph glyph-name="AEacute" unicode="&#x1fc;" horiz-adv-x="568" 
d="M345 712h271l-10 -50h-178l-55 -278h152l-10 -50h-153l-56 -284h178l-10 -50h-234l39 198h-158l-106 -198h-62zM289 248l83 417l-223 -417h140zM481 889h55l-94 -129h-51z" />
    <glyph glyph-name="aeacute" unicode="&#x1fd;" horiz-adv-x="507" 
d="M206 516q66 0 87 -50q36 50 103 50q30 0 49 -10t30 -27q17 -26 17 -69q0 -29 -6 -68t-17 -95h-195q-10 -52 -16 -88t-6 -58q0 -29 14 -46q7 -8 16 -12.5t23 -4.5q13 0 26.5 5t24.5 14q14 13 22.5 31.5t14.5 45.5h51q-8 -39 -19.5 -64t-32.5 -45q-36 -33 -92 -33
q-26 0 -44.5 8.5t-30.5 22.5q-14 17 -20 41q-9 -16 -18.5 -27t-15.5 -16q-20 -16 -38.5 -22.5t-39.5 -6.5q-45 0 -70 35q-9 14 -12.5 31t-3.5 37q0 9 1 21t4 26q7 35 22.5 65.5t40.5 51.5q18 15 40 22t57 7h59l18 92q4 19 4 33q0 27 -13.5 42t-39.5 15q-28 0 -47 -18
q-15 -13 -22.5 -30.5t-12.5 -43.5h-52q6 30 17 58t35 49q18 16 38.5 23.5t49.5 7.5zM60 101q0 -29 12 -46t36 -17q19 0 34.5 8.5t27 22.5t19.5 30.5t11 33.5l23 115h-49q-23 0 -37 -4.5t-30 -18.5q-23 -20 -35 -55.5t-12 -68.5zM425 290q16 77 16 118q0 28 -12 45t-39 17
q-14 0 -27 -5t-24 -17q-10 -11 -17 -23.5t-13.5 -30.5t-12.5 -43t-13 -61h142zM376 711h55l-94 -129h-51z" />
    <glyph glyph-name="Oslashacute" unicode="&#x1fe;" horiz-adv-x="395" 
d="M71 356q18 90 31 146.5t25 91.5t24.5 54.5t30.5 35.5q40 36 101 36q50 0 78 -23l29 59h46l-47 -93q7 -14 10.5 -29t3.5 -35q0 -17 -2.5 -39.5t-7 -51.5t-11.5 -66.5t-16 -85.5q-18 -90 -31 -146.5t-25 -91.5t-24.5 -54.5t-30.5 -35.5q-40 -36 -101 -36q-26 0 -45.5 5.5
t-33.5 16.5l-28 -58h-46l47 92q-7 14 -10.5 29.5t-3.5 35.5q0 34 9 91t28 152zM310 356q18 90 26.5 144t10.5 85l-246 -516q16 -27 57 -27q36 0 62 24q12 12 21.5 28t19 46.5t21 82t28.5 133.5zM127 356q-18 -89 -27 -143t-10 -85l245 516q-16 26 -57 26q-17 0 -32.5 -6
t-28.5 -18q-12 -12 -21.5 -28t-19 -46.5t-21.5 -82t-28 -133.5zM360 889h55l-94 -129h-51z" />
    <glyph glyph-name="oslashacute" unicode="&#x1ff;" 
d="M289 254q-11 -55 -20 -93t-18.5 -63.5t-19.5 -42t-22 -28.5q-17 -17 -39.5 -26t-51.5 -9q-42 0 -65 20l-29 -56h-43l48 89q-7 18 -7 56q0 43 21 153q11 55 20 93t18.5 63.5t19.5 42t22 28.5q35 35 91 35q41 0 64 -20l30 56h43l-49 -90q8 -21 8 -55q0 -44 -21 -153z
M237 254q9 48 15 84t8 58l-179 -337q5 -10 16.5 -15.5t24.5 -5.5q30 0 52 22q10 10 17.5 24.5t15 37.5t14.5 55t16 77zM95 254q-10 -48 -15.5 -83t-7.5 -58l179 335q-2 2 -2 3q-6 8 -15.5 13.5t-23.5 5.5q-30 0 -52 -22q-10 -10 -17.5 -24.5t-15 -37.5t-14.5 -55t-16 -77z
M293 711h55l-94 -129h-51z" />
    <glyph glyph-name="Scommaaccent" unicode="&#x218;" horiz-adv-x="372" 
d="M79 179q-5 -21 -6.5 -36.5t-1.5 -29.5q0 -29 13 -46q17 -23 58 -23q44 0 69 25q19 19 29.5 43t19.5 71q5 21 7 40t2 41q0 21 -11 38t-38 30l-62 30q-35 17 -51 40.5t-16 65.5q0 15 2 31t5 33q12 59 27 91.5t39 55.5q21 21 48 30t57 9q38 0 59.5 -10t35.5 -28
q11 -14 16.5 -31t5.5 -43q0 -29 -9 -72h-55q5 21 6.5 36.5t1.5 29.5t-2.5 25t-10.5 21q-8 11 -19.5 16.5t-31.5 5.5q-36 0 -63 -24q-20 -18 -30 -42.5t-19 -69.5q-2 -11 -4 -25.5t-2 -27.5q0 -32 12 -46t32 -24l60 -28q43 -21 59 -46t16 -61q0 -38 -11 -91q-6 -32 -12.5 -55
t-14.5 -40.5t-17.5 -31t-21.5 -24.5q-43 -38 -112 -38q-39 0 -61.5 9t-38.5 28q-11 14 -17 31.5t-6 44.5q0 16 2 32.5t6 39.5h56zM114 -37h43l-68 -132h-52z" />
    <glyph glyph-name="scommaaccent" unicode="&#x219;" horiz-adv-x="313" 
d="M24 29q-22 26 -22 69q0 20 4 40h52q-2 -11 -2.5 -19t-0.5 -16q0 -28 13 -44q7 -9 19.5 -15t28.5 -6q35 0 58 22q35 34 35 92q0 21 -9.5 40t-35.5 38l-46 33q-29 20 -44.5 43.5t-15.5 55.5q0 35 13.5 68t39.5 56q36 30 89 30q58 0 85 -36q20 -27 20 -64q0 -11 -1.5 -21.5
t-3.5 -21.5h-50q2 11 3 20t1 17q0 25 -12 40q-8 11 -19.5 15.5t-26.5 4.5q-30 0 -52 -19q-34 -31 -34 -82q0 -39 39 -66l48 -33q35 -24 49.5 -49.5t14.5 -62.5q0 -42 -14.5 -76.5t-39.5 -56.5q-39 -33 -96 -33q-30 0 -51 9.5t-36 27.5zM90 -37h43l-68 -132h-52z" />
    <glyph glyph-name="uni021A" unicode="&#x21a;" horiz-adv-x="320" 
d="M214 662h-112l11 50h279l-10 -50h-112l-132 -662h-56zM83 -37h43l-68 -132h-52z" />
    <glyph glyph-name="uni021B" unicode="&#x21b;" horiz-adv-x="229" 
d="M45 97q0 18 5 43l66 326h-58l8 42h58l30 149h52l-30 -149h82l-8 -42h-82l-65 -326q-2 -11 -3 -20t-1 -17q0 -27 17 -42t53 -15l-9 -46q-37 0 -60 9.5t-35 24.5q-11 14 -15.5 28.5t-4.5 34.5zM69 -37h43l-68 -132h-52z" />
    <glyph glyph-name="uni0237" unicode="&#x237;" horiz-adv-x="168" 
d="M110 508h52l-115 -577q-8 -39 -21 -64t-33 -41q-22 -17 -45.5 -23.5t-58.5 -6.5l10 47q40 0 63 22.5t33 70.5z" />
    <glyph glyph-name="uni0259" unicode="&#x259;" horiz-adv-x="326" 
d="M233 261q11 51 16.5 87t5.5 59q0 29 -14 47q-13 16 -39 16q-31 0 -53 -21q-25 -24 -36 -74h-50q8 37 20 63.5t36 47.5q18 17 41 23.5t47 6.5q56 0 83 -39q16 -25 16 -67q0 -26 -5.5 -64.5t-16.5 -91.5q-20 -99 -39 -152.5t-44 -76.5q-34 -33 -90 -33q-29 0 -48.5 10.5
t-30.5 27.5q-16 25 -16 68q0 29 6 68t17 95h194zM83 218q-8 -40 -12.5 -68.5t-4.5 -48.5q0 -29 12.5 -46t39.5 -17q29 0 51 22q9 9 16 21t13.5 30.5t12.5 44.5t14 62h-142z" />
    <glyph glyph-name="uni02BB" unicode="&#x2bb;" horiz-adv-x="173" 
d="M147 712l74 51l-29 -143h-64z" />
    <glyph glyph-name="afii57929" unicode="&#x2bc;" horiz-adv-x="173" 
d="M147 712h64l-19 -92l-74 -50z" />
    <glyph glyph-name="circumflex" unicode="&#x2c6;" 
d="M333 582h-44l-38 92l-76 -92h-48l106 129h46z" />
    <glyph glyph-name="caron" unicode="&#x2c7;" 
d="M152 704h45l38 -92l75 92h48l-106 -130h-45z" />
    <glyph glyph-name="breve" unicode="&#x2d8;" 
d="M351 678q-15 -55 -43.5 -78t-75.5 -23q-43 0 -64.5 23t-21.5 59v7q0 4 1 12h40v-9q0 -51 49 -51q26 0 44.5 14t28.5 46h42z" />
    <glyph glyph-name="dotaccent" unicode="&#x2d9;" 
d="M219 668h58l-13 -62h-58z" />
    <glyph glyph-name="ring" unicode="&#x2da;" 
d="M192 672q0 -23 15.5 -39t38.5 -16t38.5 16t15.5 39t-15.5 38.5t-38.5 15.5t-38.5 -15.5t-15.5 -38.5zM156 672q0 38 26 64t64 26t64 -26t26 -64t-26 -64t-64 -26t-64 26t-26 64z" />
    <glyph glyph-name="ogonek" unicode="&#x2db;" 
d="M95 -37h43l-68 -132h-52z" />
    <glyph glyph-name="tilde" unicode="&#x2dc;" 
d="M128 632q24 21 38.5 28.5t30.5 7.5q17 0 27 -4.5t23 -13.5q11 -8 19.5 -12t19.5 -4q12 0 21 5.5t23 18.5l23 -28q-25 -22 -39.5 -29t-30.5 -7t-26 4t-24 14q-11 7 -19 11t-19 4q-12 0 -21.5 -5.5t-23.5 -18.5z" />
    <glyph glyph-name="hungarumlaut" unicode="&#x2dd;" horiz-adv-x="330" 
d="M227 711h53l-85 -129h-48zM344 711h54l-85 -129h-49z" />
    <glyph glyph-name="uni0394" unicode="&#x394;" horiz-adv-x="356" 
d="M245 712h53l4 -712h-348zM245 50l8 559l-216 -559h208z" />
    <glyph glyph-name="uni03A9" unicode="&#x3a9;" horiz-adv-x="395" 
d="M127 356q-20 -96 -29.5 -152t-9.5 -82q0 -54 45 -78l-8 -44h-130l9 50h72q-21 15 -31.5 32.5t-10.5 49.5q0 27 9.5 80t27.5 144q18 90 31 146.5t25 91.5t24.5 54.5t30.5 35.5q40 36 101 36q35 0 58.5 -10.5t37.5 -30.5q12 -17 18 -35.5t6 -44.5q0 -17 -2.5 -39.5
t-7 -51.5t-11.5 -66.5t-16 -85.5q-11 -55 -19.5 -96t-16 -71.5t-14.5 -51.5t-15 -34q-13 -21 -27 -32.5t-31 -20.5h67l-10 -50h-130l9 44q21 9 39.5 25t30.5 39q13 27 26.5 85t34.5 163q19 95 28 151t9 86q0 16 -3 30t-11 24.5t-21.5 16.5t-33.5 6q-17 0 -32.5 -6t-28.5 -18
q-12 -12 -21.5 -28t-19 -46.5t-21.5 -82t-28 -133.5z" />
    <glyph glyph-name="uni03BC" unicode="&#x3bc;" horiz-adv-x="348" 
d="M157 508l-74 -374q-2 -10 -3.5 -22t-1.5 -19q0 -20 12 -37.5t41 -17.5q26 0 49.5 21t34.5 75l74 374h52l-101 -508h-51l8 39q-8 -11 -14.5 -17t-17.5 -14t-23.5 -12t-31.5 -4q-14 0 -28 5t-25 16l-43 -218h-52l143 713h52z" />
    <glyph glyph-name="pi" unicode="&#x3c0;" horiz-adv-x="353" 
d="M109 508h237l-101 -508h-52l93 462h-133l-93 -462h-52z" />
    <glyph glyph-name="uni0400" unicode="&#x400;" horiz-adv-x="342" 
d="M156 712h234l-10 -50h-178l-55 -278h152l-10 -50h-153l-56 -284h178l-10 -50h-234zM225 891h50l38 -128h-45z" />
    <glyph glyph-name="afii10023" unicode="&#x401;" horiz-adv-x="342" 
d="M156 712h234l-10 -50h-178l-55 -278h152l-10 -50h-153l-56 -284h178l-10 -50h-234zM208 842h58l-12 -62h-58zM337 842h58l-13 -62h-58z" />
    <glyph glyph-name="afii10051" unicode="&#x402;" horiz-adv-x="437" 
d="M202 662h-99l10 50h278l-9 -50h-125l-50 -249h64q65 0 95 -33q28 -32 28 -90q0 -16 -2 -37.5t-6 -40.5q-12 -58 -27 -98.5t-36.5 -65.5t-51 -36.5t-69.5 -11.5h-18l9 50h13q25 0 44 8t33.5 27t26 49.5t20.5 77.5q4 17 5.5 37.5t1.5 35.5q0 38 -16.5 58t-57.5 20h-66
l-72 -363h-56z" />
    <glyph glyph-name="afii10052" unicode="&#x403;" horiz-adv-x="317" 
d="M156 712h229l-10 -50h-173l-132 -662h-56zM324 889h55l-94 -129h-51z" />
    <glyph glyph-name="afii10053" unicode="&#x404;" horiz-adv-x="375" 
d="M34 117q0 31 9 87t28 152q18 89 31 145.5t25 91.5t24.5 54.5t29.5 34.5q40 38 105 38q32 0 55.5 -10.5t37.5 -28.5q11 -15 16.5 -36.5t5.5 -45.5q0 -11 -1 -22t-4 -26h-55q2 13 3.5 24t1.5 22q0 32 -14 52.5t-50 20.5q-38 0 -64 -24q-12 -12 -21.5 -26.5t-18.5 -42
t-19.5 -73.5t-25.5 -120h140l-10 -50h-141q-17 -87 -25 -137.5t-8 -79.5q0 -75 67 -75q19 0 35 7t27 18q18 17 29 40.5t17 54.5h57q-9 -45 -25 -79t-47 -59q-40 -32 -99 -32t-89 36q-14 17 -20.5 38.5t-6.5 50.5z" />
    <glyph glyph-name="afii10054" unicode="&#x405;" horiz-adv-x="372" 
d="M79 179q-5 -21 -6.5 -36.5t-1.5 -29.5q0 -29 13 -46q17 -23 58 -23q44 0 69 25q19 19 29.5 43t19.5 71q5 21 7 40t2 41q0 21 -11 38t-38 30l-62 30q-35 17 -51 40.5t-16 65.5q0 15 2 31t5 33q12 59 27 91.5t39 55.5q21 21 48 30t57 9q38 0 59.5 -10t35.5 -28
q11 -14 16.5 -31t5.5 -43q0 -29 -9 -72h-55q5 21 6.5 36.5t1.5 29.5t-2.5 25t-10.5 21q-8 11 -19.5 16.5t-31.5 5.5q-36 0 -63 -24q-20 -18 -30 -42.5t-19 -69.5q-2 -11 -4 -25.5t-2 -27.5q0 -32 12 -46t32 -24l60 -28q43 -21 59 -46t16 -61q0 -38 -11 -91q-6 -32 -12.5 -55
t-14.5 -40.5t-17.5 -31t-21.5 -24.5q-43 -38 -112 -38q-39 0 -61.5 9t-38.5 28q-11 14 -17 31.5t-6 44.5q0 16 2 32.5t6 39.5h56z" />
    <glyph glyph-name="afii10055" unicode="&#x406;" horiz-adv-x="184" 
d="M156 712h56l-142 -712h-56z" />
    <glyph glyph-name="afii10056" unicode="&#x407;" horiz-adv-x="184" 
d="M156 712h56l-142 -712h-56zM115 842h58l-12 -62h-58zM244 842h58l-13 -62h-58z" />
    <glyph glyph-name="afii10057" unicode="&#x408;" horiz-adv-x="314" 
d="M15 76q13 -17 27.5 -25.5t36.5 -8.5q80 0 104 120l110 550h56l-112 -558q-9 -45 -22.5 -73t-33.5 -48q-22 -22 -47.5 -31.5t-56.5 -9.5q-42 0 -66.5 15t-38.5 37z" />
    <glyph glyph-name="afii10058" unicode="&#x409;" horiz-adv-x="639" 
d="M396 662h-142l-65 -326q-23 -116 -48 -183t-52 -101t-54.5 -43t-55.5 -9h-16l10 50h8q19 0 38.5 6.5t39 36t39.5 89.5t41 167l72 363h251l-62 -312h72q65 0 94 -32q15 -16 21.5 -38t6.5 -51q0 -16 -1.5 -37t-6.5 -43q-12 -61 -29.5 -100t-40 -61t-50 -30t-60.5 -8h-142z
M407 50q21 0 39 5.5t33.5 21.5t28.5 45.5t22 76.5q5 20 6.5 39.5t1.5 35.5q0 38 -16.5 57t-57.5 19h-74l-60 -300h77z" />
    <glyph glyph-name="afii10059" unicode="&#x40a;" horiz-adv-x="612" 
d="M306 350h-166l-70 -350h-56l142 712h56l-62 -312h166l62 312h56l-62 -312h72q65 0 94 -32q15 -16 21.5 -38t6.5 -51q0 -16 -1.5 -37t-6.5 -43q-12 -61 -29.5 -100t-40 -61t-50 -30t-60.5 -8h-142zM379 50q21 0 39 5.5t33.5 21.5t28.5 45.5t22 76.5q5 20 6.5 39.5
t1.5 35.5q0 38 -16.5 57t-57.5 19h-74l-60 -300h77z" />
    <glyph glyph-name="afii10060" unicode="&#x40b;" horiz-adv-x="441" 
d="M201 662h-99l11 50h278l-10 -50h-124l-50 -248h60q69 0 100.5 -27t31.5 -85q0 -14 -2.5 -30.5t-5.5 -31.5l-48 -240h-56l47 239q4 19 5.5 31t1.5 26q0 34 -17.5 50.5t-62.5 16.5h-63l-73 -363h-56z" />
    <glyph glyph-name="afii10061" unicode="&#x40c;" horiz-adv-x="398" 
d="M148 372l253 340h64l-260 -342l132 -370h-60zM156 712h56l-142 -712h-56zM372 889h55l-94 -129h-51z" />
    <glyph glyph-name="uni040D" unicode="&#x40d;" horiz-adv-x="418" 
d="M156 712h56l-111 -553l296 553h49l-142 -712h-56l110 553l-294 -553h-50zM249 891h50l38 -128h-45z" />
    <glyph glyph-name="afii10062" unicode="&#x40e;" horiz-adv-x="338" 
d="M-16 50q19 0 34 3t27.5 11t23 23t21.5 39l48 103l-43 483h57l28 -403l185 403h61l-292 -606q-17 -34 -31 -55t-31.5 -32t-40.5 -15t-56 -4zM228 856q-1 -5 -1 -8v-4q0 -48 50 -48q25 0 44 14t29 46h42q-15 -54 -43.5 -77.5t-76.5 -23.5q-43 0 -65 23t-22 58v7q0 4 2 13
h41z" />
    <glyph glyph-name="afii10145" unicode="&#x40f;" horiz-adv-x="406" 
d="M156 712h56l-132 -662h166l132 662h56l-142 -712h-113l-29 -141h-52l29 141h-113z" />
    <glyph glyph-name="afii10017" unicode="&#x410;" horiz-adv-x="356" 
d="M249 0l1 196h-159l-79 -196h-58l291 712h54l5 -712h-55zM253 612l-142 -366h139z" />
    <glyph glyph-name="afii10018" unicode="&#x411;" horiz-adv-x="391" 
d="M156 712h255l-11 -50h-198l-52 -262h72q65 0 94 -32q15 -16 21.5 -38t6.5 -51q0 -16 -1.5 -37t-6.5 -43q-12 -61 -29.5 -100t-40 -61t-50 -30t-60.5 -8h-142zM157 50q21 0 39 5.5t33.5 21.5t28.5 45.5t22 76.5q5 20 6.5 39.5t1.5 35.5q0 38 -16.5 57t-57.5 19h-74
l-60 -300h77z" />
    <glyph glyph-name="afii10019" unicode="&#x412;" horiz-adv-x="391" 
d="M156 712h112q35 0 58 -8t39 -27q26 -32 26 -77q0 -15 -1.5 -31.5t-5.5 -36.5q-8 -42 -21 -76t-44 -61q-21 -18 -43 -25q10 -3 21.5 -11t18.5 -17q23 -30 23 -74q0 -17 -2 -34.5t-6 -37.5q-7 -34 -14 -58.5t-15.5 -43t-18.5 -31.5t-22 -24q-25 -23 -54.5 -31t-71.5 -8
h-121zM145 50q25 0 45 7t36 24t28 45t21 71q4 18 6 33.5t2 29.5q0 45 -21 64.5t-63 19.5h-60l-59 -294h65zM207 393q45 0 75.5 31.5t44.5 103.5q3 17 5 32t2 29q0 37 -17 55t-56 18h-59l-53 -269h58z" />
    <glyph glyph-name="afii10020" unicode="&#x413;" horiz-adv-x="317" 
d="M156 712h229l-10 -50h-173l-132 -662h-56z" />
    <glyph glyph-name="afii10021" unicode="&#x414;" horiz-adv-x="437" 
d="M12 50q42 74 74 162.5t53 195.5l60 304h254l-133 -662h50l-34 -169h-54l24 119h-289l-24 -119h-53l32 169h40zM264 50l123 612h-142l-54 -266q-39 -198 -119 -346h192z" />
    <glyph glyph-name="afii10022" unicode="&#x415;" horiz-adv-x="342" 
d="M156 712h234l-10 -50h-178l-55 -278h152l-10 -50h-153l-56 -284h178l-10 -50h-234z" />
    <glyph glyph-name="afii10024" unicode="&#x416;" horiz-adv-x="594" 
d="M235 380l-119 332h59l119 -341l-274 -371h-65zM354 370l248 342h67l-255 -345l118 -367h-58zM364 712h56l-142 -712h-56z" />
    <glyph glyph-name="afii10025" unicode="&#x417;" horiz-adv-x="370" 
d="M41 26q-14 15 -20 39t-6 50q0 11 1 22t3 25h57q-2 -12 -3.5 -23t-1.5 -22q0 -17 3 -30.5t11 -23.5q16 -21 52 -21q41 0 66 25q23 24 33 54.5t18 72.5q5 26 7 40.5t2 27.5q0 14 -3 27.5t-11 24.5t-20.5 18t-31.5 7h-62l10 49h56q36 0 60 25q8 9 14.5 18t12.5 22.5t11 31.5
t11 45q10 46 10 71q0 14 -2.5 25.5t-9.5 21.5q-16 22 -47 22q-17 0 -31.5 -5t-26.5 -17q-18 -19 -27.5 -43.5t-15.5 -53.5h-56q8 41 23 76t38 57q37 36 100 36q60 0 88 -37q12 -15 17.5 -35t5.5 -40q0 -14 -2.5 -33t-7.5 -44q-6 -29 -11.5 -49.5t-12 -36t-14 -27.5
t-17.5 -24q-17 -19 -44 -32q26 -14 39 -40t13 -57q0 -28 -9 -74q-12 -60 -26.5 -96.5t-45.5 -65.5q-20 -20 -46 -28.5t-59 -8.5q-61 0 -92 34z" />
    <glyph glyph-name="afii10026" unicode="&#x418;" horiz-adv-x="418" 
d="M156 712h56l-111 -553l296 553h49l-142 -712h-56l110 553l-294 -553h-50z" />
    <glyph glyph-name="afii10027" unicode="&#x419;" horiz-adv-x="418" 
d="M156 712h56l-111 -553l296 553h49l-142 -712h-56l110 553l-294 -553h-50zM268 856q-1 -5 -1 -8v-4q0 -48 50 -48q25 0 44 14t29 46h42q-15 -54 -43.5 -77.5t-76.5 -23.5q-43 0 -65 23t-22 58v7q0 4 2 13h41z" />
    <glyph glyph-name="afii10028" unicode="&#x41a;" horiz-adv-x="398" 
d="M148 372l253 340h64l-260 -342l132 -370h-60zM156 712h56l-142 -712h-56z" />
    <glyph glyph-name="afii10029" unicode="&#x41b;" horiz-adv-x="435" 
d="M-26 50h7q21 0 40.5 9.5t38.5 41t38 90.5t39 158l73 363h253l-142 -712h-57l132 662h-142l-65 -323q-23 -114 -46 -181t-48 -102.5t-53.5 -45.5t-62.5 -10h-16z" />
    <glyph glyph-name="afii10030" unicode="&#x41c;" horiz-adv-x="523" 
d="M156 712h56l58 -410l224 410h57l-142 -712h-56l111 562l-191 -356h-41l-49 361l-113 -567h-56z" />
    <glyph glyph-name="afii10031" unicode="&#x41d;" horiz-adv-x="406" 
d="M156 712h56l-65 -325h166l65 325h56l-142 -712h-56l67 337h-166l-67 -337h-56z" />
    <glyph glyph-name="afii10032" unicode="&#x41e;" horiz-adv-x="395" 
d="M71 356q18 90 31 146.5t25 91.5t24.5 54.5t30.5 35.5q40 36 101 36q35 0 58.5 -10.5t37.5 -30.5q12 -17 18 -35.5t6 -44.5q0 -17 -2.5 -39.5t-7 -51.5t-11.5 -66.5t-16 -85.5q-18 -90 -31 -146.5t-25 -91.5t-24.5 -54.5t-30.5 -35.5q-40 -36 -101 -36q-35 0 -58.5 10.5
t-37.5 30.5q-12 17 -18 35.5t-6 44.5q0 34 9 91t28 152zM310 356q19 95 28 151t9 86q0 16 -3 30t-11 24.5t-21.5 16.5t-33.5 6q-17 0 -32.5 -6t-28.5 -18q-12 -12 -21.5 -28t-19 -46.5t-21.5 -82t-28 -133.5q-20 -95 -28.5 -151t-8.5 -86q0 -16 3 -30t11 -24.5t21.5 -16.5
t33.5 -6q35 0 61 24q12 12 21.5 28t19 46.5t21 82t28.5 133.5z" />
    <glyph glyph-name="afii10033" unicode="&#x41f;" horiz-adv-x="406" 
d="M156 712h278l-142 -712h-56l132 662h-166l-132 -662h-56z" />
    <glyph glyph-name="afii10034" unicode="&#x420;" horiz-adv-x="385" 
d="M156 712h124q34 0 56 -7.5t37 -22.5q16 -17 23 -39.5t7 -51.5q0 -16 -2 -37t-6 -41q-12 -61 -29.5 -99.5t-40 -60.5t-50.5 -30t-60 -8h-82l-63 -315h-56zM215 365q21 0 39 5.5t34 22t29 45t22 75.5q4 19 5.5 38.5t1.5 34.5q0 38 -16 57t-58 19h-70l-59 -297h72z" />
    <glyph glyph-name="afii10035" unicode="&#x421;" horiz-adv-x="375" 
d="M34 117q0 31 9 87t28 152q18 89 31 145.5t25 91.5t24.5 54.5t29.5 34.5q40 38 105 38q32 0 55.5 -10.5t37.5 -28.5q11 -15 16.5 -36.5t5.5 -45.5q0 -11 -1 -22t-4 -26h-55q2 13 3.5 24t1.5 22q0 32 -14 52.5t-50 20.5q-38 0 -64 -24q-13 -12 -22.5 -28t-19.5 -46.5
t-21.5 -81.5t-27.5 -134q-20 -96 -29 -151.5t-9 -87.5q0 -75 67 -75q19 0 35 7t27 18q18 17 29 40.5t17 54.5h57q-9 -45 -25 -79t-47 -59q-40 -32 -99 -32t-89 36q-14 17 -20.5 38.5t-6.5 50.5z" />
    <glyph glyph-name="afii10036" unicode="&#x422;" horiz-adv-x="320" 
d="M214 662h-112l11 50h279l-10 -50h-112l-132 -662h-56z" />
    <glyph glyph-name="afii10037" unicode="&#x423;" horiz-adv-x="338" 
d="M-16 50q19 0 34 3t27.5 11t23 23t21.5 39l48 103l-43 483h57l28 -403l185 403h61l-292 -606q-17 -34 -31 -55t-31.5 -32t-40.5 -15t-56 -4z" />
    <glyph glyph-name="afii10038" unicode="&#x424;" horiz-adv-x="486" 
d="M183 81q-69 4 -101.5 42t-32.5 106q0 32 5 68.5t14 81.5q18 88 38 144.5t46.5 90t62.5 47.5t86 16l12 60h53l-12 -60q69 -4 101.5 -41.5t32.5 -106.5q0 -31 -5 -67.5t-14 -82.5q-17 -84 -36.5 -140.5t-46.5 -90.5t-63.5 -49t-87.5 -18l-17 -85h-53zM105 234
q0 -49 19 -74.5t69 -28.5l99 496q-36 -2 -61.5 -16t-44.5 -43.5t-34 -76t-28 -112.5q-9 -45 -14 -81t-5 -64zM245 131q36 2 61.5 16.5t44.5 44t33.5 75.5t28.5 112q9 46 14 82t5 63q0 50 -19.5 75.5t-69.5 27.5z" />
    <glyph glyph-name="afii10039" unicode="&#x425;" horiz-adv-x="348" 
d="M163 375l-46 337h60l30 -280l141 280h63l-184 -343l53 -369h-60l-36 309l-153 -309h-62z" />
    <glyph glyph-name="afii10040" unicode="&#x426;" horiz-adv-x="418" 
d="M156 712h56l-132 -662h166l133 662h56l-132 -662h48l-38 -187h-55l28 137h-272z" />
    <glyph glyph-name="afii10041" unicode="&#x427;" horiz-adv-x="400" 
d="M282 265q-25 -5 -43.5 -6.5t-42.5 -1.5q-52 0 -80.5 23.5t-28.5 77.5q0 10 2 25t5 29l60 300h56l-59 -295q-2 -11 -4 -25t-2 -25q0 -60 63 -60q22 0 42 2t42 6l79 397h56l-142 -712h-56z" />
    <glyph glyph-name="afii10042" unicode="&#x428;" horiz-adv-x="606" 
d="M156 712h56l-132 -662h154l133 662h56l-133 -662h156l132 662h56l-142 -712h-478z" />
    <glyph glyph-name="afii10043" unicode="&#x429;" horiz-adv-x="617" 
d="M155 712h56l-132 -662h154l133 662h56l-133 -662h156l132 662h56l-132 -662h48l-38 -187h-54l28 137h-472z" />
    <glyph glyph-name="afii10044" unicode="&#x42a;" horiz-adv-x="447" 
d="M203 662h-101l11 50h156l-62 -312h72q65 0 94 -32q15 -16 21.5 -38t6.5 -51q0 -16 -1.5 -37t-6.5 -43q-12 -61 -29.5 -100t-40 -61t-50 -30t-60.5 -8h-142zM214 50q21 0 39 5.5t33.5 21.5t28.5 45.5t22 76.5q5 20 6.5 39.5t1.5 35.5q0 38 -16.5 57t-57.5 19h-74l-60 -300
h77z" />
    <glyph glyph-name="afii10045" unicode="&#x42b;" horiz-adv-x="531" 
d="M156 712h56l-62 -312h72q65 0 94 -32q15 -16 21.5 -38t6.5 -51q0 -16 -1.5 -37t-6.5 -43q-12 -61 -29.5 -100t-40 -61t-50 -30t-60.5 -8h-142zM157 50q21 0 39 5.5t33.5 21.5t28.5 45.5t22 76.5q5 20 6.5 39.5t1.5 35.5q0 38 -16.5 57t-57.5 19h-74l-60 -300h77zM503 712
h56l-142 -712h-56z" />
    <glyph glyph-name="afii10046" unicode="&#x42c;" horiz-adv-x="389" 
d="M156 712h56l-62 -312h72q65 0 94 -32q15 -16 21.5 -38t6.5 -51q0 -16 -1.5 -37t-6.5 -43q-12 -61 -29.5 -100t-40 -61t-50 -30t-60.5 -8h-142zM157 50q21 0 39 5.5t33.5 21.5t28.5 45.5t22 76.5q5 20 6.5 39.5t1.5 35.5q0 38 -16.5 57t-57.5 19h-74l-60 -300h77z" />
    <glyph glyph-name="afii10047" unicode="&#x42d;" horiz-adv-x="375" 
d="M157 384h140q16 84 24 133t8 78q0 75 -67 75q-37 0 -61 -24q-19 -17 -29.5 -40t-17.5 -55h-55q9 44 24.5 78t45.5 59q40 32 99 32q32 0 53.5 -9.5t35.5 -26.5t20.5 -38.5t6.5 -50.5q0 -31 -8.5 -87t-27.5 -152q-18 -89 -31 -145.5t-25 -91.5t-24.5 -54.5t-28.5 -34.5
q-41 -38 -106 -38q-31 0 -55.5 10t-38.5 27q-25 31 -25 84q0 20 6 49h56q-6 -26 -6 -47q0 -34 16 -53q17 -20 51 -20q37 0 63 24q12 12 21.5 26.5t18.5 42.5t20 75t27 124h-140z" />
    <glyph glyph-name="afii10048" unicode="&#x42e;" horiz-adv-x="557" 
d="M156 712h56l-65 -325h88q16 80 28 130.5t23.5 82.5t24 50.5t29.5 33.5q40 36 101 36q35 0 58.5 -10.5t37.5 -30.5q12 -17 18 -35.5t6 -44.5q0 -17 -2.5 -39.5t-7 -51.5t-11.5 -66.5t-16 -85.5q-18 -90 -31 -146.5t-25 -91.5t-24.5 -54.5t-30.5 -35.5q-40 -36 -101 -36
q-35 0 -58.5 10.5t-37.5 30.5q-12 17 -18 35.5t-6 44.5q0 32 8 85t25 139h-88l-67 -337h-56zM468 356q19 95 28 151t9 86q0 16 -3 30t-11 24.5t-21.5 16.5t-33.5 6q-17 0 -32.5 -6t-28.5 -18q-12 -12 -21.5 -28t-19 -46.5t-21.5 -82t-28 -133.5q-20 -95 -28.5 -151t-8.5 -86
q0 -16 3 -30t11 -24.5t21.5 -16.5t33.5 -6q35 0 61 24q12 12 21.5 28t19 46.5t21 82t28.5 133.5z" />
    <glyph glyph-name="afii10049" unicode="&#x42f;" horiz-adv-x="405" 
d="M164 331q-31 15 -43.5 43t-12.5 67q0 27 9 74q13 62 29.5 100.5t39 60t50.5 29t63 7.5h134l-142 -712h-56l65 320h-86l-164 -320h-59zM173 515q-9 -41 -9 -70q0 -41 17 -58.5t57 -17.5h71l59 293h-72q-20 0 -38.5 -5.5t-34 -21t-28.5 -44.5t-22 -76z" />
    <glyph glyph-name="afii10065" unicode="&#x430;" horiz-adv-x="329" 
d="M23 27q-9 14 -12.5 31t-3.5 37q0 9 1 21t4 26q7 35 22.5 65.5t40.5 51.5q18 15 40 22t57 7h59l18 92q4 19 4 33q0 27 -13.5 42t-39.5 15q-28 0 -47 -18q-15 -13 -22.5 -30.5t-12.5 -43.5h-52q6 30 17 58t35 49q18 16 38.5 23.5t49.5 7.5q57 0 81 -32q9 -13 13.5 -27.5
t4.5 -39.5q0 -9 -1 -20t-3 -19l-76 -378h-50l8 43q-6 -8 -13.5 -16.5t-18.5 -16.5q-14 -11 -27.5 -14.5t-30.5 -3.5q-45 0 -70 35zM60 101q0 -29 12 -46t36 -17q19 0 34.5 8.5t27 22.5t19.5 30.5t11 33.5l23 115h-49q-23 0 -37 -4.5t-30 -18.5q-23 -20 -35 -55.5t-12 -68.5z
" />
    <glyph glyph-name="afii10066" unicode="&#x431;" horiz-adv-x="335" 
d="M47 254q20 102 34.5 168t26.5 107.5t23 65.5t26 43t33.5 32.5t43.5 23t58 14t75 5.5l-9 -46q-56 -2 -94.5 -13t-64.5 -44q-21 -28 -33.5 -61t-24.5 -80q20 25 41 35t48 10t43 -10.5t27 -28.5q8 -13 11.5 -27.5t3.5 -40.5q0 -46 -22 -153q-11 -55 -20 -93t-18.5 -63.5
t-19.5 -41.5t-22 -28q-17 -17 -39.5 -26.5t-51.5 -9.5q-30 0 -50.5 10.5t-31.5 29.5q-8 11 -11.5 27t-3.5 42q0 46 22 153zM99 254q-11 -54 -17 -91.5t-6 -60.5q0 -30 11 -45q5 -8 15 -13.5t24 -5.5q30 0 52 22q10 10 17.5 25t15 37.5t14.5 55t16 76.5q11 54 17 91.5t6 60.5
q0 30 -11 45q-5 8 -15 13.5t-24 5.5q-30 0 -52 -22q-10 -10 -17.5 -24.5t-15 -37.5t-14.5 -55t-16 -77z" />
    <glyph glyph-name="afii10067" unicode="&#x432;" horiz-adv-x="333" 
d="M109 508h104q35 0 54.5 -6.5t32.5 -23.5q17 -23 17 -60q0 -8 -0.5 -19t-2.5 -22q-6 -28 -16.5 -52.5t-32.5 -42.5q-7 -5 -15 -10t-16 -7q8 -3 16.5 -9t13.5 -12q10 -11 13.5 -25.5t3.5 -34.5q0 -9 -1 -20t-3 -22q-9 -47 -21 -72t-31 -43q-18 -15 -41 -21t-58 -6h-118z
M175 285q34 0 56 20.5t31 68.5q4 19 4 35q0 31 -14.5 42t-42.5 11h-57l-36 -177h59zM130 46q39 0 61 20t34 77q4 19 4 37q0 33 -15.5 48t-46.5 15h-60l-39 -197h62z" />
    <glyph glyph-name="afii10068" unicode="&#x433;" horiz-adv-x="269" 
d="M109 508h196l-9 -46h-144l-92 -462h-52z" />
    <glyph glyph-name="afii10069" unicode="&#x434;" horiz-adv-x="377" 
d="M-27 46h41q18 31 31.5 59t25 60.5t22 74t21.5 98.5l33 170h216l-92 -462h42l-34 -165h-49l24 119h-241l-24 -119h-49zM219 46l83 416h-112l-26 -129q-12 -56 -22 -97t-21.5 -73.5t-24 -60t-28.5 -56.5h151z" />
    <glyph glyph-name="afii10070" unicode="&#x435;" horiz-adv-x="326" 
d="M35 34q-15 25 -15 65q0 23 6 61.5t17 93.5q10 49 19 86t18 64t19.5 45.5t22.5 30.5q36 36 93 36q30 0 49 -10t30 -27q17 -26 17 -69q0 -29 -6 -68t-17 -95h-195q-10 -52 -16 -88t-6 -58q0 -29 14 -46q7 -8 16 -12.5t23 -4.5q13 0 26.5 5t24.5 14q14 13 22.5 31.5
t14.5 45.5h51q-8 -39 -19.5 -64t-32.5 -45q-36 -33 -92 -33q-59 0 -84 42zM244 290q16 77 16 118q0 28 -12 45t-39 17q-14 0 -27 -5t-24 -17q-10 -11 -17 -23.5t-13.5 -30.5t-12.5 -43t-13 -61h142z" />
    <glyph glyph-name="afii10072" unicode="&#x436;" horiz-adv-x="494" 
d="M168 272l-96 236h54l95 -243l-205 -265h-62zM278 262l192 246h61l-199 -248l100 -260h-55zM272 508h52l-101 -508h-52z" />
    <glyph glyph-name="afii10073" unicode="&#x437;" horiz-adv-x="311" 
d="M57 129q-3 -18 -3 -30q0 -26 11 -43.5t43 -17.5q33 0 56.5 21.5t34.5 72.5q3 15 5 27.5t2 20.5q0 26 -16 43q-9 9 -20 12.5t-31 3.5h-38l9 43h37q15 0 31 5t24 12q14 11 24 32t14 47q3 21 3 40q-2 24 -15.5 38t-36.5 14q-14 0 -26.5 -4.5t-20.5 -12.5q-14 -13 -23.5 -32
t-13.5 -42h-51q8 32 19 58.5t33 46.5q35 32 88 32q29 0 46 -7.5t31 -22.5q13 -14 17.5 -30t4.5 -33q0 -11 -1 -22t-4 -26q-4 -19 -8 -32t-9 -22.5t-10.5 -16.5t-12.5 -14q-18 -18 -41 -28q20 -10 30 -23q8 -11 13.5 -24.5t5.5 -30.5q0 -10 -1 -22.5t-4 -27.5
q-5 -26 -11.5 -44.5t-14 -32t-16.5 -23t-21 -18.5q-34 -24 -87 -24q-52 0 -78 28q-11 13 -17 32.5t-6 41.5q0 15 4 35h51z" />
    <glyph glyph-name="afii10074" unicode="&#x438;" horiz-adv-x="365" 
d="M109 508h52l-77 -384l227 384h47l-102 -508h-52l77 384l-226 -384h-47z" />
    <glyph glyph-name="afii10075" unicode="&#x439;" horiz-adv-x="365" 
d="M109 508h52l-77 -384l227 384h47l-102 -508h-52l77 384l-226 -384h-47zM202 678q-1 -5 -1 -8v-4q0 -48 49 -48q26 0 44.5 14t28.5 46h42q-14 -54 -42.5 -77.5t-77.5 -23.5q-43 0 -64.5 22.5t-21.5 58.5v7q0 4 1 13h42z" />
    <glyph glyph-name="afii10076" unicode="&#x43a;" horiz-adv-x="334" 
d="M115 263l191 245h58l-195 -247l103 -261h-55zM109 508h52l-101 -508h-52z" />
    <glyph glyph-name="afii10077" unicode="&#x43b;" horiz-adv-x="367" 
d="M-28 46h7q19 0 34.5 8t28 27t23.5 50.5t20 78.5l60 298h215l-101 -508h-52l92 462h-113l-53 -266q-11 -56 -24.5 -93.5t-32 -60.5t-43 -32.5t-55.5 -9.5h-14z" />
    <glyph glyph-name="afii10078" unicode="&#x43c;" horiz-adv-x="447" 
d="M109 508h50l55 -292l176 292h50l-101 -508h-52l77 386l-143 -234h-37l-45 240l-79 -392h-52z" />
    <glyph glyph-name="afii10079" unicode="&#x43d;" horiz-adv-x="350" 
d="M109 508h52l-45 -224h130l45 224h52l-101 -508h-52l47 238h-130l-47 -238h-52z" />
    <glyph glyph-name="afii10080" unicode="&#x43e;" 
d="M95 254q-11 -54 -17 -91.5t-6 -60.5q0 -30 11 -45q6 -8 15.5 -13.5t23.5 -5.5q30 0 52 22q10 10 17.5 24.5t15 37.5t14.5 55t16 77q11 54 17 91.5t6 60.5q0 30 -11 45q-6 8 -15.5 13.5t-23.5 5.5q-30 0 -52 -22q-10 -10 -17.5 -24.5t-15 -37.5t-14.5 -55t-16 -77z
M289 254q-11 -55 -20 -93t-18.5 -63.5t-19.5 -42t-22 -28.5q-17 -17 -39.5 -26t-51.5 -9q-30 0 -50.5 10.5t-31.5 29.5q-7 11 -10.5 27t-3.5 42q0 43 21 153q11 55 20 93t18.5 63.5t19.5 42t22 28.5q35 35 91 35q30 0 50.5 -10.5t31.5 -29.5q7 -11 10.5 -27t3.5 -42
q0 -44 -21 -153z" />
    <glyph glyph-name="afii10081" unicode="&#x43f;" horiz-adv-x="350" 
d="M109 508h234l-101 -508h-52l92 462h-130l-92 -462h-52z" />
    <glyph glyph-name="afii10082" unicode="&#x440;" horiz-adv-x="342" 
d="M301 254q-11 -53 -19.5 -90.5t-17.5 -64t-19 -44t-23 -29.5q-35 -34 -82 -34q-33 0 -53 18q-13 13 -19 28l-49 -242h-52l142 712h51l-7 -35q13 16 30 28q23 15 55 15q46 0 70 -35q8 -13 12 -28.5t4 -38.5q0 -26 -6 -65t-17 -95zM249 254q22 109 22 153q0 29 -9 43
q-13 20 -41 20q-27 0 -49 -19q-13 -11 -22.5 -29t-14.5 -44l-49 -248q-3 -18 -3 -32q0 -26 13 -44q15 -16 39 -16q25 0 50 22q20 18 33.5 64.5t30.5 129.5z" />
    <glyph glyph-name="afii10083" unicode="&#x441;" horiz-adv-x="317" 
d="M42 254q10 49 18.5 85.5t17.5 63t19.5 45t24.5 32.5q34 36 92 36q32 0 51.5 -9t30.5 -26q9 -14 13 -28t4 -34q0 -16 -5 -44h-51q5 23 5 39q0 12 -3.5 24t-8.5 17q-7 7 -16 11t-24 4q-30 0 -53 -23q-20 -20 -33.5 -65t-29.5 -128q-11 -56 -17.5 -93t-6.5 -60q0 -38 19 -52
q12 -11 36 -11q28 0 49 19q15 14 23 32.5t13 44.5h52q-9 -41 -21 -65t-29 -41q-37 -36 -93 -36q-45 0 -72 27t-27 80q0 48 22 155z" />
    <glyph glyph-name="afii10084" unicode="&#x442;" horiz-adv-x="269" 
d="M151 462h-94l9 46h240l-9 -46h-94l-92 -462h-52z" />
    <glyph glyph-name="afii10085" unicode="&#x443;" horiz-adv-x="287" 
d="M-73 -157q66 0 95 61l45 98l-12 506h53l2 -420l168 420h58l-258 -607q-14 -32 -30 -52.5t-35.5 -32t-43.5 -16t-52 -4.5z" />
    <glyph glyph-name="afii10086" unicode="&#x444;" horiz-adv-x="447" 
d="M47 40q-12 15 -17.5 33t-5.5 47q0 30 4.5 60t13.5 74q9 48 18 82.5t19 60t22.5 44t28.5 32.5q23 20 49.5 29.5t70.5 11.5l40 198h52l-40 -198q30 -1 55.5 -13t42.5 -32q10 -12 17 -33.5t7 -49.5q0 -26 -4.5 -57t-12.5 -75q-10 -50 -19.5 -85t-20 -60.5t-22.5 -43
t-28 -31.5q-23 -20 -50.5 -29t-68.5 -10l-40 -199h-52l40 199q-34 1 -59 13t-40 32zM207 41q21 0 40.5 7t33.5 18q13 12 23.5 27.5t19 37.5t16 52t15.5 71q8 43 13 74t5 54q0 38 -18 59q-8 11 -24 18t-39 8zM93 66q8 -11 24.5 -18t38.5 -7l85 426q-22 0 -41.5 -7.5
t-32.5 -18.5q-14 -11 -24 -26t-18 -37t-15.5 -52.5t-15.5 -71.5q-8 -44 -13 -75.5t-5 -54.5q0 -38 17 -58z" />
    <glyph glyph-name="afii10087" unicode="&#x445;" horiz-adv-x="300" 
d="M122 261l-49 247h53l35 -200l114 200h55l-151 -252l56 -256h-54l-40 207l-116 -207h-55z" />
    <glyph glyph-name="afii10088" unicode="&#x446;" horiz-adv-x="356" 
d="M109 508h52l-92 -462h129l92 462h52l-92 -462h42l-33 -165h-50l24 119h-225z" />
    <glyph glyph-name="afii10089" unicode="&#x447;" horiz-adv-x="316" 
d="M191 178q-35 -7 -66 -7q-42 0 -63 21.5t-21 56.5q0 17 5 40l43 219h52l-44 -219q-3 -17 -3 -28q0 -18 8.5 -31t34.5 -13q31 0 63 7l57 284h52l-102 -508h-52z" />
    <glyph glyph-name="afii10090" unicode="&#x448;" horiz-adv-x="496" 
d="M109 508h52l-92 -462h111l93 462h52l-93 -462h113l92 462h52l-101 -508h-380z" />
    <glyph glyph-name="afii10091" unicode="&#x449;" horiz-adv-x="503" 
d="M109 508h52l-92 -462h111l93 462h52l-93 -462h113l92 462h52l-92 -462h42l-34 -165h-50l24 119h-371z" />
    <glyph glyph-name="afii10092" unicode="&#x44a;" horiz-adv-x="358" 
d="M66 508h131l-42 -211h61q51 0 75 -27q23 -24 23 -73q0 -11 -1.5 -25t-3.5 -26q-16 -80 -50 -113t-95 -33h-120l92 462h-79zM165 46q38 0 59.5 24t32.5 76q5 25 5 42q0 30 -13 46.5t-43 16.5h-60l-41 -205h60z" />
    <glyph glyph-name="afii10093" unicode="&#x44b;" horiz-adv-x="457" 
d="M109 508h52l-42 -211h61q51 0 75 -27q23 -24 23 -73q0 -11 -1.5 -25t-3.5 -26q-16 -80 -50 -113t-95 -33h-120zM129 46q38 0 59.5 24t32.5 76q5 25 5 42q0 30 -13 46.5t-43 16.5h-60l-41 -205h60zM399 508h52l-102 -508h-52z" />
    <glyph glyph-name="afii10094" unicode="&#x44c;" horiz-adv-x="322" 
d="M109 508h52l-42 -211h61q51 0 75 -27q23 -24 23 -73q0 -11 -1.5 -25t-3.5 -26q-16 -80 -50 -113t-95 -33h-120zM129 46q38 0 59.5 24t32.5 76q5 25 5 42q0 30 -13 46.5t-43 16.5h-60l-41 -205h60z" />
    <glyph glyph-name="afii10095" unicode="&#x44d;" horiz-adv-x="317" 
d="M275 254q-10 -49 -19 -86t-18 -64t-19.5 -45.5t-22.5 -30.5q-17 -17 -40.5 -26.5t-53.5 -9.5q-29 0 -47 7.5t-30 21.5q-11 13 -17 30.5t-6 37.5q0 16 4 39h51q-3 -18 -3 -34q0 -12 3 -22.5t10 -17.5q14 -16 40 -16q28 0 53 23q19 18 31 59t28 118h-121l9 45h121
q8 43 13 73.5t5 51.5q0 36 -19 52q-13 10 -35 10q-13 0 -25.5 -4t-23.5 -14q-15 -14 -23 -31.5t-13 -40.5h-50q8 34 19 59t30 42q18 17 40 26t52 9q46 0 71 -26q28 -28 28 -80q0 -23 -5.5 -62t-16.5 -94z" />
    <glyph glyph-name="afii10096" unicode="&#x44e;" horiz-adv-x="473" 
d="M110 508h52l-45 -224h74q9 46 17.5 78t17 54.5t18 37.5t21.5 27q35 35 91 35q30 0 50.5 -10.5t31.5 -29.5q7 -11 10.5 -27t3.5 -42q0 -44 -21 -153q-11 -55 -20 -93t-18.5 -63.5t-19.5 -42t-22 -28.5q-17 -17 -39.5 -26t-51.5 -9q-30 0 -50.5 10.5t-31.5 29.5
q-7 11 -10.5 27t-3.5 42q0 41 18 137h-74l-48 -238h-52zM237 254q-11 -54 -17 -91.5t-6 -60.5q0 -30 11 -45q6 -8 15.5 -13.5t23.5 -5.5q30 0 52 22q10 10 17.5 24.5t15 37.5t14.5 55t16 77q11 54 17 91.5t6 60.5q0 30 -11 45q-6 8 -15.5 13.5t-23.5 5.5q-30 0 -52 -22
q-10 -10 -17.5 -24.5t-15 -37.5t-14.5 -55t-16 -77z" />
    <glyph glyph-name="afii10097" unicode="&#x44f;" horiz-adv-x="326" 
d="M98 233q-41 23 -41 82q0 11 1.5 24t3.5 25q16 81 49.5 112.5t93.5 31.5h114l-101 -508h-52l44 220h-64l-115 -220h-57zM258 462h-53q-39 0 -59.5 -23t-31.5 -76q-2 -9 -3.5 -20t-1.5 -19q0 -59 57 -59h52z" />
    <glyph glyph-name="uni0450" unicode="&#x450;" horiz-adv-x="326" 
d="M35 34q-15 25 -15 65q0 23 6 61.5t17 93.5q10 49 19 86t18 64t19.5 45.5t22.5 30.5q36 36 93 36q30 0 49 -10t30 -27q17 -26 17 -69q0 -29 -6 -68t-17 -95h-195q-10 -52 -16 -88t-6 -58q0 -29 14 -46q7 -8 16 -12.5t23 -4.5q13 0 26.5 5t24.5 14q14 13 22.5 31.5
t14.5 45.5h51q-8 -39 -19.5 -64t-32.5 -45q-36 -33 -92 -33q-59 0 -84 42zM244 290q16 77 16 118q0 28 -12 45t-39 17q-14 0 -27 -5t-24 -17q-10 -11 -17 -23.5t-13.5 -30.5t-12.5 -43t-13 -61h142zM170 712h50l38 -128h-45z" />
    <glyph glyph-name="afii10071" unicode="&#x451;" horiz-adv-x="326" 
d="M35 34q-15 25 -15 65q0 23 6 61.5t17 93.5q10 49 19 86t18 64t19.5 45.5t22.5 30.5q36 36 93 36q30 0 49 -10t30 -27q17 -26 17 -69q0 -29 -6 -68t-17 -95h-195q-10 -52 -16 -88t-6 -58q0 -29 14 -46q7 -8 16 -12.5t23 -4.5q13 0 26.5 5t24.5 14q14 13 22.5 31.5
t14.5 45.5h51q-8 -39 -19.5 -64t-32.5 -45q-36 -33 -92 -33q-59 0 -84 42zM244 290q16 77 16 118q0 28 -12 45t-39 17q-14 0 -27 -5t-24 -17q-10 -11 -17 -23.5t-13.5 -30.5t-12.5 -43t-13 -61h142zM153 664h58l-12 -62h-58zM282 664h58l-13 -62h-58z" />
    <glyph glyph-name="afii10099" unicode="&#x452;" horiz-adv-x="348" 
d="M79 627h54l17 85h52l-17 -85h136l-7 -39h-137l-23 -117q8 11 14.5 17t14.5 12q11 8 24 12t32 4q27 0 44 -10t27 -26q8 -13 11.5 -27t3.5 -31t-6 -48l-85 -430q-8 -36 -20 -59.5t-31 -39.5q-21 -17 -45.5 -22.5t-51.5 -5.5l10 46q32 0 54.5 18.5t31.5 62.5l85 430
q2 12 3.5 23t1.5 18q0 20 -12 37.5t-41 17.5q-26 0 -50 -21t-35 -75l-74 -374h-52l117 588h-53z" />
    <glyph glyph-name="afii10100" unicode="&#x453;" horiz-adv-x="269" 
d="M109 508h196l-9 -46h-144l-92 -462h-52zM272 711h55l-94 -129h-51z" />
    <glyph glyph-name="afii10101" unicode="&#x454;" horiz-adv-x="317" 
d="M42 254q10 49 19 85.5t18 63.5t19.5 45.5t23.5 31.5q34 36 92 36q32 0 51.5 -9t30.5 -26q9 -14 13 -28t4 -34q0 -16 -5 -44h-51q5 23 5 39q0 12 -3.5 23.5t-8.5 17.5q-13 15 -40 15q-30 0 -53 -23q-18 -17 -30.5 -55.5t-27.5 -108.5h121l-8 -45h-122q-9 -49 -14.5 -82.5
t-5.5 -54.5q0 -38 19 -52q14 -11 36 -11q28 0 49 19q15 14 23 32.5t13 44.5h52q-9 -41 -21 -66t-28 -40q-19 -17 -42 -26.5t-52 -9.5q-45 0 -72 27t-27 80q0 48 22 155z" />
    <glyph glyph-name="afii10102" unicode="&#x455;" horiz-adv-x="313" 
d="M24 29q-22 26 -22 69q0 20 4 40h52q-2 -11 -2.5 -19t-0.5 -16q0 -28 13 -44q7 -9 19.5 -15t28.5 -6q35 0 58 22q35 34 35 92q0 21 -9.5 40t-35.5 38l-46 33q-29 20 -44.5 43.5t-15.5 55.5q0 35 13.5 68t39.5 56q36 30 89 30q58 0 85 -36q20 -27 20 -64q0 -11 -1.5 -21.5
t-3.5 -21.5h-50q2 11 3 20t1 17q0 25 -12 40q-8 11 -19.5 15.5t-26.5 4.5q-30 0 -52 -19q-34 -31 -34 -82q0 -39 39 -66l48 -33q35 -24 49.5 -49.5t14.5 -62.5q0 -42 -14.5 -76.5t-39.5 -56.5q-39 -33 -96 -33q-30 0 -51 9.5t-36 27.5z" />
    <glyph glyph-name="afii10103" unicode="&#x456;" horiz-adv-x="168" 
d="M110 508h52l-102 -508h-52zM138 689h65l-12 -66h-65z" />
    <glyph glyph-name="afii10104" unicode="&#x457;" horiz-adv-x="168" 
d="M110 508h52l-102 -508h-52zM75 664h58l-12 -62h-58zM204 664h58l-13 -62h-58z" />
    <glyph glyph-name="afii10105" unicode="&#x458;" horiz-adv-x="168" 
d="M110 508h52l-115 -577q-8 -39 -21 -64t-33 -41q-22 -17 -45.5 -23.5t-58.5 -6.5l10 47q40 0 63 22.5t33 70.5zM138 689h65l-12 -66h-65z" />
    <glyph glyph-name="afii10106" unicode="&#x459;" horiz-adv-x="521" 
d="M298 462h-110l-54 -266q-12 -60 -27.5 -98t-35 -59.5t-42.5 -30t-50 -8.5h-16l9 46h9q11 0 24.5 4t27.5 20.5t28 49.5t25 90l59 298h214l-42 -211h61q51 0 75 -27q23 -24 23 -73q0 -11 -1.5 -25t-3.5 -26q-16 -80 -50 -113t-95 -33h-120zM327 46q38 0 59.5 24t32.5 76
q5 25 5 42q0 30 -13 46.5t-43 16.5h-60l-41 -205h60z" />
    <glyph glyph-name="afii10107" unicode="&#x45a;" horiz-adv-x="504" 
d="M239 251h-129l-50 -251h-52l101 508h52l-42 -211h129l42 211h52l-42 -211h61q51 0 75 -27q23 -24 23 -73q0 -11 -1.5 -25t-3.5 -26q-16 -80 -50 -113t-95 -33h-120zM310 46q38 0 59.5 24t32.5 76q5 25 5 42q0 30 -13 46.5t-43 16.5h-60l-41 -205h60z" />
    <glyph glyph-name="afii10108" unicode="&#x45b;" horiz-adv-x="348" 
d="M79 627h54l17 85h52l-17 -85h136l-7 -39h-137l-24 -117q8 11 15 17t15 12q11 8 24 12t32 4q27 0 44 -10t27 -26q8 -13 11.5 -27t3.5 -31t-6 -48l-74 -374h-52l74 374q2 12 3.5 23t1.5 18q0 20 -12 37.5t-41 17.5q-26 0 -50 -21t-35 -75l-74 -374h-52l117 588h-53z" />
    <glyph glyph-name="afii10109" unicode="&#x45c;" horiz-adv-x="334" 
d="M115 263l191 245h58l-195 -247l103 -261h-55zM109 508h52l-101 -508h-52zM299 711h55l-94 -129h-51z" />
    <glyph glyph-name="uni045D" unicode="&#x45d;" horiz-adv-x="365" 
d="M109 508h52l-77 -384l227 384h47l-102 -508h-52l77 384l-226 -384h-47zM183 712h50l38 -128h-45z" />
    <glyph glyph-name="afii10110" unicode="&#x45e;" horiz-adv-x="287" 
d="M-73 -157q66 0 95 61l45 98l-12 506h53l2 -420l168 420h58l-258 -607q-14 -32 -30 -52.5t-35.5 -32t-43.5 -16t-52 -4.5zM170 678q-1 -5 -1 -8v-4q0 -48 49 -48q26 0 44.5 14t28.5 46h42q-14 -54 -42.5 -77.5t-77.5 -23.5q-43 0 -64.5 22.5t-21.5 58.5v7q0 4 1 13h42z
" />
    <glyph glyph-name="afii10193" unicode="&#x45f;" horiz-adv-x="349" 
d="M109 508h52l-92 -462h129l92 462h52l-101 -508h-92l-25 -123h-50l26 123h-92z" />
    <glyph glyph-name="afii10146" unicode="&#x462;" horiz-adv-x="416" 
d="M112 606h48l22 106h56l-21 -106h87l-9 -46h-87l-32 -160h72q65 0 94 -32q15 -16 21.5 -38t6.5 -51q0 -16 -1.5 -37t-6.5 -43q-12 -61 -29.5 -100t-40 -61t-50 -30t-60.5 -8h-142l111 560h-48zM183 50q21 0 39 5.5t33.5 21.5t28.5 45.5t22 76.5q5 20 6.5 39.5t1.5 35.5
q0 38 -16.5 57t-57.5 19h-74l-60 -300h77z" />
    <glyph glyph-name="afii10194" unicode="&#x463;" horiz-adv-x="338" 
d="M103 398h-53l8 39h53l14 71h52l-14 -71h84l-7 -39h-85l-20 -101h61q51 0 75 -27q23 -24 23 -73q0 -11 -1.5 -25t-3.5 -26q-16 -80 -50 -113t-95 -33h-120zM145 46q38 0 59.5 24t32.5 76q5 25 5 42q0 30 -13 46.5t-43 16.5h-60l-41 -205h60z" />
    <glyph glyph-name="afii10147" unicode="&#x472;" horiz-adv-x="395" 
d="M71 356q18 90 31 146.5t25 91.5t24.5 54.5t30.5 35.5q40 36 101 36q35 0 58.5 -10.5t37.5 -30.5q12 -17 18 -35.5t6 -44.5q0 -17 -2.5 -39.5t-7 -51.5t-11.5 -66.5t-16 -85.5q-18 -90 -31 -146.5t-25 -91.5t-24.5 -54.5t-30.5 -35.5q-40 -36 -101 -36q-35 0 -58.5 10.5
t-37.5 30.5q-12 17 -18 35.5t-6 44.5q0 34 9 91t28 152zM220 66q12 11 21 26.5t18 44t20 75.5t26 122h-183q-17 -85 -24.5 -136t-7.5 -79q0 -16 3 -30t11 -24.5t21.5 -16.5t33.5 -6q35 0 61 24zM217 646q-12 -11 -21 -26t-18 -43.5t-20 -74t-26 -118.5h184q17 82 24 131.5
t7 77.5q0 16 -3 30t-11 24.5t-21.5 16.5t-33.5 6q-17 0 -32.5 -6t-28.5 -18z" />
    <glyph glyph-name="afii10195" unicode="&#x473;" 
d="M289 254q-11 -55 -20 -93t-18.5 -63.5t-19.5 -42t-22 -28.5q-17 -17 -39.5 -26t-51.5 -9q-30 0 -50.5 10.5t-31.5 29.5q-7 11 -10.5 27t-3.5 42q0 43 21 153q11 55 20 93t18.5 63.5t19.5 42t22 28.5q35 35 91 35q30 0 50.5 -10.5t31.5 -29.5q7 -11 10.5 -27t3.5 -42
q0 -44 -21 -153zM174 60q9 9 17 23.5t15 36.5t14.5 53t15.5 74h-143q-10 -51 -15.5 -87t-5.5 -58q0 -30 11 -45q6 -8 15.5 -13.5t23.5 -5.5q30 0 52 22zM158 448q-17 -17 -29.5 -52.5t-26.5 -105.5h142q8 39 12 68t4 48q0 30 -11 45q-6 8 -15.5 13.5t-23.5 5.5
q-30 0 -52 -22z" />
    <glyph glyph-name="afii10148" unicode="&#x474;" horiz-adv-x="415" 
d="M96 712h59l-11 -608l193 503q21 55 55.5 80t96.5 25h7l-10 -50q-38 0 -60.5 -16.5t-38.5 -57.5l-234 -588h-57v712z" />
    <glyph glyph-name="afii10196" unicode="&#x475;" horiz-adv-x="352" 
d="M378 462q-36 0 -57.5 -15.5t-35.5 -50.5l-166 -396h-53l-11 508h54l-1 -421l132 325q20 50 52 73t91 23h6l-9 -46h-2z" />
    <glyph glyph-name="afii10050" unicode="&#x490;" horiz-adv-x="317" 
d="M156 712h175l17 85h54l-27 -135h-173l-132 -662h-56z" />
    <glyph glyph-name="afii10098" unicode="&#x491;" horiz-adv-x="269" 
d="M109 508h147l22 112h50l-32 -158h-144l-92 -462h-52z" />
    <glyph glyph-name="uni0492" unicode="&#x492;" horiz-adv-x="346" 
d="M68 382h50l65 330h229l-10 -50h-173l-56 -280h87l-8 -46h-88l-67 -336h-56l67 336h-48z" />
    <glyph glyph-name="uni0493" unicode="&#x493;" horiz-adv-x="285" 
d="M72 241h-54l8 39h54l46 228h196l-9 -46h-144l-37 -182h84l-8 -39h-84l-47 -241h-52z" />
    <glyph glyph-name="uni0496" unicode="&#x496;" horiz-adv-x="594" 
d="M354 370l248 342h67l-255 -345l102 -318h26l-38 -186h-53l27 137h-4zM235 380l-119 332h59l119 -341l-274 -371h-65zM364 712h56l-142 -712h-56z" />
    <glyph glyph-name="uni0497" unicode="&#x497;" horiz-adv-x="494" 
d="M278 262l192 246h61l-199 -248l83 -214h28l-34 -165h-49l24 119h-7zM168 272l-96 236h54l95 -243l-205 -265h-62zM272 508h52l-101 -508h-52z" />
    <glyph glyph-name="uni049A" unicode="&#x49a;" horiz-adv-x="398" 
d="M148 372l253 340h64l-260 -342l114 -321h28l-38 -186h-53l27 137h-6zM156 712h56l-142 -712h-56z" />
    <glyph glyph-name="uni049B" unicode="&#x49b;" horiz-adv-x="334" 
d="M115 263l191 245h58l-195 -247l85 -215h28l-34 -165h-49l24 119h-6zM109 508h52l-101 -508h-52z" />
    <glyph glyph-name="uni049C" unicode="&#x49c;" horiz-adv-x="450" 
d="M156 712h56l-62 -314h32l21 108h45l-21 -108h22l201 314h66l-223 -338l97 -374h-61l-84 348h-28l-22 -109h-45l22 109h-33l-69 -348h-56z" />
    <glyph glyph-name="uni049D" unicode="&#x49d;" horiz-adv-x="382" 
d="M109 508h52l-44 -221h28l22 109h39l-23 -109h21l147 221h61l-164 -241l73 -267h-55l-65 241h-27l-22 -110h-38l21 110h-28l-47 -241h-52z" />
    <glyph glyph-name="uni04A2" unicode="&#x4a2;" horiz-adv-x="406" 
d="M156 712h56l-65 -325h166l65 325h56l-132 -663h26l-38 -186h-53l27 137h-28l67 337h-166l-67 -337h-56z" />
    <glyph glyph-name="uni04A3" unicode="&#x4a3;" horiz-adv-x="350" 
d="M109 508h52l-45 -224h130l45 224h52l-92 -462h24l-34 -165h-49l24 119h-26l47 238h-130l-47 -238h-52z" />
    <glyph glyph-name="uni04AE" unicode="&#x4ae;" horiz-adv-x="297" 
d="M130 303l-34 409h58l20 -330l148 330h62l-200 -420l-58 -292h-56z" />
    <glyph glyph-name="uni04AF" unicode="&#x4af;" horiz-adv-x="288" 
d="M66 -1l-11 509h55l-1 -416l165 416h58l-214 -508l-41 -204h-52z" />
    <glyph glyph-name="uni04B0" unicode="&#x4b0;" horiz-adv-x="297" 
d="M62 301h68l-34 411h58l20 -330l148 330h62l-196 -411h65l-8 -41h-68l-51 -260h-56l51 260h-67z" />
    <glyph glyph-name="uni04B1" unicode="&#x4b1;" horiz-adv-x="288" 
d="M-3 0h69l-11 508h55l-1 -416l165 416h58l-214 -508h69l-8 -40h-69l-33 -164h-52l33 164h-69z" />
    <glyph glyph-name="uni04B2" unicode="&#x4b2;" horiz-adv-x="348" 
d="M226 0h-6l-36 309l-153 -309h-62l194 375l-46 337h60l30 -280l141 280h63l-184 -343l46 -320h17l-38 -186h-53z" />
    <glyph glyph-name="uni04B3" unicode="&#x4b3;" horiz-adv-x="300" 
d="M186 0h-5l-40 207l-116 -207h-55l152 261l-49 247h53l35 -200l114 200h55l-151 -252l46 -210h20l-34 -165h-49z" />
    <glyph glyph-name="uni04B6" unicode="&#x4b6;" horiz-adv-x="400" 
d="M282 265q-25 -5 -43.5 -6.5t-42.5 -1.5q-52 0 -80.5 23.5t-28.5 77.5q0 10 2 25t5 29l60 300h56l-59 -295q-2 -11 -4 -25t-2 -25q0 -60 63 -60q22 0 42 2t42 6l79 397h56l-132 -663h26l-38 -186h-53l27 137h-28z" />
    <glyph glyph-name="uni04B7" unicode="&#x4b7;" horiz-adv-x="316" 
d="M191 178q-35 -7 -66 -7q-42 0 -63 21.5t-21 56.5q0 17 5 40l43 219h52l-44 -219q-3 -17 -3 -28q0 -18 8.5 -31t34.5 -13q31 0 63 7l57 284h52l-93 -462h24l-34 -165h-49l24 119h-26z" />
    <glyph glyph-name="uni04B8" unicode="&#x4b8;" horiz-adv-x="409" 
d="M239 0l53 265q-19 -4 -34 -5.5t-31 -2.5l-20 -103h-44l20 103q-46 4 -70.5 27.5t-24.5 73.5q0 11 2.5 25.5t4.5 25.5l60 303h56l-60 -297q-2 -8 -3.5 -22t-1.5 -24q0 -26 11 -41t37 -19l20 103h44l-21 -105q16 1 32 3t33 5l79 397h56l-142 -712h-56z" />
    <glyph glyph-name="uni04B9" unicode="&#x4b9;" horiz-adv-x="324" 
d="M199 178l-24 -4q-12 -2 -21 -3l-22 -108h-38l22 108q-38 4 -56.5 24.5t-18.5 54.5q0 8 1 18t3 18l44 222h52l-44 -219q-3 -17 -3 -29q0 -37 31 -41l22 107h38l-22 -108l22 2q11 1 23 4l57 284h52l-102 -508h-52z" />
    <glyph glyph-name="uni04BA" unicode="&#x4ba;" horiz-adv-x="400" 
d="M154 712h56l-53 -266q26 5 46.5 7t41.5 2q47 0 77 -23t30 -77q0 -11 -2 -25.5t-5 -31.5l-60 -298h-56l60 299q3 14 4 23t1 23q0 37 -18 48.5t-45 11.5q-21 0 -41 -2t-43 -6l-79 -397h-56z" />
    <glyph glyph-name="uni04BB" unicode="&#x4bb;" horiz-adv-x="316" 
d="M109 508h52l-36 -178q19 4 32 5.5t33 1.5q37 0 61.5 -18.5t24.5 -60.5q0 -12 -5 -40l-44 -218h-52l44 219q3 16 3 29q0 27 -12.5 35t-30.5 8q-15 0 -30 -1.5t-33 -4.5l-56 -285h-52z" />
    <glyph glyph-name="uni04C0" unicode="&#x4c0;" horiz-adv-x="184" 
d="M156 712h56l-142 -712h-56z" />
    <glyph glyph-name="uni04CF" unicode="&#x4cf;" horiz-adv-x="168" 
d="M150 712h52l-142 -712h-52z" />
    <glyph glyph-name="uni04D8" unicode="&#x4d8;" horiz-adv-x="392" 
d="M311 379q17 86 24.5 136t7.5 78q0 32 -15 54.5t-55 22.5q-39 0 -63 -24q-19 -17 -29 -40t-17 -55h-56q10 44 25.5 78t45.5 59q40 32 98 32q35 0 58 -10.5t39 -30.5q13 -16 19 -35t6 -45q0 -17 -2.5 -39.5t-7 -51.5t-11.5 -66.5t-16 -85.5q-18 -91 -31 -147.5t-25 -91
t-24.5 -54t-30.5 -35.5q-40 -36 -101 -36q-35 0 -58.5 10.5t-37.5 30.5q-12 17 -18 35.5t-6 44.5q0 17 2.5 39.5t7.5 54t12.5 74t18.5 98.5h240zM118 331q-17 -87 -24.5 -136t-7.5 -76q0 -32 14 -54.5t54 -22.5q36 0 62 24q12 11 21 26t18 43.5t20 75t26 120.5h-183z" />
    <glyph glyph-name="afii10846" unicode="&#x4d9;" horiz-adv-x="326" 
d="M233 261q11 51 16.5 87t5.5 59q0 29 -14 47q-13 16 -39 16q-31 0 -53 -21q-25 -24 -36 -74h-50q8 37 20 63.5t36 47.5q18 17 41 23.5t47 6.5q56 0 83 -39q16 -25 16 -67q0 -26 -5.5 -64.5t-16.5 -91.5q-20 -99 -39 -152.5t-44 -76.5q-34 -33 -90 -33q-29 0 -48.5 10.5
t-30.5 27.5q-16 25 -16 68q0 29 6 68t17 95h194zM83 218q-8 -40 -12.5 -68.5t-4.5 -48.5q0 -29 12.5 -46t39.5 -17q29 0 51 22q9 9 16 21t13.5 30.5t12.5 44.5t14 62h-142z" />
    <glyph glyph-name="uni04E2" unicode="&#x4e2;" horiz-adv-x="418" 
d="M156 712h56l-111 -553l296 553h49l-142 -712h-56l110 553l-294 -553h-50zM225 832h198l-9 -42h-198z" />
    <glyph glyph-name="uni04E3" unicode="&#x4e3;" horiz-adv-x="365" 
d="M109 508h52l-77 -384l227 384h47l-102 -508h-52l77 384l-226 -384h-47zM162 654h198l-9 -42h-198z" />
    <glyph glyph-name="uni04E8" unicode="&#x4e8;" horiz-adv-x="395" 
d="M71 356q18 90 31 146.5t25 91.5t24.5 54.5t30.5 35.5q40 36 101 36q35 0 58.5 -10.5t37.5 -30.5q12 -17 18 -35.5t6 -44.5q0 -17 -2.5 -39.5t-7 -51.5t-11.5 -66.5t-16 -85.5q-18 -90 -31 -146.5t-25 -91.5t-24.5 -54.5t-30.5 -35.5q-40 -36 -101 -36q-35 0 -58.5 10.5
t-37.5 30.5q-12 17 -18 35.5t-6 44.5q0 34 9 91t28 152zM220 66q12 11 21 26.5t18 44t20 75.5t26 122h-183q-17 -85 -24.5 -136t-7.5 -79q0 -16 3 -30t11 -24.5t21.5 -16.5t33.5 -6q35 0 61 24zM217 646q-12 -11 -21 -26t-18 -43.5t-20 -74t-26 -118.5h184q17 82 24 131.5
t7 77.5q0 16 -3 30t-11 24.5t-21.5 16.5t-33.5 6q-17 0 -32.5 -6t-28.5 -18z" />
    <glyph glyph-name="uni04E9" unicode="&#x4e9;" 
d="M289 254q-11 -55 -20 -93t-18.5 -63.5t-19.5 -42t-22 -28.5q-17 -17 -39.5 -26t-51.5 -9q-30 0 -50.5 10.5t-31.5 29.5q-7 11 -10.5 27t-3.5 42q0 43 21 153q11 55 20 93t18.5 63.5t19.5 42t22 28.5q35 35 91 35q30 0 50.5 -10.5t31.5 -29.5q7 -11 10.5 -27t3.5 -42
q0 -44 -21 -153zM174 60q9 9 17 23.5t15 36.5t14.5 53t15.5 74h-143q-10 -51 -15.5 -87t-5.5 -58q0 -30 11 -45q6 -8 15.5 -13.5t23.5 -5.5q30 0 52 22zM158 448q-17 -17 -29.5 -52.5t-26.5 -105.5h142q8 39 12 68t4 48q0 30 -11 45q-6 8 -15.5 13.5t-23.5 5.5
q-30 0 -52 -22z" />
    <glyph glyph-name="uni04EE" unicode="&#x4ee;" horiz-adv-x="338" 
d="M-16 50q19 0 34 3t27.5 11t23 23t21.5 39l48 103l-43 483h57l28 -403l185 403h61l-292 -606q-17 -34 -31 -55t-31.5 -32t-40.5 -15t-56 -4zM186 832h198l-9 -42h-198z" />
    <glyph glyph-name="uni04EF" unicode="&#x4ef;" horiz-adv-x="287" 
d="M-73 -157q66 0 95 61l45 98l-12 506h53l2 -420l168 420h58l-258 -607q-14 -32 -30 -52.5t-35.5 -32t-43.5 -16t-52 -4.5zM126 654h198l-9 -42h-198z" />
    <glyph glyph-name="Wgrave" unicode="&#x1e80;" horiz-adv-x="569" 
d="M104 712h58l-45 -606l230 606h59l-7 -606l192 606h58l-240 -712h-60l7 606l-233 -606h-59zM321 891h50l38 -128h-45z" />
    <glyph glyph-name="wgrave" unicode="&#x1e81;" horiz-adv-x="465" 
d="M63 508h53l-19 -417l162 417h48l-7 -418l149 418h54l-193 -508h-52l7 417l-161 -417h-53zM227 712h50l38 -128h-45z" />
    <glyph glyph-name="Wacute" unicode="&#x1e82;" horiz-adv-x="569" 
d="M104 712h58l-45 -606l230 606h59l-7 -606l192 606h58l-240 -712h-60l7 606l-233 -606h-59zM445 889h55l-94 -129h-51z" />
    <glyph glyph-name="wacute" unicode="&#x1e83;" horiz-adv-x="465" 
d="M63 508h53l-19 -417l162 417h48l-7 -418l149 418h54l-193 -508h-52l7 417l-161 -417h-53zM350 711h55l-94 -129h-51z" />
    <glyph glyph-name="Wdieresis" unicode="&#x1e84;" horiz-adv-x="569" 
d="M104 712h58l-45 -606l230 606h59l-7 -606l192 606h58l-240 -712h-60l7 606l-233 -606h-59zM304 842h58l-12 -62h-58zM433 842h58l-13 -62h-58z" />
    <glyph glyph-name="wdieresis" unicode="&#x1e85;" horiz-adv-x="465" 
d="M63 508h53l-19 -417l162 417h48l-7 -418l149 418h54l-193 -508h-52l7 417l-161 -417h-53zM210 664h58l-12 -62h-58zM339 664h58l-13 -62h-58z" />
    <glyph glyph-name="uni1E8A" unicode="&#x1e8a;" horiz-adv-x="348" 
d="M163 375l-46 337h60l30 -280l141 280h63l-184 -343l53 -369h-60l-36 309l-153 -309h-62zM262 846h58l-13 -62h-58z" />
    <glyph glyph-name="uni1E8B" unicode="&#x1e8b;" horiz-adv-x="300" 
d="M122 261l-49 247h53l35 -200l114 200h55l-151 -252l56 -256h-54l-40 207l-116 -207h-55zM203 668h58l-13 -62h-58z" />
    <glyph glyph-name="Ygrave" unicode="&#x1ef2;" horiz-adv-x="297" 
d="M130 303l-34 409h58l20 -330l148 330h62l-200 -420l-58 -292h-56zM189 891h50l38 -128h-45z" />
    <glyph glyph-name="ygrave" unicode="&#x1ef3;" horiz-adv-x="287" 
d="M-73 -157q66 0 95 61l45 98l-12 506h53l2 -420l168 420h58l-258 -607q-14 -32 -30 -52.5t-35.5 -32t-43.5 -16t-52 -4.5zM151 712h50l38 -128h-45z" />
    <glyph glyph-name="uni2007" unicode="&#x2007;" horiz-adv-x="336" 
 />
    <glyph glyph-name="uni2008" unicode="&#x2008;" horiz-adv-x="186" 
 />
    <glyph glyph-name="uni200B" unicode="&#x200b;" horiz-adv-x="0" 
 />
    <glyph glyph-name="endash" unicode="&#x2013;" horiz-adv-x="406" 
d="M56 302h314l-10 -50h-314z" />
    <glyph glyph-name="emdash" unicode="&#x2014;" horiz-adv-x="618" 
d="M56 302h527l-10 -50h-527z" />
    <glyph glyph-name="afii00208" unicode="&#x2015;" horiz-adv-x="618" 
d="M56 302h527l-10 -50h-527z" />
    <glyph glyph-name="quoteleft" unicode="&#x2018;" horiz-adv-x="173" 
d="M147 712l74 51l-29 -143h-64z" />
    <glyph glyph-name="quoteright" unicode="&#x2019;" horiz-adv-x="173" 
d="M147 712h64l-19 -92l-74 -50z" />
    <glyph glyph-name="quotesinglbase" unicode="&#x201a;" horiz-adv-x="173" 
d="M24 92h64l-19 -92l-74 -50z" />
    <glyph glyph-name="quotedblleft" unicode="&#x201c;" horiz-adv-x="309" 
d="M147 712l74 51l-29 -143h-64zM282 712l74 51l-29 -143h-64z" />
    <glyph glyph-name="quotedblright" unicode="&#x201d;" horiz-adv-x="309" 
d="M147 712h64l-19 -92l-74 -50zM282 712h64l-19 -92l-74 -50z" />
    <glyph glyph-name="quotedblbase" unicode="&#x201e;" horiz-adv-x="309" 
d="M20 76h64l-19 -92l-74 -50zM155 76h64l-19 -92l-74 -50z" />
    <glyph glyph-name="dagger" unicode="&#x2020;" horiz-adv-x="409" 
d="M222 463h-134l9 45h134l40 204h51l-41 -204h134l-9 -45h-134l-92 -463h-51z" />
    <glyph glyph-name="daggerdbl" unicode="&#x2021;" horiz-adv-x="409" 
d="M4 45h134l84 418h-134l9 45h134l40 204h51l-41 -204h134l-9 -45h-134l-83 -418h133l-9 -45h-133l-42 -204h-50l41 204h-133z" />
    <glyph glyph-name="bullet" unicode="&#x2022;" horiz-adv-x="434" 
d="M77 334q0 32 12 60.5t33 49.5t49.5 33.5t61.5 12.5q32 0 60.5 -12.5t49.5 -33.5t33.5 -49.5t12.5 -60.5t-12.5 -60.5t-33.5 -49.5t-49.5 -33.5t-60.5 -12.5q-33 0 -61.5 12.5t-49.5 33.5t-33 49.5t-12 60.5z" />
    <glyph glyph-name="ellipsis" unicode="&#x2026;" horiz-adv-x="511" 
d="M22 72h70l-14 -72h-70zM348 72h70l-14 -72h-70zM185 72h70l-14 -72h-70z" />
    <glyph glyph-name="perthousand" unicode="&#x2030;" horiz-adv-x="839" 
d="M616 92q-3 -15 -3 -25q0 -17 9.5 -27t30.5 -10q44 0 56 57l36 179q3 15 3 24q0 17 -10 27.5t-31 10.5q-43 0 -55 -57zM606 267q11 51 36 75t70 24q42 0 61.5 -21.5t19.5 -51.5q0 -5 -1 -12t-3 -15l-35 -175q-10 -51 -35 -75t-71 -24q-42 0 -61 21.5t-19 51.5q0 5 0.5 12
t2.5 15zM135 446q-3 -15 -3 -24q0 -17 9.5 -27.5t31.5 -10.5q43 0 55 57l36 179q3 15 3 25q0 17 -9.5 27t-31.5 10q-43 0 -55 -57zM125 621q11 51 36 75t70 24q42 0 61.5 -21.5t19.5 -51.5q0 -5 -0.5 -12t-2.5 -15l-35 -175q-11 -51 -35.5 -75t-71.5 -24q-42 0 -61 21.5
t-19 51.5q0 5 0.5 12t2.5 15zM362 92q-3 -15 -3 -25q0 -17 9.5 -27t30.5 -10q44 0 56 57l36 179q3 15 3 24q0 17 -10 27.5t-31 10.5q-43 0 -55 -57zM352 267q11 51 36 75t70 24q42 0 61.5 -21.5t19.5 -51.5q0 -5 -1 -12t-3 -15l-35 -175q-10 -51 -35 -75t-71 -24
q-42 0 -61 21.5t-19 51.5q0 5 0.5 12t2.5 15zM479 712h44l-379 -712h-43z" />
    <glyph glyph-name="guilsinglleft" unicode="&#x2039;" horiz-adv-x="205" 
d="M30 268l170 210l-20 -99l-96 -117l49 -116l-18 -88z" />
    <glyph glyph-name="guilsinglright" unicode="&#x203a;" horiz-adv-x="205" 
d="M182 268l-170 -210l20 99l96 117l-49 116l18 88z" />
    <glyph glyph-name="fraction" unicode="&#x2044;" horiz-adv-x="105" 
d="M242 712h42l-378 -712h-42z" />
    <glyph glyph-name="uni2070" unicode="&#x2070;" horiz-adv-x="286" 
d="M134 631q5 24 14.5 40.5t23.5 27.5q24 18 58 18q23 0 37.5 -7t22.5 -16q16 -17 16 -42q0 -5 -0.5 -12.5t-2.5 -13.5l-52 -260q-10 -46 -38 -68q-24 -18 -59 -18q-23 0 -37 6.5t-22 16.5q-8 11 -12 20t-4 22q0 11 3 26zM120 369q-2 -10 -2 -17q0 -15 10.5 -26t30.5 -11
q16 0 31.5 11t20.5 39l53 263q2 10 2 17q0 15 -10 26t-30 11q-16 0 -31 -11t-21 -39z" />
    <glyph glyph-name="uni2074" unicode="&#x2074;" horiz-adv-x="286" 
d="M73 392l180 320h41l-180 -319h83l22 108h38l-21 -108h32l-7 -35h-33l-13 -73h-40l15 73h-125z" />
    <glyph glyph-name="uni2075" unicode="&#x2075;" horiz-adv-x="286" 
d="M122 391l-3 -20q-1 -6 -1.5 -11.5t-0.5 -11.5q0 -14 9 -23.5t28 -9.5q22 0 36 14q11 9 18.5 27.5t16.5 64.5q6 30 7.5 45t1.5 24q0 15 -8 25.5t-30 10.5q-19 0 -35 -12.5t-21 -34.5l-3 -17h-35l50 250h163l-8 -35h-127l-28 -140q11 10 24 16q15 7 35 7q17 0 28 -5t18 -13
q8 -8 12 -18.5t4 -26.5q0 -12 -2 -33.5t-7 -42.5q-6 -26 -10.5 -45t-10 -32.5t-11.5 -23t-15 -17.5q-26 -23 -66 -23q-39 0 -58 22q-6 8 -10.5 17.5t-4.5 23.5q0 5 0.5 14.5t1.5 13.5l4 20h38z" />
    <glyph glyph-name="uni2076" unicode="&#x2076;" horiz-adv-x="286" 
d="M87 412q7 36 17.5 64t21.5 47l114 189h41l-110 -178q7 4 15.5 6.5t19.5 2.5q30 0 46.5 -17.5t17.5 -43.5q0 -10 -2 -27t-7 -43q-9 -45 -18 -69t-26 -39q-26 -24 -65 -24q-38 0 -58 23q-15 19 -15 44q0 14 1.5 27t6.5 38zM126 412q-4 -19 -6.5 -35t-2.5 -25q0 -16 9 -26.5
t29 -10.5t34 11q12 11 19 31t14 55q4 19 6.5 35t2.5 25q0 16 -9 26.5t-29 10.5q-21 0 -34 -12q-12 -10 -19 -30t-14 -55z" />
    <glyph glyph-name="uni2077" unicode="&#x2077;" horiz-adv-x="286" 
d="M277 677h-100l-14 -67h-37l20 102h178l-6 -32l-174 -395h-42z" />
    <glyph glyph-name="uni2078" unicode="&#x2078;" horiz-adv-x="286" 
d="M257 404q-8 -44 -16.5 -65.5t-25.5 -36.5q-16 -13 -31.5 -17.5t-36.5 -4.5q-16 0 -30 5t-24 16q-8 8 -12 18t-4 25q0 11 2 25.5t6 34.5q7 36 13 54t17 31q7 8 16 14t17 11q-13 8 -19 20q-7 11 -7 34q0 6 1 14.5t4 23.5q8 38 17 57.5t23 33.5q23 20 60 20q20 0 34.5 -6.5
t22.5 -15.5t12 -20.5t4 -21.5t-1 -20.5t-4 -26.5q-6 -30 -11.5 -45t-13.5 -26q-6 -8 -15 -14.5t-19 -11.5q13 -9 19 -19q9 -14 9 -34q0 -8 -1 -18.5t-6 -33.5zM218 404q4 20 5 32t1 20t-1.5 14.5t-5.5 10.5q-10 10 -29 10q-11 0 -21 -3t-16 -10q-11 -11 -15.5 -25t-11.5 -49
q-5 -22 -6.5 -33.5t-1.5 -18.5q0 -15 7 -25q9 -12 30 -12q23 0 36 13q11 10 16.5 24.5t12.5 51.5zM165 605q-2 -13 -3.5 -22t-1.5 -16q0 -17 9 -27t27 -10q22 0 35 13q9 9 14 23.5t11 38.5q3 14 4 23.5t1 16.5q0 19 -8 27q-9 10 -28 10q-22 0 -35 -13q-16 -16 -25 -64z" />
    <glyph glyph-name="uni2079" unicode="&#x2079;" horiz-adv-x="286" 
d="M296 585q-7 -36 -17.5 -64t-21.5 -47l-114 -189h-41l110 178q-7 -4 -15.5 -6.5t-19.5 -2.5q-30 0 -46.5 17.5t-17.5 43.5q0 10 2 27t7 43q9 45 18 69t26 39q25 24 65 24q38 0 58 -23q15 -19 15 -44q0 -14 -1.5 -27t-6.5 -38zM257 585q4 19 6.5 35t2.5 25q0 16 -9 26.5
t-29 10.5t-34 -11q-12 -11 -19 -31t-14 -55q-4 -19 -6.5 -35t-2.5 -25q0 -16 9 -26.5t29 -10.5q21 0 34 12q12 10 19 30t14 55z" />
    <glyph glyph-name="uni2080" unicode="&#x2080;" horiz-adv-x="286" 
d="M48 196q5 24 14.5 40.5t23.5 27.5q24 18 58 18q23 0 37.5 -7t22.5 -16q16 -17 16 -42q0 -5 -0.5 -12.5t-2.5 -13.5l-52 -260q-10 -46 -38 -68q-24 -18 -59 -18q-23 0 -37 6.5t-22 16.5q-8 11 -12 20t-4 22q0 11 3 26zM34 -66q-2 -10 -2 -17q0 -15 10.5 -26t30.5 -11
q16 0 31.5 11t20.5 39l53 263q2 10 2 17q0 15 -10 26t-30 11q-16 0 -31 -11t-21 -39z" />
    <glyph glyph-name="uni2081" unicode="&#x2081;" horiz-adv-x="286" 
d="M122 226l-75 -51l9 49l79 53h36l-85 -427h-39z" />
    <glyph glyph-name="uni2082" unicode="&#x2082;" horiz-adv-x="286" 
d="M-16 -118l151 227q23 34 32.5 55t9.5 43q0 17 -9 28.5t-28 11.5q-20 0 -33 -12t-18 -40l-7 -33h-38l6 33q8 46 37 70q22 17 56 17q20 0 31.5 -5t21.5 -15q9 -9 14 -20.5t5 -31.5q0 -15 -2.5 -28t-8 -26.5t-14.5 -28t-22 -33.5l-140 -209h130l-7 -35h-173z" />
    <glyph glyph-name="uni2083" unicode="&#x2083;" horiz-adv-x="286" 
d="M48 195q7 46 37 70q22 17 57 17q21 0 33.5 -5t21.5 -16q7 -8 10.5 -19.5t3.5 -30.5q0 -8 -2 -19t-5 -28q-5 -25 -10.5 -39.5t-14.5 -25.5q-10 -13 -28 -21q14 -8 22 -20.5t8 -32.5q0 -10 -2 -23.5t-6 -32.5q-8 -42 -17 -65.5t-26 -37.5q-24 -21 -64 -21q-17 0 -33.5 6
t-25.5 17q-8 11 -11 21t-3 23q0 7 0.5 15t1.5 12l6 31h39l-6 -33q-1 -5 -1.5 -11t-0.5 -10q0 -18 10 -27t27 -9q22 0 35 13q10 9 16.5 23.5t14.5 52.5q5 24 6.5 37.5t1.5 19.5q0 15 -10 25t-28 10h-27l7 33h23q17 0 31 12q10 9 14.5 19t11.5 39q7 28 7 44q0 20 -7.5 29.5
t-26.5 9.5q-20 0 -33 -12t-18 -39l-6 -34h-38z" />
    <glyph glyph-name="uni2084" unicode="&#x2084;" horiz-adv-x="286" 
d="M-14 -43l180 320h41l-180 -319h83l22 108h38l-21 -108h32l-7 -35h-33l-13 -73h-40l15 73h-125z" />
    <glyph glyph-name="uni2085" unicode="&#x2085;" horiz-adv-x="286" 
d="M35 -44l-3 -20q-1 -6 -1.5 -11.5t-0.5 -11.5q0 -14 9 -23.5t28 -9.5q22 0 36 14q11 9 18.5 27.5t16.5 64.5q6 30 7.5 45t1.5 24q0 15 -8 25.5t-30 10.5q-19 0 -35 -12.5t-21 -34.5l-3 -17h-35l50 250h163l-8 -35h-127l-28 -140q11 10 24 16q15 7 35 7q17 0 28 -5t18 -13
q8 -8 12 -18.5t4 -26.5q0 -12 -2 -33.5t-7 -42.5q-6 -26 -10.5 -45t-10 -32.5t-11.5 -23t-15 -17.5q-26 -23 -66 -23q-39 0 -58 22q-6 8 -10.5 17.5t-4.5 23.5q0 5 0.5 14.5t1.5 13.5l4 20h38z" />
    <glyph glyph-name="uni2086" unicode="&#x2086;" horiz-adv-x="286" 
d="M0 -23q7 36 17.5 64t21.5 47l114 189h41l-110 -178q7 4 15.5 6.5t19.5 2.5q30 0 46.5 -17.5t17.5 -43.5q0 -10 -2 -27t-7 -43q-9 -45 -18 -69t-26 -39q-26 -24 -65 -24q-38 0 -58 23q-15 19 -15 44q0 14 1.5 27t6.5 38zM39 -23q-4 -19 -6.5 -35t-2.5 -25q0 -16 9 -26.5
t29 -10.5t34 11q12 11 19 31t14 55q4 19 6.5 35t2.5 25q0 16 -9 26.5t-29 10.5q-21 0 -34 -12q-12 -10 -19 -30t-14 -55z" />
    <glyph glyph-name="uni2087" unicode="&#x2087;" horiz-adv-x="286" 
d="M190 242h-100l-14 -67h-37l20 102h178l-6 -32l-174 -395h-42z" />
    <glyph glyph-name="uni2088" unicode="&#x2088;" horiz-adv-x="286" 
d="M170 -31q-8 -44 -16.5 -65.5t-25.5 -36.5q-16 -13 -31.5 -17.5t-36.5 -4.5q-16 0 -30 5t-24 16q-8 8 -12 18t-4 25q0 11 2 25.5t6 34.5q7 36 13 54t17 31q7 8 16 14t17 11q-13 8 -19 20q-7 11 -7 34q0 6 1 14.5t4 23.5q8 38 17 57.5t23 33.5q23 20 60 20q20 0 34.5 -6.5
t22.5 -15.5t12 -20.5t4 -21.5t-1 -20.5t-4 -26.5q-6 -30 -11.5 -45t-13.5 -26q-6 -8 -15 -14.5t-19 -11.5q13 -9 19 -19q9 -14 9 -34q0 -8 -1 -18.5t-6 -33.5zM131 -31q4 20 5 32t1 20t-1.5 14.5t-5.5 10.5q-10 10 -29 10q-11 0 -21 -3t-16 -10q-11 -11 -15.5 -25t-11.5 -49
q-5 -22 -6.5 -33.5t-1.5 -18.5q0 -15 7 -25q9 -12 30 -12q23 0 36 13q11 10 16.5 24.5t12.5 51.5zM78 170q-2 -13 -3.5 -22t-1.5 -16q0 -17 9 -27t27 -10q22 0 35 13q9 9 14 23.5t11 38.5q3 14 4 23.5t1 16.5q0 19 -8 27q-9 10 -28 10q-22 0 -35 -13q-16 -16 -25 -64z" />
    <glyph glyph-name="uni2089" unicode="&#x2089;" horiz-adv-x="286" 
d="M209 150q-7 -36 -17.5 -64t-21.5 -47l-114 -189h-41l110 178q-7 -4 -15.5 -6.5t-19.5 -2.5q-30 0 -46.5 17.5t-17.5 43.5q0 10 2 27t7 43q9 45 18 69t26 39q25 24 65 24q38 0 58 -23q15 -19 15 -44q0 -14 -1.5 -27t-6.5 -38zM170 150q4 19 6.5 35t2.5 25q0 16 -9 26.5
t-29 10.5t-34 -11q-12 -11 -19 -31t-14 -55q-4 -19 -6.5 -35t-2.5 -25q0 -16 9 -26.5t29 -10.5q21 0 34 12q12 10 19 30t14 55z" />
    <glyph glyph-name="Euro" unicode="&#x20ac;" horiz-adv-x="423" 
d="M76 117q0 42 19 146h-58l8 43h58l20 100h-58l9 43h58q13 59 23.5 98t20.5 65t21.5 41.5t25.5 28.5q22 20 47 29t58 9q32 0 55.5 -10.5t37.5 -28.5q11 -15 16.5 -36.5t5.5 -45.5q0 -11 -1 -22t-4 -26h-55q2 13 3.5 24t1.5 22q0 32 -14 52.5t-50 20.5q-38 0 -64 -24
q-11 -11 -19.5 -23t-16.5 -33.5t-16.5 -55t-19.5 -85.5h126l-9 -43h-126l-20 -100h127l-9 -43h-127q-10 -54 -14.5 -88.5t-4.5 -57.5q0 -75 67 -75q19 0 35 7t27 18q18 17 29 40.5t17 54.5h57q-9 -45 -25 -79t-47 -59q-40 -32 -99 -32t-89 36q-14 17 -20.5 38.5t-6.5 50.5z
" />
    <glyph glyph-name="uni20B4" unicode="&#x20b4;" horiz-adv-x="410" 
d="M132 270q-11 -18 -17 -39.5t-11 -45.5q-3 -14 -4.5 -30t-1.5 -27q0 -39 16 -60q8 -11 21.5 -18.5t35.5 -7.5t37.5 6t28.5 17q20 17 29.5 40t17.5 65h56q-6 -29 -12 -50.5t-14 -38t-18 -29t-23 -24.5q-20 -18 -45 -27t-60 -9q-65 0 -98 41q-28 33 -28 93q0 14 1.5 31
t3.5 31q9 46 24 82h-34l8 38h48q28 39 79 62l77 35h-185l7 38h243q17 17 25 38.5t14 52.5q2 14 3.5 29t1.5 27q0 38 -16 57q-18 23 -54 23q-40 0 -66 -26q-18 -19 -27.5 -43t-16.5 -59h-55q9 47 21 79t41 60q20 19 45.5 29t61.5 10q32 0 54.5 -9t39.5 -28q14 -16 21 -38
t7 -54q0 -12 -1.5 -29t-4.5 -31q-6 -29 -12.5 -50.5t-15.5 -37.5h35l-7 -38h-62q-11 -8 -23.5 -15t-28.5 -15l-95 -45q-23 -11 -36 -22h226l-8 -38h-249z" />
    <glyph glyph-name="afii61352" unicode="&#x2116;" horiz-adv-x="617" 
d="M156 712h52l59 -560l112 560h52l-142 -712h-51l-60 560l-111 -560h-53zM622 541q-13 -65 -24 -98.5t-27 -49.5q-26 -27 -64 -27q-22 0 -37 8.5t-23 21.5q-6 12 -8 22.5t-2 26.5q0 11 3.5 36t10.5 60q6 33 12 57t12 41.5t12.5 29.5t14.5 20q26 27 64 27q22 0 37 -8.5
t23 -21.5q6 -12 8 -22.5t2 -26.5q0 -11 -3.5 -36t-10.5 -60zM493 541q-7 -35 -10.5 -57.5t-3.5 -39.5q0 -16 6 -28.5t24 -12.5q19 0 33 17q11 14 19.5 42.5t18.5 78.5q7 35 10.5 57.5t3.5 39.5q0 16 -6 28.5t-24 12.5q-19 0 -33 -17q-11 -14 -19.5 -42.5t-18.5 -78.5z
M411 327h164l-7 -36h-164z" />
    <glyph glyph-name="trademark" unicode="&#x2122;" horiz-adv-x="562" 
d="M355 712h38l37 -242l132 242h39l-86 -429h-39l64 319l-107 -197h-30l-31 203l-64 -325h-39zM184 674h-68l7 38h177l-8 -38h-68l-78 -391h-39z" />
    <glyph glyph-name="Omega" unicode="&#x2126;" horiz-adv-x="395" 
d="M127 356q-20 -96 -29.5 -152t-9.5 -82q0 -54 45 -78l-8 -44h-130l9 50h72q-21 15 -31.5 32.5t-10.5 49.5q0 27 9.5 80t27.5 144q18 90 31 146.5t25 91.5t24.5 54.5t30.5 35.5q40 36 101 36q35 0 58.5 -10.5t37.5 -30.5q12 -17 18 -35.5t6 -44.5q0 -17 -2.5 -39.5
t-7 -51.5t-11.5 -66.5t-16 -85.5q-11 -55 -19.5 -96t-16 -71.5t-14.5 -51.5t-15 -34q-13 -21 -27 -32.5t-31 -20.5h67l-10 -50h-130l9 44q21 9 39.5 25t30.5 39q13 27 26.5 85t34.5 163q19 95 28 151t9 86q0 16 -3 30t-11 24.5t-21.5 16.5t-33.5 6q-17 0 -32.5 -6t-28.5 -18
q-12 -12 -21.5 -28t-19 -46.5t-21.5 -82t-28 -133.5z" />
    <glyph glyph-name="uni2150" unicode="&#x2150;" horiz-adv-x="677" 
d="M209 661l-75 -51l9 49l79 53h36l-85 -427h-39zM528 712h42l-378 -712h-42zM611 392h-100l-14 -67h-37l20 102h178l-6 -32l-174 -395h-42z" />
    <glyph glyph-name="uni2151" unicode="&#x2151;" horiz-adv-x="677" 
d="M209 661l-75 -51l9 49l79 53h36l-85 -427h-39zM528 712h42l-378 -712h-42zM630 300q-7 -36 -17.5 -64t-21.5 -47l-114 -189h-41l110 178q-7 -4 -15.5 -6.5t-19.5 -2.5q-30 0 -46.5 17.5t-17.5 43.5q0 10 2 27t7 43q9 45 18 69t26 39q25 24 65 24q38 0 58 -23
q15 -19 15 -44q0 -14 -1.5 -27t-6.5 -38zM591 300q4 19 6.5 35t2.5 25q0 16 -9 26.5t-29 10.5t-34 -11q-12 -11 -19 -31t-14 -55q-4 -19 -6.5 -35t-2.5 -25q0 -16 9 -26.5t29 -10.5q21 0 34 12q12 10 19 30t14 55z" />
    <glyph glyph-name="uni2152" unicode="&#x2152;" horiz-adv-x="963" 
d="M209 661l-75 -51l9 49l79 53h36l-85 -427h-39zM528 712h42l-378 -712h-42zM543 376l-75 -51l9 49l79 53h36l-85 -427h-39zM754 346q5 24 14.5 40.5t23.5 27.5q24 18 58 18q23 0 37.5 -7t22.5 -16q16 -17 16 -42q0 -5 -0.5 -12.5t-2.5 -13.5l-52 -260q-10 -46 -38 -68
q-24 -18 -59 -18q-23 0 -37 6.5t-22 16.5q-8 11 -12 20t-4 22q0 11 3 26zM740 84q-2 -10 -2 -17q0 -15 10.5 -26t30.5 -11q16 0 31.5 11t20.5 39l53 263q2 10 2 17q0 15 -10 26t-30 11q-16 0 -31 -11t-21 -39z" />
    <glyph glyph-name="onethird" unicode="&#x2153;" horiz-adv-x="677" 
d="M209 661l-75 -51l9 49l79 53h36l-85 -427h-39zM528 712h42l-378 -712h-42zM466 345q7 46 37 70q22 17 57 17q21 0 33.5 -5t21.5 -16q7 -8 10.5 -19.5t3.5 -30.5q0 -8 -2 -19t-5 -28q-5 -25 -10.5 -39.5t-14.5 -25.5q-10 -13 -28 -21q14 -8 22 -20.5t8 -32.5
q0 -10 -2 -23.5t-6 -32.5q-8 -42 -17 -65.5t-26 -37.5q-24 -21 -64 -21q-17 0 -33.5 6t-25.5 17q-8 11 -11 21t-3 23q0 7 0.5 15t1.5 12l6 31h39l-6 -33q-1 -5 -1.5 -11t-0.5 -10q0 -18 10 -27t27 -9q22 0 35 13q10 9 16.5 23.5t14.5 52.5q5 24 6.5 37.5t1.5 19.5
q0 15 -10 25t-28 10h-27l7 33h23q17 0 31 12q10 9 14.5 19t11.5 39q7 28 7 44q0 20 -7.5 29.5t-26.5 9.5q-20 0 -33 -12t-18 -39l-6 -34h-38z" />
    <glyph glyph-name="twothirds" unicode="&#x2154;" horiz-adv-x="677" 
d="M71 317l151 227q23 34 32.5 55t9.5 43q0 17 -9 28.5t-28 11.5q-20 0 -33 -12t-18 -40l-7 -33h-38l6 33q8 46 37 70q22 17 56 17q20 0 31.5 -5t21.5 -15q9 -9 14 -20.5t5 -31.5q0 -15 -2.5 -28t-8 -26.5t-14.5 -28t-22 -33.5l-140 -209h130l-7 -35h-173zM528 712h42
l-378 -712h-42zM466 345q7 46 37 70q22 17 57 17q21 0 33.5 -5t21.5 -16q7 -8 10.5 -19.5t3.5 -30.5q0 -8 -2 -19t-5 -28q-5 -25 -10.5 -39.5t-14.5 -25.5q-10 -13 -28 -21q14 -8 22 -20.5t8 -32.5q0 -10 -2 -23.5t-6 -32.5q-8 -42 -17 -65.5t-26 -37.5q-24 -21 -64 -21
q-17 0 -33.5 6t-25.5 17q-8 11 -11 21t-3 23q0 7 0.5 15t1.5 12l6 31h39l-6 -33q-1 -5 -1.5 -11t-0.5 -10q0 -18 10 -27t27 -9q22 0 35 13q10 9 16.5 23.5t14.5 52.5q5 24 6.5 37.5t1.5 19.5q0 15 -10 25t-28 10h-27l7 33h23q17 0 31 12q10 9 14.5 19t11.5 39q7 28 7 44
q0 20 -7.5 29.5t-26.5 9.5q-20 0 -33 -12t-18 -39l-6 -34h-38z" />
    <glyph glyph-name="uni2155" unicode="&#x2155;" horiz-adv-x="677" 
d="M209 661l-75 -51l9 49l79 53h36l-85 -427h-39zM528 712h42l-378 -712h-42zM456 106l-3 -20q-1 -6 -1.5 -11.5t-0.5 -11.5q0 -14 9 -23.5t28 -9.5q22 0 36 14q11 9 18.5 27.5t16.5 64.5q6 30 7.5 45t1.5 24q0 15 -8 25.5t-30 10.5q-19 0 -35 -12.5t-21 -34.5l-3 -17h-35
l50 250h163l-8 -35h-127l-28 -140q11 10 24 16q15 7 35 7q17 0 28 -5t18 -13q8 -8 12 -18.5t4 -26.5q0 -12 -2 -33.5t-7 -42.5q-6 -26 -10.5 -45t-10 -32.5t-11.5 -23t-15 -17.5q-26 -23 -66 -23q-39 0 -58 22q-6 8 -10.5 17.5t-4.5 23.5q0 5 0.5 14.5t1.5 13.5l4 20h38z
" />
    <glyph glyph-name="uni2156" unicode="&#x2156;" horiz-adv-x="677" 
d="M71 317l151 227q23 34 32.5 55t9.5 43q0 17 -9 28.5t-28 11.5q-20 0 -33 -12t-18 -40l-7 -33h-38l6 33q8 46 37 70q22 17 56 17q20 0 31.5 -5t21.5 -15q9 -9 14 -20.5t5 -31.5q0 -15 -2.5 -28t-8 -26.5t-14.5 -28t-22 -33.5l-140 -209h130l-7 -35h-173zM528 712h42
l-378 -712h-42zM456 106l-3 -20q-1 -6 -1.5 -11.5t-0.5 -11.5q0 -14 9 -23.5t28 -9.5q22 0 36 14q11 9 18.5 27.5t16.5 64.5q6 30 7.5 45t1.5 24q0 15 -8 25.5t-30 10.5q-19 0 -35 -12.5t-21 -34.5l-3 -17h-35l50 250h163l-8 -35h-127l-28 -140q11 10 24 16q15 7 35 7
q17 0 28 -5t18 -13q8 -8 12 -18.5t4 -26.5q0 -12 -2 -33.5t-7 -42.5q-6 -26 -10.5 -45t-10 -32.5t-11.5 -23t-15 -17.5q-26 -23 -66 -23q-39 0 -58 22q-6 8 -10.5 17.5t-4.5 23.5q0 5 0.5 14.5t1.5 13.5l4 20h38z" />
    <glyph glyph-name="uni2157" unicode="&#x2157;" horiz-adv-x="677" 
d="M134 630q7 46 37 70q22 17 57 17q21 0 33.5 -5t21.5 -16q7 -8 10.5 -19.5t3.5 -30.5q0 -8 -2 -19t-5 -28q-5 -25 -10.5 -39.5t-14.5 -25.5q-10 -13 -28 -21q14 -8 22 -20.5t8 -32.5q0 -10 -2 -23.5t-6 -32.5q-8 -42 -17 -65.5t-26 -37.5q-24 -21 -64 -21q-17 0 -33.5 6
t-25.5 17q-8 11 -11 21t-3 23q0 7 0.5 15t1.5 12l6 31h39l-6 -33q-1 -5 -1.5 -11t-0.5 -10q0 -18 10 -27t27 -9q22 0 35 13q10 9 16.5 23.5t14.5 52.5q5 24 6.5 37.5t1.5 19.5q0 15 -10 25t-28 10h-27l7 33h23q17 0 31 12q10 9 14.5 19t11.5 39q7 28 7 44q0 20 -7.5 29.5
t-26.5 9.5q-20 0 -33 -12t-18 -39l-6 -34h-38zM528 712h42l-378 -712h-42zM456 106l-3 -20q-1 -6 -1.5 -11.5t-0.5 -11.5q0 -14 9 -23.5t28 -9.5q22 0 36 14q11 9 18.5 27.5t16.5 64.5q6 30 7.5 45t1.5 24q0 15 -8 25.5t-30 10.5q-19 0 -35 -12.5t-21 -34.5l-3 -17h-35
l50 250h163l-8 -35h-127l-28 -140q11 10 24 16q15 7 35 7q17 0 28 -5t18 -13q8 -8 12 -18.5t4 -26.5q0 -12 -2 -33.5t-7 -42.5q-6 -26 -10.5 -45t-10 -32.5t-11.5 -23t-15 -17.5q-26 -23 -66 -23q-39 0 -58 22q-6 8 -10.5 17.5t-4.5 23.5q0 5 0.5 14.5t1.5 13.5l4 20h38z
" />
    <glyph glyph-name="uni2158" unicode="&#x2158;" horiz-adv-x="677" 
d="M73 392l180 320h41l-180 -319h83l22 108h38l-21 -108h32l-7 -35h-33l-13 -73h-40l15 73h-125zM528 712h42l-378 -712h-42zM456 106l-3 -20q-1 -6 -1.5 -11.5t-0.5 -11.5q0 -14 9 -23.5t28 -9.5q22 0 36 14q11 9 18.5 27.5t16.5 64.5q6 30 7.5 45t1.5 24q0 15 -8 25.5
t-30 10.5q-19 0 -35 -12.5t-21 -34.5l-3 -17h-35l50 250h163l-8 -35h-127l-28 -140q11 10 24 16q15 7 35 7q17 0 28 -5t18 -13q8 -8 12 -18.5t4 -26.5q0 -12 -2 -33.5t-7 -42.5q-6 -26 -10.5 -45t-10 -32.5t-11.5 -23t-15 -17.5q-26 -23 -66 -23q-39 0 -58 22
q-6 8 -10.5 17.5t-4.5 23.5q0 5 0.5 14.5t1.5 13.5l4 20h38z" />
    <glyph glyph-name="uni2159" unicode="&#x2159;" horiz-adv-x="677" 
d="M209 661l-75 -51l9 49l79 53h36l-85 -427h-39zM528 712h42l-378 -712h-42zM421 127q7 36 17.5 64t21.5 47l114 189h41l-110 -178q7 4 15.5 6.5t19.5 2.5q30 0 46.5 -17.5t17.5 -43.5q0 -10 -2 -27t-7 -43q-9 -45 -18 -69t-26 -39q-26 -24 -65 -24q-38 0 -58 23
q-15 19 -15 44q0 14 1.5 27t6.5 38zM460 127q-4 -19 -6.5 -35t-2.5 -25q0 -16 9 -26.5t29 -10.5t34 11q12 11 19 31t14 55q4 19 6.5 35t2.5 25q0 16 -9 26.5t-29 10.5q-21 0 -34 -12q-12 -10 -19 -30t-14 -55z" />
    <glyph glyph-name="uni215A" unicode="&#x215a;" horiz-adv-x="677" 
d="M122 391l-3 -20q-1 -6 -1.5 -11.5t-0.5 -11.5q0 -14 9 -23.5t28 -9.5q22 0 36 14q11 9 18.5 27.5t16.5 64.5q6 30 7.5 45t1.5 24q0 15 -8 25.5t-30 10.5q-19 0 -35 -12.5t-21 -34.5l-3 -17h-35l50 250h163l-8 -35h-127l-28 -140q11 10 24 16q15 7 35 7q17 0 28 -5t18 -13
q8 -8 12 -18.5t4 -26.5q0 -12 -2 -33.5t-7 -42.5q-6 -26 -10.5 -45t-10 -32.5t-11.5 -23t-15 -17.5q-26 -23 -66 -23q-39 0 -58 22q-6 8 -10.5 17.5t-4.5 23.5q0 5 0.5 14.5t1.5 13.5l4 20h38zM528 712h42l-378 -712h-42zM421 127q7 36 17.5 64t21.5 47l114 189h41
l-110 -178q7 4 15.5 6.5t19.5 2.5q30 0 46.5 -17.5t17.5 -43.5q0 -10 -2 -27t-7 -43q-9 -45 -18 -69t-26 -39q-26 -24 -65 -24q-38 0 -58 23q-15 19 -15 44q0 14 1.5 27t6.5 38zM460 127q-4 -19 -6.5 -35t-2.5 -25q0 -16 9 -26.5t29 -10.5t34 11q12 11 19 31t14 55
q4 19 6.5 35t2.5 25q0 16 -9 26.5t-29 10.5q-21 0 -34 -12q-12 -10 -19 -30t-14 -55z" />
    <glyph glyph-name="oneeighth" unicode="&#x215b;" horiz-adv-x="677" 
d="M209 661l-75 -51l9 49l79 53h36l-85 -427h-39zM528 712h42l-378 -712h-42zM591 119q-8 -44 -16.5 -65.5t-25.5 -36.5q-16 -13 -31.5 -17.5t-36.5 -4.5q-16 0 -30 5t-24 16q-8 8 -12 18t-4 25q0 11 2 25.5t6 34.5q7 36 13 54t17 31q7 8 16 14t17 11q-13 8 -19 20
q-7 11 -7 34q0 6 1 14.5t4 23.5q8 38 17 57.5t23 33.5q23 20 60 20q20 0 34.5 -6.5t22.5 -15.5t12 -20.5t4 -21.5t-1 -20.5t-4 -26.5q-6 -30 -11.5 -45t-13.5 -26q-6 -8 -15 -14.5t-19 -11.5q13 -9 19 -19q9 -14 9 -34q0 -8 -1 -18.5t-6 -33.5zM552 119q4 20 5 32t1 20
t-1.5 14.5t-5.5 10.5q-10 10 -29 10q-11 0 -21 -3t-16 -10q-11 -11 -15.5 -25t-11.5 -49q-5 -22 -6.5 -33.5t-1.5 -18.5q0 -15 7 -25q9 -12 30 -12q23 0 36 13q11 10 16.5 24.5t12.5 51.5zM499 320q-2 -13 -3.5 -22t-1.5 -16q0 -17 9 -27t27 -10q22 0 35 13q9 9 14 23.5
t11 38.5q3 14 4 23.5t1 16.5q0 19 -8 27q-9 10 -28 10q-22 0 -35 -13q-16 -16 -25 -64z" />
    <glyph glyph-name="threeeighths" unicode="&#x215c;" horiz-adv-x="677" 
d="M134 630q7 46 37 70q22 17 57 17q21 0 33.5 -5t21.5 -16q7 -8 10.5 -19.5t3.5 -30.5q0 -8 -2 -19t-5 -28q-5 -25 -10.5 -39.5t-14.5 -25.5q-10 -13 -28 -21q14 -8 22 -20.5t8 -32.5q0 -10 -2 -23.5t-6 -32.5q-8 -42 -17 -65.5t-26 -37.5q-24 -21 -64 -21q-17 0 -33.5 6
t-25.5 17q-8 11 -11 21t-3 23q0 7 0.5 15t1.5 12l6 31h39l-6 -33q-1 -5 -1.5 -11t-0.5 -10q0 -18 10 -27t27 -9q22 0 35 13q10 9 16.5 23.5t14.5 52.5q5 24 6.5 37.5t1.5 19.5q0 15 -10 25t-28 10h-27l7 33h23q17 0 31 12q10 9 14.5 19t11.5 39q7 28 7 44q0 20 -7.5 29.5
t-26.5 9.5q-20 0 -33 -12t-18 -39l-6 -34h-38zM528 712h42l-378 -712h-42zM591 119q-8 -44 -16.5 -65.5t-25.5 -36.5q-16 -13 -31.5 -17.5t-36.5 -4.5q-16 0 -30 5t-24 16q-8 8 -12 18t-4 25q0 11 2 25.5t6 34.5q7 36 13 54t17 31q7 8 16 14t17 11q-13 8 -19 20q-7 11 -7 34
q0 6 1 14.5t4 23.5q8 38 17 57.5t23 33.5q23 20 60 20q20 0 34.5 -6.5t22.5 -15.5t12 -20.5t4 -21.5t-1 -20.5t-4 -26.5q-6 -30 -11.5 -45t-13.5 -26q-6 -8 -15 -14.5t-19 -11.5q13 -9 19 -19q9 -14 9 -34q0 -8 -1 -18.5t-6 -33.5zM552 119q4 20 5 32t1 20t-1.5 14.5
t-5.5 10.5q-10 10 -29 10q-11 0 -21 -3t-16 -10q-11 -11 -15.5 -25t-11.5 -49q-5 -22 -6.5 -33.5t-1.5 -18.5q0 -15 7 -25q9 -12 30 -12q23 0 36 13q11 10 16.5 24.5t12.5 51.5zM499 320q-2 -13 -3.5 -22t-1.5 -16q0 -17 9 -27t27 -10q22 0 35 13q9 9 14 23.5t11 38.5
q3 14 4 23.5t1 16.5q0 19 -8 27q-9 10 -28 10q-22 0 -35 -13q-16 -16 -25 -64z" />
    <glyph glyph-name="fiveeighths" unicode="&#x215d;" horiz-adv-x="677" 
d="M122 391l-3 -20q-1 -6 -1.5 -11.5t-0.5 -11.5q0 -14 9 -23.5t28 -9.5q22 0 36 14q11 9 18.5 27.5t16.5 64.5q6 30 7.5 45t1.5 24q0 15 -8 25.5t-30 10.5q-19 0 -35 -12.5t-21 -34.5l-3 -17h-35l50 250h163l-8 -35h-127l-28 -140q11 10 24 16q15 7 35 7q17 0 28 -5t18 -13
q8 -8 12 -18.5t4 -26.5q0 -12 -2 -33.5t-7 -42.5q-6 -26 -10.5 -45t-10 -32.5t-11.5 -23t-15 -17.5q-26 -23 -66 -23q-39 0 -58 22q-6 8 -10.5 17.5t-4.5 23.5q0 5 0.5 14.5t1.5 13.5l4 20h38zM528 712h42l-378 -712h-42zM591 119q-8 -44 -16.5 -65.5t-25.5 -36.5
q-16 -13 -31.5 -17.5t-36.5 -4.5q-16 0 -30 5t-24 16q-8 8 -12 18t-4 25q0 11 2 25.5t6 34.5q7 36 13 54t17 31q7 8 16 14t17 11q-13 8 -19 20q-7 11 -7 34q0 6 1 14.5t4 23.5q8 38 17 57.5t23 33.5q23 20 60 20q20 0 34.5 -6.5t22.5 -15.5t12 -20.5t4 -21.5t-1 -20.5
t-4 -26.5q-6 -30 -11.5 -45t-13.5 -26q-6 -8 -15 -14.5t-19 -11.5q13 -9 19 -19q9 -14 9 -34q0 -8 -1 -18.5t-6 -33.5zM552 119q4 20 5 32t1 20t-1.5 14.5t-5.5 10.5q-10 10 -29 10q-11 0 -21 -3t-16 -10q-11 -11 -15.5 -25t-11.5 -49q-5 -22 -6.5 -33.5t-1.5 -18.5
q0 -15 7 -25q9 -12 30 -12q23 0 36 13q11 10 16.5 24.5t12.5 51.5zM499 320q-2 -13 -3.5 -22t-1.5 -16q0 -17 9 -27t27 -10q22 0 35 13q9 9 14 23.5t11 38.5q3 14 4 23.5t1 16.5q0 19 -8 27q-9 10 -28 10q-22 0 -35 -13q-16 -16 -25 -64z" />
    <glyph glyph-name="seveneighths" unicode="&#x215e;" horiz-adv-x="677" 
d="M277 677h-100l-14 -67h-37l20 102h178l-6 -32l-174 -395h-42zM528 712h42l-378 -712h-42zM591 119q-8 -44 -16.5 -65.5t-25.5 -36.5q-16 -13 -31.5 -17.5t-36.5 -4.5q-16 0 -30 5t-24 16q-8 8 -12 18t-4 25q0 11 2 25.5t6 34.5q7 36 13 54t17 31q7 8 16 14t17 11
q-13 8 -19 20q-7 11 -7 34q0 6 1 14.5t4 23.5q8 38 17 57.5t23 33.5q23 20 60 20q20 0 34.5 -6.5t22.5 -15.5t12 -20.5t4 -21.5t-1 -20.5t-4 -26.5q-6 -30 -11.5 -45t-13.5 -26q-6 -8 -15 -14.5t-19 -11.5q13 -9 19 -19q9 -14 9 -34q0 -8 -1 -18.5t-6 -33.5zM552 119
q4 20 5 32t1 20t-1.5 14.5t-5.5 10.5q-10 10 -29 10q-11 0 -21 -3t-16 -10q-11 -11 -15.5 -25t-11.5 -49q-5 -22 -6.5 -33.5t-1.5 -18.5q0 -15 7 -25q9 -12 30 -12q23 0 36 13q11 10 16.5 24.5t12.5 51.5zM499 320q-2 -13 -3.5 -22t-1.5 -16q0 -17 9 -27t27 -10q22 0 35 13
q9 9 14 23.5t11 38.5q3 14 4 23.5t1 16.5q0 19 -8 27q-9 10 -28 10q-22 0 -35 -13q-16 -16 -25 -64z" />
    <glyph glyph-name="uni215F" unicode="&#x215f;" horiz-adv-x="391" 
d="M209 661l-75 -51l9 49l79 53h36l-85 -427h-39zM528 712h42l-378 -712h-42z" />
    <glyph glyph-name="uni2189" unicode="&#x2189;" horiz-adv-x="677" 
d="M134 631q5 24 14.5 40.5t23.5 27.5q24 18 58 18q23 0 37.5 -7t22.5 -16q16 -17 16 -42q0 -5 -0.5 -12.5t-2.5 -13.5l-52 -260q-10 -46 -38 -68q-24 -18 -59 -18q-23 0 -37 6.5t-22 16.5q-8 11 -12 20t-4 22q0 11 3 26zM120 369q-2 -10 -2 -17q0 -15 10.5 -26t30.5 -11
q16 0 31.5 11t20.5 39l53 263q2 10 2 17q0 15 -10 26t-30 11q-16 0 -31 -11t-21 -39zM528 712h42l-378 -712h-42zM466 345q7 46 37 70q22 17 57 17q21 0 33.5 -5t21.5 -16q7 -8 10.5 -19.5t3.5 -30.5q0 -8 -2 -19t-5 -28q-5 -25 -10.5 -39.5t-14.5 -25.5q-10 -13 -28 -21
q14 -8 22 -20.5t8 -32.5q0 -10 -2 -23.5t-6 -32.5q-8 -42 -17 -65.5t-26 -37.5q-24 -21 -64 -21q-17 0 -33.5 6t-25.5 17q-8 11 -11 21t-3 23q0 7 0.5 15t1.5 12l6 31h39l-6 -33q-1 -5 -1.5 -11t-0.5 -10q0 -18 10 -27t27 -9q22 0 35 13q10 9 16.5 23.5t14.5 52.5
q5 24 6.5 37.5t1.5 19.5q0 15 -10 25t-28 10h-27l7 33h23q17 0 31 12q10 9 14.5 19t11.5 39q7 28 7 44q0 20 -7.5 29.5t-26.5 9.5q-20 0 -33 -12t-18 -39l-6 -34h-38z" />
    <glyph glyph-name="arrowleft" unicode="&#x2190;" horiz-adv-x="631" 
d="M33 268l241 240h75l-215 -212h446v-55h-446l215 -214h-75z" />
    <glyph glyph-name="arrowup" unicode="&#x2191;" horiz-adv-x="631" 
d="M79 310l241 241l240 -241v-75l-213 215v-446h-55v446l-213 -215v75z" />
    <glyph glyph-name="arrowright" unicode="&#x2192;" horiz-adv-x="631" 
d="M60 296h445l-214 212h75l241 -240l-241 -241h-75l214 214h-445v55z" />
    <glyph glyph-name="arrowdown" unicode="&#x2193;" horiz-adv-x="631" 
d="M79 300l213 -214v445h55v-445l213 214v-75l-240 -241l-241 241v75z" />
    <glyph glyph-name="uni2196" unicode="&#x2196;" horiz-adv-x="631" 
d="M126 470h341l52 -52l-302 1l315 -316l-38 -38l-316 315l1 -302l-53 52v340z" />
    <glyph glyph-name="uni2197" unicode="&#x2197;" horiz-adv-x="631" 
d="M422 419l-302 -1l53 53h340v-341l-53 -52l1 302l-315 -315l-39 38z" />
    <glyph glyph-name="uni2198" unicode="&#x2198;" horiz-adv-x="631" 
d="M422 117l-315 315l38 38l315 -314l-1 302l54 -54l-1 -340h-340l-53 54z" />
    <glyph glyph-name="uni2199" unicode="&#x2199;" horiz-adv-x="631" 
d="M127 404l53 54l-1 -302l315 314l38 -38l-314 -315l302 1l-53 -54h-340v340z" />
    <glyph glyph-name="partialdiff" unicode="&#x2202;" horiz-adv-x="339" 
d="M35 34q-15 22 -15 67q0 19 5.5 58t15.5 91q11 54 20.5 92.5t19.5 64.5t19.5 42t20.5 26q32 32 82 32q31 0 50 -16q16 -14 21 -30l23 114q2 12 3 22.5t1 18.5q0 9 -2 20t-10 19q-6 8 -16 12.5t-25 4.5q-40 0 -73 -36l-29 34q26 26 50 37t59 11q30 0 49.5 -9t30.5 -23
q11 -15 15.5 -29.5t4.5 -35.5q0 -9 -2.5 -25.5t-4.5 -29.5l-63 -312q-11 -51 -20.5 -89t-19.5 -65t-20 -45t-20 -28q-16 -17 -38.5 -26t-47.5 -9q-32 0 -52 11t-32 31zM231 250q3 16 7 35t7 39t5.5 41t2.5 40q0 24 -11 39.5t-37 15.5q-11 0 -22 -3.5t-20 -12.5
q-26 -25 -39 -71.5t-29 -122.5q-3 -16 -7 -35t-7 -39t-5.5 -41t-2.5 -40q0 -24 11 -39.5t37 -15.5q11 0 22 3.5t20 12.5q26 25 39 71.5t29 122.5z" />
    <glyph glyph-name="Delta" unicode="&#x2206;" horiz-adv-x="356" 
d="M245 712h53l4 -712h-348zM245 50l8 559l-216 -559h208z" />
    <glyph glyph-name="product" unicode="&#x220f;" horiz-adv-x="406" 
d="M166 760h278l-197 -980h-56l187 930h-166l-187 -930h-56z" />
    <glyph glyph-name="summation" unicode="&#x2211;" 
d="M175 291l-42 426l9 43h243l-11 -50h-181l34 -398l-11 -57l-194 -425h192l-10 -50h-253l8 43z" />
    <glyph glyph-name="minus" unicode="&#x2212;" horiz-adv-x="406" 
d="M56 302h314l-10 -50h-314z" />
    <glyph glyph-name="uni2219" unicode="&#x2219;" horiz-adv-x="406" 
d="M49 279q0 32 12 60.5t33 49.5t49.5 33.5t61.5 12.5q32 0 60.5 -12.5t49.5 -33.5t33.5 -49.5t12.5 -60.5t-12.5 -60.5t-33.5 -49.5t-49.5 -33.5t-60.5 -12.5q-33 0 -61.5 12.5t-49.5 33.5t-33 49.5t-12 60.5z" />
    <glyph glyph-name="radical" unicode="&#x221a;" horiz-adv-x="414" 
d="M52 492h54l3 -406l253 626h118l-10 -50h-76l-273 -662h-57z" />
    <glyph glyph-name="infinity" unicode="&#x221e;" horiz-adv-x="584" 
d="M91 274q0 -33 21 -52.5t53 -19.5q29 0 50.5 20t48.5 52q-26 32 -48 53.5t-51 21.5q-32 0 -53 -21t-21 -54zM298 239q-35 -42 -66 -62t-69 -20q-54 0 -86 33.5t-32 84.5t32 85t86 34q37 0 68.5 -20.5t66.5 -62.5q35 42 66.5 62.5t68.5 20.5q54 0 86 -34t32 -85t-32 -84.5
t-86 -33.5q-38 0 -69 20t-66 62zM505 274q0 33 -21 54t-53 21q-29 0 -51 -21.5t-48 -53.5q27 -32 48.5 -52t50.5 -20q32 0 53 19.5t21 52.5z" />
    <glyph glyph-name="integral" unicode="&#x222b;" horiz-adv-x="265" 
d="M322 667q-81 0 -99 -89l-129 -645q-8 -39 -20.5 -63.5t-34.5 -41.5q-17 -14 -40.5 -22.5t-65.5 -8.5l9 47q81 0 99 89l129 645q8 39 20.5 63.5t33.5 41.5q18 14 41.5 22.5t65.5 8.5z" />
    <glyph glyph-name="approxequal" unicode="&#x2248;" horiz-adv-x="406" 
d="M57 335q18 16 32 26.5t26 16.5t22.5 8t22.5 2q18 0 33 -6t38 -19q17 -9 27 -14t25 -5q16 0 29.5 7t39.5 30l28 -36q-32 -28 -54 -39.5t-47 -11.5q-19 0 -34.5 7t-35.5 18q-19 11 -29.5 15t-22.5 4q-17 0 -32 -8t-40 -31zM28 191q18 16 32 26.5t26 16.5t22.5 8t22.5 2
q18 0 33 -6t38 -19q17 -9 27 -14t25 -5q16 0 29.5 7t39.5 30l28 -36q-32 -28 -54 -39.5t-47 -11.5q-19 0 -34.5 7t-35.5 18q-19 11 -29.5 15t-22.5 4q-17 0 -32 -8t-40 -31z" />
    <glyph glyph-name="notequal" unicode="&#x2260;" horiz-adv-x="406" 
d="M354 222l-9 -50h-197l-91 -96l-32 30l64 66h-59l10 50h94l88 94h-163l10 50h198l91 96l32 -30l-64 -66h57l-10 -50h-92l-88 -94h161z" />
    <glyph glyph-name="lessequal" unicode="&#x2264;" horiz-adv-x="339" 
d="M28 229l240 -170l-12 -62l-241 170zM57 376l308 170l-13 -67l-242 -131l188 -134l-11 -57l-240 169z" />
    <glyph glyph-name="greaterequal" unicode="&#x2265;" horiz-adv-x="339" 
d="M-7 59l309 170l-12 -62l-309 -170zM321 325l-308 -170l13 67l242 131l-188 134l11 57l240 -169z" />
    <glyph glyph-name="dotmath" unicode="&#x22c5;" horiz-adv-x="406" 
d="M161 334h114l-22 -112h-114z" />
    <glyph glyph-name="lozenge" unicode="&#x25ca;" horiz-adv-x="468" 
d="M198 57l-131 282l235 271l130 -282zM211 138l167 196l-89 195l-166 -195z" />
    <glyph glyph-name="fi" unicode="&#xfb01;" horiz-adv-x="371" 
d="M313 508h52l-102 -508h-52zM341 689h65l-12 -66h-65zM116 466h-58l8 42h58l14 70q8 40 21 65t33 40q17 13 40.5 21.5t65.5 8.5l-9 -46q-82 0 -99 -89l-14 -70h81l-8 -42h-81l-93 -466h-52z" />
    <glyph glyph-name="fl" unicode="&#xfb02;" horiz-adv-x="407" 
d="M255 34q-11 16 -15.5 30.5t-4.5 31.5q0 8 0.5 18t2.5 18l117 580h52l-115 -577q-2 -14 -2.5 -20t-0.5 -14q0 -26 15 -40.5t47 -14.5l-9 -46q-37 0 -56.5 10t-30.5 24zM116 466h-58l8 42h58l14 70q8 40 21 65t33 40q17 13 40.5 21.5t65.5 8.5l-9 -46q-82 0 -99 -89
l-14 -70h81l-8 -42h-81l-93 -466h-52z" />
    <glyph glyph-name="uniFEFF" unicode="&#xfeff;" horiz-adv-x="0" 
 />
    <glyph glyph-name="caroncomma.ss01" horiz-adv-x="468" 
d="M433 721h49l-22 -111l-57 -39z" />
    <glyph glyph-name="caroncomma" horiz-adv-x="469" 
d="M440 719h48l-54 -133h-41z" />
    <glyph glyph-name="commaaccent" 
d="M95 -37h43l-68 -132h-52z" />
    <glyph glyph-name="commaturn" horiz-adv-x="302" 
d="M250 582h-43l68 132h52z" />
    <glyph glyph-name="breveCyrLc.comp" 
d="M189 678q-1 -5 -1 -8v-4q0 -48 49 -48q26 0 44.5 14t28.5 46h42q-14 -54 -42.5 -77.5t-77.5 -23.5q-43 0 -64.5 22.5t-21.5 58.5v7q0 4 1 13h42z" />
    <glyph glyph-name="breveCyrUc.comp" horiz-adv-x="393" 
d="M255 856q-1 -5 -1 -8v-4q0 -48 50 -48q25 0 44 14t29 46h42q-15 -54 -43.5 -77.5t-76.5 -23.5q-43 0 -65 23t-22 58v7q0 4 2 13h41z" />
    <glyph glyph-name="grave.lc" 
d="M170 712h50l38 -128h-45z" />
    <glyph glyph-name="dieresis.lc" 
d="M153 664h58l-12 -62h-58zM282 664h58l-13 -62h-58z" />
    <glyph glyph-name="macron.lc" 
d="M145 654h198l-9 -42h-198z" />
    <glyph glyph-name="acute.lc" horiz-adv-x="330" 
d="M293 711h55l-94 -129h-51z" />
    <glyph glyph-name="circumflex.lc" 
d="M333 582h-44l-38 92l-76 -92h-48l106 129h46z" />
    <glyph glyph-name="caron.lc" 
d="M152 704h45l38 -92l75 92h48l-106 -130h-45z" />
    </font>
</defs>
</svg>
